<svg width="40" height="40" viewBox="0 0 40 40" fill="none" xmlns="http://www.w3.org/2000/svg">
<g id="ic-acte-secpndaire">
<g id="Vector">
<path d="M20.0002 19.583C20.6905 19.583 21.2502 20.1427 21.2502 20.833V22.083H22.5002C23.1905 22.083 23.7502 22.6427 23.7502 23.333C23.7502 24.0233 23.1905 24.583 22.5002 24.583H21.2502V25.833C21.2502 26.5233 20.6905 27.083 20.0002 27.083C19.3098 27.083 18.7502 26.5233 18.7502 25.833V24.583H17.5002C16.8098 24.583 16.2502 24.0233 16.2502 23.333C16.2502 22.6427 16.8098 22.083 17.5002 22.083H18.7502V20.833C18.7502 20.1427 19.3098 19.583 20.0002 19.583Z" fill="#1B2746"/>
<path fill-rule="evenodd" clip-rule="evenodd" d="M20.0002 15.4163C15.6279 15.4163 12.0835 18.9608 12.0835 23.333C12.0835 27.7053 15.6279 31.2497 20.0002 31.2497C24.3725 31.2497 27.9168 27.7053 27.9168 23.333C27.9168 18.9608 24.3725 15.4163 20.0002 15.4163ZM14.5835 23.333C14.5835 20.3415 17.0087 17.9163 20.0002 17.9163C22.9917 17.9163 25.4168 20.3415 25.4168 23.333C25.4168 26.3245 22.9917 28.7497 20.0002 28.7497C17.0087 28.7497 14.5835 26.3245 14.5835 23.333Z" fill="#1B2746"/>
<path fill-rule="evenodd" clip-rule="evenodd" d="M19.9135 2.08301C18.416 2.08296 17.1673 2.08293 16.176 2.21619C15.1297 2.35688 14.185 2.66633 13.4259 3.42544C12.6668 4.18456 12.3574 5.12923 12.2167 6.17554C12.1182 6.90821 12.0925 7.78149 12.0858 8.79189C11.005 8.82658 10.0414 8.88978 9.18513 9.00491C7.2311 9.26763 5.64951 9.82114 4.40223 11.0684C3.15496 12.3157 2.60143 13.8973 2.33873 15.8513C2.08345 17.75 2.08346 20.176 2.0835 23.239V23.427C2.08346 26.49 2.08345 28.916 2.33873 30.8147C2.60143 32.7687 3.15496 34.3503 4.40223 35.5977C5.64951 36.8448 7.2311 37.3983 9.18513 37.6612C11.0838 37.9163 13.5098 37.9163 16.5727 37.9163H23.4275C26.4905 37.9163 28.9165 37.9163 30.8152 37.6612C32.7692 37.3983 34.3508 36.8448 35.5982 35.5977C36.8453 34.3503 37.3988 32.7687 37.6617 30.8147C37.9168 28.916 37.9168 26.49 37.9168 23.4272V23.239C37.9168 20.1762 37.9168 17.75 37.6617 15.8513C37.3988 13.8973 36.8453 12.3157 35.5982 11.0684C34.3508 9.82114 32.7692 9.26763 30.8152 9.00491C29.9588 8.88978 28.9953 8.82658 27.9145 8.79189C27.9078 7.78149 27.8822 6.90821 27.7837 6.17554C27.643 5.12923 27.3335 4.18456 26.5743 3.42544C25.8153 2.66633 24.8707 2.35688 23.8243 2.21619C22.833 2.08293 21.5843 2.08296 20.0868 2.08301H19.9135ZM25.4138 8.75264C25.4068 7.80211 25.3835 7.08509 25.306 6.50868C25.2025 5.73956 25.0238 5.41041 24.8067 5.19321C24.5895 4.97601 24.2603 4.79731 23.4912 4.69391C22.6862 4.58568 21.6068 4.58301 20.0002 4.58301C18.3935 4.58301 17.3142 4.58568 16.5091 4.69391C15.74 4.79731 15.4109 4.97601 15.1937 5.19321C14.9765 5.41041 14.7978 5.73956 14.6944 6.50868C14.6169 7.08509 14.5935 7.80211 14.5865 8.75264C15.2167 8.74968 15.8784 8.74968 16.5728 8.74968H23.4275C24.122 8.74968 24.7837 8.74968 25.4138 8.75264ZM6.17 12.8362C6.87535 12.1308 7.84143 11.7081 9.51825 11.4826C11.231 11.2523 13.4888 11.2497 16.6668 11.2497H23.3335C26.5115 11.2497 28.7693 11.2523 30.4822 11.4826C32.1588 11.7081 33.125 12.1308 33.8303 12.8362C34.5357 13.5415 34.9585 14.5076 35.1838 16.1844C35.4142 17.8972 35.4168 20.155 35.4168 23.333C35.4168 26.511 35.4142 28.7688 35.1838 30.4817C34.9585 32.1583 34.5357 33.1245 33.8303 33.8298C33.125 34.5352 32.1588 34.958 30.4822 35.1833C28.7693 35.4137 26.5115 35.4163 23.3335 35.4163H16.6668C13.4888 35.4163 11.231 35.4137 9.51825 35.1833C7.84143 34.958 6.87535 34.5352 6.17 33.8298C5.46465 33.1245 5.04188 32.1583 4.81643 30.4817C4.58615 28.7688 4.5835 26.511 4.5835 23.333C4.5835 20.155 4.58615 17.8972 4.81643 16.1844C5.04188 14.5076 5.46465 13.5415 6.17 12.8362Z" fill="#1B2746"/>
</g>
<g id="Vector_2">
<path d="M20.0002 19.5837C20.6905 19.5837 21.2502 20.1433 21.2502 20.8337V22.0837H22.5002C23.1905 22.0837 23.7502 22.6433 23.7502 23.3337C23.7502 24.024 23.1905 24.5837 22.5002 24.5837H21.2502V25.8337C21.2502 26.524 20.6905 27.0837 20.0002 27.0837C19.3098 27.0837 18.7502 26.524 18.7502 25.8337V24.5837H17.5002C16.8098 24.5837 16.2502 24.024 16.2502 23.3337C16.2502 22.6433 16.8098 22.0837 17.5002 22.0837H18.7502V20.8337C18.7502 20.1433 19.3098 19.5837 20.0002 19.5837Z" fill="#0696D6"/>
<path fill-rule="evenodd" clip-rule="evenodd" d="M20.0002 15.417C15.6279 15.417 12.0835 18.9615 12.0835 23.3337C12.0835 27.706 15.6279 31.2503 20.0002 31.2503C24.3725 31.2503 27.9168 27.706 27.9168 23.3337C27.9168 18.9615 24.3725 15.417 20.0002 15.417ZM14.5835 23.3337C14.5835 20.3422 17.0087 17.917 20.0002 17.917C22.9917 17.917 25.4168 20.3422 25.4168 23.3337C25.4168 26.3252 22.9917 28.7503 20.0002 28.7503C17.0087 28.7503 14.5835 26.3252 14.5835 23.3337Z" fill="#0696D6"/>
</g>
</g>
</svg>
