<svg width="41" height="40" viewBox="0 0 41 40" fill="none" xmlns="http://www.w3.org/2000/svg">
<g id="ic-acte">
<path id="Vector" fill-rule="evenodd" clip-rule="evenodd" d="M26.305 2.36692C28.4917 3.10282 29.9168 5.16037 29.9168 7.85792C29.9168 9.55382 28.9527 11.1148 27.8783 12.3601C26.774 13.6403 25.3762 14.7892 24.1535 15.6804C24.1012 15.7186 24.0492 15.7566 23.9977 15.7943C22.811 16.6613 21.832 17.3767 20.3335 17.3767C18.8348 17.3767 17.8558 16.6613 16.6692 15.7942C16.6177 15.7566 16.5657 15.7186 16.5133 15.6804C15.2907 14.7891 13.8929 13.6403 12.7885 12.3601C11.7142 11.1148 10.7501 9.55382 10.7501 7.85793C10.7501 5.16038 12.1751 3.10283 14.3619 2.36693C16.227 1.73925 18.398 2.15355 20.3335 3.56238C22.2688 2.15355 24.4398 1.73925 26.305 2.36692ZM25.5077 4.73635C24.4208 4.37063 22.8003 4.60723 21.1793 6.0972C20.701 6.53682 19.9658 6.53682 19.4875 6.0972C17.8665 4.60723 16.246 4.37063 15.1593 4.73635C14.1168 5.08717 13.2501 6.09353 13.2501 7.85793C13.2501 8.63722 13.7243 9.61755 14.6815 10.7271C15.6086 11.8019 16.8356 12.8216 17.986 13.6602C19.3912 14.6846 19.7252 14.8766 20.3335 14.8766C20.9417 14.8766 21.2757 14.6846 22.6808 13.6602C23.8312 12.8217 25.0582 11.8019 25.9853 10.7272C26.9425 9.61757 27.4168 8.63722 27.4168 7.85792C27.4168 6.09353 26.55 5.08717 25.5077 4.73635ZM14.8066 24.0803C17.9163 23.4778 21.2452 23.613 23.9388 25.2197C24.3172 25.4453 24.6718 25.7265 24.9813 26.074C25.6077 26.7777 25.9313 27.6522 25.9465 28.529C26.2653 28.3233 26.5847 28.095 26.909 27.85L29.921 25.5747C31.4287 24.4358 33.6197 24.4357 35.1275 25.5742C36.5208 26.6262 37.0762 28.5142 36.0788 30.1128C35.37 31.2492 34.3025 32.8207 33.216 33.827C32.1178 34.8442 30.5548 35.6993 29.3727 36.27C27.9368 36.963 26.386 37.3462 24.8782 37.5902C21.7962 38.089 18.5892 38.0127 15.5418 37.385C13.9844 37.064 12.366 36.8973 10.7667 36.8973H7.0001C6.30975 36.8973 5.7501 36.3377 5.7501 35.6473C5.7501 34.957 6.30975 34.3973 7.0001 34.3973H10.7667C12.5368 34.3973 14.3242 34.5815 16.0462 34.9363C18.7997 35.5037 21.7003 35.572 24.4787 35.1223C25.8602 34.8987 27.1502 34.5667 28.2858 34.0185C29.4248 33.4687 30.7055 32.7447 31.5173 31.9928C32.3382 31.2325 33.2568 29.9132 33.9578 28.7897C34.1693 28.4505 34.14 27.9612 33.6212 27.5693C33.0048 27.104 32.044 27.1042 31.4278 27.5695L28.416 29.8448C27.2135 30.753 25.7337 31.7248 23.898 32.0175C23.7127 32.0472 23.5198 32.0742 23.3197 32.098C23.2242 32.1152 23.1248 32.1267 23.0222 32.1305C22.085 32.2237 20.9997 32.2453 19.8022 32.1322C19.1148 32.0673 18.6103 31.4575 18.6752 30.7702C18.7402 30.0828 19.35 29.5783 20.0372 29.6433C21.083 29.742 22.0212 29.7202 22.8172 29.6385C22.8333 29.6368 22.8493 29.6352 22.8653 29.6335C22.8987 29.6142 22.9495 29.579 23.016 29.5207C23.5485 29.056 23.596 28.2778 23.114 27.7363C22.9918 27.5992 22.8415 27.476 22.6582 27.3667C20.6897 26.1925 18.0605 25.9963 15.2821 26.5347C12.5196 27.0698 9.77495 28.3028 7.7232 29.7578C7.16007 30.1572 6.37984 30.0243 5.98047 29.4613C5.58112 28.8982 5.71389 28.118 6.277 27.7185C8.60762 26.0658 11.6811 24.6858 14.8066 24.0803Z" fill="#1C274C"/>
<path id="Vector_2" d="M29.9167 7.85791C29.9167 5.16036 28.4916 3.10281 26.3049 2.36691C24.4397 1.73925 22.2687 2.15355 20.3334 3.56238C18.3979 2.15355 16.2269 1.73925 14.3618 2.36693C12.175 3.10283 10.75 5.16038 10.75 7.85793C10.75 9.55381 11.7141 11.1147 12.7884 12.3601C13.8928 13.6403 15.2906 14.7891 16.5132 15.6804L16.6691 15.7942C17.8557 16.6613 18.8347 17.3767 20.3334 17.3767C21.8319 17.3767 22.8109 16.6613 23.9976 15.7942L24.1534 15.6804C25.3761 14.7892 26.7739 13.6403 27.8782 12.3601C28.9526 11.1148 29.9167 9.55381 29.9167 7.85791Z" fill="#0696D6"/>
</g>
</svg>
