<svg width="41" height="40" viewBox="0 0 41 40" fill="none" xmlns="http://www.w3.org/2000/svg">
<rect x="0.400024" width="40" height="40" rx="8" fill="#E9FCD4"/>
<path fill-rule="evenodd" clip-rule="evenodd" d="M15.4 9.75C15.8142 9.75 16.15 10.0858 16.15 10.5V11.2627C16.8121 11.25 17.5414 11.25 18.3436 11.25H22.4564C23.2586 11.25 23.988 11.25 24.65 11.2627V10.5C24.65 10.0858 24.9858 9.75 25.4 9.75C25.8142 9.75 26.15 10.0858 26.15 10.5V11.3271C26.4099 11.3469 26.6561 11.3718 26.889 11.4031C28.0614 11.5608 29.0104 11.8929 29.7588 12.6412C30.5071 13.3896 30.8392 14.3386 30.9969 15.511C31.0472 15.8857 31.081 16.2946 31.1037 16.7401C31.1337 16.8211 31.15 16.9086 31.15 17C31.15 17.0693 31.1406 17.1364 31.123 17.2002C31.15 18.0021 31.15 18.9128 31.15 19.9436V22.0564C31.15 23.8942 31.15 25.3498 30.9969 26.489C30.8392 27.6614 30.5071 28.6104 29.7588 29.3588C29.0104 30.1071 28.0614 30.4392 26.889 30.5969C25.7498 30.75 24.2942 30.75 22.4564 30.75H18.3436C16.5059 30.75 15.0502 30.75 13.911 30.5969C12.7386 30.4392 11.7896 30.1071 11.0413 29.3588C10.2929 28.6104 9.96078 27.6614 9.80316 26.489C9.64999 25.3498 9.65 23.8942 9.65002 22.0564V19.9436C9.65001 18.9127 9.65 18.0021 9.67703 17.2002C9.65943 17.1364 9.65002 17.0693 9.65002 17C9.65002 16.9086 9.66636 16.8211 9.69629 16.7401C9.71897 16.2946 9.75278 15.8857 9.80316 15.511C9.96078 14.3386 10.2929 13.3896 11.0413 12.6412C11.7896 11.8929 12.7386 11.5608 13.911 11.4031C14.1439 11.3718 14.3901 11.3469 14.65 11.3271V10.5C14.65 10.0858 14.9858 9.75 15.4 9.75ZM11.1631 17.75C11.1503 18.4027 11.15 19.146 11.15 20V22C11.15 23.9068 11.1516 25.2615 11.2898 26.2892C11.425 27.2952 11.6787 27.8749 12.1019 28.2981C12.5251 28.7213 13.1048 28.975 14.1109 29.1102C15.1385 29.2484 16.4932 29.25 18.4 29.25H22.4C24.3068 29.25 25.6615 29.2484 26.6892 29.1102C27.6952 28.975 28.2749 28.7213 28.6981 28.2981C29.1213 27.8749 29.375 27.2952 29.5102 26.2892C29.6484 25.2615 29.65 23.9068 29.65 22V20C29.65 19.146 29.6497 18.4027 29.6369 17.75H11.1631ZM29.5683 16.25H11.2317C11.2477 16.0606 11.2669 15.8812 11.2898 15.7108C11.425 14.7048 11.6787 14.1251 12.1019 13.7019C12.5251 13.2787 13.1048 13.025 14.1109 12.8898C15.1385 12.7516 16.4932 12.75 18.4 12.75H22.4C24.3068 12.75 25.6615 12.7516 26.6892 12.8898C27.6952 13.025 28.2749 13.2787 28.6981 13.7019C29.1213 14.1251 29.375 14.7048 29.5102 15.7108C29.5331 15.8812 29.5523 16.0606 29.5683 16.25Z" fill="#1BC47D"/>
<path fill-rule="evenodd" clip-rule="evenodd" d="M22.65 24.5C22.65 23.2574 23.6574 22.25 24.9 22.25C26.1426 22.25 27.15 23.2574 27.15 24.5C27.15 25.7426 26.1426 26.75 24.9 26.75C23.6574 26.75 22.65 25.7426 22.65 24.5ZM24.9 23.75C24.4858 23.75 24.15 24.0858 24.15 24.5C24.15 24.9142 24.4858 25.25 24.9 25.25C25.3142 25.25 25.65 24.9142 25.65 24.5C25.65 24.0858 25.3142 23.75 24.9 23.75Z" fill="#1BC47D"/>
</svg>
