<svg width="40" height="40" viewBox="0 0 40 40" fill="none" xmlns="http://www.w3.org/2000/svg">
<rect width="40" height="40" rx="8" fill="#0696D6" fill-opacity="0.1"/>
<path fill-rule="evenodd" clip-rule="evenodd" d="M15 9.75C15.4142 9.75 15.75 10.0858 15.75 10.5V11.2627C16.412 11.25 17.1414 11.25 17.9436 11.25H22.0564C22.8586 11.25 23.588 11.25 24.25 11.2627V10.5C24.25 10.0858 24.5858 9.75 25 9.75C25.4142 9.75 25.75 10.0858 25.75 10.5V11.3271C26.0099 11.3469 26.2561 11.3718 26.489 11.4031C27.6614 11.5608 28.6104 11.8929 29.3588 12.6412C30.1071 13.3896 30.4392 14.3386 30.5969 15.511C30.6472 15.8857 30.681 16.2946 30.7037 16.7401C30.7337 16.8211 30.75 16.9086 30.75 17C30.75 17.0693 30.7406 17.1364 30.723 17.2002C30.75 18.0021 30.75 18.9128 30.75 19.9436V22.0564C30.75 23.8942 30.75 25.3498 30.5969 26.489C30.4392 27.6614 30.1071 28.6104 29.3588 29.3588C28.6104 30.1071 27.6614 30.4392 26.489 30.5969C25.3498 30.75 23.8942 30.75 22.0564 30.75H17.9436C16.1058 30.75 14.6502 30.75 13.511 30.5969C12.3386 30.4392 11.3896 30.1071 10.6412 29.3588C9.89288 28.6104 9.56076 27.6614 9.40314 26.489C9.24997 25.3498 9.24998 23.8942 9.25 22.0564V19.9436C9.24999 18.9127 9.24998 18.0021 9.27701 17.2002C9.25941 17.1364 9.25 17.0693 9.25 17C9.25 16.9086 9.26634 16.821 9.29627 16.7401C9.31895 16.2946 9.35276 15.8857 9.40314 15.511C9.56076 14.3386 9.89288 13.3896 10.6412 12.6412C11.3896 11.8929 12.3386 11.5608 13.511 11.4031C13.7439 11.3718 13.9901 11.3469 14.25 11.3271V10.5C14.25 10.0858 14.5858 9.75 15 9.75ZM10.7631 17.75C10.7503 18.4027 10.75 19.146 10.75 20V22C10.75 23.9068 10.7516 25.2615 10.8898 26.2892C11.025 27.2952 11.2787 27.8749 11.7019 28.2981C12.1251 28.7213 12.7048 28.975 13.7109 29.1102C14.7385 29.2484 16.0932 29.25 18 29.25H22C23.9068 29.25 25.2615 29.2484 26.2892 29.1102C27.2952 28.975 27.8749 28.7213 28.2981 28.2981C28.7213 27.8749 28.975 27.2952 29.1102 26.2892C29.2484 25.2615 29.25 23.9068 29.25 22V20C29.25 19.146 29.2497 18.4027 29.2369 17.75H10.7631ZM29.1683 16.25H10.8317C10.8477 16.0606 10.8669 15.8812 10.8898 15.7108C11.025 14.7048 11.2787 14.1251 11.7019 13.7019C12.1251 13.2787 12.7048 13.025 13.7109 12.8898C14.7385 12.7516 16.0932 12.75 18 12.75H22C23.9068 12.75 25.2615 12.7516 26.2892 12.8898C27.2952 13.025 27.8749 13.2787 28.2981 13.7019C28.7213 14.1251 28.975 14.7048 29.1102 15.7108C29.1331 15.8812 29.1523 16.0606 29.1683 16.25Z" fill="#0696D6"/>
<path fill-rule="evenodd" clip-rule="evenodd" d="M18.7326 23.9578C19.6894 23.0654 20.6115 22.2058 21.5333 21.3458C21.9252 20.9801 22.3119 20.6086 22.7094 20.2485C23.084 19.9089 23.6256 19.9206 23.967 20.2636C24.2895 20.5878 24.2792 21.1298 23.924 21.4657C22.525 22.7876 21.1205 24.1038 19.7182 25.4223C19.6083 25.5259 19.503 25.634 19.3913 25.7357C19.0208 26.073 18.5115 26.096 18.1493 25.7553C17.4507 25.0983 16.767 24.426 16.0849 23.7531C15.8276 23.4992 15.7385 23.1832 15.8426 22.8388C16.0223 22.245 16.7964 22.0654 17.2739 22.5109C17.6879 22.8972 18.0852 23.3005 18.4883 23.6976C18.5683 23.7762 18.6421 23.861 18.7326 23.9578Z" fill="#0696D6"/>
</svg>
