<svg width="40" height="41" viewBox="0 0 40 41" fill="none" xmlns="http://www.w3.org/2000/svg">
<rect y="0.75" width="40" height="40" rx="8" fill="#FFF7CD"/>
<path fill-rule="evenodd" clip-rule="evenodd" d="M18.9451 10H21.0549C22.4225 9.99998 23.5248 9.99996 24.3918 10.1165C25.2919 10.2375 26.0497 10.4964 26.6517 11.0984C26.9501 11.3968 27.1642 11.7336 27.319 12.1071C28.2511 12.2239 29.0336 12.4803 29.6517 13.0984C30.2536 13.7003 30.5125 14.4582 30.6335 15.3583C30.75 16.2253 30.75 17.3276 30.75 18.6952V22.8049C30.75 24.1725 30.75 25.2748 30.6335 26.1418C30.5125 27.0419 30.2536 27.7998 29.6517 28.4017C29.0336 29.0198 28.2511 29.2762 27.319 29.393C27.1642 29.7664 26.9501 30.1032 26.6517 30.4017C26.0497 31.0036 25.2919 31.2625 24.3918 31.3835C23.5248 31.5 22.4225 31.5 21.0549 31.5H18.9451C17.5775 31.5 16.4752 31.5 15.6083 31.3835C14.7081 31.2625 13.9503 31.0036 13.3484 30.4017C13.0499 30.1032 12.8358 29.7664 12.681 29.393C11.7489 29.2762 10.9664 29.0198 10.3484 28.4017C9.74643 27.7998 9.48754 27.0419 9.36652 26.1418C9.24996 25.2748 9.24998 24.1725 9.25 22.8049V18.6952C9.24998 17.3276 9.24996 16.2253 9.36652 15.3583C9.48754 14.4582 9.74643 13.7003 10.3484 13.0984C10.9664 12.4803 11.7489 12.2239 12.681 12.1071C12.8358 11.7336 13.0499 11.3968 13.3484 11.0984C13.9503 10.4964 14.7081 10.2375 15.6083 10.1165C16.4752 9.99996 17.5775 9.99998 18.9451 10ZM12.3284 13.6905C11.8908 13.7959 11.618 13.9501 11.409 14.1591C11.1323 14.4358 10.9518 14.8244 10.8532 15.5582C10.7516 16.3135 10.75 17.3146 10.75 18.7501V22.7501C10.75 24.1855 10.7516 25.1866 10.8532 25.9419C10.9518 26.6757 11.1323 27.0643 11.409 27.341C11.618 27.55 11.8908 27.7042 12.3285 27.8096C12.25 26.9984 12.25 26.0035 12.25 24.8049V16.6951C12.25 15.4965 12.25 14.5017 12.3284 13.6905ZM27.6716 27.8096C28.1092 27.7042 28.382 27.55 28.591 27.341C28.8678 27.0643 29.0482 26.6757 29.1469 25.9419C29.2484 25.1866 29.25 24.1855 29.25 22.7501V18.7501C29.25 17.3146 29.2484 16.3135 29.1469 15.5582C29.0482 14.8244 28.8678 14.4358 28.591 14.1591C28.382 13.9501 28.1092 13.7959 27.6716 13.6905C27.75 14.5017 27.75 15.4965 27.75 16.6951V24.8049C27.75 26.0035 27.75 26.9984 27.6716 27.8096ZM15.8081 11.6032C15.0744 11.7018 14.6858 11.8823 14.409 12.159C14.1323 12.4358 13.9518 12.8244 13.8532 13.5581C13.7516 14.3135 13.75 15.3146 13.75 16.75V24.75C13.75 26.1854 13.7516 27.1865 13.8532 27.9419C13.9518 28.6757 14.1323 29.0642 14.409 29.341C14.6858 29.6178 15.0744 29.7982 15.8081 29.8969C16.5635 29.9984 17.5646 30 19 30H21C22.4354 30 23.4365 29.9984 24.1919 29.8969C24.9257 29.7982 25.3142 29.6178 25.591 29.341C25.8678 29.0642 26.0482 28.6757 26.1469 27.9419C26.2484 27.1865 26.25 26.1854 26.25 24.75V16.75C26.25 15.3146 26.2484 14.3135 26.1469 13.5581C26.0482 12.8244 25.8678 12.4358 25.591 12.159C25.3142 11.8823 24.9257 11.7018 24.1919 11.6032C23.4365 11.5016 22.4354 11.5 21 11.5H19C17.5646 11.5 16.5635 11.5016 15.8081 11.6032ZM16.25 17.75C16.25 17.3358 16.5858 17 17 17H23C23.4142 17 23.75 17.3358 23.75 17.75C23.75 18.1642 23.4142 18.5 23 18.5H17C16.5858 18.5 16.25 18.1642 16.25 17.75ZM16.25 21.75C16.25 21.3358 16.5858 21 17 21H23C23.4142 21 23.75 21.3358 23.75 21.75C23.75 22.1642 23.4142 22.5 23 22.5H17C16.5858 22.5 16.25 22.1642 16.25 21.75ZM16.25 25.75C16.25 25.3358 16.5858 25 17 25H20C20.4142 25 20.75 25.3358 20.75 25.75C20.75 26.1642 20.4142 26.5 20 26.5H17C16.5858 26.5 16.25 26.1642 16.25 25.75Z" fill="#FF3C02"/>
</svg>
