<svg width="40" height="40" viewBox="0 0 40 40" fill="none" xmlns="http://www.w3.org/2000/svg">
<rect width="40" height="40" rx="8" fill="#FFF2F0"/>
<path d="M17.0547 30.75C18.4222 30.75 19.5246 30.75 20.3915 30.6335C21.2916 30.5125 22.0495 30.2536 22.6514 29.6516C23.1764 29.1267 23.4416 28.4816 23.5808 27.7236C23.7161 26.9871 23.742 26.0857 23.748 25.0042C23.7503 24.59 23.4164 24.2523 23.0022 24.25C22.588 24.2477 22.2504 24.5816 22.2481 24.9958C22.242 26.0893 22.2136 26.8644 22.1055 27.4526C22.0014 28.0195 21.8342 28.3475 21.5908 28.591C21.314 28.8677 20.9254 29.0482 20.1917 29.1468C19.4363 29.2484 18.4352 29.25 16.9998 29.25L15.9998 29.25C14.5644 29.25 13.5633 29.2484 12.8079 29.1468C12.0741 29.0482 11.6856 28.8677 11.4088 28.591C11.132 28.3142 10.9516 27.9256 10.8529 27.1919C10.7514 26.4365 10.7498 25.4354 10.7498 24L10.7498 16C10.7498 14.5646 10.7514 13.5635 10.8529 12.8081C10.9516 12.0743 11.132 11.6858 11.4088 11.409C11.6856 11.1322 12.0741 10.9518 12.8079 10.8531C13.5633 10.7516 14.5644 10.75 15.9998 10.75L16.9998 10.75C18.4352 10.75 19.4363 10.7516 20.1917 10.8531C20.9254 10.9518 21.314 11.1322 21.5908 11.409C21.8342 11.6525 22.0014 11.9805 22.1055 12.5473C22.2136 13.1356 22.242 13.9107 22.2481 15.0042C22.2504 15.4184 22.588 15.7523 23.0022 15.75C23.4164 15.7477 23.7503 15.41 23.748 14.9958C23.742 13.9143 23.7161 13.0129 23.5808 12.2764C23.4416 11.5184 23.1764 10.8733 22.6514 10.3483C22.0495 9.7464 21.2916 9.4875 20.3915 9.3665C19.5246 9.25 18.4222 9.25 17.0547 9.25L15.9449 9.25C14.5773 9.25 13.475 9.25 12.608 9.3665C11.7079 9.4875 10.9501 9.7464 10.3481 10.3483C9.7462 10.9503 9.4873 11.7081 9.3663 12.6082C9.2497 13.4752 9.2498 14.5775 9.2498 15.9451L9.2498 24.0549C9.2498 25.4225 9.2497 26.5248 9.3663 27.3917C9.4873 28.2919 9.7462 29.0497 10.3481 29.6516C10.9501 30.2536 11.7079 30.5125 12.608 30.6335C13.475 30.75 14.5773 30.75 15.9449 30.75L17.0547 30.75Z" fill="#8B0D01"/>
<path d="M17 20.75C16.5858 20.75 16.25 20.4142 16.25 20C16.25 19.5858 16.5858 19.25 17 19.25L27.9726 19.25L26.0119 17.5694C25.6974 17.2999 25.661 16.8264 25.9306 16.5119C26.2001 16.1974 26.6736 16.161 26.9881 16.4306L30.4881 19.4306C30.6543 19.573 30.75 19.7811 30.75 20C30.75 20.2189 30.6543 20.427 30.4881 20.5694L26.9881 23.5694C26.6736 23.839 26.2001 23.8026 25.9306 23.4881C25.661 23.1736 25.6974 22.7001 26.0119 22.4305L27.9726 20.75L17 20.75Z" fill="#8B0D01"/>
</svg>
