<svg width="20" height="21" viewBox="0 0 20 21" fill="none" xmlns="http://www.w3.org/2000/svg">
<path d="M14.375 9.24992C14.375 9.59508 14.0952 9.87492 13.75 9.87492H11.25C10.9048 9.87492 10.625 9.59508 10.625 9.24992V6.74992C10.625 6.40474 10.9048 6.12492 11.25 6.12492C11.5952 6.12492 11.875 6.40474 11.875 6.74992V7.74103L13.7247 5.89131C13.9688 5.64723 14.3645 5.64723 14.6086 5.89131C14.8527 6.13538 14.8527 6.53112 14.6086 6.77519L12.7589 8.62492H13.75C14.0952 8.62492 14.375 8.90475 14.375 9.24992Z" fill="#1C274C"/>
<path d="M5.39131 15.1086C5.14723 14.8645 5.14723 14.4688 5.39131 14.2247L7.24103 12.375H6.24992C5.90474 12.375 5.62492 12.0952 5.62492 11.75C5.62492 11.4048 5.90474 11.125 6.24992 11.125H8.74992C9.09508 11.125 9.37492 11.4048 9.37492 11.75V14.25C9.37492 14.5952 9.09508 14.875 8.74992 14.875C8.40475 14.875 8.12492 14.5952 8.12492 14.25V13.2589L6.27519 15.1086C6.03112 15.3527 5.63538 15.3527 5.39131 15.1086Z" fill="#1C274C"/>
<path d="M6.24992 9.87492C5.90474 9.87492 5.62492 9.59508 5.62492 9.24992C5.62492 8.90475 5.90474 8.62492 6.24992 8.62492H7.24103L5.39131 6.77519C5.14723 6.53112 5.14723 6.13538 5.39131 5.89131C5.63538 5.64723 6.03112 5.64723 6.27519 5.89131L8.12492 7.74103V6.74992C8.12492 6.40474 8.40475 6.12492 8.74992 6.12492C9.09508 6.12492 9.37492 6.40474 9.37492 6.74992V9.24992C9.37492 9.59508 9.09508 9.87492 8.74992 9.87492H6.24992Z" fill="#1C274C"/>
<path d="M14.6086 15.1086C14.8527 14.8645 14.8527 14.4688 14.6086 14.2247L12.7589 12.375H13.75C14.0952 12.375 14.375 12.0952 14.375 11.75C14.375 11.4048 14.0952 11.125 13.75 11.125H11.25C10.9048 11.125 10.625 11.4048 10.625 11.75V14.25C10.625 14.5952 10.9048 14.875 11.25 14.875C11.5952 14.875 11.875 14.5952 11.875 14.25V13.2589L13.7247 15.1086C13.9688 15.3527 14.3645 15.3527 14.6086 15.1086Z" fill="#1C274C"/>
<path fill-rule="evenodd" clip-rule="evenodd" d="M9.95225 1.54175C8.02861 1.54174 6.52107 1.54173 5.34484 1.69987C4.14089 1.86174 3.19087 2.19952 2.4452 2.9452C1.69952 3.69087 1.36174 4.64089 1.19987 5.84484C1.04173 7.02107 1.04174 8.52861 1.04175 10.4522V10.5479C1.04174 12.4716 1.04173 13.9791 1.19987 15.1553C1.36174 16.3592 1.69952 17.3093 2.4452 18.055C3.19087 18.8007 4.14089 19.1384 5.34484 19.3003C6.52107 19.4584 8.02861 19.4584 9.95225 19.4584H10.0479C11.9716 19.4584 13.4791 19.4584 14.6553 19.3003C15.8592 19.1384 16.8093 18.8007 17.555 18.055C18.3007 17.3093 18.6384 16.3592 18.8003 15.1553C18.9584 13.9791 18.9584 12.4716 18.9584 10.5479V10.4522C18.9584 8.52861 18.9584 7.02107 18.8003 5.84484C18.6384 4.64089 18.3007 3.69087 17.555 2.9452C16.8093 2.19952 15.8592 1.86174 14.6553 1.69987C13.4791 1.54173 11.9716 1.54174 10.0479 1.54175H9.95225ZM3.32908 3.82908C3.80379 3.35436 4.44606 3.08196 5.5114 2.93872C6.59471 2.79307 8.01823 2.79175 10.0001 2.79175C11.9819 2.79175 13.4054 2.79307 14.4887 2.93872C15.5541 3.08196 16.1963 3.35436 16.6711 3.82908C17.1458 4.30379 17.4182 4.94606 17.5614 6.0114C17.7071 7.09471 17.7084 8.51823 17.7084 10.5001C17.7084 12.4819 17.7071 13.9054 17.5614 14.9887C17.4182 16.0541 17.1458 16.6963 16.6711 17.1711C16.1963 17.6458 15.5541 17.9182 14.4887 18.0614C13.4054 18.2071 11.9819 18.2084 10.0001 18.2084C8.01823 18.2084 6.59471 18.2071 5.5114 18.0614C4.44606 17.9182 3.80379 17.6458 3.32908 17.1711C2.85436 16.6963 2.58196 16.0541 2.43872 14.9887C2.29307 13.9054 2.29175 12.4819 2.29175 10.5001C2.29175 8.51823 2.29307 7.09471 2.43872 6.0114C2.58196 4.94606 2.85436 4.30379 3.32908 3.82908Z" fill="#1C274C"/>
</svg>
