<svg width="41" height="40" viewBox="0 0 41 40" fill="none" xmlns="http://www.w3.org/2000/svg">
<rect x="0.199951" width="40" height="40" rx="8" fill="#E9FCD4"/>
<path fill-rule="evenodd" clip-rule="evenodd" d="M20.2 9.25C17.5767 9.25 15.4501 11.3767 15.4501 14C15.4501 16.6234 17.5767 18.75 20.2 18.75C22.8234 18.75 24.95 16.6234 24.95 14C24.95 11.3767 22.8234 9.25 20.2 9.25ZM16.9501 14C16.9501 12.2051 18.4051 10.75 20.2 10.75C21.995 10.75 23.45 12.2051 23.45 14C23.45 15.7949 21.995 17.25 20.2 17.25C18.4051 17.25 16.9501 15.7949 16.9501 14Z" fill="#1BC47D"/>
<path fill-rule="evenodd" clip-rule="evenodd" d="M20.2 20.25C17.8865 20.25 15.755 20.7759 14.1755 21.6643C12.6196 22.5396 11.4501 23.8661 11.4501 25.5L11.45 25.602C11.4489 26.7638 11.4475 28.222 12.7265 29.2635C13.356 29.7761 14.2366 30.1406 15.4263 30.3815C16.6193 30.6229 18.1743 30.75 20.2 30.75C22.2258 30.75 23.7808 30.6229 24.9738 30.3815C26.1636 30.1406 27.0442 29.7761 27.6736 29.2635C28.9526 28.222 28.9513 26.7638 28.9501 25.602L28.95 25.5C28.95 23.8661 27.7806 22.5396 26.2246 21.6643C24.6451 20.7759 22.5136 20.25 20.2 20.25ZM12.9501 25.5C12.9501 24.6487 13.5715 23.7251 14.9109 22.9717C16.2269 22.2315 18.0954 21.75 20.2 21.75C22.3048 21.75 24.1733 22.2315 25.4893 22.9717C26.8288 23.7251 27.45 24.6487 27.45 25.5C27.45 26.8078 27.4097 27.544 26.7264 28.1004C26.356 28.4022 25.7365 28.6967 24.6762 28.9113C23.6193 29.1252 22.1743 29.25 20.2 29.25C18.2258 29.25 16.7808 29.1252 15.7239 28.9113C14.6636 28.6967 14.0442 28.4022 13.6737 28.1004C12.9904 27.544 12.9501 26.8078 12.9501 25.5Z" fill="#1BC47D"/>
</svg>
