<svg width="41" height="40" viewBox="0 0 41 40" fill="none" xmlns="http://www.w3.org/2000/svg">
<g id="stethoscope-svgrepo-com 1">
<path id="Vector" fill-rule="evenodd" clip-rule="evenodd" d="M20.5832 2C21.2735 2 21.8332 2.55965 21.8332 3.25V3.66905C22.0185 3.67185 22.1767 3.67792 22.3242 3.69097C25.3412 3.95775 27.7325 6.34922 27.9993 9.36613C28.0237 9.64187 28.0237 9.95427 28.0237 10.4131V12.4517C28.0237 18.9005 23.1168 24.2032 16.8332 24.8302V28.2502C16.8332 32.1622 20.0045 35.3335 23.9165 35.3335H25.3872C27.4707 35.3335 29.291 34.1973 30.2593 32.5097C27.7835 31.6785 25.9998 29.3392 25.9998 26.5833C25.9998 23.1315 28.798 20.3333 32.2498 20.3333C35.7017 20.3333 38.4998 23.1315 38.4998 26.5833C38.4998 29.8175 36.0433 32.4778 32.8945 32.8005C31.6818 35.753 28.7788 37.8335 25.3872 37.8335H23.9165C18.6238 37.8335 14.3332 33.5428 14.3332 28.2502V24.8325C7.78601 24.2037 2.66653 18.6875 2.66653 11.9755L2.66651 10.4132C2.66646 9.95432 2.66643 9.6419 2.69081 9.36613C2.95759 6.34922 5.34907 3.95775 8.36599 3.69097C8.62544 3.66802 8.91736 3.6667 9.33319 3.66665V3.25C9.33319 2.55965 9.89283 2 10.5832 2C11.2735 2 11.8332 2.55965 11.8332 3.25V6.58333C11.8332 7.27368 11.2735 7.83333 10.5832 7.83333C9.89283 7.83333 9.33319 7.27368 9.33319 6.58333V6.1667C8.89418 6.167 8.72306 6.16913 8.58619 6.18125C6.77606 6.34132 5.34116 7.7762 5.18109 9.58635C5.16774 9.73733 5.16652 9.93003 5.16652 10.4782V11.9755C5.16652 17.7285 9.83022 22.3922 15.5832 22.3922C21.0732 22.3922 25.5237 17.9417 25.5237 12.4517V10.4782C25.5237 9.93003 25.5225 9.73733 25.509 9.58635C25.349 7.7762 23.9142 6.34132 22.104 6.18125C22.0335 6.175 21.9538 6.17142 21.8332 6.16937V6.58333C21.8332 7.27368 21.2735 7.83333 20.5832 7.83333C19.8928 7.83333 19.3332 7.27368 19.3332 6.58333V3.25C19.3332 2.55965 19.8928 2 20.5832 2ZM28.4998 26.5833C28.4998 24.5123 30.1788 22.8333 32.2498 22.8333C34.3208 22.8333 35.9998 24.5123 35.9998 26.5833C35.9998 28.6543 34.3208 30.3333 32.2498 30.3333C30.1788 30.3333 28.4998 28.6543 28.4998 26.5833Z" fill="#1C274C"/>
</g>
</svg>
