<svg width="40" height="40" viewBox="0 0 40 40" fill="none" xmlns="http://www.w3.org/2000/svg">
<rect width="40" height="40" rx="8" fill="#E9FCD4"/>
<path d="M22.9453 9.25C21.5778 9.24998 20.4754 9.24996 19.6085 9.36652C18.7084 9.48754 17.9505 9.74643 17.3486 10.3484C16.8236 10.8733 16.5584 11.5184 16.4192 12.2764C16.2839 13.0129 16.258 13.9143 16.252 14.9958C16.2497 15.41 16.5836 15.7477 16.9978 15.75C17.412 15.7523 17.7496 15.4184 17.7519 15.0042C17.758 13.9107 17.7864 13.1356 17.8945 12.5474C17.9986 11.9805 18.1658 11.6525 18.4092 11.409C18.686 11.1323 19.0746 10.9518 19.8083 10.8532C20.5637 10.7516 21.5648 10.75 23.0002 10.75H24.0002C25.4356 10.75 26.4367 10.7516 27.1921 10.8532C27.9259 10.9518 28.3144 11.1323 28.5912 11.409C28.868 11.6858 29.0484 12.0744 29.1471 12.8081C29.2486 13.5635 29.2502 14.5646 29.2502 16V24C29.2502 25.4354 29.2486 26.4365 29.1471 27.1919C29.0484 27.9257 28.868 28.3142 28.5912 28.591C28.3144 28.8678 27.9259 29.0482 27.1921 29.1469C26.4367 29.2484 25.4356 29.25 24.0002 29.25H23.0002C21.5648 29.25 20.5637 29.2484 19.8083 29.1469C19.0746 29.0482 18.686 28.8678 18.4092 28.591C18.1658 28.3475 17.9986 28.0195 17.8945 27.4527C17.7864 26.8644 17.758 26.0893 17.7519 24.9958C17.7496 24.5816 17.412 24.2477 16.9978 24.25C16.5836 24.2523 16.2497 24.59 16.252 25.0042C16.258 26.0857 16.2839 26.9871 16.4192 27.7236C16.5584 28.4816 16.8236 29.1267 17.3486 29.6517C17.9505 30.2536 18.7084 30.5125 19.6085 30.6335C20.4754 30.75 21.5778 30.75 22.9453 30.75H24.0551C25.4227 30.75 26.525 30.75 27.392 30.6335C28.2921 30.5125 29.0499 30.2536 29.6519 29.6517C30.2538 29.0497 30.5127 28.2919 30.6337 27.3918C30.7503 26.5248 30.7502 25.4225 30.7502 24.0549V15.9451C30.7502 14.5775 30.7503 13.4752 30.6337 12.6083C30.5127 11.7081 30.2538 10.9503 29.6519 10.3484C29.0499 9.74643 28.2921 9.48754 27.392 9.36652C26.525 9.24996 25.4227 9.24998 24.0551 9.25H22.9453Z" fill="#1BC47D"/>
<path d="M10.001 19.249C9.58676 19.249 9.25098 19.5848 9.25098 19.999C9.25098 20.4132 9.58676 20.749 10.001 20.749H21.9735L20.0129 22.4296C19.6984 22.6991 19.662 23.1726 19.9315 23.4871C20.2011 23.8016 20.6746 23.838 20.9891 23.5685L24.4891 20.5685C24.6553 20.426 24.751 20.218 24.751 19.999C24.751 19.7801 24.6553 19.5721 24.4891 19.4296L20.9891 16.4296C20.6746 16.16 20.2011 16.1965 19.9315 16.5109C19.662 16.8254 19.6984 17.2989 20.0129 17.5685L21.9735 19.249H10.001Z" fill="#1BC47D"/>
</svg>
