<svg width="41" height="40" viewBox="0 0 41 40" fill="none" xmlns="http://www.w3.org/2000/svg">
<rect x="0.799988" width="40" height="40" rx="8" fill="#0696D6" fill-opacity="0.1"/>
<path fill-rule="evenodd" clip-rule="evenodd" d="M17.8 9.25C15.1766 9.25 13.05 11.3767 13.05 14C13.05 16.6234 15.1766 18.75 17.8 18.75C20.4234 18.75 22.55 16.6234 22.55 14C22.55 11.3767 20.4234 9.25 17.8 9.25ZM14.55 14C14.55 12.2051 16.0051 10.75 17.8 10.75C19.5949 10.75 21.05 12.2051 21.05 14C21.05 15.7949 19.5949 17.25 17.8 17.25C16.0051 17.25 14.55 15.7949 14.55 14Z" fill="#0696D6"/>
<path d="M23.8 10.25C23.3858 10.25 23.05 10.5858 23.05 11C23.05 11.4142 23.3858 11.75 23.8 11.75C25.0426 11.75 26.05 12.7574 26.05 14C26.05 15.2426 25.0426 16.25 23.8 16.25C23.3858 16.25 23.05 16.5858 23.05 17C23.05 17.4142 23.3858 17.75 23.8 17.75C25.8711 17.75 27.55 16.0711 27.55 14C27.55 11.9289 25.8711 10.25 23.8 10.25Z" fill="#0696D6"/>
<path fill-rule="evenodd" clip-rule="evenodd" d="M12.4781 21.5204C13.8775 20.7208 15.7607 20.25 17.8 20.25C19.8393 20.25 21.7225 20.7208 23.1219 21.5204C24.5 22.3079 25.55 23.5101 25.55 25C25.55 26.4899 24.5 27.6921 23.1219 28.4796C21.7225 29.2792 19.8393 29.75 17.8 29.75C15.7607 29.75 13.8775 29.2792 12.4781 28.4796C11.1 27.6921 10.05 26.4899 10.05 25C10.05 23.5101 11.1 22.3079 12.4781 21.5204ZM13.2223 22.8228C12.067 23.483 11.55 24.2807 11.55 25C11.55 25.7193 12.067 26.517 13.2223 27.1772C14.3565 27.8253 15.9733 28.25 17.8 28.25C19.6267 28.25 21.2435 27.8253 22.3776 27.1772C23.533 26.517 24.05 25.7193 24.05 25C24.05 24.2807 23.533 23.483 22.3776 22.8228C21.2435 22.1747 19.6267 21.75 17.8 21.75C15.9733 21.75 14.3565 22.1747 13.2223 22.8228Z" fill="#0696D6"/>
<path d="M26.9607 21.2673C26.5561 21.1786 26.1561 21.4346 26.0674 21.8392C25.9787 22.2438 26.2347 22.6438 26.6393 22.7325C27.4317 22.9063 28.0649 23.2047 28.4829 23.5467C28.9014 23.8891 29.05 24.2236 29.05 24.4999C29.05 24.7506 28.9294 25.0449 28.5969 25.3538C28.262 25.6649 27.7475 25.9523 27.0838 26.1522C26.6871 26.2716 26.4624 26.6899 26.5818 27.0866C26.7013 27.4832 27.1196 27.7079 27.5162 27.5885C28.3388 27.3408 29.0743 26.9577 29.6178 26.4528C30.1637 25.9456 30.55 25.2785 30.55 24.4999C30.55 23.6351 30.0758 22.9119 29.4328 22.3858C28.7893 21.8592 27.9225 21.4782 26.9607 21.2673Z" fill="#0696D6"/>
</svg>
