<svg width="41" height="40" viewBox="0 0 41 40" fill="none" xmlns="http://www.w3.org/2000/svg">
<rect x="0.333496" width="40" height="40" rx="8" fill="#F0F7FA"/>
<path fill-rule="evenodd" clip-rule="evenodd" d="M20.2711 9.25H20.3959C22.4096 9.24998 23.9989 9.24997 25.1564 9.40259C26.2942 9.5526 27.3165 9.88319 27.802 10.8259C27.8719 10.9617 27.931 11.1028 27.9785 11.248C28.3098 12.2589 27.8196 13.2139 27.1214 14.1177C26.4113 15.0368 25.2871 16.1501 23.8638 17.5596L21.3994 20L23.8638 22.4404C25.2871 23.8499 26.4113 24.9632 27.1214 25.8823C27.8196 26.7861 28.3098 27.7411 27.9785 28.752C27.931 28.8972 27.8719 29.0383 27.802 29.1741C27.3165 30.1168 26.2942 30.4474 25.1564 30.5974C23.9989 30.75 22.4096 30.75 20.3959 30.75H20.2711C18.2573 30.75 16.6681 30.75 15.5105 30.5974C14.3727 30.4474 13.3505 30.1168 12.865 29.1741C12.795 29.0383 12.736 28.8972 12.6884 28.752C12.3571 27.7411 12.8474 26.7861 13.5456 25.8823C14.2556 24.9632 15.3799 23.8499 16.8032 22.4404L19.2676 20L16.8032 17.5596C15.3799 16.1501 14.2556 15.0368 13.5456 14.1177C12.8474 13.2139 12.3571 12.2589 12.6884 11.248C12.736 11.1028 12.795 10.9617 12.865 10.8259C13.3505 9.88319 14.3727 9.5526 15.5105 9.40259C16.6681 9.24997 18.2573 9.24998 20.2711 9.25ZM20.3335 18.9445L22.7634 16.5382C24.2414 15.0746 25.2928 14.0311 25.9343 13.2007C26.5951 12.3453 26.6309 11.9525 26.5531 11.715C26.5303 11.6455 26.502 11.5779 26.4685 11.5127C26.3518 11.2861 26.0397 11.032 24.9604 10.8897C23.9128 10.7516 22.4232 10.75 20.3335 10.75C18.2438 10.75 16.7541 10.7516 15.7066 10.8897C14.6273 11.032 14.3152 11.2861 14.1985 11.5127C14.1649 11.5779 14.1366 11.6455 14.1138 11.715C14.036 11.9525 14.0719 12.3453 14.7326 13.2007C15.3741 14.0311 16.4256 15.0746 17.9035 16.5382L20.3335 18.9445ZM20.3335 21.0555L17.9035 23.4618C16.4256 24.9254 15.3741 25.969 14.7326 26.7993C14.0719 27.6547 14.036 28.0475 14.1138 28.285C14.1366 28.3545 14.1649 28.4221 14.1985 28.4873C14.3152 28.7139 14.6273 28.968 15.7066 29.1103C16.7541 29.2484 18.2438 29.25 20.3335 29.25C22.4232 29.25 23.9128 29.2484 24.9604 29.1103C26.0397 28.968 26.3518 28.7139 26.4685 28.4873C26.502 28.4221 26.5303 28.3545 26.5531 28.285C26.6309 28.0475 26.5951 27.6547 25.9343 26.7993C25.2928 25.969 24.2414 24.9254 22.7634 23.4618L20.3335 21.0555ZM17.5835 13.5C17.5835 13.0858 17.9193 12.75 18.3335 12.75H22.3335C22.7477 12.75 23.0835 13.0858 23.0835 13.5C23.0835 13.9142 22.7477 14.25 22.3335 14.25H18.3335C17.9193 14.25 17.5835 13.9142 17.5835 13.5ZM17.5835 26.5C17.5835 26.0858 17.9193 25.75 18.3335 25.75H22.3335C22.7477 25.75 23.0835 26.0858 23.0835 26.5C23.0835 26.9142 22.7477 27.25 22.3335 27.25H18.3335C17.9193 27.25 17.5835 26.9142 17.5835 26.5Z" fill="#24388A"/>
</svg>
