<svg width="21" height="20" viewBox="0 0 21 20" fill="none" xmlns="http://www.w3.org/2000/svg">
<g id="maximize-square-3-svgrepo-com">
<path id="Vector" d="M10.2855 1.04199L10.3812 1.04199C12.3048 1.04199 13.8123 1.04198 14.9886 1.20012C16.1925 1.36199 17.1426 1.69977 17.8882 2.44544C18.6339 3.19112 18.9717 4.14114 19.1336 5.34509C19.2917 6.52132 19.2917 8.02885 19.2917 9.95249L19.2917 10.0482C19.2917 11.9718 19.2917 13.4793 19.1336 14.6556C18.9717 15.8595 18.6339 16.8096 17.8882 17.5552C17.1979 18.2456 16.3317 18.5868 15.2495 18.762C14.1855 18.9342 12.8471 18.9552 11.1678 18.9582C10.8227 18.9588 10.5423 18.6795 10.5417 18.3343C10.5411 17.9892 10.8203 17.7088 11.1656 17.7082C12.8655 17.7051 14.1014 17.6816 15.0497 17.5281C15.9797 17.3775 16.5638 17.1118 17.0043 16.6713C17.4791 16.1966 17.7515 15.5543 17.8947 14.489C18.0403 13.4057 18.0417 11.9822 18.0417 10.0003C18.0417 8.01848 18.0403 6.59496 17.8947 5.51164C17.7515 4.4463 17.4791 3.80404 17.0043 3.32933C16.5297 2.85461 15.8873 2.5822 14.822 2.43897C13.7387 2.29332 12.3152 2.29199 10.3333 2.29199C8.35149 2.29199 6.92797 2.29332 5.84466 2.43897C4.77932 2.5822 4.13706 2.85461 3.66234 3.32933C3.22182 3.76983 2.95616 4.35388 2.80562 5.28392C2.65213 6.23222 2.62855 7.46818 2.62549 9.16816C2.62486 9.51332 2.34454 9.79258 1.99936 9.79199C1.65419 9.79141 1.37487 9.51108 1.37549 9.16582C1.37851 7.48658 1.39946 6.14817 1.57168 5.08418C1.74686 4.00193 2.08811 3.13578 2.77846 2.44544C3.52413 1.69977 4.47415 1.36198 5.6781 1.20012C6.85434 1.04198 8.36186 1.04199 10.2855 1.04199Z" fill="#1C274C"/>
<path id="Vector_2" d="M10.7501 5.83301C10.7501 5.48783 11.03 5.20801 11.3751 5.20801L14.5001 5.20801C14.8453 5.20801 15.1251 5.48783 15.1251 5.83301L15.1251 8.95801C15.1251 9.30318 14.8453 9.58301 14.5001 9.58301C14.155 9.58301 13.8751 9.30318 13.8751 8.95801L13.8751 7.34189L10.7754 10.4416C10.5313 10.6857 10.1356 10.6857 9.89156 10.4416C9.64747 10.1975 9.64747 9.80184 9.89156 9.55776L12.9912 6.45801L11.3751 6.45801C11.03 6.45801 10.7501 6.17818 10.7501 5.83301Z" fill="#1C274C"/>
<path id="Vector_3" fill-rule="evenodd" clip-rule="evenodd" d="M5.29 11.042C4.54127 11.042 3.91692 11.0419 3.42127 11.1086C2.89811 11.1789 2.42578 11.3337 2.04622 11.7132C1.66666 12.0927 1.51193 12.5651 1.44159 13.0882C1.37496 13.5839 1.37498 14.2082 1.375 14.957L1.375 15.0437C1.37498 15.7924 1.37496 16.4167 1.44159 16.9124C1.51193 17.4356 1.66666 17.9079 2.04622 18.2874C2.42577 18.667 2.89811 18.8217 3.42127 18.8921C3.91692 18.9587 4.54126 18.9587 5.28998 18.9587L5.37667 18.9587C6.12539 18.9587 6.74976 18.9587 7.2454 18.8921C7.76857 18.8217 8.2409 18.667 8.62046 18.2874C9 17.9079 9.15475 17.4356 9.22508 16.9124C9.29175 16.4167 9.29167 15.7924 9.29167 15.0437L9.29167 14.957C9.29167 14.2082 9.29175 13.5839 9.22508 13.0882C9.15475 12.5651 9 12.0927 8.62046 11.7132C8.2409 11.3337 7.76857 11.1789 7.2454 11.1086C6.74975 11.0419 6.1254 11.042 5.37667 11.042L5.29 11.042ZM2.9301 12.5971C3.0387 12.4885 3.20328 12.3992 3.58783 12.3474C3.99036 12.2933 4.52999 12.292 5.33333 12.292C6.13668 12.292 6.67631 12.2933 7.07884 12.3474C7.46339 12.3992 7.62798 12.4885 7.73657 12.5971C7.84517 12.7057 7.93452 12.8702 7.98622 13.2548C8.04034 13.6573 8.04167 14.197 8.04167 15.0003C8.04167 15.8037 8.04034 16.3433 7.98622 16.7458C7.93452 17.1304 7.84517 17.295 7.73657 17.4036C7.62797 17.5122 7.46339 17.6015 7.07884 17.6532C6.67631 17.7073 6.13667 17.7087 5.33333 17.7087C4.52999 17.7087 3.99036 17.7073 3.58783 17.6532C3.20327 17.6015 3.0387 17.5122 2.9301 17.4036C2.8215 17.295 2.73215 17.1304 2.68045 16.7458C2.62633 16.3433 2.625 15.8037 2.625 15.0003C2.625 14.197 2.62633 13.6573 2.68045 13.2548C2.73215 12.8702 2.8215 12.7057 2.9301 12.5971Z" fill="#1C274C"/>
</g>
</svg>
