<svg width="15" height="15" viewBox="0 0 15 15" fill="none" xmlns="http://www.w3.org/2000/svg">
<path d="M14.5312 3.75H13.125V1.40625C13.125 1.03329 12.9768 0.675604 12.7131 0.411881C12.4494 0.148158 12.0917 0 11.7188 0C11.3458 0 10.9881 0.148158 10.7244 0.411881C10.4607 0.675604 10.3125 1.03329 10.3125 1.40625V3.75H1.40625C1.03329 3.75 0.675604 3.89816 0.411881 4.16188C0.148158 4.4256 0 4.78329 0 5.15625L0 13.5938C0 13.9667 0.148158 14.3244 0.411881 14.5881C0.675604 14.8518 1.03329 15 1.40625 15H10.7812C10.9056 15 11.0248 14.9506 11.1127 14.8627C11.2006 14.7748 11.25 14.6556 11.25 14.5312V13.125H14.5312C14.6556 13.125 14.7748 13.0756 14.8627 12.9877C14.9506 12.8998 15 12.7806 15 12.6562V4.21875C15 4.09443 14.9506 3.9752 14.8627 3.88729C14.7748 3.79939 14.6556 3.75 14.5312 3.75ZM11.25 2.8125H12.1875V6.83906L11.7188 7.30781L11.25 6.83906V2.8125ZM11.7188 0.9375C11.8431 0.9375 11.9623 0.986886 12.0502 1.07479C12.1381 1.1627 12.1875 1.28193 12.1875 1.40625V1.875H11.25V1.40625C11.25 1.28193 11.2994 1.1627 11.3873 1.07479C11.4752 0.986886 11.5944 0.9375 11.7188 0.9375ZM10.3125 14.0625H1.40625C1.28193 14.0625 1.1627 14.0131 1.07479 13.9252C0.986886 13.8373 0.9375 13.7181 0.9375 13.5938C0.9375 13.4694 0.986886 13.3502 1.07479 13.2623C1.1627 13.1744 1.28193 13.125 1.40625 13.125H10.3125V14.0625ZM14.0625 12.1875H1.40625C1.24634 12.1888 1.08782 12.2173 0.9375 12.2719V5.15625C0.9375 5.03193 0.986886 4.9127 1.07479 4.82479C1.1627 4.73689 1.28193 4.6875 1.40625 4.6875H10.3125V7.03125C10.3121 7.09294 10.324 7.15409 10.3473 7.21121C10.3706 7.26832 10.405 7.32026 10.4484 7.36406L11.3859 8.30156C11.4295 8.3455 11.4814 8.38037 11.5385 8.40417C11.5956 8.42797 11.6569 8.44022 11.7188 8.44022C11.7806 8.44022 11.8419 8.42797 11.899 8.40417C11.9561 8.38037 12.008 8.3455 12.0516 8.30156L12.9891 7.36406C13.0325 7.32026 13.0669 7.26832 13.0902 7.21121C13.1135 7.15409 13.1254 7.09294 13.125 7.03125V4.6875H14.0625V12.1875Z" fill="black"/>
<path d="M2.34375 6.5625H6.09375C6.21807 6.5625 6.3373 6.51311 6.42521 6.42521C6.51311 6.3373 6.5625 6.21807 6.5625 6.09375C6.5625 5.96943 6.51311 5.8502 6.42521 5.76229C6.3373 5.67439 6.21807 5.625 6.09375 5.625H2.34375C2.21943 5.625 2.1002 5.67439 2.01229 5.76229C1.92439 5.8502 1.875 5.96943 1.875 6.09375C1.875 6.21807 1.92439 6.3373 2.01229 6.42521C2.1002 6.51311 2.21943 6.5625 2.34375 6.5625Z" fill="black"/>
<path d="M8.4375 7.96875C8.4375 7.84443 8.38811 7.7252 8.30021 7.63729C8.2123 7.54939 8.09307 7.5 7.96875 7.5H2.34375C2.21943 7.5 2.1002 7.54939 2.01229 7.63729C1.92439 7.7252 1.875 7.84443 1.875 7.96875C1.875 8.09307 1.92439 8.2123 2.01229 8.30021C2.1002 8.38811 2.21943 8.4375 2.34375 8.4375H7.96875C8.09307 8.4375 8.2123 8.38811 8.30021 8.30021C8.38811 8.2123 8.4375 8.09307 8.4375 7.96875Z" fill="black"/>
<path d="M12.6562 10.3128H11.9719L11.1703 9.11746C11.1274 9.05365 11.0695 9.00136 11.0017 8.96521C10.9338 8.92906 10.8581 8.91016 10.7812 8.91016C10.7044 8.91016 10.6287 8.92906 10.5608 8.96521C10.493 9.00136 10.4351 9.05365 10.3922 9.11746L9.59062 10.3128H8.4375C8.31318 10.3128 8.19395 10.3622 8.10604 10.4501C8.01814 10.538 7.96875 10.6572 7.96875 10.7815C7.96875 10.9058 8.01814 11.0251 8.10604 11.113C8.19395 11.2009 8.31318 11.2503 8.4375 11.2503H9.84375C9.92096 11.2499 9.99687 11.2304 10.0647 11.1936C10.1326 11.1568 10.1903 11.1038 10.2328 11.0393L10.7812 10.219L11.3297 11.0393C11.3722 11.1038 11.4299 11.1568 11.4978 11.1936C11.5656 11.2304 11.6415 11.2499 11.7188 11.2503H12.6562C12.7806 11.2503 12.8998 11.2009 12.9877 11.113C13.0756 11.0251 13.125 10.9058 13.125 10.7815C13.125 10.6572 13.0756 10.538 12.9877 10.4501C12.8998 10.3622 12.7806 10.3128 12.6562 10.3128Z" fill="black"/>
</svg>
