<svg width="15" height="15" viewBox="0 0 15 15" fill="none" xmlns="http://www.w3.org/2000/svg">
<path fill-rule="evenodd" clip-rule="evenodd" d="M6.15464 7.81027C5.78914 7.83893 5.45644 7.87567 5.12271 7.88934C3.90114 7.93944 2.69465 7.85377 1.54873 7.39032C1.26814 7.27685 1.00506 7.10072 0.76493 6.91416C0.49306 6.70291 0.373732 6.40107 0.37501 6.04955C0.379677 4.76058 0.375522 3.47155 0.377184 2.18255C0.377759 1.73724 0.625847 1.43248 0.97306 1.1918C1.32155 0.950237 1.7116 0.797034 2.11942 0.687808C3.27374 0.378708 4.4467 0.313648 5.63337 0.427218C6.36759 0.49751 7.08657 0.629311 7.76307 0.935303C8.11114 1.09275 8.42211 1.29653 8.65229 1.61172C8.68631 1.65835 8.80071 1.66527 8.87631 1.66118C9.48123 1.62817 10.0863 1.5503 10.6902 1.55886C11.6507 1.5725 12.6052 1.68562 13.493 2.08343C13.7832 2.21349 14.0538 2.40436 14.3007 2.60668C14.5349 2.79862 14.6241 3.07941 14.6237 3.38696C14.6214 5.32044 14.62 7.25396 14.625 9.18744C14.6259 9.55811 14.4847 9.85288 14.2115 10.0929C13.8441 10.4157 13.3996 10.591 12.9379 10.7251C12.1825 10.9446 11.4069 11.0351 10.6219 11.044C10.4767 11.0456 10.4317 11.0849 10.4342 11.2313C10.4427 11.7383 10.4284 12.2457 10.4398 12.7526C10.4481 13.1247 10.3044 13.4192 10.0316 13.6596C9.65219 13.994 9.19316 14.1771 8.71344 14.3074C7.56069 14.6203 6.38719 14.6855 5.20026 14.5748C4.47688 14.5073 3.76253 14.3932 3.09732 14.0925C2.82983 13.9715 2.57484 13.8077 2.34475 13.6254C2.08464 13.4193 1.96343 13.1295 1.96765 12.7883C1.9751 12.1861 1.98405 11.5834 1.96512 10.9817C1.94984 10.4952 2.17434 10.1565 2.55393 9.89144C2.87951 9.6641 3.24344 9.51743 3.62284 9.40688C4.37305 9.18823 5.14167 9.09505 5.92164 9.07973C6.15432 9.07514 6.15445 9.07228 6.15457 8.84067C6.15477 8.5038 6.15464 8.16689 6.15464 7.81027ZM10.3665 4.23261C11.2229 4.21755 12.0449 4.15579 12.8331 3.88566C13.0865 3.79878 13.3326 3.67618 13.5608 3.53588C13.7711 3.40652 13.7621 3.27399 13.5558 3.1321C13.4214 3.03968 13.2744 2.96061 13.1238 2.89688C12.5958 2.67342 12.038 2.56692 11.47 2.50782C10.36 2.39231 9.25702 2.42414 8.1776 2.72427C7.85433 2.81416 7.54093 2.96004 7.24544 3.12082C6.99058 3.2595 6.99694 3.40072 7.23873 3.5563C7.40677 3.66445 7.58914 3.75798 7.77652 3.82798C8.62014 4.14323 9.50431 4.21289 10.3665 4.23261ZM6.37284 11.7533C7.06237 11.7287 7.7178 11.6866 8.34654 11.4945C8.69334 11.3886 9.0324 11.24 9.3511 11.0673C9.5957 10.9347 9.58647 10.7879 9.35033 10.6413C9.16273 10.5249 8.95942 10.4256 8.75142 10.3506C8.07035 10.1049 7.35889 10.0221 6.63911 9.98437C5.75094 9.93782 4.87287 10.0009 4.0142 10.2328C3.72449 10.311 3.43936 10.4263 3.17311 10.5646C2.77811 10.7696 2.78169 10.9342 3.16448 11.1529C3.31559 11.2393 3.47708 11.3124 3.64138 11.3705C4.53617 11.6873 5.46718 11.7536 6.37284 11.7533ZM7.7318 1.90296C7.52924 1.8113 7.37101 1.72757 7.20437 1.6665C6.60625 1.44738 5.98391 1.34516 5.34961 1.3029C4.35595 1.23664 3.36881 1.27468 2.40648 1.54497C2.08333 1.63572 1.76994 1.7815 1.47467 1.94282C1.2167 2.08375 1.22425 2.2283 1.47365 2.3912C1.63638 2.49754 1.81437 2.59063 1.99798 2.65427C3.35768 3.12545 4.75095 3.13524 6.1572 2.92992C6.19933 2.9238 6.25319 2.89523 6.27378 2.8608C6.5218 2.44605 6.92243 2.23382 7.34821 2.0542C7.45942 2.00728 7.57277 1.96543 7.7318 1.90296ZM13.7109 4.53299C11.4806 5.34384 9.27579 5.32469 7.05266 4.51898C7.05266 4.75487 7.05723 4.981 7.0509 5.20677C7.04729 5.33563 7.08875 5.44203 7.19762 5.50338C7.40003 5.61749 7.60196 5.74013 7.81882 5.81977C8.45216 6.0525 9.115 6.14187 9.78673 6.18328C10.7659 6.24362 11.7352 6.18664 12.6785 5.90934C12.9801 5.82066 13.2634 5.66508 13.5457 5.52177C13.619 5.48455 13.6974 5.38147 13.7035 5.30329C13.7233 5.04675 13.7109 4.78769 13.7109 4.53299ZM2.86755 12.0525C2.86755 12.2541 2.87916 12.4595 2.86426 12.6631C2.84952 12.8644 2.92886 13.0101 3.10177 13.0889C3.39978 13.2247 3.69742 13.3773 4.01209 13.4584C5.39522 13.8149 6.7899 13.8105 8.18374 13.5167C8.59495 13.43 8.99692 13.3025 9.34637 13.0584C9.4198 13.007 9.51144 12.9216 9.51745 12.8458C9.53836 12.5804 9.52557 12.3123 9.52557 12.0572C7.30439 12.8547 5.1013 12.8563 2.86755 12.0525ZM7.05259 6.49451C7.05259 6.70059 7.06733 6.90576 7.0486 7.10792C7.02827 7.32726 7.12931 7.46683 7.30749 7.55503C7.53023 7.66528 7.75539 7.78113 7.99261 7.85047C9.44908 8.27647 10.9203 8.2739 12.3964 7.96087C12.7876 7.87789 13.1687 7.75564 13.5032 7.52932C13.5859 7.47339 13.691 7.38148 13.6989 7.29796C13.7241 7.03344 13.7082 6.76502 13.7082 6.5109C11.4851 7.31337 9.27982 7.31118 7.05259 6.49451ZM13.7095 8.48341C11.4865 9.28712 9.27681 9.28753 7.05323 8.48005C7.05323 8.65554 7.05579 8.82923 7.05221 9.00278C7.05026 9.09768 7.1062 9.11055 7.18327 9.12197C7.59831 9.18328 8.01764 9.22758 8.42604 9.31911C9.03138 9.45475 9.61303 9.65665 10.0802 10.0932C10.1173 10.128 10.1849 10.1438 10.2391 10.1455C10.9819 10.169 11.7165 10.1038 12.4394 9.92859C12.818 9.83684 13.1893 9.72136 13.5133 9.49939C13.5946 9.44372 13.6926 9.34803 13.7006 9.26312C13.725 9.00243 13.7095 8.73807 13.7095 8.48341ZM6.15256 5.81736C4.48483 6.02209 2.86372 5.97532 1.287 5.31194C1.287 5.52371 1.30442 5.7245 1.28252 5.92095C1.25586 6.16033 1.36592 6.30078 1.56139 6.40322C1.61308 6.4303 1.66304 6.4608 1.71563 6.48601C2.21455 6.72529 2.74758 6.84406 3.29228 6.91762C4.21063 7.04162 5.12885 7.03363 6.04525 6.89746C6.0846 6.89162 6.14716 6.83997 6.14786 6.80849C6.15547 6.48249 6.15256 6.15627 6.15256 5.81736ZM1.28703 3.33743C1.28703 3.58534 1.29361 3.812 1.2846 4.03803C1.27913 4.17526 1.32667 4.2809 1.44117 4.344C1.64006 4.4536 1.83905 4.56908 2.05082 4.6485C2.72933 4.90294 3.44243 5.007 4.16096 5.01638C4.78106 5.02447 5.40226 4.96334 6.02255 4.92659C6.06734 4.92393 6.14569 4.87149 6.14655 4.84048C6.15569 4.51476 6.15221 4.18867 6.15221 3.8433C4.48845 4.04438 2.86787 4.00148 1.28703 3.33743Z" fill="#1B2746"/>
</svg>
