<svg width="15" height="15" viewBox="0 0 15 15" fill="none" xmlns="http://www.w3.org/2000/svg">
<path fill-rule="evenodd" clip-rule="evenodd" d="M4.9918 5.51454H2.47575H1.64754C1.50898 5.51445 1.37613 5.45937 1.27815 5.36139C1.18018 5.26342 1.12509 5.13056 1.125 4.992V1.64774C1.125 1.50916 1.18005 1.37624 1.27805 1.27825C1.37604 1.18025 1.50895 1.1252 1.64754 1.1252C1.78613 1.1252 1.91904 1.18025 2.01703 1.27825C2.11503 1.37624 2.17008 1.50916 2.17008 1.64774V4.44252C2.74469 3.41145 3.59049 2.55726 4.61585 1.97252C5.6412 1.38777 6.80702 1.09475 7.98701 1.1252C9.22754 1.1252 10.4411 1.48699 11.4792 2.16626C12.5172 2.84552 13.3346 3.81278 13.8313 4.94955C13.8861 5.07643 13.8885 5.21987 13.8378 5.34848C13.7872 5.47709 13.6876 5.58039 13.561 5.63578C13.4343 5.69116 13.2909 5.69413 13.1621 5.64401C13.0332 5.5939 12.9295 5.4948 12.8736 5.3684C12.4584 4.41782 11.7749 3.60898 10.907 3.04094C10.0391 2.4729 9.02431 2.17033 7.98701 2.17028C7.0882 2.14851 6.19767 2.34658 5.39282 2.74727C4.58797 3.14796 3.89315 3.73915 3.36876 4.46946H4.9918C5.13039 4.46946 5.2633 4.52452 5.3613 4.62251C5.45929 4.72051 5.51434 4.85342 5.51434 4.992C5.51434 5.13059 5.45929 5.2635 5.3613 5.3615C5.2633 5.45949 5.13039 5.51454 4.9918 5.51454ZM10.0082 9.48587H13.3525C13.491 9.48589 13.6239 9.54095 13.7219 9.63894C13.8199 9.73693 13.875 9.86983 13.875 10.0084V13.3527C13.875 13.4913 13.8199 13.6242 13.722 13.7222C13.624 13.8202 13.491 13.8752 13.3525 13.8752C13.2139 13.8752 13.081 13.8202 12.983 13.7222C12.885 13.6242 12.8299 13.4913 12.8299 13.3527V10.5662C12.363 11.579 11.6091 12.4324 10.6616 13.0206C9.71413 13.6089 8.61481 13.906 7.5 13.8752C6.25947 13.8752 5.04586 13.5134 4.00783 12.8342C2.96979 12.1549 2.15238 11.1877 1.65571 10.0509C1.60042 9.92393 1.59778 9.78022 1.64835 9.65131C1.69893 9.5224 1.79859 9.41883 1.92546 9.36334C2.05233 9.30785 2.19604 9.30498 2.32503 9.35535C2.45401 9.40573 2.55774 9.50523 2.61343 9.63202C3.02863 10.5826 3.71206 11.3914 4.58 11.9595C5.44794 12.5275 6.4627 12.8301 7.5 12.8301C8.33686 12.8616 9.16645 12.6641 9.89938 12.259C10.6323 11.8538 11.2408 11.2563 11.6593 10.5309H10.0082C9.86961 10.5309 9.7367 10.4759 9.6387 10.3779C9.54071 10.2799 9.48566 10.147 9.48566 10.0084C9.48566 9.86982 9.54071 9.73691 9.6387 9.63892C9.7367 9.54092 9.86961 9.48587 10.0082 9.48587Z" fill="black"/>
</svg>
