<svg width="40" height="40" viewBox="0 0 40 40" fill="none" xmlns="http://www.w3.org/2000/svg">
<path fill-rule="evenodd" clip-rule="evenodd" d="M12.0835 10C12.0835 5.62775 15.6279 2.08334 20.0001 2.08334C24.3724 2.08334 27.9168 5.62775 27.9168 10C27.9168 14.3723 24.3724 17.9167 20.0001 17.9167C15.6279 17.9167 12.0835 14.3723 12.0835 10ZM20.0001 4.58334C17.0086 4.58334 14.5835 7.00845 14.5835 10C14.5835 12.9916 17.0086 15.4167 20.0001 15.4167C22.9918 15.4167 25.4168 12.9916 25.4168 10C25.4168 7.00845 22.9918 4.58334 20.0001 4.58334Z" fill="#1C274C"/>
<path fill-rule="evenodd" clip-rule="evenodd" d="M24.6247 20.8548C23.1702 20.5702 21.6144 20.4167 20.0002 20.4167C16.1444 20.4167 12.5918 21.2932 9.95938 22.7738C7.36611 24.2327 5.41696 26.4435 5.41696 29.1667L5.41686 29.3367C5.41498 31.273 5.41261 33.7033 7.54433 35.4392C8.59344 36.2935 10.0611 36.901 12.044 37.3025C14.0324 37.7048 16.624 37.9167 20.0002 37.9167C24.7804 37.9167 28.0167 37.4935 30.1996 36.6808C32.1644 35.9495 33.3291 34.8777 33.9509 33.5287C36.3214 32.161 37.9169 29.6002 37.9169 26.6667C37.9169 24.4808 37.0294 22.5 35.5981 21.0687C34.1669 19.6375 32.1861 18.75 30.0002 18.75C27.9251 18.75 26.0364 19.5485 24.6247 20.8548ZM11.185 24.9528C8.95259 26.2085 7.91696 27.7478 7.91696 29.1667C7.91696 31.3463 7.98416 32.5733 9.12294 33.5007C9.74049 34.0037 10.7728 34.4945 12.5399 34.8522C14.3015 35.2087 16.7099 35.4167 20.0002 35.4167C24.2971 35.4167 27.0674 35.061 28.8519 34.5005C27.1252 34.2493 25.5782 33.4405 24.4022 32.2645C22.9711 30.8333 22.0836 28.8523 22.0836 26.6667C22.0836 25.387 22.3872 24.1782 22.9264 23.1083C21.9902 22.9833 21.0104 22.9167 20.0002 22.9167C16.4924 22.9167 13.3783 23.7192 11.185 24.9528ZM24.5836 26.6667C24.5836 23.6752 27.0087 21.25 30.0002 21.25C31.0437 21.25 32.0172 21.5442 32.8439 22.0552L25.3889 29.5102C24.8779 28.6837 24.5836 27.71 24.5836 26.6667ZM27.1566 31.278L34.6116 23.823C35.1227 24.6497 35.4169 25.6232 35.4169 26.6667C35.4169 29.6582 32.9919 32.0833 30.0002 32.0833C28.9567 32.0833 27.9832 31.789 27.1566 31.278Z" fill="#1C274C"/>
</svg>
