<svg width="40" height="40" viewBox="0 0 40 40" fill="none" xmlns="http://www.w3.org/2000/svg">
<path d="M28.3333 12.0833C27.6429 12.0833 27.0833 12.643 27.0833 13.3333V26.6667C27.0833 27.357 27.6429 27.9167 28.3333 27.9167C29.0236 27.9167 29.5833 27.357 29.5833 26.6667V13.3333C29.5833 12.643 29.0236 12.0833 28.3333 12.0833Z" fill="#1C274C"/>
<path d="M10.4167 20C10.4167 20.6903 10.9764 21.25 11.6667 21.25H20.3156L17.4496 24.1162C16.9614 24.6043 16.9614 25.3957 17.4496 25.8838C17.9377 26.372 18.7291 26.372 19.2172 25.8838L24.2172 20.8838C24.4517 20.6495 24.5834 20.3315 24.5834 20C24.5834 19.6685 24.4517 19.3505 24.2172 19.1162L19.2172 14.1161C18.7291 13.628 17.9377 13.628 17.4496 14.1161C16.9614 14.6043 16.9614 15.3957 17.4496 15.8839L20.3156 18.75H11.6667C10.9764 18.75 10.4167 19.3097 10.4167 20Z" fill="#1C274C"/>
<path fill-rule="evenodd" clip-rule="evenodd" d="M19.9043 2.08334C16.057 2.08333 13.0419 2.08331 10.6894 2.39959C8.28154 2.72333 6.3815 3.39889 4.89015 4.89024C3.3988 6.38159 2.72324 8.28163 2.3995 10.6895C2.08322 13.042 2.08324 16.0571 2.08325 19.9043V20.0957C2.08324 23.943 2.08322 26.958 2.3995 29.3105C2.72324 31.7183 3.3988 33.6185 4.89015 35.1098C6.3815 36.6012 8.28154 37.2767 10.6894 37.6005C13.0419 37.9167 16.057 37.9167 19.9043 37.9167H20.0956C23.9429 37.9167 26.9579 37.9167 29.3104 37.6005C31.7183 37.2767 33.6184 36.6012 35.1098 35.1098C36.6011 33.6185 37.2766 31.7183 37.6004 29.3105C37.9166 26.958 37.9166 23.943 37.9166 20.0957V19.9043C37.9166 16.0571 37.9166 13.042 37.6004 10.6895C37.2766 8.28163 36.6011 6.38159 35.1098 4.89024C33.6184 3.39889 31.7183 2.72333 29.3104 2.39959C26.9579 2.08331 23.9429 2.08333 20.0956 2.08334H19.9043ZM6.65792 6.65801C7.60734 5.70858 8.89187 5.16376 11.0226 4.87729C13.1892 4.58599 16.0362 4.58334 19.9999 4.58334C23.9636 4.58334 26.8106 4.58599 28.9773 4.87729C31.1079 5.16376 32.3924 5.70858 33.3419 6.65801C34.2914 7.60743 34.8363 8.89196 35.1226 11.0226C35.4139 13.1893 35.4166 16.0363 35.4166 20C35.4166 23.9637 35.4139 26.8107 35.1226 28.9773C34.8363 31.108 34.2914 32.3925 33.3419 33.342C32.3924 34.2915 31.1079 34.8363 28.9773 35.1227C26.8106 35.414 23.9636 35.4167 19.9999 35.4167C16.0362 35.4167 13.1892 35.414 11.0226 35.1227C8.89187 34.8363 7.60734 34.2915 6.65792 33.342C5.70849 32.3925 5.16367 31.108 4.8772 28.9773C4.5859 26.8107 4.58325 23.9637 4.58325 20C4.58325 16.0363 4.5859 13.1893 4.8772 11.0226C5.16367 8.89196 5.70849 7.60743 6.65792 6.65801Z" fill="#1C274C"/>
</svg>
