<svg width="40" height="40" viewBox="0 0 40 40" fill="none" xmlns="http://www.w3.org/2000/svg">
<path d="M27.9167 28.3333C27.9167 27.643 27.3571 27.0833 26.6667 27.0833H13.3334C12.6431 27.0833 12.0834 27.643 12.0834 28.3333C12.0834 29.0237 12.6431 29.5833 13.3334 29.5833H26.6667C27.3571 29.5833 27.9167 29.0237 27.9167 28.3333Z" fill="#1C274C"/>
<path d="M20 10.4166C19.3097 10.4166 18.75 10.9763 18.75 11.6666V20.3155L15.8838 17.4495C15.3957 16.9613 14.6043 16.9613 14.1162 17.4495C13.628 17.9376 13.628 18.729 14.1162 19.2171L19.1162 24.2172C19.3505 24.4516 19.6685 24.5833 20 24.5833C20.3315 24.5833 20.6495 24.4516 20.8838 24.2172L25.8839 19.2171C26.372 18.729 26.372 17.9376 25.8839 17.4495C25.3957 16.9613 24.6043 16.9613 24.1161 17.4495L21.25 20.3155V11.6666C21.25 10.9763 20.6903 10.4166 20 10.4166Z" fill="#1C274C"/>
<path fill-rule="evenodd" clip-rule="evenodd" d="M20.0957 37.9167C23.943 37.9167 26.9581 37.9167 29.3106 37.6004C31.7185 37.2767 33.6185 36.6011 35.1098 35.1098C36.6012 33.6184 37.2768 31.7184 37.6005 29.3105C37.9168 26.958 37.9168 23.943 37.9167 20.0957V19.9044C37.9168 16.057 37.9168 13.042 37.6005 10.6895C37.2768 8.28169 36.6012 6.38152 35.1098 4.89019C33.6185 3.39885 31.7185 2.72335 29.3106 2.39952C26.9581 2.08335 23.943 2.08335 20.0957 2.08335H19.9044C16.0571 2.08335 13.0421 2.08335 10.6896 2.39952C8.28175 2.72335 6.38158 3.39885 4.89025 4.89019C3.39891 6.38152 2.72342 8.28169 2.39958 10.6895C2.08342 13.042 2.08342 16.057 2.08342 19.9044V20.0957C2.08342 23.943 2.08342 26.958 2.39958 29.3105C2.72342 31.7184 3.39891 33.6184 4.89025 35.1098C6.38158 36.6011 8.28175 37.2767 10.6896 37.6004C13.0421 37.9167 16.0571 37.9167 19.9044 37.9167H20.0957ZM33.3421 33.342C32.3927 34.2915 31.1081 34.8363 28.9774 35.1227C26.8108 35.414 23.9638 35.4167 20.0001 35.4167C16.0364 35.4167 13.1894 35.414 11.0227 35.1227C8.89208 34.8363 7.60758 34.2915 6.65808 33.342C5.70858 32.3926 5.16375 31.1081 4.87741 28.9774C4.58608 26.8108 4.58342 23.9637 4.58342 20C4.58342 16.0364 4.58608 13.1894 4.87741 11.0227C5.16375 8.89202 5.70858 7.60752 6.65808 6.65802C7.60758 5.70852 8.89208 5.16368 11.0227 4.87735C13.1894 4.58602 16.0364 4.58335 20.0001 4.58335C23.9638 4.58335 26.8108 4.58602 28.9774 4.87735C31.1081 5.16368 32.3927 5.70852 33.3421 6.65802C34.2915 7.60752 34.8363 8.89202 35.1228 11.0227C35.4141 13.1894 35.4167 16.0364 35.4167 20C35.4167 23.9637 35.4141 26.8108 35.1228 28.9774C34.8363 31.1081 34.2915 32.3926 33.3421 33.342Z" fill="#1C274C"/>
</svg>
