<svg width="40" height="40" viewBox="0 0 40 40" fill="none" xmlns="http://www.w3.org/2000/svg">
<path fill-rule="evenodd" clip-rule="evenodd" d="M37.1589 10.5181C37.7934 10.79 38.0873 11.5249 37.8154 12.1594L36.6664 11.667C37.8154 12.1594 37.8156 12.1591 37.8154 12.1594L37.8143 12.1622L37.8124 12.1663L37.8071 12.1786L37.7893 12.2187C37.7743 12.2523 37.7529 12.2993 37.7253 12.3588C37.6698 12.4777 37.5888 12.6466 37.4813 12.8573C37.2664 13.2783 36.9458 13.8681 36.5139 14.5611C35.8046 15.6995 34.7873 17.1297 33.4364 18.5507L35.0504 20.1645C35.5384 20.6527 35.5384 21.4442 35.0504 21.9323C34.5623 22.4205 33.7708 22.4205 33.2826 21.9323L31.6149 20.2647C30.5154 21.1858 29.2546 22.0503 27.8249 22.7607L29.3809 25.152C29.7574 25.7305 29.5936 26.5048 29.0149 26.8813C28.4363 27.2578 27.6619 27.094 27.2854 26.5153L25.4701 23.7255C24.1713 24.1497 22.7649 24.438 21.2498 24.5413V27.5003C21.2498 28.1907 20.6901 28.7503 19.9998 28.7503C19.3094 28.7503 18.7498 28.1907 18.7498 27.5003V24.5413C17.2814 24.4412 15.9151 24.1673 14.6496 23.7643L12.8595 26.5155C12.483 27.0942 11.7087 27.258 11.13 26.8815C10.5514 26.505 10.3875 25.7307 10.764 25.152L12.2847 22.815C10.8441 22.1113 9.57294 21.2507 8.46395 20.3307L6.86232 21.9323C6.37417 22.4205 5.58272 22.4205 5.09455 21.9323C4.6064 21.4442 4.6064 20.6528 5.09455 20.1647L6.63417 18.625C5.2599 17.1922 4.22534 15.7446 3.50454 14.5914C3.06632 13.8904 2.74092 13.2931 2.52305 12.8665C2.41405 12.653 2.33175 12.4819 2.27554 12.3614C2.24742 12.3011 2.2258 12.2535 2.2106 12.2195L2.19262 12.1788L2.18722 12.1664L2.1854 12.1622L2.18472 12.1606C2.1846 12.1603 2.18419 12.1594 3.33312 11.667L2.18472 12.1606C1.91279 11.5261 2.20619 10.79 2.84072 10.5181C3.47474 10.2463 4.2089 10.5396 4.48139 11.173C4.48129 11.1728 4.48149 11.1732 4.48139 11.173L4.48297 11.1767L4.4931 11.1995C4.50292 11.2215 4.51892 11.2568 4.54112 11.3045C4.58557 11.3997 4.65485 11.5441 4.74952 11.7295C4.939 12.1005 5.22929 12.6341 5.62445 13.2663C6.41714 14.5345 7.6192 16.1788 9.25927 17.703C10.7024 19.0442 12.4709 20.2797 14.586 21.0933C16.1768 21.7053 17.9756 22.0837 19.9998 22.0837C22.0693 22.0837 23.9033 21.6883 25.5206 21.0517C27.6229 20.2242 29.3794 18.9807 30.8109 17.637C32.4269 16.1203 33.6113 14.4923 34.3923 13.239C34.7816 12.6142 35.0674 12.0874 35.2541 11.7214C35.3474 11.5386 35.4156 11.3963 35.4594 11.3024C35.4813 11.2555 35.4971 11.2207 35.5068 11.1991L35.5166 11.1766L35.5176 11.1746C35.5174 11.1748 35.5176 11.1744 35.5176 11.1746M37.1589 10.5181C36.5244 10.2462 35.7896 10.5404 35.5176 11.1746L37.1589 10.5181ZM4.48139 11.173C4.48129 11.1728 4.48149 11.1732 4.48139 11.173V11.173Z" fill="#1C274C"/>
</svg>
