<svg width="40" height="40" viewBox="0 0 40 40" fill="none" xmlns="http://www.w3.org/2000/svg">
<path d="M10.7829 29.2172C10.2947 28.729 10.2947 27.9377 10.7829 27.4495L14.4823 23.75H12.5001C11.8097 23.75 11.2501 23.1903 11.2501 22.5C11.2501 21.8097 11.8097 21.25 12.5001 21.25H17.5001C18.1904 21.25 18.7501 21.8097 18.7501 22.5V27.5C18.7501 28.1903 18.1904 28.75 17.5001 28.75C16.8097 28.75 16.2501 28.1903 16.2501 27.5V25.5178L12.5506 29.2172C12.0625 29.7053 11.271 29.7053 10.7829 29.2172Z" fill="#1C274C"/>
<path d="M27.5 18.75C28.1903 18.75 28.75 18.1903 28.75 17.5C28.75 16.8097 28.1903 16.25 27.5 16.25H25.5178L29.2172 12.5506C29.7053 12.0624 29.7053 11.2709 29.2172 10.7828C28.729 10.2946 27.9377 10.2946 27.4495 10.7828L23.75 14.4822V12.5C23.75 11.8097 23.1903 11.25 22.5 11.25C21.8097 11.25 21.25 11.8097 21.25 12.5V17.5C21.25 18.1903 21.8097 18.75 22.5 18.75H27.5Z" fill="#1C274C"/>
<path fill-rule="evenodd" clip-rule="evenodd" d="M19.9043 2.08333H20.0956C23.9429 2.08331 26.9579 2.0833 29.3104 2.39958C31.7183 2.72331 33.6184 3.39888 35.1098 4.89023C36.6011 6.38158 37.2766 8.28161 37.6004 10.6895C37.9166 13.042 37.9166 16.057 37.9166 19.9043V20.0957C37.9166 23.943 37.9166 26.958 37.6004 29.3105C37.2766 31.7183 36.6011 33.6185 35.1098 35.1098C33.6184 36.6012 31.7183 37.2767 29.3104 37.6005C26.9579 37.9167 23.9429 37.9167 20.0956 37.9167H19.9043C16.057 37.9167 13.0419 37.9167 10.6894 37.6005C8.28154 37.2767 6.3815 36.6012 4.89015 35.1098C3.3988 33.6185 2.72324 31.7183 2.3995 29.3105C2.08322 26.958 2.08324 23.943 2.08325 20.0957V19.9043C2.08324 16.057 2.08322 13.042 2.3995 10.6895C2.72324 8.28161 3.3988 6.38158 4.89015 4.89023C6.3815 3.39888 8.28154 2.72331 10.6894 2.39958C13.0419 2.0833 16.057 2.08331 19.9043 2.08333ZM11.0226 4.87728C8.89187 5.16374 7.60734 5.70856 6.65792 6.658C5.70849 7.60741 5.16367 8.89195 4.8772 11.0226C4.5859 13.1893 4.58325 16.0363 4.58325 20C4.58325 23.9637 4.5859 26.8107 4.8772 28.9773C5.16367 31.108 5.70849 32.3925 6.65792 33.342C7.60734 34.2915 8.89187 34.8363 11.0226 35.1227C13.1892 35.414 16.0362 35.4167 19.9999 35.4167C23.9636 35.4167 26.8106 35.414 28.9773 35.1227C31.1079 34.8363 32.3924 34.2915 33.3419 33.342C34.2914 32.3925 34.8363 31.108 35.1226 28.9773C35.4139 26.8107 35.4166 23.9637 35.4166 20C35.4166 16.0363 35.4139 13.1893 35.1226 11.0226C34.8363 8.89195 34.2914 7.60741 33.3419 6.658C32.3924 5.70856 31.1079 5.16374 28.9773 4.87728C26.8106 4.58598 23.9636 4.58333 19.9999 4.58333C16.0362 4.58333 13.1892 4.58598 11.0226 4.87728Z" fill="#1C274C"/>
</svg>
