<svg width="40" height="40" viewBox="0 0 40 40" fill="none" xmlns="http://www.w3.org/2000/svg">
<path d="M22.0833 11.6667C22.0833 12.357 22.643 12.9167 23.3333 12.9167H25.3155L21.6161 16.6161C21.128 17.1043 21.128 17.8957 21.6161 18.3838C22.1043 18.872 22.8956 18.872 23.3838 18.3838L27.0833 14.6844V16.6667C27.0833 17.357 27.643 17.9167 28.3333 17.9167C29.0236 17.9167 29.5833 17.357 29.5833 16.6667V11.6667C29.5833 10.9763 29.0236 10.4167 28.3333 10.4167H23.3333C22.643 10.4167 22.0833 10.9763 22.0833 11.6667Z" fill="#1C274C"/>
<path d="M18.3839 23.3838C18.8721 22.8957 18.8721 22.1043 18.3839 21.6162C17.8957 21.128 17.1044 21.128 16.6162 21.6162L12.9167 25.3155V23.3333C12.9167 22.643 12.3571 22.0833 11.6667 22.0833C10.9764 22.0833 10.4167 22.643 10.4167 23.3333V28.3333C10.4167 29.0237 10.9764 29.5833 11.6667 29.5833H16.6667C17.3571 29.5833 17.9167 29.0237 17.9167 28.3333C17.9167 27.643 17.3571 27.0833 16.6667 27.0833H14.6845L18.3839 23.3838Z" fill="#1C274C"/>
<path fill-rule="evenodd" clip-rule="evenodd" d="M19.9043 2.08333C16.057 2.08331 13.0419 2.0833 10.6894 2.39958C8.28154 2.72331 6.3815 3.39888 4.89015 4.89023C3.3988 6.38158 2.72324 8.28161 2.3995 10.6895C2.08322 13.042 2.08324 16.057 2.08325 19.9043V20.0957C2.08324 23.943 2.08322 26.958 2.3995 29.3105C2.72324 31.7183 3.3988 33.6185 4.89015 35.1098C6.3815 36.6012 8.28154 37.2767 10.6894 37.6005C13.0419 37.9167 16.057 37.9167 19.9043 37.9167H20.0956C23.9429 37.9167 26.9579 37.9167 29.3104 37.6005C31.7183 37.2767 33.6184 36.6012 35.1098 35.1098C36.6011 33.6185 37.2766 31.7183 37.6004 29.3105C37.9166 26.958 37.9166 23.943 37.9166 20.0957V19.9043C37.9166 16.057 37.9166 13.042 37.6004 10.6895C37.2766 8.28161 36.6011 6.38158 35.1098 4.89023C33.6184 3.39888 31.7183 2.72331 29.3104 2.39958C26.9579 2.0833 23.9429 2.08331 20.0956 2.08333H19.9043ZM6.65792 6.658C7.60734 5.70856 8.89187 5.16374 11.0226 4.87728C13.1892 4.58598 16.0362 4.58333 19.9999 4.58333C23.9636 4.58333 26.8106 4.58598 28.9773 4.87728C31.1079 5.16374 32.3924 5.70856 33.3419 6.658C34.2914 7.60741 34.8363 8.89195 35.1226 11.0226C35.4139 13.1893 35.4166 16.0363 35.4166 20C35.4166 23.9637 35.4139 26.8107 35.1226 28.9773C34.8363 31.108 34.2914 32.3925 33.3419 33.342C32.3924 34.2915 31.1079 34.8363 28.9773 35.1227C26.8106 35.414 23.9636 35.4167 19.9999 35.4167C16.0362 35.4167 13.1892 35.414 11.0226 35.1227C8.89187 34.8363 7.60734 34.2915 6.65792 33.342C5.70849 32.3925 5.16367 31.108 4.8772 28.9773C4.5859 26.8107 4.58325 23.9637 4.58325 20C4.58325 16.0363 4.5859 13.1893 4.8772 11.0226C5.16367 8.89195 5.70849 7.60741 6.65792 6.658Z" fill="#1C274C"/>
</svg>
