<svg width="40" height="40" viewBox="0 0 40 40" fill="none" xmlns="http://www.w3.org/2000/svg">
<path fill-rule="evenodd" clip-rule="evenodd" d="M20 13.75C16.5482 13.75 13.75 16.5482 13.75 20C13.75 23.4518 16.5482 26.25 20 26.25C23.4518 26.25 26.25 23.4518 26.25 20C26.25 16.5482 23.4518 13.75 20 13.75ZM16.25 20C16.25 17.929 17.929 16.25 20 16.25C22.071 16.25 23.75 17.929 23.75 20C23.75 22.071 22.071 23.75 20 23.75C17.929 23.75 16.25 22.071 16.25 20Z" fill="#1C274C"/>
<path fill-rule="evenodd" clip-rule="evenodd" d="M19.9999 5.41667C12.4764 5.41667 7.40873 9.92367 4.46754 13.7448L4.41449 13.8137C3.74932 14.6776 3.13669 15.4732 2.72107 16.414C2.27599 17.4215 2.08325 18.5195 2.08325 20C2.08325 21.4805 2.27599 22.5785 2.72107 23.586C3.13669 24.5268 3.74932 25.3225 4.4145 26.1863L4.46754 26.2552C7.40873 30.0763 12.4764 34.5833 19.9999 34.5833C27.5234 34.5833 32.5911 30.0763 35.5323 26.2552L35.5853 26.1863C36.2506 25.3225 36.8631 24.5268 37.2788 23.586C37.7239 22.5785 37.9166 21.4805 37.9166 20C37.9166 18.5195 37.7239 17.4215 37.2788 16.414C36.8631 15.4732 36.2506 14.6775 35.5853 13.8136L35.5323 13.7448C32.5911 9.92367 27.5234 5.41667 19.9999 5.41667ZM6.44862 15.2697C9.16432 11.7415 13.5839 7.91667 19.9999 7.91667C26.4159 7.91667 30.8356 11.7415 33.5513 15.2697C34.2823 16.2193 34.7104 16.7868 34.9919 17.4242C35.2552 18.02 35.4166 18.7482 35.4166 20C35.4166 21.2518 35.2552 21.98 34.9919 22.5758C34.7104 23.2132 34.2823 23.7807 33.5513 24.7303C30.8356 28.2585 26.4159 32.0833 19.9999 32.0833C13.5839 32.0833 9.16432 28.2585 6.44862 24.7303C5.71765 23.7807 5.28949 23.2132 5.00785 22.5758C4.74465 21.98 4.58325 21.2518 4.58325 20C4.58325 18.7482 4.74465 18.02 5.00785 17.4242C5.28949 16.7868 5.71764 16.2193 6.44862 15.2697Z" fill="#1C274C"/>
</svg>
