<svg width="40" height="40" viewBox="0 0 40 40" fill="none" xmlns="http://www.w3.org/2000/svg">
<path d="M11.6667 27.9167C12.3571 27.9167 12.9167 27.357 12.9167 26.6667L12.9167 13.3333C12.9167 12.643 12.3571 12.0833 11.6667 12.0833C10.9764 12.0833 10.4167 12.643 10.4167 13.3333L10.4167 26.6667C10.4167 27.357 10.9764 27.9167 11.6667 27.9167Z" fill="#1C274C"/>
<path d="M29.5834 20C29.5834 19.3097 29.0237 18.75 28.3334 18.75L19.6846 18.75L22.5506 15.8838C23.0387 15.3957 23.0387 14.6043 22.5506 14.1162C22.0624 13.628 21.2711 13.628 20.7829 14.1162L15.7829 19.1162C15.5484 19.3505 15.4167 19.6685 15.4167 20C15.4167 20.3315 15.5484 20.6495 15.7829 20.8838L20.7829 25.8839C21.2711 26.372 22.0624 26.372 22.5506 25.8839C23.0387 25.3957 23.0387 24.6043 22.5506 24.1161L19.6846 21.25L28.3334 21.25C29.0237 21.25 29.5834 20.6903 29.5834 20Z" fill="#1C274C"/>
<path fill-rule="evenodd" clip-rule="evenodd" d="M2.08325 20.0957C2.08323 23.9429 2.08322 26.958 2.3995 29.3105C2.72324 31.7184 3.3988 33.6184 4.89015 35.1098C6.3815 36.6011 8.28154 37.2767 10.6894 37.6004C13.0419 37.9167 16.057 37.9167 19.9043 37.9167L20.0956 37.9167C23.9429 37.9167 26.9579 37.9167 29.3104 37.6004C31.7183 37.2767 33.6184 36.6011 35.1098 35.1098C36.6011 33.6184 37.2766 31.7184 37.6004 29.3105C37.9166 26.958 37.9166 23.9429 37.9166 20.0957L37.9166 19.9043C37.9166 16.057 37.9166 13.042 37.6004 10.6895C37.2766 8.28166 36.6011 6.38149 35.1098 4.89015C33.6184 3.39882 31.7182 2.72332 29.3104 2.39949C26.9579 2.08332 23.9429 2.08332 20.0956 2.08332L19.9042 2.08332C16.057 2.08332 13.0419 2.08332 10.6894 2.39949C8.28153 2.72332 6.3815 3.39882 4.89015 4.89016C3.3988 6.38149 2.72323 8.28166 2.3995 10.6895C2.08322 13.042 2.08323 16.057 2.08325 19.9043L2.08325 20.0957ZM6.65792 33.342C5.70849 32.3926 5.16367 31.108 4.8772 28.9774C4.5859 26.8107 4.58325 23.9637 4.58325 20C4.58325 16.0363 4.5859 13.1893 4.8772 11.0227C5.16367 8.89199 5.70848 7.60749 6.65792 6.65799C7.60733 5.70849 8.89187 5.16365 11.0226 4.87732C13.1892 4.58599 16.0362 4.58332 19.9999 4.58332C23.9636 4.58332 26.8106 4.58599 28.9772 4.87732C31.1079 5.16365 32.3924 5.70849 33.3419 6.65799C34.2914 7.60749 34.8363 8.89199 35.1226 11.0227C35.4139 13.1893 35.4166 16.0363 35.4166 20C35.4166 23.9637 35.4139 26.8107 35.1226 28.9774C34.8363 31.108 34.2914 32.3926 33.3419 33.342C32.3924 34.2914 31.1079 34.8362 28.9773 35.1227C26.8106 35.414 23.9636 35.4167 19.9999 35.4167C16.0362 35.4167 13.1892 35.414 11.0226 35.1227C8.89187 34.8362 7.60734 34.2914 6.65792 33.342Z" fill="#1C274C"/>
</svg>
