<svg width="40" height="40" viewBox="0 0 40 40" fill="none" xmlns="http://www.w3.org/2000/svg">
<path fill-rule="evenodd" clip-rule="evenodd" d="M19.9084 2.08331H20.0914C22.3708 2.08328 24.2079 2.08325 25.6529 2.27751C27.1531 2.47921 28.4161 2.9107 29.4194 3.9139C30.6526 5.1472 31.0341 6.79193 31.1686 8.83236C31.5769 8.85961 31.9604 8.8959 32.3196 8.94418C33.8198 9.14588 35.0827 9.57736 36.0861 10.5806C37.0892 11.5838 37.5207 12.8469 37.7224 14.3471C37.9166 15.792 37.9166 17.6291 37.9166 19.9085V20.0915C37.9166 22.3708 37.9166 24.208 37.7224 25.653C37.5207 27.1531 37.0892 28.4161 36.0861 29.4195C34.8527 30.6526 33.2079 31.0341 31.1676 31.1686C31.1403 31.577 31.1041 31.9605 31.0557 32.3196C30.8541 33.8198 30.4226 35.0828 29.4194 36.0861C28.4161 37.0893 27.1531 37.5208 25.6529 37.7225C24.2079 37.9166 22.3708 37.9166 20.0914 37.9166H19.9084C17.6291 37.9166 15.792 37.9166 14.347 37.7225C12.8468 37.5208 11.5837 37.0893 10.5805 36.0861C9.5773 35.0828 9.14582 33.8198 8.94412 32.3196C8.89584 31.9605 8.85955 31.577 8.83229 31.1686C6.79187 31.0341 5.14714 30.6526 3.91384 29.4195C2.91064 28.4161 2.47915 27.1531 2.27745 25.653C2.08319 24.208 2.08322 22.3708 2.08325 20.0915V19.9085C2.08322 17.6291 2.08319 15.792 2.27745 14.3471C2.47915 12.8469 2.91064 11.5838 3.91384 10.5806C4.91704 9.57736 6.18015 9.14588 7.68034 8.94418C8.03949 8.8959 8.42287 8.85961 8.83124 8.83236C8.96579 6.79193 9.3472 5.1472 10.5805 3.9139C11.5837 2.9107 12.8468 2.47921 14.347 2.27751C15.792 2.08325 17.6291 2.08328 19.9084 2.08331ZM11.3452 8.7549C11.94 8.74996 12.5718 8.74996 13.2418 8.74998H26.7581C27.4281 8.74996 28.0598 8.74996 28.6548 8.7549C28.5181 7.05346 28.2108 6.24085 27.6516 5.68166C27.1903 5.2204 26.5428 4.91965 25.3198 4.75523C24.0608 4.58596 22.3923 4.58331 19.9999 4.58331C17.6076 4.58331 15.939 4.58596 14.6801 4.75523C13.4572 4.91965 12.8095 5.2204 12.3483 5.68166C11.7891 6.24085 11.4817 7.05346 11.3452 8.7549ZM8.75482 28.6548C8.7499 28.0598 8.7499 27.4281 8.74992 26.7581V21.564C8.49225 21.6683 8.2463 21.7736 8.01192 21.8788C7.38214 22.1616 6.64235 21.8803 6.35959 21.2505C6.07682 20.6206 6.35814 19.881 6.98792 19.5981C9.85752 18.3096 14.1341 17.0833 19.9999 17.0833C25.8658 17.0833 30.1423 18.3096 33.0119 19.5981C33.6418 19.881 33.9231 20.6206 33.6403 21.2505C33.3574 21.8803 32.6178 22.1616 31.9879 21.8788C31.7536 21.7736 31.5076 21.6683 31.2499 21.564V26.7581C31.2499 27.4281 31.2499 28.0598 31.2451 28.6548C32.9464 28.5181 33.7591 28.2108 34.3182 27.6516C34.7796 27.1903 35.0802 26.5428 35.2448 25.3198C35.4139 24.0608 35.4166 22.3923 35.4166 20C35.4166 17.6076 35.4139 15.9391 35.2448 14.6802C35.0802 13.4572 34.7796 12.8096 34.3182 12.3483C33.8569 11.8871 33.2094 11.5863 31.9864 11.4219C30.7274 11.2526 29.0589 11.25 26.6666 11.25H13.3333C10.9409 11.25 9.27237 11.2526 8.01345 11.4219C6.7905 11.5863 6.14287 11.8871 5.6816 12.3483C5.22034 12.8096 4.91959 13.4572 4.75517 14.6802C4.5859 15.9391 4.58325 17.6076 4.58325 20C4.58325 22.3923 4.5859 24.0608 4.75517 25.3198C4.91959 26.5428 5.22034 27.1903 5.6816 27.6516C6.24079 28.2108 7.0534 28.5181 8.75482 28.6548ZM28.7499 20.7113C26.4551 20.0626 23.5566 19.5833 19.9999 19.5833C16.4432 19.5833 13.5448 20.0626 11.2499 20.7113V26.6666C11.2499 29.059 11.2526 30.7275 11.4218 31.9865C11.5863 33.2095 11.887 33.857 12.3483 34.3183C12.8095 34.7796 13.4572 35.0803 14.6801 35.2448C15.939 35.414 17.6076 35.4166 19.9999 35.4166C22.3923 35.4166 24.0608 35.414 25.3198 35.2448C26.5428 35.0803 27.1903 34.7796 27.6516 34.3183C28.1129 33.857 28.4136 33.2095 28.5781 31.9865C28.7473 30.7275 28.7499 29.059 28.7499 26.6666V20.7113Z" fill="#1C274C"/>
</svg>
