<svg width="40" height="40" viewBox="0 0 40 40" fill="none" xmlns="http://www.w3.org/2000/svg">
<path fill-rule="evenodd" clip-rule="evenodd" d="M32.207 4.63187C30.5527 4.92615 28.3167 5.66802 25.1553 6.72175L9.6033 11.9056C7.83543 12.4948 6.62485 12.9009 5.77989 13.3066C4.94102 13.7095 4.71779 13.9971 4.63184 14.2047C4.55939 14.3798 4.51557 14.5654 4.50209 14.7544C4.4861 14.9785 4.5571 15.3356 5.12725 16.0711C5.70154 16.8118 6.60272 17.7163 7.9204 19.034L8.39145 19.505C8.41398 19.5275 8.43625 19.5498 8.45827 19.5718C8.81764 19.9308 9.11027 20.223 9.33887 20.5597C9.78647 21.2188 10.0406 21.99 10.0723 22.7862C10.0885 23.1927 10.0269 23.6017 9.95122 24.104C9.94659 24.1347 9.9419 24.1658 9.93717 24.1973C9.7718 25.2992 9.65662 26.0702 9.60322 26.6715C9.55012 27.2693 9.5694 27.5977 9.62217 27.8273C9.65928 27.9888 9.70818 28.1458 9.76793 28.2972L33.5657 4.49938C33.2088 4.49347 32.7653 4.53257 32.207 4.63187ZM36.6542 3.17853C37.9298 4.45417 37.9948 6.19407 37.6623 8.06345C37.332 9.92008 36.5285 12.3304 35.5183 15.3606L30.238 31.2008C29.6982 32.8205 29.256 34.1472 28.7883 35.1287C28.3105 36.1315 27.6957 37.0215 26.6707 37.4725C26.1937 37.6825 25.6822 37.8032 25.1615 37.8288C24.043 37.8837 23.0952 37.3627 22.2192 36.6793C21.362 36.0107 20.373 35.0218 19.1658 33.8145L18.6868 33.3355C18.2133 32.862 18.0923 32.749 17.9727 32.6688C17.712 32.4942 17.4095 32.3922 17.0962 32.3732C16.9523 32.3645 16.7878 32.3813 16.1242 32.4713L15.9652 32.4928C14.9105 32.636 14.0628 32.7512 13.3764 32.8023C12.678 32.8545 12.0451 32.8503 11.4407 32.7023C9.32073 32.1838 7.6744 30.5142 7.18565 28.3872C7.0463 27.7807 7.05107 27.1478 7.11302 26.4503C7.1739 25.7647 7.30087 24.9188 7.45887 23.8663L7.46487 23.8263C7.5612 23.1845 7.57984 23.025 7.57429 22.8858C7.56115 22.5563 7.45599 22.237 7.2707 21.9642C7.1924 21.8488 7.08264 21.7318 6.62372 21.2728L6.09057 20.7397C4.85029 19.4995 3.83439 18.4837 3.15145 17.6028C2.453 16.7018 1.92645 15.7257 2.00842 14.5765C2.04099 14.1199 2.14684 13.6716 2.3219 13.2486C2.76255 12.1841 3.67005 11.5465 4.69769 11.053C5.7025 10.5705 7.06544 10.1162 8.72942 9.56163L24.4718 4.31435C27.5022 3.30427 29.9125 2.50078 31.7692 2.17052C33.6387 1.83797 35.3785 1.90293 36.6542 3.17853ZM35.3335 6.26717L11.5051 30.0955C11.6745 30.1692 11.8515 30.2292 12.0347 30.274C12.2636 30.33 12.5917 30.354 13.1903 30.3093C13.7923 30.2643 14.5649 30.16 15.669 30.0102L15.788 29.994C15.8205 29.9897 15.8527 29.9852 15.8844 29.9808C16.4039 29.9102 16.827 29.8525 17.2468 29.8778C18.0035 29.9235 18.7343 30.1698 19.364 30.5917C19.7135 30.8258 20.0152 31.1278 20.3857 31.4987C20.4083 31.5215 20.4313 31.5445 20.4545 31.5677L20.8733 31.9863C22.1557 33.2688 23.036 34.1458 23.7568 34.7082C24.4733 35.267 24.8223 35.3425 25.039 35.3318C25.2545 35.3212 25.4662 35.2712 25.6637 35.1843C25.8622 35.097 26.1405 34.8735 26.5315 34.0532C26.9247 33.228 27.3198 32.0498 27.8933 30.3293L33.111 14.677C34.1648 11.5158 34.9067 9.27982 35.201 7.62557C35.3002 7.06742 35.3393 6.62402 35.3335 6.26717Z" fill="#1C274C"/>
</svg>
