<svg width="40" height="40" viewBox="0 0 40 40" fill="none" xmlns="http://www.w3.org/2000/svg">
<path fill-rule="evenodd" clip-rule="evenodd" d="M20.0001 2.08334C15.6279 2.08334 12.0835 5.62775 12.0835 10C12.0835 14.3723 15.6279 17.9167 20.0001 17.9167C24.3724 17.9167 27.9168 14.3723 27.9168 10C27.9168 5.62775 24.3724 2.08334 20.0001 2.08334ZM14.5835 10C14.5835 7.00845 17.0086 4.58334 20.0001 4.58334C22.9918 4.58334 25.4168 7.00845 25.4168 10C25.4168 12.9916 22.9918 15.4167 20.0001 15.4167C17.0086 15.4167 14.5835 12.9916 14.5835 10Z" fill="#1C274C"/>
<path fill-rule="evenodd" clip-rule="evenodd" d="M20.0002 20.4167C16.1444 20.4167 12.5918 21.2932 9.95938 22.7738C7.36611 24.2327 5.41696 26.4435 5.41696 29.1667L5.41686 29.3367C5.41498 31.273 5.41261 33.7033 7.54433 35.4392C8.59344 36.2935 10.0611 36.901 12.044 37.3025C14.0324 37.7048 16.624 37.9167 20.0002 37.9167C23.3766 37.9167 25.9682 37.7048 27.9566 37.3025C29.9396 36.901 31.4072 36.2935 32.4562 35.4392C34.5879 33.7033 34.5856 31.273 34.5837 29.3367L34.5836 29.1667C34.5836 26.4435 32.6346 24.2327 30.0412 22.7738C27.4087 21.2932 23.8562 20.4167 20.0002 20.4167ZM7.91696 29.1667C7.91696 27.7478 8.95259 26.2085 11.185 24.9528C13.3783 23.7192 16.4924 22.9167 20.0002 22.9167C23.5082 22.9167 26.6222 23.7192 28.8156 24.9528C31.0481 26.2085 32.0836 27.7478 32.0836 29.1667C32.0836 31.3463 32.0164 32.5733 30.8776 33.5007C30.2601 34.0037 29.2277 34.4945 27.4606 34.8522C25.6991 35.2087 23.2907 35.4167 20.0002 35.4167C16.7099 35.4167 14.3015 35.2087 12.54 34.8522C10.7728 34.4945 9.74049 34.0037 9.12294 33.5007C7.98416 32.5733 7.91696 31.3463 7.91696 29.1667Z" fill="#1C274C"/>
</svg>
