<svg width="20" height="20" viewBox="0 0 20 20" fill="none" xmlns="http://www.w3.org/2000/svg">
<path fill-rule="evenodd" clip-rule="evenodd" d="M10.2084 2.36181C9.82469 2.29661 9.30169 2.29167 8.35819 2.29167C6.76095 2.29167 5.62565 2.29299 4.7649 2.40819C3.92165 2.52105 3.43713 2.73274 3.08494 3.08492C2.73226 3.4376 2.52087 3.92064 2.40815 4.75905C2.29301 5.61543 2.29169 6.74432 2.29169 8.33338V11.6667C2.29169 13.2557 2.29301 14.3845 2.40815 15.241C2.52087 16.0794 2.73226 16.5624 3.08494 16.915C3.43761 17.2678 3.92065 17.4791 4.75906 17.5919C5.61545 17.707 6.74434 17.7084 8.33335 17.7084H11.6667C13.2557 17.7084 14.3846 17.707 15.241 17.5919C16.0794 17.4791 16.5624 17.2678 16.9151 16.915C17.2678 16.5624 17.4792 16.0794 17.5919 15.241C17.707 14.3845 17.7084 13.2557 17.7084 11.6667V11.3024C17.7084 10.0224 17.6994 9.41563 17.5635 8.95838H14.9553C14.0113 8.95838 13.2398 8.95838 12.6308 8.87646C11.9941 8.79088 11.4422 8.60563 11.0016 8.16509C10.561 7.7245 10.3758 7.17256 10.2902 6.53594C10.2084 5.92688 10.2084 5.15544 10.2084 4.21141V2.36181ZM11.4584 3.00788V4.16667C11.4584 5.16643 11.4597 5.85338 11.529 6.36937C11.596 6.86739 11.7159 7.11159 11.8855 7.2812C12.0551 7.45082 12.2993 7.57068 12.7974 7.63764C13.3134 7.70701 14.0003 7.70834 15 7.70834H16.6829C16.4359 7.46871 16.1194 7.1816 15.7084 6.81169L12.4094 3.8426C12.0049 3.47857 11.7039 3.20985 11.4584 3.00788ZM8.4796 1.04165C9.63344 1.04134 10.3789 1.04115 11.0649 1.30442C11.751 1.5677 12.3027 2.06442 13.1561 2.83292C13.1855 2.85945 13.2154 2.8863 13.2456 2.91349L16.5445 5.88256C16.5797 5.91417 16.6144 5.94538 16.6486 5.9762C17.635 6.86341 18.2729 7.43711 18.6159 8.20748C18.959 8.9778 18.9588 9.83571 18.9584 11.1624C18.9584 11.2085 18.9584 11.2551 18.9584 11.3024V11.7137C18.9584 13.2451 18.9584 14.4582 18.8308 15.4075C18.6994 16.3845 18.4226 17.1753 17.799 17.799C17.1754 18.4226 16.3845 18.6994 15.4075 18.8307C14.4582 18.9584 13.2452 18.9584 11.7137 18.9584H8.28635C6.75488 18.9584 5.54185 18.9584 4.5925 18.8307C3.61549 18.6994 2.8247 18.4226 2.20105 17.799C1.57742 17.1753 1.30065 16.3845 1.1693 15.4075C1.04166 14.4582 1.04167 13.2451 1.04169 11.7137V8.28632C1.04167 6.75486 1.04166 5.54183 1.1693 4.59249C1.30065 3.61547 1.57742 2.82468 2.20105 2.20104C2.82518 1.57692 3.61862 1.30046 4.59908 1.16924C5.55238 1.04165 6.77144 1.04165 8.31129 1.04167H8.35819C8.3991 1.04167 8.4396 1.04166 8.4796 1.04165Z" fill="white"/>
<path fill-rule="evenodd" clip-rule="evenodd" d="M6.74487 10.99C7.07164 10.9899 7.33654 11.2548 7.33654 11.5816L7.33652 12.6635L8.41836 12.6634C8.74513 12.6634 9.01003 12.9283 9.01003 13.2551C9.01002 13.5819 8.74511 13.8468 8.41834 13.8468L7.3365 13.8468L7.33654 14.9286C7.33653 15.2554 7.07162 15.5203 6.74485 15.5203C6.41808 15.5203 6.15317 15.2554 6.15318 14.9286L6.1532 13.8468L5.07136 13.8468C4.74459 13.8468 4.47968 13.5819 4.47969 13.2551C4.4797 12.9284 4.74461 12.6634 5.07138 12.6634L6.15316 12.6635L6.15318 11.5816C6.15318 11.2549 6.4181 10.99 6.74487 10.99Z" fill="white"/>
</svg>
