<svg width="40" height="40" viewBox="0 0 40 40" fill="none" xmlns="http://www.w3.org/2000/svg">
<path d="M19.9999 2.5C18.2712 2.5 16.8362 3.71125 16.4062 5.3125C15.9662 5.13125 15.5024 5 14.9999 5C12.9437 5 11.2499 6.69375 11.2499 8.75V22.1875L10.1562 21.0938C8.70119 19.6388 6.29869 19.6388 4.84369 21.0938C3.38869 22.5487 3.38869 24.9513 4.84369 26.4062L13.3203 34.8828C14.7903 36.3478 16.8212 37.5 19.2187 37.5H24.9999C29.8187 37.5 33.7499 33.5688 33.7499 28.75V13.75C33.7499 11.6938 32.0562 10 29.9999 10C29.5599 10 29.1449 10.0919 28.7499 10.2344V8.75C28.7499 6.69375 27.0562 5 24.9999 5C24.4974 5 24.0337 5.13125 23.5937 5.3125C23.1637 3.71125 21.7287 2.5 19.9999 2.5ZM19.9999 5C20.7074 5 21.2499 5.5425 21.2499 6.25V18.75H23.7499V8.75C23.7499 8.0425 24.2924 7.5 24.9999 7.5C25.7074 7.5 26.2499 8.0425 26.2499 8.75V18.75H28.7499V13.75C28.7499 13.0425 29.2924 12.5 29.9999 12.5C30.7074 12.5 31.2499 13.0425 31.2499 13.75V28.75C31.2499 32.2162 28.4662 35 24.9999 35H19.2187C17.6274 35 16.2596 34.2234 15.1171 33.0859L6.6015 24.6484C6.104 24.1509 6.104 23.3503 6.6015 22.8516C7.099 22.3541 7.89963 22.3541 8.39838 22.8516L11.6015 26.0938L13.7499 28.2422V8.75C13.7499 8.0425 14.2924 7.5 14.9999 7.5C15.7074 7.5 16.2499 8.0425 16.2499 8.75V18.75H18.7499V6.25C18.7499 5.5425 19.2924 5 19.9999 5ZM19.9999 21.25C19.6684 21.25 19.3505 21.3817 19.1161 21.6161C18.8816 21.8505 18.7499 22.1685 18.7499 22.5C18.7499 22.8315 18.8816 23.1495 19.1161 23.3839C19.3505 23.6183 19.6684 23.75 19.9999 23.75C20.3315 23.75 20.6494 23.6183 20.8838 23.3839C21.1182 23.1495 21.2499 22.8315 21.2499 22.5C21.2499 22.1685 21.1182 21.8505 20.8838 21.6161C20.6494 21.3817 20.3315 21.25 19.9999 21.25ZM27.4999 21.25C27.1684 21.25 26.8505 21.3817 26.6161 21.6161C26.3816 21.8505 26.2499 22.1685 26.2499 22.5C26.2499 22.8315 26.3816 23.1495 26.6161 23.3839C26.8505 23.6183 27.1684 23.75 27.4999 23.75C27.8315 23.75 28.1494 23.6183 28.3838 23.3839C28.6182 23.1495 28.7499 22.8315 28.7499 22.5C28.7499 22.1685 28.6182 21.8505 28.3838 21.6161C28.1494 21.3817 27.8315 21.25 27.4999 21.25ZM22.4999 25C22.1684 25 21.8505 25.1317 21.6161 25.3661C21.3816 25.6005 21.2499 25.9185 21.2499 26.25C21.2499 26.5815 21.3816 26.8995 21.6161 27.1339C21.8505 27.3683 22.1684 27.5 22.4999 27.5C22.8315 27.5 23.1494 27.3683 23.3838 27.1339C23.6182 26.8995 23.7499 26.5815 23.7499 26.25C23.7499 25.9185 23.6182 25.6005 23.3838 25.3661C23.1494 25.1317 22.8315 25 22.4999 25ZM17.4999 26.25C17.1684 26.25 16.8505 26.3817 16.6161 26.6161C16.3816 26.8505 16.2499 27.1685 16.2499 27.5C16.2499 27.8315 16.3816 28.1495 16.6161 28.3839C16.8505 28.6183 17.1684 28.75 17.4999 28.75C17.8315 28.75 18.1494 28.6183 18.3838 28.3839C18.6182 28.1495 18.7499 27.8315 18.7499 27.5C18.7499 27.1685 18.6182 26.8505 18.3838 26.6161C18.1494 26.3817 17.8315 26.25 17.4999 26.25ZM27.4999 26.25C27.1684 26.25 26.8505 26.3817 26.6161 26.6161C26.3816 26.8505 26.2499 27.1685 26.2499 27.5C26.2499 27.8315 26.3816 28.1495 26.6161 28.3839C26.8505 28.6183 27.1684 28.75 27.4999 28.75C27.8315 28.75 28.1494 28.6183 28.3838 28.3839C28.6182 28.1495 28.7499 27.8315 28.7499 27.5C28.7499 27.1685 28.6182 26.8505 28.3838 26.6161C28.1494 26.3817 27.8315 26.25 27.4999 26.25ZM22.4999 30C22.1684 30 21.8505 30.1317 21.6161 30.3661C21.3816 30.6005 21.2499 30.9185 21.2499 31.25C21.2499 31.5815 21.3816 31.8995 21.6161 32.1339C21.8505 32.3683 22.1684 32.5 22.4999 32.5C22.8315 32.5 23.1494 32.3683 23.3838 32.1339C23.6182 31.8995 23.7499 31.5815 23.7499 31.25C23.7499 30.9185 23.6182 30.6005 23.3838 30.3661C23.1494 30.1317 22.8315 30 22.4999 30Z" fill="#1B2746"/>
</svg>
