<svg width="24" height="25" viewBox="0 0 24 25" fill="none" xmlns="http://www.w3.org/2000/svg">
<path fill-rule="evenodd" clip-rule="evenodd" d="M14.5 10.6743C12.9812 10.6743 11.75 11.9055 11.75 13.4243C11.75 14.9431 12.9812 16.1743 14.5 16.1743C16.0188 16.1743 17.25 14.9431 17.25 13.4243C17.25 11.9055 16.0188 10.6743 14.5 10.6743ZM13.25 13.4243C13.25 12.7339 13.8096 12.1743 14.5 12.1743C15.1904 12.1743 15.75 12.7339 15.75 13.4243C15.75 14.1147 15.1904 14.6743 14.5 14.6743C13.8096 14.6743 13.25 14.1147 13.25 13.4243Z" fill="#1C274C"/>
<path fill-rule="evenodd" clip-rule="evenodd" d="M8.25 9.42432C8.25 8.45782 9.0335 7.67432 10 7.67432C10.9665 7.67432 11.75 8.45782 11.75 9.42432C11.75 10.3908 10.9665 11.1743 10 11.1743C9.0335 11.1743 8.25 10.3908 8.25 9.42432ZM10 9.17432C9.86193 9.17432 9.75 9.28625 9.75 9.42432C9.75 9.56239 9.86193 9.67432 10 9.67432C10.1381 9.67432 10.25 9.56239 10.25 9.42432C10.25 9.28625 10.1381 9.17432 10 9.17432Z" fill="#1C274C"/>
<path d="M9 14.4243C9.55229 14.4243 10 13.9766 10 13.4243C10 12.872 9.55229 12.4243 9 12.4243C8.44772 12.4243 8 12.872 8 13.4243C8 13.9766 8.44772 14.4243 9 14.4243Z" fill="#1C274C"/>
<path fill-rule="evenodd" clip-rule="evenodd" d="M3.5 1.67432C4.74264 1.67432 5.75 2.68168 5.75 3.92432C5.75 4.27168 5.67129 4.60066 5.53072 4.89438L7.03661 6.40027C7.88268 5.70635 8.88193 5.19148 9.97787 4.91213C9.83192 4.61393 9.75 4.27869 9.75 3.92432C9.75 2.68168 10.7574 1.67432 12 1.67432C13.2426 1.67432 14.25 2.68168 14.25 3.92432C14.25 4.29926 14.1583 4.65279 13.9961 4.96368C15.0674 5.26409 16.0481 5.78708 16.8846 6.47903L17.4693 5.89438C17.3287 5.60065 17.25 5.27168 17.25 4.92432C17.25 3.68168 18.2574 2.67432 19.5 2.67432C20.7426 2.67432 21.75 3.68168 21.75 4.92432C21.75 6.16696 20.7426 7.17432 19.5 7.17432C19.1526 7.17432 18.8237 7.09561 18.5299 6.95504L17.9453 7.53969C18.5828 8.3104 19.0769 9.20354 19.3857 10.1772C19.4236 10.1753 19.4617 10.1743 19.5 10.1743C20.7426 10.1743 21.75 11.1817 21.75 12.4243C21.75 13.6669 20.7426 14.6743 19.5 14.6743C19.4835 14.6743 19.467 14.6741 19.4505 14.6738C19.093 15.9143 18.4312 17.0227 17.5501 17.9137L17.5797 17.9434C17.8735 17.8028 18.2024 17.7241 18.5498 17.7241C19.7924 17.7241 20.7998 18.7315 20.7998 19.9741C20.7998 21.2167 19.7924 22.2241 18.5498 22.2241C17.3072 22.2241 16.2998 21.2167 16.2998 19.9741C16.2998 19.6267 16.3785 19.2978 16.5191 19.004L16.3902 18.8751C15.6741 19.3578 14.8709 19.7219 14.0079 19.9401C13.6371 20.6717 12.878 21.1744 11.9999 21.1744C11.0949 21.1744 10.3162 20.6404 9.95889 19.8722C9.14326 19.6382 8.38084 19.275 7.69547 18.8064C7.66414 18.8592 7.62577 18.909 7.58036 18.9544L6.54661 19.9882C6.6772 20.2732 6.75 20.5903 6.75 20.9243C6.75 22.1669 5.74264 23.1743 4.5 23.1743C3.25736 23.1743 2.25 22.1669 2.25 20.9243C2.25 19.6817 3.25736 18.6743 4.5 18.6743C4.86061 18.6743 5.2014 18.7591 5.50351 18.9099L6.5197 17.8937C6.53143 17.882 6.54345 17.8708 6.55573 17.86C5.61381 16.9166 4.90853 15.7369 4.53936 14.4204C4.22847 14.5826 3.87495 14.6743 3.5 14.6743C2.25736 14.6743 1.25 13.6669 1.25 12.4243C1.25 11.1817 2.25736 10.1743 3.5 10.1743C3.85437 10.1743 4.18961 10.2562 4.48781 10.4022C4.76716 9.30625 5.28203 8.307 5.97595 7.46093L4.47006 5.95504C4.17634 6.09561 3.84736 6.17432 3.5 6.17432C2.25736 6.17432 1.25 5.16696 1.25 3.92432C1.25 2.68168 2.25736 1.67432 3.5 1.67432ZM4.25 3.92432C4.25 3.51011 3.91421 3.17432 3.5 3.17432C3.08579 3.17432 2.75 3.51011 2.75 3.92432C2.75 4.33853 3.08579 4.67432 3.5 4.67432C3.91421 4.67432 4.25 4.33853 4.25 3.92432ZM12.114 18.6743C15.5198 18.6743 18.25 15.9441 18.25 12.5383L18.2498 12.4868C18.2219 9.03047 15.3938 6.20242 11.9375 6.17453C8.49053 6.14671 5.72239 8.91485 5.75021 12.3618C5.7781 15.8181 8.60615 18.6462 12.0625 18.6741C12.0797 18.6742 12.0969 18.6743 12.114 18.6743ZM19.75 11.717C20.0413 11.8199 20.25 12.0977 20.25 12.4243C20.25 12.7509 20.0413 13.0287 19.75 13.1316V11.717ZM19.5 4.17432C19.0858 4.17432 18.75 4.51011 18.75 4.92432C18.75 5.33853 19.0858 5.67432 19.5 5.67432C19.9142 5.67432 20.25 5.33853 20.25 4.92432C20.25 4.51011 19.9142 4.17432 19.5 4.17432ZM3.5 11.6743C3.91421 11.6743 4.25 12.0101 4.25 12.4243C4.25 12.8385 3.91421 13.1743 3.5 13.1743C3.08579 13.1743 2.75 12.8385 2.75 12.4243C2.75 12.0101 3.08579 11.6743 3.5 11.6743ZM17.7998 19.9741C17.7998 20.3883 18.1356 20.7241 18.5498 20.7241C18.964 20.7241 19.2998 20.3883 19.2998 19.9741C19.2998 19.5599 18.964 19.2241 18.5498 19.2241C18.1356 19.2241 17.7998 19.5599 17.7998 19.9741ZM4.5 21.6743C4.91421 21.6743 5.25 21.3385 5.25 20.9243C5.25 20.5101 4.91421 20.1743 4.5 20.1743C4.08579 20.1743 3.75 20.5101 3.75 20.9243C3.75 21.3385 4.08579 21.6743 4.5 21.6743ZM11.25 3.92432C11.25 3.51011 11.5858 3.17432 12 3.17432C12.4142 3.17432 12.75 3.51011 12.75 3.92432C12.75 4.33853 12.4142 4.67432 12 4.67432C11.5858 4.67432 11.25 4.33853 11.25 3.92432Z" fill="#1C274C"/>
</svg>
