<svg width="14" height="14" viewBox="0 0 14 14" fill="none" xmlns="http://www.w3.org/2000/svg">
<path d="M10.3601 5.65866L7.1783 9.15866C7.07224 9.27533 6.96618 9.33366 6.80709 9.33366C6.648 9.33366 6.54194 9.27533 6.43588 9.15866L3.25406 5.65866C3.04194 5.42533 3.04194 5.07533 3.25406 4.84199C3.46618 4.60866 3.78436 4.60866 3.99649 4.84199L6.80709 7.93366L9.6177 4.84199C9.82982 4.60866 10.148 4.60866 10.3601 4.84199C10.5722 5.07533 10.5722 5.42533 10.3601 5.65866Z" fill="black"/>
<mask id="mask0" style="mask-type:alpha" maskUnits="userSpaceOnUse" x="3" y="4" width="8" height="6">
<path d="M10.3601 5.65866L7.1783 9.15866C7.07224 9.27533 6.96618 9.33366 6.80709 9.33366C6.648 9.33366 6.54194 9.27533 6.43588 9.15866L3.25406 5.65866C3.04194 5.42533 3.04194 5.07533 3.25406 4.84199C3.46618 4.60866 3.78436 4.60866 3.99649 4.84199L6.80709 7.93366L9.6177 4.84199C9.82982 4.60866 10.148 4.60866 10.3601 4.84199C10.5722 5.07533 10.5722 5.42533 10.3601 5.65866Z" fill="white"/>
</mask>
<g mask="url(#mask0)">
<rect x="0.443481" width="12.7273" height="14" fill="#BABFC7"/>
</g>
</svg>
