<svg width="14" height="14" viewBox="0 0 14 14" fill="none" xmlns="http://www.w3.org/2000/svg">
<path d="M10.3601 9.15866C10.2541 9.27533 10.148 9.33366 9.98891 9.33366C9.82982 9.33366 9.72376 9.27533 9.6177 9.15866L6.80709 6.06699L3.99649 9.15866C3.78436 9.39199 3.46618 9.39199 3.25406 9.15866C3.04194 8.92533 3.04194 8.57533 3.25406 8.34199L6.43588 4.84199C6.648 4.60866 6.96618 4.60866 7.1783 4.84199L10.3601 8.34199C10.5722 8.57533 10.5722 8.92533 10.3601 9.15866Z" fill="black"/>
<mask id="mask0" style="mask-type:alpha" maskUnits="userSpaceOnUse" x="3" y="4" width="8" height="6">
<path d="M10.3601 9.15866C10.2541 9.27533 10.148 9.33366 9.98891 9.33366C9.82982 9.33366 9.72376 9.27533 9.6177 9.15866L6.80709 6.06699L3.99649 9.15866C3.78436 9.39199 3.46618 9.39199 3.25406 9.15866C3.04194 8.92533 3.04194 8.57533 3.25406 8.34199L6.43588 4.84199C6.648 4.60866 6.96618 4.60866 7.1783 4.84199L10.3601 8.34199C10.5722 8.57533 10.5722 8.92533 10.3601 9.15866Z" fill="white"/>
</mask>
<g mask="url(#mask0)">
<rect x="0.443481" width="12.7273" height="14" fill="#BABFC7"/>
</g>
</svg>
