<svg width="25" height="25" viewBox="0 0 25 25" fill="none" xmlns="http://www.w3.org/2000/svg">
<path fill-rule="evenodd" clip-rule="evenodd" d="M7.39457 1.30204C7.44462 1.30206 7.49541 1.30209 7.54696 1.30209H17.4532C17.5047 1.30209 17.5555 1.30206 17.6056 1.30204C18.6647 1.30159 19.3935 1.30126 20.0075 1.51487C21.1668 1.91826 22.0669 2.85123 22.4528 4.02657C22.657 4.64857 22.6568 5.38798 22.6564 6.48591C22.6564 6.53504 22.6564 6.5849 22.6564 6.63548V21.2231C22.6564 22.7494 20.8574 23.658 19.6726 22.5739C19.5898 22.4981 19.4729 22.4981 19.3901 22.5739L18.8869 23.0344C17.92 23.9191 16.4551 23.9191 15.4883 23.0344C15.1185 22.696 14.5692 22.696 14.1994 23.0344C13.2325 23.9191 11.7676 23.9191 10.8008 23.0344C10.431 22.696 9.88164 22.696 9.51186 23.0344C8.54499 23.9191 7.08015 23.9191 6.11328 23.0344L5.61007 22.5739C5.52727 22.4981 5.41037 22.4981 5.32759 22.5739C4.14276 23.658 2.34383 22.7494 2.34383 21.2231V6.63548C2.34383 6.5849 2.3438 6.53504 2.34378 6.48591C2.34339 5.38799 2.34312 4.64857 2.54735 4.02657C2.93324 2.85123 3.83336 1.91826 4.99269 1.51487C5.60657 1.30126 6.33545 1.30159 7.39457 1.30204ZM7.54696 2.86459C6.275 2.86459 5.83688 2.87551 5.50618 2.99057C4.81933 3.22957 4.26999 3.78875 4.03188 4.51398C3.91616 4.86641 3.90633 5.33113 3.90633 6.63548V21.2231C3.90633 21.3471 3.96874 21.4229 4.04705 21.4592C4.08786 21.478 4.12775 21.4829 4.161 21.4785C4.19032 21.4745 4.22824 21.4619 4.27276 21.4212C4.95264 20.799 5.98501 20.799 6.66488 21.4212L7.16811 21.8817C7.53789 22.22 8.08726 22.22 8.45703 21.8817C9.4239 20.9969 10.8888 20.9969 11.8556 21.8817C12.2254 22.22 12.7748 22.22 13.1446 21.8817C14.1114 20.9969 15.5763 20.9969 16.5431 21.8817C16.9129 22.22 17.4623 22.22 17.8321 21.8817L18.3353 21.4212C19.0151 20.799 20.0475 20.799 20.7274 21.4212C20.7719 21.4619 20.8098 21.4745 20.8392 21.4785C20.8724 21.4829 20.9123 21.478 20.9531 21.4592C21.0314 21.4229 21.0939 21.3472 21.0939 21.2231V6.63548C21.0939 5.33114 21.084 4.86641 20.9682 4.51398C20.7301 3.78875 20.1808 3.22957 19.494 2.99057C19.1632 2.87551 18.7251 2.86459 17.4532 2.86459H7.54696ZM6.51049 7.8125C6.51049 7.38103 6.86026 7.03125 7.29174 7.03125H7.81258C8.24404 7.03125 8.59383 7.38103 8.59383 7.8125C8.59383 8.24398 8.24404 8.59375 7.81258 8.59375H7.29174C6.86026 8.59375 6.51049 8.24398 6.51049 7.8125ZM10.1563 7.8125C10.1563 7.38103 10.5061 7.03125 10.9376 7.03125H17.7084C18.1399 7.03125 18.4897 7.38103 18.4897 7.8125C18.4897 8.24398 18.1399 8.59375 17.7084 8.59375H10.9376C10.5061 8.59375 10.1563 8.24398 10.1563 7.8125ZM6.51049 11.4584C6.51049 11.0269 6.86026 10.6771 7.29174 10.6771H7.81258C8.24404 10.6771 8.59383 11.0269 8.59383 11.4584C8.59383 11.8898 8.24404 12.2396 7.81258 12.2396H7.29174C6.86026 12.2396 6.51049 11.8898 6.51049 11.4584ZM10.1563 11.4584C10.1563 11.0269 10.5061 10.6771 10.9376 10.6771H17.7084C18.1399 10.6771 18.4897 11.0269 18.4897 11.4584C18.4897 11.8898 18.1399 12.2396 17.7084 12.2396H10.9376C10.5061 12.2396 10.1563 11.8898 10.1563 11.4584ZM6.51049 15.1042C6.51049 14.6727 6.86026 14.3229 7.29174 14.3229H7.81258C8.24404 14.3229 8.59383 14.6727 8.59383 15.1042C8.59383 15.5356 8.24404 15.8854 7.81258 15.8854H7.29174C6.86026 15.8854 6.51049 15.5356 6.51049 15.1042ZM10.1563 15.1042C10.1563 14.6727 10.5061 14.3229 10.9376 14.3229H17.7084C18.1399 14.3229 18.4897 14.6727 18.4897 15.1042C18.4897 15.5356 18.1399 15.8854 17.7084 15.8854H10.9376C10.5061 15.8854 10.1563 15.5356 10.1563 15.1042Z" fill="#1B2746"/>
</svg>
