<svg width="25" height="25" viewBox="0 0 25 25" fill="none" xmlns="http://www.w3.org/2000/svg">
<path fill-rule="evenodd" clip-rule="evenodd" d="M7.39457 1.30217C7.44462 1.30219 7.49541 1.30221 7.54696 1.30221H17.4532C17.5047 1.30221 17.5555 1.30219 17.6056 1.30217C18.6647 1.30171 19.3935 1.30138 20.0075 1.51499C21.1668 1.91838 22.0669 2.85135 22.4528 4.0267C22.657 4.6487 22.6568 5.3881 22.6564 6.48603C22.6564 6.53517 22.6564 6.58502 22.6564 6.6356V21.2233C22.6564 22.7495 20.8574 23.6582 19.6726 22.574C19.5898 22.4983 19.4729 22.4983 19.3901 22.574L18.8869 23.0345C17.92 23.9192 16.4551 23.9192 15.4883 23.0345C15.1185 22.6961 14.5692 22.6961 14.1994 23.0345C13.2325 23.9192 11.7676 23.9192 10.8008 23.0345C10.431 22.6961 9.88164 22.6961 9.51186 23.0345C8.54499 23.9192 7.08015 23.9192 6.11328 23.0345L5.61007 22.574C5.52727 22.4983 5.41037 22.4983 5.32759 22.574C4.14276 23.6582 2.34383 22.7495 2.34383 21.2233V6.6356C2.34383 6.58502 2.3438 6.53517 2.34378 6.48603C2.34339 5.38811 2.34312 4.6487 2.54735 4.0267C2.93324 2.85135 3.83336 1.91838 4.99269 1.51499C5.60657 1.30138 6.33545 1.30171 7.39457 1.30217ZM7.54696 2.86471C6.275 2.86471 5.83688 2.87563 5.50618 2.9907C4.81933 3.2297 4.26999 3.78887 4.03188 4.5141C3.91616 4.86653 3.90633 5.33125 3.90633 6.6356V21.2233C3.90633 21.3472 3.96874 21.4231 4.04705 21.4593C4.08786 21.4782 4.12775 21.4831 4.161 21.4786C4.19032 21.4746 4.22824 21.462 4.27276 21.4213C4.95264 20.7991 5.98501 20.7991 6.66488 21.4213L7.16811 21.8818C7.53789 22.2201 8.08726 22.2201 8.45703 21.8818C9.4239 20.997 10.8888 20.997 11.8556 21.8818C12.2254 22.2201 12.7748 22.2201 13.1446 21.8818C14.1114 20.997 15.5763 20.997 16.5431 21.8818C16.9129 22.2201 17.4623 22.2201 17.8321 21.8818L18.3353 21.4213C19.0151 20.7991 20.0475 20.7991 20.7274 21.4213C20.7719 21.462 20.8098 21.4746 20.8392 21.4786C20.8724 21.4831 20.9123 21.4782 20.9531 21.4593C21.0314 21.4231 21.0939 21.3473 21.0939 21.2233V6.6356C21.0939 5.33126 21.084 4.86653 20.9682 4.5141C20.7301 3.78887 20.1808 3.2297 19.494 2.9907C19.1632 2.87563 18.7251 2.86471 17.4532 2.86471H7.54696ZM6.51049 7.81262C6.51049 7.38116 6.86026 7.03137 7.29174 7.03137H7.81258C8.24404 7.03137 8.59383 7.38116 8.59383 7.81262C8.59383 8.2441 8.24404 8.59387 7.81258 8.59387H7.29174C6.86026 8.59387 6.51049 8.2441 6.51049 7.81262ZM10.1563 7.81262C10.1563 7.38116 10.5061 7.03137 10.9376 7.03137H17.7084C18.1399 7.03137 18.4897 7.38116 18.4897 7.81262C18.4897 8.2441 18.1399 8.59387 17.7084 8.59387H10.9376C10.5061 8.59387 10.1563 8.2441 10.1563 7.81262ZM6.51049 11.4585C6.51049 11.027 6.86026 10.6772 7.29174 10.6772H7.81258C8.24404 10.6772 8.59383 11.027 8.59383 11.4585C8.59383 11.8899 8.24404 12.2397 7.81258 12.2397H7.29174C6.86026 12.2397 6.51049 11.8899 6.51049 11.4585ZM10.1563 11.4585C10.1563 11.027 10.5061 10.6772 10.9376 10.6772H17.7084C18.1399 10.6772 18.4897 11.027 18.4897 11.4585C18.4897 11.8899 18.1399 12.2397 17.7084 12.2397H10.9376C10.5061 12.2397 10.1563 11.8899 10.1563 11.4585ZM6.51049 15.1043C6.51049 14.6729 6.86026 14.3231 7.29174 14.3231H7.81258C8.24404 14.3231 8.59383 14.6729 8.59383 15.1043C8.59383 15.5358 8.24404 15.8856 7.81258 15.8856H7.29174C6.86026 15.8856 6.51049 15.5358 6.51049 15.1043ZM10.1563 15.1043C10.1563 14.6729 10.5061 14.3231 10.9376 14.3231H17.7084C18.1399 14.3231 18.4897 14.6729 18.4897 15.1043C18.4897 15.5358 18.1399 15.8856 17.7084 15.8856H10.9376C10.5061 15.8856 10.1563 15.5358 10.1563 15.1043Z" fill="#7C878E"/>
</svg>
