<svg width="16" height="16" viewBox="0 0 16 16" fill="none" xmlns="http://www.w3.org/2000/svg">
<path d="M6 3.5C5.72386 3.5 5.5 3.72386 5.5 4C5.5 4.27614 5.72386 4.5 6 4.5H10C10.2761 4.5 10.5 4.27614 10.5 4C10.5 3.72386 10.2761 3.5 10 3.5H6Z" fill="#1B2746"/>
<path fill-rule="evenodd" clip-rule="evenodd" d="M7.96167 0.833496C6.57996 0.83349 5.49144 0.833476 4.64085 0.949076C3.76748 1.06777 3.07073 1.31662 2.52323 1.87006C1.97646 2.42274 1.73128 3.12484 1.6142 4.0051C1.49999 4.86384 1.49999 5.96324 1.5 7.3609V10.7595C1.49999 11.7646 1.49999 12.5603 1.56401 13.1594C1.62727 13.7514 1.76298 14.2855 2.15056 14.6427C2.46151 14.9293 2.85474 15.1099 3.27443 15.158C3.79941 15.218 4.28959 14.9674 4.77245 14.6253C5.26109 14.2792 5.85383 13.7549 6.60169 13.0934L6.62603 13.0719C6.97273 12.7652 7.20747 12.5583 7.40333 12.4151C7.5926 12.2767 7.7082 12.2266 7.8056 12.207C7.93393 12.1812 8.06607 12.1812 8.1944 12.207C8.2918 12.2266 8.4074 12.2767 8.59667 12.4151C8.79253 12.5583 9.02727 12.7652 9.374 13.0719L9.39833 13.0935C10.1462 13.7549 10.7389 14.2792 11.2275 14.6253C11.7104 14.9674 12.2006 15.218 12.7255 15.158C13.1453 15.1099 13.5385 14.9293 13.8495 14.6427C14.237 14.2855 14.3727 13.7514 14.436 13.1594C14.5 12.5603 14.5 11.7646 14.5 10.7595V7.36083C14.5 5.96324 14.5 4.86383 14.3858 4.0051C14.2687 3.12484 14.0235 2.42274 13.4768 1.87006C12.9293 1.31662 12.2325 1.06777 11.3591 0.949076C10.5085 0.833476 9.42007 0.83349 8.03833 0.833496H7.96167ZM3.23413 2.57334C3.56531 2.23858 4.01501 2.04332 4.77552 1.93997C5.55097 1.83458 6.5715 1.8335 8 1.8335C9.42847 1.8335 10.4491 1.83458 11.2245 1.93997C11.985 2.04332 12.4347 2.23858 12.7659 2.57334C13.0978 2.90885 13.2919 3.36562 13.3945 4.13695C13.4989 4.92211 13.5 5.95498 13.5 7.3985V10.7274C13.5 11.7716 13.4993 12.5136 13.4417 13.0531C13.3826 13.606 13.2736 13.8135 13.1717 13.9074C13.0159 14.051 12.8199 14.1406 12.6119 14.1644C12.4788 14.1796 12.2557 14.1282 11.8055 13.8093C11.3665 13.4983 10.8141 13.0106 10.0365 12.3228L10.0191 12.3074C9.6942 12.0201 9.4248 11.7818 9.18693 11.6079C8.93827 11.426 8.68747 11.2863 8.39187 11.2267C8.1332 11.1746 7.8668 11.1746 7.60813 11.2267C7.31253 11.2863 7.06173 11.426 6.81307 11.6079C6.57522 11.7818 6.30581 12.0201 5.98097 12.3074L5.96351 12.3228C5.18591 13.0106 4.63351 13.4983 4.19443 13.8093C3.74431 14.1282 3.52121 14.1796 3.38812 14.1644C3.18013 14.1406 2.98411 14.051 2.82825 13.9074C2.72642 13.8135 2.61743 13.606 2.55835 13.0531C2.50069 12.5136 2.5 11.7716 2.5 10.7274V7.3985C2.5 5.95498 2.50104 4.92211 2.60547 4.13695C2.70806 3.36562 2.90222 2.90885 3.23413 2.57334Z" fill="#1C274D"/>
</svg>
