<svg width="15" height="16" viewBox="0 0 15 16" fill="none" xmlns="http://www.w3.org/2000/svg">
<path fill-rule="evenodd" clip-rule="evenodd" d="M11.6799 3.10126C11.8792 2.87706 12.1483 2.75088 12.4289 2.75C12.7096 2.74913 12.9792 2.87362 13.1796 3.09657C13.38 3.31952 13.4951 3.62301 13.4998 3.94143C13.5046 4.25985 13.3988 4.56762 13.2052 4.79819L7.51995 12.8626C7.42224 12.982 7.30431 13.0779 7.17322 13.1444C7.04212 13.2109 6.90055 13.2468 6.75696 13.2498C6.61338 13.2528 6.47073 13.2229 6.33755 13.162C6.20438 13.101 6.0834 13.0102 5.98186 12.8949L2.21496 8.61869C2.11002 8.50772 2.02585 8.37391 1.96747 8.22522C1.90909 8.07654 1.8777 7.91604 1.87517 7.75329C1.87264 7.59054 1.89902 7.42889 1.95274 7.27796C2.00646 7.12703 2.08642 6.98993 2.18785 6.87483C2.28927 6.75974 2.41009 6.669 2.54309 6.60804C2.67609 6.54708 2.81855 6.51714 2.96196 6.52001C3.10538 6.52288 3.24682 6.5585 3.37784 6.62475C3.50886 6.691 3.62678 6.78652 3.72457 6.9056L6.70676 10.2881L11.6529 3.13682C11.6617 3.1243 11.6712 3.11242 11.6813 3.10126H11.6799Z" fill="#0696D6"/>
</svg>
