<svg width="10" height="9" viewBox="0 0 10 9" fill="none" xmlns="http://www.w3.org/2000/svg">
<path fill-rule="evenodd" clip-rule="evenodd" d="M9.66806 0.920049C9.8644 0.724409 9.86938 0.402098 9.67917 0.200147C9.48897 -0.00180349 9.17561 -0.00691954 8.97927 0.18872L5.36518 3.7899L1.78396 0.195846C1.58832 -0.000495389 1.26601 -0.00546975 1.06405 0.184736C0.862103 0.374942 0.856987 0.6883 1.05263 0.884641L4.65381 4.49873L1.05975 8.07995C0.863411 8.27559 0.858437 8.5979 1.04864 8.79985C1.23885 9.0018 1.55221 9.00692 1.74855 8.81128L5.36264 5.2101L8.94386 8.80416C9.1395 9.0005 9.46181 9.00547 9.66376 8.81526C9.86571 8.62506 9.87083 8.3117 9.67519 8.11536L6.07401 4.50127L9.66806 0.920049Z" fill="white"/>
</svg>
