<svg width="19" height="19" viewBox="0 0 19 19" fill="none" xmlns="http://www.w3.org/2000/svg">
<g id="Assurance/convention" clip-path="url(#clip0_23890_21796)">
<path id="Vector" fill-rule="evenodd" clip-rule="evenodd" d="M9.12317 0.989258C4.63121 0.989258 0.989746 4.63072 0.989746 9.12268C0.989746 9.6588 1.42436 10.0934 1.96048 10.0934H8.90641V15.833C8.90641 16.3796 8.4634 16.8226 7.91683 16.8226C7.37029 16.8226 6.92725 16.3796 6.92725 15.833V15.0413C6.92725 14.7134 6.66141 14.4476 6.3335 14.4476C6.00558 14.4476 5.73975 14.7134 5.73975 15.0413V15.833C5.73975 17.0354 6.71446 18.0101 7.91683 18.0101C9.11921 18.0101 10.0939 17.0354 10.0939 15.833V10.0934H17.0398C17.576 10.0934 18.0106 9.6588 18.0106 9.12268C18.0106 4.63072 14.3691 0.989258 9.87715 0.989258H9.12317ZM7.00155 2.50675C4.26862 3.38244 2.27257 5.90456 2.18056 8.90592H5.07905C5.2184 7.76411 5.4955 6.0593 6.0217 4.5419C6.27415 3.81389 6.59343 3.10043 7.00155 2.50675ZM6.27578 8.90592C6.41515 7.81195 6.67663 6.27773 7.14365 4.93097C7.42961 4.10632 7.7786 3.39427 8.19225 2.89854C8.59901 2.411 9.02722 2.17676 9.50016 2.17676C9.9731 2.17676 10.4013 2.411 10.8081 2.89854C11.2217 3.39427 11.5707 4.10632 11.8567 4.93097C12.3237 6.27773 12.5852 7.81195 12.7245 8.90592H6.27578ZM13.9213 8.90592C13.782 7.76411 13.5048 6.0593 12.9787 4.5419C12.7262 3.81389 12.4069 3.10043 11.9988 2.50676C14.7317 3.38245 16.7278 5.90457 16.8198 8.90592H13.9213Z" fill="#0696D6"/>
</g>
<defs>
<clipPath id="clip0_23890_21796">
<rect width="19" height="19" fill="white"/>
</clipPath>
</defs>
</svg>
