<svg width="15" height="16" viewBox="0 0 15 16" fill="none" xmlns="http://www.w3.org/2000/svg">
<path fill-rule="evenodd" clip-rule="evenodd" d="M9.7573 2.6C8.75406 0.8 6.24594 0.8 5.2427 2.6L0.728094 10.7C-0.275151 12.5 0.978905 14.75 2.9854 14.75H12.0146C14.0211 14.75 15.2752 12.5 14.2719 10.7L9.7573 2.6ZM8.19376 9.67785L8.44076 5.10714H6.14176L6.38876 9.67785H8.19376ZM6.40776 12.1657C6.62942 12.365 6.92392 12.4646 7.29126 12.4646C7.65226 12.4646 7.94359 12.365 8.16526 12.1657C8.38692 11.9664 8.49776 11.7157 8.49776 11.4136C8.49776 11.105 8.38692 10.8511 8.16526 10.6518C7.94359 10.4461 7.65226 10.3432 7.29126 10.3432C6.92392 10.3432 6.62942 10.4461 6.40776 10.6518C6.18609 10.8511 6.07526 11.105 6.07526 11.4136C6.07526 11.7157 6.18609 11.9664 6.40776 12.1657Z" fill="#E83B68"/>
</svg>
