<svg width="18" height="17" viewBox="0 0 18 17" fill="none" xmlns="http://www.w3.org/2000/svg">
<path fill-rule="evenodd" clip-rule="evenodd" d="M4.07663 7.36711C4.07663 5.44212 4.07663 3.5482 4.07663 1.63873C3.66563 1.63873 3.25995 1.63873 2.82592 1.63873C2.82592 1.71057 2.82592 1.77966 2.82592 1.84878C2.82596 2.92732 2.82596 4.00586 2.826 5.0844C2.826 5.13801 2.82631 5.19165 2.82604 5.24529C2.82481 5.48682 2.71142 5.63036 2.52462 5.62693C2.34375 5.6236 2.2346 5.48464 2.23375 5.25384C2.23287 4.99765 2.23349 4.74139 2.23349 4.48516C2.23349 3.59733 2.23322 2.70947 2.23372 1.82161C2.23395 1.3628 2.54369 1.0741 3.03549 1.07331C3.3307 1.07285 3.626 1.07002 3.9211 1.07485C4.02929 1.07664 4.08672 1.05315 4.13413 0.947973C4.26786 0.651303 4.51582 0.499821 4.87112 0.5C8.24686 0.501502 11.6226 0.500823 14.9983 0.501073C15.4457 0.501109 15.7665 0.802428 15.7667 1.22476C15.7673 3.19714 15.7689 5.16951 15.7634 7.14186C15.7629 7.30389 15.7883 7.38728 15.9832 7.44117C16.5938 7.61003 16.9987 8.14297 16.999 8.73335C17 10.7831 17.0005 12.8329 16.9991 14.8826C16.9985 15.7687 16.2133 16.499 15.2596 16.4993C11.0881 16.5003 6.9165 16.5003 2.74497 16.499C1.78775 16.4987 1.00262 15.7729 1.00162 14.8866C0.999344 12.8308 0.999498 10.775 1.00189 8.71922C1.00273 7.97916 1.66446 7.37065 2.46423 7.36743C2.9263 7.36557 3.3884 7.36704 3.85047 7.36704C3.91956 7.36711 3.98854 7.36711 4.07663 7.36711ZM8.98242 15.9495C11.1001 15.9495 13.2178 15.9505 15.3355 15.9489C15.9465 15.9484 16.4039 15.5465 16.405 14.9968C16.4092 12.8757 16.4083 10.7545 16.4056 8.6334C16.4051 8.21943 16.0849 7.92555 15.6413 7.91811C15.4039 7.91414 15.1663 7.91368 14.929 7.91811C14.7301 7.92183 14.6059 7.84877 14.5436 7.66532C14.3857 7.20057 14.2134 6.74009 14.0534 6.27591C13.9151 5.87457 13.5767 5.63018 13.1241 5.62954C11.6289 5.62736 10.1336 5.62718 8.63844 5.62958C8.18527 5.63033 7.8498 5.87582 7.71858 6.28296C7.57735 6.72124 7.43349 7.15881 7.28879 7.59612C7.19605 7.87641 7.13223 7.91722 6.80404 7.91722C5.36018 7.91718 3.91633 7.91679 2.47247 7.91718C1.88612 7.91736 1.59375 8.18589 1.59363 8.72516C1.59321 10.7807 1.59313 12.8364 1.59386 14.892C1.59409 15.5647 2.01399 15.9494 2.74485 15.9495C4.82409 15.9496 6.90325 15.9496 8.98242 15.9495ZM15.1629 1.06259C11.6596 1.06259 8.17853 1.06259 4.6889 1.06259C4.6889 3.16674 4.6889 5.25927 4.6889 7.35903C4.75939 7.36211 4.81604 7.36683 4.8727 7.36675C5.46298 7.36586 6.05334 7.3674 6.64343 7.35706C6.69389 7.35617 6.76891 7.2834 6.78802 7.23026C6.90557 6.90301 7.01514 6.57308 7.1184 6.24162C7.34371 5.51825 7.97093 5.07528 8.78156 5.075C10.1804 5.07453 11.5794 5.08845 12.9778 5.06896C13.6954 5.05898 14.4416 5.51081 14.6536 6.22817C14.7536 6.56622 14.8851 6.89636 15.0078 7.22829C15.027 7.28011 15.0758 7.32248 15.1109 7.36922C15.1282 7.3601 15.1456 7.35102 15.1629 7.3419C15.1629 5.25344 15.1629 3.16495 15.1629 1.06259Z" fill="#1B2746" stroke="#1B2746" stroke-width="0.5"/>
<path fill-rule="evenodd" clip-rule="evenodd" d="M9.90534 3.34107C8.72481 3.34107 7.54428 3.3411 6.36379 3.34103C6.31888 3.34103 6.27359 3.34372 6.22914 3.33939C6.05929 3.3229 5.93019 3.20089 5.93265 3.06206C5.93512 2.92124 6.06376 2.80183 6.23708 2.79275C6.3906 2.78471 6.54489 2.78764 6.69887 2.7876C8.95729 2.78735 11.2157 2.78742 13.4742 2.78742C13.4998 2.78742 13.5255 2.7871 13.5511 2.7876C13.7788 2.79171 13.9231 2.90193 13.9202 3.06943C13.9175 3.23586 13.7735 3.34364 13.5432 3.34386C12.3306 3.34486 11.1179 3.34436 9.90537 3.34436C9.90534 3.34325 9.90534 3.34218 9.90534 3.34107Z" fill="#1B2746" stroke="#1B2746" stroke-width="0.5"/>
</svg>
