<svg width="18" height="20" viewBox="0 0 18 20" fill="none" xmlns="http://www.w3.org/2000/svg">
<path fill-rule="evenodd" clip-rule="evenodd" d="M5.2955 13.1456L5.29585 13.6114L5.2955 14.9167C5.29339 15.6568 5.42412 16.3734 5.74955 17.043C6.79681 19.1955 8.89098 20.2838 11.293 19.9363C13.5355 19.6129 15.4251 17.5426 15.5147 15.321C15.5443 14.5947 15.5393 13.8677 15.5344 13.1408C15.5327 12.8748 15.5309 12.6087 15.5309 12.3427C15.5309 12.1437 15.5836 12.0649 15.7878 12.0124C17.1057 11.6738 17.999 10.4389 17.8851 9.13773C17.7593 7.70525 16.568 6.61137 15.098 6.57889C13.7232 6.54918 12.4668 7.59469 12.2746 8.92835C12.0676 10.3622 12.944 11.6613 14.3719 12.0234C14.5283 12.0642 14.5887 12.1174 14.5873 12.2832C14.5835 12.6937 14.5845 13.1035 14.5852 13.5139C14.5863 14.0066 14.5873 14.4993 14.5803 14.9913C14.5469 17.2627 12.8073 19.0013 10.5009 19.0801C8.44783 19.1506 6.54694 17.5979 6.3041 15.5994C6.205 14.784 6.21871 13.9638 6.23276 13.1429C6.24014 12.6909 6.24787 12.239 6.23663 11.7878C6.23417 11.6869 6.28021 11.6392 6.37896 11.6226C7.56644 11.4222 8.45978 10.7443 9.25366 9.90476C9.38756 9.76379 9.50423 9.61177 9.50072 9.40999C9.49826 9.27593 9.55554 9.17642 9.62899 9.07415C10.3185 8.11433 10.8305 7.06951 11.1619 5.94108C11.4859 4.84029 11.6321 3.72499 11.4065 2.5855C11.2744 1.91798 10.9444 1.37829 10.3227 1.039C9.81244 0.761212 9.2505 0.635446 8.69067 0.504153C8.503 0.459237 8.34416 0.403265 8.20851 0.240184C7.96672 -0.050734 7.54184 -0.0673185 7.23785 0.160717C6.93562 0.387371 6.85725 0.81442 7.05898 1.13298C7.2614 1.45154 7.65149 1.56348 7.99659 1.39764C8.08058 1.35756 8.15544 1.32577 8.25595 1.34996C8.72581 1.46398 9.19849 1.56279 9.64902 1.74384C10.0735 1.91383 10.3459 2.20958 10.4633 2.64423C10.5192 2.85154 10.5473 3.06299 10.5561 3.27652C10.6401 5.23901 9.94246 6.95688 8.8467 8.54898C8.80348 8.61186 8.75885 8.66093 8.67415 8.67613C8.4661 8.71275 8.31639 8.84266 8.18145 8.99261C7.91014 9.29597 7.60721 9.56547 7.26456 9.78867C6.61934 10.2081 5.92878 10.4168 5.15387 10.1984C4.42992 9.99459 3.87115 9.54819 3.37141 9.01818C3.23893 8.87791 3.10749 8.73694 2.90999 8.69755C2.79085 8.67267 2.7283 8.60219 2.66293 8.51236C2.0279 7.63407 1.5735 6.67079 1.26775 5.63911C0.991175 4.70692 0.880123 3.75816 1.04002 2.79211C1.12612 2.27247 1.42027 1.91659 1.92739 1.7238C2.36527 1.55657 2.82213 1.46398 3.27407 1.34927C3.37387 1.32439 3.44873 1.35618 3.53342 1.39764C3.87818 1.56625 4.26475 1.45638 4.47385 1.13782C4.67311 0.83446 4.61934 0.443344 4.34488 0.198032C4.0669 -0.0514251 3.61952 -0.0804478 3.37212 0.198723C3.17461 0.422613 2.93388 0.470293 2.67945 0.53594C2.41341 0.604351 2.14562 0.667233 1.88381 0.749464C1.16619 0.975427 0.56243 1.34028 0.277068 2.07553C-0.0286766 2.86398 -0.0490596 3.68145 0.0609382 4.50169C0.286908 6.18432 0.920889 7.71285 1.9179 9.09696L1.94988 9.13842C1.98889 9.18679 2.03 9.23862 2.02684 9.28491C2.00048 9.64701 2.22645 9.86468 2.45031 10.0817L2.52376 10.1528C3.25474 10.877 4.08271 11.4395 5.13032 11.6178C5.29269 11.6447 5.29796 11.7387 5.2969 11.8631C5.29515 12.2901 5.2955 12.7179 5.2955 13.1456ZM16.9317 9.33536C16.9426 10.3581 16.1118 11.1887 15.0723 11.1935C14.038 11.1983 13.1886 10.3684 13.1883 9.35263C13.1876 8.34237 14.0423 7.49933 15.0674 7.50002C16.0862 7.50002 16.9208 8.32164 16.9317 9.33536Z" fill="#7C878E"/>
</svg>
