<svg width="16" height="16" viewBox="0 0 16 16" fill="none" xmlns="http://www.w3.org/2000/svg">
<path d="M5.99992 11.8335C5.93325 11.8335 5.87325 11.8202 5.80659 11.7935C5.61992 11.7202 5.49992 11.5335 5.49992 11.3335V7.3335C5.49992 7.06016 5.72659 6.8335 5.99992 6.8335C6.27325 6.8335 6.49992 7.06016 6.49992 7.3335V10.1268L6.97992 9.64683C7.17325 9.4535 7.49325 9.4535 7.68659 9.64683C7.87992 9.84016 7.87992 10.1602 7.68659 10.3535L6.35325 11.6868C6.25992 11.7802 6.12659 11.8335 5.99992 11.8335Z" fill="#576A7A"/>
<path d="M5.99992 11.8335C5.87325 11.8335 5.74659 11.7868 5.64659 11.6868L4.31325 10.3535C4.11992 10.1602 4.11992 9.84016 4.31325 9.64683C4.50659 9.4535 4.82659 9.4535 5.01992 9.64683L6.35325 10.9802C6.54659 11.1735 6.54659 11.4935 6.35325 11.6868C6.25325 11.7868 6.12659 11.8335 5.99992 11.8335Z" fill="#576A7A"/>
<path d="M9.99992 15.1668H5.99992C2.37992 15.1668 0.833252 13.6202 0.833252 10.0002V6.00016C0.833252 2.38016 2.37992 0.833496 5.99992 0.833496H9.33325C9.60659 0.833496 9.83325 1.06016 9.83325 1.3335C9.83325 1.60683 9.60659 1.8335 9.33325 1.8335H5.99992C2.92659 1.8335 1.83325 2.92683 1.83325 6.00016V10.0002C1.83325 13.0735 2.92659 14.1668 5.99992 14.1668H9.99992C13.0733 14.1668 14.1666 13.0735 14.1666 10.0002V6.66683C14.1666 6.3935 14.3933 6.16683 14.6666 6.16683C14.9399 6.16683 15.1666 6.3935 15.1666 6.66683V10.0002C15.1666 13.6202 13.6199 15.1668 9.99992 15.1668Z" fill="#576A7A"/>
<path d="M14.6666 7.16683H11.9999C9.71992 7.16683 8.83325 6.28016 8.83325 4.00016V1.3335C8.83325 1.1335 8.95325 0.946829 9.13992 0.873496C9.32659 0.793496 9.53992 0.840163 9.68659 0.980163L15.0199 6.3135C15.1599 6.4535 15.2066 6.6735 15.1266 6.86016C15.0466 7.04683 14.8666 7.16683 14.6666 7.16683ZM9.83325 2.54016V4.00016C9.83325 5.72016 10.2799 6.16683 11.9999 6.16683H13.4599L9.83325 2.54016Z" fill="#576A7A"/>
</svg>
