<svg width="20" height="20" viewBox="0 0 20 20" fill="none" xmlns="http://www.w3.org/2000/svg">
<g clip-path="url(#clip0_20707_14924)">
<path d="M7.5 4.375C7.15483 4.375 6.875 4.65483 6.875 5C6.875 5.34517 7.15483 5.625 7.5 5.625H12.5C12.8452 5.625 13.125 5.34517 13.125 5C13.125 4.65483 12.8452 4.375 12.5 4.375H7.5Z" fill="white"/>
<path fill-rule="evenodd" clip-rule="evenodd" d="M9.95208 1.04163C8.22495 1.04162 6.8643 1.0416 5.80107 1.1861C4.70935 1.33447 3.83841 1.64553 3.15403 2.33733C2.47058 3.02818 2.1641 3.90581 2.01775 5.00613C1.87498 6.07955 1.87499 7.45381 1.875 9.20088V13.4491C1.87499 14.7055 1.87498 15.7001 1.95501 16.449C2.03409 17.189 2.20373 17.8566 2.6882 18.3031C3.07688 18.6614 3.56843 18.8871 4.09304 18.9472C4.74927 19.0223 5.36199 18.709 5.96557 18.2814C6.57636 17.8487 7.31729 17.1934 8.25212 16.3665L8.28254 16.3396C8.71592 15.9563 9.00933 15.6976 9.25417 15.5186C9.49075 15.3456 9.63525 15.283 9.757 15.2585C9.91742 15.2262 10.0826 15.2262 10.243 15.2585C10.3647 15.283 10.5093 15.3456 10.7458 15.5186C10.9907 15.6976 11.2841 15.9563 11.7175 16.3396L11.7479 16.3666C12.6827 17.1934 13.4237 17.8488 14.0344 18.2814C14.638 18.709 15.2508 19.0223 15.9069 18.9472C16.4316 18.8871 16.9231 18.6614 17.3118 18.3031C17.7963 17.8566 17.9659 17.189 18.045 16.449C18.125 15.7001 18.125 14.7055 18.125 13.4491V9.20079C18.125 7.45381 18.125 6.07954 17.9822 5.00613C17.8359 3.90581 17.5294 3.02818 16.846 2.33733C16.1616 1.64553 15.2907 1.33447 14.1989 1.1861C13.1357 1.0416 11.7751 1.04162 10.0479 1.04163H9.95208ZM4.04267 3.21643C4.45664 2.79798 5.01876 2.55391 5.9694 2.42472C6.93871 2.29298 8.21438 2.29163 10 2.29163C11.7856 2.29163 13.0613 2.29298 14.0306 2.42472C14.9812 2.55391 15.5433 2.79798 15.9573 3.21643C16.3722 3.63582 16.6149 4.20678 16.7432 5.17094C16.8737 6.15239 16.875 7.44348 16.875 9.24788V13.409C16.875 14.7143 16.8742 15.6418 16.8021 16.3161C16.7282 17.0073 16.592 17.2666 16.4647 17.384C16.2698 17.5635 16.0248 17.6755 15.7648 17.7053C15.5985 17.7243 15.3196 17.66 14.7569 17.2614C14.2081 16.8726 13.5176 16.263 12.5456 15.4033L12.5238 15.384C12.1177 15.0249 11.781 14.727 11.4837 14.5096C11.1728 14.2823 10.8593 14.1076 10.4898 14.0331C10.1665 13.968 9.8335 13.968 9.51017 14.0331C9.14067 14.1076 8.82717 14.2823 8.51633 14.5096C8.21902 14.727 7.88226 15.0249 7.47622 15.384L7.45439 15.4033C6.48239 16.263 5.79188 16.8726 5.24304 17.2614C4.68038 17.66 4.40152 17.7243 4.23515 17.7053C3.97516 17.6755 3.73014 17.5635 3.53531 17.384C3.40803 17.2666 3.27178 17.0073 3.19793 16.3161C3.12587 15.6418 3.125 14.7143 3.125 13.409V9.24788C3.125 7.44348 3.1263 6.15239 3.25684 5.17094C3.38508 4.20678 3.62778 3.63582 4.04267 3.21643Z" fill="white"/>
</g>
<defs>
<clipPath id="clip0_20707_14924">
<rect width="20" height="20" fill="white"/>
</clipPath>
</defs>
</svg>
