<svg width="13" height="13" viewBox="0 0 13 13" fill="none" xmlns="http://www.w3.org/2000/svg">
<path fill-rule="evenodd" clip-rule="evenodd" d="M2.1665 2.70833C2.02284 2.70833 1.88507 2.7654 1.78349 2.86698C1.68191 2.96857 1.62484 3.10634 1.62484 3.25V10.8333C1.62484 10.977 1.68191 11.1148 1.78349 11.2163C1.88507 11.3179 2.02285 11.375 2.1665 11.375H9.74984C9.8935 11.375 10.0313 11.3179 10.1329 11.2163C10.2344 11.1148 10.2915 10.977 10.2915 10.8333V7.94083C10.2915 7.64168 10.534 7.39917 10.8332 7.39917C11.1323 7.39917 11.3748 7.64168 11.3748 7.94083V10.8333C11.3748 11.2643 11.2036 11.6776 10.8989 11.9824C10.5941 12.2871 10.1808 12.4583 9.74984 12.4583H2.1665C1.73553 12.4583 1.3222 12.2871 1.01746 11.9824C0.712709 11.6776 0.541504 11.2643 0.541504 10.8333V3.25C0.541504 2.81902 0.712709 2.4057 1.01746 2.10095C1.3222 1.7962 1.73553 1.625 2.1665 1.625H5.059C5.35816 1.625 5.60067 1.86751 5.60067 2.16667C5.60067 2.46582 5.35816 2.70833 5.059 2.70833H2.1665Z" fill="#C9C8C8"/>
<path fill-rule="evenodd" clip-rule="evenodd" d="M9.36682 0.700276C9.57836 0.488742 9.92132 0.488742 10.1329 0.700276L12.2995 2.86694C12.5111 3.07848 12.5111 3.42144 12.2995 3.63297L6.88285 9.04964C6.78127 9.15122 6.6435 9.20829 6.49984 9.20829H4.33317C4.03402 9.20829 3.7915 8.96578 3.7915 8.66662V6.49996C3.7915 6.3563 3.84857 6.21852 3.95015 6.11694L9.36682 0.700276ZM4.87484 6.72432V8.12496H6.27547L11.1505 3.24996L9.74984 1.84932L4.87484 6.72432Z" fill="#C9C8C8"/>
</svg>
