<svg width="15" height="15" viewBox="0 0 15 15" fill="none" xmlns="http://www.w3.org/2000/svg">
<path fill-rule="evenodd" clip-rule="evenodd" d="M2.49994 3.125C2.33418 3.125 2.17521 3.19085 2.058 3.30806C1.94079 3.42527 1.87494 3.58424 1.87494 3.75V12.5C1.87494 12.6658 1.94079 12.8247 2.058 12.9419C2.17521 13.0592 2.33418 13.125 2.49994 13.125H11.2499C11.4157 13.125 11.5747 13.0592 11.6919 12.9419C11.8091 12.8247 11.8749 12.6658 11.8749 12.5V9.1625C11.8749 8.81732 12.1548 8.5375 12.4999 8.5375C12.8451 8.5375 13.1249 8.81732 13.1249 9.1625V12.5C13.1249 12.9973 12.9274 13.4742 12.5758 13.8258C12.2241 14.1775 11.7472 14.375 11.2499 14.375H2.49994C2.00266 14.375 1.52574 14.1775 1.17411 13.8258C0.822483 13.4742 0.624939 12.9973 0.624939 12.5V3.75C0.624939 3.25272 0.822483 2.77581 1.17411 2.42417C1.52574 2.07254 2.00266 1.875 2.49994 1.875H5.83744C6.18262 1.875 6.46244 2.15482 6.46244 2.5C6.46244 2.84518 6.18262 3.125 5.83744 3.125H2.49994Z" fill="#0696D6"/>
<path fill-rule="evenodd" clip-rule="evenodd" d="M10.808 0.808058C11.0521 0.563981 11.4478 0.563981 11.6919 0.808058L14.1919 3.30806C14.436 3.55214 14.436 3.94786 14.1919 4.19194L7.94188 10.4419C7.82467 10.5591 7.6657 10.625 7.49994 10.625H4.99994C4.65476 10.625 4.37494 10.3452 4.37494 10V7.5C4.37494 7.33424 4.44079 7.17527 4.558 7.05806L10.808 0.808058ZM5.62494 7.75888V9.375H7.24106L12.8661 3.75L11.2499 2.13388L5.62494 7.75888Z" fill="#0696D6"/>
</svg>
