<svg width="40" height="40" viewBox="0 0 40 40" fill="none" xmlns="http://www.w3.org/2000/svg">
<g clip-path="url(#clip0_22085_409418)">
<path d="M34.5801 15.59C34.5751 14.695 34.5451 14.04 34.4301 13.455C33.8051 10.315 31.3501 7.86 28.2101 7.235C27.4451 7.08 26.5551 7.08 25.1601 7.085H14.8401C13.4451 7.085 12.5551 7.085 11.7901 7.235C11.6251 7.265 11.4651 7.305 11.3101 7.345L13.5551 9.59C13.9301 9.585 14.3951 9.585 15.0051 9.585H25.0051C26.6151 9.585 27.2351 9.59 27.7301 9.69C29.8801 10.115 31.5601 11.795 31.9851 13.945C32.0551 14.31 32.0801 14.745 32.0851 15.59C30.1601 16.135 28.7501 17.905 28.7501 20V22C28.7501 22.045 28.7101 22.085 28.6651 22.085H26.0401L28.5401 24.585H28.6651C30.0901 24.585 31.2501 23.43 31.2501 22V20C31.2501 18.85 32.1851 17.915 33.3351 17.915C34.4851 17.915 35.4201 18.85 35.4201 20V24.075C35.4201 26.07 34.1701 27.775 32.4101 28.445L34.5901 30.625V30.135C36.5951 28.86 37.9251 26.625 37.9251 24.075V20C37.9151 17.9 36.5051 16.13 34.5801 15.59ZM24.7901 28.75H9.26008C6.67508 28.75 4.58508 26.655 4.58508 24.075V20C4.58508 18.85 5.52008 17.915 6.67008 17.915C7.82008 17.915 8.75508 18.85 8.75508 20V22C8.75508 23.425 9.91008 24.585 11.3401 24.585H20.6301L18.1301 22.085H11.3351C11.2901 22.085 11.2501 22.045 11.2501 22V20C11.2501 17.905 9.84008 16.135 7.92008 15.59C7.92508 14.74 7.95008 14.305 8.02008 13.945C8.12008 13.43 8.29508 12.945 8.53008 12.495L6.70508 10.67C6.16008 11.5 5.77008 12.445 5.56508 13.46C5.45008 14.045 5.42008 14.7 5.41508 15.595C3.49508 16.13 2.08508 17.9 2.08508 20V24.075C2.08508 26.625 3.41508 28.865 5.42008 30.135V31.665C5.42008 32.355 5.98008 32.915 6.67008 32.915C7.36008 32.915 7.92008 32.355 7.92008 31.665V31.125C8.35508 31.21 8.80508 31.25 9.26508 31.25H27.2951L24.7901 28.75ZM37.3251 38.7C36.9751 38.7 36.6201 38.565 36.3551 38.295L1.70008 3.645C1.16508 3.11 1.16508 2.24 1.70008 1.7C2.23508 1.165 3.11008 1.165 3.64508 1.7L38.3001 36.355C38.8351 36.89 38.8351 37.765 38.3001 38.3C38.0301 38.565 37.6801 38.7 37.3251 38.7Z" fill="#1C274C"/>
</g>
<defs>
<clipPath id="clip0_22085_409418">
<rect width="40" height="40" fill="white"/>
</clipPath>
</defs>
</svg>
