<svg width="40" height="40" viewBox="0 0 40 40" fill="none" xmlns="http://www.w3.org/2000/svg">
    <path fill-rule="evenodd" clip-rule="evenodd"
          d="M20.4166 4.72369C19.6493 4.59329 18.6033 4.5834 16.7163 4.5834C13.5218 4.5834 11.2512 4.58604 9.52967 4.81644C7.84319 5.04215 6.87414 5.46554 6.16975 6.1699C5.4644 6.87525 5.04162 7.84134 4.81619 9.51815C4.5859 11.2309 4.58325 13.4887 4.58325 16.6668V23.3335C4.58325 26.5115 4.5859 28.7692 4.81619 30.482C5.04162 32.1588 5.4644 33.1248 6.16975 33.8302C6.8751 34.5357 7.84119 34.9583 9.518 35.1838C11.2308 35.4142 13.4886 35.4168 16.6666 35.4168H23.3333C26.5113 35.4168 28.7691 35.4142 30.4819 35.1838C32.1586 34.9583 33.1248 34.5357 33.8301 33.8302C34.5354 33.1248 34.9583 32.1588 35.1836 30.482C35.4139 28.7692 35.4166 26.5115 35.4166 23.3335V22.6048C35.4166 20.0448 35.3986 18.8313 35.1269 17.9168H29.9104C28.0224 17.9168 26.4794 17.9168 25.2614 17.753C23.9881 17.5818 22.8843 17.2113 22.0031 16.3302C21.1219 15.4491 20.7514 14.3452 20.5803 13.0719C20.4166 11.8538 20.4166 10.3109 20.4166 8.42289V4.72369ZM22.9166 6.01582V8.3334C22.9166 10.3329 22.9193 11.7068 23.0579 12.7388C23.1919 13.7348 23.4316 14.2232 23.7709 14.5625C24.1101 14.9017 24.5984 15.1414 25.5946 15.2753C26.6266 15.4141 28.0004 15.4167 29.9999 15.4167H33.3658C32.8716 14.9375 32.2386 14.3633 31.4166 13.6234L24.8186 7.68527C24.0096 6.9572 23.4076 6.41977 22.9166 6.01582ZM16.9591 2.08335C19.2668 2.08274 20.7576 2.08235 22.1298 2.6089C23.5019 3.13547 24.6053 4.1289 26.3121 5.6659C26.3709 5.71897 26.4306 5.77267 26.4911 5.82704L33.0889 11.7652C33.1593 11.8284 33.2286 11.8908 33.2971 11.9525C35.2699 13.7269 36.5456 14.8743 37.2318 16.415C37.9179 17.9557 37.9174 19.6715 37.9166 22.3248C37.9166 22.417 37.9166 22.5103 37.9166 22.6048V23.4275C37.9166 26.4903 37.9166 28.9165 37.6614 30.8152C37.3986 32.7692 36.8451 34.3507 35.5979 35.598C34.3506 36.8453 32.7689 37.3988 30.8149 37.6615C28.9163 37.9168 26.4903 37.9168 23.4273 37.9168H16.5726C13.5096 37.9168 11.0836 37.9168 9.18489 37.6615C7.23085 37.3988 5.64927 36.8453 4.40199 35.598C3.15472 34.3507 2.60119 32.7692 2.33849 30.8152C2.0832 28.9165 2.08322 26.4903 2.08325 23.4275V16.5727C2.08322 13.5098 2.0832 11.0837 2.33849 9.18504C2.60119 7.231 3.15472 5.64942 4.40199 4.40214C5.65024 3.1539 7.23712 2.60097 9.19804 2.33854C11.1046 2.08335 13.5428 2.08337 16.6225 2.0834H16.7163C16.7981 2.0834 16.8791 2.08339 16.9591 2.08335Z"
          fill="#1C274C"/>
    <path fill-rule="evenodd" clip-rule="evenodd"
          d="M13.4897 21.9799C14.1433 21.9799 14.6731 22.5097 14.6731 23.1632L14.673 25.3269L16.8367 25.3269C17.4903 25.3269 18.0201 25.8567 18.0201 26.5102C18.02 27.1638 17.4902 27.6936 16.8367 27.6936L14.673 27.6936L14.6731 29.8572C14.6731 30.5107 14.1432 31.0406 13.4897 31.0406C12.8362 31.0406 12.3063 30.5108 12.3064 29.8572L12.3064 27.6936L10.1427 27.6936C9.48917 27.6936 8.95937 27.1638 8.95938 26.5103C8.95939 25.8567 9.48922 25.3269 10.1428 25.3269L12.3063 25.327L12.3064 23.1633C12.3064 22.5097 12.8362 21.9799 13.4897 21.9799Z"
          fill="#1C274C"/>
</svg>
