<svg width="41" height="40" viewBox="0 0 41 40" fill="none" xmlns="http://www.w3.org/2000/svg">
    <g clip-path="url(#clip0_20933_96795)">
        <path d="M20.548 28.9585L20.4523 28.9585C18.5287 28.9585 17.0212 28.9585 15.8449 28.8004C14.641 28.6385 13.6909 28.3007 12.9452 27.555C12.1996 26.8094 11.8618 25.8594 11.6999 24.6554C11.5418 23.4792 11.5418 21.9716 11.5418 20.048L11.5418 19.9523C11.5418 18.0287 11.5418 16.5212 11.6999 15.3449C11.8618 14.141 12.1996 13.1909 12.9453 12.4452C13.6356 11.7549 14.5018 11.4137 15.584 11.2385C16.648 11.0662 17.9864 11.0453 19.6657 11.0423C20.0108 11.0417 20.2912 11.321 20.2918 11.6662C20.2924 12.0113 20.0132 12.2917 19.6679 12.2923C17.968 12.2954 16.7321 12.3189 15.7838 12.4724C14.8538 12.623 14.2697 12.8887 13.8292 13.3292C13.3544 13.8039 13.082 14.4462 12.9388 15.5115C12.7932 16.5948 12.7918 18.0183 12.7918 20.0002C12.7918 21.982 12.7932 23.4055 12.9388 24.4888C13.082 25.5542 13.3544 26.1965 13.8292 26.6712C14.3038 27.1459 14.9462 27.4183 16.0115 27.5615C17.0948 27.7072 18.5183 27.7085 20.5002 27.7085C22.482 27.7085 23.9055 27.7072 24.9888 27.5615C26.0542 27.4183 26.6964 27.1459 27.1712 26.6712C27.6117 26.2307 27.8773 25.6466 28.0279 24.7166C28.1814 23.7683 28.2049 22.5323 28.208 20.8323C28.2086 20.4872 28.489 20.2079 28.8341 20.2085C29.1793 20.2091 29.4586 20.4894 29.458 20.8347C29.455 22.5139 29.434 23.8523 29.2618 24.9163C29.0866 25.9986 28.7454 26.8647 28.055 27.555C27.3094 28.3007 26.3593 28.6385 25.1554 28.8004C23.9792 28.9585 22.4716 28.9585 20.548 28.9585Z"
              fill="#1B2746"/>
        <path d="M20.0834 24.1665C20.0834 24.5117 19.8035 24.7915 19.4584 24.7915L16.3334 24.7915C15.9882 24.7915 15.7084 24.5117 15.7084 24.1665L15.7084 21.0415C15.7084 20.6963 15.9882 20.4165 16.3334 20.4165C16.6785 20.4165 16.9584 20.6963 16.9584 21.0415L16.9584 22.6576L20.0581 19.5579C20.3022 19.3138 20.6979 19.3138 20.9419 19.5579C21.186 19.802 21.186 20.1977 20.9419 20.4418L17.8423 23.5415L19.4584 23.5415C19.8035 23.5415 20.0834 23.8213 20.0834 24.1665Z"
              fill="#1B2746"/>
        <path fill-rule="evenodd" clip-rule="evenodd"
              d="M25.5435 18.9585C26.2922 18.9585 26.9166 18.9586 27.4122 18.8919C27.9354 18.8216 28.4077 18.6668 28.7873 18.2872C29.1668 17.9077 29.3216 17.4354 29.3919 16.9122C29.4585 16.4166 29.4585 15.7922 29.4585 15.0435L29.4585 14.9568C29.4585 14.2081 29.4585 13.5837 29.3919 13.0881C29.3216 12.5649 29.1668 12.0926 28.7873 11.7131C28.4077 11.3335 27.9354 11.1787 27.4122 11.1084C26.9166 11.0417 26.2922 11.0418 25.5435 11.0418L25.4568 11.0418C24.7081 11.0418 24.0837 11.0417 23.5881 11.1084C23.0649 11.1787 22.5926 11.3335 22.213 11.7131C21.8335 12.0926 21.6787 12.5649 21.6084 13.0881C21.5417 13.5837 21.5418 14.2081 21.5418 14.9568L21.5418 15.0435C21.5418 15.7922 21.5417 16.4166 21.6084 16.9122C21.6787 17.4354 21.8335 17.9077 22.213 18.2872C22.5926 18.6668 23.0649 18.8216 23.5881 18.8919C24.0837 18.9586 24.7081 18.9585 25.4568 18.9585L25.5435 18.9585ZM27.9034 17.4034C27.7948 17.512 27.6302 17.6013 27.2457 17.6531C26.8431 17.7072 26.3035 17.7085 25.5002 17.7085C24.6968 17.7085 24.1572 17.7072 23.7547 17.6531C23.3701 17.6013 23.2055 17.512 23.0969 17.4034C22.9883 17.2948 22.899 17.1302 22.8473 16.7457C22.7932 16.3432 22.7918 15.8035 22.7918 15.0002C22.7918 14.1968 22.7932 13.6572 22.8473 13.2547C22.899 12.8701 22.9883 12.7055 23.0969 12.5969C23.2055 12.4883 23.3701 12.399 23.7547 12.3472C24.1572 12.2932 24.6968 12.2918 25.5002 12.2918C26.3035 12.2918 26.8431 12.2932 27.2457 12.3472C27.6302 12.399 27.7948 12.4883 27.9034 12.5969C28.012 12.7055 28.1013 12.8701 28.153 13.2547C28.2072 13.6572 28.2085 14.1968 28.2085 15.0002C28.2085 15.8035 28.2072 16.3432 28.153 16.7457C28.1013 17.1302 28.012 17.2948 27.9034 17.4034Z"
              fill="#1B2746"/>
    </g>
    <defs>
        <clipPath id="clip0_20933_96795">
            <rect width="20" height="20" fill="white" transform="translate(10.5 10)"/>
        </clipPath>
    </defs>
</svg>
