<svg width="24" height="25" viewBox="0 0 24 25" fill="none" xmlns="http://www.w3.org/2000/svg">
<path fill-rule="evenodd" clip-rule="evenodd" d="M11.9619 5.33325H12.0384C13.5774 5.33325 14.7834 5.33324 15.7244 5.45975C16.6875 5.58925 17.4476 5.85947 18.0441 6.45601C18.6406 7.05255 18.9108 7.81257 19.0404 8.77573C19.1668 9.71671 19.1668 10.9227 19.1668 12.4617V12.5382C19.1668 14.0771 19.1668 15.2831 19.0404 16.2241C18.9108 17.1873 18.6406 17.9473 18.0441 18.5439C17.4476 19.1404 16.6875 19.4106 15.7244 19.5401C14.7834 19.6666 13.5774 19.6666 12.0384 19.6666H11.9619C10.423 19.6666 9.21696 19.6666 8.27597 19.5401C7.31281 19.4106 6.5528 19.1404 5.95626 18.5439C5.35972 17.9473 5.08949 17.1873 4.96 16.2241C4.83348 15.2831 4.83349 14.0771 4.8335 12.5382V12.4617C4.83349 10.9227 4.83348 9.71671 4.96 8.77573C5.08949 7.81257 5.35972 7.05255 5.95626 6.45601C6.5528 5.85947 7.31281 5.58925 8.27597 5.45975C9.21696 5.33324 10.423 5.33325 11.9619 5.33325ZM8.40922 6.45083C7.55694 6.56542 7.04313 6.78335 6.66336 7.16312C6.28359 7.54289 6.06566 8.0567 5.95108 8.90897C5.83456 9.77563 5.8335 10.9144 5.8335 12.4999C5.8335 14.0854 5.83456 15.2242 5.95108 16.0909C6.06566 16.9431 6.28359 17.4569 6.66336 17.8367C7.04313 18.2165 7.55694 18.4345 8.40922 18.549C9.27587 18.6655 10.4147 18.6666 12.0002 18.6666C13.5856 18.6666 14.7244 18.6655 15.5911 18.549C16.4434 18.4345 16.9572 18.2165 17.337 17.8367C17.7168 17.4569 17.9347 16.9431 18.0492 16.0909C18.1658 15.2242 18.1668 14.0854 18.1668 12.4999C18.1668 10.9144 18.1658 9.77563 18.0492 8.90897C17.9347 8.0567 17.7168 7.54289 17.337 7.16312C16.9572 6.78335 16.4434 6.56542 15.5911 6.45083C14.7244 6.33431 13.5856 6.33325 12.0002 6.33325C10.4147 6.33325 9.27587 6.33431 8.40922 6.45083ZM8.3335 8.99992C8.05736 8.99992 7.8335 9.22378 7.8335 9.49992V10.0853C7.98988 10.03 8.15818 9.99992 8.3335 9.99992H15.6668C15.8422 9.99992 16.0104 10.03 16.1668 10.0853V9.49992C16.1668 9.22378 15.943 8.99992 15.6668 8.99992H8.3335ZM17.1668 9.49992C17.1668 8.67149 16.4952 7.99992 15.6668 7.99992H8.3335C7.50507 7.99992 6.8335 8.67149 6.8335 9.49992V13.9999H6.66683C6.39069 13.9999 6.16683 14.2238 6.16683 14.4999C6.16683 14.7761 6.39069 14.9999 6.66683 14.9999H8.20114C8.78046 14.9999 8.93274 15.0085 9.06274 15.0615C9.0765 15.0671 9.0901 15.0731 9.10355 15.0794C9.23052 15.1392 9.33997 15.2455 9.7322 15.6718L9.75584 15.6975C9.77291 15.7161 9.78976 15.7344 9.80641 15.7525C10.0979 16.0699 10.3281 16.3206 10.6299 16.472C10.6861 16.5002 10.7437 16.5255 10.8025 16.5477C11.1182 16.6673 11.4586 16.667 11.8895 16.6667C11.9142 16.6666 11.939 16.6666 11.9643 16.6666C11.9881 16.6666 12.0116 16.6666 12.0348 16.6667C12.4424 16.667 12.7644 16.6673 13.066 16.5593C13.1222 16.5391 13.1774 16.5163 13.2313 16.4908C13.5209 16.3539 13.7484 16.1261 14.0364 15.8376C14.0528 15.8211 14.0694 15.8045 14.0862 15.7877L14.2394 15.6345C14.6536 15.2203 14.7684 15.1179 14.9002 15.0633C15.032 15.0088 15.1856 14.9999 15.7714 14.9999H17.3335C17.6096 14.9999 17.8335 14.7761 17.8335 14.4999C17.8335 14.2238 17.6096 13.9999 17.3335 13.9999H17.1668V9.49992ZM16.1668 11.4999C16.1668 11.2238 15.943 10.9999 15.6668 10.9999H8.3335C8.05736 10.9999 7.8335 11.2238 7.8335 11.4999V12.0853C7.98988 12.03 8.15818 11.9999 8.3335 11.9999H15.6668C15.8422 11.9999 16.0104 12.03 16.1668 12.0853V11.4999ZM16.1668 13.4999C16.1668 13.2238 15.943 12.9999 15.6668 12.9999H8.3335C8.05736 12.9999 7.8335 13.2238 7.8335 13.4999V13.9999H8.20114C8.22808 13.9999 8.2547 13.9999 8.281 13.9999C8.74135 13.9995 9.1054 13.9991 9.43994 14.1353C9.47022 14.1477 9.50016 14.1608 9.52973 14.1747C9.85651 14.3287 10.1027 14.5969 10.4141 14.9359C10.4319 14.9553 10.4499 14.9749 10.4681 14.9947L10.4918 15.0204C10.8586 15.4192 10.961 15.5193 11.0783 15.5781C11.1038 15.5909 11.13 15.6025 11.1567 15.6125C11.2794 15.6591 11.4224 15.6666 11.9643 15.6666C12.4764 15.6666 12.6116 15.6598 12.7288 15.6178C12.7544 15.6087 12.7794 15.5983 12.804 15.5867C12.9166 15.5335 13.017 15.4427 13.3791 15.0805L13.5322 14.9274C13.5514 14.9082 13.5704 14.8892 13.5892 14.8704C13.9182 14.5408 14.1786 14.2799 14.5175 14.1395C14.8565 13.9991 15.2251 13.9995 15.6908 13.9999C15.7174 13.9999 15.7442 13.9999 15.7714 13.9999H16.1668V13.4999Z" fill="#1B2746"/>
</svg>
