<svg width="7" height="12" viewBox="0 0 7 12" fill="none" xmlns="http://www.w3.org/2000/svg">
<path d="M0.850627 12C0.719121 12 0.587614 11.9516 0.483793 11.8477C0.283072 11.647 0.283072 11.3148 0.483793 11.1141L4.99655 6.6013C5.32878 6.26907 5.32878 5.7292 4.99655 5.39697L0.483793 0.884211C0.283072 0.68349 0.283072 0.351262 0.483793 0.150541C0.684514 -0.0501802 1.01674 -0.0501802 1.21746 0.150541L5.73022 4.6633C6.08322 5.01629 6.28394 5.49387 6.28394 5.99914C6.28394 6.5044 6.09014 6.98198 5.73022 7.33497L1.21746 11.8477C1.11364 11.9446 0.982134 12 0.850627 12Z" fill="#B4C5D7"/>
</svg>
