<svg width="15" height="15" viewBox="0 0 15 15" fill="none" xmlns="http://www.w3.org/2000/svg">
    <path d="M10.625 11.25C10.9702 11.25 11.25 10.9702 11.25 10.625C11.25 10.2798 10.9702 10 10.625 10C10.2798 10 10 10.2798 10 10.625C10 10.9702 10.2798 11.25 10.625 11.25Z"
          fill="white"/>
    <path d="M8.12497 8.125C8.12497 8.47019 7.84516 8.75 7.49997 8.75C7.15478 8.75 6.87497 8.47019 6.87497 8.125C6.87497 7.77981 7.15478 7.5 7.49997 7.5C7.84516 7.5 8.12497 7.77981 8.12497 8.125Z"
          fill="white"/>
    <path d="M8.12497 10.625C8.12497 10.9702 7.84516 11.25 7.49997 11.25C7.15478 11.25 6.87497 10.9702 6.87497 10.625C6.87497 10.2798 7.15478 10 7.49997 10C7.84516 10 8.12497 10.2798 8.12497 10.625Z"
          fill="white"/>
    <path d="M4.375 8.75C4.72018 8.75 5 8.47019 5 8.125C5 7.77981 4.72018 7.5 4.375 7.5C4.02983 7.5 3.75 7.77981 3.75 8.125C3.75 8.47019 4.02983 8.75 4.375 8.75Z"
          fill="white"/>
    <path fill-rule="evenodd" clip-rule="evenodd"
          d="M4.37497 1.09375C4.63385 1.09375 4.84372 1.30362 4.84372 1.5625V2.0392C5.25747 2.03124 5.7133 2.03124 6.21463 2.03125H8.78522C9.28659 2.03124 9.74247 2.03124 10.1562 2.0392V1.5625C10.1562 1.30362 10.3661 1.09375 10.625 1.09375C10.8838 1.09375 11.0937 1.30362 11.0937 1.5625V2.07943C11.2562 2.09182 11.41 2.10739 11.5556 2.12696C12.2883 2.22548 12.8815 2.43305 13.3492 2.90078C13.8169 3.36851 14.0245 3.96159 14.123 4.69436C14.2187 5.40636 14.2187 6.31612 14.2187 7.46469V8.78525C14.2187 9.93381 14.2187 10.8436 14.123 11.5556C14.0245 12.2884 13.8169 12.8815 13.3492 13.3493C12.8815 13.8169 12.2883 14.0245 11.5556 14.1231C10.8436 14.2188 9.93384 14.2188 8.78528 14.2188H6.21471C5.06613 14.2188 4.15633 14.2188 3.44433 14.1231C2.71157 14.0245 2.11848 13.8169 1.65074 13.3493C1.18302 12.8815 0.975445 12.2884 0.876932 11.5556C0.781201 10.8436 0.781207 9.93388 0.78122 8.78525V7.46475C0.781207 6.31612 0.781201 5.40637 0.876932 4.69436C0.975445 3.96159 1.18302 3.36851 1.65074 2.90078C2.11848 2.43305 2.71157 2.22548 3.44433 2.12696C3.58991 2.10739 3.74376 2.09182 3.90622 2.07943V1.5625C3.90622 1.30362 4.11609 1.09375 4.37497 1.09375ZM3.56925 3.0561C2.94044 3.14064 2.57816 3.29918 2.31366 3.56369C2.04915 3.82819 1.89061 4.19047 1.80607 4.81928C1.79175 4.92577 1.77978 5.03788 1.76977 5.15625H13.2302C13.2202 5.03788 13.2082 4.92577 13.1938 4.81928C13.1093 4.19047 12.9508 3.82819 12.6863 3.56369C12.4218 3.29918 12.0595 3.14064 11.4307 3.0561C10.7884 2.96974 9.94172 2.96875 8.74997 2.96875H6.24997C5.05821 2.96875 4.21154 2.96974 3.56925 3.0561ZM1.71872 7.5C1.71872 6.96625 1.71892 6.50169 1.7269 6.09375H13.273C13.281 6.50169 13.2812 6.96625 13.2812 7.5V8.75C13.2812 9.94175 13.2802 10.7884 13.1938 11.4307C13.1093 12.0595 12.9508 12.4218 12.6863 12.6863C12.4218 12.9508 12.0595 13.1094 11.4307 13.1939C10.7884 13.2803 9.94172 13.2812 8.74997 13.2812H6.24997C5.05821 13.2812 4.21154 13.2803 3.56925 13.1939C2.94044 13.1094 2.57816 12.9508 2.31366 12.6863C2.04915 12.4218 1.89061 12.0595 1.80607 11.4307C1.71971 10.7884 1.71872 9.94175 1.71872 8.75V7.5Z"
          fill="white"/>
</svg>
