<svg width="17" height="18" viewBox="0 0 17 18" fill="none" xmlns="http://www.w3.org/2000/svg">
<path fill-rule="evenodd" clip-rule="evenodd" d="M4.54651 0.5C4.87403 0.5 5.13954 0.77183 5.13954 1.10714V1.72458C5.663 1.71428 6.23971 1.71428 6.87399 1.71429H10.126C10.7603 1.71428 11.337 1.71428 11.8605 1.72458V1.10714C11.8605 0.77183 12.126 0.5 12.4535 0.5C12.781 0.5 13.0465 0.77183 13.0465 1.10714V1.77669C13.252 1.79274 13.4467 1.8129 13.6308 1.83825C14.5579 1.96585 15.3082 2.23471 15.9 2.84053C16.4917 3.44635 16.7543 4.21454 16.8789 5.16365C16.9187 5.46697 16.9454 5.798 16.9634 6.15863C16.9871 6.22419 17 6.29506 17 6.36905C17 6.42516 16.9926 6.4795 16.9786 6.53108C17 7.18027 17 7.9175 17 8.75196V10.4623C17 11.9501 17 13.1284 16.8789 14.0506C16.7543 14.9997 16.4917 15.7679 15.9 16.3738C15.3082 16.9796 14.5579 17.2484 13.6308 17.3761C12.7301 17.5 11.5791 17.5 10.126 17.5H6.874C5.42089 17.5 4.26992 17.5 3.36915 17.3761C2.44212 17.2484 1.69178 16.9796 1.10005 16.3738C0.508324 15.7679 0.245718 14.9997 0.121088 14.0506C-2.34138e-05 13.1284 -1.54556e-05 11.9501 3.58349e-07 10.4623V8.75196C-7.54863e-06 7.91742 -1.54837e-05 7.18027 0.0213571 6.53109C0.0074408 6.47951 3.58349e-07 6.42516 3.58349e-07 6.36905C3.58349e-07 6.29507 0.0129204 6.22418 0.0365859 6.15862C0.054519 5.79799 0.0812524 5.46696 0.121088 5.16365C0.245718 4.21455 0.508324 3.44635 1.10005 2.84053C1.69178 2.23471 2.44212 1.96585 3.36915 1.83825C3.55332 1.8129 3.74795 1.79274 3.95349 1.77669V1.10714C3.95349 0.77183 4.219 0.5 4.54651 0.5ZM1.1964 6.97619C1.1863 7.50457 1.18605 8.10629 1.18605 8.79762V10.4167C1.18605 11.9603 1.1873 13.0569 1.29655 13.8889C1.4035 14.7033 1.60408 15.1725 1.93871 15.5151C2.27334 15.8577 2.73167 16.0631 3.52718 16.1725C4.33975 16.2844 5.41089 16.2857 6.9186 16.2857H10.0814C11.5891 16.2857 12.6603 16.2844 13.4729 16.1725C14.2683 16.0631 14.7267 15.8577 15.0613 15.5151C15.3959 15.1725 15.5965 14.7033 15.7034 13.8889C15.8127 13.0569 15.814 11.9603 15.814 10.4167V8.79762C15.814 8.10629 15.8137 7.50457 15.8036 6.97619H1.1964ZM15.7494 5.7619H1.25063C1.2633 5.60859 1.27844 5.46338 1.29655 5.32545C1.4035 4.511 1.60408 4.04176 1.93871 3.69916C2.27334 3.35656 2.73167 3.15121 3.52718 3.04171C4.33975 2.92986 5.41089 2.92857 6.9186 2.92857H10.0814C11.5891 2.92857 12.6603 2.92986 13.4729 3.04171C14.2683 3.15121 14.7267 3.35656 15.0613 3.69916C15.3959 4.04176 15.5965 4.511 15.7034 5.32545C15.7215 5.46338 15.7367 5.60859 15.7494 5.7619Z" fill="#0696D6"/>
<path d="M9.44888 9.72857C9.44888 9.32621 9.13026 9 8.73725 9C8.34424 9 8.02562 9.32621 8.02562 9.72857V10.9429H6.83957C6.44657 10.9429 6.12795 11.2691 6.12795 11.6714C6.12795 12.0738 6.44657 12.4 6.83957 12.4H8.02562V13.6143C8.02562 14.0167 8.34424 14.3429 8.73725 14.3429C9.13026 14.3429 9.44888 14.0167 9.44888 13.6143V12.4H10.6349C11.0279 12.4 11.3465 12.0738 11.3465 11.6714C11.3465 11.2691 11.0279 10.9429 10.6349 10.9429H9.44888V9.72857Z" fill="#0696D6"/>
</svg>
