<svg width="20" height="21" viewBox="0 0 20 21" fill="none" xmlns="http://www.w3.org/2000/svg">
<path fill-rule="evenodd" clip-rule="evenodd" d="M9.95225 1.54199H10.0479C11.9716 1.54198 13.4791 1.54198 14.6553 1.70012C15.8592 1.86198 16.8093 2.19977 17.555 2.94544C18.3007 3.69112 18.6384 4.64113 18.8003 5.84508C18.9584 7.02132 18.9584 8.52885 18.9584 10.4525V10.5482C18.9584 12.4718 18.9584 13.9793 18.8003 15.1556C18.6384 16.3595 18.3007 17.3096 17.555 18.0552C16.8093 18.8009 15.8592 19.1387 14.6553 19.3006C13.4791 19.4587 11.9716 19.4587 10.0479 19.4587H9.95225C8.02861 19.4587 6.52107 19.4587 5.34484 19.3006C4.14089 19.1387 3.19087 18.8009 2.4452 18.0552C1.69952 17.3096 1.36174 16.3595 1.19987 15.1556C1.04173 13.9793 1.04174 12.4718 1.04175 10.5482V10.4525C1.04174 8.52885 1.04173 7.02132 1.19987 5.84508C1.36174 4.64113 1.69952 3.69112 2.4452 2.94544C3.19087 2.19977 4.14089 1.86198 5.34484 1.70012C6.52107 1.54198 8.02861 1.54198 9.95225 1.54199ZM5.5114 2.93897C4.44606 3.0822 3.80379 3.35461 3.32908 3.82933C2.85436 4.30403 2.58196 4.9463 2.43872 6.01164C2.29307 7.09496 2.29175 8.51848 2.29175 10.5003C2.29175 12.4822 2.29307 13.9057 2.43872 14.989C2.58196 16.0543 2.85436 16.6966 3.32908 17.1713C3.80379 17.6461 4.44606 17.9185 5.5114 18.0617C6.59471 18.2073 8.01823 18.2087 10.0001 18.2087C11.9819 18.2087 13.4054 18.2073 14.4887 18.0617C15.5541 17.9185 16.1963 17.6461 16.6711 17.1713C17.1458 16.6966 17.4182 16.0543 17.5614 14.989C17.7071 13.9057 17.7084 12.4822 17.7084 10.5003C17.7084 8.51848 17.7071 7.09496 17.5614 6.01164C17.4182 4.9463 17.1458 4.30403 16.6711 3.82933C16.1963 3.35461 15.5541 3.0822 14.4887 2.93897C13.4054 2.79332 11.9819 2.79199 10.0001 2.79199C8.01823 2.79199 6.59471 2.79332 5.5114 2.93897ZM5.41675 6.12533C5.07157 6.12533 4.79175 6.40515 4.79175 6.75033V7.48202C4.98723 7.41293 5.1976 7.37533 5.41675 7.37533H14.5834C14.8026 7.37533 15.0129 7.41293 15.2084 7.48202V6.75033C15.2084 6.40515 14.9286 6.12533 14.5834 6.12533H5.41675ZM16.4584 6.75033C16.4584 5.71479 15.6189 4.87533 14.5834 4.87533H5.41675C4.38121 4.87533 3.54175 5.71479 3.54175 6.75033V12.3753H3.33341C2.98824 12.3753 2.70841 12.6552 2.70841 13.0003C2.70841 13.3455 2.98824 13.6253 3.33341 13.6253H5.25131C5.97545 13.6253 6.16581 13.6361 6.3283 13.7022C6.3455 13.7092 6.36251 13.7167 6.37931 13.7247C6.53803 13.7994 6.67484 13.9322 7.16512 14.4652L7.19467 14.4972C7.21601 14.5205 7.23707 14.5434 7.25789 14.5661C7.6222 14.9627 7.91001 15.2762 8.28727 15.4654C8.3575 15.5007 8.4295 15.5322 8.503 15.5601C8.89766 15.7096 9.32316 15.7092 9.86175 15.7087C9.89258 15.7087 9.92367 15.7087 9.95525 15.7087C9.985 15.7087 10.0143 15.7087 10.0434 15.7087C10.5529 15.7092 10.9554 15.7095 11.3323 15.5745C11.4026 15.5493 11.4716 15.5207 11.539 15.4889C11.901 15.3178 12.1853 15.033 12.5453 14.6724C12.5658 14.6518 12.5866 14.631 12.6077 14.61L12.7991 14.4186C13.3168 13.9008 13.4604 13.7728 13.6252 13.7046C13.7898 13.6364 13.9819 13.6253 14.7142 13.6253H16.6667C17.0119 13.6253 17.2917 13.3455 17.2917 13.0003C17.2917 12.6552 17.0119 12.3753 16.6667 12.3753H16.4584V6.75033ZM15.2084 9.25033C15.2084 8.90516 14.9286 8.62533 14.5834 8.62533H5.41675C5.07157 8.62533 4.79175 8.90516 4.79175 9.25033V9.98199C4.98723 9.91291 5.1976 9.87533 5.41675 9.87533H14.5834C14.8026 9.87533 15.0129 9.91291 15.2084 9.98199V9.25033ZM15.2084 11.7503C15.2084 11.4052 14.9286 11.1253 14.5834 11.1253H5.41675C5.07157 11.1253 4.79175 11.4052 4.79175 11.7503V12.3753H5.25131C5.28498 12.3753 5.31825 12.3753 5.35112 12.3752C5.92656 12.3747 6.38162 12.3743 6.7998 12.5446C6.83765 12.56 6.87507 12.5764 6.91204 12.5938C7.32051 12.7863 7.6283 13.1215 8.01751 13.5453C8.03974 13.5696 8.06224 13.5941 8.08504 13.6188L8.11459 13.6509C8.57316 14.1494 8.70116 14.2746 8.84775 14.3481C8.87966 14.3641 8.91242 14.3785 8.94575 14.3911C9.09916 14.4492 9.27783 14.4587 9.95525 14.4587C10.5953 14.4587 10.7643 14.4502 10.9109 14.3977C10.9428 14.3862 10.9742 14.3732 11.0048 14.3587C11.1456 14.2922 11.2711 14.1787 11.7237 13.7261L11.9152 13.5347C11.9392 13.5107 11.9629 13.4869 11.9863 13.4634C12.3976 13.0514 12.7231 12.7252 13.1467 12.5497C13.5705 12.3742 14.0312 12.3747 14.6134 12.3752C14.6466 12.3753 14.6802 12.3753 14.7142 12.3753H15.2084V11.7503Z" fill="#1B2746"/>
</svg>
