<svg width="40" height="40" viewBox="0 0 40 40" fill="none" xmlns="http://www.w3.org/2000/svg">
<path fill-rule="evenodd" clip-rule="evenodd" d="M12.0073 5.97507C11.3716 7.26655 11.0702 8.63025 11.0574 10.296C11.0633 10.358 11.0714 10.4364 11.0808 10.5269C11.1066 10.7757 11.1419 11.1159 11.1661 11.4568C11.2711 12.9462 11.5824 14.3938 12.0896 15.7977C12.6181 17.2609 13.3597 18.6095 14.399 19.7868C15.4143 20.9367 16.6154 21.8167 18.1182 22.2484C18.9375 22.4838 19.7734 22.5458 20.6183 22.4269C22.0501 22.2253 23.27 21.5826 24.3354 20.64C25.7525 19.3862 26.7056 17.824 27.3855 16.089C27.9417 14.6702 28.2525 13.1945 28.404 11.682C28.4945 10.7799 28.5694 9.88227 28.4607 8.97452C28.3151 7.75597 27.9559 6.60707 27.35 5.53964C26.347 3.77257 24.9144 2.46186 23.0217 1.65766C21.6562 1.07751 20.2331 0.881948 18.7597 1.06797C17.0479 1.28391 15.5481 1.97515 14.247 3.08417C13.2987 3.8925 12.556 4.86008 12.0073 5.97507ZM11.8945 21.4054C11.8225 21.4806 11.5418 21.6555 11.2211 21.8293C10.843 22.0342 10.3874 22.144 10.0195 22.2326C9.81592 22.2817 9.63917 22.3243 9.51725 22.373C8.83041 22.6471 7.70527 23.1353 7.14873 23.5926C5.76914 24.7264 4.7022 26.1109 3.97808 27.7611C3.09239 29.7795 2.78878 31.882 3.1471 34.0692C3.28483 34.9101 3.59907 35.6821 4.13161 36.3498C4.86061 37.2639 5.84554 37.7517 6.93087 38.0586C8.20031 38.4175 9.50522 38.5275 10.8142 38.5635C12.1396 38.5997 13.4665 38.6012 14.7927 38.5997C17.4781 38.5967 20.1637 38.5905 22.8492 38.5842C24.626 38.58 26.4027 38.5759 28.1794 38.5727C29.2724 38.5708 30.3593 38.4923 31.4386 38.3204C32.4292 38.1627 33.3902 37.9022 34.2628 37.3759C34.9799 36.9432 35.5379 36.3562 35.9228 35.5998C36.3708 34.7192 36.5317 33.7704 36.5646 32.7935C36.6189 31.1855 36.3545 29.635 35.7566 28.1412C35.2847 26.9616 34.6341 25.8975 33.8132 24.9417C33.2762 24.3165 32.675 23.7575 32.0116 23.2718C31.4196 22.8386 27.9169 21.299 27.4875 21.3005C27.4779 21.3005 27.4684 21.2972 27.4588 21.2938C27.4518 21.2914 27.4447 21.2889 27.4375 21.2878C27.1338 21.2416 26.8299 21.1957 26.5182 21.1486C26.4611 21.6815 26.2136 22.0961 25.9361 22.4897C25.2616 23.4471 24.4455 24.2764 23.5874 25.0582C22.8556 25.7247 22.1006 26.3649 21.3458 27.0049C21.215 27.1158 21.0842 27.2267 20.9536 27.3377C20.694 27.5583 20.4246 27.767 20.156 27.975C20.0345 28.0692 19.9131 28.1632 19.7929 28.2581C19.7697 28.2413 19.7482 28.2263 19.7281 28.2122C19.6886 28.1846 19.6542 28.1605 19.622 28.1339C19.3291 27.8913 19.0352 27.6501 18.7413 27.4088C18.04 26.8333 17.3387 26.2577 16.6524 25.6642C15.7128 24.8517 14.8185 23.9866 14.0346 23.0135C13.5949 22.4676 13.1633 21.9112 13.0481 21.1429C12.9657 21.1566 12.8834 21.17 12.8012 21.1835C12.5391 21.2264 12.278 21.2692 12.0177 21.3167C11.9726 21.3247 11.9295 21.3689 11.8945 21.4054Z" fill="#0696D6"/>
<path d="M39 7.18824H35.2412V11H33.7412V7.18824H30V5.82941H33.7412V2H35.2412V5.82941H39V7.18824Z" fill="#0696D6"/>
</svg>
