<svg width="12" height="8" viewBox="0 0 12 8" fill="none" xmlns="http://www.w3.org/2000/svg">
<g id="Group 1293">
<path id="Vector 369 (Stroke)" fill-rule="evenodd" clip-rule="evenodd" d="M5.74033 6.89962C5.9809 7.14019 6.37093 7.14019 6.61149 6.89962L11.5395 1.97157C11.7801 1.73101 11.7801 1.34097 11.5395 1.10041C11.299 0.859841 10.9089 0.859841 10.6684 1.10041L5.74033 6.02846C5.49976 6.26902 5.49976 6.65906 5.74033 6.89962Z" fill="#7C878E"/>
<path id="Vector 370 (Stroke)" fill-rule="evenodd" clip-rule="evenodd" d="M0.700414 1.10041C0.459848 1.34097 0.459848 1.73101 0.700414 1.97157L5.62847 6.89962C5.86903 7.14019 6.25906 7.14019 6.49963 6.89962C6.7402 6.65906 6.7402 6.26902 6.49963 6.02846L1.57158 1.10041C1.33101 0.859842 0.940979 0.859842 0.700414 1.10041Z" fill="#7C878E"/>
</g>
</svg>
