<svg width="15" height="16" viewBox="0 0 15 16" fill="none" xmlns="http://www.w3.org/2000/svg">
<path d="M0.756471 4.50217C1.54723 4.76146 2.33798 4.8485 3.14506 4.67896C3.95849 4.50851 4.62138 4.08784 5.16276 3.4541C6.39061 4.82221 7.89685 5.01532 9.58265 4.51033C9.58265 4.55385 9.58265 4.59192 9.58265 4.63091C9.58265 5.70073 9.53641 6.76784 9.43121 7.83222C9.37046 8.4442 9.28431 9.05345 9.20995 9.66362C8.64953 11.7543 7.37815 13.1487 5.25163 13.7036C5.17999 13.7226 5.09384 13.709 5.01948 13.69C3.55404 13.3164 2.46494 12.4533 1.70864 11.1523C1.30601 10.4605 1.08565 9.71348 1.00766 8.92199C0.955063 8.38164 0.900657 7.84129 0.869824 7.29912C0.819949 6.40247 0.789116 5.5049 0.750122 4.60824C0.750122 4.57832 0.75375 4.55022 0.756471 4.50217ZM1.5309 5.37888C1.5309 5.61279 1.52365 5.84035 1.53181 6.06701C1.56808 7.05524 1.62975 8.04165 1.77393 9.02081C1.85645 9.57839 1.97887 10.1224 2.25364 10.6237C2.88117 11.767 3.81158 12.5186 5.08477 12.8332C5.13193 12.845 5.18725 12.8504 5.23349 12.8386C6.72977 12.4642 7.74451 11.5349 8.30856 10.116C8.54433 9.52309 8.606 8.88482 8.65678 8.25381C8.73114 7.34083 8.77467 6.42513 8.83089 5.51125C8.83361 5.46682 8.83089 5.42149 8.83089 5.36891C8.16981 5.51125 7.52324 5.53301 6.87667 5.38704C6.22285 5.23926 5.65517 4.92828 5.17092 4.46228C4.11809 5.44325 2.88027 5.64724 1.5309 5.37888Z" fill="#1B2746"/>
<path d="M13.2146 1.98068C12.6913 1.98068 12.1817 1.98068 11.6666 1.98068C11.6666 1.74223 11.6666 1.51558 11.6666 1.27441C11.721 1.27441 11.77 1.27441 11.8199 1.27441C12.3748 1.27441 12.9289 1.27441 13.4839 1.27441C13.8049 1.27441 13.9101 1.37686 13.911 1.69237C13.9174 3.47843 13.9246 5.2645 13.9273 7.05056C13.9301 8.88014 13.9283 10.7088 13.9273 12.5384C13.9273 12.8131 13.9128 13.0887 13.9137 13.3634C13.9146 13.7687 13.9246 14.174 13.9283 14.5801C13.9301 14.863 13.7904 15.0017 13.5093 15.0017C10.475 15.0017 7.44168 15.0017 4.40743 15.0017C4.1245 15.0017 3.99029 14.8657 3.98938 14.5801C3.98938 14.3381 3.98938 14.0951 3.98938 13.8322C4.0456 13.853 4.09094 13.8702 4.13538 13.8866C4.27866 13.9382 4.41922 13.9972 4.56522 14.0389C4.66225 14.0661 4.72029 14.1041 4.70034 14.2138C4.69671 14.2338 4.70396 14.2556 4.70578 14.2828C7.53963 14.2828 10.368 14.2828 13.2146 14.2828C13.2146 10.183 13.2146 6.08772 13.2146 1.98068Z" fill="#1B2746"/>
<path d="M8.00115 0.927836C8.0338 0.805441 8.05284 0.689392 8.09456 0.583316C8.24781 0.195278 8.65951 -0.0467914 9.05761 0.00760644C9.50831 0.0692573 9.83749 0.392924 9.88373 0.829014C9.8928 0.911517 9.92182 0.929649 9.998 0.927836C10.2265 0.923303 10.455 0.925117 10.6827 0.92693C10.9338 0.928743 11.1025 1.0865 11.1107 1.33491C11.1179 1.5516 11.1306 1.771 11.02 1.97228C10.8613 2.2624 10.6183 2.43194 10.2855 2.43466C9.4013 2.44191 8.51623 2.441 7.63207 2.43556C7.20495 2.43284 6.85583 2.11099 6.80958 1.68669C6.79507 1.55432 6.79325 1.41832 6.80686 1.28595C6.82953 1.07018 6.99638 0.928743 7.21402 0.92693C7.47972 0.926023 7.74361 0.927836 8.00115 0.927836ZM8.58062 0.937809C8.58062 1.1418 8.74747 1.31406 8.94879 1.31859C9.15918 1.32313 9.33873 1.14543 9.33692 0.934183C9.3351 0.730191 9.16824 0.565184 8.96058 0.562464C8.74748 0.560651 8.58062 0.725657 8.58062 0.937809Z" fill="#1B2746"/>
<path d="M6.25095 1.27928C6.25095 1.515 6.25095 1.73894 6.25095 1.97829C5.73768 1.97829 5.22623 1.97829 4.70571 1.97829C4.70299 2.03994 4.69845 2.08527 4.69845 2.13151C4.69755 2.47875 4.69573 2.8269 4.70027 3.17414C4.70118 3.25392 4.67669 3.31013 4.62047 3.36453C4.43366 3.54676 4.23688 3.71358 3.99566 3.8523C3.99294 3.80425 3.9884 3.76979 3.9884 3.73625C3.9884 3.04812 3.9884 2.35998 3.9884 1.67185C3.9884 1.41437 4.12534 1.27475 4.38197 1.27384C4.96869 1.27293 5.55541 1.27384 6.14213 1.27384C6.17568 1.27384 6.20742 1.27656 6.25095 1.27928Z" fill="black"/>
<path d="M5.812 3.41581C5.85099 3.41581 5.88998 3.41581 5.92898 3.41581C8.12442 3.41581 10.3199 3.41671 12.5153 3.41309C12.6232 3.41309 12.6504 3.44663 12.6468 3.54908C12.6404 3.74401 12.645 3.74491 12.45 3.74491C10.4178 3.74491 8.38558 3.74401 6.35247 3.74763C6.21644 3.74763 6.10672 3.71953 6.00878 3.62705C5.94167 3.56359 5.86822 3.50647 5.79749 3.44572C5.80202 3.43575 5.80656 3.42578 5.812 3.41581Z" fill="black"/>
<path d="M7.45337 13.1942C7.58939 13.0791 7.70637 12.9784 7.82608 12.8833C7.84512 12.8678 7.8814 12.8715 7.90951 12.8715C9.43842 12.8715 10.9664 12.8715 12.4953 12.8715C12.5198 12.8715 12.5452 12.8742 12.5788 12.8769C12.5788 12.9839 12.5788 13.0854 12.5788 13.1942C10.8785 13.1942 9.18088 13.1942 7.45337 13.1942Z" fill="black"/>
<path d="M12.6043 11.3101C12.6043 11.408 12.6043 11.5077 12.6043 11.6165C11.3701 11.6165 10.1386 11.6165 8.88989 11.6165C8.95065 11.5114 9.00143 11.4171 9.05947 11.3273C9.07126 11.3092 9.10844 11.2992 9.13383 11.2992C10.2819 11.2983 11.4299 11.2992 12.5789 11.3001C12.5852 11.3001 12.5916 11.3055 12.6043 11.3101Z" fill="black"/>
<path d="M12.6241 9.71845C12.6241 9.83178 12.6241 9.93151 12.6241 10.0394C11.6184 10.0394 10.6146 10.0394 9.59802 10.0394C9.61979 9.94602 9.63611 9.85445 9.66422 9.76741C9.67147 9.74475 9.715 9.72299 9.74311 9.72117C9.83652 9.71573 9.93083 9.71845 10.0251 9.71845C10.8504 9.71845 11.6756 9.71845 12.5017 9.71845C12.5407 9.71845 12.5788 9.71845 12.6241 9.71845Z" fill="black"/>
<path d="M12.646 8.15234C12.646 8.26023 12.646 8.35996 12.646 8.46785C11.7147 8.46785 10.7897 8.46785 9.84839 8.46785C9.85746 8.36087 9.86562 8.25933 9.87469 8.15234C10.8024 8.15234 11.7174 8.15234 12.646 8.15234Z" fill="black"/>
<path d="M9.98079 6.88905C9.97626 6.8691 9.97263 6.86275 9.97263 6.8555C9.96991 6.56719 9.96991 6.56719 10.2528 6.56719C11.0137 6.56719 11.7754 6.569 12.5362 6.56447C12.6423 6.56356 12.6795 6.59621 12.6668 6.69956C12.6596 6.7594 12.6659 6.82105 12.6659 6.88905C11.7636 6.88905 10.874 6.88905 9.98079 6.88905Z" fill="black"/>
<path d="M12.6623 4.99602C12.6759 5.01325 12.6804 5.01597 12.6804 5.01869C12.7203 5.32423 12.7203 5.32423 12.4165 5.32423C11.6666 5.32423 10.9166 5.32241 10.1667 5.32604C10.0624 5.32695 10.0288 5.29975 10.0352 5.19276C10.047 4.99602 10.0406 4.99512 10.2437 4.99512C11.0155 4.99512 11.7872 4.99512 12.5589 4.99512C12.597 4.99602 12.636 4.99602 12.6623 4.99602Z" fill="black"/>
<path d="M5.9499 7.8732C6.00521 7.8732 6.04693 7.8732 6.08955 7.8732C6.35435 7.8732 6.61824 7.87139 6.88303 7.8732C7.08888 7.87502 7.19951 7.982 7.20223 8.18871C7.20586 8.50422 7.20586 8.81882 7.20223 9.13433C7.20042 9.33197 7.08706 9.43714 6.88484 9.43805C6.61279 9.43896 6.34165 9.43805 6.0696 9.43895C6.03423 9.43895 5.99887 9.43895 5.9499 9.43895C5.9499 9.49426 5.9499 9.5405 5.9499 9.58674C5.9499 9.8551 5.95171 10.1226 5.94899 10.3909C5.94718 10.5731 5.84289 10.6856 5.66062 10.6883C5.33416 10.6928 5.00861 10.6937 4.68215 10.6883C4.4899 10.6856 4.38652 10.5732 4.3838 10.3764C4.38108 10.1081 4.3829 9.84059 4.3829 9.57223C4.3829 9.53324 4.3829 9.49335 4.3829 9.43895C4.33483 9.43895 4.29675 9.43895 4.25775 9.43895C3.9857 9.43895 3.71456 9.43986 3.44251 9.43895C3.25117 9.43805 3.13782 9.32563 3.13691 9.13614C3.136 8.81701 3.1351 8.49878 3.13691 8.17965C3.13782 7.98835 3.24754 7.87683 3.4407 7.87411C3.74177 7.87049 4.04193 7.87139 4.343 7.87048C4.35025 7.87048 4.3566 7.86686 4.37655 7.86051C4.37836 7.82697 4.38199 7.78889 4.3829 7.75081C4.3838 7.4897 4.3829 7.2295 4.3838 6.96839C4.38471 6.72722 4.48718 6.62659 4.72931 6.62568C5.03037 6.62477 5.33053 6.62477 5.6316 6.62568C5.8447 6.62659 5.94899 6.73266 5.9499 6.94754C5.9508 7.21227 5.9499 7.4761 5.9499 7.74084C5.9499 7.78073 5.9499 7.81881 5.9499 7.8732Z" fill="black"/>
</svg>
