<svg width="15" height="16" viewBox="0 0 15 16" fill="none" xmlns="http://www.w3.org/2000/svg">
<path fill-rule="evenodd" clip-rule="evenodd" d="M13.5357 4.33896L13.5357 4.33843V4.33828C13.5393 4.04996 13.5429 3.76731 13.5264 3.48594C13.5106 3.21305 13.3045 3.03321 12.9885 3.02134C12.611 3.00705 12.2327 3.01009 11.8524 3.01314C11.6923 3.01443 11.5317 3.01572 11.3707 3.01572C11.3651 3.03876 11.3596 3.06117 11.3542 3.08315C11.3446 3.12253 11.3353 3.16054 11.3258 3.19836C11.259 3.46413 11.0393 3.61396 10.7538 3.58806C10.4786 3.56301 10.2823 3.3808 10.2779 3.11007C10.2688 2.52413 10.269 1.93755 10.2773 1.3514C10.2805 1.11024 10.499 0.907303 10.751 0.878592C11.0098 0.849012 11.2478 1.00446 11.3189 1.25835C11.3428 1.34384 11.3521 1.43516 11.3558 1.52433C11.36 1.6217 11.3592 1.71938 11.3583 1.82454C11.3579 1.87025 11.3575 1.91737 11.3575 1.96648C11.445 1.96648 11.5314 1.96579 11.6169 1.96511L11.6176 1.96511C11.8072 1.96359 11.9927 1.96211 12.1781 1.9682C12.2797 1.97154 12.3818 1.97293 12.4839 1.97432L12.4841 1.97432C12.779 1.97834 13.0746 1.98236 13.3614 2.03319C14.0973 2.1638 14.6194 2.81731 14.6214 3.56193C14.625 5.05163 14.6246 6.54131 14.6242 8.031C14.6241 8.49687 14.624 8.96275 14.624 9.42863C14.624 9.78629 14.6242 10.1439 14.6245 10.5016C14.6252 11.5111 14.6259 12.5206 14.621 13.5302C14.6168 14.3853 13.9275 15.1014 13.0661 15.1142C12.3674 15.1248 11.6686 15.1199 10.9697 15.115L10.9683 15.115C10.5694 15.1122 10.1704 15.1094 9.77145 15.1094C9.26797 15.1096 8.7645 15.113 8.26102 15.1164C7.88861 15.1189 7.51619 15.1214 7.14378 15.1226C6.37975 15.1251 5.6159 15.125 4.85192 15.125L4.5443 15.125H4.39629C3.62592 15.125 2.85555 15.125 2.08538 15.122C1.19756 15.1185 0.585219 14.6213 0.407133 13.7558C0.382847 13.638 0.382941 13.5142 0.383044 13.3925L0.383053 13.3695C0.382666 12.4044 0.383405 11.4391 0.384152 10.4739C0.385887 8.22634 0.387622 5.97871 0.375032 3.73119C0.370042 2.82013 0.952451 1.97036 2.13202 1.96885C2.38688 1.96859 2.64181 1.9681 2.89673 1.96761C3.06663 1.96728 3.23652 1.96695 3.40638 1.96669H3.64997C3.64997 1.91165 3.64953 1.85787 3.64911 1.80495L3.6491 1.80453C3.64818 1.6905 3.64728 1.58048 3.65084 1.47057C3.66255 1.09642 3.90614 0.854623 4.24214 0.878371C4.5174 0.897803 4.72911 1.1124 4.73084 1.38745C4.73475 1.94532 4.7354 2.50341 4.73149 3.06149C4.72933 3.36051 4.5469 3.56085 4.26774 3.58784C3.95755 3.61764 3.74823 3.46694 3.67557 3.16253C3.66857 3.13307 3.66029 3.104 3.65002 3.06791C3.64501 3.05031 3.63953 3.03104 3.63348 3.00924H3.22092C3.12098 3.00924 3.02106 3.00913 2.92114 3.00901L2.91784 3.009C2.66212 3.00871 2.40646 3.00841 2.15067 3.01011C1.67802 3.01335 1.46719 3.2247 1.46567 3.69298C1.46507 3.9237 1.4652 4.15443 1.46533 4.39391C1.46539 4.49908 1.46545 4.60595 1.46545 4.71524H13.5325C13.5325 4.58852 13.5341 4.46321 13.5357 4.33896ZM1.46523 5.60688V11.764C1.46523 11.9279 1.46506 12.0918 1.46488 12.2557L1.46487 12.26C1.46447 12.6413 1.46407 13.0226 1.46588 13.4041C1.46805 13.8283 1.67911 14.0382 2.10143 14.0408C2.29779 14.042 2.49415 14.0418 2.69051 14.0416L2.70821 14.0416C2.77775 14.0415 2.84728 14.0414 2.91681 14.0414C6.21257 14.0414 9.50834 14.0414 12.8041 14.0408C12.814 14.0408 12.824 14.0408 12.8339 14.0409C12.8396 14.0409 12.8452 14.041 12.8509 14.041C12.9375 14.0416 13.0253 14.0423 13.1078 14.0233C13.4076 13.9538 13.5399 13.7489 13.5401 13.3691C13.5406 11.5575 13.5406 9.74584 13.5405 7.93421L13.5405 6.58898V5.60709C9.51593 5.60688 5.5037 5.60688 1.46523 5.60688ZM5.65118 2.00165V2.99907H9.35192V2.00165H5.65118Z" fill="#0696D6"/>
<path d="M10.875 10.3912H8.05588V13.25H6.93088V10.3912H4.125V9.37206H6.93088V6.5H8.05588V9.37206H10.875V10.3912Z" fill="#0696D6"/>
</svg>
