<svg width="16" height="16" viewBox="0 0 16 16" fill="none" xmlns="http://www.w3.org/2000/svg">
<path fill-rule="evenodd" clip-rule="evenodd" d="M14.4381 4.09528L14.4381 4.09472V4.09455C14.442 3.78701 14.4458 3.48552 14.4282 3.18539C14.4113 2.89431 14.1915 2.70248 13.8544 2.68982C13.4517 2.67458 13.0483 2.67782 12.6426 2.68108C12.4718 2.68245 12.3005 2.68382 12.1288 2.68382C12.1228 2.7084 12.1169 2.7323 12.1112 2.75575C12.1009 2.79776 12.091 2.8383 12.0809 2.87865C12.0097 3.16213 11.7753 3.32195 11.4708 3.29432C11.1772 3.2676 10.9678 3.07324 10.9632 2.78446C10.9534 2.15946 10.9537 1.53378 10.9625 0.908546C10.9659 0.651318 11.1989 0.434847 11.4678 0.404222C11.7438 0.37267 11.9976 0.53848 12.0735 0.809297C12.099 0.900488 12.1089 0.9979 12.1129 1.09301C12.1174 1.19687 12.1165 1.30106 12.1155 1.41323C12.1151 1.46199 12.1147 1.51225 12.1147 1.56464C12.2081 1.56464 12.3002 1.5639 12.3914 1.56318L12.3921 1.56317C12.5943 1.56155 12.7923 1.55997 12.99 1.56647C13.0984 1.57003 13.2072 1.57151 13.3162 1.573L13.3164 1.573C13.631 1.57728 13.9463 1.58157 14.2521 1.63579C15.0372 1.77511 15.5941 2.47219 15.5962 3.26645C15.6001 4.85546 15.5996 6.44446 15.5992 8.03346C15.5991 8.53039 15.5989 9.02733 15.5989 9.52426C15.5989 9.90577 15.5992 10.2873 15.5995 10.6687C15.6002 11.7456 15.601 12.8223 15.5957 13.8992C15.5913 14.8114 14.856 15.5753 13.9372 15.5889C13.192 15.6001 12.4465 15.5949 11.701 15.5897L11.6996 15.5897C11.274 15.5867 10.8485 15.5837 10.4229 15.5838C9.88586 15.5839 9.34882 15.5876 8.81178 15.5912C8.41454 15.5939 8.0173 15.5966 7.62005 15.5978C6.8051 15.6005 5.99032 15.6004 5.17541 15.6004L4.84727 15.6004H4.68941C3.86768 15.6004 3.04595 15.6004 2.22443 15.5971C1.27743 15.5935 0.624258 15.0631 0.4343 14.1399C0.408394 14.0142 0.408495 13.8822 0.408605 13.7524L0.408614 13.7279C0.408202 12.6984 0.40899 11.6688 0.409787 10.6392C0.411637 8.24182 0.413487 5.84435 0.400058 3.44699C0.394736 2.47519 1.01597 1.56878 2.27418 1.56717C2.54602 1.56689 2.81795 1.56636 3.08987 1.56584C3.27109 1.56549 3.45231 1.56514 3.63349 1.56486H3.89333C3.89333 1.50615 3.89286 1.44878 3.8924 1.39233L3.8924 1.39189C3.89141 1.27025 3.89046 1.1529 3.89425 1.03566C3.90675 0.636574 4.16658 0.378655 4.52498 0.403986C4.81858 0.424714 5.04441 0.653619 5.04626 0.947002C5.05042 1.54206 5.05112 2.13736 5.04695 2.73265C5.04464 3.0516 4.85005 3.2653 4.55228 3.29409C4.22141 3.32587 3.99814 3.16513 3.92063 2.84042C3.91316 2.809 3.90434 2.77799 3.89338 2.7395C3.88804 2.72073 3.88219 2.70017 3.87574 2.67692H3.43568C3.32907 2.67692 3.22249 2.67679 3.11591 2.67666L3.11239 2.67666C2.83962 2.67634 2.56691 2.67603 2.29408 2.67784C1.78991 2.68129 1.56502 2.90674 1.5634 3.40624C1.56276 3.65234 1.5629 3.89845 1.56305 4.1539C1.56311 4.26607 1.56317 4.38007 1.56317 4.49664H14.4347C14.4347 4.36148 14.4364 4.22782 14.4381 4.09528ZM1.56294 5.44773V12.0153C1.56294 12.1901 1.56275 12.365 1.56256 12.5398L1.56256 12.5444C1.56213 12.9511 1.5617 13.3579 1.56363 13.7648C1.56595 14.2173 1.79107 14.4411 2.24155 14.4439C2.451 14.4452 2.66045 14.445 2.86991 14.4447L2.88878 14.4447C2.96295 14.4446 3.03712 14.4446 3.11129 14.4446C6.62677 14.4446 10.1423 14.4446 13.6577 14.4439C13.6683 14.4439 13.6789 14.4439 13.6896 14.444C13.6956 14.444 13.7016 14.4441 13.7076 14.4441C13.8 14.4448 13.8937 14.4455 13.9817 14.4252C14.3014 14.3511 14.4425 14.1325 14.4428 13.7275C14.4433 11.7951 14.4433 9.86262 14.4433 7.93022L14.4432 6.4953V5.44795C10.1504 5.44773 5.87064 5.44773 1.56294 5.44773ZM6.02795 1.60215V2.66607H9.97541V1.60215H6.02795Z" fill="#1B2746"/>
<rect x="9.20007" y="9.2002" width="3.2" height="3.2" fill="#1B2746"/>
</svg>
