<svg width="16" height="16" viewBox="0 0 16 16" fill="none" xmlns="http://www.w3.org/2000/svg">
<path d="M14.656 12.9661H13.834V10.1621C13.834 9.17405 13.834 8.37805 13.746 7.75205C13.654 7.10205 13.456 6.56205 13.01 6.13805C12.566 5.71805 12.008 5.53605 11.336 5.45005C10.682 5.36605 9.84797 5.36605 8.79997 5.36605H8.49997V3.82605C8.49997 3.55005 8.27597 3.32605 7.99997 3.32605C7.72397 3.32605 7.49997 3.55005 7.49997 3.82605V5.36605H7.20197C6.15397 5.36605 5.31997 5.36605 4.66597 5.45005C3.99197 5.53605 3.43597 5.71805 2.99197 6.13805C2.54397 6.56205 2.34797 7.10205 2.25597 7.75205C2.16797 8.37805 2.16797 9.17205 2.16797 10.1621V12.9681H1.33397C1.06197 12.9681 0.839974 13.1861 0.833974 13.4581C0.827974 13.7381 1.06397 13.9681 1.34597 13.9681H14.668C14.94 13.9681 15.162 13.7501 15.168 13.4781C15.172 13.1961 14.936 12.9661 14.656 12.9661ZM3.67997 6.86405C3.90597 6.65005 4.22197 6.51405 4.79397 6.44205C5.37797 6.36805 6.14797 6.36605 7.23797 6.36605H8.76197C9.85197 6.36605 10.624 6.36605 11.206 6.44205C11.778 6.51405 12.094 6.65005 12.32 6.86405C12.542 7.07405 12.68 7.36405 12.754 7.89205C12.814 8.31605 12.828 8.84805 12.832 9.55005C12.642 9.51005 12.458 9.43405 12.292 9.32205C11.604 8.86405 10.71 8.86405 10.022 9.32205C9.49797 9.67205 8.81397 9.67205 8.28997 9.32205C7.60197 8.86405 6.70797 8.86405 6.01997 9.32205C5.49597 9.67205 4.81197 9.67205 4.28797 9.32205C3.94997 9.09605 3.56197 8.98205 3.17397 8.97805C3.18197 8.54605 3.20197 8.19205 3.24597 7.89005C3.31997 7.36405 3.45797 7.07405 3.67997 6.86405ZM3.16597 12.9661V10.2001C3.16597 10.1261 3.16597 10.0521 3.16597 9.98005C3.36397 9.98205 3.56197 10.0401 3.73397 10.1561C4.59397 10.7301 5.71397 10.7301 6.57597 10.1561C6.92797 9.92205 7.38397 9.92205 7.73597 10.1561C8.59597 10.7301 9.71597 10.7301 10.578 10.1561C10.93 9.92205 11.386 9.92205 11.738 10.1561C12.074 10.3801 12.45 10.5161 12.834 10.5661V12.9681H3.16597V12.9661Z" fill="#7C878E"/>
<path d="M7.99998 2.85603C8.27598 2.85603 8.49398 2.62403 8.49398 2.34603C8.49398 2.24803 8.44198 2.14403 8.38398 2.05603C8.32398 1.96603 8.24998 1.88003 8.18798 1.81403C8.08598 1.70603 7.91598 1.70603 7.81198 1.81403C7.74998 1.88003 7.67598 1.96603 7.61598 2.05603C7.55798 2.14403 7.50598 2.24603 7.50598 2.34603C7.50598 2.62603 7.72398 2.85603 7.99998 2.85603Z" fill="#7C878E"/>
</svg>
