<svg width="23" height="24" viewBox="0 0 23 24" fill="none" xmlns="http://www.w3.org/2000/svg">
<rect y="0.5" width="23" height="23" rx="11.5" fill="#FFD400"/>
<path fill-rule="evenodd" clip-rule="evenodd" d="M9.08501 5.50162C9.22222 5.72116 9.15548 6.01036 8.93595 6.14756L6.43594 7.71006C6.2164 7.84727 5.92721 7.78053 5.79 7.561C5.65279 7.34146 5.71953 7.05227 5.93906 6.91506L8.43908 5.35256C8.65861 5.21536 8.94781 5.28209 9.08501 5.50162ZM13.915 5.50162C14.0522 5.28209 14.3414 5.21536 14.5609 5.35256L17.0609 6.91506C17.2805 7.05227 17.3472 7.34147 17.21 7.561C17.0728 7.78053 16.7836 7.84727 16.5641 7.71006L14.0641 6.14756C13.8445 6.01036 13.7778 5.72116 13.915 5.50162ZM11.5 7.46881C8.65228 7.46881 6.34375 9.77734 6.34375 12.6251C6.34375 15.4727 8.65228 17.7813 11.5 17.7813C14.3477 17.7813 16.6562 15.4727 16.6562 12.6251C16.6562 9.77734 14.3477 7.46881 11.5 7.46881ZM5.40625 12.6251C5.40625 9.25957 8.13451 6.53131 11.5 6.53131C14.8655 6.53131 17.5938 9.25957 17.5938 12.6251C17.5938 15.9906 14.8655 18.7188 11.5 18.7188C8.13451 18.7188 5.40625 15.9906 5.40625 12.6251ZM9.625 11.2188C9.36612 11.2188 9.15625 11.0089 9.15625 10.7501C9.15625 10.4912 9.36612 10.2813 9.625 10.2813H13.375C13.5646 10.2813 13.7355 10.3955 13.8081 10.5707C13.8806 10.7458 13.8405 10.9474 13.7064 11.0815L10.7567 14.0313H13.375C13.6339 14.0313 13.8438 14.2412 13.8438 14.5001C13.8438 14.7589 13.6339 14.9688 13.375 14.9688H9.625C9.43541 14.9688 9.26449 14.8546 9.19193 14.6794C9.11937 14.5043 9.15948 14.3027 9.29354 14.1686L12.2433 11.2188H9.625Z" fill="#1B2746"/>
</svg>
