<svg width="41" height="41" viewBox="0 0 41 41" fill="none" xmlns="http://www.w3.org/2000/svg">
<path fill-rule="evenodd" clip-rule="evenodd" d="M16.9124 21.3274C15.9377 21.4038 15.0505 21.5018 14.1606 21.5382C10.903 21.6718 7.68573 21.4434 4.62996 20.2075C3.8817 19.9049 3.18016 19.4353 2.53981 18.9378C1.81483 18.3744 1.49662 17.5695 1.50003 16.6321C1.51247 13.1949 1.50139 9.75746 1.50582 6.32013C1.50736 5.13264 2.16892 4.31995 3.09483 3.67814C4.02414 3.03397 5.06427 2.62542 6.15179 2.33415C9.22998 1.50989 12.3579 1.33639 15.5223 1.63925C17.4803 1.82669 19.3975 2.17816 21.2015 2.99414C22.1297 3.41401 22.959 3.95741 23.5728 4.79791C23.6635 4.92228 23.9686 4.94071 24.1702 4.9298C25.7833 4.84179 27.3968 4.63414 29.0073 4.65696C31.5684 4.69332 34.1139 4.99499 36.4813 6.05582C37.2553 6.40264 37.9769 6.91163 38.6353 7.45113C39.2599 7.96299 39.4977 8.71176 39.4967 9.53188C39.4904 14.6878 39.4866 19.8439 39.5 24.9998C39.5025 25.9883 39.1258 26.7743 38.3975 27.4143C37.4177 28.2752 36.2322 28.7426 35.001 29.1003C32.9866 29.6856 30.9184 29.9268 28.8251 29.9506C28.4377 29.955 28.3179 30.0597 28.3245 30.4501C28.3472 31.802 28.3092 33.1552 28.3395 34.5069C28.3616 35.4991 27.9783 36.2847 27.251 36.9255C26.2392 37.8173 25.0151 38.3056 23.7359 38.653C20.6618 39.4875 17.5325 39.6613 14.3674 39.3661C12.4383 39.1862 10.5334 38.8818 8.75953 38.0799C8.04622 37.7574 7.36624 37.3205 6.75267 36.8343C6.05905 36.2848 5.73581 35.5121 5.74706 34.6021C5.76692 32.9964 5.79079 31.389 5.74033 29.7846C5.69958 28.4871 6.29824 27.5841 7.31049 26.8772C8.17869 26.2709 9.14917 25.8798 10.1609 25.585C12.1615 25.002 14.2111 24.7535 16.291 24.7126C16.9115 24.7004 16.9119 24.6928 16.9122 24.0751C16.9127 23.1768 16.9124 22.2784 16.9124 21.3274ZM28.1441 11.787C30.4276 11.7468 32.6197 11.5821 34.7216 10.8618C35.3974 10.6301 36.0536 10.3031 36.6621 9.92901C37.223 9.58405 37.199 9.23063 36.6487 8.85228C36.2904 8.60582 35.8983 8.39495 35.4968 8.22501C34.0887 7.62911 32.6014 7.34511 31.0866 7.18751C28.1266 6.8795 25.1854 6.96439 22.3069 7.76473C21.4449 8.00442 20.6092 8.39343 19.8212 8.82218C19.1415 9.192 19.1585 9.56858 19.8033 9.98346C20.2514 10.2719 20.7377 10.5213 21.2374 10.708C23.487 11.5486 25.8448 11.7344 28.1441 11.787ZM17.4942 31.8421C19.333 31.7766 21.0808 31.6642 22.7574 31.152C23.6822 30.8695 24.5864 30.4733 25.4363 30.0127C26.0885 29.6592 26.0639 29.2678 25.4342 28.8769C24.9339 28.5663 24.3918 28.3016 23.8371 28.1015C22.0209 27.4464 20.1237 27.2255 18.2043 27.125C15.8358 27.0009 13.4943 27.169 11.2045 27.7874C10.432 27.9961 9.67162 28.3036 8.96164 28.6722C7.9083 29.219 7.91784 29.6578 8.93862 30.2412C9.34156 30.4714 9.77221 30.6663 10.2104 30.8214C12.5965 31.6661 15.0791 31.8431 17.4942 31.8421ZM21.1181 5.57457C20.578 5.33014 20.156 5.10685 19.7116 4.94401C18.1167 4.35969 16.4571 4.08711 14.7656 3.9744C12.1159 3.79769 9.48349 3.89915 6.91727 4.61993C6.05555 4.86191 5.21984 5.25067 4.43245 5.68085C3.74455 6.05667 3.76466 6.44213 4.42972 6.87654C4.86369 7.16012 5.33832 7.40835 5.82795 7.57804C9.45383 8.83452 13.1692 8.86065 16.9192 8.31311C17.0315 8.29679 17.1752 8.22061 17.2301 8.12879C17.8915 7.02281 18.9598 6.45684 20.0952 5.97787C20.3918 5.85274 20.6941 5.74113 21.1181 5.57457ZM37.0624 12.588C31.115 14.7502 25.2354 14.6992 19.3071 12.5506C19.3071 13.1797 19.3193 13.7827 19.3024 14.3847C19.2928 14.7283 19.4033 15.0121 19.6937 15.1757C20.2334 15.48 20.7719 15.807 21.3502 16.0194C23.0391 16.64 24.8067 16.8783 26.598 16.9887C29.2092 17.1496 31.7937 16.9977 34.3092 16.2582C35.1135 16.0218 35.8692 15.6069 36.6219 15.2247C36.8174 15.1255 37.0264 14.8506 37.0426 14.6421C37.0954 13.958 37.0624 13.2672 37.0624 12.588ZM8.1468 32.6399C8.1468 33.1777 8.17775 33.7254 8.13803 34.2682C8.09873 34.805 8.3103 35.1936 8.77138 35.4038C9.56609 35.7659 10.3598 36.1728 11.1989 36.3891C14.8873 37.3397 18.6064 37.3279 22.3233 36.5445C23.4199 36.3133 24.4918 35.9734 25.4237 35.3223C25.6195 35.1854 25.8638 34.9575 25.8799 34.7555C25.9356 34.0477 25.9015 33.3328 25.9015 32.6525C19.9784 34.7791 14.1035 34.7834 8.1468 32.6399ZM19.3069 17.8187C19.3069 18.3682 19.3462 18.9154 19.2963 19.4544C19.242 20.0394 19.5115 20.4115 19.9866 20.6468C20.5806 20.9407 21.1811 21.2497 21.8136 21.4346C25.6975 22.5706 29.6208 22.5637 33.5571 21.729C34.6003 21.5077 35.6165 21.1817 36.5087 20.5782C36.7292 20.429 37.0092 20.1839 37.0304 19.9612C37.0975 19.2558 37.0552 18.5401 37.0552 17.8624C31.127 20.0023 25.2462 19.9965 19.3069 17.8187ZM37.0586 23.1224C31.1307 25.2657 25.2382 25.2668 19.3086 23.1135C19.3086 23.5814 19.3154 24.0446 19.3059 24.5074C19.3007 24.7605 19.4499 24.7948 19.6554 24.8252C20.7622 24.9888 21.8804 25.1069 22.9694 25.351C24.5837 25.7127 26.1347 26.2511 27.3805 27.4153C27.4795 27.5079 27.6597 27.5501 27.8042 27.5547C29.7851 27.6174 31.744 27.4436 33.6718 26.9763C34.6814 26.7316 35.6715 26.4236 36.5356 25.8317C36.7524 25.6832 37.0136 25.4281 37.0349 25.2017C37.1 24.5065 37.0586 23.8015 37.0586 23.1224ZM16.9068 16.013C12.4596 16.5589 8.13658 16.4342 3.93199 14.6652C3.93199 15.2299 3.97845 15.7653 3.92006 16.2892C3.84897 16.9275 4.14246 17.3021 4.66371 17.5753C4.80155 17.6475 4.93479 17.7288 5.07501 17.796C6.40547 18.4341 7.82689 18.7508 9.27942 18.947C11.7284 19.2777 14.1769 19.2564 16.6207 18.8932C16.7256 18.8777 16.8924 18.7399 16.8943 18.656C16.9146 17.7866 16.9068 16.9167 16.9068 16.013ZM3.93208 9.39982C3.93208 10.0609 3.94964 10.6653 3.9256 11.2681C3.91102 11.634 4.03778 11.9157 4.34312 12.084C4.8735 12.3763 5.40413 12.6842 5.96886 12.896C7.77822 13.5745 9.6798 13.852 11.5959 13.877C13.2495 13.8986 14.906 13.7356 16.5601 13.6376C16.6796 13.6305 16.8885 13.4906 16.8908 13.4079C16.9152 12.5394 16.9059 11.6698 16.9059 10.7488C12.4692 11.285 8.14766 11.1706 3.93208 9.39982Z" fill="#0696D6"/>
</svg>
