<svg width="24" height="24" viewBox="0 0 24 24" fill="none" xmlns="http://www.w3.org/2000/svg">
    <path fill-rule="evenodd" clip-rule="evenodd" d="M15.583 1.42069C16.895 1.86223 17.7501 3.09676 17.7501 4.71529C17.7501 5.73283 17.1716 6.6694 16.527 7.41662C15.8644 8.18474 15.0257 8.87404 14.2921 9.4088C14.2607 9.43171 14.2295 9.45449 14.1986 9.47709C13.4866 9.99733 12.8992 10.4265 12.0001 10.4265C11.1009 10.4265 10.5135 9.99733 9.80154 9.47708C9.77061 9.45448 9.73944 9.43171 9.708 9.40879C8.97441 8.87403 8.13575 8.18473 7.47311 7.41661C6.82851 6.66939 6.25006 5.73283 6.25006 4.7153C6.25006 3.09677 7.10508 1.86224 8.41713 1.4207C9.5362 1.04409 10.8388 1.29267 12.0001 2.13797C13.1613 1.29267 14.4639 1.04409 15.583 1.42069ZM15.1046 2.84235C14.4525 2.62292 13.4802 2.76488 12.5076 3.65886C12.2206 3.92263 11.7795 3.92263 11.4925 3.65886C10.5199 2.76488 9.5476 2.62292 8.89556 2.84235C8.27008 3.05284 7.75006 3.65666 7.75006 4.7153C7.75006 5.18287 8.03458 5.77107 8.60889 6.43681C9.16518 7.08165 9.90138 7.69352 10.5916 8.19666C11.4347 8.81127 11.6351 8.92652 12.0001 8.92652C12.365 8.92652 12.5654 8.81128 13.4085 8.19667C14.0987 7.69353 14.8349 7.08167 15.3912 6.43683C15.9655 5.77108 16.2501 5.18287 16.2501 4.71529C16.2501 3.65666 15.73 3.05284 15.1046 2.84235ZM8.68397 14.4487C10.5498 14.0872 12.5471 14.1683 14.1633 15.1323C14.3903 15.2677 14.6031 15.4364 14.7888 15.6449C15.1646 16.0671 15.3588 16.5918 15.3679 17.1179C15.5592 16.9945 15.7508 16.8575 15.9454 16.7105L17.7526 15.3453C18.6572 14.662 19.9718 14.6619 20.8765 15.345C21.7125 15.9762 22.0457 17.109 21.4473 18.0682C21.022 18.75 20.3815 19.6929 19.7296 20.2967C19.0707 20.907 18.1329 21.4201 17.4236 21.7625C16.5621 22.1783 15.6316 22.4082 14.7269 22.5546C12.8777 22.8539 10.9535 22.8081 9.12505 22.4315C8.19064 22.2389 7.21961 22.1389 6.25999 22.1389H4.00006C3.58585 22.1389 3.25006 21.8031 3.25006 21.3889C3.25006 20.9747 3.58585 20.6389 4.00006 20.6389H6.25999C7.3221 20.6389 8.39454 20.7494 9.42772 20.9623C11.0798 21.3027 12.8202 21.3437 14.4872 21.0739C15.3161 20.9397 16.0901 20.7405 16.7715 20.4116C17.4549 20.0817 18.2233 19.6473 18.7104 19.1962C19.2029 18.74 19.7541 17.9484 20.1747 17.2743C20.3016 17.0708 20.284 16.7772 19.9727 16.5421C19.6029 16.2629 19.0264 16.263 18.6567 16.5422L16.8496 17.9074C16.1281 18.4523 15.2402 19.0354 14.1388 19.211C14.0276 19.2288 13.9119 19.245 13.7918 19.2593C13.7345 19.2696 13.6749 19.2765 13.6133 19.2788C13.051 19.3347 12.3998 19.3477 11.6813 19.2798C11.2689 19.2409 10.9662 18.875 11.0051 18.4626C11.0441 18.0502 11.41 17.7475 11.8223 17.7865C12.4498 17.8457 13.0127 17.8326 13.4903 17.7836C13.5 17.7826 13.5096 17.7816 13.5192 17.7806C13.5392 17.769 13.5697 17.7479 13.6096 17.7129C13.9291 17.4341 13.9576 16.9672 13.6684 16.6423C13.5951 16.56 13.5049 16.4861 13.3949 16.4205C12.2138 15.716 10.6363 15.5983 8.96927 15.9213C7.31174 16.2424 5.66497 16.9822 4.43392 17.8552C4.09604 18.0948 3.6279 18.0151 3.38828 17.6773C3.14867 17.3394 3.22833 16.8713 3.5662 16.6316C4.96457 15.64 6.80866 14.812 8.68397 14.4487Z" fill="#1B2746"/>
    <path d="M17.7501 4.71529C17.7501 3.09676 16.895 1.86223 15.583 1.42069C14.4639 1.04409 13.1613 1.29267 12.0001 2.13797C10.8388 1.29267 9.53619 1.04409 8.41712 1.4207C7.10507 1.86224 6.25005 3.09677 6.25005 4.7153C6.25005 5.73283 6.8285 6.66939 7.4731 7.41661C8.13574 8.18473 8.9744 8.87403 9.70799 9.40879L9.80153 9.47708C10.5135 9.99733 11.1009 10.4265 12.0001 10.4265C12.8992 10.4265 13.4866 9.99733 14.1986 9.47709L14.2921 9.4088C15.0257 8.87404 15.8644 8.18474 16.527 7.41662C17.1716 6.6694 17.7501 5.73283 17.7501 4.71529Z" fill="#1B2746"/>
</svg>
