<svg width="41" height="40" viewBox="0 0 41 40" fill="none" xmlns="http://www.w3.org/2000/svg">
<path fill-rule="evenodd" clip-rule="evenodd" d="M26.4718 2.36655C28.6584 3.10245 30.0836 5.16 30.0836 7.85755C30.0836 9.55345 29.1194 11.1144 28.0451 12.3598C26.9408 13.64 25.5429 14.7888 24.3203 15.6801C24.2679 15.7183 24.2159 15.7562 24.1644 15.7939C22.9778 16.661 21.9988 17.3763 20.5003 17.3763C19.0016 17.3763 18.0226 16.661 16.836 15.7939C16.7844 15.7562 16.7325 15.7183 16.6801 15.68C15.4574 14.7888 14.0597 13.64 12.9553 12.3598C11.8809 11.1144 10.9169 9.55345 10.9169 7.85757C10.9169 5.16002 12.3419 3.10247 14.5286 2.36657C16.3938 1.73888 18.5648 2.15318 20.5003 3.56202C22.4356 2.15318 24.6066 1.73888 26.4718 2.36655ZM25.6744 4.73598C24.5876 4.37027 22.9671 4.60687 21.3461 6.09683C20.8678 6.53645 20.1326 6.53645 19.6543 6.09683C18.0333 4.60687 16.4128 4.37027 15.326 4.73598C14.2836 5.0868 13.4169 6.09317 13.4169 7.85757C13.4169 8.63685 13.8911 9.61718 14.8482 10.7268C15.7754 11.8015 17.0024 12.8213 18.1528 13.6598C19.5579 14.6842 19.8919 14.8763 20.5003 14.8763C21.1084 14.8763 21.4424 14.6842 22.8476 13.6599C23.9979 12.8213 25.2249 11.8015 26.1521 10.7268C27.1093 9.6172 27.5836 8.63685 27.5836 7.85755C27.5836 6.09317 26.7168 5.0868 25.6744 4.73598ZM14.9734 24.08C18.0831 23.4775 21.4119 23.6126 24.1056 25.2193C24.4839 25.445 24.8386 25.7261 25.1481 26.0736C25.7744 26.7773 26.0981 27.6518 26.1133 28.5286C26.4321 28.323 26.7514 28.0946 27.0758 27.8496L30.0877 25.5743C31.5954 24.4355 33.7864 24.4353 35.2943 25.5738C36.6876 26.6258 37.2429 28.5138 36.2456 30.1125C35.5368 31.2488 34.4693 32.8203 33.3828 33.8266C32.2846 34.8438 30.7216 35.699 29.5394 36.2696C28.1036 36.9626 26.5528 37.3458 25.0449 37.5898C21.9629 38.0886 18.7559 38.0123 15.7085 37.3846C14.1512 37.0636 12.5328 36.897 10.9334 36.897H7.16685C6.4765 36.897 5.91685 36.3373 5.91685 35.647C5.91685 34.9566 6.4765 34.397 7.16685 34.397H10.9334C12.7036 34.397 14.491 34.5811 16.213 34.936C18.9664 35.5033 21.8671 35.5716 24.6454 35.122C26.0269 34.8983 27.3169 34.5663 28.4526 34.0181C29.5916 33.4683 30.8723 32.7443 31.6841 31.9925C32.5049 31.2321 33.4236 29.9128 34.1246 28.7893C34.3361 28.4501 34.3068 27.9608 33.7879 27.569C33.1716 27.1036 32.2108 27.1038 31.5946 27.5691L28.5828 29.8445C27.3803 30.7526 25.9004 31.7245 24.0648 32.0171C23.8794 32.0468 23.6866 32.0738 23.4864 32.0976C23.3909 32.1148 23.2916 32.1263 23.1889 32.1301C22.2518 32.2233 21.1664 32.245 19.9689 32.1318C19.2816 32.067 18.7771 31.4571 18.8419 30.7698C18.9069 30.0825 19.5168 29.578 20.2039 29.643C21.2498 29.7416 22.1879 29.7198 22.9839 29.6381C23.0001 29.6365 23.0161 29.6348 23.0321 29.6331C23.0654 29.6138 23.1163 29.5786 23.1828 29.5203C23.7153 29.0556 23.7628 28.2775 23.2808 27.736C23.1586 27.5988 23.0083 27.4756 22.8249 27.3663C20.8564 26.1921 18.2273 25.996 15.4489 26.5343C12.6863 27.0695 9.9417 28.3025 7.88995 29.7575C7.32682 30.1568 6.54659 30.024 6.14722 29.461C5.74787 28.8978 5.88064 28.1176 6.44375 27.7181C8.77437 26.0655 11.8479 24.6855 14.9734 24.08Z" fill="#1C274C"/>
<path d="M30.0835 7.85755C30.0835 5.16 28.6583 3.10245 26.4716 2.36655C24.6065 1.73888 22.4355 2.15318 20.5001 3.56201C18.5646 2.15318 16.3936 1.73888 14.5285 2.36656C12.3418 3.10246 10.9167 5.16001 10.9167 7.85756C10.9167 9.55345 11.8808 11.1144 12.9552 12.3597C14.0596 13.6399 15.4573 14.7888 16.68 15.68L16.8359 15.7939C18.0225 16.6609 19.0015 17.3763 20.5001 17.3763C21.9986 17.3763 22.9776 16.6609 24.1643 15.7939L24.3201 15.6801C25.5428 14.7888 26.9406 13.64 28.045 12.3598C29.1193 11.1144 30.0835 9.55345 30.0835 7.85755Z" fill="#0696D6"/>
</svg>
