<svg width="17" height="16" viewBox="0 0 17 16" fill="none" xmlns="http://www.w3.org/2000/svg">
<path fill-rule="evenodd" clip-rule="evenodd" d="M5.16659 1.1665C5.44273 1.1665 5.66659 1.39036 5.66659 1.6665V2.17498C6.10794 2.1665 6.59418 2.1665 7.12897 2.1665H9.87085C10.4057 2.1665 10.8919 2.1665 11.3333 2.17498V1.6665C11.3333 1.39036 11.5571 1.1665 11.8333 1.1665C12.1094 1.1665 12.3333 1.39036 12.3333 1.6665V2.2179C12.5065 2.23111 12.6707 2.24772 12.8259 2.26859C13.6075 2.37368 14.2402 2.59509 14.7391 3.094C15.238 3.59291 15.4594 4.22554 15.5645 5.00716C15.5981 5.25695 15.6206 5.52956 15.6357 5.82655C15.6557 5.88054 15.6666 5.93891 15.6666 5.99984C15.6666 6.04605 15.6603 6.0908 15.6486 6.13328C15.6666 6.6679 15.6666 7.27504 15.6666 7.96224V9.37077C15.6666 10.596 15.6666 11.5664 15.5645 12.3258C15.4594 13.1074 15.238 13.7401 14.7391 14.239C14.2402 14.7379 13.6075 14.9593 12.8259 15.0644C12.0665 15.1665 11.0961 15.1665 9.87085 15.1665H7.12898C5.90381 15.1665 4.93338 15.1665 4.17391 15.0644C3.39229 14.9593 2.75966 14.7379 2.26075 14.239C1.76184 13.7401 1.54043 13.1074 1.43535 12.3258C1.33323 11.5664 1.33324 10.596 1.33325 9.37077V7.96224C1.33325 7.27497 1.33324 6.6679 1.35126 6.13328C1.33953 6.0908 1.33325 6.04605 1.33325 5.99984C1.33325 5.93892 1.34415 5.88054 1.3641 5.82654C1.37922 5.52956 1.40176 5.25694 1.43535 5.00716C1.54043 4.22554 1.76184 3.59291 2.26075 3.094C2.75966 2.59509 3.39229 2.37368 4.17391 2.26859C4.32919 2.24772 4.49329 2.23111 4.66659 2.2179V1.6665C4.66659 1.39036 4.89045 1.1665 5.16659 1.1665ZM2.34198 6.49984C2.33347 6.93497 2.33325 7.4305 2.33325 7.99984V9.33317C2.33325 10.6044 2.33431 11.5075 2.42643 12.1926C2.5166 12.8633 2.68571 13.2498 2.96785 13.5319C3.24999 13.814 3.63643 13.9832 4.30715 14.0733C4.99226 14.1654 5.89537 14.1665 7.16658 14.1665H9.83325C11.1045 14.1665 12.0076 14.1654 12.6927 14.0733C13.3634 13.9832 13.7499 13.814 14.032 13.5319C14.3141 13.2498 14.4833 12.8633 14.5734 12.1926C14.6655 11.5075 14.6666 10.6044 14.6666 9.33317V7.99984C14.6666 7.4305 14.6664 6.93497 14.6579 6.49984H2.34198ZM14.6121 5.49984H2.38771C2.39839 5.37358 2.41115 5.25399 2.42643 5.1404C2.5166 4.46968 2.68571 4.08324 2.96785 3.8011C3.24999 3.51896 3.63643 3.34985 4.30715 3.25968C4.99226 3.16756 5.89537 3.1665 7.16658 3.1665H9.83325C11.1045 3.1665 12.0076 3.16756 12.6927 3.25968C13.3634 3.34985 13.7499 3.51896 14.032 3.8011C14.3141 4.08324 14.4833 4.46968 14.5734 5.1404C14.5887 5.25399 14.6015 5.37358 14.6121 5.49984ZM11.1666 8.83317C11.4427 8.83317 11.6666 9.05704 11.6666 9.33317V10.1665H12.4999C12.7761 10.1665 12.9999 10.3904 12.9999 10.6665C12.9999 10.9426 12.7761 11.1665 12.4999 11.1665H11.6666V11.9998C11.6666 12.276 11.4427 12.4998 11.1666 12.4998C10.8905 12.4998 10.6666 12.276 10.6666 11.9998V11.1665H9.83325C9.55712 11.1665 9.33325 10.9426 9.33325 10.6665C9.33325 10.3904 9.55712 10.1665 9.83325 10.1665H10.6666V9.33317C10.6666 9.05704 10.8905 8.83317 11.1666 8.83317Z" fill="#1C274C"/>
</svg>
