<svg width="40" height="40" viewBox="0 0 40 40" fill="none" xmlns="http://www.w3.org/2000/svg">
<path fill-rule="evenodd" clip-rule="evenodd" d="M36.0951 10.2372L36.0951 10.2358V10.2354C36.1049 9.46655 36.1145 8.71283 36.0704 7.9625C36.0282 7.23479 35.4787 6.75521 34.6359 6.72356C33.6293 6.68548 32.6207 6.69357 31.6064 6.70171C31.1793 6.70514 30.7513 6.70858 30.322 6.70858C30.3069 6.77003 30.2923 6.82978 30.2779 6.88839C30.2523 6.99341 30.2275 7.09476 30.2022 7.19564C30.0241 7.90436 29.4381 8.3039 28.6769 8.23482C27.9429 8.16803 27.4194 7.68213 27.4078 6.96018C27.3835 5.39768 27.3841 3.83346 27.4061 2.27039C27.4148 1.62732 27.9973 1.08614 28.6694 1.00958C29.3595 0.930699 29.994 1.34522 30.1837 2.02227C30.2474 2.25024 30.2722 2.49377 30.2821 2.73155C30.2934 2.9912 30.2912 3.25167 30.2888 3.53211C30.2878 3.65399 30.2867 3.77964 30.2867 3.91062C30.5201 3.91062 30.7503 3.90878 30.9784 3.90697L30.9802 3.90695C31.4858 3.90291 31.9806 3.89895 32.4749 3.91521C32.7458 3.9241 33.018 3.92781 33.2904 3.93151L33.2909 3.93152C34.0774 3.94223 34.8656 3.95296 35.6303 4.0885C37.5929 4.43681 38.9852 6.1795 38.9904 8.16514C39.0001 12.1377 38.999 16.1102 38.998 20.0827C38.9976 21.325 38.9973 22.5673 38.9973 23.8097C38.9973 24.7634 38.998 25.7172 38.9987 26.6709C39.0006 29.363 39.0024 32.0549 38.9892 34.7471C38.9782 37.0275 37.14 38.9372 34.843 38.9712C32.9798 38.9994 31.1162 38.9863 29.2525 38.9732L29.2489 38.9732C28.185 38.9657 27.1211 38.9583 26.0572 38.9585C24.7146 38.9588 23.372 38.9679 22.0294 38.977C21.0363 38.9837 20.0432 38.9904 19.0501 38.9936C17.0127 39.0002 14.9757 39.0001 12.9385 39L12.1181 38.9999H11.7235C9.66913 39 7.61481 39 5.56102 38.9919C3.19351 38.9827 1.56058 37.6568 1.08569 35.3488C1.02092 35.0346 1.02118 34.7046 1.02145 34.38L1.02147 34.3188C1.02044 31.7449 1.02241 29.171 1.02441 26.5971C1.02903 20.6036 1.03366 14.6099 1.00008 8.61651C0.986779 6.187 2.53987 3.92096 5.68539 3.91694C6.365 3.91624 7.04482 3.91493 7.7246 3.91362C8.17767 3.91275 8.63072 3.91188 9.08367 3.91118H9.73325C9.73325 3.76441 9.73209 3.62098 9.73095 3.47986L9.73094 3.47874C9.72847 3.17466 9.72609 2.88128 9.73557 2.58818C9.7668 1.59046 10.4164 0.945661 11.3124 1.00899C12.0464 1.06081 12.611 1.63307 12.6156 2.36653C12.626 3.85418 12.6277 5.34242 12.6173 6.83064C12.6115 7.62801 12.1251 8.16228 11.3806 8.23425C10.5535 8.3137 9.99529 7.91184 9.80152 7.10007C9.78285 7.02152 9.76078 6.94401 9.73339 6.84777C9.72003 6.80084 9.7054 6.74945 9.68928 6.69132H8.58913C8.32261 6.69132 8.05616 6.691 7.7897 6.69068L7.78092 6.69067C7.099 6.68988 6.41721 6.68909 5.73513 6.69362C4.47472 6.70226 3.9125 7.26588 3.90845 8.51461C3.90684 9.12988 3.90719 9.74514 3.90755 10.3838C3.90771 10.6642 3.90787 10.9492 3.90787 11.2406H36.0866C36.0866 10.9027 36.0909 10.5686 36.0951 10.2372ZM3.90728 13.6183V30.0372C3.90728 30.4743 3.90682 30.9114 3.90634 31.3485L3.90633 31.36C3.90526 32.3768 3.90418 33.3937 3.90902 34.4109C3.91481 35.5422 4.47762 36.1018 5.60382 36.1087C6.12745 36.112 6.65107 36.1115 7.1747 36.1109L7.2219 36.1108C7.40732 36.1106 7.59273 36.1104 7.77816 36.1104C16.5669 36.1104 25.3556 36.1104 34.1443 36.1087C34.1707 36.1087 34.1972 36.1088 34.2238 36.109C34.2388 36.1091 34.2539 36.1092 34.2689 36.1093C34.4999 36.111 34.7341 36.1128 34.9541 36.0621C35.7535 35.8767 36.1063 35.3303 36.1069 34.3177C36.1083 29.4868 36.1082 24.6556 36.1081 19.8246L36.108 16.2373V13.6189C25.3758 13.6183 14.6765 13.6183 3.90728 13.6183ZM15.0698 4.00439V6.6642H24.9385V4.00439H15.0698Z" fill="#1B2746"/>
<rect x="23" y="23" width="8" height="8" fill="#0696D6"/>
</svg>
