<svg width="38" height="38" viewBox="0 0 38 38" fill="none" xmlns="http://www.w3.org/2000/svg">
<path fill-rule="evenodd" clip-rule="evenodd" d="M35.0951 9.23723L35.0951 9.23581V9.23541C35.1049 8.46655 35.1145 7.71283 35.0704 6.9625C35.0282 6.23479 34.4787 5.75521 33.6359 5.72356C32.6293 5.68548 31.6207 5.69357 30.6064 5.70171C30.1793 5.70514 29.7513 5.70858 29.322 5.70858C29.3069 5.77003 29.2923 5.82978 29.2779 5.88839C29.2523 5.99341 29.2275 6.09476 29.2022 6.19564C29.0241 6.90436 28.4381 7.3039 27.6769 7.23482C26.9429 7.16803 26.4194 6.68213 26.4078 5.96018C26.3835 4.39768 26.3841 2.83346 26.4061 1.27039C26.4148 0.627319 26.9973 0.0861401 27.6694 0.00957924C28.3595 -0.069301 28.994 0.345224 29.1837 1.02227C29.2474 1.25024 29.2722 1.49377 29.2821 1.73155C29.2934 1.9912 29.2912 2.25167 29.2888 2.53211C29.2878 2.65399 29.2867 2.77964 29.2867 2.91062C29.5201 2.91062 29.7503 2.90878 29.9784 2.90697L29.9802 2.90695C30.4858 2.90291 30.9806 2.89895 31.4749 2.91521C31.7458 2.9241 32.018 2.92781 32.2904 2.93151L32.2909 2.93152C33.0774 2.94223 33.8656 2.95296 34.6303 3.0885C36.5929 3.43681 37.9852 5.1795 37.9904 7.16514C38.0001 11.1377 37.999 15.1102 37.998 19.0827C37.9976 20.325 37.9973 21.5673 37.9973 22.8097C37.9973 23.7634 37.998 24.7172 37.9987 25.6709C38.0006 28.363 38.0024 31.0549 37.9892 33.7471C37.9782 36.0275 36.14 37.9372 33.843 37.9712C31.9798 37.9994 30.1162 37.9863 28.2525 37.9732L28.2489 37.9732C27.185 37.9657 26.1211 37.9583 25.0572 37.9585C23.7146 37.9588 22.372 37.9679 21.0294 37.977C20.0363 37.9837 19.0432 37.9904 18.0501 37.9936C16.0127 38.0002 13.9757 38.0001 11.9385 38L11.1181 37.9999H10.7235C8.66913 38 6.61481 38 4.56102 37.9919C2.19351 37.9827 0.560583 36.6568 0.0856881 34.3488C0.0209245 34.0346 0.0211764 33.7046 0.0214513 33.38L0.0214742 33.3188C0.0204436 30.7449 0.0224131 28.171 0.0244055 25.5971C0.0290314 19.6036 0.0336574 13.6099 8.47628e-05 7.61651C-0.0132206 5.187 1.53987 2.92096 4.68539 2.91694C5.365 2.91624 6.04482 2.91493 6.7246 2.91362C7.17767 2.91275 7.63072 2.91188 8.08367 2.91118H8.73325C8.73325 2.76441 8.73209 2.62098 8.73095 2.47986L8.73094 2.47874C8.72847 2.17466 8.72609 1.88128 8.73557 1.58818C8.7668 0.590459 9.41639 -0.054339 10.3124 0.00898804C11.0464 0.0608093 11.611 0.633072 11.6156 1.36653C11.626 2.85418 11.6277 4.34242 11.6173 5.83064C11.6115 6.62801 11.1251 7.16228 10.3806 7.23425C9.55347 7.3137 8.99529 6.91184 8.80152 6.10007C8.78285 6.02152 8.76078 5.94401 8.73339 5.84777C8.72003 5.80084 8.7054 5.74945 8.68928 5.69132H7.58913C7.32261 5.69132 7.05616 5.691 6.7897 5.69068L6.78092 5.69067C6.099 5.68988 5.41721 5.68909 4.73513 5.69362C3.47472 5.70226 2.9125 6.26588 2.90845 7.51461C2.90684 8.12988 2.90719 8.74514 2.90755 9.38377C2.90771 9.66421 2.90787 9.94919 2.90787 10.2406H35.0866C35.0866 9.90272 35.0909 9.56857 35.0951 9.23723ZM2.90728 12.6183V29.0372C2.90728 29.4743 2.90682 29.9114 2.90634 30.3485L2.90633 30.36C2.90526 31.3768 2.90418 32.3937 2.90902 33.4109C2.91481 34.5422 3.47762 35.1018 4.60382 35.1087C5.12745 35.112 5.65107 35.1115 6.1747 35.1109L6.2219 35.1108C6.40732 35.1106 6.59273 35.1104 6.77816 35.1104C15.5669 35.1104 24.3556 35.1104 33.1443 35.1087C33.1707 35.1087 33.1972 35.1088 33.2238 35.109C33.2388 35.1091 33.2539 35.1092 33.2689 35.1093C33.4999 35.111 33.7341 35.1128 33.9541 35.0621C34.7535 34.8767 35.1063 34.3303 35.1069 33.3177C35.1083 28.4868 35.1082 23.6556 35.1081 18.8246L35.108 15.2373V12.6189C24.3758 12.6183 13.6765 12.6183 2.90728 12.6183ZM14.0698 3.00439V5.6642H23.9385V3.00439H14.0698Z" fill="#1B2746"/>
<path fill-rule="evenodd" clip-rule="evenodd" d="M16.5729 25.6872C18.4551 23.8823 20.269 22.1436 22.0824 20.4044C22.8535 19.6646 23.6141 18.9133 24.3962 18.185C25.1331 17.4982 26.1986 17.5218 26.8701 18.2155C27.5047 18.8713 27.4844 19.9674 26.7857 20.6468C24.0335 23.3204 21.2703 25.9825 18.5118 28.6492C18.2954 28.8588 18.0883 29.0776 17.8685 29.2831C17.1397 29.9653 16.1379 30.012 15.4253 29.3228C14.0509 27.9941 12.706 26.6342 11.3641 25.2732C10.8579 24.7597 10.6827 24.1207 10.8874 23.424C11.2409 22.2231 12.7639 21.8598 13.7032 22.7608C14.5177 23.5421 15.2991 24.3579 16.0922 25.161C16.2495 25.3199 16.3947 25.4914 16.5729 25.6872Z" fill="#0696D6"/>
</svg>
