<svg width="40" height="40" viewBox="0 0 40 40" fill="none" xmlns="http://www.w3.org/2000/svg">
<path opacity="0.2" d="M4.55172 3.27551C4.55172 3.27551 2 3.27551 2 5.82724V36.4479C2 38.9996 4.55172 38.9996 4.55172 38.9996H24.9655L37.7241 26.241V5.82724C37.7241 3.27551 35.1724 3.27551 35.1724 3.27551H4.55172Z" fill="black"/>
<path d="M4.55172 2C4.55172 2 2 2 2 4.55172V35.1724C2 37.7241 4.55172 37.7241 4.55172 37.7241H24.9655L37.7241 24.9655V4.55172C37.7241 2 35.1724 2 35.1724 2H4.55172Z" fill="#0696D6"/>
<path opacity="0.2" d="M11.1968 13.9148C10.5615 13.9342 10.0335 13.9917 9.74032 13.9917V15.9124C10.6541 15.9124 11.9392 15.7409 12.92 15.9499C13.4104 16.0544 13.7755 16.2333 14.0091 16.4863C14.2428 16.7394 14.4185 17.0939 14.4185 17.8331C14.4185 18.6139 14.2575 19.0271 14.0841 19.2661C13.9107 19.5051 13.6914 19.6358 13.344 19.7275C12.8704 19.8525 12.1766 19.7799 11.5257 19.7463C11.2661 19.7352 10.9152 19.6771 10.7289 19.6862C10.6182 19.6917 10.524 19.6987 10.4329 19.7106C10.3874 19.7166 10.3432 19.7245 10.2867 19.7369C10.2302 19.7493 10.1927 19.7292 9.98154 19.8532C9.95514 19.8687 9.92544 19.8885 9.89017 19.9151C9.8549 19.9417 9.76816 20.0234 9.76773 20.0239C9.7673 20.0243 9.62178 20.2279 9.62154 20.2283C9.6213 20.2288 9.51195 20.573 9.51189 20.5734C9.51184 20.5739 9.55013 20.9857 9.55027 20.9861C9.55041 20.9865 9.70527 21.2858 9.7056 21.2862C9.70593 21.2866 9.81718 21.411 9.86458 21.4494C9.91199 21.4877 9.95188 21.5154 9.98702 21.5357C10.2681 21.6975 10.2977 21.6492 10.3598 21.6576C10.4839 21.6744 10.5617 21.6745 10.676 21.6745C10.8206 21.6745 11.2306 21.6343 11.4489 21.652C11.7274 21.6647 11.9475 21.6518 12.2822 21.7157C12.8703 21.828 13.463 22.048 13.8392 22.3478C14.2154 22.6477 14.4185 22.948 14.4185 23.5952C14.4185 24.2927 14.2362 24.6021 13.9287 24.8763C13.6213 25.1505 13.1072 25.3609 12.4814 25.4727C11.2299 25.6964 9.7185 25.5159 8.80469 25.5159V27.4366C9.39107 27.4366 11.155 27.6598 12.8031 27.3653C13.6271 27.2181 14.4688 26.9381 15.1549 26.3262C15.8411 25.7143 16.2897 24.7424 16.2897 23.5952C16.2897 22.3977 15.7222 21.4166 14.9868 20.8304C14.9804 20.8253 14.9731 20.8261 14.9667 20.821C15.1686 20.6615 15.4211 20.639 15.5844 20.414C16.0537 19.767 16.2897 18.8969 16.2897 17.8331C16.2897 16.7275 15.9514 15.7989 15.3669 15.1658C14.7824 14.5328 14.0256 14.2232 13.3001 14.0686C12.5746 13.914 11.832 13.8953 11.1968 13.9148ZM22.83 13.9917L20.0323 14.952V16.8727L22.8392 15.9124L22.8483 25.5159H20.0323V27.4366H27.5173V25.5159H24.7104V13.9917H22.83Z" fill="black"/>
<path d="M12.8977 13.9148C12.2624 13.9342 11.7344 13.9917 11.4412 13.9917V15.9124C12.3551 15.9124 13.6401 15.7409 14.6209 15.9499C15.1113 16.0544 15.4764 16.2333 15.7101 16.4863C15.9437 16.7394 16.1194 17.0939 16.1194 17.8331C16.1194 18.6139 15.9584 19.0271 15.785 19.2661C15.6116 19.5051 15.3924 19.6358 15.0449 19.7275C14.5713 19.8525 13.8775 19.7799 13.2266 19.7463C12.9671 19.7352 12.6161 19.6771 12.4299 19.6862C12.3192 19.6917 12.2249 19.6987 12.1338 19.7106C12.0883 19.7166 12.0441 19.7245 11.9876 19.7369C11.9312 19.7493 11.8936 19.7292 11.6825 19.8532C11.6561 19.8687 11.6264 19.8885 11.5911 19.9151C11.5558 19.9417 11.4691 20.0234 11.4687 20.0239C11.4682 20.0243 11.3227 20.2279 11.3225 20.2283C11.3222 20.2288 11.2129 20.573 11.2128 20.5734C11.2128 20.5739 11.2511 20.9857 11.2512 20.9861C11.2513 20.9865 11.4062 21.2858 11.4065 21.2862C11.4069 21.2866 11.5181 21.411 11.5655 21.4494C11.6129 21.4877 11.6528 21.5154 11.6879 21.5357C11.969 21.6975 11.9987 21.6492 12.0607 21.6576C12.1849 21.6744 12.2627 21.6745 12.3769 21.6745C12.5215 21.6745 12.9315 21.6343 13.1499 21.652C13.4283 21.6647 13.6484 21.6518 13.9832 21.7157C14.5712 21.828 15.1639 22.048 15.5401 22.3478C15.9163 22.6477 16.1194 22.948 16.1194 23.5952C16.1194 24.2927 15.9371 24.6021 15.6297 24.8763C15.3222 25.1505 14.8081 25.3609 14.1824 25.4727C12.9308 25.6964 11.4194 25.5159 10.5056 25.5159V27.4366C11.092 27.4366 12.8559 27.6598 14.504 27.3653C15.328 27.2181 16.1697 26.9381 16.8559 26.3262C17.542 25.7143 17.9907 24.7424 17.9907 23.5952C17.9907 22.3977 17.4231 21.4166 16.6877 20.8304C16.6814 20.8253 16.674 20.8261 16.6676 20.821C16.8695 20.6615 17.122 20.639 17.2853 20.414C17.7546 19.767 17.9907 18.8969 17.9907 17.8331C17.9907 16.7275 17.6524 15.7989 17.0678 15.1658C16.4833 14.5328 15.7265 14.2232 15.001 14.0686C14.2755 13.914 13.533 13.8953 12.8977 13.9148ZM24.531 13.9917L21.7332 14.952V16.8727L24.5401 15.9124L24.5493 25.5159H21.7332V27.4366H29.2183V25.5159H26.4114V13.9917H24.531Z" fill="white"/>
<path opacity="0.2" d="M37.7237 24.9651H26.8789C25.8219 24.9651 24.9651 25.8219 24.9651 26.8789V37.7237L37.7237 24.9651Z" fill="black"/>
<path d="M37.7237 24.9651H26.8789C25.8225 24.9651 24.9651 25.8225 24.9651 26.8789V37.7237L37.7237 24.9651Z" fill="#84CCEC"/>
<path opacity="0.1" d="M26.8789 24.9651C25.8225 24.9651 24.9651 25.8225 24.9651 26.8789V28.1547C24.9651 27.0983 25.8225 26.2409 26.8789 26.2409H36.4478L37.7237 24.9651H26.8789Z" fill="white"/>
<path d="M9.01755 8.37947C10.0745 8.37947 10.9313 7.52263 10.9313 6.46567C10.9313 5.40871 10.0745 4.55188 9.01755 4.55188C7.96059 4.55188 7.10376 5.40871 7.10376 6.46567C7.10376 7.52263 7.96059 8.37947 9.01755 8.37947Z" fill="white"/>
<path opacity="0.5" d="M4.55172 2C4.55172 2 2 2 2 4.55172V5.82759C2 3.27586 4.55172 3.27586 4.55172 3.27586H35.1724C35.1724 3.27586 37.7241 3.27586 37.7241 5.82759V4.55172C37.7241 2 35.1724 2 35.1724 2H4.55172Z" fill="white"/>
<path d="M30.7072 8.37947C31.7642 8.37947 32.621 7.52263 32.621 6.46567C32.621 5.40871 31.7642 4.55188 30.7072 4.55188C29.6503 4.55188 28.7935 5.40871 28.7935 6.46567C28.7935 7.52263 29.6503 8.37947 30.7072 8.37947Z" fill="white"/>
</svg>
