<svg width="11" height="11" viewBox="0 0 11 11" fill="none" xmlns="http://www.w3.org/2000/svg">
<path fill-rule="evenodd" clip-rule="evenodd" d="M6.07159 2.13402C5.92692 2.27866 5.73073 2.35991 5.52619 2.35991C5.32162 2.35991 5.12543 2.27866 4.98079 2.13402C4.83612 1.98936 4.75487 1.79317 4.75487 1.58862C4.75487 0.971581 5.52619 0.274902 5.52619 0.274902C5.52619 0.274902 6.29748 0.971581 6.29748 1.58862C6.29748 1.79317 6.21623 1.98936 6.07159 2.13402ZM6.02379 4.25585H8.5119C9.61121 4.25585 10.5024 5.14702 10.5024 6.24633V10.7249H0.549988V6.24633C0.549988 5.14702 1.44116 4.25585 2.54047 4.25585H5.02856V2.76299H6.02379V4.25585ZM9.50716 7.24159C9.25677 7.21102 9.02731 7.08651 8.86523 6.89323C8.53546 6.48685 8.04002 6.25086 7.51667 6.25086C6.99332 6.25086 6.49788 6.48685 6.16812 6.89323C6.02665 7.1102 5.78519 7.24101 5.52619 7.24101C5.26721 7.24101 5.02572 7.1102 4.88426 6.89323C4.55449 6.48685 4.05905 6.25086 3.53573 6.25086C3.01238 6.25086 2.51694 6.48685 2.18717 6.89323C2.02506 7.08651 1.79563 7.21102 1.54524 7.24159V6.24633C1.54524 5.69669 1.99083 5.2511 2.54047 5.2511H8.5119C9.06157 5.2511 9.50716 5.69669 9.50716 6.24633V7.24159ZM1.54524 8.23682V9.72967H9.50716V8.23682C8.98753 8.21685 8.49938 7.98268 8.1586 7.58991C8.01714 7.37295 7.77568 7.24213 7.51667 7.24213C7.25767 7.24213 7.01621 7.37295 6.87474 7.58991C6.54498 7.99629 6.04954 8.23229 5.52619 8.23229C5.00286 8.23229 4.50742 7.99629 4.17766 7.58991C4.03619 7.37295 3.79471 7.24213 3.53573 7.24213C3.27672 7.24213 3.03526 7.37295 2.8938 7.58991C2.55302 7.98268 2.06484 8.21685 1.54524 8.23682Z" fill="#7C878E"/>
</svg>
