<svg width="38" height="38" viewBox="0 0 38 38" fill="none" xmlns="http://www.w3.org/2000/svg">
<path d="M34.3486 32.3891L23.8392 13.5969C23.6017 13.1516 23.4533 12.6469 23.4533 12.1422V4.15625H24.1955C25.0267 4.15625 25.6799 3.50312 25.6799 2.67188C25.6799 1.84062 25.0267 1.1875 24.1955 1.1875H23.4533H14.5471H13.8049C12.9736 1.1875 12.3205 1.84062 12.3205 2.67188C12.3205 3.50312 12.9736 4.15625 13.8049 4.15625H14.5471V12.1422C14.5471 12.6469 14.4283 13.1516 14.1611 13.5969L3.65174 32.3891C2.5533 34.3781 3.9783 36.8125 6.23455 36.8125H31.7658C34.0221 36.8125 35.447 34.3781 34.3486 32.3891Z" fill="white"/>
<path opacity="0.2" d="M23.4531 4.15625H14.5469V5.9375H23.4531V4.15625Z" fill="#502D4B"/>
<path d="M3.65174 32.3891C2.5533 34.3781 3.9783 36.8125 6.23455 36.8125H31.7658C34.0221 36.8125 35.4767 34.3781 34.3486 32.3891L26.8674 19H11.133L3.65174 32.3891Z" fill="#90D3EA"/>
<path d="M31.7659 37.1686H6.23465C5.04715 37.1686 3.94872 36.5451 3.35497 35.5061C2.76122 34.467 2.73153 33.2201 3.32528 32.1811L13.8347 13.3889C14.0425 13.0029 14.1612 12.5576 14.1612 12.1123V4.5123H13.805C12.7956 4.5123 11.9643 3.68105 11.9643 2.67168C11.9643 1.6623 12.7956 0.831055 13.805 0.831055H24.1956C25.205 0.831055 26.0362 1.6623 26.0362 2.67168C26.0362 3.68105 25.205 4.5123 24.1956 4.5123H23.8393V12.1123C23.8393 12.5576 23.9581 13.0029 24.1659 13.3889L34.6753 32.1811C35.269 33.2201 35.2393 34.467 34.6456 35.5061C34.0222 36.5748 32.9534 37.1686 31.7659 37.1686ZM13.805 1.54355C13.1815 1.54355 12.6768 2.04824 12.6768 2.67168C12.6768 3.29512 13.1815 3.7998 13.805 3.7998H14.5472C14.755 3.7998 14.9034 3.97793 14.9034 4.15605V12.142C14.9034 12.7061 14.755 13.2701 14.4878 13.7748L3.9784 32.567C3.53309 33.3686 3.53309 34.3482 4.00809 35.1498C4.48309 35.9514 5.31434 36.4264 6.23465 36.4264H31.7659C32.6862 36.4264 33.5472 35.9514 33.9925 35.1498C34.4675 34.3482 34.4675 33.3686 34.0222 32.567L23.5128 13.7748C23.2456 13.2701 23.0972 12.7061 23.0972 12.142V4.15605C23.0972 3.94824 23.2753 3.7998 23.4534 3.7998H24.1956C24.819 3.7998 25.3237 3.29512 25.3237 2.67168C25.3237 2.04824 24.819 1.54355 24.1956 1.54355H13.805Z" fill="#1B2746"/>
<g opacity="0.8">
<path opacity="0.8" d="M5.2252 33.9922C5.10645 33.9922 4.9877 33.9625 4.86895 33.9031C4.5127 33.6953 4.39395 33.25 4.57207 32.8938L15.0814 14.1016C15.408 13.5078 15.5861 12.825 15.5861 12.1422V5.64062C15.5861 5.225 15.9127 4.89844 16.3283 4.89844C16.7439 4.89844 17.0705 5.225 17.0705 5.64062V12.1422C17.0705 13.0922 16.833 14.0125 16.358 14.8141L5.84863 33.6062C5.72988 33.8734 5.4627 33.9922 5.2252 33.9922Z" fill="white"/>
</g>
<path d="M18.5547 23.1562C19.5384 23.1562 20.3359 22.3588 20.3359 21.375C20.3359 20.3912 19.5384 19.5938 18.5547 19.5938C17.5709 19.5938 16.7734 20.3912 16.7734 21.375C16.7734 22.3588 17.5709 23.1562 18.5547 23.1562Z" fill="white"/>
<path d="M21.5234 28.2031C22.4252 28.2031 23.1562 27.4721 23.1562 26.5703C23.1562 25.6685 22.4252 24.9375 21.5234 24.9375C20.6217 24.9375 19.8906 25.6685 19.8906 26.5703C19.8906 27.4721 20.6217 28.2031 21.5234 28.2031Z" fill="white"/>
<path d="M18.5547 32.9531C18.9646 32.9531 19.2969 32.6208 19.2969 32.2109C19.2969 31.801 18.9646 31.4688 18.5547 31.4688C18.1448 31.4688 17.8125 31.801 17.8125 32.2109C17.8125 32.6208 18.1448 32.9531 18.5547 32.9531Z" fill="white"/>
<path d="M20.9297 35.625C21.1756 35.625 21.375 35.4256 21.375 35.1797C21.375 34.9337 21.1756 34.7344 20.9297 34.7344C20.6837 34.7344 20.4844 34.9337 20.4844 35.1797C20.4844 35.4256 20.6837 35.625 20.9297 35.625Z" fill="white"/>
<path d="M23.4529 4.5123H14.5467C14.3389 4.5123 14.1904 4.33418 14.1904 4.15605C14.1904 3.97793 14.3686 3.7998 14.5467 3.7998H23.4529C23.6607 3.7998 23.8092 3.97793 23.8092 4.15605C23.8092 4.33418 23.6607 4.5123 23.4529 4.5123Z" fill="#1B2746"/>
</svg>
