<svg width="40" height="40" viewBox="0 0 40 40" fill="none" xmlns="http://www.w3.org/2000/svg">
<path fill-rule="evenodd" clip-rule="evenodd" d="M19.9167 2C20.607 2 21.1667 2.55965 21.1667 3.25V3.66905C21.352 3.67185 21.5102 3.67792 21.6577 3.69097C24.6747 3.95775 27.066 6.34922 27.3328 9.36613C27.3572 9.64187 27.3572 9.95427 27.3572 10.4131V12.4517C27.3572 18.9005 22.4503 24.2032 16.1667 24.8302V28.2502C16.1667 32.1622 19.338 35.3335 23.25 35.3335H24.7207C26.8042 35.3335 28.6245 34.1973 29.5928 32.5097C27.117 31.6785 25.3333 29.3392 25.3333 26.5833C25.3333 23.1315 28.1315 20.3333 31.5833 20.3333C35.0352 20.3333 37.8333 23.1315 37.8333 26.5833C37.8333 29.8175 35.3768 32.4778 32.228 32.8005C31.0153 35.753 28.1123 37.8335 24.7207 37.8335H23.25C17.9573 37.8335 13.6667 33.5428 13.6667 28.2502V24.8325C7.1195 24.2037 2.00002 18.6875 2.00002 11.9755L2 10.4132C1.99995 9.95432 1.99992 9.6419 2.0243 9.36613C2.29109 6.34922 4.68257 3.95775 7.69949 3.69097C7.95894 3.66802 8.25085 3.6667 8.66669 3.66665V3.25C8.66669 2.55965 9.22632 2 9.91669 2C10.607 2 11.1667 2.55965 11.1667 3.25V6.58333C11.1667 7.27368 10.607 7.83333 9.91669 7.83333C9.22632 7.83333 8.66669 7.27368 8.66669 6.58333V6.1667C8.22767 6.167 8.05655 6.16913 7.91969 6.18125C6.10955 6.34132 4.67465 7.7762 4.51459 9.58635C4.50124 9.73733 4.50002 9.93003 4.50002 10.4782V11.9755C4.50002 17.7285 9.16372 22.3922 14.9167 22.3922C20.4067 22.3922 24.8572 17.9417 24.8572 12.4517V10.4782C24.8572 9.93003 24.856 9.73733 24.8425 9.58635C24.6825 7.7762 23.2477 6.34132 21.4375 6.18125C21.367 6.175 21.2873 6.17142 21.1667 6.16937V6.58333C21.1667 7.27368 20.607 7.83333 19.9167 7.83333C19.2263 7.83333 18.6667 7.27368 18.6667 6.58333V3.25C18.6667 2.55965 19.2263 2 19.9167 2ZM27.8333 26.5833C27.8333 24.5123 29.5123 22.8333 31.5833 22.8333C33.6543 22.8333 35.3333 24.5123 35.3333 26.5833C35.3333 28.6543 33.6543 30.3333 31.5833 30.3333C29.5123 30.3333 27.8333 28.6543 27.8333 26.5833Z" fill="#1C274C"/>
<path d="M31.5 21C28.4625 21 26 23.4625 26 26.5C26 29.5375 28.4625 32 31.5 32C34.5375 32 37 29.5375 37 26.5C37 23.4625 34.5375 21 31.5 21Z" fill="#0696D6"/>
</svg>
