<svg width="16" height="16" viewBox="0 0 16 16" fill="none" xmlns="http://www.w3.org/2000/svg">
<path fill-rule="evenodd" clip-rule="evenodd" d="M10.401 1.5998C10.2544 1.45329 10.0701 1.45973 9.96902 1.47314C9.87342 1.48582 9.75896 1.5184 9.64989 1.54944L9.56589 1.57331L9.49756 1.53021C9.40522 1.47186 9.30596 1.40917 9.21769 1.3708C9.11809 1.32753 8.95002 1.27828 8.77342 1.3711C8.60022 1.46214 8.54316 1.62512 8.51962 1.72883C8.49816 1.8232 8.48896 1.94121 8.48029 2.05344L8.47362 2.13844L8.47309 2.14552L8.39869 2.20675C8.30982 2.27987 8.21762 2.35574 8.15222 2.42725C8.08289 2.50299 7.97609 2.64531 8.00322 2.84347C8.03129 3.0484 8.17969 3.15465 8.27242 3.20608C8.35642 3.25265 8.46689 3.29343 8.56996 3.33143L8.64249 3.35824L8.66929 3.43081C8.70729 3.53382 8.74809 3.64435 8.79469 3.72833C8.84609 3.82106 8.95236 3.96945 9.15729 3.99751C9.35542 4.02465 9.49776 3.91783 9.57349 3.84854C9.64502 3.78314 9.72089 3.69092 9.79396 3.60205L9.85522 3.52767L9.86229 3.52711L9.94729 3.52048C10.0596 3.51176 10.1776 3.50259 10.2719 3.48114C10.3756 3.45756 10.5386 3.40055 10.6296 3.22733C10.7225 3.05074 10.6732 2.88266 10.63 2.78308C10.5916 2.69481 10.5289 2.59556 10.4706 2.50319L10.4274 2.43487L10.4513 2.35087C10.4824 2.2418 10.515 2.12731 10.5276 2.03175C10.541 1.93063 10.5475 1.74631 10.401 1.5998ZM9.80129 2.19947L9.74929 2.21424L9.73556 2.21827C9.68529 2.23321 9.58056 2.26433 9.47142 2.24939C9.35969 2.23409 9.26722 2.17407 9.22436 2.14627L9.21296 2.13889L9.14562 2.09642L9.13829 2.19033L9.13729 2.20468C9.13376 2.25754 9.12656 2.36418 9.07569 2.46106C9.02542 2.55665 8.94256 2.6234 8.90069 2.65716L8.88916 2.66648L8.82869 2.71631L8.88029 2.73539L8.89302 2.73995C8.94082 2.75687 9.04629 2.79422 9.12642 2.87435C9.20656 2.95447 9.24389 3.05994 9.26082 3.1077L9.26536 3.12043L9.28442 3.17209L9.33429 3.11156L9.34356 3.10007C9.37736 3.05817 9.44409 2.97533 9.53969 2.92508C9.63656 2.87417 9.74322 2.86702 9.79609 2.86348L9.81042 2.86247L9.90436 2.85513L9.86182 2.78781L9.85449 2.77637C9.82669 2.73353 9.76669 2.64105 9.75136 2.52934C9.73642 2.42017 9.76756 2.31543 9.78249 2.26517L9.78649 2.25144L9.80129 2.19947Z" fill="#7C878E"/>
<path d="M6.95675 2.11438C7.10082 1.87878 7.02655 1.57102 6.79095 1.42699C6.55536 1.28296 6.24761 1.35719 6.10358 1.5928C5.7581 2.1579 5.84469 2.88611 6.31304 3.35446L6.37829 3.41971C6.51007 3.55148 6.55866 3.74507 6.50474 3.92346C6.42484 4.18779 6.57434 4.46684 6.83868 4.54675C7.10302 4.62665 7.38208 4.47714 7.46195 4.21281C7.62255 3.68156 7.47782 3.10504 7.08542 2.7126L7.02015 2.64735C6.87848 2.50566 6.85228 2.28535 6.95675 2.11438Z" fill="#7C878E"/>
<path d="M5.12424 2.62622C4.98459 2.48657 4.75818 2.48657 4.61853 2.62622C4.47888 2.76587 4.47888 2.99227 4.61853 3.13192C4.75818 3.27157 4.98459 3.27157 5.12424 3.13192C5.26388 2.99227 5.26388 2.76587 5.12424 2.62622Z" fill="#7C878E"/>
<path d="M12.185 3.73682C12.2392 3.46604 12.0636 3.20264 11.7928 3.14848C11.522 3.09432 11.2586 3.26993 11.2045 3.54071L11.1085 4.02067C11.0467 4.32932 10.8243 4.58124 10.5257 4.68078C9.88665 4.8938 9.41072 5.4329 9.27865 6.09345L9.18265 6.5734C9.12852 6.84416 9.30412 7.10762 9.57485 7.16176C9.84565 7.21589 10.1091 7.04029 10.1633 6.76949L10.2593 6.28956C10.3209 5.98091 10.5433 5.729 10.8419 5.62946C11.481 5.41644 11.9569 4.87733 12.0891 4.21678L12.185 3.73682Z" fill="#7C878E"/>
<path fill-rule="evenodd" clip-rule="evenodd" d="M15.0157 5.8949C15.1863 6.26417 15.0712 6.6834 14.7598 6.9948C14.5792 7.1754 14.3372 7.2572 14.1216 7.29554C13.9012 7.33474 13.6681 7.33554 13.464 7.3224C13.2578 7.30927 13.0688 7.28107 12.932 7.25654C12.8634 7.24414 12.807 7.2326 12.7673 7.22394L12.7364 7.21707L12.7205 7.2134L12.7074 7.21027L12.7035 7.20934L12.7022 7.20907C12.7022 7.20907 12.7015 7.20887 12.7816 6.88534L12.7015 7.20887C12.5815 7.17914 12.4877 7.08527 12.458 6.96527L12.4576 6.9634L12.4566 6.95954L12.4535 6.9464C12.4509 6.93527 12.4473 6.91947 12.443 6.8996C12.4344 6.85987 12.4228 6.80354 12.4104 6.73487C12.3858 6.59816 12.3577 6.40912 12.3445 6.20295C12.3314 5.99879 12.3322 5.76574 12.3714 5.54528C12.4097 5.32976 12.4915 5.08776 12.6721 4.90717C12.9835 4.59575 13.4028 4.48064 13.772 4.65121C14.0521 4.78059 14.2343 5.04244 14.303 5.36397C14.6244 5.43259 14.8863 5.61478 15.0157 5.8949ZM13.064 6.60286C13.1828 6.62378 13.3396 6.64645 13.5066 6.65713C13.6821 6.6684 13.8568 6.66551 14.0049 6.63917C14.158 6.61194 14.2455 6.56626 14.2883 6.52342C14.4502 6.36158 14.4378 6.2336 14.4105 6.17445C14.3808 6.11019 14.2744 5.99924 14.0012 5.99996C13.9124 6.0002 13.8273 5.96506 13.7646 5.90234C13.7018 5.8396 13.6667 5.75446 13.667 5.66574C13.6677 5.39254 13.5567 5.28611 13.4924 5.25643C13.4333 5.22911 13.3053 5.21674 13.1435 5.37858C13.1006 5.42141 13.055 5.50892 13.0278 5.662C13.0014 5.81014 12.9986 5.98478 13.0098 6.16036C13.0204 6.32726 13.0431 6.48417 13.064 6.60286Z" fill="#7C878E"/>
<path d="M13.554 9.1525C13.7509 8.97783 14.0313 8.93357 14.2724 9.03903L14.4668 9.12397C14.7198 9.23463 15.0146 9.11917 15.1252 8.86617C15.2358 8.61317 15.1204 8.31837 14.8674 8.2077L14.6731 8.12277C14.0748 7.86117 13.379 7.97103 12.8905 8.4043C12.673 8.5971 12.3566 8.62917 12.1049 8.48383L11.963 8.4019C11.7238 8.26383 11.418 8.34577 11.28 8.5849C11.1419 8.82403 11.2238 9.12983 11.463 9.2679L11.6049 9.34983C12.2294 9.71037 13.0145 9.6309 13.554 9.1525Z" fill="#7C878E"/>
<path d="M12.7055 10.2082C12.8452 10.0686 13.0716 10.0686 13.2113 10.2082C13.3509 10.3479 13.3509 10.5743 13.2113 10.7139C13.0716 10.8536 12.8452 10.8536 12.7055 10.7139C12.5659 10.5743 12.5659 10.3479 12.7055 10.2082Z" fill="#7C878E"/>
<path d="M8.61056 4.77075C8.47089 4.6311 8.24449 4.6311 8.10482 4.77075C7.96522 4.9104 7.96522 5.1368 8.10482 5.27645C8.24449 5.4161 8.47089 5.4161 8.61056 5.27645C8.75016 5.1368 8.75016 4.9104 8.61056 4.77075Z" fill="#7C878E"/>
<path d="M11.4381 6.77076C11.5777 6.6311 11.8041 6.6311 11.9438 6.77076C12.0834 6.91042 12.0834 7.13682 11.9438 7.27642C11.8041 7.41609 11.5777 7.41609 11.4381 7.27642C11.2985 7.13682 11.2985 6.91042 11.4381 6.77076Z" fill="#7C878E"/>
<path fill-rule="evenodd" clip-rule="evenodd" d="M6.42593 4.58962C6.81682 4.87943 7.26656 5.32918 7.81229 5.87497L10.1241 8.18673C10.6699 8.73253 11.1196 9.18226 11.4094 9.57313C11.7088 9.977 11.9198 10.4258 11.7978 10.9427C11.6758 11.4595 11.2864 11.7666 10.838 11.9939C10.404 12.2139 9.80056 12.4151 9.06836 12.6591L5.60814 13.8125C4.72157 14.108 4.00211 14.3479 3.44423 14.4471C2.88129 14.5473 2.31006 14.5371 1.88598 14.1131C1.46192 13.689 1.45182 13.1177 1.55196 12.5548C1.6512 11.9969 1.89104 11.2775 2.18661 10.3908L3.33997 6.93073C3.58403 6.19848 3.78513 5.59511 4.00515 5.16109C4.23246 4.71268 4.53953 4.32324 5.0564 4.20122C5.57326 4.07921 6.02208 4.2902 6.42593 4.58962ZM5.83035 5.39292C5.8187 5.38428 5.80728 5.37595 5.7961 5.36792C5.78843 5.40943 5.78027 5.45404 5.77171 5.50154C5.71505 5.81595 5.64081 6.25562 5.57062 6.75586C5.42886 7.76613 5.30898 8.9874 5.37035 9.92326C5.4075 10.4899 5.52884 11.2228 5.64468 11.8275C5.70204 12.127 5.75702 12.3898 5.79765 12.5776C5.80632 12.6177 5.81434 12.6544 5.82158 12.6873L7.57802 12.1017C7.53189 11.9647 7.47656 11.7883 7.42129 11.5829C7.28862 11.0897 7.15142 10.4113 7.15142 9.70326C7.15142 8.95973 7.28802 8.28153 7.42196 7.79346C7.48922 7.54813 7.55676 7.3476 7.60816 7.2068C7.62009 7.174 7.63122 7.1444 7.64129 7.11813L7.13476 6.61164C6.55197 6.02885 6.15442 5.63319 5.83035 5.39292ZM4.27543 7.28666C4.41474 6.86873 4.53062 6.52226 4.63618 6.23534C4.61754 6.35769 4.5988 6.48525 4.58032 6.61692C4.4369 7.63906 4.30406 8.94506 4.37249 9.98866C4.4139 10.6202 4.54528 11.4035 4.66254 12.0157C4.72171 12.3246 4.77836 12.5953 4.82025 12.789C4.8396 12.8785 4.85584 12.9517 4.86774 13.0047C4.17386 13.2338 3.66268 13.3925 3.26908 13.4625C2.78857 13.5481 2.65561 13.4685 2.59309 13.4059C2.53058 13.3435 2.45102 13.2105 2.5365 12.73C2.62134 12.2531 2.83645 11.6036 3.1491 10.6656L4.27543 7.28666ZM8.71242 11.7236L8.52669 11.7855C8.48609 11.6651 8.43656 11.5075 8.38696 11.3231C8.35102 11.1897 8.31556 11.0438 8.28342 10.8891C8.20816 10.5265 8.15142 10.1157 8.15142 9.70326C8.15142 9.07646 8.26749 8.49106 8.38629 8.05806C8.40082 8.005 8.41542 7.95446 8.42969 7.9066L9.38742 8.86433C9.97022 9.44706 10.3659 9.84466 10.6062 10.1687C10.842 10.4869 10.8452 10.6256 10.8246 10.7129C10.804 10.8002 10.7391 10.9229 10.3858 11.1019C10.026 11.2844 9.49429 11.463 8.71242 11.7236Z" fill="#7C878E"/>
</svg>
