<svg width="24" height="25" viewBox="0 0 24 25" fill="none" xmlns="http://www.w3.org/2000/svg">
<g id="agenda/ic-argent">
<path id="flous" fill-rule="evenodd" clip-rule="evenodd" d="M9.84752 13.0873C9.26272 13.1332 8.7304 13.192 8.19644 13.2139C6.24192 13.294 4.31153 13.1569 2.47807 12.4154C2.02912 12.2339 1.60819 11.9521 1.22399 11.6536C0.788994 11.3156 0.598068 10.8326 0.600114 10.2702C0.607581 8.20784 0.600932 6.14539 0.603592 4.08299C0.604512 3.3705 1.00145 2.88289 1.55699 2.4978C2.11458 2.1113 2.73866 1.86617 3.39117 1.69141C5.23809 1.19685 7.11482 1.09275 9.01349 1.27447C10.1882 1.38693 11.3386 1.59781 12.421 2.0874C12.9779 2.33932 13.4755 2.66536 13.8438 3.16966C13.8982 3.24429 14.0812 3.25534 14.2022 3.2488C15.1701 3.19599 16.1382 3.0714 17.1045 3.0851C18.6412 3.10691 20.1685 3.28791 21.5889 3.92441C22.0533 4.1325 22.4862 4.43789 22.8813 4.7616C23.256 5.06871 23.3987 5.51797 23.3981 6.01005C23.3944 9.10362 23.3921 12.1972 23.4001 15.2908C23.4016 15.8839 23.1756 16.3555 22.7386 16.7395C22.1507 17.256 21.4394 17.5365 20.7007 17.7511C19.4921 18.1023 18.2511 18.247 16.9951 18.2613C16.7627 18.2639 16.6908 18.3268 16.6948 18.561C16.7084 19.3721 16.6856 20.1841 16.7038 20.9951C16.7171 21.5904 16.4871 22.0617 16.0507 22.4462C15.4436 22.9813 14.7091 23.2743 13.9416 23.4827C12.0972 23.9834 10.2196 24.0877 8.32052 23.9106C7.1631 23.8026 6.02015 23.62 4.95581 23.1388C4.52783 22.9454 4.11984 22.6832 3.7517 22.3915C3.33553 22.0618 3.14158 21.5982 3.14833 21.0521C3.16025 20.0887 3.17457 19.1243 3.14429 18.1617C3.11985 17.3832 3.47904 16.8414 4.08639 16.4172C4.60731 16.0535 5.1896 15.8188 5.79665 15.6419C6.99698 15.2921 8.22677 15.143 9.47472 15.1185C9.84701 15.1111 9.84721 15.1066 9.84741 14.736C9.84772 14.197 9.84752 13.6579 9.84752 13.0873ZM16.5865 7.3631C17.9567 7.339 19.2719 7.24018 20.533 6.80797C20.9385 6.66897 21.3323 6.4728 21.6974 6.24832C22.0339 6.04135 22.0195 5.8293 21.6893 5.60228C21.4743 5.45441 21.2391 5.32789 20.9982 5.22592C20.1533 4.86838 19.2609 4.69798 18.3521 4.60343C16.5761 4.41862 14.8113 4.46955 13.0843 4.94975C12.567 5.09357 12.0656 5.32698 11.5928 5.58423C11.185 5.80612 11.1952 6.03206 11.5821 6.28099C11.8509 6.45403 12.1427 6.60368 12.4425 6.71569C13.7923 7.22009 15.207 7.33154 16.5865 7.3631ZM10.1966 19.3962C11.2999 19.3569 12.3486 19.2895 13.3546 18.9821C13.9094 18.8126 14.4519 18.5749 14.9619 18.2986C15.3532 18.0865 15.3384 17.8516 14.9606 17.6171C14.6605 17.4307 14.3352 17.2718 14.0024 17.1518C12.9127 16.7588 11.7743 16.6262 10.6227 16.5659C9.2016 16.4914 7.79669 16.5923 6.42282 16.9634C5.95929 17.0886 5.50307 17.2731 5.07708 17.4942C4.44508 17.8223 4.4508 18.0856 5.06327 18.4356C5.30504 18.5738 5.56342 18.6907 5.82631 18.7837C7.25797 19.2906 8.74758 19.3967 10.1966 19.3962ZM12.371 3.63566C12.0469 3.489 11.7937 3.35503 11.5271 3.25732C10.5701 2.90673 9.57435 2.74318 8.55947 2.67556C6.96961 2.56953 5.39019 2.63041 3.85046 3.06288C3.33343 3.20806 2.832 3.44132 2.35957 3.69943C1.94682 3.92492 1.95889 4.15619 2.35793 4.41684C2.61831 4.58699 2.90309 4.73593 3.19687 4.83774C5.37239 5.59163 7.60162 5.60731 9.85161 5.27878C9.91902 5.26899 10.0052 5.22329 10.0381 5.16819C10.435 4.5046 11.076 4.16502 11.7572 3.87764C11.9352 3.80256 12.1165 3.7356 12.371 3.63566ZM21.9375 7.84371C18.3691 9.14106 14.8414 9.11042 11.2843 7.82129C11.2843 8.19871 11.2917 8.56051 11.2815 8.92176C11.2758 9.12792 11.3421 9.29817 11.5163 9.39633C11.8401 9.5789 12.1632 9.77512 12.5102 9.90256C13.5235 10.2749 14.5841 10.4179 15.6589 10.4842C17.2256 10.5807 18.7763 10.4895 20.2856 10.0459C20.7682 9.90398 21.2216 9.65505 21.6732 9.42575C21.7905 9.3662 21.916 9.20127 21.9257 9.07618C21.9573 8.66573 21.9375 8.25122 21.9375 7.84371ZM4.58818 19.8749C4.58818 20.1975 4.60675 20.5262 4.58291 20.8518C4.55933 21.1739 4.68628 21.4071 4.96292 21.5332C5.43975 21.7504 5.91597 21.9946 6.41944 22.1244C8.63246 22.6947 10.8639 22.6877 13.0941 22.2176C13.752 22.0789 14.3952 21.875 14.9543 21.4843C15.0718 21.4022 15.2184 21.2654 15.228 21.1442C15.2615 20.7195 15.241 20.2906 15.241 19.8824C11.6871 21.1584 8.16217 21.161 4.58818 19.8749ZM11.2842 10.9821C11.2842 11.3119 11.3078 11.6401 11.2779 11.9636C11.2453 12.3145 11.407 12.5378 11.6921 12.679C12.0485 12.8554 12.4087 13.0407 12.7883 13.1517C15.1186 13.8333 17.4726 13.8292 19.8343 13.3283C20.4603 13.1955 21.07 12.9999 21.6053 12.6378C21.7376 12.5483 21.9056 12.4013 21.9184 12.2677C21.9586 11.8444 21.9332 11.4149 21.9332 11.0084C18.3763 12.2923 14.8478 12.2888 11.2842 10.9821ZM21.9352 14.1644C18.3785 15.4503 14.843 15.451 11.2853 14.159C11.2853 14.4398 11.2894 14.7177 11.2836 14.9954C11.2805 15.1472 11.37 15.1678 11.4933 15.1861C12.1574 15.2842 12.8283 15.355 13.4818 15.5015C14.4503 15.7185 15.3809 16.0416 16.1284 16.7401C16.1878 16.7957 16.2959 16.821 16.3826 16.8237C17.5711 16.8613 18.7465 16.757 19.9032 16.4767C20.5089 16.3299 21.103 16.1451 21.6215 15.7899C21.7515 15.7009 21.9083 15.5478 21.921 15.4119C21.9601 14.9948 21.9352 14.5718 21.9352 14.1644ZM9.84419 9.8987C7.17583 10.2263 4.58204 10.1514 2.05929 9.09003C2.05929 9.42885 2.08717 9.75012 2.05213 10.0644C2.00948 10.4474 2.18557 10.6722 2.49833 10.8361C2.58103 10.8794 2.66097 10.9282 2.7451 10.9685C3.54338 11.3514 4.39623 11.5414 5.26775 11.6591C6.73711 11.8575 8.20626 11.8447 9.6725 11.6268C9.73546 11.6175 9.83555 11.5349 9.83667 11.4845C9.84885 10.9629 9.84419 10.4409 9.84419 9.8987ZM2.05934 5.93081C2.05934 6.32746 2.06988 6.69012 2.05546 7.05177C2.04671 7.27133 2.12276 7.44036 2.30597 7.54131C2.62419 7.71668 2.94258 7.90144 3.28141 8.02851C4.36703 8.43562 5.50798 8.60211 6.65763 8.61713C7.6498 8.63006 8.64371 8.53226 9.63618 8.47346C9.70784 8.4692 9.8332 8.38529 9.83458 8.33568C9.84921 7.81454 9.84363 7.29279 9.84363 6.74019C7.18161 7.06192 4.58869 6.99328 2.05934 5.93081Z" fill="#0696D6"/>
</g>
</svg>
