<svg width="40" height="40" viewBox="0 0 40 40" fill="none" xmlns="http://www.w3.org/2000/svg">
<path d="M0 8C0 3.58172 3.58172 0 8 0H32C36.4183 0 40 3.58172 40 8V32C40 36.4183 36.4183 40 32 40H8C3.58172 40 0 36.4183 0 32V8Z" fill="#E6F7FE"/>
<path d="M15.8334 14.0245C15.8334 15.3144 17.2716 16.6731 18.4581 17.5745C19.1241 18.0804 19.457 18.3334 20 18.3334C20.543 18.3334 20.876 18.0804 21.542 17.5745C22.7285 16.6731 24.1667 15.3144 24.1667 14.0245C24.1667 11.6994 21.875 10.8313 20 12.6275C18.1251 10.8313 15.8334 11.6994 15.8334 14.0245Z" fill="#0696D6"/>
<path d="M15.2166 27.8237H15C14.2144 27.8237 13.8215 27.8237 13.5774 27.5796C13.3334 27.3355 13.3334 26.9427 13.3334 26.157V25.2303C13.3334 24.7983 13.3334 24.5823 13.4444 24.3893C13.5553 24.1963 13.7228 24.099 14.0576 23.9043C16.2622 22.622 19.393 21.9003 21.4826 23.1466C21.623 23.2303 21.7493 23.3314 21.8571 23.4526C22.3222 23.975 22.2884 24.7634 21.7524 25.2313C21.6391 25.33 21.5185 25.405 21.397 25.431C21.4969 25.4194 21.5925 25.4062 21.6839 25.3916C22.4434 25.2704 23.0809 24.8646 23.6645 24.4237L25.1705 23.2861C25.7015 22.885 26.4895 22.8849 27.0205 23.2858C27.4985 23.6468 27.6447 24.2412 27.3425 24.7256C26.99 25.2906 26.4935 26.0133 26.0166 26.4549C25.5391 26.8972 24.8283 27.292 24.248 27.5721C23.605 27.8824 22.8949 28.0612 22.1725 28.1782C20.7074 28.4153 19.1805 28.3791 17.7303 28.0803C16.9105 27.9114 16.059 27.8237 15.2166 27.8237Z" fill="#0696D6"/>
</svg>
