<svg width="12" height="11" viewBox="0 0 12 11" fill="none" xmlns="http://www.w3.org/2000/svg">
<path fill-rule="evenodd" clip-rule="evenodd" d="M10.4261 2.81514L10.4261 2.81475V2.81464C10.4287 2.6032 10.4314 2.39593 10.4193 2.18959C10.4077 1.98947 10.2565 1.85759 10.0248 1.84888C9.74796 1.83841 9.47058 1.84063 9.19166 1.84287C9.07422 1.84382 8.95651 1.84476 8.83845 1.84476C8.83429 1.86166 8.83027 1.87809 8.82633 1.89421C8.81927 1.92309 8.81246 1.95096 8.80552 1.9787C8.75653 2.1736 8.59539 2.28347 8.38606 2.26448C8.1842 2.24611 8.04024 2.11249 8.03706 1.91395C8.03037 1.48426 8.03054 1.0541 8.03658 0.624259C8.03896 0.447415 8.19915 0.298591 8.38399 0.277537C8.57376 0.255845 8.74825 0.369839 8.80043 0.556025C8.81793 0.618719 8.82477 0.68569 8.82747 0.751079C8.83058 0.822483 8.82997 0.894113 8.82932 0.971232C8.82903 1.00475 8.82874 1.0393 8.82874 1.07532C8.89292 1.07532 8.95625 1.07482 9.01896 1.07432L9.01946 1.07431C9.15849 1.0732 9.29457 1.07211 9.4305 1.07658C9.50501 1.07903 9.57986 1.08005 9.65477 1.08107L9.6549 1.08107C9.87118 1.08401 10.0879 1.08697 10.2982 1.12424C10.8379 1.22003 11.2208 1.69926 11.2223 2.24532C11.2249 3.33776 11.2246 4.4302 11.2243 5.52264C11.2243 5.86428 11.2242 6.20592 11.2242 6.54756C11.2242 6.80985 11.2243 7.07212 11.2245 7.33439C11.2251 8.07472 11.2256 8.815 11.2219 9.55537C11.2189 10.1825 10.7134 10.7076 10.0817 10.717C9.56936 10.7247 9.05686 10.7211 8.54435 10.7175L8.54336 10.7175C8.25078 10.7155 7.9582 10.7134 7.66564 10.7135C7.29642 10.7136 6.9272 10.7161 6.55799 10.7186C6.28488 10.7204 6.01178 10.7223 5.73867 10.7231C5.17839 10.725 4.61823 10.7249 4.05798 10.7249L3.83239 10.7249H3.72385C3.15891 10.7249 2.59398 10.7249 2.02918 10.7227C1.37812 10.7201 0.929063 10.3555 0.798467 9.72081C0.780657 9.63442 0.780726 9.54368 0.780801 9.4544L0.780808 9.43757C0.780524 8.72976 0.781066 8.02194 0.781614 7.31411C0.782886 5.66588 0.784158 4.01763 0.774926 2.36944C0.771267 1.70133 1.19837 1.07817 2.06339 1.07706C2.25028 1.07687 2.43723 1.07651 2.62417 1.07615C2.74876 1.07591 2.87335 1.07567 2.99791 1.07548H3.17655C3.17655 1.03511 3.17623 0.995672 3.17591 0.956864L3.17591 0.956556C3.17523 0.872933 3.17458 0.792256 3.17718 0.711653C3.18577 0.437279 3.36441 0.259959 3.61081 0.277374C3.81266 0.291625 3.96791 0.448997 3.96919 0.650698C3.97205 1.0598 3.97253 1.46907 3.96966 1.87833C3.96808 2.09761 3.8343 2.24453 3.62957 2.26432C3.40211 2.28617 3.24861 2.17566 3.19532 1.95242C3.19019 1.93082 3.18412 1.9095 3.17658 1.88304C3.17291 1.87013 3.16889 1.856 3.16446 1.84002H2.86191C2.78862 1.84002 2.71535 1.83993 2.64207 1.83984L2.63965 1.83984C2.45213 1.83962 2.26464 1.8394 2.07706 1.84065C1.73045 1.84302 1.57584 1.99802 1.57473 2.34142C1.57428 2.51062 1.57438 2.67981 1.57448 2.85544C1.57452 2.93256 1.57457 3.01093 1.57457 3.09108H10.4237C10.4237 2.99815 10.4249 2.90626 10.4261 2.81514ZM1.5744 3.74495V8.26013C1.5744 8.38034 1.57428 8.50054 1.57415 8.62075L1.57414 8.6239C1.57385 8.90353 1.57355 9.18317 1.57488 9.4629C1.57648 9.77401 1.73125 9.9279 2.04095 9.9298C2.18495 9.93071 2.32895 9.93055 2.47295 9.93039L2.48592 9.93038C2.53692 9.93032 2.5879 9.93027 2.6389 9.93027C5.05579 9.93027 7.47268 9.93027 9.88958 9.9298C9.89685 9.9298 9.90414 9.92983 9.91145 9.92988C9.91559 9.9299 9.91972 9.92994 9.92386 9.92997C9.98739 9.93044 10.0518 9.93092 10.1123 9.91697C10.3321 9.86599 10.4291 9.71575 10.4293 9.43726C10.4297 8.10877 10.4297 6.78018 10.4296 5.45166L10.4296 4.46515V3.7451C7.47825 3.74495 4.53595 3.74495 1.5744 3.74495ZM4.6441 1.10111V1.83256H7.35798V1.10111H4.6441Z" fill="#1B2746"/>
<path fill-rule="evenodd" clip-rule="evenodd" d="M4.25824 4.75342H2.76538V6.24628H4.25824V4.75342ZM6.74626 4.75342H5.25341V6.24628H6.74626V4.75342ZM5.25341 7.73914H6.74626V9.232H5.25341V7.73914ZM9.23429 7.73914H7.74143V9.232H9.23429V7.73914Z" fill="#1B2746"/>
</svg>
