<svg aria-labelledby="attach file" width="16" height="16" viewBox="0 0 16 16" fill="none" xmlns="http://www.w3.org/2000/svg"><path fill-rule="evenodd" clip-rule="evenodd" d="M12.4969 3.50297C12.0469 3.05304 11.4365 2.80028 10.8001 2.80028C10.1637 2.80028 9.55339 3.05304 9.10332 3.50297L3.50332 9.10297C3.06603 9.55551 2.82398 10.1617 2.8293 10.791C2.83462 11.4202 3.08688 12.0223 3.53176 12.4673C3.97663 12.9124 4.57853 13.165 5.2078 13.1706C5.83707 13.1762 6.44337 12.9344 6.89612 12.4974H6.89692L7.29452 12.0974C7.40731 11.9876 7.55869 11.9266 7.71604 11.9274C7.8734 11.9283 8.02413 11.9909 8.13577 12.1018C8.2474 12.2127 8.311 12.363 8.31286 12.5203C8.31472 12.6777 8.2547 12.8295 8.14572 12.943L7.74732 13.3438L7.74572 13.3454C7.07058 14.0205 6.15491 14.3998 5.20012 14.3998C4.24533 14.3998 3.32965 14.0205 2.65452 13.3454C1.97938 12.6702 1.6001 11.7546 1.6001 10.7998C1.6001 9.84498 1.97938 8.9293 2.65452 8.25417L8.25452 2.65417C8.92923 1.97861 9.84467 1.59875 10.7995 1.59815C11.7542 1.59755 12.6702 1.97626 13.3457 2.65097C14.0213 3.32568 14.4011 4.24112 14.4017 5.1959C14.4023 6.15069 14.0236 7.06661 13.3489 7.74217L10.5849 10.5846C10.3919 10.7881 10.1601 10.9509 9.9032 11.0634C9.64627 11.1758 9.36941 11.2357 9.08897 11.2394C8.80852 11.2432 8.53017 11.1907 8.27034 11.0851C8.01051 10.9795 7.77447 10.8229 7.57614 10.6245C7.37782 10.4262 7.22123 10.1902 7.11562 9.93035C7.01001 9.67052 6.95752 9.39217 6.96125 9.11172C6.96498 8.83127 7.02484 8.55441 7.13732 8.29748C7.24979 8.04055 7.4126 7.80875 7.61612 7.61577L10.3761 4.85497C10.4314 4.79764 10.4976 4.7519 10.5708 4.72042C10.644 4.68894 10.7227 4.67235 10.8024 4.67162C10.8821 4.67089 10.9611 4.68603 11.0348 4.71617C11.1086 4.7463 11.1756 4.79082 11.232 4.84713C11.2883 4.90344 11.3329 4.97041 11.3631 5.04413C11.3933 5.11785 11.4085 5.19685 11.4079 5.27652C11.4072 5.35619 11.3907 5.43493 11.3593 5.50815C11.3279 5.58136 11.2822 5.64759 11.2249 5.70297L8.46492 8.46377C8.38114 8.54713 8.31459 8.64618 8.26909 8.75526C8.22358 8.86434 8.20001 8.98131 8.19971 9.0995C8.19942 9.2177 8.2224 9.33479 8.26736 9.44409C8.31231 9.5534 8.37836 9.65278 8.46172 9.73657C8.54508 9.82035 8.64413 9.88689 8.75321 9.9324C8.86229 9.9779 8.97927 10.0015 9.09746 10.0018C9.21565 10.0021 9.33274 9.97908 9.44205 9.93413C9.55135 9.88918 9.65074 9.82313 9.73452 9.73977L12.4977 6.89737C12.9476 6.4473 13.2004 5.83696 13.2004 5.20057C13.2004 4.56417 12.9476 3.95383 12.4977 3.50377L12.4969 3.50297Z" fill="#1E293B"></path></svg>