<svg width="15" height="16" viewBox="0 0 15 16" fill="none" xmlns="http://www.w3.org/2000/svg">
<path fill-rule="evenodd" clip-rule="evenodd" d="M7.49997 9.87473C6.46443 9.87473 5.62497 9.03526 5.62497 7.99973C5.62497 6.96419 6.46443 6.12473 7.49997 6.12473C8.5355 6.12473 9.37497 6.96419 9.37497 7.99973C9.37497 9.03526 8.5355 9.87473 7.49997 9.87473ZM7.49997 4.625C6.46443 4.625 5.62497 3.78553 5.62497 2.75C5.62497 1.71447 6.46443 0.875 7.49997 0.875C8.5355 0.875 9.37497 1.71447 9.37497 2.75C9.37497 3.78553 8.5355 4.625 7.49997 4.625ZM5.62497 13.2499C5.62497 14.2854 6.46443 15.1249 7.49997 15.1249C8.5355 15.1249 9.37497 14.2854 9.37497 13.2499C9.37497 12.2144 8.5355 11.3749 7.49997 11.3749C6.46443 11.3749 5.62497 12.2144 5.62497 13.2499Z" fill="#1B2746"/>
</svg>
