<svg width="12" height="13" viewBox="0 0 12 13" fill="none" xmlns="http://www.w3.org/2000/svg">
<path d="M9.32112 3.82812H2.43881C1.75058 3.82812 1.2 4.37871 1.2 5.06694V10.9857C1.2 11.674 1.75058 12.2245 2.43881 12.2245H9.32112C10.0094 12.2245 10.5599 11.674 10.5599 10.9857V5.06694C10.5599 4.37871 10.0094 3.82812 9.32112 3.82812ZM7.84831 7.17293C7.84831 7.40693 7.66937 7.58587 7.43537 7.58587H4.32457C4.09057 7.58587 3.91163 7.40693 3.91163 7.17293V6.12682C3.91163 5.89282 4.09057 5.71388 4.32457 5.71388C4.55856 5.71388 4.7375 5.89282 4.7375 6.12682V6.75999H7.02243V6.12682C7.02243 5.89282 7.20137 5.71388 7.43537 5.71388C7.66937 5.71388 7.84831 5.89282 7.84831 6.12682V7.17293Z" fill="#1B2746"/>
<path d="M2.4388 3.14033H9.32111C9.55511 3.14033 9.73405 2.96139 9.73405 2.72739C9.73405 2.49339 9.55511 2.31445 9.32111 2.31445H2.4388C2.2048 2.31445 2.02586 2.49339 2.02586 2.72739C2.02586 2.96139 2.2048 3.14033 2.4388 3.14033Z" fill="#1B2746"/>
<path d="M3.127 1.62666H8.63285C8.86685 1.62666 9.04578 1.44772 9.04578 1.21372C9.04578 0.979721 8.86685 0.800781 8.63285 0.800781H3.127C2.893 0.800781 2.71406 0.979721 2.71406 1.21372C2.71406 1.44772 2.893 1.62666 3.127 1.62666Z" fill="#1B2746"/>
</svg>
