<svg width="17" height="16" viewBox="0 0 17 16" fill="none" xmlns="http://www.w3.org/2000/svg">
<path fill-rule="evenodd" clip-rule="evenodd" d="M5.16663 1.1665C5.44277 1.1665 5.66663 1.39036 5.66663 1.6665V2.17498C6.10798 2.1665 6.59423 2.1665 7.12902 2.1665H9.8709C10.4057 2.1665 10.892 2.1665 11.3333 2.17498V1.6665C11.3333 1.39036 11.5572 1.1665 11.8333 1.1665C12.1094 1.1665 12.3333 1.39036 12.3333 1.6665V2.2179C12.5066 2.23111 12.6707 2.24772 12.826 2.26859C13.6076 2.37368 14.2402 2.59509 14.7392 3.094C15.238 3.59291 15.4594 4.22554 15.5646 5.00716C15.5981 5.25695 15.6206 5.52956 15.6358 5.82655C15.6558 5.88054 15.6666 5.93891 15.6666 5.99984C15.6666 6.04605 15.6604 6.0908 15.6486 6.13328C15.6666 6.6679 15.6666 7.27504 15.6666 7.96224V9.37077C15.6666 10.596 15.6666 11.5664 15.5646 12.3258C15.4594 13.1074 15.238 13.7401 14.7392 14.239C14.2402 14.7379 13.6076 14.9593 12.826 15.0644C12.0665 15.1665 11.0961 15.1665 9.8709 15.1665H7.12902C5.90385 15.1665 4.93342 15.1665 4.17395 15.0644C3.39234 14.9593 2.7597 14.7379 2.26079 14.239C1.76188 13.7401 1.54047 13.1074 1.43539 12.3258C1.33328 11.5664 1.33328 10.596 1.3333 9.37077V7.96224C1.33329 7.27497 1.33328 6.6679 1.3513 6.13328C1.33957 6.0908 1.3333 6.04605 1.3333 5.99984C1.3333 5.93892 1.34419 5.88054 1.36414 5.82654C1.37926 5.52956 1.4018 5.25694 1.43539 5.00716C1.54047 4.22554 1.76188 3.59291 2.26079 3.094C2.7597 2.59509 3.39234 2.37368 4.17395 2.26859C4.32923 2.24772 4.49334 2.23111 4.66663 2.2179V1.6665C4.66663 1.39036 4.89049 1.1665 5.16663 1.1665ZM2.34202 6.49984C2.33351 6.93497 2.3333 7.4305 2.3333 7.99984V9.33317C2.3333 10.6044 2.33436 11.5075 2.42647 12.1926C2.51664 12.8633 2.68576 13.2498 2.9679 13.5319C3.25004 13.814 3.63647 13.9832 4.3072 14.0733C4.9923 14.1654 5.89542 14.1665 7.16663 14.1665H9.8333C11.1045 14.1665 12.0076 14.1654 12.6928 14.0733C13.3634 13.9832 13.7499 13.814 14.032 13.5319C14.3142 13.2498 14.4833 12.8633 14.5734 12.1926C14.6656 11.5075 14.6666 10.6044 14.6666 9.33317V7.99984C14.6666 7.4305 14.6664 6.93497 14.6579 6.49984H2.34202ZM14.6122 5.49984H2.38775C2.39843 5.37358 2.4112 5.25399 2.42647 5.1404C2.51664 4.46968 2.68576 4.08324 2.9679 3.8011C3.25004 3.51896 3.63647 3.34985 4.3072 3.25968C4.9923 3.16756 5.89542 3.1665 7.16663 3.1665H9.8333C11.1045 3.1665 12.0076 3.16756 12.6928 3.25968C13.3634 3.34985 13.7499 3.51896 14.032 3.8011C14.3142 4.08324 14.4833 4.46968 14.5734 5.1404C14.5887 5.25399 14.6015 5.37358 14.6122 5.49984Z" fill="#1B2746"/>
<path fill-rule="evenodd" clip-rule="evenodd" d="M10 11C10 10.1716 10.6716 9.5 11.5 9.5C12.3284 9.5 13 10.1716 13 11C13 11.8284 12.3284 12.5 11.5 12.5C10.6716 12.5 10 11.8284 10 11ZM11.5 10.5C11.2239 10.5 11 10.7239 11 11C11 11.2761 11.2239 11.5 11.5 11.5C11.7761 11.5 12 11.2761 12 11C12 10.7239 11.7761 10.5 11.5 10.5Z" fill="#1B2746"/>
</svg>
