<svg width="15" height="15" viewBox="0 0 15 15" fill="none" xmlns="http://www.w3.org/2000/svg">
    <g clip-path="url(#clip0_20910_217672)">
        <path d="M7.5 0C6.01664 0 4.5666 0.439867 3.33323 1.26398C2.09986 2.08809 1.13856 3.25943 0.570907 4.62987C0.00324965 6.00032 -0.145275 7.50832 0.144114 8.96318C0.433503 10.418 1.14781 11.7544 2.1967 12.8033C3.2456 13.8522 4.58197 14.5665 6.03683 14.8559C7.49168 15.1453 8.99968 14.9968 10.3701 14.4291C11.7406 13.8614 12.9119 12.9001 13.736 11.6668C14.5601 10.4334 15 8.98336 15 7.5C14.9979 5.51153 14.207 3.6051 12.801 2.19904C11.3949 0.792974 9.48848 0.00211765 7.5 0V0ZM7.5 1.875C8.66644 1.87677 9.803 2.24405 10.7499 2.92522L2.92453 10.749C2.32308 9.9097 1.96503 8.92065 1.88985 7.89085C1.81467 6.86105 2.02529 5.83048 2.49847 4.91275C2.97166 3.99501 3.68905 3.22574 4.57157 2.68974C5.45409 2.15373 6.46747 1.87179 7.5 1.875ZM7.5 13.125C6.33356 13.1232 5.197 12.7559 4.25011 12.0748L12.0755 4.25102C12.6769 5.0903 13.035 6.07935 13.1102 7.10915C13.1853 8.13895 12.9747 9.16952 12.5015 10.0873C12.0283 11.005 11.311 11.7743 10.4284 12.3103C9.54592 12.8463 8.53254 13.1282 7.5 13.125Z"
              fill="white"/>
    </g>
    <defs>
        <clipPath id="clip0_20910_217672">
            <rect width="15" height="15" fill="white"/>
        </clipPath>
    </defs>
</svg>
