<svg width="41" height="40" viewBox="0 0 41 40" fill="none" xmlns="http://www.w3.org/2000/svg">
<path d="M0.333252 8C0.333252 3.58172 3.91497 0 8.33325 0H32.3333C36.7515 0 40.3333 3.58172 40.3333 8V32C40.3333 36.4183 36.7515 40 32.3333 40H8.33325C3.91497 40 0.333252 36.4183 0.333252 32V8Z" fill="#EAFBF3"/>
<path d="M23.825 11.6667H16.8417C13.8083 11.6667 12 13.4751 12 16.5084V23.4834C12 26.5251 13.8083 28.3334 16.8417 28.3334H23.8167C26.85 28.3334 28.6583 26.5251 28.6583 23.4917V16.5084C28.6667 13.4751 26.8583 11.6667 23.825 11.6667ZM26.1667 16.8667C26.1667 17.3251 25.7917 17.7001 25.3333 17.7001H23.6667C23.325 17.7001 23.0417 17.9834 23.0417 18.3251C23.0417 18.6751 23.325 18.9501 23.6667 18.9501H25.3333C25.7917 18.9501 26.1667 19.3251 26.1667 19.7834V20.2084C26.1667 20.6667 25.7917 21.0417 25.3333 21.0417H23.6667C23.325 21.0417 23.0417 21.3251 23.0417 21.6667C23.0417 22.0084 23.325 22.2917 23.6667 22.2917H25.3333C25.7917 22.2917 26.1667 22.6667 26.1667 23.1251V23.3334C26.1667 24.7167 25.05 25.8334 23.6667 25.8334H17C15.6167 25.8334 14.5 24.7167 14.5 23.3334V22.9167C14.5 22.4584 14.875 22.0834 15.3333 22.0834H16.5667C17.7917 22.0834 18.7667 21.0334 18.6417 19.7834C18.5333 18.7001 17.5417 17.9167 16.45 17.9167H15.3333C14.875 17.9167 14.5 17.5417 14.5 17.0834V16.6667C14.5 15.2834 15.6167 14.1667 17 14.1667H23.6667C25.05 14.1667 26.1667 15.2834 26.1667 16.6667V16.8667ZM14.5 20.0001C14.5 19.5417 14.875 19.1667 15.3333 19.1667H16.1667C16.625 19.1667 17 19.5417 17 20.0001C17 20.4584 16.625 20.8334 16.1667 20.8334H15.3333C14.875 20.8334 14.5 20.4584 14.5 20.0001Z" fill="#2AD587"/>
</svg>
