<svg width="19" height="18" viewBox="0 0 19 18" fill="none" xmlns="http://www.w3.org/2000/svg">
<path fill-rule="evenodd" clip-rule="evenodd" d="M3.63524 1.5H1.25C0.835786 1.5 0.5 1.16421 0.5 0.75C0.5 0.335786 0.835786 0 1.25 0H4.25C4.60747 0 4.91526 0.252289 4.98541 0.602807L5.61532 3.75H17.75C18.2205 3.75 18.5749 4.17828 18.4867 4.6405L17.2856 10.9386C17.0733 12.0076 16.1253 12.7707 15.05 12.75L7.77437 12.7499C6.68468 12.7707 5.7367 12.0076 5.52459 10.9397L4.27159 4.6794C4.26651 4.6587 4.26229 4.63765 4.25896 4.61631L3.63524 1.5ZM5.75 15.7512C5.75 16.652 6.34951 17.2525 7.24878 17.2525C8.14804 17.2525 8.74755 16.652 8.74755 15.7512C8.74755 14.8505 8.14804 14.25 7.24878 14.25C6.34951 14.25 5.75 14.8505 5.75 15.7512ZM14 15.75C14 16.65 14.5995 17.25 15.4988 17.25C16.398 17.25 16.9976 16.65 16.9976 15.75C16.9976 14.85 16.398 14.25 15.4988 14.25C14.5995 14.25 14 14.85 14 15.75ZM6.99564 10.6464L5.91555 5.25H16.8435L15.8133 10.652C15.7436 11.0027 15.4276 11.2571 15.0644 11.2501L7.76001 11.25C7.38241 11.2571 7.06641 11.0027 6.99564 10.6464Z" fill="black"/>
<mask id="mask0_57:13312" style="mask-type:alpha" maskUnits="userSpaceOnUse" x="0" y="0" width="19" height="18">
<path fill-rule="evenodd" clip-rule="evenodd" d="M3.63524 1.5H1.25C0.835786 1.5 0.5 1.16421 0.5 0.75C0.5 0.335786 0.835786 0 1.25 0H4.25C4.60747 0 4.91526 0.252289 4.98541 0.602807L5.61532 3.75H17.75C18.2205 3.75 18.5749 4.17828 18.4867 4.6405L17.2856 10.9386C17.0733 12.0076 16.1253 12.7707 15.05 12.75L7.77437 12.7499C6.68468 12.7707 5.7367 12.0076 5.52459 10.9397L4.27159 4.6794C4.26651 4.6587 4.26229 4.63765 4.25896 4.61631L3.63524 1.5ZM5.75 15.7512C5.75 16.652 6.34951 17.2525 7.24878 17.2525C8.14804 17.2525 8.74755 16.652 8.74755 15.7512C8.74755 14.8505 8.14804 14.25 7.24878 14.25C6.34951 14.25 5.75 14.8505 5.75 15.7512ZM14 15.75C14 16.65 14.5995 17.25 15.4988 17.25C16.398 17.25 16.9976 16.65 16.9976 15.75C16.9976 14.85 16.398 14.25 15.4988 14.25C14.5995 14.25 14 14.85 14 15.75ZM6.99564 10.6464L5.91555 5.25H16.8435L15.8133 10.652C15.7436 11.0027 15.4276 11.2571 15.0644 11.2501L7.76001 11.25C7.38241 11.2571 7.06641 11.0027 6.99564 10.6464Z" fill="white"/>
</mask>
<g mask="url(#mask0_57:13312)">
<rect x="0.5" width="18" height="18" fill="#2BC055"/>
<path fill-rule="evenodd" clip-rule="evenodd" d="M16.6 7.5875C16.6187 7.625 16.6375 7.6625 16.675 7.7C16.75 7.775 16.75 7.925 16.75 8V17C16.75 18.275 15.775 19.25 14.5 19.25H5.5C4.225 19.25 3.25 18.275 3.25 17V5C3.25 3.725 4.225 2.75 5.5 2.75H11.5C11.575 2.75 11.725 2.75 11.8 2.825C11.875 2.825 11.95 2.9 12.025 2.975L16.525 7.475C16.5625 7.5125 16.5813 7.55 16.6 7.5875ZM14.2 7.25L12.25 5.3V7.25H14.2ZM14.5 17.75H5.5C5.05 17.75 4.75 17.45 4.75 17V5C4.75 4.55 5.05 4.25 5.5 4.25H10.75V8C10.75 8.45 11.05 8.75 11.5 8.75H15.25V17C15.25 17.45 14.95 17.75 14.5 17.75ZM13 12.5C13.45 12.5 13.75 12.2 13.75 11.75C13.75 11.3 13.45 11 13 11H7C6.55 11 6.25 11.3 6.25 11.75C6.25 12.2 6.55 12.5 7 12.5H13ZM13.75 14.75C13.75 15.2 13.45 15.5 13 15.5H7C6.55 15.5 6.25 15.2 6.25 14.75C6.25 14.3 6.55 14 7 14H13C13.45 14 13.75 14.3 13.75 14.75ZM7 8C6.55 8 6.25 8.3 6.25 8.75C6.25 9.2 6.55 9.5 7 9.5H8.5C8.95 9.5 9.25 9.2 9.25 8.75C9.25 8.3 8.95 8 8.5 8H7Z" fill="#2BC055"/>
</g>
</svg>
