<svg width="16" height="16" viewBox="0 0 16 16" fill="none" xmlns="http://www.w3.org/2000/svg">
<path fill-rule="evenodd" clip-rule="evenodd" d="M7.88132 15.5994C6.08013 15.5994 4.2789 15.6 2.47771 15.5991C1.75576 15.5987 1.20023 15.0382 1.2002 14.313C1.20015 12.1333 1.20033 9.95354 1.20069 7.77383C1.20079 7.04038 1.75249 6.48401 2.48559 6.4835C4.54221 6.48201 6.59883 6.48313 8.65547 6.48272C10.1929 6.48237 11.7303 6.48225 13.2676 6.4801C14.0198 6.47905 14.5752 7.03135 14.5754 7.78709C14.5759 9.96274 14.5763 12.1384 14.5759 14.3141C14.5757 15.0395 14.02 15.5989 13.2972 15.5994C11.4919 15.6006 9.68662 15.5998 7.88135 15.5998C7.88132 15.5996 7.88132 15.5995 7.88132 15.5994ZM4.67453 8.58133C4.45148 8.58133 4.22838 8.57894 4.00538 8.58184C3.68018 8.58609 3.43763 8.81129 3.4275 9.13553C3.41706 9.46855 3.41737 9.80241 3.42687 10.1355C3.43588 10.451 3.67847 10.6868 3.99304 10.6907C4.44313 10.6964 4.89341 10.6972 5.3435 10.6904C5.66765 10.6854 5.90869 10.4362 5.9132 10.1109C5.9176 9.79379 5.91778 9.47658 5.91315 9.15957C5.90831 8.82735 5.66189 8.58501 5.33155 8.58172C5.11254 8.57952 4.89353 8.58128 4.67453 8.58133ZM9.90979 11.2536C9.14979 10.3938 9.14875 9.54072 9.90468 8.68771C9.57237 8.49428 8.86264 8.53599 8.41657 9.01483C7.95718 9.50797 7.911 10.269 8.31279 10.7958C8.69478 11.2965 9.42677 11.509 9.90979 11.2536ZM10.5413 11.2575C11.1002 11.5106 11.8207 11.2762 12.1862 10.7312C12.5629 10.1694 12.4687 9.42162 11.964 8.94249C11.5364 8.53652 10.846 8.49916 10.5506 8.68959C11.3091 9.54387 11.3027 10.3973 10.5413 11.2575ZM10.8134 9.95913C10.8001 9.54382 10.6409 9.18544 10.3144 8.9032C10.2487 8.84639 10.2008 8.85219 10.1362 8.90515C9.48656 9.43805 9.48461 10.4858 10.1315 11.0271C10.2055 11.0891 10.2563 11.087 10.3273 11.0235C10.6414 10.7426 10.799 10.3916 10.8134 9.95913ZM11.1079 13.5014C11.3915 13.5014 11.675 13.5026 11.9585 13.5011C12.1853 13.4999 12.3475 13.3493 12.351 13.1405C12.3545 12.9275 12.1893 12.7657 11.9594 12.7649C11.3964 12.7628 10.8334 12.7626 10.2703 12.7643C10.0407 12.765 9.86941 12.9261 9.86916 13.1336C9.86892 13.3423 10.0391 13.5001 10.2694 13.5012C10.549 13.5025 10.8285 13.5015 11.1079 13.5014ZM4.66277 13.501C4.66277 13.5012 4.66277 13.5013 4.66277 13.5015C4.94225 13.5015 5.22175 13.5023 5.50121 13.5012C5.73307 13.5003 5.90341 13.3468 5.90702 13.1384C5.91067 12.9262 5.73762 12.7648 5.49914 12.7642C4.94018 12.7626 4.38122 12.7625 3.82226 12.7643C3.58952 12.765 3.42458 12.922 3.42521 13.1345C3.42582 13.3474 3.59137 13.5001 3.82433 13.5008C4.10381 13.5015 4.38329 13.501 4.66277 13.501ZM7.88492 13.5007C8.16837 13.5007 8.4518 13.5023 8.73522 13.5002C8.96399 13.4985 9.12238 13.3509 9.12732 13.1401C9.13231 12.9281 8.96896 12.7661 8.73549 12.7649C8.16867 12.762 7.60177 12.7614 7.03494 12.7679C6.95495 12.7688 6.86577 12.7991 6.79773 12.8425C6.66422 12.9275 6.61979 13.0967 6.66913 13.2534C6.71427 13.3968 6.84581 13.4974 7.01035 13.4997C7.30184 13.5037 7.59342 13.5008 7.88492 13.5007Z" fill="#0696D6"/>
<path fill-rule="evenodd" clip-rule="evenodd" d="M9.10379 1.16779C8.91507 1.45152 8.7374 1.71814 8.5603 1.98516C8.03676 2.77446 7.51407 3.56438 6.98977 4.35309C6.73866 4.73082 6.48405 5.10589 6.23241 5.48325C6.16788 5.58001 6.11499 5.68644 6.04425 5.77731C6.00969 5.82168 5.94656 5.86655 5.89602 5.86699C5.1622 5.87315 4.42834 5.87185 3.6945 5.87189C3.67998 5.87189 3.66543 5.86635 3.63184 5.85953C3.74929 5.68013 3.8597 5.51022 3.97132 5.34121C4.26326 4.89906 4.55488 4.45666 4.84827 4.01562C5.09276 3.64805 5.34087 3.28325 5.58515 2.91554C6.03155 2.24353 6.47764 1.5713 6.92113 0.897126C7.14065 0.563424 7.43813 0.378905 7.81844 0.401954C7.97592 0.411509 8.14469 0.47561 8.28086 0.563474C8.55892 0.742945 8.81837 0.955316 9.10379 1.16779Z" fill="#1B2746"/>
<path fill-rule="evenodd" clip-rule="evenodd" d="M10.4952 2.22388C10.6459 2.32863 10.7849 2.42449 10.923 2.52143C11.5335 2.94967 12.1431 3.37909 12.7544 3.80624C12.9898 3.97075 13.2149 4.14172 13.3048 4.43193C13.4119 4.77772 13.3651 5.09833 13.151 5.39326C13.0654 5.51104 12.9772 5.62717 12.8973 5.7486C12.8399 5.83571 12.7706 5.87259 12.6625 5.87183C12.0445 5.8674 11.4263 5.87006 10.8082 5.86978C9.88503 5.86938 8.96186 5.86858 8.03865 5.86796C7.99659 5.86792 7.95456 5.86794 7.88818 5.86794C8.76294 4.64521 9.62289 3.44316 10.4952 2.22388Z" fill="#1B2746"/>
</svg>
