<svg width="25" height="20" viewBox="0 0 25 20" fill="none" xmlns="http://www.w3.org/2000/svg">
<path fill-rule="evenodd" clip-rule="evenodd" d="M8.35577 1.99072L15.4555 1.99073C16.9048 1.99071 18.0526 1.99071 18.951 2.08884C19.8756 2.18983 20.6239 2.40262 21.2141 2.88209C21.4451 3.06975 21.4451 3.374 21.2141 3.56165C20.9832 3.74931 20.6086 3.74931 20.3777 3.56165C20.0439 3.2905 19.5868 3.12798 18.7934 3.04132C17.983 2.95279 16.9147 2.95177 15.411 2.95177L8.40025 2.95177C6.8965 2.95177 5.82819 2.95279 5.01776 3.04131C4.22435 3.12797 3.76723 3.2905 3.43348 3.56165C3.09973 3.8328 2.89968 4.20418 2.79301 4.84878C2.68405 5.5072 2.6828 6.37513 2.6828 7.59683V10.1596C2.6828 11.3813 2.68405 12.2493 2.79301 12.9077C2.89968 13.5522 3.09973 13.9236 3.43348 14.1948C3.76723 14.4659 4.22435 14.6285 5.01776 14.7151C5.82819 14.8036 6.8965 14.8047 8.40025 14.8047L15.411 14.8047C16.9147 14.8047 17.983 14.8037 18.7934 14.7151C19.5868 14.6285 20.0439 14.4659 20.3777 14.1948C20.9265 13.7489 21.0927 13.0561 21.1216 11.4341C21.1263 11.1687 21.3949 10.9567 21.7215 10.9606C22.0481 10.9644 22.3091 11.1826 22.3043 11.4479C22.2766 13.0032 22.1528 14.1118 21.2141 14.8744C20.6239 15.3538 19.8756 15.5666 18.951 15.6676C18.0526 15.7657 16.9048 15.7657 15.4555 15.7657L8.35577 15.7657C6.90648 15.7657 5.75854 15.7657 4.86014 15.6676C3.93556 15.5666 3.1872 15.3538 2.59703 14.8744C2.00686 14.3949 1.74495 13.7869 1.62065 13.0357C1.49985 12.3058 1.49986 11.3732 1.49988 10.1958V7.56068C1.49986 6.38323 1.49985 5.45061 1.62065 4.72072C1.74495 3.96956 2.00686 3.36157 2.59703 2.88209C3.1872 2.40261 3.93556 2.18983 4.86014 2.08884C5.75854 1.9907 6.90647 1.99071 8.35577 1.99072ZM19.4432 5.70393C20.2797 5.02431 21.636 5.02431 22.4725 5.70393C23.309 6.38354 23.309 7.48542 22.4725 8.16506L18.7224 11.2118C18.5184 11.3776 18.3803 11.4897 18.2257 11.5877C18.0438 11.7029 17.8471 11.8017 17.6389 11.8824C17.4619 11.9509 17.2767 12.001 17.0029 12.0751L15.3598 12.5201C14.997 12.6184 14.5971 12.5417 14.3267 12.322C14.0562 12.1023 13.9618 11.7773 14.0827 11.4826L14.6195 10.1745C14.6232 10.1655 14.6268 10.1565 14.6304 10.1476C14.7217 9.92525 14.7834 9.77475 14.8677 9.63092C14.967 9.46177 15.0886 9.30192 15.2305 9.15417C15.3511 9.02853 15.4891 8.91641 15.6932 8.75066C15.7013 8.74406 15.7095 8.7374 15.7178 8.73061L19.4432 5.70393ZM21.6361 6.38349C21.2615 6.07919 20.6542 6.07919 20.2796 6.38349L20.1363 6.49996C20.1441 6.52141 20.153 6.54423 20.1632 6.5682C20.2374 6.74192 20.3782 6.97168 20.6451 7.18855C20.912 7.40542 21.1948 7.51979 21.4087 7.58006C21.4382 7.58837 21.4663 7.59563 21.4927 7.60196L21.6361 7.48548C22.0106 7.18117 22.0106 6.6878 21.6361 6.38349ZM20.5892 8.33594C20.3385 8.22894 20.0679 8.0787 19.8087 7.8681C19.5495 7.6575 19.3645 7.43759 19.2328 7.23392L16.5542 9.4102C16.3168 9.60311 16.2335 9.67192 16.1632 9.74522C16.0742 9.83793 15.9979 9.93826 15.9356 10.0444C15.8864 10.1283 15.8478 10.2196 15.7417 10.4784L15.426 11.2478L15.6488 11.4288L16.5958 11.1724C16.9144 11.0861 17.0267 11.0548 17.13 11.0148C17.2606 10.9642 17.3841 10.9022 17.4982 10.8299C17.5884 10.7728 17.6731 10.705 17.9106 10.5122L20.5892 8.33594ZM5.44295 6.95613C5.44295 6.69075 5.70775 6.47561 6.03441 6.47561L16.5939 6.47561C16.9205 6.47561 17.1853 6.69075 17.1853 6.95613C17.1853 7.22152 16.9205 7.43666 16.5939 7.43666L6.03441 7.43665C5.70775 7.43665 5.44295 7.22151 5.44295 6.95613ZM5.44295 9.51892C5.44295 9.25354 5.70775 9.0384 6.03441 9.0384H8.00594C8.33258 9.0384 8.5974 9.25354 8.5974 9.51892C8.5974 9.7843 8.33258 9.99944 8.00594 9.99944H6.03441C5.70775 9.99944 5.44295 9.7843 5.44295 9.51892ZM5.44295 12.0817C5.44295 11.8163 5.70775 11.6012 6.03441 11.6012H7.21733C7.54398 11.6012 7.80879 11.8163 7.80879 12.0817C7.80879 12.3471 7.54398 12.5622 7.21733 12.5622H6.03441C5.70775 12.5622 5.44295 12.3471 5.44295 12.0817Z" fill="#0696D6"/>
</svg>
