<svg width="16" height="16" viewBox="0 0 16 16" fill="none" xmlns="http://www.w3.org/2000/svg">
<path d="M5.69252 7.41528H5.10791V8.58451H5.69252H10.3694H10.954V7.41528H10.3694H5.69252Z" fill="#0696D6"/>
<path d="M5.69252 9.75378H5.10791V10.923H5.69252H7.44636H8.03097V9.75378H7.44636H5.69252Z" fill="#0696D6"/>
<path d="M10.609 0.400024H1.6001V13.8461C1.6001 14.3113 1.78488 14.7574 2.11378 15.0863C2.44269 15.4152 2.88879 15.6 3.35394 15.6H12.7077C13.1729 15.6 13.619 15.4152 13.9479 15.0863C14.2768 14.7574 14.4616 14.3113 14.4616 13.8461V4.25262L10.609 0.400024ZM10.3693 1.80894L13.0527 4.49231H10.9539C10.7989 4.49231 10.6502 4.43072 10.5405 4.32108C10.4309 4.21145 10.3693 4.06275 10.3693 3.9077V1.80894ZM12.7077 14.4307H3.35394C3.19889 14.4307 3.05019 14.3691 2.94055 14.2595C2.83092 14.1499 2.76932 14.0012 2.76932 13.8461V1.56925H9.20006V3.9077C9.20006 4.37285 9.38484 4.81894 9.71375 5.14785C10.0427 5.47676 10.4888 5.66154 10.9539 5.66154H13.2923V13.8461C13.2923 14.0012 13.2308 14.1499 13.1211 14.2595C13.0115 14.3691 12.8628 14.4307 12.7077 14.4307Z" fill="#0696D6"/>
</svg>
