<svg width="41" height="40" viewBox="0 0 41 40" fill="none" xmlns="http://www.w3.org/2000/svg">
<path d="M0.666748 8C0.666748 3.58172 4.24847 0 8.66675 0H32.6667C37.085 0 40.6667 3.58172 40.6667 8V32C40.6667 36.4183 37.085 40 32.6667 40H8.66675C4.24847 40 0.666748 36.4183 0.666748 32V8Z" fill="#EAFBF3"/>
<path d="M25.6155 23.0782C25.7426 22.979 25.8579 22.8638 26.0885 22.6332L28.9626 19.759C29.0321 19.6896 29.0003 19.5699 28.9074 19.5376C28.5682 19.42 28.1268 19.199 27.714 18.7862C27.3012 18.3733 27.0802 17.932 26.9625 17.5927C26.9303 17.4999 26.8106 17.4681 26.7412 17.5376L23.867 20.4117C23.6364 20.6423 23.5211 20.7576 23.422 20.8847C23.3051 21.0346 23.2048 21.1968 23.123 21.3685C23.0536 21.514 23.002 21.6687 22.899 21.978L22.7657 22.3777L22.5539 23.0132L22.3552 23.6091C22.3045 23.7613 22.3441 23.9291 22.4576 24.0426C22.5711 24.1561 22.7388 24.1956 22.8911 24.1449L23.487 23.9463L24.1225 23.7344L24.5222 23.6012C24.8314 23.4981 24.9862 23.4465 25.1317 23.3772C25.3033 23.2954 25.4655 23.1951 25.6155 23.0782Z" fill="#2AD587"/>
<path d="M29.4351 18.9887C29.9663 18.4575 29.9663 17.5963 29.4351 17.0651C28.904 16.534 28.0428 16.534 27.5116 17.0651L27.4316 17.1451C27.3544 17.2223 27.3194 17.3302 27.3387 17.4377C27.3509 17.5053 27.3733 17.6041 27.4142 17.722C27.4961 17.9579 27.6506 18.2675 27.9417 18.5586C28.2327 18.8497 28.5424 19.0042 28.7782 19.086C28.8962 19.1269 28.995 19.1494 29.0626 19.1615C29.17 19.1808 29.2779 19.1459 29.3551 19.0686L29.4351 18.9887Z" fill="#2AD587"/>
<path fill-rule="evenodd" clip-rule="evenodd" d="M12.2594 14.1143C11.5 14.8954 11.5 16.1524 11.5 18.6666V21.3333C11.5 23.8474 11.5 25.1045 12.2594 25.8855C13.0187 26.6666 14.2409 26.6666 16.6852 26.6666H22.9815C25.4258 26.6666 26.648 26.6666 27.4073 25.8855C28.1545 25.117 28.1665 23.8877 28.1667 21.4533L26.34 23.3322C26.1651 23.5121 26.0219 23.6595 25.8602 23.7893C25.6707 23.9413 25.4657 24.0717 25.2488 24.178C25.0636 24.2687 24.8714 24.3346 24.6367 24.4149L23.1384 24.9287C22.6532 25.095 22.1183 24.9651 21.7566 24.5931C21.395 24.2211 21.2687 23.6709 21.4305 23.1719L21.6077 22.6249L21.9157 21.6747L21.9299 21.6308C22.008 21.3894 22.072 21.1917 22.1602 21.0012C22.2636 20.7781 22.3903 20.5672 22.5381 20.3723C22.6643 20.2059 22.8076 20.0587 22.9826 19.8788L25.5793 17.2078L26.3 16.4666L26.3824 16.3818C26.8461 15.9049 27.4539 15.6665 28.0617 15.6666C27.9636 14.9796 27.774 14.4914 27.4073 14.1143C26.648 13.3333 25.4258 13.3333 22.9815 13.3333H16.6852C14.2409 13.3333 13.0187 13.3333 12.2594 14.1143ZM14.2546 17.9999C14.2546 17.7238 14.4723 17.4999 14.7407 17.4999H22.287C22.5555 17.4999 22.7731 17.7238 22.7731 17.9999C22.7731 18.2761 22.5555 18.4999 22.287 18.4999H14.7407C14.4723 18.4999 14.2546 18.2761 14.2546 17.9999ZM14.2546 20.6666C14.2546 20.3905 14.4723 20.1666 14.7407 20.1666H17.1944C17.4629 20.1666 17.6806 20.3905 17.6806 20.6666C17.6806 20.9427 17.4629 21.1666 17.1944 21.1666H14.7407C14.4723 21.1666 14.2546 20.9427 14.2546 20.6666ZM14.2546 23.3333C14.2546 23.0571 14.4723 22.8333 14.7407 22.8333H16.5463C16.8148 22.8333 17.0324 23.0571 17.0324 23.3333C17.0324 23.6094 16.8148 23.8333 16.5463 23.8333H14.7407C14.4723 23.8333 14.2546 23.6094 14.2546 23.3333Z" fill="#2AD587"/>
</svg>
