<svg width="30" height="30" viewBox="0 0 40 40" fill="none" xmlns="http://www.w3.org/2000/svg">
<path fill-rule="evenodd" clip-rule="evenodd" d="M25.6906 34.2781C25.8804 34.2781 26.0656 34.2803 26.2476 34.2824C26.6449 34.2871 27.0266 34.2916 27.4072 34.2729C27.5833 34.2642 27.7603 34.2581 27.9375 34.2521H27.9376C28.5466 34.2313 29.1581 34.2104 29.7449 34.083C31.7595 33.6461 33.2709 31.7504 33.2763 29.6934C33.2906 24.1943 33.2921 18.6949 33.2758 13.1958C33.2693 10.9572 31.4782 8.97432 29.2591 8.69094C28.8475 8.63843 28.4279 8.60214 28.0148 8.62143C27.6386 8.639 27.541 8.50256 27.5637 8.15175C27.5914 7.725 27.5849 7.2946 27.5669 6.86692C27.556 6.60861 27.6377 6.46853 27.878 6.34316C29.1804 5.66346 29.7499 4.34599 29.3563 2.98559C29.0641 1.97572 28.0253 1.11879 27.0335 1.01706C25.5528 0.865264 24.5333 1.7542 24.1509 2.57677C23.482 4.01546 23.9949 5.5836 25.4063 6.31573C25.6758 6.45553 25.7541 6.60954 25.7447 6.89064C25.7317 7.28222 25.7343 7.67433 25.737 8.07529V8.07532C25.7381 8.2435 25.7393 8.41324 25.7393 8.58514H14.2719C14.2719 8.43036 14.2713 8.27557 14.2708 8.12078C14.2691 7.60323 14.2674 7.0857 14.285 6.56875C14.2876 6.49371 14.4444 6.41018 14.553 6.35228L14.5701 6.34316C15.7866 5.69268 16.377 4.43157 16.0639 3.1401C15.7797 1.96807 14.6983 1.08435 13.5389 1.00828C12.1511 0.917339 11.0403 1.81177 10.6652 2.91801C10.2571 4.12126 10.6994 5.51424 11.7957 6.12893C12.3581 6.44424 12.4982 6.80456 12.4363 7.36832C12.4078 7.62706 12.4103 7.89365 12.4363 8.15282C12.4716 8.50506 12.3595 8.61772 11.9877 8.62479C11.3971 8.63607 10.7953 8.67779 10.2212 8.80809C8.26492 9.2522 6.7305 11.1571 6.72536 13.1594C6.71157 18.6584 6.70893 24.1578 6.72479 29.6568C6.7315 31.9466 8.50773 33.9115 10.7768 34.2018C11.1415 34.2485 11.5114 34.2733 11.8792 34.2751C12.5169 34.2783 13.1546 34.278 13.7924 34.2777C14.702 34.2773 15.6117 34.2769 16.5212 34.2866C16.7561 34.2891 17.0212 34.3556 17.2193 34.4781C19.5369 35.9098 21.8463 37.3547 24.1521 38.8054C24.4927 39.0196 24.8323 39.106 25.1904 38.9098C25.5593 38.7077 25.6931 38.3623 25.6918 37.9502C25.6892 37.0933 25.6897 36.2362 25.6902 35.3544V35.354L25.6902 35.3457C25.6904 34.9943 25.6906 34.639 25.6906 34.2781ZM20.0176 27.7368C19.7817 27.7164 19.5456 27.697 19.3096 27.6775L19.3094 27.6775C18.7883 27.6346 18.2671 27.5916 17.7469 27.539C16.0866 27.371 14.5156 26.8799 13.0044 26.188C12.8373 26.1115 12.6715 25.9923 12.5557 25.8512C12.2536 25.4833 12.2701 25.0123 12.564 24.6345C12.839 24.2808 13.3216 24.1539 13.7905 24.3754C15.1588 25.0216 16.5973 25.3931 18.0948 25.5799C19.957 25.8123 21.8034 25.7241 23.616 25.2641C24.2521 25.1026 24.8701 24.8698 25.4881 24.637L25.4882 24.6369C25.7487 24.5388 26.0091 24.4407 26.2708 24.348C26.7351 24.1835 27.189 24.2991 27.4546 24.66C27.7386 25.0459 27.7499 25.527 27.4269 25.8739C27.2639 26.0491 27.0317 26.1769 26.8087 26.2766C24.65 27.2408 22.3846 27.7029 20.0176 27.7368ZM24.7601 14.2771C26.2579 14.276 27.4654 15.3515 27.6467 16.8481C27.7309 17.5423 27.3847 18.0685 26.7898 18.151C26.2152 18.2308 25.7806 17.8257 25.6877 17.1241C25.6175 16.5928 25.2289 16.2445 24.7259 16.2615C24.2335 16.2782 23.9273 16.6125 23.8524 17.1622C23.8245 17.3666 23.755 17.5853 23.6402 17.7538C23.3894 18.1218 22.9432 18.2395 22.532 18.0945C22.1165 17.9478 21.8643 17.5758 21.8586 17.1009C21.8404 15.5762 23.174 14.2782 24.7601 14.2771ZM15.2392 14.2781C16.8169 14.2796 18.125 15.5349 18.1423 17.0637C18.1491 17.6591 17.7483 18.1205 17.1937 18.1555C16.6518 18.1898 16.1955 17.7602 16.1418 17.1652C16.0908 16.6005 15.751 16.2584 15.2427 16.26C14.7397 16.2616 14.3264 16.6203 14.3225 17.1574C14.3182 17.7686 13.7506 18.2037 13.2506 18.1552C12.6744 18.0992 12.2888 17.5919 12.3432 16.9578C12.4759 15.4084 13.6994 14.2764 15.2392 14.2781ZM35.3085 16.2774V25.6464C37.4695 26.0462 39.0011 24.5991 38.9987 22.9022C38.998 22.4031 38.9986 21.9039 38.9992 21.4048C39.0001 20.6188 39.001 19.8329 38.9971 19.0469C38.9896 17.5944 37.9362 16.4256 36.4922 16.2831C36.2299 16.2573 35.9644 16.264 35.6928 16.2709C35.5661 16.2742 35.4381 16.2774 35.3085 16.2774ZM4.70019 25.5457C4.69729 25.5951 4.69421 25.6477 4.69151 25.7051C4.58476 25.7051 4.4807 25.7061 4.37849 25.7071C4.16231 25.7092 3.95442 25.7112 3.74693 25.7035C2.21065 25.6468 1.00726 24.4108 1.00241 22.8827C0.998263 21.5859 1.00012 20.289 1.00312 18.9921C1.0049 18.2111 1.3235 17.566 1.87184 17.0258C2.55318 16.3544 3.40276 16.2255 4.31169 16.245C4.616 16.2514 4.71908 16.3193 4.71772 16.6425C4.70871 18.7662 4.70954 20.8899 4.71036 23.0136C4.71065 23.7692 4.71095 24.5247 4.7108 25.2803C4.7108 25.3646 4.70585 25.449 4.70019 25.5457Z" fill="#FFF"/>
</svg>
