<svg width="40" height="40" viewBox="0 0 40 40" fill="none" xmlns="http://www.w3.org/2000/svg">
<path fill-rule="evenodd" clip-rule="evenodd" d="M3.81472 39C2.4387 38.5017 1.99605 37.4939 2.00003 36.0736C2.0302 25.2922 2.01593 14.511 2.01719 3.72944C2.01737 2.26038 2.57511 1.39097 3.73125 1.08671C4.00877 1.01354 4.30887 1.0036 4.59867 1.0036C15.0249 0.999628 25.451 0.998906 35.877 1.00162C37.5405 1.00216 38.4556 1.88909 38.4567 3.54063C38.4634 14.5099 38.4547 25.4794 38.4676 36.4487C38.4692 37.7604 37.824 38.5458 36.6624 39C33.2775 39 29.8922 39 26.5073 39C25.1211 38.5263 24.5992 37.5275 24.6396 36.1034C24.6873 34.4336 24.6535 32.7613 24.6497 31.0901C24.6478 30.2586 24.4909 30.1025 23.6595 30.1014C21.3405 30.0985 19.0219 30.0987 16.7031 30.1014C15.9268 30.1023 15.8307 30.1943 15.8283 30.9647C15.8233 32.6777 15.7907 34.3917 15.8377 36.1032C15.8767 37.5266 15.3571 38.5266 13.9703 38.9998C10.585 39 7.19984 39 3.81472 39ZM4.34482 20.007C4.34482 20.0906 4.34482 20.1743 4.34482 20.2577C4.34482 25.3766 4.34356 30.4955 4.34609 35.6143C4.34645 36.5063 4.46804 36.6395 5.27692 36.6408C7.74241 36.6444 10.2079 36.6288 12.6732 36.6514C13.2633 36.6568 13.4868 36.4693 13.477 35.8613C13.4474 34.0439 13.464 32.226 13.4671 30.4082C13.47 28.6604 14.3817 27.7456 16.1356 27.7422C18.8727 27.7367 21.6095 27.7367 24.3468 27.7423C26.0984 27.746 27.0074 28.6616 27.0101 30.4131C27.013 32.2099 27.0128 34.0069 27.0095 35.8037C27.0088 36.2332 27.056 36.6342 27.6123 36.635C30.2237 36.6386 32.8352 36.631 35.4467 36.6286C35.8877 36.6283 36.0917 36.3894 36.1177 35.9723C36.1307 35.7641 36.1318 35.5547 36.1318 35.346C36.1323 25.1291 36.1323 14.9121 36.1322 4.69533C36.1322 3.52185 35.9634 3.35201 34.7912 3.35201C25.034 3.35147 15.2767 3.35147 5.51957 3.35201C4.42414 3.35201 4.34518 3.43115 4.34518 4.52495C4.34464 9.68556 4.34482 14.8462 4.34482 20.007Z" fill="#0696D6"/>
<path fill-rule="evenodd" clip-rule="evenodd" d="M11.9637 14.1931C10.732 14.1928 9.49998 14.2034 8.26851 14.1895C7.04805 14.176 6.31975 13.4547 6.30909 12.2382C6.29446 10.589 6.29518 8.93965 6.30873 7.29045C6.3183 6.1036 7.01589 5.34079 8.19985 5.32507C10.7255 5.29129 13.2521 5.29381 15.7779 5.32345C16.9922 5.33754 17.7097 6.10378 17.7205 7.3152C17.7351 8.94362 17.7353 10.572 17.7205 12.2005C17.7093 13.4433 16.9667 14.1678 15.7213 14.1926C15.6796 14.1935 15.6379 14.1931 15.5961 14.1931C14.3854 14.1935 13.1745 14.1935 11.9637 14.1931ZM12.0238 7.66354C11.1055 7.66354 10.1869 7.67782 9.2689 7.6574C8.81035 7.64728 8.63184 7.8303 8.63889 8.28326C8.65443 9.28492 8.65388 10.2871 8.63889 11.2888C8.63274 11.6915 8.80186 11.8498 9.19392 11.8487C11.0514 11.8429 12.9089 11.8427 14.7665 11.85C15.1833 11.8516 15.3723 11.6873 15.3658 11.2548C15.3508 10.2531 15.3508 9.25095 15.3672 8.24947C15.3743 7.82236 15.2124 7.64909 14.7786 7.65794C13.8609 7.67637 12.9422 7.66336 12.0238 7.66354Z" fill="#0696D6"/>
<path fill-rule="evenodd" clip-rule="evenodd" d="M28.4556 14.1927C27.224 14.1931 25.9919 14.2025 24.7605 14.1904C23.5138 14.1781 22.7674 13.4451 22.7559 12.2062C22.7409 10.578 22.7416 8.94938 22.7557 7.32096C22.7662 6.10773 23.4809 5.33878 24.6931 5.32396C27.2189 5.29325 29.7456 5.2918 32.2711 5.32469C33.4589 5.34004 34.1575 6.09852 34.1676 7.28483C34.1815 8.93402 34.1815 10.5836 34.1676 12.2328C34.1572 13.4507 33.4301 14.1758 32.2135 14.1895C30.9608 14.2036 29.7082 14.1926 28.4556 14.1927ZM28.5006 11.8476C29.4388 11.8476 30.3776 11.8371 31.3159 11.8526C31.6886 11.8588 31.8425 11.7238 31.8377 11.344C31.8241 10.3014 31.8274 9.25833 31.8357 8.21584C31.8389 7.83227 31.7096 7.65286 31.2889 7.65647C29.4121 7.67273 27.5351 7.66876 25.6582 7.65973C25.2694 7.65774 25.0965 7.7806 25.1061 8.20157C25.1299 9.22292 25.1323 10.2455 25.1054 11.2669C25.0938 11.7104 25.2662 11.8579 25.6851 11.8516C26.6234 11.8376 27.5622 11.8472 28.5006 11.8476Z" fill="#0696D6"/>
<path fill-rule="evenodd" clip-rule="evenodd" d="M28.4536 25.6258C27.2637 25.6262 26.0738 25.6341 24.884 25.6242C23.4677 25.6124 22.7595 24.9078 22.7537 23.5094C22.7474 21.9644 22.7476 20.4197 22.7537 18.8753C22.7591 17.5038 23.4612 16.7666 24.8204 16.7572C27.2626 16.7404 29.7052 16.7397 32.1473 16.7581C33.4561 16.7682 34.1611 17.4888 34.1696 18.78C34.1799 20.3873 34.1799 21.9948 34.1696 23.6019C34.1613 24.8948 33.4534 25.6048 32.1482 25.6222C30.9169 25.6383 29.6853 25.6256 28.4536 25.6258ZM28.4515 23.2938C29.3901 23.2938 30.329 23.283 31.2673 23.2989C31.6552 23.3054 31.8447 23.1856 31.8386 22.7666C31.8232 21.703 31.8274 20.6392 31.8373 19.5755C31.8405 19.2413 31.7338 19.0823 31.3713 19.0841C29.4526 19.0946 27.5336 19.0928 25.6147 19.0863C25.241 19.085 25.1032 19.2399 25.109 19.6135C25.1252 20.6562 25.1346 21.6997 25.1052 22.7417C25.092 23.2048 25.2891 23.3081 25.6985 23.2998C26.6158 23.2814 27.5338 23.294 28.4515 23.2938Z" fill="#0696D6"/>
<path fill-rule="evenodd" clip-rule="evenodd" d="M12.478 25.6255C11.2675 25.6255 10.0568 25.6358 8.84648 25.6228C7.49937 25.6084 6.79745 24.9158 6.78516 23.5767C6.77053 21.9907 6.77125 20.4042 6.7848 18.8181C6.79637 17.4749 7.49215 16.7658 8.83311 16.7569C11.2749 16.7409 13.7171 16.7394 16.1589 16.7578C17.4831 16.768 18.1939 17.5026 18.2052 18.8365C18.2186 20.4019 18.2179 21.9672 18.2054 23.5326C18.1946 24.8976 17.4784 25.6094 16.1094 25.623C14.8993 25.6355 13.6886 25.6257 12.478 25.6255ZM12.4598 23.2927C13.4185 23.2927 14.3771 23.2862 15.3356 23.2961C15.6966 23.2999 15.8635 23.1785 15.857 22.7879C15.8389 21.7047 15.8431 20.6207 15.8554 19.5372C15.859 19.2156 15.7354 19.0867 15.4183 19.0876C13.5012 19.0927 11.5839 19.0914 9.66692 19.0909C9.29618 19.0909 9.09455 19.2197 9.10322 19.643C9.12472 20.6637 9.12075 21.6854 9.10521 22.706C9.09834 23.1434 9.2969 23.3001 9.7092 23.2959C10.6258 23.2863 11.5429 23.2927 12.4598 23.2927Z" fill="#0696D6"/>
</svg>
