<svg width="21" height="20" viewBox="0 0 21 20" fill="none" xmlns="http://www.w3.org/2000/svg">
    <path d="M15.649 7.57576C15.9936 7.21531 15.9936 6.63084 15.649 6.27036C15.3044 5.90988 14.7458 5.90988 14.4013 6.27036L9.14277 11.7715L7.41374 9.96272C7.06917 9.60223 6.51048 9.60223 6.1659 9.96272C5.82133 10.3232 5.82133 10.9076 6.1659 11.2681L8.51885 13.7296C8.86348 14.0901 9.42207 14.0901 9.76666 13.7296L15.649 7.57576Z" fill="white"/>
    <path fill-rule="evenodd" clip-rule="evenodd" d="M10.9074 1.04169C5.95988 1.04169 1.9491 5.05247 1.9491 10C1.9491 14.9476 5.95988 18.9584 10.9074 18.9584C15.855 18.9584 19.8658 14.9476 19.8658 10C19.8658 5.05247 15.855 1.04169 10.9074 1.04169ZM3.1991 10C3.1991 5.74283 6.65024 2.29169 10.9074 2.29169C15.1646 2.29169 18.6158 5.74283 18.6158 10C18.6158 14.2572 15.1646 17.7084 10.9074 17.7084C6.65024 17.7084 3.1991 14.2572 3.1991 10Z" fill="white"/>
</svg>
