<svg width="52" height="52" viewBox="0 0 52 52" fill="none" xmlns="http://www.w3.org/2000/svg">
<path d="M0 8C0 3.58172 3.58172 0 8 0H44C48.4183 0 52 3.58172 52 8V44C52 48.4183 48.4183 52 44 52H8C3.58172 52 0 48.4183 0 44V8Z" fill="#E6F7FE"/>
<path d="M26 11.6667C26.5523 11.6667 27 12.1145 27 12.6667V13.002C27.1483 13.0042 27.2748 13.0091 27.3928 13.0195C29.8064 13.2329 31.7195 15.1461 31.933 17.5597C31.9524 17.7802 31.9524 18.0302 31.9524 18.3972V20.0281C31.9524 25.1871 28.027 29.4293 23 29.9309V32.6669C23 35.7965 25.5371 38.3335 28.6667 38.3335H29.8432C31.7071 38.3335 33.3079 37.1975 33.987 35.5763C34.04 35.4497 34.0771 35.3053 34.1 35.1397C32.4944 34.6197 31.3334 33.1122 31.3334 31.3334C31.3334 29.1242 33.1243 27.3334 35.3334 27.3334C37.5426 27.3334 39.3334 29.1242 39.3334 31.3334C39.3334 33.2805 37.9423 34.9025 36.0998 35.2601C36.063 35.6114 35.985 35.983 35.8318 36.349C34.8522 38.6875 32.5411 40.3335 29.8432 40.3335H28.6667C24.4326 40.3335 21 36.901 21 32.6669V29.9327C15.7623 29.4297 11.6667 25.0167 11.6667 19.6471L11.6667 18.3973C11.6667 18.0302 11.6666 17.7803 11.6861 17.5597C11.8996 15.1461 13.8127 13.2329 16.2263 13.0195C16.4338 13.0012 16.6674 13.0001 17 13.0001V12.6667C17 12.1145 17.4477 11.6667 18 11.6667C18.5523 11.6667 19 12.1145 19 12.6667V15.3334C19 15.8857 18.5523 16.3334 18 16.3334C17.4477 16.3334 17 15.8857 17 15.3334V15.0001C16.6488 15.0003 16.5119 15.0021 16.4024 15.0117C14.9543 15.1398 13.8064 16.2877 13.6784 17.7358C13.6677 17.8566 13.6667 18.0108 13.6667 18.4493V19.6471C13.6667 24.2495 17.3977 27.9805 22 27.9805C26.392 27.9805 29.9524 24.4201 29.9524 20.0281V18.4493C29.9524 18.0108 29.9515 17.8566 29.9407 17.7358C29.8127 16.2877 28.6648 15.1398 27.2167 15.0117C27.1603 15.0067 27.0966 15.0039 27 15.0022V15.3334C27 15.8857 26.5523 16.3334 26 16.3334C25.4478 16.3334 25 15.8857 25 15.3334V12.6667C25 12.1145 25.4478 11.6667 26 11.6667Z" fill="#0696D6"/>
</svg>
