<svg width="15" height="16" viewBox="0 0 15 16" fill="none" xmlns="http://www.w3.org/2000/svg">
<g clip-path="url(#clip0_7864_89108)">
<path d="M14.5312 4.25H13.125V1.90625C13.125 1.53329 12.9768 1.1756 12.7131 0.911881C12.4494 0.648158 12.0917 0.5 11.7188 0.5C11.3458 0.5 10.9881 0.648158 10.7244 0.911881C10.4607 1.1756 10.3125 1.53329 10.3125 1.90625V4.25H1.40625C1.03329 4.25 0.675604 4.39816 0.411881 4.66188C0.148158 4.9256 0 5.28329 0 5.65625L0 14.0938C0 14.4667 0.148158 14.8244 0.411881 15.0881C0.675604 15.3518 1.03329 15.5 1.40625 15.5H10.7812C10.9056 15.5 11.0248 15.4506 11.1127 15.3627C11.2006 15.2748 11.25 15.1556 11.25 15.0312V13.625H14.5312C14.6556 13.625 14.7748 13.5756 14.8627 13.4877C14.9506 13.3998 15 13.2806 15 13.1562V4.71875C15 4.59443 14.9506 4.4752 14.8627 4.38729C14.7748 4.29939 14.6556 4.25 14.5312 4.25ZM11.25 3.3125H12.1875V7.33906L11.7188 7.80781L11.25 7.33906V3.3125ZM11.7188 1.4375C11.8431 1.4375 11.9623 1.48689 12.0502 1.57479C12.1381 1.6627 12.1875 1.78193 12.1875 1.90625V2.375H11.25V1.90625C11.25 1.78193 11.2994 1.6627 11.3873 1.57479C11.4752 1.48689 11.5944 1.4375 11.7188 1.4375ZM10.3125 14.5625H1.40625C1.28193 14.5625 1.1627 14.5131 1.07479 14.4252C0.986886 14.3373 0.9375 14.2181 0.9375 14.0938C0.9375 13.9694 0.986886 13.8502 1.07479 13.7623C1.1627 13.6744 1.28193 13.625 1.40625 13.625H10.3125V14.5625ZM14.0625 12.6875H1.40625C1.24634 12.6888 1.08782 12.7173 0.9375 12.7719V5.65625C0.9375 5.53193 0.986886 5.4127 1.07479 5.32479C1.1627 5.23689 1.28193 5.1875 1.40625 5.1875H10.3125V7.53125C10.3121 7.59294 10.324 7.65409 10.3473 7.71121C10.3706 7.76832 10.405 7.82026 10.4484 7.86406L11.3859 8.80156C11.4295 8.8455 11.4814 8.88037 11.5385 8.90417C11.5956 8.92797 11.6569 8.94022 11.7188 8.94022C11.7806 8.94022 11.8419 8.92797 11.899 8.90417C11.9561 8.88037 12.008 8.8455 12.0516 8.80156L12.9891 7.86406C13.0325 7.82026 13.0669 7.76832 13.0902 7.71121C13.1135 7.65409 13.1254 7.59294 13.125 7.53125V5.1875H14.0625V12.6875Z" fill="black"/>
<path d="M2.34375 7.0625H6.09375C6.21807 7.0625 6.3373 7.01311 6.42521 6.92521C6.51311 6.8373 6.5625 6.71807 6.5625 6.59375C6.5625 6.46943 6.51311 6.3502 6.42521 6.26229C6.3373 6.17439 6.21807 6.125 6.09375 6.125H2.34375C2.21943 6.125 2.1002 6.17439 2.01229 6.26229C1.92439 6.3502 1.875 6.46943 1.875 6.59375C1.875 6.71807 1.92439 6.8373 2.01229 6.92521C2.1002 7.01311 2.21943 7.0625 2.34375 7.0625Z" fill="black"/>
<path d="M8.4375 8.46875C8.4375 8.34443 8.38811 8.2252 8.30021 8.13729C8.2123 8.04939 8.09307 8 7.96875 8H2.34375C2.21943 8 2.1002 8.04939 2.01229 8.13729C1.92439 8.2252 1.875 8.34443 1.875 8.46875C1.875 8.59307 1.92439 8.7123 2.01229 8.80021C2.1002 8.88811 2.21943 8.9375 2.34375 8.9375H7.96875C8.09307 8.9375 8.2123 8.88811 8.30021 8.80021C8.38811 8.7123 8.4375 8.59307 8.4375 8.46875Z" fill="black"/>
<path d="M12.6562 10.8128H11.9719L11.1703 9.61746C11.1274 9.55365 11.0695 9.50136 11.0017 9.46521C10.9338 9.42906 10.8581 9.41016 10.7812 9.41016C10.7044 9.41016 10.6287 9.42906 10.5608 9.46521C10.493 9.50136 10.4351 9.55365 10.3922 9.61746L9.59062 10.8128H8.4375C8.31318 10.8128 8.19395 10.8622 8.10604 10.9501C8.01814 11.038 7.96875 11.1572 7.96875 11.2815C7.96875 11.4058 8.01814 11.5251 8.10604 11.613C8.19395 11.7009 8.31318 11.7503 8.4375 11.7503H9.84375C9.92096 11.7499 9.99687 11.7304 10.0647 11.6936C10.1326 11.6568 10.1903 11.6038 10.2328 11.5393L10.7812 10.719L11.3297 11.5393C11.3722 11.6038 11.4299 11.6568 11.4978 11.6936C11.5656 11.7304 11.6415 11.7499 11.7188 11.7503H12.6562C12.7806 11.7503 12.8998 11.7009 12.9877 11.613C13.0756 11.5251 13.125 11.4058 13.125 11.2815C13.125 11.1572 13.0756 11.038 12.9877 10.9501C12.8998 10.8622 12.7806 10.8128 12.6562 10.8128Z" fill="black"/>
</g>
<defs>
<clipPath id="clip0_7864_89108">
<rect width="15" height="15" fill="white" transform="translate(0 0.5)"/>
</clipPath>
</defs>
</svg>
