<svg width="37" height="36" viewBox="0 0 37 36" fill="none" xmlns="http://www.w3.org/2000/svg">
<path opacity="0.25" fill-rule="evenodd" clip-rule="evenodd" d="M4.22011 9.81288C4.65531 6.51769 7.18419 3.98881 10.4794 3.55361C12.7448 3.25442 15.5785 3.00012 18.6666 3.00012C21.7547 3.00012 24.5885 3.25442 26.8539 3.55361C30.1491 3.98881 32.6779 6.51769 33.1131 9.81288C33.4123 12.0782 33.6666 14.912 33.6666 18.0001C33.6666 21.0882 33.4123 23.922 33.1131 26.1874C32.6779 29.4826 30.1491 32.0114 26.8539 32.4466C24.5885 32.7458 21.7547 33.0001 18.6666 33.0001C15.5785 33.0001 12.7447 32.7458 10.4794 32.4466C7.18419 32.0114 4.65531 29.4826 4.22011 26.1874C3.92093 23.922 3.66663 21.0882 3.66663 18.0001C3.66663 14.912 3.92093 12.0782 4.22011 9.81288Z" fill="#7E7E7E"/>
<path fill-rule="evenodd" clip-rule="evenodd" d="M13.106 12.4395C13.6918 11.8537 14.6415 11.8537 15.2273 12.4395L18.6666 15.8788L22.106 12.4395C22.6918 11.8537 23.6415 11.8537 24.2273 12.4395C24.8131 13.0252 24.8131 13.975 24.2273 14.5608L20.7879 18.0001L24.2273 21.4395C24.8131 22.0252 24.8131 22.975 24.2273 23.5608C23.6415 24.1466 22.6918 24.1466 22.106 23.5608L18.6666 20.1214L15.2273 23.5608C14.6415 24.1466 13.6918 24.1466 13.106 23.5608C12.5202 22.975 12.5202 22.0252 13.106 21.4395L16.5453 18.0001L13.106 14.5608C12.5202 13.975 12.5202 13.0252 13.106 12.4395Z" fill="white"/>
</svg>
