<svg width="20" height="20" viewBox="0 0 20 20" fill="none" xmlns="http://www.w3.org/2000/svg">
<path fill-rule="evenodd" clip-rule="evenodd" d="M6.33211 3.73888C6.55446 2.64732 7.52581 1.875 8.63866 1.875H11.3615C12.4743 1.875 13.4457 2.64732 13.6681 3.73888C13.7194 3.99087 13.9477 4.17572 14.1851 4.17572H14.1987L14.2124 4.17631C15.3819 4.22745 16.2802 4.37097 17.0302 4.86298C17.5027 5.17297 17.9092 5.57181 18.2259 6.0372C18.62 6.61622 18.7937 7.28078 18.8771 8.08454C18.9584 8.86983 18.9584 9.85417 18.9584 11.1009V11.1718C18.9584 12.4186 18.9584 13.4029 18.8771 14.1882C18.7937 14.9919 18.62 15.6565 18.2259 16.2355C17.9092 16.7009 17.5027 17.0998 17.0302 17.4097C16.444 17.7943 15.7719 17.9639 14.9567 18.0453C14.1587 18.125 13.1576 18.125 11.8862 18.125H8.11389C6.84257 18.125 5.84147 18.125 5.04338 18.0453C4.22824 17.9639 3.55617 17.7943 2.96996 17.4097C2.49743 17.0998 2.09096 16.7009 1.77424 16.2355C1.38018 15.6565 1.20638 14.9919 1.1231 14.1882C1.04173 13.4029 1.04174 12.4186 1.04175 11.1718V11.1009C1.04174 9.85417 1.04173 8.86983 1.1231 8.08454C1.20638 7.28078 1.38018 6.61622 1.77424 6.0372C2.09096 5.57181 2.49743 5.17297 2.96996 4.86298C3.71994 4.37097 4.61825 4.22745 5.78777 4.17631L5.80142 4.17572H5.81508C6.05248 4.17572 6.28077 3.99088 6.33211 3.73888ZM8.63866 3.125C8.10443 3.125 7.65762 3.49416 7.55695 3.98839C7.3939 4.78882 6.68425 5.41822 5.83036 5.42565C4.70651 5.47557 4.10455 5.61363 3.65561 5.90815C3.31932 6.12877 3.03135 6.41175 2.80763 6.74047C2.57751 7.07862 2.43921 7.51104 2.36644 8.21337C2.29253 8.92675 2.29175 9.84633 2.29175 11.1363C2.29175 12.4264 2.29253 13.346 2.36644 14.0593C2.43921 14.7617 2.57751 15.1941 2.80763 15.5323C3.03135 15.861 3.31932 16.144 3.65561 16.3646C4.00356 16.5928 4.44878 16.7297 5.16761 16.8015C5.89632 16.8743 6.83502 16.875 8.14823 16.875H11.8519C13.1652 16.875 14.1038 16.8743 14.8326 16.8015C15.5514 16.7297 15.9966 16.5928 16.3446 16.3646C16.6808 16.144 16.9688 15.861 17.1925 15.5323C17.4227 15.1941 17.5609 14.7617 17.6337 14.0593C17.7077 13.346 17.7084 12.4264 17.7084 11.1363C17.7084 9.84633 17.7077 8.92675 17.6337 8.21337C17.5609 7.51104 17.4227 7.07862 17.1925 6.74047C16.9688 6.41175 16.6808 6.12877 16.3446 5.90815C15.8956 5.61363 15.2937 5.47557 14.1698 5.42565C13.3159 5.41822 12.6062 4.78882 12.4432 3.98839C12.3425 3.49416 11.8957 3.125 11.3615 3.125H8.63866ZM10.0001 8.95833C8.96458 8.95833 8.12508 9.79783 8.12508 10.8333C8.12508 11.8688 8.96458 12.7083 10.0001 12.7083C11.0356 12.7083 11.8751 11.8688 11.8751 10.8333C11.8751 9.79783 11.0356 8.95833 10.0001 8.95833ZM6.87508 10.8333C6.87508 9.10742 8.27419 7.70833 10.0001 7.70833C11.726 7.70833 13.1251 9.10742 13.1251 10.8333C13.1251 12.5592 11.726 13.9583 10.0001 13.9583C8.27419 13.9583 6.87508 12.5592 6.87508 10.8333ZM14.3751 8.33333C14.3751 7.98816 14.6549 7.70833 15.0001 7.70833H15.8334C16.1786 7.70833 16.4584 7.98816 16.4584 8.33333C16.4584 8.6785 16.1786 8.95833 15.8334 8.95833H15.0001C14.6549 8.95833 14.3751 8.6785 14.3751 8.33333Z" fill="white"/>
</svg>
