<svg width="18" height="19" viewBox="0 0 18 19" fill="none" xmlns="http://www.w3.org/2000/svg">
<g id="camera-add-svgrepo-com 1">
<path id="Vector" fill-rule="evenodd" clip-rule="evenodd" d="M5.69882 4.23169C5.89894 3.24928 6.77316 2.5542 7.77472 2.5542H10.2253C11.2268 2.5542 12.101 3.24928 12.3012 4.23169C12.3474 4.45848 12.5528 4.62484 12.7665 4.62484H12.7788L12.7911 4.62538C13.8436 4.6714 14.6521 4.80058 15.3271 5.24338C15.7524 5.52238 16.1182 5.88133 16.4032 6.30018C16.7579 6.8213 16.9143 7.4194 16.9893 8.14279C17.0625 8.84955 17.0625 9.73545 17.0625 10.8575V10.9213C17.0625 12.0434 17.0625 12.9293 16.9893 13.636C16.9143 14.3594 16.7579 14.9575 16.4032 15.4786C16.1182 15.8975 15.7524 16.2565 15.3271 16.5355C14.7995 16.8816 14.1946 17.0342 13.461 17.1075C12.7427 17.1792 11.8418 17.1792 10.6975 17.1792H7.30243C6.15824 17.1792 5.25725 17.1792 4.53897 17.1075C3.80534 17.0342 3.20048 16.8816 2.67289 16.5355C2.24762 16.2565 1.88179 15.8975 1.59674 15.4786C1.24209 14.9575 1.08567 14.3594 1.01072 13.636C0.937485 12.9293 0.937493 12.0434 0.9375 10.9213V10.8575C0.937493 9.73545 0.937485 8.84955 1.01072 8.14279C1.08567 7.4194 1.24209 6.8213 1.59674 6.30018C1.88179 5.88133 2.24762 5.52238 2.67289 5.24338C3.34787 4.80058 4.15635 4.6714 5.20892 4.62538L5.22121 4.62484H5.2335C5.44716 4.62484 5.65262 4.45849 5.69882 4.23169ZM7.77472 3.6792C7.29391 3.6792 6.89179 4.01144 6.80118 4.45625C6.65444 5.17664 6.01575 5.74309 5.24725 5.74978C4.23579 5.79472 3.69402 5.91897 3.28998 6.18403C2.98732 6.38259 2.72814 6.63727 2.5268 6.93313C2.31968 7.23746 2.19522 7.62664 2.12972 8.25873C2.06321 8.90077 2.0625 9.7284 2.0625 10.8894C2.0625 12.0505 2.06321 12.8781 2.12972 13.5201C2.19522 14.1522 2.31968 14.5414 2.5268 14.8457C2.72814 15.1416 2.98732 15.3963 3.28998 15.5948C3.60313 15.8003 4.00383 15.9234 4.65078 15.988C5.30662 16.0535 6.15145 16.0542 7.33333 16.0542H10.6667C11.8486 16.0542 12.6934 16.0535 13.3492 15.988C13.9962 15.9234 14.3968 15.8003 14.71 15.5948C15.0127 15.3963 15.2719 15.1416 15.4732 14.8457C15.6803 14.5414 15.8048 14.1522 15.8703 13.5201C15.9368 12.8781 15.9375 12.0505 15.9375 10.8894C15.9375 9.7284 15.9368 8.90077 15.8703 8.25873C15.8048 7.62664 15.6803 7.23746 15.4732 6.93313C15.2719 6.63727 15.0127 6.38259 14.71 6.18403C14.3059 5.91897 13.7642 5.79472 12.7528 5.74978C11.9843 5.74309 11.3455 5.17664 11.1988 4.45625C11.1082 4.01144 10.7061 3.6792 10.2253 3.6792H7.77472ZM9 7.8042C9.31065 7.8042 9.5625 8.05604 9.5625 8.3667V10.0542H11.25C11.5606 10.0542 11.8125 10.306 11.8125 10.6167C11.8125 10.9273 11.5606 11.1792 11.25 11.1792H9.5625V12.8667C9.5625 13.1773 9.31065 13.4292 9 13.4292C8.68935 13.4292 8.4375 13.1773 8.4375 12.8667V11.1792H6.75C6.43934 11.1792 6.1875 10.9273 6.1875 10.6167C6.1875 10.306 6.43934 10.0542 6.75 10.0542H8.4375V8.3667C8.4375 8.05604 8.68935 7.8042 9 7.8042ZM12.9375 8.3667C12.9375 8.05604 13.1894 7.8042 13.5 7.8042H14.25C14.5606 7.8042 14.8125 8.05604 14.8125 8.3667C14.8125 8.67735 14.5606 8.9292 14.25 8.9292H13.5C13.1894 8.9292 12.9375 8.67735 12.9375 8.3667Z" fill="#1C274C"/>
</g>
</svg>
