<svg width="20" height="20" viewBox="0 0 20 20" fill="none" xmlns="http://www.w3.org/2000/svg">
<path d="M14.0625 18.9062H5.9375V15.25C5.9375 15.0266 6.12031 14.8438 6.34375 14.8438H13.6562C13.8797 14.8438 14.0625 15.0266 14.0625 15.25V18.9062Z" fill="#0696D6"/>
<path d="M14.6875 19.375H5.3125L5.5163 18.9062H14.4837L14.6875 19.375Z" fill="#0B90D3"/>
<path d="M11.5625 18.125H8.4375C8.00781 18.125 7.65625 17.7415 7.65625 17.2727V16.6335C7.65625 16.1648 8.00781 15.7812 8.4375 15.7812H11.5625C11.9922 15.7812 12.3438 16.1648 12.3438 16.6335V17.2727C12.3438 17.7415 11.9922 18.125 11.5625 18.125Z" fill="white"/>
<path d="M11.0938 10.625H9.0625V13.9062H11.0938V10.625Z" fill="#F9A74E"/>
<path opacity="0.2" d="M10.9375 10.625H10.4688V13.9062H10.9375V10.625Z" fill="#382673"/>
<path d="M11.9062 13.5938H8.25C7.57969 13.5938 7.03125 14.1562 7.03125 14.8438H13.125C13.125 14.1562 12.5766 13.5938 11.9062 13.5938Z" fill="#D98E37"/>
<path d="M11.8466 13.5938H10.7812C11.4844 13.5938 12.0597 14.1562 12.0597 14.8438H13.125C13.125 14.1562 12.5497 13.5938 11.8466 13.5938Z" fill="#B07B3C"/>
<path d="M10.9562 12.3438H9.04375C8.5375 12.3438 8.125 11.8854 8.125 11.3229V11.0938H11.875V11.3229C11.875 11.8854 11.4625 12.3438 10.9562 12.3438Z" fill="#D98E37"/>
<path d="M11.163 11.0938V11.3229C11.163 11.8854 10.9494 12.3438 10.4688 12.3438H11.0028C11.4834 12.3438 11.875 11.8854 11.875 11.3229V11.0938H11.163Z" fill="#B07B3C"/>
<path d="M13.4375 14.8438H6.71875C6.71875 14.5859 6.8966 14.375 7.11397 14.375H13.0423C13.2597 14.375 13.4375 14.5859 13.4375 14.8438Z" fill="#F9A74E"/>
<path opacity="0.2" d="M12.9911 14.375H11.875C12.1205 14.375 12.3214 14.5859 12.3214 14.8438H13.4375C13.4375 14.5859 13.2366 14.375 12.9911 14.375Z" fill="#382673"/>
<path d="M12.3438 10.7812H7.65625V11.3438C7.65625 11.55 7.83203 11.7188 8.04688 11.7188H11.9531C12.168 11.7188 12.3438 11.55 12.3438 11.3438V10.7812Z" fill="#F9A74E"/>
<path d="M12.3438 10.7812H7.65625V11.3438C7.65625 11.55 7.83203 11.7188 8.04688 11.7188H11.9531C12.168 11.7188 12.3438 11.55 12.3438 11.3438V10.7812Z" fill="#F9A74E"/>
<path opacity="0.2" d="M11.3393 10.7812L10.9375 11.3438C11.1384 11.3438 11.1585 11.7188 10.9375 11.7188H11.942C12.1629 11.7188 12.3438 11.55 12.3438 11.3438V10.7812H11.3393Z" fill="#382673"/>
<path fill-rule="evenodd" clip-rule="evenodd" d="M12.3438 4.375C12.3438 4.20241 12.4837 4.0625 12.6562 4.0625H16.5625C16.7351 4.0625 16.875 4.20241 16.875 4.375V4.57031C16.875 6.80859 14.9723 8.59375 12.6562 8.59375C12.4837 8.59375 12.3438 8.45384 12.3438 8.28125C12.3438 8.10866 12.4837 7.96875 12.6562 7.96875C14.6156 7.96875 16.1828 6.49753 16.2479 4.6875H12.6562C12.4837 4.6875 12.3438 4.54759 12.3438 4.375Z" fill="#F9A74E"/>
<path fill-rule="evenodd" clip-rule="evenodd" d="M3.125 4.375C3.125 4.20241 3.26491 4.0625 3.4375 4.0625H7.34375C7.51634 4.0625 7.65625 4.20241 7.65625 4.375C7.65625 4.54759 7.51634 4.6875 7.34375 4.6875H3.7521C3.8172 6.49753 5.38444 7.96875 7.34375 7.96875C7.51634 7.96875 7.65625 8.10866 7.65625 8.28125C7.65625 8.45384 7.51634 8.59375 7.34375 8.59375C5.02774 8.59375 3.125 6.80859 3.125 4.57031V4.375Z" fill="#B07B3C"/>
<path d="M11.7266 11.25H8.27344C6.97344 11.25 5.9375 10.2307 5.9375 8.95167V2.65625H14.0625V8.95167C14.0625 10.2307 13.0266 11.25 11.7266 11.25Z" fill="#D98E37"/>
<path opacity="0.3" d="M7.34375 3.28125C7.34375 3.28125 7.34375 6.73438 7.34375 7.34375" stroke="white" stroke-width="2" stroke-miterlimit="10" stroke-linecap="round" stroke-linejoin="round"/>
<path d="M13.0208 2.65625V8.95167C13.0208 10.2307 11.9583 11.25 10.625 11.25H11.6667C13 11.25 14.0625 10.2307 14.0625 8.95167V2.65625H13.0208Z" fill="#B07B3C"/>
<path d="M14.6875 2.65625H5.3125L5.92391 3.28125H14.0761L14.6875 2.65625Z" fill="#F9A74E"/>
<path opacity="0.2" d="M13.5156 2.65625L13.125 3.28125H14.1016L14.6875 2.65625H13.5156Z" fill="#382673"/>
<path d="M14.7596 1.875H5.24038C5.02224 1.875 4.84375 2.05078 4.84375 2.26562C4.84375 2.48047 5.02224 2.65625 5.24038 2.65625H14.7596C14.9778 2.65625 15.1562 2.48047 15.1562 2.26562C15.1562 2.05078 14.9778 1.875 14.7596 1.875Z" fill="#D98E37"/>
<path d="M14.7656 1.875H13.5938C13.8086 1.875 13.9844 2.05078 13.9844 2.26562C13.9844 2.48047 13.8086 2.65625 13.5938 2.65625H14.7656C14.9805 2.65625 15.1562 2.48047 15.1562 2.26562C15.1562 2.05078 14.9805 1.875 14.7656 1.875Z" fill="#B07B3C"/>
<path opacity="0.3" d="M7.34375 8.125V8.59375" stroke="white" stroke-width="2" stroke-miterlimit="10" stroke-linecap="round" stroke-linejoin="round"/>
<path d="M6.97678 1.14249L7.09719 0.841456C7.13733 0.761181 7.25774 0.761181 7.27781 0.841456L7.39822 1.14249C7.49857 1.38331 7.67919 1.56393 7.92001 1.66428L8.22104 1.78469C8.30132 1.82483 8.30132 1.94524 8.22104 1.96531L7.92001 2.08572C7.67919 2.18607 7.49857 2.36669 7.39822 2.60751L7.27781 2.90854C7.23767 2.98882 7.11726 2.98882 7.09719 2.90854L6.97678 2.60751C6.87643 2.36669 6.69581 2.18607 6.45499 2.08572L6.15396 1.96531C6.07368 1.92517 6.07368 1.80476 6.15396 1.78469L6.45499 1.66428C6.69581 1.56393 6.8965 1.36325 6.97678 1.14249Z" fill="#EDEDED"/>
<path d="M9.93153 7.80151L10.7617 8.26341C10.8775 8.32366 11.0319 8.22325 11.0126 8.08267L10.8389 7.09863L11.5146 6.41582C11.6111 6.31541 11.5532 6.13466 11.418 6.11458L10.4914 5.974L10.0667 5.09037C10.0087 4.96988 9.835 4.96988 9.77709 5.09037L9.35237 5.974L8.42571 6.11458C8.29057 6.13466 8.23266 6.31541 8.32918 6.41582L9.00487 7.09863L8.85043 8.06259C8.83112 8.20317 8.96626 8.30358 9.1014 8.24333L9.93153 7.80151Z" fill="#964F1C"/>
</svg>
