<svg width="10" height="11" viewBox="0 0 10 11" fill="none" xmlns="http://www.w3.org/2000/svg">
<path fill-rule="evenodd" clip-rule="evenodd" d="M9.059 4.41127C9.18082 3.58701 9.05895 2.53894 7.99771 1.88988C7.5408 1.61043 7.11951 1.49535 6.73781 1.50014L6.23197 1.58024C5.99075 1.65537 5.78284 1.7762 5.60868 1.9117C5.37218 2.09572 5.19308 2.31031 5.06891 2.48677C4.98829 2.38838 4.88661 2.28 4.76197 2.17436C4.37242 1.84419 3.76447 1.54728 2.90562 1.65642C2.03868 1.76659 1.41266 2.26262 1.15492 3.04041C0.903328 3.79965 1.01541 4.78597 1.50691 5.88216L1.99017 5.66547C1.52932 4.63764 1.46283 3.79494 1.65766 3.20701C1.84634 2.63762 2.29173 2.26831 2.97238 2.18181C3.66112 2.09429 4.12458 2.32838 4.41954 2.57838C4.56945 2.70544 4.67732 2.83826 4.74728 2.9388C4.78212 2.98886 4.80713 3.03028 4.82287 3.05805C4.83073 3.07191 4.83624 3.0823 4.83949 3.08857C4.85297 3.11467 4.89306 3.16022 4.93617 3.2092C5.00636 3.28895 5.08455 3.37778 5.06891 3.40655V3.42067L5.32259 3.09136L5.77242 2.54065L6.17497 2.17436C6.31989 2.09946 6.48125 2.04794 6.6597 2.03375C6.94253 2.01126 7.29422 2.08044 7.72138 2.34169C8.52519 2.83331 8.64142 3.61425 8.53507 4.33384C8.48196 4.69323 8.37382 5.02298 8.27758 5.2647C8.22969 5.38496 8.18534 5.48197 8.15333 5.54822C8.13734 5.58131 8.12448 5.60663 8.11586 5.62325C8.11154 5.63155 8.1083 5.63767 8.10625 5.64149L8.10411 5.64546L8.10379 5.64604C8.10379 5.64604 8.10387 5.64589 8.33574 5.77382C8.5676 5.90174 8.56771 5.90154 8.56771 5.90154L8.56823 5.90058L8.56936 5.89851L8.57307 5.89163C8.57617 5.88585 8.58049 5.8777 8.5859 5.86728C8.59671 5.84646 8.61186 5.81659 8.63021 5.77862C8.66686 5.70275 8.71645 5.59418 8.76963 5.46061C8.87551 5.19469 8.99803 4.8238 9.059 4.41127ZM4.97476 9.66764L5.12665 9.58711L5.12725 9.58679L5.1286 9.58607L5.13313 9.58364C5.13696 9.58157 5.14239 9.57862 5.14935 9.5748C5.16326 9.56716 5.18328 9.55603 5.2088 9.54148C5.25984 9.51239 5.33295 9.46959 5.42329 9.41371C5.60384 9.30201 5.85393 9.13757 6.13451 8.92518C6.69306 8.50239 7.38478 7.88041 7.88448 7.09615L7.43783 6.81156C6.98517 7.52198 6.34756 8.09968 5.81486 8.5029C5.54982 8.70352 5.31381 8.85867 5.14466 8.96331C5.1003 8.99075 5.06059 9.01469 5.02622 9.03503C4.0851 8.29066 3.50062 7.7359 3.15118 7.36674C2.96806 7.17329 2.84974 7.03106 2.7786 6.9395C2.74304 6.89373 2.71929 6.86066 2.70515 6.84021C2.69809 6.82999 2.69342 6.82292 2.69089 6.81901L2.68866 6.81553L2.68893 6.81598L2.68926 6.81652C2.68926 6.81652 2.68939 6.81673 2.46285 6.95386C2.23631 7.09098 2.23645 7.09122 2.23645 7.09122L2.2366 7.09146L2.23694 7.09202L2.23775 7.09334L2.23991 7.09681C2.2416 7.09951 2.24379 7.10296 2.24651 7.10716C2.25196 7.11556 2.25954 7.12697 2.26952 7.14141C2.28949 7.17028 2.31907 7.21127 2.36039 7.26445C2.44301 7.37079 2.5727 7.52602 2.76655 7.73082C3.15414 8.14029 3.79922 8.7489 4.83942 9.56186L4.97476 9.66764Z" fill="#1B2746"/>
<path fill-rule="evenodd" clip-rule="evenodd" d="M3.80531 3.36542L5.09236 6.3156L6.07228 4.25638L6.67669 5.50903H9.75V6.03865H6.34419L6.07559 5.48197L5.07142 7.59211L3.81884 4.72091L3.27499 6.03865H0.25V5.50903H2.92062L3.80531 3.36542Z" fill="#0096D6"/>
</svg>
