<svg width="17" height="18" viewBox="0 0 17 18" fill="none" xmlns="http://www.w3.org/2000/svg">
<g id="copy">
<path id="Vector" d="M10.795 2.28333H8.03661C6.78696 2.28332 5.79713 2.2833 5.02247 2.38788C4.22522 2.49549 3.57993 2.72224 3.07104 3.23317C2.56216 3.7441 2.33632 4.39198 2.22913 5.19243C2.12498 5.9702 2.12499 6.96401 2.125 8.21866V12.3536C2.125 13.4219 2.77663 14.3373 3.70258 14.7211C3.65492 14.0769 3.65496 13.173 3.655 12.421V8.93996V8.87252C3.65495 7.96465 3.6549 7.18247 3.73878 6.55607C3.82868 5.88476 4.0314 5.24127 4.55125 4.71933C5.07111 4.19738 5.71203 3.99384 6.38065 3.90359C7.00455 3.81937 7.78366 3.81942 8.68785 3.81947L8.755 3.81947H10.795L10.8621 3.81947C11.7663 3.81942 12.5437 3.81937 13.1676 3.90359C12.7944 2.95468 11.8728 2.28333 10.795 2.28333Z" fill="#7C878E"/>
<path id="Vector_2" d="M4.67529 8.9399C4.67529 7.00883 4.67529 6.04331 5.27279 5.44341C5.87029 4.84351 6.83196 4.84351 8.75529 4.84351H10.7953C12.7186 4.84351 13.6803 4.84351 14.2778 5.44341C14.8753 6.04331 14.8753 7.00884 14.8753 8.9399V12.3536C14.8753 14.2846 14.8753 15.2502 14.2778 15.85C13.6803 16.4499 12.7186 16.4499 10.7953 16.4499H8.75529C6.83196 16.4499 5.87029 16.4499 5.27279 15.85C4.67529 15.2502 4.67529 14.2846 4.67529 12.3536V8.9399Z" fill="#7C878E"/>
</g>
</svg>
