<svg width="40" height="40" viewBox="0 0 40 40" fill="none" xmlns="http://www.w3.org/2000/svg">
<path d="M0 8C0 3.58172 3.58172 0 8 0H32C36.4183 0 40 3.58172 40 8V32C40 36.4183 36.4183 40 32 40H8C3.58172 40 0 36.4183 0 32V8Z" fill="#EAFBF3"/>
<path d="M25.975 15.5333C25.6167 13.725 24.275 12.9333 22.4083 12.9333H15.0917C12.8917 12.9333 11.425 14.0333 11.425 16.6V20.8917C11.425 22.7417 12.1833 23.825 13.4333 24.2917C13.6167 24.3583 13.8167 24.4167 14.025 24.45C14.3583 24.525 14.7167 24.5583 15.0917 24.5583H22.4167C24.6167 24.5583 26.0833 23.4583 26.0833 20.8917V16.6C26.0833 16.2083 26.05 15.8583 25.975 15.5333ZM14.6083 20C14.6083 20.3417 14.325 20.625 13.9833 20.625C13.6417 20.625 13.3583 20.3417 13.3583 20V17.5C13.3583 17.1583 13.6417 16.875 13.9833 16.875C14.325 16.875 14.6083 17.1583 14.6083 17.5V20ZM18.75 20.95C17.5333 20.95 16.55 19.9667 16.55 18.75C16.55 17.5333 17.5333 16.55 18.75 16.55C19.9667 16.55 20.95 17.5333 20.95 18.75C20.95 19.9667 19.9667 20.95 18.75 20.95ZM24.1333 20C24.1333 20.3417 23.85 20.625 23.5083 20.625C23.1667 20.625 22.8833 20.3417 22.8833 20V17.5C22.8833 17.1583 23.1667 16.875 23.5083 16.875C23.85 16.875 24.1333 17.1583 24.1333 17.5V20Z" fill="#2AD587"/>
<path d="M28.5833 19.1V23.3917C28.5833 25.9583 27.1167 27.0667 24.9083 27.0667H17.5917C16.9667 27.0667 16.4083 26.975 15.925 26.7917C15.5333 26.65 15.1917 26.4417 14.9167 26.175C14.7667 26.0333 14.8833 25.8083 15.0917 25.8083H22.4083C25.4917 25.8083 27.325 23.975 27.325 20.9V16.6C27.325 16.4 27.55 16.275 27.6917 16.425C28.2583 17.025 28.5833 17.9 28.5833 19.1Z" fill="#2AD587"/>
</svg>
