<svg width="41" height="40" viewBox="0 0 41 40" fill="none" xmlns="http://www.w3.org/2000/svg">
<rect x="0.75" width="40" height="40" rx="8" fill="#0696D6" fill-opacity="0.1"/>
<path fill-rule="evenodd" clip-rule="evenodd" d="M16.6058 10.3999L23.7055 10.3999C25.1548 10.3999 26.3026 10.3999 27.201 10.5238C28.1256 10.6514 28.8739 10.9202 29.4641 11.5258C29.6951 11.7629 29.6951 12.1472 29.4641 12.3842C29.2332 12.6213 28.8586 12.6213 28.6277 12.3842C28.2939 12.0417 27.8368 11.8364 27.0434 11.727C26.233 11.6151 25.1647 11.6139 23.661 11.6139L16.6502 11.6139C15.1465 11.6139 14.0782 11.6151 13.2678 11.727C12.4743 11.8364 12.0172 12.0417 11.6835 12.3842C11.3497 12.7267 11.1497 13.1958 11.043 14.0101C10.9341 14.8418 10.9328 15.9381 10.9328 17.4813V20.7185C10.9328 22.2617 10.9341 23.358 11.043 24.1898C11.1497 25.0039 11.3497 25.4731 11.6835 25.8156C12.0172 26.1581 12.4743 26.3634 13.2678 26.4728C14.0782 26.5846 15.1465 26.5859 16.6502 26.5859L23.661 26.5859C25.1647 26.5859 26.233 26.5847 27.0434 26.4728C27.8368 26.3634 28.2939 26.1581 28.6277 25.8156C29.1765 25.2524 29.3427 24.3772 29.3716 22.3284C29.3763 21.9932 29.6449 21.7254 29.9715 21.7302C30.2981 21.7351 30.5591 22.0107 30.5543 22.3459C30.5266 24.3104 30.4028 25.7107 29.4641 26.674C28.8739 27.2796 28.1256 27.5484 27.201 27.676C26.3026 27.7999 25.1548 27.7999 23.7055 27.7999L16.6058 27.7999C15.1565 27.7999 14.0085 27.7999 13.1101 27.676C12.1856 27.5484 11.4372 27.2796 10.847 26.674C10.2569 26.0683 9.99495 25.3003 9.87065 24.3515C9.74985 23.4295 9.74986 22.2515 9.74988 20.7641V17.4356C9.74986 15.9483 9.74985 14.7703 9.87065 13.8483C9.99495 12.8995 10.2569 12.1315 10.847 11.5258C11.4372 10.9202 12.1856 10.6514 13.1101 10.5238C14.0085 10.3999 15.1565 10.3999 16.6058 10.3999ZM27.6932 15.0903C28.5297 14.2318 29.886 14.2318 30.7225 15.0903C31.559 15.9487 31.559 17.3406 30.7225 18.1991L26.9724 22.0475C26.7684 22.257 26.6303 22.3986 26.4757 22.5224C26.2938 22.668 26.0971 22.7928 25.8889 22.8946C25.7119 22.9812 25.5267 23.0445 25.2529 23.1381L23.6098 23.7002C23.247 23.8243 22.8471 23.7274 22.5767 23.4499C22.3062 23.1724 22.2118 22.7619 22.3327 22.3896L22.8695 20.7373C22.8732 20.7259 22.8768 20.7145 22.8804 20.7034C22.9717 20.4225 23.0334 20.2324 23.1177 20.0507C23.217 19.837 23.3386 19.6351 23.4805 19.4485C23.6011 19.2898 23.7391 19.1481 23.9432 18.9388C23.9513 18.9304 23.9595 18.922 23.9678 18.9134L27.6932 15.0903ZM29.8861 15.9487C29.5115 15.5643 28.9042 15.5643 28.5296 15.9487L28.3863 16.0958C28.3941 16.1229 28.403 16.1517 28.4132 16.182C28.4874 16.4014 28.6282 16.6916 28.8951 16.9656C29.162 17.2395 29.4448 17.384 29.6587 17.4601C29.6882 17.4706 29.7163 17.4798 29.7427 17.4878L29.8861 17.3406C30.2606 16.9563 30.2606 16.333 29.8861 15.9487ZM28.8392 18.4149C28.5885 18.2798 28.3179 18.09 28.0587 17.824C27.7995 17.5579 27.6145 17.2802 27.4828 17.0229L24.8042 19.7719C24.5668 20.0155 24.4835 20.1025 24.4132 20.1951C24.3242 20.3122 24.2479 20.4389 24.1856 20.573C24.1364 20.6789 24.0978 20.7943 23.9917 21.1212L23.676 22.0931L23.8988 22.3217L24.8458 21.9978C25.1644 21.8888 25.2767 21.8493 25.38 21.7988C25.5106 21.7348 25.6341 21.6565 25.7482 21.5652C25.8384 21.493 25.9231 21.4075 26.1606 21.1639L28.8392 18.4149ZM13.6929 16.672C13.6929 16.3368 13.9578 16.065 14.2844 16.065L24.8439 16.065C25.1705 16.065 25.4353 16.3368 25.4353 16.672C25.4353 17.0072 25.1705 17.279 24.8439 17.279L14.2844 17.279C13.9578 17.279 13.6929 17.0072 13.6929 16.672ZM13.6929 19.9092C13.6929 19.574 13.9578 19.3022 14.2844 19.3022H16.2559C16.5826 19.3022 16.8474 19.574 16.8474 19.9092C16.8474 20.2444 16.5826 20.5162 16.2559 20.5162H14.2844C13.9578 20.5162 13.6929 20.2444 13.6929 19.9092ZM13.6929 23.1464C13.6929 22.8112 13.9578 22.5394 14.2844 22.5394H15.4673C15.794 22.5394 16.0588 22.8112 16.0588 23.1464C16.0588 23.4816 15.794 23.7534 15.4673 23.7534H14.2844C13.9578 23.7534 13.6929 23.4816 13.6929 23.1464Z" fill="#0696D6"/>
</svg>
