<svg width="17" height="12" viewBox="0 0 17 12" fill="none" xmlns="http://www.w3.org/2000/svg">
<path fill-rule="evenodd" clip-rule="evenodd" d="M0 10.7872C0 8.02131 0 5.25533 0 2.48941C0.0193359 2.46573 0.0465352 2.44505 0.0567832 2.41805C0.360744 1.61635 0.849363 1.27729 1.71065 1.27601C2.44007 1.27499 3.17309 1.23203 3.89774 1.29031C4.53234 1.34137 4.96399 1.17516 5.27839 0.602932C5.51293 0.176105 5.95167 2.58559e-07 6.44821 0.000191747C7.64955 0.000510893 8.8509 0.000702365 10.0522 2.42009e-07C10.5492 -0.000255075 10.9411 0.201509 11.2334 0.596868C11.3475 0.75108 11.47 0.900377 11.57 1.06314C11.6701 1.22603 11.795 1.28259 11.99 1.28054C12.9446 1.27046 13.8993 1.27448 14.8539 1.27882C15.0025 1.27952 15.1538 1.29427 15.299 1.32529C15.9437 1.46303 16.2728 1.92599 16.5 2.48941C16.5 5.25533 16.5 8.02131 16.5 10.7872C16.4806 10.8108 16.4533 10.8315 16.4431 10.8586C16.1384 11.6632 15.6533 11.9995 14.7876 11.9997C10.4292 12.0001 6.07071 12.0007 1.71226 11.9969C1.51085 11.9968 1.30273 11.979 1.1093 11.9272C0.515625 11.768 0.213727 11.3165 0 10.7872ZM5.66163 9.38834C5.7935 9.49844 5.85054 9.54593 5.90739 9.59355C7.15314 10.6368 8.90227 10.7611 10.2818 9.89259C11.1267 9.36064 11.6614 8.60075 11.9013 7.63916C11.9798 7.32448 11.8379 7.05857 11.561 6.97591C11.2843 6.89331 11.0203 7.04408 10.9128 7.34944C10.8811 7.43957 10.8605 7.53352 10.831 7.62448C10.2324 9.46634 7.81649 10.0661 6.38434 8.61537C6.65517 8.41456 6.92768 8.21241 7.26354 7.96335C6.15018 7.66846 5.16263 7.40688 4.12803 7.1328C4.39622 8.12847 4.64933 9.069 4.90379 10.0091C4.9141 10.0474 4.93711 10.0823 4.97191 10.1564C5.20923 9.89208 5.42779 9.6487 5.66163 9.38834ZM10.8415 3.82082C10.7061 3.70772 10.6489 3.66036 10.5922 3.61249C9.37181 2.58171 7.60901 2.44849 6.24647 3.29564C5.38957 3.82842 4.84153 4.59073 4.59802 5.56349C4.51907 5.87894 4.65809 6.13687 4.93808 6.22719C5.21058 6.31502 5.47078 6.16802 5.58635 5.85685C5.61954 5.76743 5.64062 5.6736 5.66949 5.58245C6.25189 3.74468 8.65109 3.14698 10.1045 4.57101C9.84386 4.78248 9.5827 4.99439 9.26829 5.24945C10.3521 5.5363 11.3379 5.79717 12.3733 6.07119C12.0936 5.03888 11.8291 4.0621 11.5445 3.01147C11.2843 3.31115 11.0694 3.55849 10.8415 3.82082Z" fill="#1B2746"/>
</svg>
