<svg width="40" height="40" viewBox="0 0 40 40" fill="none" xmlns="http://www.w3.org/2000/svg">
<rect width="40" height="40" rx="8" fill="#E9FCD4"/>
<path fill-rule="evenodd" clip-rule="evenodd" d="M22.3251 11.7502C22.2209 11.75 22.1126 11.75 22.0001 11.75H18.0001C17.8875 11.75 17.7792 11.75 17.675 11.7502C17.3767 13.2194 16.2194 14.3767 14.7502 14.675C14.7501 14.7792 14.7501 14.8874 14.7501 15C14.7501 15.1126 14.7501 15.2209 14.7502 15.3251C16.2194 15.6234 17.3767 16.7806 17.675 18.2498C17.7792 18.25 17.8875 18.25 18.0001 18.25H22.0001C22.1126 18.25 22.2209 18.25 22.3251 18.2498C22.6234 16.7806 23.7807 15.6234 25.2499 15.3251C25.25 15.2209 25.2501 15.1126 25.2501 15C25.2501 14.8874 25.25 14.7792 25.2499 14.675C23.7807 14.3767 22.6234 13.2194 22.3251 11.7502ZM22.9296 10.2533C22.655 10.25 22.3625 10.25 22.0521 10.25H17.9481C17.6377 10.25 17.3451 10.25 17.0705 10.2533C17.0473 10.2511 17.0238 10.25 17.0001 10.25C16.9687 10.25 16.9377 10.2519 16.9073 10.2557C16.4546 10.2637 16.0536 10.2831 15.7056 10.3299C15.0778 10.4143 14.511 10.6 14.0555 11.0555C13.6001 11.5109 13.4144 12.0777 13.33 12.7055C13.2832 13.0536 13.2638 13.4545 13.2557 13.9073C13.252 13.9377 13.2501 13.9686 13.2501 14C13.2501 14.0238 13.2512 14.0473 13.2533 14.0705C13.25 14.345 13.2501 14.6376 13.2501 14.948V15.052C13.2501 15.3624 13.25 15.655 13.2533 15.9295C13.2512 15.9527 13.2501 15.9762 13.2501 16C13.2501 16.0314 13.252 16.0623 13.2557 16.0927C13.2638 16.5455 13.2832 16.9464 13.33 17.2945C13.4144 17.9223 13.6001 18.4891 14.0555 18.9445C14.511 19.4 15.0778 19.5857 15.7056 19.6701C16.0536 19.7169 16.4546 19.7363 16.9073 19.7443C16.9377 19.7481 16.9687 19.75 17.0001 19.75C17.0238 19.75 17.0473 19.7489 17.0705 19.7467C17.3451 19.75 17.6377 19.75 17.9481 19.75H22.0521C22.3625 19.75 22.655 19.75 22.9296 19.7467C22.9528 19.7489 22.9763 19.75 23.0001 19.75C23.0315 19.75 23.0624 19.7481 23.0928 19.7443C23.5456 19.7363 23.9465 19.7169 24.2945 19.6701C24.9223 19.5857 25.4891 19.4 25.9446 18.9445C26.4001 18.4891 26.5857 17.9223 26.6701 17.2945C26.7169 16.9464 26.7363 16.5455 26.7444 16.0927C26.7481 16.0623 26.7501 16.0314 26.7501 16C26.7501 15.9762 26.749 15.9527 26.7468 15.9295C26.7501 15.655 26.7501 15.3624 26.7501 15.052V14.948C26.7501 14.6376 26.7501 14.345 26.7468 14.0705C26.749 14.0473 26.7501 14.0238 26.7501 14C26.7501 13.9686 26.7481 13.9377 26.7444 13.9073C26.7363 13.4545 26.7169 13.0536 26.6701 12.7055C26.5857 12.0777 26.4001 11.5109 25.9446 11.0555C25.4891 10.6 24.9223 10.4143 24.2945 10.3299C23.9465 10.2831 23.5456 10.2637 23.0928 10.2557C23.0624 10.2519 23.0315 10.25 23.0001 10.25C22.9763 10.25 22.9528 10.2511 22.9296 10.2533ZM23.8941 11.794C24.122 12.3979 24.6021 12.8781 25.2061 13.1059C25.1996 13.036 25.1921 12.9692 25.1835 12.9054C25.1215 12.4439 25.0143 12.2464 24.8839 12.1161C24.7536 11.9858 24.5561 11.8786 24.0947 11.8165C24.0308 11.808 23.9641 11.8005 23.8941 11.794ZM25.2061 16.8941C24.6021 17.1219 24.122 17.6021 23.8941 18.206C23.9641 18.1995 24.0308 18.1921 24.0947 18.1835C24.5561 18.1214 24.7536 18.0142 24.8839 17.8839C25.0143 17.7536 25.1215 17.5561 25.1835 17.0946C25.1921 17.0308 25.1996 16.964 25.2061 16.8941ZM16.106 18.206C15.8782 17.6021 15.398 17.1219 14.794 16.8941C14.8005 16.964 14.808 17.0308 14.8166 17.0946C14.8786 17.5561 14.9859 17.7536 15.1162 17.8839C15.2465 18.0142 15.444 18.1214 15.9055 18.1835C15.9693 18.1921 16.036 18.1995 16.106 18.206ZM14.794 13.1059C15.398 12.8781 15.8782 12.3979 16.106 11.794C16.036 11.8005 15.9693 11.808 15.9055 11.8165C15.444 11.8786 15.2465 11.9858 15.1162 12.1161C14.9859 12.2464 14.8786 12.4439 14.8166 12.9054C14.808 12.9692 14.8005 13.036 14.794 13.1059ZM20.0001 14.75C19.862 14.75 19.7501 14.8619 19.7501 15C19.7501 15.1381 19.862 15.25 20.0001 15.25C20.1381 15.25 20.2501 15.1381 20.2501 15C20.2501 14.8619 20.1381 14.75 20.0001 14.75ZM18.2501 15C18.2501 14.0335 19.0336 13.25 20.0001 13.25C20.9666 13.25 21.7501 14.0335 21.7501 15C21.7501 15.9665 20.9666 16.75 20.0001 16.75C19.0336 16.75 18.2501 15.9665 18.2501 15ZM16.684 22.4482C18.5498 22.0867 20.5471 22.1678 22.1633 23.1318C22.3903 23.2672 22.6031 23.4359 22.7888 23.6444C23.1646 24.0666 23.3588 24.5913 23.3679 25.1174C23.5592 24.994 23.7508 24.857 23.9454 24.71L25.7526 23.3448C26.6572 22.6615 27.9718 22.6614 28.8765 23.3445C29.7125 23.9757 30.0457 25.1085 29.4473 26.0677C29.022 26.7495 28.3815 27.6925 27.7296 28.2962C27.0707 28.9065 26.1329 29.4196 25.4236 29.762C24.5621 30.1778 23.6316 30.4077 22.7269 30.5541C20.8777 30.8535 18.9535 30.8077 17.1251 30.431C16.1906 30.2384 15.2196 30.1384 14.26 30.1384H12.0001C11.5859 30.1384 11.2501 29.8026 11.2501 29.3884C11.2501 28.9742 11.5859 28.6384 12.0001 28.6384H14.26C15.3221 28.6384 16.3945 28.749 17.4277 28.9618C19.0798 29.3022 20.8202 29.3432 22.4872 29.0734C23.3161 28.9392 24.0901 28.74 24.7715 28.4111C25.4549 28.0812 26.2233 27.6468 26.7104 27.1957C27.2029 26.7395 27.7541 25.9479 28.1747 25.2738C28.3016 25.0703 28.284 24.7767 27.9727 24.5416C27.6029 24.2624 27.0264 24.2625 26.6567 24.5417L24.8496 25.9069C24.1281 26.4518 23.2402 27.0349 22.1388 27.2106C22.0276 27.2283 21.9119 27.2445 21.7918 27.2588C21.7345 27.2692 21.6749 27.276 21.6133 27.2783C21.051 27.3342 20.3998 27.3472 19.6813 27.2793C19.2689 27.2404 18.9662 26.8745 19.0051 26.4621C19.0441 26.0497 19.41 25.747 19.8223 25.786C20.4498 25.8452 21.0127 25.8321 21.4903 25.7831C21.5 25.7821 21.5096 25.7811 21.5192 25.7801C21.5392 25.7685 21.5696 25.7474 21.6096 25.7125C21.9291 25.4336 21.9576 24.9667 21.6684 24.6418C21.5951 24.5595 21.5049 24.4856 21.3949 24.42C20.2138 23.7155 18.6363 23.5978 16.9693 23.9208C15.3117 24.2419 13.665 24.9817 12.4339 25.8547C12.096 26.0943 11.6279 26.0146 11.3883 25.6768C11.1487 25.3389 11.2283 24.8708 11.5662 24.6311C12.9646 23.6395 14.8087 22.8115 16.684 22.4482Z" fill="#1BC47D"/>
</svg>
