<svg width="15" height="15" viewBox="0 0 15 15" fill="none" xmlns="http://www.w3.org/2000/svg">
<path fill-rule="evenodd" clip-rule="evenodd" d="M7.5 1C3.91015 1 1 3.91015 1 7.5C1 11.0899 3.91015 14 7.5 14C11.0899 14 14 11.0899 14 7.5C14 3.91015 11.0899 1 7.5 1ZM10.406 4.64997C10.234 4.65044 10.0691 4.71894 9.94697 4.84065H9.94784C9.94162 4.84671 9.93579 4.85315 9.93038 4.85995L6.8989 8.74209L5.07111 6.90586C5.01117 6.84121 4.9389 6.78936 4.8586 6.7534C4.77829 6.71744 4.6916 6.6981 4.6037 6.69654C4.5158 6.69498 4.42849 6.71123 4.34697 6.74433C4.26546 6.77742 4.19141 6.82668 4.12924 6.88916C4.06708 6.95164 4.01807 7.02607 3.98515 7.108C3.95222 7.18993 3.93605 7.27769 3.9376 7.36604C3.93915 7.45438 3.95839 7.54151 3.99417 7.62223C4.02995 7.70294 4.08154 7.77558 4.14586 7.83582L6.45461 10.1572C6.51684 10.2198 6.59099 10.2691 6.67261 10.3022C6.75424 10.3353 6.84167 10.3515 6.92967 10.3499C7.01767 10.3482 7.10444 10.3288 7.18479 10.2926C7.26514 10.2565 7.33742 10.2045 7.39731 10.1397L10.8818 5.76184C11.0005 5.63667 11.0653 5.4696 11.0624 5.29674C11.0595 5.12388 10.989 4.95913 10.8661 4.8381C10.7433 4.71707 10.578 4.64949 10.406 4.64997Z" fill="#0696D6"/>
</svg>
