<svg width="41" height="40" viewBox="0 0 41 40" fill="none" xmlns="http://www.w3.org/2000/svg">
<rect x="0.833344" width="40" height="40" rx="8" fill="#E9FCD4"/>
<path fill-rule="evenodd" clip-rule="evenodd" d="M16.7784 11.6504H21.8882C23.2558 11.6504 24.3581 11.6504 25.2251 11.7669C26.1252 11.8879 26.883 12.1468 27.485 12.7487C28.0394 13.3032 28.3028 13.9899 28.4355 14.7982C29.2439 14.9309 29.9307 15.1943 30.4852 15.7488C31.0871 16.3507 31.346 17.1086 31.467 18.0087C31.5836 18.8757 31.5836 19.978 31.5836 21.3456V21.4553C31.5836 22.8229 31.5836 23.9252 31.467 24.7922C31.346 25.6923 31.0871 26.4502 30.4852 27.0521C29.8833 27.654 29.1254 27.9129 28.2253 28.0339C27.3583 28.1505 26.256 28.1505 24.8884 28.1505H19.7787C18.4111 28.1505 17.3088 28.1505 16.4418 28.0339C15.5417 27.9129 14.7838 27.654 14.1819 27.0521C13.6275 26.4977 13.364 25.8109 13.2314 25.0026C12.4229 24.8699 11.7361 24.6065 11.1816 24.0521C10.5797 23.4501 10.3208 22.6923 10.1998 21.7922C10.0832 20.9252 10.0833 19.8229 10.0833 18.4553V18.3455C10.0833 16.9779 10.0832 15.8756 10.1998 15.0086C10.3208 14.1085 10.5797 13.3507 11.1816 12.7487C11.7836 12.1468 12.5414 11.8879 13.4415 11.7669C14.3085 11.6504 15.4108 11.6504 16.7784 11.6504ZM14.789 25.132C14.8939 25.5349 15.0433 25.7922 15.2425 25.9914C15.5193 26.2682 15.9079 26.4487 16.6417 26.5473C17.397 26.6489 18.3981 26.6505 19.8336 26.6505H24.8336C26.269 26.6505 27.2701 26.6489 28.0254 26.5473C28.7592 26.4487 29.1478 26.2682 29.4245 25.9914C29.7013 25.7147 29.8818 25.3261 29.9804 24.5923C30.082 23.837 30.0836 22.8359 30.0836 21.4005C30.0836 19.965 30.082 18.9639 29.9804 18.2086C29.8818 17.4748 29.7013 17.0862 29.4245 16.8095C29.2252 16.6101 28.9679 16.4607 28.5649 16.3558C28.5833 16.9447 28.5833 17.6064 28.5833 18.3455V18.4553C28.5833 19.8229 28.5833 20.9252 28.4668 21.7922C28.3458 22.6923 28.0869 23.4501 27.485 24.0521C26.883 24.654 26.1252 24.9129 25.2251 25.0339C24.3581 25.1504 23.2558 25.1504 21.8882 25.1504H16.7784C16.0394 25.1504 15.3778 25.1504 14.789 25.132ZM13.6414 13.2535C12.9076 13.3522 12.5191 13.5326 12.2423 13.8094C11.9655 14.0862 11.7851 14.4747 11.6864 15.2085C11.5849 15.9639 11.5833 16.965 11.5833 18.4004C11.5833 19.8358 11.5849 20.8369 11.6864 21.5923C11.7851 22.3261 11.9655 22.7146 12.2423 22.9914C12.5191 23.2682 12.9076 23.4486 13.6414 23.5473C14.3968 23.6488 15.3979 23.6504 16.8333 23.6504H21.8333C23.2687 23.6504 24.2698 23.6488 25.0252 23.5473C25.759 23.4486 26.1475 23.2682 26.4243 22.9914C26.7011 22.7146 26.8815 22.3261 26.9802 21.5923C27.0817 20.8369 27.0833 19.8358 27.0833 18.4004C27.0833 16.965 27.0817 15.9639 26.9802 15.2085C26.8815 14.4747 26.7011 14.0862 26.4243 13.8094C26.1475 13.5326 25.759 13.3522 25.0252 13.2535C24.2698 13.152 23.2687 13.1504 21.8333 13.1504H16.8333C15.3979 13.1504 14.3968 13.152 13.6414 13.2535ZM19.3333 16.6504C18.3668 16.6504 17.5833 17.4339 17.5833 18.4004C17.5833 19.3669 18.3668 20.1504 19.3333 20.1504C20.2998 20.1504 21.0833 19.3669 21.0833 18.4004C21.0833 17.4339 20.2998 16.6504 19.3333 16.6504ZM16.0833 18.4004C16.0833 16.6055 17.5384 15.1504 19.3333 15.1504C21.1282 15.1504 22.5833 16.6055 22.5833 18.4004C22.5833 20.1953 21.1282 21.6504 19.3333 21.6504C17.5384 21.6504 16.0833 20.1953 16.0833 18.4004ZM13.8333 15.6504C14.2475 15.6504 14.5833 15.9862 14.5833 16.4004V20.4004C14.5833 20.8146 14.2475 21.1504 13.8333 21.1504C13.4191 21.1504 13.0833 20.8146 13.0833 20.4004V16.4004C13.0833 15.9862 13.4191 15.6504 13.8333 15.6504ZM24.8333 15.6504C25.2475 15.6504 25.5833 15.9862 25.5833 16.4004V20.4004C25.5833 20.8146 25.2475 21.1504 24.8333 21.1504C24.4191 21.1504 24.0833 20.8146 24.0833 20.4004V16.4004C24.0833 15.9862 24.4191 15.6504 24.8333 15.6504Z" fill="#1BC47D"/>
</svg>
