<svg width="41" height="40" viewBox="0 0 41 40" fill="none" xmlns="http://www.w3.org/2000/svg">
<rect x="0.5" width="40" height="40" rx="8" fill="#0696D6" fill-opacity="0.1"/>
<path fill-rule="evenodd" clip-rule="evenodd" d="M18.3474 20.4965C17.7626 20.5424 17.2303 20.6012 16.6963 20.623C14.7418 20.7032 12.8114 20.5661 10.978 19.8246C10.529 19.6431 10.1081 19.3612 9.72389 19.0628C9.2889 18.7247 9.09798 18.2418 9.10002 17.6794C9.10749 15.617 9.10084 13.5546 9.1035 11.4922C9.10442 10.7797 9.50136 10.2921 10.0569 9.90698C10.6145 9.52048 11.2386 9.27535 11.8911 9.10059C13.738 8.60603 15.6147 8.50193 17.5134 8.68365C18.6882 8.79611 19.8385 9.00699 20.9209 9.49658C21.4778 9.7485 21.9754 10.0745 22.3437 10.5788C22.3981 10.6535 22.5811 10.6645 22.7021 10.658C23.67 10.6052 24.6381 10.4806 25.6044 10.4943C27.1411 10.5161 28.6684 10.6971 30.0888 11.3336C30.5532 11.5417 30.9861 11.8471 31.3812 12.1708C31.7559 12.4779 31.8986 12.9272 31.898 13.4192C31.8943 16.5128 31.892 19.6064 31.9 22.7C31.9015 23.2931 31.6755 23.7647 31.2385 24.1487C30.6506 24.6652 29.9393 24.9456 29.2006 25.1603C27.992 25.5115 26.751 25.6562 25.4951 25.6705C25.2626 25.6731 25.1907 25.7359 25.1947 25.9702C25.2083 26.7813 25.1855 27.5932 25.2037 28.4043C25.217 28.9996 24.987 29.4709 24.5506 29.8554C23.9435 30.3905 23.2091 30.6835 22.4415 30.8919C20.5971 31.3926 18.7195 31.4969 16.8204 31.3198C15.663 31.2118 14.5201 31.0292 13.4557 30.548C13.0277 30.3545 12.6197 30.0924 12.2516 29.8007C11.8354 29.471 11.6415 29.0074 11.6482 28.4613C11.6602 27.4979 11.6745 26.5335 11.6442 25.5709C11.6198 24.7924 11.9789 24.2505 12.5863 23.8264C13.1072 23.4627 13.6895 23.228 14.2966 23.0511C15.4969 22.7013 16.7267 22.5522 17.9746 22.5277C18.3469 22.5203 18.3471 22.5158 18.3473 22.1452C18.3476 21.6062 18.3474 21.0671 18.3474 20.4965ZM25.0865 14.7723C26.4566 14.7482 27.7718 14.6494 29.0329 14.2171C29.4384 14.0781 29.8322 13.882 30.1973 13.6575C30.5338 13.4505 30.5194 13.2385 30.1892 13.0115C29.9742 12.8636 29.739 12.7371 29.4981 12.6351C28.6532 12.2776 27.7608 12.1072 26.852 12.0126C25.076 11.8278 23.3112 11.8787 21.5842 12.3589C21.0669 12.5028 20.5655 12.7362 20.0927 12.9934C19.6849 13.2153 19.6951 13.4412 20.082 13.6902C20.3508 13.8632 20.6426 14.0129 20.9424 14.1249C22.2922 14.6293 23.7069 14.7407 25.0865 14.7723ZM18.6965 26.8054C19.7998 26.7661 20.8485 26.6986 21.8545 26.3913C22.4093 26.2218 22.9518 25.9841 23.4618 25.7077C23.8531 25.4956 23.8384 25.2608 23.4605 25.0262C23.1604 24.8399 22.8351 24.681 22.5023 24.561C21.4126 24.168 20.2742 24.0354 19.1226 23.9751C17.7015 23.9006 16.2966 24.0015 14.9227 24.3725C14.4592 24.4977 14.003 24.6822 13.577 24.9034C12.945 25.2315 12.9507 25.4948 13.5632 25.8448C13.8049 25.9829 14.0633 26.0999 14.3262 26.1929C15.7579 26.6998 17.2475 26.8059 18.6965 26.8054ZM20.8709 11.0448C20.5468 10.8982 20.2936 10.7642 20.027 10.6665C19.07 10.3159 18.0743 10.1524 17.0594 10.0847C15.4695 9.97871 13.8901 10.0396 12.3504 10.4721C11.8333 10.6172 11.3319 10.8505 10.8595 11.1086C10.4467 11.3341 10.4588 11.5654 10.8578 11.826C11.1182 11.9962 11.403 12.1451 11.6968 12.2469C13.8723 13.0008 16.1015 13.0165 18.3515 12.688C18.4189 12.6782 18.5051 12.6325 18.538 12.5774C18.9349 11.9138 19.5759 11.5742 20.2571 11.2868C20.4351 11.2117 20.6164 11.1448 20.8709 11.0448ZM30.4374 15.2529C26.869 16.5502 23.3413 16.5196 19.7843 15.2305C19.7843 15.6079 19.7916 15.9697 19.7814 16.3309C19.7757 16.5371 19.842 16.7073 20.0162 16.8055C20.3401 16.9881 20.6631 17.1843 21.0101 17.3117C22.0235 17.6841 23.084 17.8271 24.1588 17.8933C25.7255 17.9899 27.2762 17.8987 28.7855 17.455C29.2681 17.3132 29.7215 17.0642 30.1731 16.8349C30.2905 16.7754 30.4159 16.6105 30.4256 16.4854C30.4572 16.0749 30.4374 15.6604 30.4374 15.2529ZM13.0881 27.2841C13.0881 27.6067 13.1067 27.9354 13.0828 28.261C13.0592 28.5831 13.1862 28.8163 13.4628 28.9424C13.9397 29.1596 14.4159 29.4038 14.9194 29.5335C17.1324 30.1039 19.3638 30.0968 21.594 29.6268C22.2519 29.4881 22.8951 29.2842 23.4542 28.8935C23.5717 28.8114 23.7183 28.6746 23.7279 28.5534C23.7614 28.1287 23.7409 27.6998 23.7409 27.2916C20.187 28.5676 16.6621 28.5701 13.0881 27.2841ZM19.7842 18.3913C19.7842 18.721 19.8077 19.0493 19.7778 19.3728C19.7452 19.7237 19.9069 19.947 20.192 20.0882C20.5484 20.2645 20.9086 20.4499 21.2882 20.5608C23.6185 21.2424 25.9725 21.2383 28.3342 20.7375C28.9602 20.6047 29.5699 20.4091 30.1052 20.047C30.2375 19.9575 30.4055 19.8105 30.4183 19.6768C30.4585 19.2536 30.4331 18.8241 30.4331 18.4175C26.8762 19.7015 23.3477 19.698 19.7842 18.3913ZM30.4351 21.5736C26.8784 22.8595 23.3429 22.8602 19.7852 21.5682C19.7852 21.849 19.7893 22.1269 19.7835 22.4046C19.7804 22.5564 19.8699 22.577 19.9932 22.5952C20.6573 22.6934 21.3282 22.7642 21.9817 22.9107C22.9502 23.1277 23.8809 23.4507 24.6283 24.1493C24.6877 24.2048 24.7958 24.2301 24.8825 24.2329C26.0711 24.2705 27.2464 24.1662 28.4031 23.8858C29.0088 23.739 29.6029 23.5543 30.1214 23.1991C30.2514 23.11 30.4082 22.9569 30.4209 22.8211C30.46 22.404 30.4351 21.981 30.4351 21.5736ZM18.3441 17.3079C15.6757 17.6354 13.082 17.5606 10.5592 16.4992C10.5592 16.838 10.5871 17.1593 10.552 17.4736C10.5094 17.8566 10.6855 18.0814 10.9982 18.2453C11.0809 18.2886 11.1609 18.3374 11.245 18.3777C12.0433 18.7606 12.8961 18.9506 13.7677 19.0683C15.237 19.2667 16.7062 19.2539 18.1724 19.036C18.2354 19.0267 18.3355 18.9441 18.3366 18.8937C18.3488 18.3721 18.3441 17.8501 18.3441 17.3079ZM10.5593 13.34C10.5593 13.7366 10.5698 14.0993 10.5554 14.461C10.5466 14.6805 10.6227 14.8495 10.8059 14.9505C11.1241 15.1259 11.4425 15.3106 11.7813 15.4377C12.8669 15.8448 14.0079 16.0113 15.1575 16.0263C16.1497 16.0392 17.1436 15.9414 18.1361 15.8826C18.2077 15.8784 18.3331 15.7945 18.3345 15.7449C18.3491 15.2237 18.3435 14.702 18.3435 14.1494C15.6815 14.4711 13.0886 14.4025 10.5593 13.34Z" fill="#0696D6"/>
</svg>
