<svg width="8" height="7" viewBox="0 0 8 7" fill="none" xmlns="http://www.w3.org/2000/svg">
<path d="M6.75647 3.25844L7.85428 1.73382C7.93899 1.61618 7.98881 1.47829 7.99832 1.33513C8.00784 1.19197 7.97669 1.04902 7.90825 0.921822C7.83982 0.794624 7.73672 0.688046 7.61017 0.613676C7.48362 0.539306 7.33845 0.499989 7.19046 0.5L0.809536 0.5C0.661545 0.499989 0.516383 0.539306 0.389832 0.613676C0.26328 0.688046 0.160183 0.794624 0.0917478 0.921822C0.023313 1.04902 -0.00784016 1.19197 0.00167561 1.33513C0.0111914 1.47829 0.0610113 1.61618 0.14572 1.73382L1.24353 3.25844L3.33638 6.16444C3.41097 6.26804 3.51026 6.35265 3.62582 6.41107C3.74137 6.46949 3.86977 6.5 4.0001 6.5C4.13043 6.5 4.25883 6.46949 4.37439 6.41107C4.48994 6.35265 4.58924 6.26804 4.66382 6.16444L6.75647 3.25844Z" fill="#1B2746"/>
</svg>
