<svg width="40" height="40" viewBox="0 0 40 40" fill="none" xmlns="http://www.w3.org/2000/svg">
<path fill-rule="evenodd" clip-rule="evenodd" d="M26.25 10C26.25 6.54822 23.4518 3.75 20 3.75C16.5482 3.75 13.75 6.54822 13.75 10C13.75 13.4518 16.5482 16.25 20 16.25C23.4518 16.25 26.25 13.4518 26.25 10ZM20 6.25C22.071 6.25 23.75 7.92893 23.75 10C23.75 12.0711 22.071 13.75 20 13.75C17.929 13.75 16.25 12.0711 16.25 10C16.25 7.92893 17.929 6.25 20 6.25Z" fill="#1C274C"/>
<path fill-rule="evenodd" clip-rule="evenodd" d="M15.4167 30C15.4167 26.5482 12.6185 23.75 9.16675 23.75C5.71496 23.75 2.91675 26.5482 2.91675 30C2.91675 33.4518 5.71496 36.25 9.16675 36.25C12.6185 36.25 15.4167 33.4518 15.4167 30ZM9.16675 26.25C11.2378 26.25 12.9167 27.929 12.9167 30C12.9167 32.071 11.2378 33.75 9.16675 33.75C7.09568 33.75 5.41675 32.071 5.41675 30C5.41675 27.929 7.09568 26.25 9.16675 26.25Z" fill="#1C274C"/>
<path fill-rule="evenodd" clip-rule="evenodd" d="M30.8333 23.75C34.2851 23.75 37.0833 26.5482 37.0833 30C37.0833 33.4518 34.2851 36.25 30.8333 36.25C27.3814 36.25 24.5833 33.4518 24.5833 30C24.5833 26.5482 27.3814 23.75 30.8333 23.75ZM34.5833 30C34.5833 27.929 32.9043 26.25 30.8333 26.25C28.7623 26.25 27.0833 27.929 27.0833 30C27.0833 32.071 28.7623 33.75 30.8333 33.75C32.9043 33.75 34.5833 32.071 34.5833 30Z" fill="#1C274C"/>
<path d="M12.0079 12.6039C12.5255 12.147 12.5747 11.3571 12.1179 10.8395C11.6611 10.3219 10.8711 10.2727 10.3535 10.7295C7.32801 13.3999 5.41675 17.3108 5.41675 21.6667C5.41675 22.357 5.9764 22.9167 6.66675 22.9167C7.3571 22.9167 7.91675 22.357 7.91675 21.6667C7.91675 18.0578 9.49721 14.8198 12.0079 12.6039Z" fill="#1C274C"/>
<path d="M29.6465 10.7295C29.129 10.2727 28.339 10.3219 27.8822 10.8395C27.4253 11.3571 27.4747 12.147 27.9922 12.6039C30.5028 14.8198 32.0833 18.0578 32.0833 21.6667C32.0833 22.357 32.643 22.9167 33.3333 22.9167C34.0237 22.9167 34.5833 22.357 34.5833 21.6667C34.5833 17.3108 32.672 13.3999 29.6465 10.7295Z" fill="#1C274C"/>
<path d="M16.9781 33.3695C16.3096 33.1973 15.6281 33.5998 15.456 34.2683C15.2839 34.937 15.6864 35.6185 16.355 35.7905C17.5214 36.0907 18.7429 36.25 19.9999 36.25C21.2569 36.25 22.4784 36.0907 23.6447 35.7905C24.3134 35.6185 24.7159 34.937 24.5437 34.2683C24.3717 33.5998 23.6902 33.1973 23.0217 33.3695C22.0572 33.6177 21.0449 33.75 19.9999 33.75C18.9549 33.75 17.9426 33.6177 16.9781 33.3695Z" fill="#1C274C"/>
</svg>
