<svg width="12" height="13" class="file" viewBox="0 0 12 13" fill="none" xmlns="http://www.w3.org/2000/svg">
<path fill-rule="evenodd" clip-rule="evenodd" d="M2.6353 5.99279C2.6353 4.62123 2.6353 3.27182 2.6353 1.91132C2.36341 1.91132 2.09503 1.91132 1.8079 1.91132C1.8079 1.96251 1.8079 2.01173 1.8079 2.06098C1.80793 2.82944 1.80793 3.5979 1.80795 4.36636C1.80795 4.40456 1.80816 4.44278 1.80798 4.481C1.80717 4.65308 1.73215 4.75536 1.60858 4.75291C1.48893 4.75054 1.41672 4.65153 1.41616 4.48709C1.41557 4.30455 1.41598 4.12196 1.41598 3.9394C1.41598 3.30683 1.4158 2.67422 1.41613 2.04162C1.41629 1.71472 1.62119 1.50902 1.94654 1.50846C2.14184 1.50813 2.33719 1.50612 2.53241 1.50956C2.60398 1.51083 2.64197 1.49409 2.67334 1.41916C2.7618 1.20778 2.92584 1.09985 3.16089 1.09998C5.39408 1.10105 7.62728 1.10056 9.86048 1.10074C10.1564 1.10077 10.3687 1.31546 10.3688 1.61637C10.3692 3.02169 10.3702 4.427 10.3666 5.8323C10.3663 5.94774 10.3831 6.00716 10.512 6.04556C10.9159 6.16587 11.1838 6.54559 11.184 6.96623C11.1847 8.42669 11.185 9.28717 11.1841 10.7476C11.1837 11.379 10.6642 11.8993 10.0333 11.8995C7.27368 11.9002 4.514 11.9002 1.75435 11.8993C1.12111 11.8991 0.601707 11.3819 0.601045 10.7504C0.599542 9.28567 0.599644 8.42091 0.601223 6.95617C0.601784 6.42887 1.03955 5.99532 1.56863 5.99302C1.8743 5.9917 2.18001 5.99274 2.48568 5.99274C2.53139 5.99279 2.57703 5.99279 2.6353 5.99279ZM9.96935 1.50082C7.65177 1.50082 5.34888 1.50082 3.04034 1.50082C3.04034 3.00003 3.04034 4.49096 3.04034 5.98703C3.08697 5.98923 3.12445 5.99259 3.16193 5.99254C3.55243 5.9919 3.94298 5.993 4.33335 5.98563C4.36673 5.985 4.41636 5.93315 4.429 5.89528C4.50676 5.66212 4.57925 5.42705 4.64756 5.19088C4.79662 4.67548 5.21155 4.35987 5.74782 4.35966C6.67318 4.35933 7.59869 4.36924 8.52383 4.35536C8.99851 4.34825 9.4922 4.67018 9.63244 5.1813C9.69855 5.42216 9.78557 5.65738 9.86677 5.89388C9.87943 5.9308 9.91174 5.96099 9.93498 5.9943C9.94642 5.9878 9.95789 5.98133 9.96935 5.97483C9.96935 4.48681 9.96935 2.99875 9.96935 1.50082Z" fill="#1B2746"/>
<path class="last" fill-rule="evenodd" clip-rule="evenodd" d="M6.49129 3.12333C5.71031 3.12333 4.92934 3.12336 4.1484 3.12331C4.11869 3.12331 4.08873 3.12522 4.05932 3.12214C3.94696 3.11039 3.86155 3.02345 3.86318 2.92454C3.86481 2.82421 3.94991 2.73913 4.06457 2.73266C4.16613 2.72692 4.2682 2.72901 4.37007 2.72899C5.86411 2.72881 7.35815 2.72886 8.85221 2.72886C8.86918 2.72886 8.88615 2.72863 8.90312 2.72899C9.05375 2.73192 9.1492 2.81045 9.14731 2.92979C9.14548 3.04837 9.05026 3.12517 8.89789 3.12532C8.0957 3.12603 7.29348 3.12568 6.49131 3.12568C6.49128 3.12489 6.49129 3.12412 6.49129 3.12333Z" fill="#1B2746" stroke-width="0.5"/>
</svg>
