<svg width="15" height="15" viewBox="0 0 15 15" fill="none" xmlns="http://www.w3.org/2000/svg">
<path d="M8.92376 8.77539H6.35803V9.80641H8.92376V8.77539Z" fill="#D9D9D9"/>
<path d="M9.1098 9.12414L8.76099 8.96332V7.85449H6.52238V8.96332L6.17212 9.11446L6.26539 12.2591H6.52238V12.7412H8.76099V12.2591H9.01653L9.1098 9.12414Z" fill="#F6CCB8"/>
<path d="M6.52161 7.85449V8.3942L8.76022 8.8907V7.85449H6.52161Z" fill="#F6CCB8"/>
<path d="M10.5089 14.566C10.5515 12.9136 10.4601 9.63884 9.10796 9.13086L9.02476 9.44331C8.88086 9.85567 8.51179 10.4368 7.63555 10.4368C6.64703 10.4368 6.26988 9.67146 6.15287 9.2995L6.10797 9.13091C4.75588 9.63894 4.71597 12.9137 4.78501 14.566H10.5089V14.566Z" fill="white"/>
<path d="M13.407 14.5659L12.8952 11.0023C12.7949 10.3046 12.2735 9.74162 11.5856 9.58819L8.92625 8.99512L7.76025 14.5659H13.407Z" fill="#EBEBEB"/>
<path d="M7.52142 14.5668L6.35572 8.99609L3.69642 9.58912C3.00847 9.74255 2.48713 10.3055 2.38687 11.0033L1.875 14.5668H7.52142Z" fill="#EBEBEB"/>
<path d="M5.90185 10.7689L5.48615 11.3371L7.32334 14.5661H7.52061L6.35796 8.77539L5.33118 9.25988L5.36764 10.3295L5.90185 10.7689Z" fill="#D9D9D9"/>
<path d="M7.95838 14.5661L9.79566 11.3371L9.37996 10.7689L9.91413 10.3295L9.95064 9.25988L8.92386 8.77539L7.76111 14.5661H7.95838Z" fill="#D9D9D9"/>
<path d="M10.9489 12.841H10.688V12.5801H10.3619V12.841H10.101V13.1672H10.3619V13.428H10.688V13.1672H10.9489V12.841Z" fill="#65C6BB"/>
<path d="M11.3729 13.666H9.677V14.0052H11.3729V13.666Z" fill="#65C6BB"/>
<path d="M10.0838 4.69588L10.1596 3.7108C10.1596 2.42265 8.92832 1.37891 7.64117 1.37891C6.35301 1.37891 5.12272 2.42265 5.12272 3.7108L5.19844 4.69488C5.12641 4.71229 5.06137 4.74531 5.0071 4.79185C4.90634 4.87764 4.8429 5.00449 4.8429 5.14724V5.63228C4.8429 5.88871 5.0494 6.09676 5.30638 6.09836C5.30638 7.31473 6.76797 8.46781 7.64122 8.46781C8.51442 8.46781 9.976 7.31488 9.976 6.09851C10.232 6.09666 10.4391 5.88891 10.4391 5.63248V5.14744C10.439 4.92837 10.2874 4.74596 10.0838 4.69588Z" fill="#F6CCB8"/>
<path opacity="0.8" d="M10.0838 4.69588L10.1596 3.7108C10.1596 2.42265 8.92831 1.37891 7.64116 1.37891C7.64101 1.37891 7.64086 1.37891 7.64076 1.37891V4.69019C7.30053 5.41375 7.08105 6.46243 7.08105 6.46243H7.64076V8.46786C7.64076 8.46786 7.64091 8.46786 7.64101 8.46786C7.64116 8.46786 7.64131 8.46786 7.64146 8.46786C8.51471 8.46761 9.97594 7.31478 9.97594 6.09855C10.232 6.09671 10.439 5.88896 10.439 5.63253V5.14749C10.439 4.92837 10.2874 4.74596 10.0838 4.69588Z" fill="#F6CCB8"/>
<path d="M10.5291 1.44704C10.5191 1.36703 10.4465 1.31017 10.3664 1.31944C9.80252 1.38489 9.76915 1.26328 8.78631 0.68462C7.89381 0.159184 6.98061 0.36868 6.37202 0.820992C3.95483 1.3789 4.84709 4.2882 5.13594 5.07252C5.15191 5.11596 5.21575 5.10549 5.2179 5.05925C5.24239 4.53117 5.37307 3.147 6.0678 2.65907C7.51766 3.64769 8.9992 3.70146 9.84267 3.11353C10.0745 3.65433 10.0872 4.518 10.0754 4.96986C10.0741 5.01909 10.1437 5.03067 10.1581 4.98353C10.3032 4.50852 10.5383 3.51526 10.3161 2.60769C10.5028 2.2917 10.5852 1.9006 10.5291 1.44704Z" fill="#4F3C30"/>
<path d="M5.94966 5.88867C5.90826 6.03263 5.77723 6.43386 5.50818 6.8318C5.46538 6.69987 5.40233 6.45985 5.36013 6.09318C5.34307 6.09508 5.32641 6.09837 5.30885 6.09837C5.29429 6.09837 5.28062 6.09532 5.26636 6.09408C5.33694 6.71788 5.46548 6.98643 5.47107 6.99765L5.47486 6.99586C5.81738 7.85749 6.75543 8.46752 7.64075 8.46752C8.52612 8.46752 9.46411 7.85754 9.80669 6.99586L9.81038 6.99765C9.81592 6.98638 9.94451 6.71788 10.0151 6.09408C10.0009 6.09532 9.9871 6.09837 9.97259 6.09837C9.95498 6.09837 9.93832 6.09508 9.92126 6.09318C9.87911 6.45985 9.81612 6.69982 9.77327 6.8318C9.50422 6.43381 9.37318 6.03258 9.33178 5.88867" fill="#EBEBEB"/>
<path d="M10.227 4.31922H9.72708C9.56911 4.23642 9.348 4.18359 9.03849 4.18359C8.52378 4.18359 8.17447 4.28226 7.9952 4.47484C7.9104 4.42821 7.78386 4.37518 7.6407 4.37518C7.49884 4.37518 7.37335 4.42721 7.2885 4.47355C7.10883 4.28181 6.75997 4.18359 6.24645 4.18359C5.93695 4.18359 5.71583 4.23642 5.55781 4.31922H5.05432V4.67935L5.21957 4.73731C5.20266 4.80485 5.19578 4.87328 5.19578 4.93933C5.19578 5.38685 5.30472 5.98172 6.24641 5.98172C7.08748 5.98172 7.30815 5.46421 7.41305 4.95813C7.42896 4.88137 7.43071 4.80824 7.42008 4.73961C7.46108 4.71342 7.52877 4.69042 7.64065 4.69042C7.75543 4.69042 7.82386 4.71457 7.86451 4.7416C7.85424 4.80969 7.85603 4.88211 7.8718 4.95813C7.97669 5.46426 8.19731 5.98172 9.03844 5.98172C9.98013 5.98172 10.0891 5.38685 10.0891 4.93933C10.0891 4.87294 10.082 4.8041 10.0649 4.73616L10.2269 4.67935V4.31922H10.227ZM7.23228 4.92057C7.12325 5.44661 6.91395 5.79696 6.2465 5.79696C5.48553 5.79696 5.38064 5.38475 5.38064 4.93933C5.38064 4.79807 5.38064 4.36835 6.2465 4.36835C6.84397 4.36835 7.0794 4.50357 7.17173 4.617C7.23702 4.69721 7.25742 4.79931 7.23228 4.92057ZM9.03854 5.79696C8.3711 5.79696 8.1618 5.44661 8.05271 4.92057C8.02762 4.79936 8.04797 4.69721 8.11331 4.61705C8.20564 4.50362 8.44108 4.3684 9.03854 4.3684C9.90441 4.3684 9.90441 4.79812 9.90441 4.93938C9.90441 5.38475 9.79946 5.79696 9.03854 5.79696Z" fill="#42404D"/>
</svg>
