<svg width="15" height="16" viewBox="0 0 15 16" fill="none" xmlns="http://www.w3.org/2000/svg">
<path fill-rule="evenodd" clip-rule="evenodd" d="M3.29415 6.99102C3.29415 5.27657 3.29415 3.5898 3.29415 1.88918C2.95429 1.88918 2.61882 1.88918 2.25991 1.88918C2.25991 1.95316 2.25991 2.0147 2.25991 2.07626C2.25994 3.03684 2.25994 3.99741 2.25997 4.95799C2.25997 5.00573 2.26023 5.0535 2.26001 5.10128C2.25899 5.31639 2.16522 5.44423 2.01075 5.44117C1.86119 5.43821 1.77093 5.31444 1.77023 5.10889C1.7695 4.88072 1.77 4.65249 1.77 4.42429C1.77 3.63356 1.76978 2.84281 1.7702 2.05205C1.77039 1.64343 2.02652 1.38631 2.4332 1.38561C2.67733 1.38519 2.92152 1.38268 3.16555 1.38698C3.25501 1.38857 3.3025 1.36765 3.3417 1.27398C3.45229 1.00975 3.65733 0.874841 3.95114 0.875C6.74264 0.876338 9.53413 0.875733 12.3256 0.875956C12.6956 0.875987 12.9609 1.14435 12.961 1.52049C12.9615 3.27714 12.9628 5.03379 12.9583 6.7904C12.9579 6.93471 12.9789 7.00899 13.14 7.05698C13.645 7.20737 13.9798 7.68202 13.9801 8.20782C13.9809 10.0334 13.9813 11.859 13.9801 13.6845C13.9796 14.4737 13.3303 15.1241 12.5417 15.1243C9.09213 15.1252 5.64253 15.1253 2.19296 15.1241C1.40141 15.1239 0.752165 14.4774 0.751337 13.688C0.749458 11.8571 0.749585 10.0262 0.75156 8.19524C0.75226 7.53612 1.29946 6.99417 1.96081 6.99131C2.34291 6.98965 2.72504 6.99096 3.10713 6.99096C3.16427 6.99102 3.22131 6.99102 3.29415 6.99102ZM7.35089 14.6347C9.1021 14.6347 10.8533 14.6356 12.6044 14.6342C13.1097 14.6337 13.4879 14.2758 13.4889 13.7862C13.4923 11.8971 13.4916 10.0079 13.4893 8.11881C13.4889 7.75012 13.2241 7.48838 12.8573 7.48176C12.661 7.47822 12.4646 7.47781 12.2683 7.48176C12.1038 7.48507 12.0011 7.42 11.9496 7.25661C11.8191 6.8427 11.6765 6.43258 11.5442 6.01917C11.4298 5.66173 11.15 5.44407 10.7757 5.4435C9.53936 5.44155 8.30287 5.44139 7.06645 5.44353C6.69171 5.4442 6.4143 5.66284 6.30579 6.02545C6.189 6.41579 6.07004 6.8055 5.95039 7.19498C5.87369 7.44462 5.82092 7.48096 5.54953 7.48096C4.35556 7.48093 3.1616 7.48058 1.96763 7.48093C1.48276 7.48109 1.24099 7.72024 1.24089 8.20053C1.24054 10.0313 1.24048 11.8621 1.24108 13.6928C1.24127 14.292 1.5885 14.6347 2.19287 14.6347C3.91225 14.6348 5.63157 14.6348 7.35089 14.6347ZM12.4617 1.37605C9.56474 1.37605 6.68614 1.37605 3.80046 1.37605C3.80046 3.25007 3.80046 5.11373 3.80046 6.98382C3.85875 6.98656 3.9056 6.99077 3.95245 6.9907C4.44057 6.98991 4.92875 6.99128 5.41672 6.98207C5.45844 6.98128 5.52048 6.91646 5.53628 6.86913C5.63348 6.57768 5.7241 6.28384 5.80948 5.98863C5.9958 5.34438 6.51447 4.94986 7.1848 4.94961C8.3415 4.94919 9.4984 4.96158 10.6548 4.94423C11.2482 4.93534 11.8653 5.33776 12.0406 5.97665C12.1232 6.27773 12.232 6.57176 12.3335 6.86738C12.3493 6.91353 12.3897 6.95127 12.4188 6.9929C12.4331 6.98478 12.4474 6.97669 12.4617 6.96857C12.4617 5.10854 12.4617 3.24847 12.4617 1.37605Z" fill="white"/>
<path fill-rule="evenodd" clip-rule="evenodd" d="M9.43562 10.605C9.70385 10.2918 9.97209 9.97867 10.2403 9.66547C10.2816 9.61712 10.3207 9.56664 10.3647 9.52071C10.4622 9.4187 10.6114 9.4036 10.7073 9.48326C10.8176 9.57482 10.8269 9.70824 10.7257 9.83561C10.6466 9.9352 10.561 10.0297 10.4786 10.1267C10.1045 10.5673 9.73067 11.0081 9.35635 11.4486C9.23548 11.5907 9.08942 11.6002 8.95849 11.4692C8.46727 10.9778 7.97714 10.4853 7.4881 9.99176C7.35086 9.85325 7.34111 9.72738 7.45096 9.61639C7.56078 9.50539 7.68878 9.51409 7.82624 9.65021C8.13534 9.95619 8.4416 10.265 8.74958 10.5721C8.78905 10.6115 8.83188 10.6475 8.90396 10.7131C8.90396 10.6187 8.90396 10.563 8.90396 10.5073C8.90396 9.63212 8.90399 8.75693 8.90409 7.88175C8.90409 7.83932 8.90154 7.79665 8.90514 7.75451C8.9174 7.61122 9.0196 7.50478 9.14487 7.50201C9.27551 7.49911 9.38205 7.60998 9.39307 7.76196C9.39574 7.79891 9.39383 7.8362 9.39383 7.87334C9.39386 8.722 9.39386 9.57065 9.39386 10.4193C9.39386 10.4761 9.39386 10.5329 9.39386 10.5898C9.40778 10.5949 9.4217 10.6 9.43562 10.605Z" fill="white"/>
<path fill-rule="evenodd" clip-rule="evenodd" d="M9.14884 13.1062C9.79089 13.1063 10.4329 13.1061 11.075 13.1064C11.3058 13.1064 11.4342 13.1963 11.4311 13.3547C11.4281 13.5119 11.302 13.5956 11.0677 13.5961C11.0411 13.5962 11.0146 13.5962 10.988 13.5962C10.3089 13.5962 9.6297 13.5962 8.95048 13.5962C8.38274 13.5962 7.81499 13.5961 7.24722 13.5961C7.21005 13.5961 7.17281 13.5978 7.13581 13.5957C6.98181 13.5869 6.87041 13.4866 6.86728 13.3553C6.86404 13.2195 6.98032 13.1092 7.14316 13.1075C7.48803 13.1039 7.83296 13.1062 8.17782 13.1062C8.5015 13.1061 8.82519 13.1062 9.14884 13.1062Z" fill="white"/>
<path fill-rule="evenodd" clip-rule="evenodd" d="M8.11412 3.4045C7.13791 3.4045 6.1617 3.40453 5.18551 3.40447C5.14838 3.40447 5.11092 3.40686 5.07417 3.40301C4.93371 3.38832 4.82695 3.27965 4.82899 3.15601C4.83103 3.03059 4.93741 2.92425 5.08073 2.91616C5.20768 2.90899 5.33527 2.9116 5.4626 2.91157C7.33015 2.91135 9.1977 2.91141 11.0653 2.91141C11.0865 2.91141 11.1077 2.91113 11.1289 2.91157C11.3172 2.91523 11.4365 3.01339 11.4342 3.16258C11.4319 3.3108 11.3128 3.4068 11.1224 3.40699C10.1196 3.40788 9.11687 3.40743 8.11415 3.40743C8.11412 3.40645 8.11412 3.40549 8.11412 3.4045Z" fill="white" stroke="white" stroke-width="0.5"/>
</svg>
