<svg width="16" height="17" viewBox="0 0 16 17" fill="none" xmlns="http://www.w3.org/2000/svg">
<g id="ic-deparment">
<path id="Vector" fill-rule="evenodd" clip-rule="evenodd" d="M10.5 4.5C10.5 3.11929 9.38073 2 8 2C6.61929 2 5.5 3.11929 5.5 4.5C5.5 5.88071 6.61929 7 8 7C9.38073 7 10.5 5.88071 10.5 4.5ZM8 3C8.8284 3 9.5 3.67157 9.5 4.5C9.5 5.32843 8.8284 6 8 6C7.1716 6 6.5 5.32843 6.5 4.5C6.5 3.67157 7.1716 3 8 3Z" fill="#1C274C"/>
<path id="Vector_2" fill-rule="evenodd" clip-rule="evenodd" d="M6.16669 12.5C6.16669 11.1193 5.0474 10 3.66669 10C2.28597 10 1.16669 11.1193 1.16669 12.5C1.16669 13.8807 2.28597 15 3.66669 15C5.0474 15 6.16669 13.8807 6.16669 12.5ZM3.66669 11C4.49511 11 5.16669 11.6716 5.16669 12.5C5.16669 13.3284 4.49511 14 3.66669 14C2.83826 14 2.16669 13.3284 2.16669 12.5C2.16669 11.6716 2.83826 11 3.66669 11Z" fill="#1C274C"/>
<path id="Vector_3" fill-rule="evenodd" clip-rule="evenodd" d="M12.3333 10C13.714 10 14.8333 11.1193 14.8333 12.5C14.8333 13.8807 13.714 15 12.3333 15C10.9526 15 9.83331 13.8807 9.83331 12.5C9.83331 11.1193 10.9526 10 12.3333 10ZM13.8333 12.5C13.8333 11.6716 13.1617 11 12.3333 11C11.5049 11 10.8333 11.6716 10.8333 12.5C10.8333 13.3284 11.5049 14 12.3333 14C13.1617 14 13.8333 13.3284 13.8333 12.5Z" fill="#1C274C"/>
<path id="Vector_4" d="M4.80314 5.54157C5.01017 5.35883 5.02987 5.04287 4.84715 4.83583C4.66441 4.62879 4.34845 4.60909 4.14141 4.79182C2.93119 5.85997 2.16669 7.42436 2.16669 9.16669C2.16669 9.44283 2.39055 9.66669 2.66669 9.66669C2.94283 9.66669 3.16669 9.44283 3.16669 9.16669C3.16669 7.72316 3.79887 6.42794 4.80314 5.54157Z" fill="#1C274C"/>
<path id="Vector_5" d="M11.8586 4.79182C11.6516 4.60909 11.3356 4.62879 11.1528 4.83583C10.9701 5.04287 10.9898 5.35883 11.1968 5.54157C12.2011 6.42794 12.8333 7.72316 12.8333 9.16669C12.8333 9.44283 13.0572 9.66669 13.3333 9.66669C13.6094 9.66669 13.8333 9.44283 13.8333 9.16669C13.8333 7.42436 13.0688 5.85997 11.8586 4.79182Z" fill="#1C274C"/>
<path id="Vector_6" d="M6.79129 13.8478C6.52389 13.779 6.2513 13.94 6.18247 14.2074C6.11364 14.4748 6.27463 14.7474 6.54206 14.8162C7.00862 14.9363 7.49722 15 8.00002 15C8.50282 15 8.99142 14.9363 9.45795 14.8162C9.72542 14.7474 9.88642 14.4748 9.81755 14.2074C9.74875 13.94 9.47615 13.779 9.20875 13.8478C8.82295 13.9471 8.41802 14 8.00002 14C7.58202 14 7.17709 13.9471 6.79129 13.8478Z" fill="#1C274C"/>
</g>
</svg>
