<svg width="19" height="20" viewBox="0 0 19 20" fill="none" xmlns="http://www.w3.org/2000/svg">
<path fill-rule="evenodd" clip-rule="evenodd" d="M2.95241 1.93522C4.3152 0.929256 6.17948 0.466883 7.74378 1.79238C8.28113 2.2477 8.81347 2.61115 9.32202 2.90112C9.39114 2.82918 9.46997 2.7507 9.55815 2.66822C9.92819 2.32208 10.4748 1.8942 11.1701 1.58869C11.8697 1.28133 12.7238 1.09656 13.691 1.24927C14.6585 1.40203 15.6967 1.88577 16.7744 2.84593C19.0834 4.90291 18.7382 8.16095 17.8352 10.9555C17.0759 13.305 15.847 15.561 15.0922 16.9466C14.9352 17.2349 14.7987 17.4854 14.6912 17.6913C14.5162 18.0266 14.3348 18.2968 14.1388 18.4916C13.9427 18.6866 13.6911 18.8449 13.3878 18.8565C13.0773 18.8684 12.8338 18.7223 12.6682 18.5643C12.5071 18.4107 12.3873 18.2176 12.2978 18.0401C12.1179 17.6832 11.9962 17.2576 11.9211 16.9445C11.8825 16.7834 11.8539 16.6424 11.8349 16.5412C11.8254 16.4905 11.8182 16.4494 11.8133 16.4204L11.8096 16.3982L11.8094 16.3973C11.8059 16.3829 11.8006 16.3613 11.7936 16.3329C11.7795 16.2761 11.7584 16.1925 11.7307 16.0869C11.6754 15.8755 11.5941 15.5765 11.4906 15.2285C11.2823 14.5285 10.9889 13.646 10.6421 12.8793C10.4686 12.4958 10.2875 12.1544 10.1045 11.8838C9.91612 11.6054 9.75269 11.4428 9.62828 11.3682C9.52937 11.309 9.48985 11.3201 9.44815 11.3399C9.36535 11.3792 9.19658 11.5146 8.97862 11.9107C8.20586 13.3152 8.01786 14.8776 7.85866 16.2007C7.83234 16.4194 7.80681 16.6316 7.77955 16.8355C7.73285 17.1847 7.67852 17.5219 7.5989 17.8145C7.52142 18.0993 7.40474 18.4022 7.19749 18.6363C6.96574 18.8982 6.65264 19.0377 6.28687 19.0242C5.95638 19.012 5.61593 18.8767 5.27284 18.6801C4.51091 18.2435 3.8501 17.3537 3.29268 16.3368C2.72373 15.2989 2.21613 14.0411 1.79519 12.7625C0.960456 10.2272 0.428044 7.48988 0.477824 6.10343C0.531983 4.595 1.60503 2.92982 2.95241 1.93522ZM12.9094 16.1959L12.9103 16.2014L12.9144 16.2265C12.9182 16.2491 12.9242 16.2832 12.9323 16.3263C12.9485 16.4127 12.9732 16.5343 13.0064 16.6729C13.0751 16.9591 13.172 17.2812 13.2913 17.5177C13.3217 17.5781 13.3495 17.6246 13.3734 17.6595C13.4536 17.5753 13.5663 17.4205 13.7052 17.1544C13.8233 16.9281 13.9688 16.6607 14.133 16.3589C14.8921 14.9637 16.0525 12.8309 16.7741 10.5978C17.6658 7.83808 17.7809 5.25696 16.0399 3.706C15.0928 2.86219 14.2441 2.49143 13.5203 2.37714C12.7962 2.26282 12.1547 2.39849 11.6117 2.63707C11.1142 2.85566 10.7029 3.1595 10.4003 3.42993C11.7084 3.97112 12.7165 4.03457 13.0016 4.03457V5.17584C12.3576 5.17584 9.7339 4.96158 7.03033 2.67073C6.01745 1.81248 4.7523 2.01473 3.60694 2.86021C2.44617 3.71706 1.63235 5.09014 1.59447 6.14525C1.55221 7.32233 2.03227 9.90198 2.8543 12.3988C3.26174 13.6363 3.7436 14.8233 4.26766 15.7793C4.80324 16.7563 5.33897 17.4094 5.81961 17.6848C6.09781 17.8442 6.25496 17.881 6.32715 17.8837C6.35796 17.8848 6.35934 17.883 6.36469 17.8759C6.36575 17.8745 6.36696 17.8728 6.36859 17.871C6.40295 17.8322 6.46173 17.7316 6.52231 17.5089C6.58075 17.2942 6.62708 17.0202 6.67243 16.6811C6.69656 16.5006 6.71971 16.3047 6.74435 16.0961C6.89944 14.7836 7.11367 12.9707 8.0045 11.3516C8.26976 10.8695 8.58421 10.4916 8.97708 10.305C9.41105 10.099 9.83965 10.1717 10.1938 10.3839C10.5224 10.5808 10.7969 10.8996 11.0238 11.235C11.256 11.5783 11.4675 11.983 11.6565 12.4006C12.0344 13.2362 12.3451 14.1754 12.5597 14.8967C12.6675 15.2593 12.7523 15.5708 12.8103 15.7922C12.8392 15.903 12.8616 15.9914 12.8767 16.0525C12.8843 16.0831 12.8901 16.1068 12.8941 16.1232L12.8986 16.1421L12.9002 16.1487C12.9002 16.1489 12.9004 16.1494 12.3573 16.2835L12.9004 16.1494L12.9058 16.1722L12.9093 16.195L12.9094 16.1959Z" fill="#0096D6"/>
</svg>
