<svg width="19" height="19" viewBox="0 0 19 19" fill="none" xmlns="http://www.w3.org/2000/svg">
<path fill-rule="evenodd" clip-rule="evenodd" d="M4.17279 8.69697C4.17279 6.52534 4.17279 4.38876 4.17279 2.23464C3.74229 2.23464 3.31737 2.23464 2.86275 2.23464C2.86275 2.31568 2.86275 2.39363 2.86275 2.47161C2.86279 3.68834 2.86279 4.90506 2.86283 6.12179C2.86283 6.18227 2.86315 6.24278 2.86287 6.30329C2.86158 6.57577 2.74281 6.7377 2.54715 6.73383C2.3577 6.73008 2.24337 6.57331 2.24248 6.31294C2.24156 6.02392 2.2422 5.73483 2.2422 5.44577C2.2422 4.44419 2.24192 3.44257 2.24244 2.44095C2.24269 1.92335 2.56712 1.59767 3.08225 1.59678C3.39148 1.59626 3.70078 1.59307 4.00989 1.59852C4.12321 1.60053 4.18336 1.57403 4.23302 1.45538C4.37309 1.1207 4.63281 0.949811 5.00497 0.950012C8.54087 0.951707 12.0768 0.95094 15.6127 0.951223C16.0813 0.951263 16.4173 1.29119 16.4174 1.76763C16.4181 3.99272 16.4197 6.21781 16.414 8.44286C16.4135 8.62565 16.4401 8.71973 16.6442 8.78052C17.2838 8.97102 17.708 9.57224 17.7083 10.2383C17.7093 12.5506 17.7099 13.9131 17.7084 16.2254C17.7077 17.2251 16.8853 18.0489 15.8863 18.0492C11.5169 18.0503 7.1474 18.0504 2.77795 18.0489C1.77532 18.0486 0.952937 17.2297 0.951888 16.2299C0.949508 13.9107 0.94967 12.5415 0.952171 10.2223C0.953058 9.38743 1.64618 8.70097 2.48389 8.69734C2.96788 8.69524 3.45191 8.69689 3.9359 8.69689C4.00827 8.69697 4.08053 8.69697 4.17279 8.69697ZM15.785 1.58468C12.1155 1.58468 8.4693 1.58468 4.81411 1.58468C4.81411 3.95843 4.81411 6.31907 4.81411 8.68786C4.88794 8.69132 4.94728 8.69665 5.00663 8.69657C5.62491 8.69556 6.24328 8.69729 6.86137 8.68564C6.91422 8.68463 6.99281 8.60253 7.01282 8.54258C7.13594 8.17341 7.25072 7.80121 7.35887 7.42727C7.59488 6.61123 8.25185 6.11151 9.10094 6.11118C10.5661 6.11066 12.0315 6.12635 13.4963 6.10436C14.2479 6.09311 15.0295 6.60284 15.2516 7.41211C15.3563 7.79346 15.4941 8.1659 15.6226 8.54036C15.6427 8.59882 15.6938 8.64662 15.7306 8.69935C15.7487 8.68907 15.7669 8.67882 15.785 8.66853C15.785 6.31249 15.785 3.95641 15.785 1.58468Z" fill="#0696D6"/>
<path fill-rule="evenodd" clip-rule="evenodd" d="M10.2779 4.15362C9.04136 4.15362 7.80482 4.15366 6.56833 4.15358C6.52129 4.15358 6.47385 4.15661 6.42729 4.15173C6.24938 4.13313 6.11415 3.99548 6.11674 3.83887C6.11932 3.68 6.25406 3.5453 6.4356 3.53505C6.59641 3.52597 6.75802 3.52928 6.91931 3.52924C9.28487 3.52896 11.6504 3.52904 14.016 3.52904C14.0429 3.52904 14.0698 3.52868 14.0966 3.52924C14.3351 3.53388 14.4863 3.65822 14.4833 3.84718C14.4804 4.03493 14.3296 4.15653 14.0884 4.15677C12.8182 4.1579 11.548 4.15733 10.2779 4.15733C10.2779 4.15608 10.2779 4.15487 10.2779 4.15362Z" fill="#1B2746"/>
</svg>
