<svg width="15" height="15" viewBox="0 0 15 15" fill="none" xmlns="http://www.w3.org/2000/svg">
<path fill-rule="evenodd" clip-rule="evenodd" d="M9.7573 2.1C8.75406 0.3 6.24594 0.3 5.2427 2.1L0.728094 10.2C-0.275151 12 0.978905 14.25 2.9854 14.25H12.0146C14.0211 14.25 15.2752 12 14.2719 10.2L9.7573 2.1ZM8.19376 9.17785L8.44076 4.60714H6.14176L6.38876 9.17785H8.19376ZM6.40776 11.6657C6.62942 11.865 6.92392 11.9646 7.29126 11.9646C7.65226 11.9646 7.94359 11.865 8.16526 11.6657C8.38692 11.4664 8.49776 11.2157 8.49776 10.9136C8.49776 10.605 8.38692 10.3511 8.16526 10.1518C7.94359 9.94607 7.65226 9.84321 7.29126 9.84321C6.92392 9.84321 6.62942 9.94607 6.40776 10.1518C6.18609 10.3511 6.07526 10.605 6.07526 10.9136C6.07526 11.2157 6.18609 11.4664 6.40776 11.6657Z" fill="#FFD400"/>
</svg>
