<svg width="22" height="23" viewBox="0 0 22 23" fill="none" xmlns="http://www.w3.org/2000/svg">
<path d="M11.0002 9.11C12.1497 9.11 13.0902 8.1695 13.0902 7.02V2.84C13.0902 1.6905 12.1497 0.75 11.0002 0.75C9.85066 0.75 8.91016 1.6905 8.91016 2.84V7.02C8.91016 8.1695 9.85066 9.11 11.0002 9.11Z" fill="#E83B68"/>
<path d="M18.4195 3.7803C18.1061 3.4668 17.7925 3.3623 17.2701 3.3623C16.434 3.3623 15.7025 4.0938 15.7025 4.9298C15.7025 5.3478 15.9115 5.7658 16.1205 6.0793C17.479 7.4378 18.2106 9.2143 18.2106 11.1998C18.2106 15.2753 14.971 18.5148 10.8955 18.5148C6.82005 18.5148 3.58055 15.2753 3.58055 11.1998C3.58055 9.2143 4.41655 7.3333 5.77505 6.0793C6.08855 5.7658 6.29755 5.3478 6.29755 4.9298C6.29755 4.0938 5.56605 3.3623 4.73005 3.3623C4.31205 3.3623 3.89405 3.5713 3.58055 3.7803C1.69955 5.6613 0.550049 8.27381 0.550049 11.1998C0.550049 16.9473 5.25255 21.6498 11 21.6498C16.7476 21.6498 21.4501 16.9473 21.4501 11.1998C21.4501 8.27381 20.3006 5.6613 18.4195 3.7803Z" fill="#E83B68"/>
</svg>
