<svg width="24" height="25" viewBox="0 0 24 25" fill="none" xmlns="http://www.w3.org/2000/svg">
    <path fill-rule="evenodd" clip-rule="evenodd" d="M12 16.25C9.92889 16.25 8.24995 14.5711 8.24995 12.5C8.24995 10.4289 9.92889 8.75 12 8.75C14.0711 8.75 15.7499 10.4289 15.7499 12.5C15.7499 14.5711 14.0711 16.25 12 16.25ZM9.74995 12.5C9.74995 13.7426 10.7574 14.75 12 14.75C13.2425 14.75 14.2499 13.7426 14.2499 12.5C14.2499 11.2574 13.2425 10.25 12 10.25C10.7574 10.25 9.74995 11.2574 9.74995 12.5Z" fill="#7C878E"/>
    <path fill-rule="evenodd" clip-rule="evenodd" d="M11.9747 23.25C11.5303 23.25 11.1592 23.25 10.8546 23.2292C10.5375 23.2076 10.238 23.1609 9.94761 23.0407C9.27379 22.7616 8.73843 22.2262 8.45932 21.5524C8.31402 21.2016 8.27467 20.8319 8.25964 20.43C8.24756 20.107 8.08454 19.8375 7.84395 19.6986C7.60337 19.5597 7.28845 19.5533 7.00266 19.7043C6.64714 19.8922 6.30729 20.043 5.93083 20.0926C5.20773 20.1878 4.47642 19.9918 3.89779 19.5478C3.64843 19.3565 3.45827 19.1204 3.28099 18.8566C3.11068 18.6032 2.92517 18.2818 2.70294 17.8969L2.67769 17.8532C2.45545 17.4683 2.26993 17.147 2.13562 16.8728C1.99581 16.5873 1.88644 16.3046 1.84541 15.993C1.75021 15.2699 1.94617 14.5386 2.39016 13.9599C2.62128 13.6588 2.92173 13.4398 3.26217 13.2259C3.53595 13.0539 3.68788 12.7779 3.68786 12.5C3.68785 12.2222 3.53592 11.9462 3.26217 11.7742C2.92169 11.5603 2.62121 11.3413 2.39007 11.0401C1.94607 10.4615 1.75012 9.7302 1.84531 9.0071C1.88634 8.6955 1.99571 8.4127 2.13552 8.1273C2.26983 7.8531 2.45535 7.5318 2.67758 7.1469L2.70284 7.1031C2.92507 6.7182 3.11058 6.3969 3.28089 6.1435C3.45817 5.8797 3.64833 5.6436 3.89769 5.4523C4.47632 5.0083 5.20763 4.8123 5.93073 4.9075C6.30717 4.9571 6.647 5.1078 7.0025 5.2957C7.28833 5.4468 7.60329 5.4404 7.8439 5.3014C8.08452 5.1625 8.24756 4.893 8.25964 4.5699C8.27467 4.1681 8.31403 3.7984 8.45932 3.4476C8.73843 2.7738 9.27379 2.2384 9.94761 1.9593C10.238 1.839 10.5375 1.7924 10.8546 1.7708C11.1592 1.75 11.5303 1.75 11.9747 1.75H12.0252C12.4697 1.75 12.8407 1.75 13.1454 1.7708C13.4625 1.7924 13.762 1.839 14.0524 1.9593C14.7262 2.2384 15.2616 2.7738 15.5407 3.4476C15.686 3.7984 15.7253 4.1681 15.7403 4.57C15.7524 4.893 15.9154 5.1625 16.156 5.3015C16.3966 5.4404 16.7116 5.4468 16.9974 5.2958C17.3529 5.1079 17.6927 4.9571 18.0692 4.9076C18.7923 4.8124 19.5236 5.0083 20.1022 5.4523C20.3516 5.6437 20.5417 5.8797 20.719 6.1435C20.8893 6.3969 21.0748 6.7182 21.297 7.1031L21.3223 7.1469C21.5445 7.5318 21.7301 7.8532 21.8644 8.1274C22.0042 8.4128 22.1135 8.6955 22.1546 9.0071C22.2498 9.7303 22.0538 10.4616 21.6098 11.0402C21.3787 11.3414 21.0782 11.5603 20.7378 11.7742C20.464 11.9462 20.3121 12.2222 20.3121 12.5001C20.3121 12.7779 20.464 13.0538 20.7377 13.2258C21.0783 13.4397 21.3788 13.6586 21.6099 13.9599C22.0539 14.5385 22.2499 15.2698 22.1547 15.9929C22.1136 16.3045 22.0043 16.5873 21.8645 16.8727C21.7302 17.1469 21.5447 17.4682 21.3224 17.8531L21.2972 17.8968C21.0749 18.2817 20.8894 18.6031 20.7191 18.8565C20.5418 19.1203 20.3517 19.3564 20.1023 19.5477C19.5237 19.9917 18.7924 20.1877 18.0692 20.0925C17.6928 20.0429 17.353 19.8922 16.9975 19.7043C16.7117 19.5532 16.3967 19.5596 16.1561 19.6986C15.9155 19.8375 15.7524 20.107 15.7403 20.4301C15.7253 20.8319 15.686 21.2016 15.5407 21.5524C15.2616 22.2262 14.7262 22.7616 14.0524 23.0407C13.762 23.1609 13.4625 23.2076 13.1454 23.2292C12.8407 23.25 12.4697 23.25 12.0252 23.25H11.9747ZM10.5216 21.6548C10.5988 21.6868 10.716 21.7163 10.9567 21.7327C11.2042 21.7496 11.5238 21.75 12 21.75C12.4762 21.75 12.7958 21.7496 13.0432 21.7327C13.284 21.7163 13.4012 21.6868 13.4783 21.6548C13.7846 21.528 14.028 21.2846 14.1548 20.9783C14.1949 20.8817 14.228 20.7311 14.2414 20.374C14.271 19.5817 14.68 18.8187 15.4061 18.3995C16.1321 17.9803 16.9974 18.0076 17.6984 18.3781C18.0143 18.5451 18.1614 18.5917 18.265 18.6053C18.5937 18.6486 18.9261 18.5595 19.1891 18.3577C19.2554 18.3069 19.3395 18.2201 19.4741 18.0198C19.6125 17.814 19.7726 17.5374 20.0107 17.125C20.2488 16.7126 20.4083 16.4356 20.5174 16.2129C20.6235 15.9962 20.6566 15.8799 20.6675 15.7971C20.7108 15.4685 20.6217 15.136 20.4199 14.873C20.3562 14.7901 20.2424 14.686 19.9397 14.4959C19.2684 14.074 18.8122 13.3384 18.8121 12.5001C18.8121 11.6617 19.2683 10.926 19.9397 10.5041C20.2423 10.314 20.3561 10.21 20.4198 10.127C20.6216 9.864 20.7107 9.5316 20.6674 9.2029C20.6565 9.1201 20.6234 9.0039 20.5173 8.7872C20.4082 8.5645 20.2487 8.2875 20.0106 7.8751C19.7725 7.4627 19.6124 7.1861 19.474 6.9802C19.3394 6.78 19.2553 6.6932 19.189 6.6424C18.926 6.4405 18.5936 6.3515 18.2649 6.3947C18.1613 6.4084 18.0142 6.455 17.6983 6.6219C16.9973 6.9925 16.132 7.0197 15.4059 6.6005C14.68 6.1813 14.271 5.4184 14.2414 4.626C14.228 4.2689 14.1949 4.1183 14.1548 4.0216C14.028 3.7154 13.7846 3.472 13.4783 3.3451C13.4012 3.3132 13.284 3.2837 13.0432 3.2673C12.7958 3.2504 12.4762 3.25 12 3.25C11.5238 3.25 11.2042 3.2504 10.9567 3.2673C10.716 3.2837 10.5988 3.3132 10.5216 3.3451C10.2154 3.472 9.97201 3.7154 9.84514 4.0216C9.80512 4.1183 9.77195 4.2689 9.75859 4.626C9.72896 5.4183 9.31997 6.1813 8.5939 6.6005C7.86784 7.0197 7.00262 6.9924 6.30158 6.6219C5.98565 6.4549 5.83863 6.4083 5.73495 6.3947C5.40626 6.3514 5.07385 6.4405 4.81084 6.6423C4.74458 6.6931 4.66045 6.7799 4.52586 6.9802C4.38751 7.186 4.22736 7.4626 3.98926 7.875C3.75115 8.2874 3.59171 8.5644 3.4826 8.7871C3.37646 9.0038 3.34338 9.1201 3.33248 9.2029C3.28921 9.5316 3.37828 9.864 3.5801 10.127C3.64376 10.2099 3.75761 10.314 4.0602 10.5041C4.73158 10.9259 5.18782 11.6616 5.18786 12.4999C5.18791 13.3384 4.73165 14.0741 4.06021 14.496C3.75769 14.6861 3.64385 14.7901 3.58019 14.8731C3.37838 15.1361 3.28931 15.4685 3.33258 15.7972C3.34348 15.88 3.37656 15.9962 3.4827 16.2129C3.59181 16.4357 3.75125 16.7127 3.98935 17.1251C4.22746 17.5375 4.3876 17.814 4.52596 18.0199C4.66055 18.2202 4.74468 18.3069 4.81093 18.3578C5.07395 18.5596 5.40636 18.6487 5.73504 18.6054C5.83873 18.5918 5.98576 18.5452 6.30173 18.3782C7.00273 18.0076 7.86791 17.9804 8.59394 18.3995C9.31998 18.8187 9.72896 19.5816 9.75859 20.374C9.77195 20.7311 9.80512 20.8817 9.84514 20.9783C9.97201 21.2846 10.2154 21.528 10.5216 21.6548Z" fill="#7C878E"/>
</svg>
