<svg width="23" height="23" viewBox="0 0 23 23" fill="none" xmlns="http://www.w3.org/2000/svg">
<rect y="0.00012207" width="23" height="23" rx="11.5" fill="#0696D6"/>
<path fill-rule="evenodd" clip-rule="evenodd" d="M13.6833 8.33451C13.8783 8.50477 13.8984 8.80089 13.7281 8.9959L8.81741 14.6209C8.72839 14.7229 8.59965 14.7814 8.46429 14.7814C8.32894 14.7814 8.20019 14.7229 8.11118 14.6209L6.14689 12.3709C5.97663 12.1759 5.99671 11.8797 6.19173 11.7095C6.38675 11.5392 6.68287 11.5593 6.85313 11.7544L8.46429 13.5999L13.0219 8.37935C13.1921 8.18433 13.4883 8.16425 13.6833 8.33451Z" fill="white"/>
<path fill-rule="evenodd" clip-rule="evenodd" d="M16.8234 8.38729C17.0109 8.56583 17.0181 8.86254 16.8396 9.05001L11.4823 14.675C11.3876 14.7744 11.2541 14.8273 11.117 14.8197C10.9799 14.8122 10.8531 14.7449 10.7699 14.6357L10.5022 14.2841C10.3454 14.0782 10.3852 13.7841 10.5911 13.6272C10.7681 13.4925 11.0101 13.5029 11.1742 13.6391L16.1607 8.40344C16.3393 8.21598 16.6359 8.20874 16.8234 8.38729Z" fill="white"/>
</svg>
