<svg width="31" height="31" viewBox="0 0 31 31" fill="none" xmlns="http://www.w3.org/2000/svg">
<g id="doc" clip-path="url(#clip0_24713_142185)">
<path id="Vector" d="M8 0.5C6.96875 0.5 6.125 1.34375 6.125 2.375V28.625C6.125 29.6562 6.96875 30.5 8 30.5H26.75C27.7812 30.5 28.625 29.6562 28.625 28.625V8L21.125 0.5H8Z" fill="#E2E5E7"/>
<path id="Vector_2" d="M23 8H28.625L21.125 0.5V6.125C21.125 7.15625 21.9688 8 23 8Z" fill="#B0B7BD"/>
<path id="Vector_3" d="M28.625 13.625L23 8H28.625V13.625Z" fill="#CAD1D8"/>
<path id="Vector_4" d="M24.875 24.875C24.875 25.3906 24.4531 25.8125 23.9375 25.8125H3.3125C2.79688 25.8125 2.375 25.3906 2.375 24.875V15.5C2.375 14.9844 2.79688 14.5625 3.3125 14.5625H23.9375C24.4531 14.5625 24.875 14.9844 24.875 15.5V24.875Z" fill="#50BEE8"/>
<g id="Group">
<path id="Vector_5" d="M5.92448 22.9999C5.67698 22.9999 5.40698 22.864 5.40698 22.5349V18.2777C5.40698 18.0077 5.67698 17.8127 5.92448 17.8127H7.64104C11.0667 17.8127 10.9907 22.9999 7.70761 22.9999H5.92448ZM6.39698 18.7268V22.0849H7.64104C9.66511 22.0849 9.75417 18.7268 7.64104 18.7268H6.39698Z" fill="white"/>
<path id="Vector_6" d="M13.8595 23.0751C12.473 23.1351 11.033 22.2126 11.033 20.376C11.033 18.5319 12.472 17.6254 13.8595 17.6254C15.1711 17.6919 16.5426 18.5994 16.5426 20.376C16.5426 22.1535 15.1711 23.0751 13.8595 23.0751ZM13.777 18.6004C12.937 18.6004 12.023 19.1929 12.023 20.3769C12.023 21.5544 12.938 22.1544 13.777 22.1544C14.6395 22.1544 15.5611 21.5544 15.5611 20.3769C15.5611 19.1919 14.6395 18.6004 13.777 18.6004Z" fill="white"/>
<path id="Vector_7" d="M17.4246 20.3685C17.4246 18.9219 18.3321 17.6779 20.0561 17.6779C20.7086 17.6779 21.2261 17.8729 21.7727 18.3454C21.9752 18.5319 21.9977 18.8619 21.7952 19.0719C21.5927 19.251 21.2852 19.2294 21.1052 19.0494C20.7986 18.7269 20.4836 18.6379 20.0561 18.6379C18.9021 18.6379 18.348 19.4554 18.348 20.3694C18.348 21.2994 18.8946 22.1535 20.0561 22.1535C20.4836 22.1535 20.8811 21.98 21.2261 21.6735C21.4577 21.4935 21.7802 21.5825 21.9152 21.7635C22.0352 21.9285 22.0943 22.206 21.8327 22.4675C21.3077 22.956 20.6786 23.0535 20.0552 23.0535C18.2421 23.0535 17.4246 21.815 17.4246 20.3685Z" fill="white"/>
</g>
<path id="Vector_8" d="M23.9375 25.8125H6.125V26.75H23.9375C24.4531 26.75 24.875 26.3281 24.875 25.8125V24.875C24.875 25.3906 24.4531 25.8125 23.9375 25.8125Z" fill="#CAD1D8"/>
</g>
<defs>
<clipPath id="clip0_24713_142185">
<rect width="30" height="30" fill="white" transform="translate(0.5 0.5)"/>
</clipPath>
</defs>
</svg>
