<svg width="20" height="20" viewBox="0 0 20 20" fill="none" xmlns="http://www.w3.org/2000/svg">
<g clip-path="url(#clip0_19991_78531)">
<path d="M9.99998 3.29163C9.18456 3.29163 8.48923 3.81248 8.23154 4.54157C8.1165 4.86702 7.75943 5.0376 7.43398 4.92257C7.10853 4.80753 6.93795 4.45046 7.05299 4.12502C7.48168 2.91212 8.6384 2.04163 9.99998 2.04163C11.3616 2.04163 12.5183 2.91212 12.9471 4.12502C13.0621 4.45046 12.8915 4.80753 12.5661 4.92257C12.2406 5.0376 11.8835 4.86702 11.7685 4.54157C11.5108 3.81248 10.8154 3.29163 9.99998 3.29163Z" fill="#E83B68"/>
<path d="M2.29175 6C2.29175 5.65483 2.57157 5.375 2.91675 5.375H17.0835C17.4287 5.375 17.7085 5.65483 17.7085 6C17.7085 6.34517 17.4287 6.625 17.0835 6.625H2.91675C2.57157 6.625 2.29175 6.34517 2.29175 6Z" fill="#E83B68"/>
<path d="M4.9293 8.0417C4.90634 7.69729 4.60852 7.4367 4.26411 7.45966C3.9197 7.48262 3.65911 7.78043 3.68207 8.12485L4.06828 13.9179C4.13952 14.9869 4.19707 15.8504 4.33205 16.5279C4.47238 17.2324 4.71106 17.8208 5.20406 18.2819C5.69706 18.7432 6.30001 18.9422 7.01222 19.0354C7.69726 19.1249 8.56265 19.1249 9.63398 19.1249H10.3663C11.4376 19.1249 12.303 19.1249 12.9881 19.0354C13.7002 18.9422 14.3032 18.7432 14.7962 18.2819C15.2892 17.8208 15.5279 17.2324 15.6682 16.5279C15.8031 15.8504 15.8607 14.9869 15.932 13.9179L16.3182 8.12485C16.3411 7.78043 16.0806 7.48262 15.7361 7.45966C15.3917 7.4367 15.0939 7.69729 15.071 8.0417L14.6876 13.7909C14.6128 14.9142 14.5594 15.6957 14.4423 16.2837C14.3286 16.8541 14.1701 17.156 13.9422 17.3692C13.7144 17.5823 13.4026 17.7205 12.8259 17.7959C12.2314 17.8737 11.4481 17.8749 10.3224 17.8749H9.6779C8.55223 17.8749 7.76886 17.8737 7.17436 17.7959C6.59769 17.7205 6.28589 17.5823 6.05804 17.3692C5.8302 17.156 5.67159 16.8541 5.55796 16.2837C5.44082 15.6957 5.38746 14.9142 5.31259 13.7909L4.9293 8.0417Z" fill="#E83B68"/>
<path d="M7.85461 9.54477C8.19807 9.51044 8.50431 9.76102 8.53872 10.1045L8.95539 14.2712C8.98972 14.6146 8.73914 14.9209 8.39564 14.9553C8.05219 14.9896 7.74591 14.739 7.71156 14.3955L7.2949 10.2289C7.26055 9.88544 7.51114 9.57911 7.85461 9.54477Z" fill="#E83B68"/>
<path d="M12.7054 10.2289C12.7397 9.88544 12.4891 9.57911 12.1456 9.54477C11.8022 9.51044 11.4959 9.76102 11.4616 10.1045L11.0449 14.2712C11.0106 14.6146 11.2611 14.9209 11.6046 14.9553C11.9481 14.9896 12.2543 14.739 12.2887 14.3955L12.7054 10.2289Z" fill="#E83B68"/>
</g>
<defs>
<clipPath id="clip0_19991_78531">
<rect width="20" height="20" fill="white"/>
</clipPath>
</defs>
</svg>
