<svg width="15" height="15" viewBox="0 0 15 15" fill="none" xmlns="http://www.w3.org/2000/svg">
<path d="M11.7646 8.96656L11.3744 8.88347V7.88818H9.81375V8.88347L9.42358 8.96656L9.81375 11.4298L11.3744 11.4298L11.7646 8.96656Z" fill="#1B2746"/>
<path d="M9.81372 7.89453V8.40526L11.3744 8.88331V7.89453H9.81372Z" fill="#F6CCB8"/>
<path d="M14.564 13.1102C14.5326 12.909 14.4939 12.3528 14.4431 12.1538L13.4568 12.5924C13.4649 12.6422 13.4739 13.0522 13.4832 13.1102H14.564Z" fill="#F2C8B4"/>
<path d="M7.70494 13.1102C7.71433 13.0525 7.7233 12.6427 7.73156 12.5931L6.74521 12.1538C6.69409 12.3528 6.65536 12.909 6.62402 13.1102H7.70494Z" fill="#F2C8B4"/>
<path d="M7.83113 13.1103H13.3569L13.352 12.8502L14.6376 12.1348L14.2089 10.2202C14.1234 9.83822 13.8351 9.53405 13.4583 9.42818L11.5445 8.89062L10.5941 10.9585L9.64356 8.89062L7.72981 9.42818C7.35299 9.53401 7.06473 9.83817 6.97922 10.2202L6.55054 12.1348L7.83609 12.8502L7.83113 13.1103Z" fill="#0696D6"/>
<path d="M9.59441 8.14989C9.91193 8.14731 10.6865 8.21207 11.364 8.14989C11.8337 8.10675 12.3119 7.93273 12.5855 7.57828C14.3353 5.31158 11.9022 2.01892 9.39707 2.08849C7.53544 2.14019 7.06853 8.17038 9.59441 8.14989Z" fill="#F2DCB4"/>
<path d="M12.3819 5.24873V4.43718C12.3819 3.57522 11.384 2.48633 10.5942 2.48633C9.80432 2.48633 8.80649 3.57522 8.80649 4.43718V5.24873C8.58707 5.24873 8.40918 5.42345 8.40918 5.6389V6.04468C8.40918 6.26017 8.58707 6.43485 8.80649 6.43485C8.80649 7.29677 9.80432 8.41692 10.5942 8.41692C11.384 8.41692 12.3819 7.29681 12.3819 6.43485C12.6013 6.43485 12.7791 6.26013 12.7791 6.04468V5.6389C12.7791 5.42345 12.6013 5.24873 12.3819 5.24873Z" fill="#F6CCB8"/>
<path opacity="0.8" d="M10.5941 6.97329V8.41691C11.3839 8.41691 12.3818 7.29681 12.3818 6.43485C12.6012 6.43485 12.779 6.26013 12.779 6.04468V5.6389C12.779 5.42341 12.6012 5.24873 12.3818 5.24873V4.43718C12.3818 3.57522 11.3839 2.48633 10.5941 2.48633V5.64671C10.3043 6.25203 10.1968 6.89525 10.1968 6.89525L10.5941 6.97329Z" fill="#F6CCB8"/>
<path d="M9.73823 3.83243C9.42922 4.45904 8.92901 5.33461 8.54118 5.34629C8.01092 4.27831 8.53609 1.88405 10.4896 1.79216C13.3679 1.65675 13.2707 4.9391 13.0717 5.69052C10.6222 5.05381 9.93331 4.10555 9.73823 3.83243Z" fill="#F2DCB4"/>
<path d="M12.375 6.41178C12.3421 6.69821 12.2928 6.8857 12.2594 6.98881C12.0492 6.67785 11.9469 6.36438 11.9145 6.25196L12.2954 5.50604C12.3055 5.48864 12.2995 5.46636 12.282 5.4563C12.2647 5.44633 12.2423 5.45229 12.2323 5.46978L11.8554 6.20847H10.5933H9.33117L8.83514 5.24974C8.82512 5.2323 8.80275 5.22629 8.78544 5.23626C8.76795 5.24632 8.76194 5.26856 8.77196 5.286L9.27213 6.25191C9.23979 6.36438 9.13738 6.67785 8.92719 6.98877C8.89372 6.8857 8.84452 6.69817 8.81156 6.41174C8.79825 6.4132 8.78523 6.41579 8.7715 6.41579C8.76015 6.41579 8.74942 6.41345 8.73828 6.41245C8.79345 6.8998 8.89389 7.10962 8.89823 7.11838L8.90119 7.11696C9.16876 7.79014 9.90166 8.26674 10.5933 8.26674C11.285 8.26674 12.0178 7.79014 12.2855 7.11696L12.2884 7.11838C12.2927 7.10962 12.3932 6.8998 12.4483 6.41245C12.4372 6.41345 12.4265 6.41579 12.4151 6.41579C12.4014 6.41583 12.3884 6.41324 12.375 6.41178Z" fill="#EBEBEB"/>
<path d="M6.27197 8.52783H4.12549V9.39038H6.27197V8.52783Z" fill="#D9D9D9"/>
<path d="M6.42738 8.81951L6.13557 8.68497V7.75732H4.26275V8.68497L3.96973 8.81141L4.04776 11.4422H4.26275V11.8456H6.13557V11.4422H6.34935L6.42738 8.81951Z" fill="#F6CCB8"/>
<path d="M4.26221 7.75732V8.20884L6.13502 8.62421V7.75732H4.26221Z" fill="#F6CCB8"/>
<path d="M7.59792 13.3727C7.63356 11.9903 7.55711 9.25066 6.42591 8.82568L6.35631 9.08708C6.23592 9.43205 5.92716 9.9182 5.1941 9.9182C4.36711 9.9182 4.05159 9.27795 3.95369 8.96677L3.91614 8.82573C2.78498 9.25074 2.75159 11.9904 2.80935 13.3727H7.59792V13.3727Z" fill="white"/>
<path d="M10.0229 13.3729L9.59466 10.3916C9.51079 9.80792 9.07463 9.33692 8.49906 9.20857L6.2743 8.7124L5.29883 13.3729H10.0229Z" fill="#EBEBEB"/>
<path d="M5.09877 13.3728L4.12355 8.7124L1.89879 9.20852C1.32326 9.33688 0.887104 9.80788 0.803228 10.3916L0.375 13.3728H5.09877Z" fill="#EBEBEB"/>
<path d="M3.74403 10.1961L3.39625 10.6715L4.93323 13.3728H5.09827L4.1256 8.52832L3.2666 8.93364L3.29711 9.82848L3.74403 10.1961Z" fill="#D9D9D9"/>
<path d="M5.46411 13.3728L7.00117 10.6715L6.6534 10.1961L7.10028 9.82848L7.13083 8.93364L6.27183 8.52832L5.29907 13.3728H5.46411Z" fill="#D9D9D9"/>
<path d="M7.96623 11.9292H7.74799V11.7109H7.47512V11.9292H7.25684V12.2021H7.47512V12.4203H7.74799V12.2021H7.96623V11.9292Z" fill="#0696D6"/>
<path d="M8.3209 12.6196H6.9021V12.9034H8.3209V12.6196Z" fill="#0696D6"/>
<path d="M7.24193 5.11481L7.30532 4.29069C7.30532 3.21303 6.27527 2.33984 5.19844 2.33984C4.12078 2.33984 3.09152 3.21303 3.09152 4.29069L3.15487 5.11397C3.09461 5.12854 3.0402 5.15616 2.9948 5.1951C2.9105 5.26687 2.85742 5.37299 2.85742 5.49242V5.8982C2.85742 6.11273 3.03018 6.28678 3.24517 6.28811C3.24517 7.30573 4.46793 8.27039 5.19848 8.27039C5.929 8.27039 7.15175 7.30585 7.15175 6.28824C7.36595 6.2867 7.53917 6.11289 7.53917 5.89836V5.49258C7.53909 5.30931 7.41227 5.1567 7.24193 5.11481Z" fill="#F6CCB8"/>
<path opacity="0.8" d="M7.24181 5.11481L7.30519 4.29069C7.30519 3.21303 6.27514 2.33984 5.19832 2.33984C5.19819 2.33984 5.19807 2.33984 5.19798 2.33984V5.11005C4.91335 5.71538 4.72974 6.5927 4.72974 6.5927H5.19798V8.27043C5.19798 8.27043 5.19811 8.27043 5.19819 8.27043C5.19832 8.27043 5.19844 8.27043 5.19857 8.27043C5.92912 8.27022 7.15159 7.30577 7.15159 6.28828C7.36578 6.28674 7.539 6.11293 7.539 5.8984V5.49263C7.53896 5.30931 7.41215 5.15671 7.24181 5.11481Z" fill="#F6CCB8"/>
<path d="M7.61513 2.39686C7.60682 2.32993 7.54602 2.28236 7.47901 2.29012C7.0073 2.34487 6.97938 2.24313 6.15714 1.75903C5.41048 1.31945 4.6465 1.49471 4.13736 1.87312C2.11515 2.33986 2.86161 4.77377 3.10326 5.42992C3.11662 5.46627 3.17003 5.45751 3.17182 5.41882C3.19231 4.97703 3.30164 3.81904 3.88285 3.41084C5.0958 4.23792 6.33525 4.28291 7.04089 3.79104C7.23481 4.24347 7.24545 4.96602 7.23556 5.34404C7.23451 5.38523 7.29277 5.39491 7.30479 5.35548C7.42614 4.95809 7.62281 4.12713 7.43699 3.36786C7.59314 3.10351 7.66212 2.77631 7.61513 2.39686Z" fill="#4F3C30"/>
<path d="M3.78357 6.1123C3.74893 6.23274 3.63931 6.56841 3.41422 6.90132C3.37841 6.79095 3.32567 6.59015 3.29037 6.2834C3.27609 6.28498 3.26216 6.28774 3.24747 6.28774C3.23528 6.28774 3.22385 6.28519 3.21191 6.28415C3.27096 6.80601 3.3785 7.03069 3.38317 7.04007L3.38634 7.03857C3.6729 7.75941 4.45766 8.26976 5.19832 8.26976C5.93902 8.26976 6.72374 7.75945 7.01033 7.03857L7.01342 7.04007C7.01806 7.03064 7.12563 6.80601 7.18468 6.28415C7.17279 6.28519 7.16127 6.28774 7.14913 6.28774C7.1344 6.28774 7.12046 6.28498 7.10619 6.2834C7.07093 6.59015 7.01822 6.79091 6.98238 6.90132C6.75729 6.56837 6.64766 6.23269 6.61303 6.1123" fill="#EBEBEB"/>
<path d="M7.36234 4.7995H6.94412C6.81197 4.73023 6.62698 4.68604 6.36805 4.68604C5.93744 4.68604 5.64521 4.76858 5.49524 4.92969C5.4243 4.89068 5.31843 4.84632 5.19867 4.84632C5.07999 4.84632 4.975 4.88984 4.90402 4.92861C4.75371 4.7682 4.46185 4.68604 4.03225 4.68604C3.77331 4.68604 3.58833 4.73023 3.45613 4.7995H3.03491V5.10078L3.17316 5.14927C3.15901 5.20578 3.15326 5.26303 3.15326 5.31828C3.15326 5.69267 3.24439 6.19034 4.0322 6.19034C4.73585 6.19034 4.92046 5.7574 5.00821 5.33401C5.02152 5.26979 5.02299 5.20861 5.0141 5.15119C5.0484 5.12929 5.10503 5.11005 5.19863 5.11005C5.29464 5.11005 5.3519 5.13025 5.38591 5.15286C5.37731 5.20982 5.37881 5.27041 5.392 5.33401C5.47976 5.75744 5.66432 6.19034 6.36801 6.19034C7.15582 6.19034 7.24696 5.69267 7.24696 5.31828C7.24696 5.26274 7.24107 5.20515 7.22676 5.14831L7.3623 5.10078V4.7995H7.36234ZM4.85699 5.30259C4.76577 5.74267 4.59067 6.03577 4.03229 6.03577C3.39566 6.03577 3.30791 5.69092 3.30791 5.31828C3.30791 5.2001 3.30791 4.8406 4.03229 4.8406C4.53212 4.8406 4.72909 4.95373 4.80633 5.04862C4.86095 5.11572 4.87802 5.20114 4.85699 5.30259ZM6.36809 6.03577C5.80971 6.03577 5.63461 5.74267 5.54335 5.30259C5.52236 5.20119 5.53939 5.11572 5.59405 5.04866C5.67129 4.95377 5.86826 4.84064 6.36809 4.84064C7.09247 4.84064 7.09247 5.20014 7.09247 5.31832C7.09247 5.69092 7.00467 6.03577 6.36809 6.03577Z" fill="#42404D"/>
</svg>
