<svg width="9" height="9" viewBox="0 0 9 9" fill="none" xmlns="http://www.w3.org/2000/svg">
<path fill-rule="evenodd" clip-rule="evenodd" d="M4.47597 0.000122131C3.50968 0.000117945 2.75241 0.000113743 2.16155 0.0795523C1.55678 0.160862 1.07956 0.330539 0.704989 0.705111C0.330417 1.07968 0.16074 1.5569 0.0794304 2.16168C-8.19009e-06 2.75253 -3.98757e-06 3.5098 1.9848e-07 4.47609V4.52415C-3.98757e-06 4.95263 -3.97185e-06 5.34005 0.00691975 5.69005C0.00238626 5.71131 1.9848e-07 5.73333 1.9848e-07 5.75594C1.9848e-07 5.78356 0.00357508 5.8104 0.0102853 5.83593C0.0203318 6.21418 0.0401862 6.54668 0.0794304 6.83857C0.16074 7.44333 0.330417 7.92058 0.704989 8.29515C1.07956 8.66972 1.55678 8.83938 2.16155 8.92071C2.75241 9.00012 3.50968 9.00012 4.47597 9.00012H4.52403C5.49033 9.00012 6.24759 9.00012 6.83845 8.92071C7.44321 8.83938 7.92046 8.66972 8.29503 8.29515C8.6696 7.92058 8.83926 7.44333 8.92059 6.83857C8.95981 6.54668 8.97966 6.21418 8.9897 5.83593C8.99644 5.8104 9 5.78356 9 5.75594C9 5.73333 8.99761 5.71131 8.99309 5.69009C9 5.34005 9 4.95263 9 4.52415V4.47609C9 3.5098 9 2.75253 8.92059 2.16168C8.83926 1.5569 8.6696 1.07968 8.29503 0.705111C7.92046 0.330539 7.44321 0.160862 6.83845 0.0795523C6.24759 0.000113743 5.49033 0.000117945 4.52403 0.000122131H4.47597ZM8.36883 5.44198C8.37201 5.15892 8.37209 4.84648 8.37209 4.50012C8.37209 3.50459 8.37142 2.78952 8.29825 2.24534C8.22633 1.71019 8.08949 1.38757 7.85101 1.14911C7.61253 0.910646 7.28992 0.773808 6.75477 0.701858C6.21059 0.628695 5.49553 0.628029 4.5 0.628029C3.50446 0.628029 2.7894 0.628695 2.24522 0.701858C1.71007 0.773808 1.38744 0.910646 1.14899 1.14911C0.910524 1.38757 0.773686 1.71019 0.701736 2.24534C0.628573 2.78952 0.627907 3.50459 0.627907 4.50012C0.627907 4.84648 0.627987 5.15892 0.631177 5.44198H1.56977L1.61486 5.44194C1.83506 5.44161 2.03055 5.44127 2.20989 5.51813C2.38923 5.59498 2.52382 5.73676 2.67543 5.89646L2.7065 5.92915L3.18438 6.43094C3.2185 6.46677 3.24643 6.49607 3.27105 6.52102C3.29211 6.49297 3.31587 6.46024 3.34491 6.42014L4.8744 4.30903C4.93669 4.22296 5.0017 4.13313 5.06587 4.06699C5.13929 3.99127 5.25315 3.90185 5.41829 3.89428C5.58343 3.8867 5.70504 3.96527 5.78507 4.03392C5.85506 4.09395 5.92803 4.17738 5.99798 4.25737L6.75306 5.12033C6.95637 5.35274 6.99982 5.39242 7.04721 5.41394C7.09459 5.43541 7.15307 5.44198 7.46188 5.44198H8.36883ZM0.646439 6.06989C0.657285 6.32574 0.674481 6.55216 0.701736 6.75489C0.773686 7.29004 0.910524 7.61266 1.14899 7.85114C1.38744 8.08961 1.71007 8.22646 2.24522 8.29837C2.7894 8.37155 3.50446 8.37222 4.5 8.37222C5.49553 8.37222 6.21059 8.37155 6.75477 8.29837C7.28992 8.22646 7.61253 8.08961 7.85101 7.85114C8.08949 7.61266 8.22633 7.29004 8.29825 6.75489C8.3255 6.55216 8.34271 6.32574 8.35355 6.06989H7.46188L7.41412 6.06993C7.18154 6.07031 6.975 6.07068 6.78776 5.98571C6.60052 5.90077 6.46476 5.74509 6.31193 5.56978L6.28049 5.53382L5.53651 4.68355C5.50256 4.64471 5.47468 4.61289 5.45011 4.58577C5.42809 4.61507 5.40326 4.64927 5.373 4.69105L3.8438 6.80178C3.78393 6.88449 3.72102 6.97135 3.65874 7.03578C3.58707 7.10991 3.47701 7.19661 3.31712 7.20732C3.15723 7.21808 3.03657 7.14683 2.95563 7.08295C2.88528 7.02745 2.81135 6.94975 2.74098 6.87583L2.2518 6.3622C2.05048 6.15081 2.00798 6.11476 1.96254 6.09526C1.91711 6.07579 1.86168 6.06989 1.56977 6.06989H0.646439Z" fill="#0696D6"/>
</svg>
