<svg width="17" height="17" viewBox="0 0 17 17" fill="none" xmlns="http://www.w3.org/2000/svg">
<path d="M6.86977 0V1.23913H2.93091V15.7427L6.86977 15.7459V17L14.0615 15.7082L14.0689 1.30073L6.86977 0ZM8.0626 7.93091C8.30413 7.93091 8.49994 8.18572 8.49994 8.5C8.49994 8.81435 8.30416 9.06909 8.0626 9.06909C7.82103 9.06909 7.62525 8.81435 7.62525 8.5C7.62521 8.18572 7.82107 7.93091 8.0626 7.93091ZM4.10038 14.5742V2.40861H6.86977V14.5764L4.10038 14.5742Z" fill="#0696D6"/>
<path d="M11.9001 4.7548H10.8351V6.3748H10.4101V4.7548H9.3501V4.1773H10.4101V2.5498H10.8351V4.1773H11.9001V4.7548Z" fill="white"/>
</svg>
