<svg width="10" height="11" viewBox="0 0 10 11" fill="none" xmlns="http://www.w3.org/2000/svg">
<path fill-rule="evenodd" clip-rule="evenodd" d="M5.0949 0.75L7.75902 6.23332L7.76023 6.23592C7.93305 6.60959 8.07453 7.2211 7.95662 7.87805C7.83638 8.548 7.44832 9.24986 6.58923 9.77743C5.50697 10.4421 4.49118 10.3177 3.71771 9.94218C2.96479 9.57666 2.42436 8.96662 2.24202 8.60268C1.88757 7.89525 1.91183 6.89468 2.38532 5.79217C2.75529 4.93069 4.16277 2.39573 4.81198 1.24952L5.0949 0.75ZM5.05472 2.04658C4.34402 3.3142 3.24827 5.3104 2.93956 6.02921C2.50855 7.03282 2.53281 7.8375 2.78136 8.33357C2.90051 8.57138 3.33997 9.08962 3.9815 9.40107C4.60248 9.70254 5.3957 9.80382 6.2732 9.26495C6.98192 8.82972 7.27225 8.27794 7.36306 7.77196C7.45592 7.25454 7.34208 6.7692 7.21387 6.49058L5.05472 2.04658Z" fill="#0696D6"/>
</svg>
