<svg width="37" height="37" viewBox="0 0 37 37" fill="none" xmlns="http://www.w3.org/2000/svg">
<path fill-rule="evenodd" clip-rule="evenodd" d="M24.4835 27.1576C21.8645 27.1002 20.6241 28.6763 19.75 30.7027C19.5897 31.0747 19.1619 31.3712 19.0903 31.7433C18.9759 32.3344 18.8544 33.0671 19.129 33.5309C19.306 33.8302 20.4079 34.0151 20.6968 33.7902C21.131 33.4532 21.5023 32.6588 21.3977 32.1522C21.0156 30.3052 22.4125 28.5722 24.3736 28.671C25.3879 28.7221 26.2509 29.0755 26.4969 30.0595C26.7543 31.0883 27.1218 32.2164 26.1322 33.1141C25.4839 33.7019 25.0418 34.3763 25.7278 35.0504C26.093 35.4093 26.9451 35.6425 27.435 35.4984C28.3186 35.238 28.342 34.4689 28.1955 33.6177C28.0501 32.7733 28.3587 31.8564 28.2008 31.0166C28.0289 30.1045 27.7972 28.9817 27.1428 28.4248C26.2042 27.6262 26.024 26.8592 26.2108 25.8222C26.2689 25.501 26.2198 25.1622 26.2198 24.8246C30.0282 25.2894 32.7103 27.6116 33.4125 31.121C33.6829 32.4724 33.8299 33.8546 33.9093 35.2295C33.9839 36.5256 33.5017 36.9661 32.1225 36.9824C29.6031 37.0119 27.0828 36.996 24.5628 36.9965C18.0638 36.9978 11.5645 36.9995 5.06526 36.9965C3.33476 36.9955 2.94014 36.5936 3.12484 34.9664C3.28062 33.5933 3.47355 32.2234 3.6747 30.8551C3.97988 28.7787 4.96203 27.1269 7.04415 26.2098C8.34661 25.6363 9.66339 25.0915 11.0014 24.522C11.1673 26.1849 11.3464 27.6312 11.4318 29.0825C11.4539 29.4548 11.2294 29.8668 11.0351 30.2195C10.3417 31.4771 10.679 32.7476 11.9026 33.3483C13.0774 33.925 14.4149 33.4841 15.0298 32.3173C15.6194 31.1984 15.1213 30.0935 13.8579 29.3919C13.4426 29.1613 13.0135 28.6703 12.9275 28.2381C12.5491 26.3391 12.1985 24.4468 14.131 22.9406C14.9215 22.3246 14.7562 19.8687 14.2695 18.8666C13.7082 17.71 13.3394 16.4707 12.8545 15.2789C12.6722 14.831 12.4655 14.3664 12.1553 13.9954C11.1946 12.8466 11.0816 11.589 11.8034 10.3587C11.9629 10.0868 11.9021 9.6411 11.8145 9.30555C10.5787 4.56743 13.752 1.05579 18.8443 1.59709C20.1544 1.73643 21.5381 1.84635 22.7118 2.34363C23.6165 2.72672 24.4657 3.58646 24.933 4.43538C25.3735 5.23601 25.2913 6.29798 25.424 7.24726C25.6065 8.5507 24.8937 9.83453 25.6079 11.2154C25.9229 11.8244 25.3696 12.8839 25.0975 13.7051C24.8311 14.5098 24.4089 15.2674 24.0788 16.0547C23.7877 16.7481 23.6194 17.5015 23.2405 18.1457C21.8284 20.5453 21.956 21.7916 23.8816 23.7883C24.8109 24.7529 24.8009 25.8944 24.4835 27.1576Z" fill="#0696D6"/>
</svg>
