<svg width="27" height="36" viewBox="0 0 27 36" fill="none" xmlns="http://www.w3.org/2000/svg">
<path d="M0.0113571 15.959C0.0125403 18.6582 0.0220843 21.3574 0.0279215 24.0567L0.0190086 24.5398C0.0171943 27.6151 0.0412533 30.6907 0.000156075 33.7654C-0.0153047 34.9209 1.12082 36.0563 2.10195 35.998C2.94054 35.9481 3.78386 35.9892 4.62513 35.9891C9.30453 35.9888 13.984 35.9876 18.6634 35.9894H24.0708C25.0436 36.0306 26.9893 35.9894 26.9893 32.9152V26.0136L26.9914 22.7441C26.9919 18.792 26.9929 14.8401 26.9902 10.8881C26.9901 10.7504 27.0575 10.5643 26.8401 10.5178C24.1845 10.5177 21.529 10.5181 18.8735 10.5172C17.6506 10.5168 16.7328 9.54659 16.7337 8.26324C16.7356 5.56334 16.7354 2.86337 16.736 0.163474C11.9648 0.162472 7.19358 0.155707 2.42252 0.176334C2.163 0.177503 2.00035 -0.0426239 1.74848 0.00756439C0.758758 0.204643 0.014591 1.14419 0.0140388 2.22512C0.0115146 6.80302 0.00930618 11.3811 0.0113571 15.959Z" fill="#F2F2F2"/>
<path fill-rule="evenodd" clip-rule="evenodd" d="M26.8402 10.5178C24.1847 10.5178 21.5291 10.5182 18.8737 10.5173C17.6507 10.5168 16.7329 9.54665 16.7338 8.2633C16.7357 5.5634 16.7354 2.86343 16.7361 0.163533C17.2223 0.0755154 17.4263 0.510508 17.6874 0.783829C18.9748 2.13223 20.2557 3.48773 21.5453 4.83404C22.6637 6.00157 23.7627 7.19364 24.8563 8.38923C25.5114 9.10539 26.2392 9.74548 26.8402 10.5178Z" fill="#DDDDDD"/>
<path fill-rule="evenodd" clip-rule="evenodd" d="M13.4233 10.1839C13.4233 10.3684 13.2821 10.518 13.1078 10.518H4.50888C4.33464 10.518 4.19336 10.3684 4.19336 10.1839V8.76079C4.19336 8.57632 4.33464 8.42676 4.50888 8.42676H13.1078C13.2821 8.42676 13.4233 8.57632 13.4233 8.76079V10.1839Z" fill="#DDDDDD"/>
<path fill-rule="evenodd" clip-rule="evenodd" d="M22.5028 17.7496C22.5028 17.9341 22.3616 18.0836 22.1873 18.0836H4.50888C4.33464 18.0836 4.19336 17.9341 4.19336 17.7496V16.3265C4.19336 16.142 4.33464 15.9924 4.50888 15.9924H22.1873C22.3616 15.9924 22.5028 16.142 22.5028 16.3265V17.7496Z" fill="#DDDDDD"/>
<path fill-rule="evenodd" clip-rule="evenodd" d="M22.5028 22.7111C22.5028 22.8956 22.3616 23.0451 22.1873 23.0451H4.50888C4.33464 23.0451 4.19336 22.8956 4.19336 22.7111V21.288C4.19336 21.1035 4.33464 20.954 4.50888 20.954H22.1873C22.3616 20.954 22.5028 21.1035 22.5028 21.288V22.7111Z" fill="#DDDDDD"/>
<path fill-rule="evenodd" clip-rule="evenodd" d="M15.9877 27.9555C15.9877 28.14 15.8464 28.2895 15.6722 28.2895H4.50888C4.33464 28.2895 4.19336 28.14 4.19336 27.9555V26.5324C4.19336 26.3479 4.33464 26.1984 4.50888 26.1984H15.6722C15.8464 26.1984 15.9877 26.3479 15.9877 26.5324V27.9555Z" fill="#DDDDDD"/>
</svg>
