<svg width="14" height="14" viewBox="0 0 14 14" fill="none" xmlns="http://www.w3.org/2000/svg">
<path d="M4.98085 6.48828H4.46931V7.51135H4.98085H9.07314H9.58468V6.48828H9.07314H4.98085Z" fill="#0696D6"/>
<path d="M4.98085 8.5332H4.46931V9.55628H4.98085H6.51546H7.02699V8.5332H6.51546H4.98085Z" fill="#0696D6"/>
<path d="M9.28277 0.349609H1.4V12.1149C1.4 12.5219 1.56168 12.9123 1.84948 13.2001C2.13727 13.4879 2.52761 13.6495 2.93461 13.6495H11.1192C11.5262 13.6495 11.9165 13.4879 12.2043 13.2001C12.4921 12.9123 12.6538 12.5219 12.6538 12.1149V3.72063L9.28277 0.349609ZM9.07304 1.58241L11.421 3.93036H9.58458C9.44891 3.93036 9.3188 3.87647 9.22287 3.78054C9.12694 3.6846 9.07304 3.55449 9.07304 3.41883V1.58241ZM11.1192 12.6265H2.93461C2.79894 12.6265 2.66883 12.5726 2.5729 12.4766C2.47697 12.3807 2.42307 12.2506 2.42307 12.1149V1.37268H8.04997V3.41883C8.04997 3.82583 8.21165 4.21616 8.49945 4.50396C8.78724 4.79175 9.17758 4.95343 9.58458 4.95343H11.6307V12.1149C11.6307 12.2506 11.5768 12.3807 11.4809 12.4766C11.385 12.5726 11.2549 12.6265 11.1192 12.6265Z" fill="#7C878E"/>
</svg>
