<svg width="16" height="17" viewBox="0 0 16 17" fill="none" xmlns="http://www.w3.org/2000/svg">
<path d="M14.1381 3.74345C14.7155 4.32086 14.725 5.25406 14.1594 5.84305L8.74248 11.4841C8.46719 11.7708 8.08938 11.9365 7.69201 11.9449L5.41668 11.9926L5.46474 9.70205C5.47289 9.31372 5.63135 8.94368 5.90679 8.66982L11.4438 3.16443C12.0301 2.5815 12.9775 2.58286 13.5621 3.16746L14.1381 3.74345Z" fill="#A1A5B7"/>
<path opacity="0.3" d="M8.59992 2.08984C8.96811 2.08984 9.26659 2.38832 9.26659 2.75651C9.26659 3.1247 8.96811 3.42318 8.59992 3.42318H3.99992C3.26354 3.42318 2.66659 4.02013 2.66659 4.75651V12.7565C2.66659 13.4929 3.26354 14.0898 3.99992 14.0898H11.9999C12.7363 14.0898 13.3333 13.4929 13.3333 12.7565V9.42318C13.3333 9.05499 13.6317 8.75651 13.9999 8.75651C14.3681 8.75651 14.6666 9.05499 14.6666 9.42318V12.7565C14.6666 14.2293 13.4727 15.4232 11.9999 15.4232H3.99992C2.52716 15.4232 1.33325 14.2293 1.33325 12.7565V4.75651C1.33325 3.28375 2.52716 2.08984 3.99992 2.08984H8.59992Z" fill="#A1A5B7"/>
</svg>
