<svg width="17" height="17" viewBox="0 0 17 17" fill="none" xmlns="http://www.w3.org/2000/svg">
<path fill-rule="evenodd" clip-rule="evenodd" d="M3.73335 7.35654C3.73335 5.4135 3.73335 3.50183 3.73335 1.57445C3.34817 1.57445 2.96797 1.57445 2.56121 1.57445C2.56121 1.64697 2.56121 1.7167 2.56121 1.78648C2.56124 2.87513 2.56124 3.96378 2.56128 5.05243C2.56128 5.10654 2.56157 5.16068 2.56132 5.21483C2.56016 5.45862 2.45389 5.60351 2.27883 5.60004C2.10932 5.59669 2.00703 5.45642 2.00623 5.22345C2.0054 4.96486 2.00598 4.7062 2.00598 4.44757C2.00598 3.55142 2.00573 2.65523 2.0062 1.75904C2.00641 1.29593 2.2967 1.00453 2.75761 1.00374C3.03428 1.00327 3.31103 1.00042 3.58759 1.00529C3.68899 1.00709 3.74281 0.98338 3.78724 0.877222C3.91256 0.577771 4.14495 0.424869 4.47793 0.425049C7.64163 0.426565 10.8053 0.425879 13.969 0.426132C14.3883 0.426168 14.689 0.730312 14.6891 1.1566C14.6897 3.14747 14.6912 5.13834 14.686 7.12917C14.6856 7.29272 14.7094 7.3769 14.892 7.43129C15.4643 7.60174 15.8438 8.13968 15.8441 8.73558C15.845 10.8046 15.8455 12.8736 15.8441 14.9425C15.8436 15.8369 15.1077 16.5741 14.2139 16.5743C10.3044 16.5753 6.39484 16.5754 2.48533 16.5741C1.58824 16.5738 0.852429 15.8411 0.85149 14.9465C0.849361 12.8714 0.849505 10.7964 0.851743 8.72133C0.852537 7.97432 1.4727 7.36011 2.22223 7.35687C2.65527 7.35499 3.08835 7.35647 3.52139 7.35647C3.58615 7.35654 3.6508 7.35654 3.73335 7.35654ZM8.33099 16.0194C10.3157 16.0194 12.3003 16.0204 14.285 16.0188C14.8576 16.0183 15.2863 15.6126 15.2873 15.0578C15.2912 12.9168 15.2905 10.7757 15.2879 8.6347C15.2874 8.21685 14.9873 7.92021 14.5716 7.91271C14.3491 7.9087 14.1265 7.90823 13.904 7.91271C13.7176 7.91646 13.6012 7.84272 13.5428 7.65754C13.3949 7.18844 13.2333 6.72364 13.0834 6.25511C12.9538 5.85001 12.6367 5.60333 12.2125 5.60268C10.8112 5.60048 9.40989 5.6003 8.00862 5.60271C7.58391 5.60347 7.26952 5.85127 7.14654 6.26222C7.01417 6.70461 6.87936 7.14628 6.74374 7.5877C6.65683 7.87062 6.59702 7.9118 6.28944 7.9118C4.93628 7.91177 3.58312 7.91137 2.22996 7.91177C1.68043 7.91195 1.40643 8.18299 1.40632 8.72732C1.40592 10.8022 1.40585 12.8771 1.40654 14.9519C1.40675 15.631 1.80027 16.0193 2.48523 16.0194C4.43386 16.0195 6.38242 16.0194 8.33099 16.0194ZM14.1233 0.992909C10.84 0.992909 7.57759 0.992909 4.30716 0.992909C4.30716 3.11679 4.30716 5.22894 4.30716 7.34838C4.37322 7.35149 4.42632 7.35625 4.47941 7.35618C5.03262 7.35528 5.5859 7.35683 6.13892 7.3464C6.18621 7.34549 6.25652 7.27204 6.27443 7.2184C6.38459 6.88809 6.48728 6.55507 6.58406 6.22049C6.79522 5.49035 7.38304 5.04323 8.14275 5.04294C9.45368 5.04247 10.7648 5.05651 12.0754 5.03684C12.7479 5.02677 13.4473 5.48284 13.646 6.20692C13.7396 6.54814 13.8629 6.88137 13.9779 7.21642C13.9959 7.26872 14.0416 7.31149 14.0746 7.35867C14.0908 7.34947 14.107 7.3403 14.1233 7.33109C14.1233 5.22306 14.1233 3.11499 14.1233 0.992909Z" fill="#0696D6"/>
<path fill-rule="evenodd" clip-rule="evenodd" d="M10.6937 11.4524C10.9977 11.0974 11.3017 10.7425 11.6056 10.3875C11.6525 10.3327 11.6968 10.2755 11.7466 10.2235C11.8572 10.1079 12.0263 10.0907 12.1349 10.181C12.2599 10.2848 12.2704 10.436 12.1558 10.5804C12.0661 10.6932 11.9691 10.8003 11.8758 10.9102C11.4518 11.4096 11.0281 11.9092 10.6038 12.4084C10.4669 12.5695 10.3013 12.5802 10.1529 12.4317C9.59623 11.8748 9.04075 11.3167 8.4865 10.7573C8.33096 10.6004 8.31992 10.4577 8.44441 10.3319C8.56887 10.2061 8.71394 10.216 8.86973 10.3702C9.22004 10.717 9.56714 11.067 9.91618 11.4151C9.96091 11.4597 10.0095 11.5005 10.0911 11.5749C10.0911 11.4678 10.0911 11.4047 10.0911 11.3416C10.0911 10.3497 10.0912 9.35786 10.0913 8.36598C10.0913 8.3179 10.0884 8.26953 10.0925 8.22178C10.1064 8.05938 10.2222 7.93875 10.3642 7.93561C10.5122 7.93233 10.633 8.05797 10.6455 8.23022C10.6485 8.2721 10.6463 8.31436 10.6463 8.35645C10.6464 9.31826 10.6464 10.2801 10.6464 11.2419C10.6464 11.3063 10.6464 11.3707 10.6464 11.4351C10.6621 11.4408 10.6779 11.4466 10.6937 11.4524Z" fill="#0696D6"/>
<path fill-rule="evenodd" clip-rule="evenodd" d="M10.3687 14.287C11.0963 14.2871 11.824 14.2869 12.5516 14.2872C12.8132 14.2872 12.9587 14.3891 12.9553 14.5686C12.9518 14.7467 12.809 14.8416 12.5433 14.8422C12.5132 14.8423 12.4832 14.8423 12.4531 14.8423C11.6834 14.8423 10.9137 14.8423 10.1439 14.8423C9.50043 14.8423 8.85698 14.8422 8.2135 14.8422C8.17138 14.8422 8.12918 14.8441 8.08724 14.8417C7.91271 14.8318 7.78645 14.7181 7.78291 14.5693C7.77923 14.4153 7.91102 14.2904 8.09558 14.2884C8.48642 14.2843 8.87734 14.287 9.26819 14.2869C9.63503 14.2869 10.0019 14.2869 10.3687 14.287Z" fill="#0696D6"/>
<path fill-rule="evenodd" clip-rule="evenodd" d="M9.19602 3.29145C8.08964 3.29145 6.98327 3.29149 5.87693 3.29142C5.83484 3.29142 5.79239 3.29412 5.75074 3.28976C5.59156 3.27312 5.47056 3.14996 5.47287 3.00983C5.47518 2.86769 5.59574 2.74716 5.75817 2.73799C5.90205 2.72987 6.04665 2.73283 6.19096 2.7328C8.30752 2.73254 10.4241 2.73262 12.5407 2.73262C12.5647 2.73262 12.5887 2.73229 12.6128 2.7328C12.8262 2.73695 12.9614 2.8482 12.9587 3.01727C12.9561 3.18526 12.8212 3.29405 12.6054 3.29427C11.4689 3.29528 10.3325 3.29477 9.19605 3.29477C9.19602 3.29365 9.19602 3.29257 9.19602 3.29145Z" fill="#0696D6" stroke="#0696D6" stroke-width="0.5"/>
</svg>
