<svg width="20" height="21" viewBox="0 0 20 21" fill="none" xmlns="http://www.w3.org/2000/svg">
<path fill-rule="evenodd" clip-rule="evenodd" d="M10.2084 3.22863C9.82469 3.16343 9.30169 3.15849 8.35819 3.15849C6.76095 3.15849 5.62565 3.15981 4.7649 3.27501C3.92165 3.38787 3.43713 3.59956 3.08494 3.95174C2.73226 4.30442 2.52087 4.78746 2.40815 5.62587C2.29301 6.48225 2.29169 7.61114 2.29169 9.2002V12.5335C2.29169 14.1225 2.29301 15.2514 2.40815 16.1078C2.52087 16.9462 2.73226 17.4292 3.08494 17.7819C3.43761 18.1346 3.92065 18.346 4.75906 18.4587C5.61545 18.5739 6.74434 18.5752 8.33335 18.5752H11.6667C13.2557 18.5752 14.3846 18.5739 15.241 18.4587C16.0794 18.346 16.5624 18.1346 16.9151 17.7819C17.2678 17.4292 17.4792 16.9462 17.5919 16.1078C17.707 15.2514 17.7084 14.1225 17.7084 12.5335V12.1692C17.7084 10.8892 17.6994 10.2825 17.5635 9.8252H14.9553C14.0113 9.8252 13.2398 9.8252 12.6308 9.74328C11.9941 9.6577 11.4422 9.47245 11.0016 9.03191C10.561 8.59133 10.3758 8.03938 10.2902 7.40276C10.2084 6.7937 10.2084 6.02226 10.2084 5.07823V3.22863ZM11.4584 3.8747V5.03349C11.4584 6.03325 11.4597 6.7202 11.529 7.23619C11.596 7.73421 11.7159 7.97841 11.8855 8.14803C12.0551 8.31764 12.2993 8.4375 12.7974 8.50446C13.3134 8.57383 14.0003 8.57516 15 8.57516H16.6829C16.4359 8.33553 16.1194 8.04843 15.7084 7.67851L12.4094 4.70943C12.0049 4.34539 11.7039 4.07668 11.4584 3.8747ZM8.4796 1.90847C9.63344 1.90816 10.3789 1.90797 11.0649 2.17124C11.751 2.43453 12.3027 2.93124 13.1561 3.69974C13.1855 3.72628 13.2154 3.75313 13.2456 3.78031L16.5445 6.74938C16.5797 6.78099 16.6144 6.8122 16.6486 6.84303C17.635 7.73023 18.2729 8.30393 18.6159 9.0743C18.959 9.84462 18.9588 10.7025 18.9584 12.0292C18.9584 12.0753 18.9584 12.122 18.9584 12.1692V12.5805C18.9584 14.112 18.9584 15.325 18.8308 16.2744C18.6994 17.2514 18.4226 18.0421 17.799 18.6658C17.1754 19.2895 16.3845 19.5662 15.4075 19.6975C14.4582 19.8252 13.2452 19.8252 11.7137 19.8252H8.28635C6.75488 19.8252 5.54185 19.8252 4.5925 19.6975C3.61549 19.5662 2.8247 19.2895 2.20105 18.6658C1.57742 18.0421 1.30065 17.2514 1.1693 16.2744C1.04166 15.325 1.04167 14.112 1.04169 12.5805V9.15314C1.04167 7.62168 1.04166 6.40865 1.1693 5.45931C1.30065 4.48229 1.57742 3.6915 2.20105 3.06786C2.82518 2.44374 3.61862 2.16728 4.59908 2.03606C5.55238 1.90847 6.77144 1.90848 8.31129 1.90849H8.35819C8.3991 1.90849 8.4396 1.90848 8.4796 1.90847Z" fill="white"/>
<path fill-rule="evenodd" clip-rule="evenodd" d="M6.74487 11.8567C7.07164 11.8566 7.33654 12.1215 7.33654 12.4483L7.33652 13.5302L8.41836 13.5301C8.74513 13.5301 9.01003 13.795 9.01003 14.1218C9.01002 14.4486 8.74511 14.7135 8.41834 14.7135L7.3365 14.7135L7.33654 15.7953C7.33653 16.1221 7.07162 16.387 6.74485 16.387C6.41808 16.387 6.15317 16.1221 6.15318 15.7953L6.1532 14.7135L5.07136 14.7135C4.74459 14.7135 4.47968 14.4486 4.47969 14.1218C4.4797 13.7951 4.74461 13.5301 5.07138 13.5301L6.15316 13.5302L6.15318 12.4483C6.15318 12.1216 6.4181 11.8567 6.74487 11.8567Z" fill="white"/>
</svg>
