<svg width="24" height="25" viewBox="0 0 24 25" fill="none" xmlns="http://www.w3.org/2000/svg">
<path d="M12 3.75C11.5858 3.75 11.25 4.08579 11.25 4.5C11.25 4.91421 11.5858 5.25 12 5.25C16.004 5.25 19.25 8.49594 19.25 12.5C19.25 16.5041 16.004 19.75 12 19.75C11.5858 19.75 11.25 20.0858 11.25 20.5C11.25 20.9142 11.5858 21.25 12 21.25C16.8325 21.25 20.75 17.3325 20.75 12.5C20.75 7.66751 16.8325 3.75 12 3.75Z" fill="#7C878E"/>
<path d="M7.53027 10.0303C7.82317 9.73744 7.82317 9.26256 7.53027 8.96967C7.23737 8.67678 6.76257 8.67678 6.46967 8.96967L3.46967 11.9697C3.17677 12.2626 3.17678 12.7374 3.46968 13.0303L6.46968 16.0303C6.76258 16.3232 7.23738 16.3232 7.53028 16.0303C7.82317 15.7374 7.82317 15.2626 7.53027 14.9697L5.81067 13.25L14 13.25C14.4142 13.25 14.75 12.9142 14.75 12.5C14.75 12.0858 14.4142 11.75 14 11.75L5.81067 11.75L7.53027 10.0303Z" fill="#7C878E"/>
</svg>
