<svg width="28" height="28" viewBox="0 0 28 28" fill="none" xmlns="http://www.w3.org/2000/svg">
    <g clip-path="url(#clip0_21038_444957)">
        <path d="M14 8.6333C13.3477 8.6333 12.7914 9.04999 12.5853 9.63325C12.4932 9.89361 12.2076 10.0301 11.9472 9.93805C11.6869 9.84603 11.5504 9.56037 11.6424 9.30001C11.9854 8.32969 12.9108 7.6333 14 7.6333C15.0894 7.6333 16.0147 8.32969 16.3577 9.30001C16.4497 9.56037 16.3132 9.84603 16.0529 9.93805C15.7925 10.0301 15.5068 9.89361 15.4148 9.63325C15.2087 9.04999 14.6524 8.6333 14 8.6333Z"
              fill="white"/>
        <path d="M7.83331 10.8C7.83331 10.5239 8.05717 10.3 8.33331 10.3H19.6667C19.9428 10.3 20.1667 10.5239 20.1667 10.8C20.1667 11.0762 19.9428 11.3 19.6667 11.3H8.33331C8.05717 11.3 7.83331 11.0762 7.83331 10.8Z"
              fill="white"/>
        <path d="M9.94337 12.4336C9.925 12.158 9.68674 11.9496 9.41122 11.9679C9.13569 11.9863 8.92721 12.2245 8.94558 12.5001L9.25455 17.1345C9.31154 17.9897 9.35759 18.6805 9.46557 19.2225C9.57783 19.7861 9.76878 20.2568 10.1632 20.6257C10.5576 20.9947 11.0399 21.1539 11.6097 21.2285C12.1577 21.3001 12.85 21.3001 13.7071 21.3001H14.293C15.15 21.3001 15.8423 21.3001 16.3904 21.2285C16.9601 21.1539 17.4425 20.9947 17.8369 20.6257C18.2313 20.2568 18.4222 19.7861 18.5345 19.2225C18.6424 18.6805 18.6885 17.9897 18.7455 17.1345L19.0545 12.5001C19.0728 12.2245 18.8644 11.9863 18.5888 11.9679C18.3133 11.9496 18.075 12.158 18.0567 12.4336L17.75 17.0329C17.6902 17.9315 17.6474 18.5567 17.5538 19.0271C17.4628 19.4835 17.336 19.725 17.1537 19.8955C16.9714 20.066 16.722 20.1766 16.2606 20.2369C15.785 20.2991 15.1584 20.3001 14.2578 20.3001H13.7422C12.8417 20.3001 12.215 20.2991 11.7394 20.2369C11.2781 20.1766 11.0286 20.066 10.8464 19.8955C10.6641 19.725 10.5372 19.4835 10.4463 19.0271C10.3526 18.5567 10.3099 17.9315 10.25 17.0329L9.94337 12.4336Z"
              fill="white"/>
        <path d="M12.2837 13.6358C12.5584 13.6084 12.8034 13.8088 12.831 14.0836L13.1643 17.417C13.1918 17.6917 12.9913 17.9368 12.7165 17.9642C12.4417 17.9917 12.1967 17.7912 12.1692 17.5164L11.8359 14.1831C11.8084 13.9084 12.0089 13.6633 12.2837 13.6358Z"
              fill="white"/>
        <path d="M16.1643 14.1831C16.1918 13.9084 15.9913 13.6633 15.7165 13.6358C15.4418 13.6084 15.1967 13.8088 15.1692 14.0836L14.8359 17.417C14.8084 17.6917 15.0089 17.9368 15.2837 17.9642C15.5584 17.9917 15.8034 17.7912 15.831 17.5164L16.1643 14.1831Z"
              fill="white"/>
    </g>
    <defs>
        <clipPath id="clip0_21038_444957">
            <rect width="16" height="16" fill="white" transform="translate(6 6)"/>
        </clipPath>
    </defs>
</svg>
