<svg width="40" height="40" viewBox="0 0 40 40" fill="none" xmlns="http://www.w3.org/2000/svg">
<path fill-rule="evenodd" clip-rule="evenodd" d="M4.02772 23.5604C4.02193 21.029 4.01245 18.4977 4.01128 15.9663C4.00924 11.6731 4.01143 7.3798 4.01394 3.08661C4.01449 2.07291 4.7533 1.1918 5.73591 1.00698C5.98597 0.959913 6.14745 1.16635 6.40511 1.16525C11.1419 1.14591 15.8788 1.15225 20.6157 1.15319C20.6151 3.68517 20.6153 6.21723 20.6133 8.7492C20.6125 9.95274 21.5237 10.8626 22.7379 10.863C25.3742 10.8638 28.0107 10.8635 30.6471 10.8635C30.863 10.9072 30.7961 11.0816 30.7962 11.2108C30.7988 14.917 30.7978 18.6231 30.7973 22.3294C30.7972 23.008 30.7978 23.6866 30.7952 24.3652C30.7936 24.8353 30.6935 24.9119 30.2259 24.886C28.9617 24.8162 27.7747 25.1261 26.646 25.6696C25.8951 26.0311 25.2009 26.4946 24.6308 27.1024C23.521 28.2856 22.813 29.6788 22.57 31.295C22.4092 32.3649 22.4552 33.4216 22.807 34.4495C22.9197 34.779 22.7426 34.751 22.5292 34.7509C17.8835 34.7493 13.2376 34.7504 8.59188 34.7507C7.75665 34.7508 6.9194 34.7123 6.08684 34.759C5.11276 34.8137 3.98481 33.7489 4.00015 32.6653C4.04096 29.7818 4.01707 26.8975 4.01887 24.0135L4.02772 23.5604Z" fill="#F2F2F2"/>
<path fill-rule="evenodd" clip-rule="evenodd" d="M30.6471 10.8639C28.0106 10.8638 25.3742 10.8642 22.7378 10.8633C21.5236 10.8629 20.6124 9.95308 20.6133 8.74955C20.6152 6.21757 20.6149 3.68551 20.6156 1.15354C21.0983 1.07099 21.3009 1.47893 21.56 1.73525C22.8382 2.99979 24.1099 4.27099 25.3902 5.53357C26.5006 6.62848 27.5917 7.74642 28.6775 8.86765C29.3278 9.53927 30.0504 10.1395 30.6471 10.8639Z" fill="#DDDDDD"/>
<path fill-rule="evenodd" clip-rule="evenodd" d="M17.3272 10.5505C17.3272 10.7235 17.1869 10.8637 17.0139 10.8637H8.47683C8.30384 10.8637 8.16357 10.7235 8.16357 10.5505V9.21584C8.16357 9.04285 8.30384 8.90259 8.47683 8.90259H17.0139C17.1869 8.90259 17.3272 9.04285 17.3272 9.21584V10.5505Z" fill="#DDDDDD"/>
<path fill-rule="evenodd" clip-rule="evenodd" d="M26.3414 17.6457C26.3414 17.8187 26.2011 17.9589 26.0281 17.9589H8.47683C8.30384 17.9589 8.16357 17.8187 8.16357 17.6457V16.3111C8.16357 16.1381 8.30384 15.9978 8.47683 15.9978H26.0281C26.2011 15.9978 26.3414 16.1381 26.3414 16.3111V17.6457Z" fill="#DDDDDD"/>
<path fill-rule="evenodd" clip-rule="evenodd" d="M26.3414 22.2982C26.3414 22.4713 26.2011 22.6115 26.0281 22.6115H8.47683C8.30384 22.6115 8.16357 22.4713 8.16357 22.2982V20.9636C8.16357 20.7907 8.30384 20.6504 8.47683 20.6504H26.0281C26.2011 20.6504 26.3414 20.7907 26.3414 20.9636V22.2982Z" fill="#DDDDDD"/>
<path fill-rule="evenodd" clip-rule="evenodd" d="M19.8731 27.217C19.8731 27.3901 19.7329 27.5303 19.5599 27.5303H8.47683C8.30383 27.5303 8.16357 27.3901 8.16357 27.217V25.8825C8.16357 25.7095 8.30383 25.5692 8.47683 25.5692H19.5599C19.7329 25.5692 19.8731 25.7095 19.8731 25.8825V27.217Z" fill="#DDDDDD"/>
<path fill-rule="evenodd" clip-rule="evenodd" d="M35.7458 31.5074C35.7451 35.4763 32.6164 38.6796 28.7386 38.6816C24.9455 38.6836 21.7426 35.4675 21.7459 31.6604C21.7496 27.4927 24.8374 24.3496 28.9202 24.3576C32.6143 24.3647 35.7466 27.6458 35.7458 31.5074Z" fill="#DDDDDD"/>
<path fill-rule="evenodd" clip-rule="evenodd" d="M22.7339 31.9684C22.7346 28.2795 25.6425 25.3021 29.2466 25.3002C32.772 25.2984 35.7489 28.2876 35.7458 31.8262C35.7424 35.6999 32.8725 38.6212 29.0779 38.6139C25.6444 38.6072 22.7332 35.5576 22.7339 31.9684ZM31.9195 31.4862C31.4359 31.4862 31.0578 31.4715 30.6815 31.4914C30.4426 31.504 30.3786 31.4219 30.3824 31.1832C30.3958 30.3491 30.3795 29.5145 30.393 28.6803C30.3971 28.4328 30.3394 28.3368 30.0793 28.3477C29.5832 28.3687 29.0846 28.3736 28.5891 28.3463C28.2845 28.3296 28.2333 28.4525 28.2387 28.7278C28.2544 29.5357 28.2314 30.3446 28.2514 31.1523C28.2585 31.4356 28.1731 31.5093 27.9089 31.4922C27.5469 31.4689 27.1825 31.4864 26.8149 31.4864C26.8216 31.5565 26.8148 31.5888 26.8275 31.603C27.5985 32.4706 28.3716 33.3364 29.1435 34.2034C29.2662 34.3413 29.3772 34.3292 29.4963 34.1957C30.2771 33.3205 31.0599 32.4469 31.9195 31.4862ZM29.2225 35.0886C28.4587 35.0886 27.6948 35.089 26.931 35.0883C26.7779 35.0882 26.6302 35.0582 26.6299 35.311C26.6296 35.5346 26.724 35.5624 26.9057 35.5618C28.4588 35.5569 30.012 35.5573 31.5651 35.5611C31.7395 35.5615 31.8476 35.5447 31.8485 35.3154C31.8496 35.067 31.7095 35.0875 31.5523 35.0879C30.7757 35.0896 29.9991 35.0886 29.2225 35.0886Z" fill="white"/>
<path fill-rule="evenodd" clip-rule="evenodd" d="M31.9194 31.486C31.0599 32.4467 30.2771 33.3203 29.4963 34.1957C29.3771 34.3292 29.2662 34.3412 29.1435 34.2033C28.3716 33.3364 27.5985 32.4706 26.8275 31.603C26.8148 31.5887 26.8216 31.5564 26.8149 31.4864C27.1825 31.4864 27.547 31.4688 27.9089 31.4922C28.1731 31.5092 28.2584 31.4356 28.2515 31.1522C28.2314 30.3446 28.2544 29.5357 28.2387 28.7278C28.2333 28.4525 28.2845 28.3295 28.5892 28.3463C29.0846 28.3735 29.5831 28.3686 30.0793 28.3477C30.3393 28.3367 30.397 28.4328 30.393 28.6803C30.3796 29.5144 30.3958 30.349 30.3824 31.1831C30.3786 31.4218 30.4426 31.5039 30.6815 31.4913C31.0577 31.4714 31.4358 31.486 31.9194 31.486Z" fill="#0696D6"/>
<path fill-rule="evenodd" clip-rule="evenodd" d="M29.2228 35.0889C29.9994 35.0889 30.7759 35.0899 31.5526 35.0882C31.7099 35.0878 31.8499 35.0673 31.8489 35.3157C31.8479 35.5451 31.7398 35.5618 31.5654 35.5614C30.0123 35.5577 28.4591 35.5571 26.906 35.5621C26.7243 35.5627 26.63 35.5349 26.6302 35.3113C26.6305 35.0585 26.7782 35.0885 26.9313 35.0886C27.6951 35.0893 28.459 35.0889 29.2228 35.0889Z" fill="#0696D6"/>
</svg>
