<svg width="40" height="40" viewBox="0 0 40 40" fill="none" xmlns="http://www.w3.org/2000/svg">
<path fill-rule="evenodd" clip-rule="evenodd" d="M19.8961 2.08333H20.1041C23.4602 2.0833 26.1091 2.08328 28.0382 2.33765C29.9346 2.58767 31.6384 3.13865 32.4476 4.70977C32.5641 4.93612 32.6626 5.17135 32.7417 5.41325C33.2939 7.0982 32.4769 8.68978 31.3132 10.1961C30.1297 11.7281 28.2561 13.5835 25.8839 15.9326L21.7766 20L25.8839 24.0673C28.2561 26.4165 30.1297 28.272 31.3132 29.8038C32.4769 31.3102 33.2939 32.9018 32.7417 34.5867C32.6626 34.8287 32.5641 35.0638 32.4476 35.2902C31.6384 36.8613 29.9346 37.4123 28.0382 37.6623C26.1091 37.9167 23.4602 37.9167 20.1041 37.9167H19.8961C16.5398 37.9167 13.891 37.9167 11.9617 37.6623C10.0655 37.4123 8.3617 36.8613 7.55251 35.2902C7.43593 35.0638 7.33753 34.8287 7.25826 34.5867C6.70616 32.9018 7.5232 31.3102 8.68688 29.8038C9.87031 28.272 11.744 26.4165 14.1162 24.0673L18.2236 20L14.1162 15.9326C11.744 13.5835 9.87031 11.7281 8.68688 10.1961C7.5232 8.68978 6.70616 7.09822 7.25826 5.41325C7.33753 5.17135 7.43593 4.93612 7.55251 4.70977C8.3617 3.13865 10.0655 2.58767 11.9617 2.33765C13.891 2.08328 16.5398 2.0833 19.8961 2.08333ZM20.0001 18.2408L24.0499 14.2302C26.5132 11.791 28.2656 10.0517 29.3347 8.6678C30.4361 7.24223 30.4957 6.58755 30.3661 6.1917C30.3281 6.07588 30.2809 5.96312 30.2251 5.85445C30.0306 5.4768 29.5104 5.05338 27.7116 4.8162C25.9656 4.586 23.4829 4.58333 20.0001 4.58333C16.5172 4.58333 14.0345 4.586 12.2885 4.8162C10.4897 5.05338 9.96956 5.4768 9.77506 5.85445C9.7191 5.96312 9.67193 6.07588 9.63398 6.1917C9.50428 6.58755 9.56405 7.24223 10.6653 8.6678C11.7344 10.0517 13.4869 11.791 15.9501 14.2302L20.0001 18.2408ZM20.0001 21.7592L15.9501 25.7697C13.4869 28.209 11.7344 29.9483 10.6653 31.3322C9.56405 32.7578 9.50428 33.4125 9.63398 33.8083C9.67193 33.9242 9.7191 34.0368 9.77506 34.1455C9.96956 34.5232 10.4897 34.9467 12.2885 35.1838C14.0345 35.414 16.5172 35.4167 20.0001 35.4167C23.4829 35.4167 25.9656 35.414 27.7116 35.1838C29.5104 34.9467 30.0306 34.5232 30.2251 34.1455C30.2809 34.0368 30.3281 33.9242 30.3661 33.8083C30.4957 33.4125 30.4361 32.7578 29.3347 31.3322C28.2656 29.9483 26.5132 28.209 24.0499 25.7697L20.0001 21.7592ZM15.4167 9.16667C15.4167 8.47632 15.9763 7.91667 16.6667 7.91667H23.3334C24.0237 7.91667 24.5834 8.47632 24.5834 9.16667C24.5834 9.85702 24.0237 10.4167 23.3334 10.4167H16.6667C15.9763 10.4167 15.4167 9.85702 15.4167 9.16667ZM15.4167 30.8333C15.4167 30.143 15.9763 29.5833 16.6667 29.5833H23.3334C24.0237 29.5833 24.5834 30.143 24.5834 30.8333C24.5834 31.5237 24.0237 32.0833 23.3334 32.0833H16.6667C15.9763 32.0833 15.4167 31.5237 15.4167 30.8333Z" fill="#1C274C"/>
</svg>
