<svg width="16" height="16" viewBox="0 0 16 16" fill="none" xmlns="http://www.w3.org/2000/svg">
<path d="M7.61344 9.39697H4.98779V10.4521H7.61344V9.39697Z" fill="#D9D9D9"/>
<path d="M7.80365 9.75316L7.4467 9.58859V8.45386H5.1558V9.58859L4.79736 9.74325L4.89282 12.9613H5.1558V13.4547H7.4467V12.9613H7.7082L7.80365 9.75316Z" fill="#F6CCB8"/>
<path d="M5.15527 8.45386V9.00616L7.44617 9.51427V8.45386H5.15527Z" fill="#F6CCB8"/>
<path d="M9.23531 15.3233C9.2789 13.6323 9.18539 10.2811 7.80166 9.76123L7.71652 10.081C7.56926 10.503 7.19158 11.0976 6.29487 11.0976C5.28326 11.0976 4.89731 10.3145 4.77756 9.93381L4.73162 9.76128C3.34794 10.2812 3.30711 13.6324 3.37776 15.3233H9.23531V15.3233Z" fill="white"/>
<path d="M12.2015 15.3232L11.6777 11.6764C11.5751 10.9624 11.0415 10.3863 10.3375 10.2292L7.61608 9.62231L6.42285 15.3232H12.2015Z" fill="#EBEBEB"/>
<path d="M6.17819 15.3236L4.98527 9.6228L2.26386 10.2297C1.55985 10.3867 1.02633 10.9628 0.923726 11.6769L0.399902 15.3236H6.17819Z" fill="#EBEBEB"/>
<path d="M4.52102 11.4374L4.09561 12.0189L5.97569 15.3232H6.17758L4.98777 9.39734L3.93701 9.89314L3.97432 10.9877L4.52102 11.4374Z" fill="#D9D9D9"/>
<path d="M6.62571 15.3232L8.5059 12.0189L8.08049 11.4374L8.62713 10.9877L8.66449 9.89314L7.61374 9.39734L6.42383 15.3232H6.62571Z" fill="#D9D9D9"/>
<path d="M9.68563 13.5578H9.41867V13.2908H9.08489V13.5578H8.81787V13.8916H9.08489V14.1585H9.41867V13.8916H9.68563V13.5578Z" fill="#0696D6"/>
<path d="M10.1198 14.4022H8.38428V14.7493H10.1198V14.4022Z" fill="#0696D6"/>
<path d="M8.79981 5.22158L8.87735 4.2135C8.87735 2.89526 7.61736 1.82715 6.30014 1.82715C4.98191 1.82715 3.72289 2.89526 3.72289 4.2135L3.80037 5.22056C3.72666 5.23838 3.6601 5.27217 3.60456 5.31979C3.50145 5.40759 3.43652 5.5374 3.43652 5.68349V6.17985C3.43652 6.44227 3.64785 6.65518 3.91083 6.65681C3.91083 7.90159 5.40655 9.0816 6.30019 9.0816C7.19379 9.0816 8.68951 7.90175 8.68951 6.65697C8.95152 6.65508 9.16341 6.44247 9.16341 6.18005V5.68369C9.16331 5.4595 9.00818 5.27283 8.79981 5.22158Z" fill="#F6CCB8"/>
<path opacity="0.8" d="M8.7999 5.22158L8.87744 4.2135C8.87744 2.89526 7.61745 1.82715 6.30023 1.82715C6.30008 1.82715 6.29993 1.82715 6.29983 1.82715V5.21577C5.95165 5.95622 5.72705 7.02939 5.72705 7.02939H6.29983V9.08165C6.29983 9.08165 6.29998 9.08165 6.30008 9.08165C6.30023 9.08165 6.30039 9.08165 6.30054 9.08165C7.19418 9.0814 8.68954 7.90165 8.68954 6.65702C8.95156 6.65513 9.16345 6.44253 9.16345 6.18011V5.68374C9.16339 5.4595 9.00827 5.27283 8.7999 5.22158Z" fill="#F6CCB8"/>
<path d="M9.25606 1.89712C9.2459 1.81525 9.17153 1.75705 9.08955 1.76655C8.51254 1.83352 8.47839 1.70907 7.4726 1.1169C6.55925 0.579193 5.62472 0.793581 5.00192 1.25646C2.52829 1.82739 3.44138 4.80464 3.73698 5.60727C3.75332 5.65173 3.81865 5.64101 3.82085 5.59369C3.84591 5.05328 3.97965 3.63678 4.6906 3.13746C6.17432 4.14917 7.69046 4.2042 8.55363 3.60253C8.79084 4.15596 8.80385 5.0398 8.79175 5.50222C8.79048 5.5526 8.86174 5.56444 8.87644 5.51621C9.02488 5.03011 9.26545 4.01365 9.03815 3.08489C9.22916 2.76152 9.31354 2.36127 9.25606 1.89712Z" fill="#4F3C30"/>
<path d="M4.56938 6.44263C4.52701 6.58994 4.39292 7.00055 4.11758 7.40778C4.07379 7.27277 4.00927 7.02714 3.96608 6.65191C3.94862 6.65385 3.93157 6.65722 3.91361 6.65722C3.8987 6.65722 3.88472 6.65411 3.87012 6.65283C3.94235 7.2912 4.07389 7.56602 4.07961 7.57751L4.08348 7.57567C4.43401 8.45742 5.39396 9.0817 6.29996 9.0817C7.206 9.0817 8.1659 8.45747 8.51648 7.57567L8.52026 7.57751C8.52592 7.56597 8.65752 7.2912 8.72974 6.65283C8.7152 6.65411 8.70111 6.65722 8.68626 6.65722C8.66824 6.65722 8.65119 6.65385 8.63373 6.65191C8.5906 7.02714 8.52613 7.27272 8.48228 7.40778C8.20694 7.0005 8.07285 6.58989 8.03048 6.44263" fill="#EBEBEB"/>
<path d="M8.94678 4.83642H8.43521C8.27355 4.75169 8.04727 4.69763 7.73053 4.69763C7.2038 4.69763 6.84633 4.7986 6.66288 4.99568C6.5761 4.94796 6.4466 4.8937 6.3001 4.8937C6.15493 4.8937 6.0265 4.94694 5.93967 4.99436C5.75581 4.79814 5.3988 4.69763 4.87329 4.69763C4.55656 4.69763 4.33028 4.75169 4.16857 4.83642H3.65332V5.20497L3.82243 5.26428C3.80513 5.3334 3.79808 5.40343 3.79808 5.47101C3.79808 5.92899 3.90957 6.53775 4.87324 6.53775C5.73396 6.53775 5.95978 6.00816 6.06713 5.49026C6.08342 5.4117 6.0852 5.33687 6.07433 5.26663C6.11629 5.23983 6.18556 5.2163 6.30005 5.2163C6.41751 5.2163 6.48754 5.241 6.52914 5.26867C6.51862 5.33835 6.52046 5.41246 6.53659 5.49026C6.64394 6.00821 6.86971 6.53775 7.73048 6.53775C8.69416 6.53775 8.80564 5.92899 8.80564 5.47101C8.80564 5.40307 8.79844 5.33263 8.78094 5.26311L8.94673 5.20497V4.83642H8.94678ZM5.88215 5.45182C5.77056 5.99014 5.55638 6.34868 4.87335 6.34868C4.0946 6.34868 3.98726 5.92684 3.98726 5.47101C3.98726 5.32645 3.98726 4.8867 4.87335 4.8867C5.48476 4.8867 5.72569 5.02508 5.82018 5.14116C5.887 5.22324 5.90787 5.32773 5.88215 5.45182ZM7.73059 6.34868C7.04755 6.34868 6.83337 5.99014 6.72173 5.45182C6.69606 5.32778 6.71688 5.22324 6.78375 5.14121C6.87824 5.02514 7.11917 4.88675 7.73059 4.88675C8.61667 4.88675 8.61667 5.32651 8.61667 5.47106C8.61667 5.92684 8.50927 6.34868 7.73059 6.34868Z" fill="#42404D"/>
<path d="M15.4354 9.52458C15.4525 9.45978 15.4434 9.39095 15.4103 9.33291L14.2444 7.30998C14.1746 7.18956 14.0208 7.14804 13.9006 7.21788L12.9226 7.78412C12.7427 7.65483 12.5502 7.54317 12.3473 7.45086V6.31777C12.3473 6.1784 12.2346 6.06543 12.0955 6.06543H9.76527C9.62612 6.06543 9.5137 6.1784 9.5137 6.31777V7.45106C9.32371 7.53783 9.14207 7.64183 8.97057 7.76205L7.99826 7.18402C7.94079 7.14995 7.87247 7.14028 7.80777 7.15671C7.74317 7.17343 7.68751 7.21495 7.65355 7.27259L6.46563 9.28262C6.43168 9.34006 6.42183 9.40899 6.43841 9.47389C6.45508 9.53869 6.49648 9.59431 6.55394 9.62838L7.52666 10.2062C7.51119 10.3377 7.50366 10.4605 7.50366 10.5786C7.50366 10.6833 7.50979 10.7919 7.52265 10.912L6.54329 11.4796C6.48543 11.5132 6.44323 11.5684 6.42615 11.6329C6.40867 11.6975 6.41791 11.7665 6.45127 11.8243L7.61668 13.8475C7.6861 13.9681 7.84022 14.0096 7.96048 13.9396L8.93862 13.3731C9.11876 13.5026 9.31146 13.6141 9.5138 13.7064V14.8395C9.5138 14.979 9.62622 15.0918 9.76537 15.0918H12.0955C12.2346 15.0918 12.3473 14.979 12.3473 14.8395V13.7065C12.537 13.6199 12.7187 13.5155 12.89 13.3953L13.8629 13.9733C13.9823 14.0444 14.1369 14.0047 14.2077 13.8847L15.3954 11.8748C15.4292 11.8172 15.439 11.7482 15.4227 11.6836C15.406 11.6188 15.3646 11.5631 15.3069 11.5291L14.3348 10.9512C14.3505 10.8188 14.3579 10.6975 14.3579 10.5789C14.3579 10.473 14.3516 10.3629 14.3389 10.245L15.3181 9.67796C15.3757 9.6446 15.4181 9.58928 15.4354 9.52458ZM12.2781 10.5786C12.2781 11.3239 11.6735 11.9303 10.9303 11.9303C10.1872 11.9303 9.58282 11.3239 9.58282 10.5786C9.58282 9.83355 10.1872 9.2272 10.9303 9.2272C11.6736 9.2272 12.2781 9.83355 12.2781 10.5786Z" fill="#647F94"/>
</svg>
