<svg width="24" height="25" viewBox="0 0 24 25" fill="none" xmlns="http://www.w3.org/2000/svg">
<g id="documents-svgrepo-com 1">
<path id="Vector" fill-rule="evenodd" clip-rule="evenodd" d="M10.9451 2H13.0549C14.4225 1.99998 15.5248 1.99996 16.3918 2.11652C17.2919 2.23754 18.0497 2.49643 18.6517 3.09835C18.9501 3.39682 19.1642 3.73363 19.319 4.10712C20.2511 4.22388 21.0336 4.48034 21.6517 5.0984C22.2536 5.70032 22.5125 6.45819 22.6335 7.3583C22.75 8.22527 22.75 9.32759 22.75 10.6952V14.8049C22.75 16.1725 22.75 17.2748 22.6335 18.1418C22.5125 19.0419 22.2536 19.7998 21.6517 20.4017C21.0336 21.0198 20.2511 21.2762 19.319 21.393C19.1642 21.7664 18.9501 22.1032 18.6517 22.4017C18.0497 23.0036 17.2919 23.2625 16.3918 23.3835C15.5248 23.5 14.4225 23.5 13.0549 23.5H10.9451C9.57754 23.5 8.47522 23.5 7.60825 23.3835C6.70814 23.2625 5.95027 23.0036 5.34835 22.4017C5.04991 22.1032 4.8358 21.7664 4.68101 21.393C3.74894 21.2762 2.96643 21.0198 2.34835 20.4017C1.74643 19.7998 1.48754 19.0419 1.36652 18.1418C1.24996 17.2748 1.24998 16.1725 1.25 14.8049V10.6952C1.24998 9.32759 1.24996 8.22527 1.36652 7.3583C1.48754 6.45819 1.74643 5.70032 2.34835 5.0984C2.96642 4.48034 3.74892 4.22388 4.68096 4.10712C4.83576 3.73363 5.04988 3.39682 5.34835 3.09835C5.95027 2.49643 6.70814 2.23754 7.60825 2.11652C8.47522 1.99996 9.57754 1.99998 10.9451 2ZM4.32844 5.69047C3.89082 5.79593 3.618 5.95007 3.40901 6.15906C3.13225 6.43583 2.9518 6.8244 2.85315 7.55817C2.75159 8.31352 2.75 9.31464 2.75 10.7501V14.7501C2.75 16.1855 2.75159 17.1866 2.85315 17.9419C2.9518 18.6757 3.13225 19.0643 3.40901 19.341C3.61801 19.55 3.89083 19.7042 4.32845 19.8096C4.24997 18.9984 4.24998 18.0035 4.25 16.8049V8.69512C4.24998 7.49652 4.24997 6.50169 4.32844 5.69047ZM19.6716 19.8096C20.1092 19.7042 20.382 19.55 20.591 19.341C20.8678 19.0643 21.0482 18.6757 21.1469 17.9419C21.2484 17.1866 21.25 16.1855 21.25 14.7501V10.7501C21.25 9.31464 21.2484 8.31352 21.1469 7.55817C21.0482 6.8244 20.8678 6.43583 20.591 6.15906C20.382 5.95007 20.1092 5.79593 19.6716 5.69047C19.75 6.50169 19.75 7.49653 19.75 8.69513V16.8049C19.75 18.0035 19.75 18.9984 19.6716 19.8096ZM7.80812 3.60315C7.07435 3.7018 6.68577 3.88225 6.40901 4.15901C6.13225 4.43577 5.9518 4.82435 5.85315 5.55812C5.75159 6.31347 5.75 7.31458 5.75 8.75V16.75C5.75 18.1854 5.75159 19.1865 5.85315 19.9419C5.9518 20.6757 6.13225 21.0642 6.40901 21.341C6.68577 21.6178 7.07435 21.7982 7.80812 21.8969C8.56347 21.9984 9.56458 22 11 22H13C14.4354 22 15.4365 21.9984 16.1919 21.8969C16.9257 21.7982 17.3142 21.6178 17.591 21.341C17.8678 21.0642 18.0482 20.6757 18.1469 19.9419C18.2484 19.1865 18.25 18.1854 18.25 16.75V8.75C18.25 7.31459 18.2484 6.31347 18.1469 5.55812C18.0482 4.82435 17.8678 4.43577 17.591 4.15901C17.3142 3.88225 16.9257 3.7018 16.1919 3.60315C15.4365 3.50159 14.4354 3.5 13 3.5H11C9.56458 3.5 8.56347 3.50159 7.80812 3.60315ZM8.25 9.75C8.25 9.33579 8.58579 9 9 9H15C15.4142 9 15.75 9.33579 15.75 9.75C15.75 10.1642 15.4142 10.5 15 10.5H9C8.58579 10.5 8.25 10.1642 8.25 9.75ZM8.25 13.75C8.25 13.3358 8.58579 13 9 13H15C15.4142 13 15.75 13.3358 15.75 13.75C15.75 14.1642 15.4142 14.5 15 14.5H9C8.58579 14.5 8.25 14.1642 8.25 13.75ZM8.25 17.75C8.25 17.3358 8.58579 17 9 17H12C12.4142 17 12.75 17.3358 12.75 17.75C12.75 18.1642 12.4142 18.5 12 18.5H9C8.58579 18.5 8.25 18.1642 8.25 17.75Z" fill="#FF3C02"/>
</g>
</svg>
