<svg width="11" height="13" viewBox="0 0 11 13" fill="none" xmlns="http://www.w3.org/2000/svg">
<path d="M4.92832 0.677734H6.07232C7.06845 0.677734 7.85657 0.677734 8.47407 0.760609C9.10782 0.845109 9.62295 1.02548 10.0276 1.43011C10.4322 1.83473 10.6126 2.34986 10.6987 2.98523C10.7816 3.60273 10.7816 4.39086 10.7816 5.38698V7.61486C10.7816 8.61098 10.7816 9.39911 10.6987 10.0166C10.6126 10.652 10.4338 11.1655 10.0276 11.5717C9.62295 11.9764 9.10782 12.1567 8.47245 12.2429C7.85495 12.3257 7.06682 12.3257 6.0707 12.3257H4.9267C3.93057 12.3257 3.14245 12.3257 2.52495 12.2429C1.88957 12.1567 1.37607 11.978 0.96982 11.5717C0.565195 11.1671 0.38482 10.652 0.298695 10.0166C0.21582 9.39911 0.21582 8.61098 0.21582 7.61486V5.38698C0.21582 4.39086 0.21582 3.60273 0.298695 2.98523C0.38482 2.34986 0.56357 1.83636 0.96982 1.43011C1.3777 1.02548 1.89282 0.845109 2.52657 0.760609C3.14407 0.677734 3.9322 0.677734 4.92832 0.677734ZM2.63545 1.56498C2.09107 1.63811 1.77582 1.77623 1.5467 2.00536C1.31757 2.23448 1.17945 2.54811 1.10632 3.09411C1.03157 3.65148 1.02995 4.38436 1.02995 5.41786V7.58398C1.02995 8.61748 1.03157 9.35036 1.10632 9.90773C1.17945 10.4521 1.31757 10.7674 1.5467 10.9965C1.77582 11.2256 2.08945 11.3637 2.63545 11.4369C3.19282 11.5116 3.9257 11.5132 4.9592 11.5132H6.04307C7.07657 11.5132 7.80945 11.5116 8.36682 11.4369C8.9112 11.3637 9.22645 11.2256 9.45557 10.9965C9.6847 10.7674 9.82282 10.4537 9.89595 9.90773C9.9707 9.35036 9.97232 8.61748 9.97232 7.58398V5.41623C9.97232 4.38273 9.9707 3.64986 9.89595 3.09248C9.82282 2.54811 9.6847 2.23286 9.45557 2.00373C9.22645 1.77461 8.91282 1.63648 8.36682 1.56336C7.80945 1.48861 7.07657 1.48698 6.04307 1.48698H4.9592C3.9257 1.49023 3.19282 1.49023 2.63545 1.56498Z" fill="#0696D6"/>
<path d="M7.60245 6.74385C6.93295 6.74385 6.38857 7.2866 6.38857 7.95772C6.38857 8.49235 6.7347 8.94735 7.2157 9.10822C7.0272 9.43647 6.67457 9.65585 6.26995 9.65585H5.98395C5.22507 9.65585 4.6092 9.03997 4.6092 8.2811V7.61647C5.82957 7.4946 6.78182 6.46435 6.78182 5.2131V4.8166C6.78182 4.72722 6.78182 4.6671 6.77695 4.61347C6.72495 4.02847 6.2602 3.56372 5.6752 3.51172C5.64595 3.50847 5.61507 3.50847 5.57932 3.50685V3.4256C5.57932 3.29235 5.47045 3.18347 5.3372 3.18347C5.20395 3.18347 5.09507 3.29235 5.09507 3.4256V4.07235C5.09507 4.2056 5.20395 4.31447 5.3372 4.31447C5.47045 4.31447 5.57932 4.2056 5.57932 4.07235V3.99272C5.60207 3.99272 5.61832 3.99435 5.63132 3.99435C5.98232 4.02522 6.26182 4.30472 6.2927 4.65572C6.29595 4.68497 6.29595 4.72235 6.29595 4.8296V5.2131C6.29595 6.2791 5.43145 7.1436 4.36545 7.1436C3.24907 7.1436 2.34232 6.23847 2.34232 5.12047V4.8296C2.34232 4.72397 2.34232 4.68497 2.34557 4.65572C2.37645 4.30472 2.65595 4.02522 3.00695 3.99435C3.03295 3.99272 3.06707 3.9911 3.15157 3.9911V4.07235C3.15157 4.2056 3.26045 4.31447 3.3937 4.31447C3.52695 4.31447 3.63582 4.2056 3.63582 4.07235V3.4256C3.63582 3.29235 3.52695 3.18347 3.3937 3.18347C3.26045 3.18347 3.15157 3.29235 3.15157 3.4256V3.50685C3.07032 3.50685 3.01345 3.50685 2.96307 3.51172C2.37807 3.56372 1.91332 4.02847 1.86132 4.61347C1.85645 4.6671 1.85645 4.72722 1.85645 4.8166V5.12047C1.85645 6.42372 2.85095 7.4946 4.1217 7.61647V8.27947C4.1217 9.30647 4.95532 10.1401 5.98232 10.1401H6.26832C6.92645 10.1401 7.49032 9.73547 7.72595 9.16347C8.33695 9.1001 8.8147 8.58497 8.8147 7.9561C8.81632 7.2866 8.27195 6.74385 7.60245 6.74385ZM7.60245 8.68572C7.20107 8.68572 6.87445 8.3591 6.87445 7.95772C6.87445 7.55635 7.20107 7.22972 7.60245 7.22972C8.00382 7.22972 8.33045 7.55635 8.33045 7.95772C8.33045 8.3591 8.00382 8.68572 7.60245 8.68572Z" fill="#0696D6"/>
</svg>
