<svg width="12" height="13" viewBox="0 0 12 13" fill="none" xmlns="http://www.w3.org/2000/svg">
<path fill-rule="evenodd" clip-rule="evenodd" d="M9.22299 5.96572C9.5052 5.63401 9.78571 5.30071 10.0703 4.97115C10.3023 4.70255 10.4892 4.69139 10.7562 4.92705C11.0084 5.1496 11.2598 5.37311 11.5075 5.60071C11.7495 5.82297 11.7631 6.01192 11.5481 6.26707C10.8103 7.14219 10.0646 8.01036 9.33452 8.89212C9.24066 9.00548 9.1766 9.18218 9.17353 9.33113C9.15771 10.1137 9.16715 10.8968 9.1653 11.6797C9.16448 12.037 9.02987 12.1737 8.67619 12.1739C6.04882 12.1749 3.42149 12.1748 0.794113 12.174C0.43333 12.1738 0.300233 12.0343 0.300184 11.6572C0.2996 8.20906 0.299697 4.7609 0.300428 1.31278C0.300476 0.936176 0.428997 0.802124 0.799128 0.801774C2.66424 0.799874 4.52935 0.797023 6.39441 0.808224C6.53063 0.809074 6.69863 0.884275 6.79697 0.982727C7.53426 1.72114 8.25582 2.476 8.98723 3.22062C9.11784 3.35357 9.17212 3.49497 9.16949 3.68508C9.16024 4.35954 9.16589 5.03425 9.16589 5.70891C9.16589 5.78882 9.16589 5.86862 9.16589 5.94852C9.18492 5.95422 9.20396 5.95997 9.22299 5.96572ZM8.37237 9.95764C8.28177 9.99209 8.20734 10.0181 8.13475 10.0485C7.83487 10.1744 7.53387 10.2976 7.23676 10.43C7.06121 10.5082 6.87919 10.5069 6.77039 10.3575C6.69084 10.2484 6.64902 10.0655 6.67253 9.93064C6.73947 9.54663 6.84117 9.16833 6.94506 8.79232C6.97904 8.66932 7.04447 8.54552 7.12499 8.44761C7.49648 7.99566 7.88365 7.55725 8.25198 7.10269C8.32641 7.01079 8.37948 6.87029 8.38099 6.75133C8.39184 5.90987 8.38697 5.06825 8.38605 4.22664C8.386 4.14778 8.37904 4.06893 8.3749 3.98158C7.78463 3.98158 7.22532 3.98158 6.66596 3.98158C6.15271 3.98163 6.05914 3.88483 6.05914 3.35372C6.05909 2.77251 6.05914 2.19135 6.05914 1.60224C4.38501 1.60224 2.73717 1.60224 1.09711 1.60224C1.09711 4.86855 1.09711 8.11386 1.09711 11.3618C3.52966 11.3618 5.94405 11.3618 8.37232 11.3618C8.37237 10.8961 8.37237 10.4427 8.37237 9.95764ZM10.4587 5.73681C9.58095 6.76873 8.71865 7.77375 7.86934 8.79017C7.74155 8.94312 7.67446 9.14958 7.57934 9.33128C7.60898 9.35793 7.63868 9.38458 7.66833 9.41128C7.82581 9.29678 8.01047 9.20728 8.13631 9.06353C8.7648 8.34571 9.37814 7.6139 9.99621 6.88644C10.2446 6.59403 10.4915 6.30027 10.7493 5.99502C10.6464 5.90357 10.5621 5.82867 10.4587 5.73681ZM6.85178 2.2454C6.85178 2.53951 6.85178 2.84346 6.85178 3.15377C7.16992 3.15377 7.47433 3.15377 7.7358 3.15377C7.44702 2.85706 7.14792 2.54971 6.85178 2.2454Z" fill="#1B2746"/>
<path fill-rule="evenodd" clip-rule="evenodd" d="M4.73068 4.47775C5.37874 4.47775 6.0268 4.47695 6.6748 4.4781C6.9851 4.4787 7.16007 4.6208 7.1645 4.87076C7.16893 5.12121 6.98997 5.27702 6.68834 5.27727C5.37606 5.27837 4.06374 5.27642 2.75151 5.27912C2.55332 5.27952 2.37393 5.21787 2.33542 5.01591C2.31011 4.88326 2.35801 4.70516 2.43561 4.593C2.48979 4.5147 2.64923 4.4843 2.76236 4.4826C3.41831 4.47275 4.07454 4.4778 4.73068 4.47775Z" fill="#0696D6"/>
<path fill-rule="evenodd" clip-rule="evenodd" d="M4.73866 8.0779C4.08248 8.07795 3.42634 8.079 2.77015 8.07745C2.47158 8.0767 2.29131 7.91724 2.29803 7.66654C2.30451 7.42513 2.47767 7.27858 2.76738 7.27828C4.07162 7.27708 5.37586 7.27718 6.68011 7.27818C6.98744 7.27843 7.16377 7.42598 7.1645 7.67624C7.16537 7.92709 6.98885 8.07659 6.68288 8.07734C6.03478 8.07899 5.38672 8.0779 4.73866 8.0779Z" fill="#0696D6"/>
<path fill-rule="evenodd" clip-rule="evenodd" d="M4.72108 6.58132C4.07307 6.58132 3.42506 6.58242 2.77706 6.58082C2.47075 6.58002 2.29535 6.43061 2.29788 6.17961C2.30041 5.93076 2.47849 5.7821 2.78499 5.7818C4.08101 5.78055 5.37703 5.78065 6.67299 5.78165C6.98135 5.7819 7.15879 5.92676 7.1642 6.17526C7.1698 6.43291 6.99025 6.58047 6.66506 6.58102C6.0171 6.58207 5.36909 6.58132 4.72108 6.58132Z" fill="#0696D6"/>
</svg>
