<?xml version="1.0" encoding="utf-8"?>
<svg viewBox="0 0 24 25" fill="" xmlns="http://www.w3.org/2000/svg">
  <path fill-rule="evenodd" clip-rule="evenodd" d="M14.3251 4.34099C14.2209 4.34084 14.1126 4.34082 14.0001 4.34082H10.0001C9.88748 4.34082 9.77921 4.34084 9.67501 4.34099C9.37671 5.8102 8.21944 6.96747 6.75022 7.26578C6.75008 7.36997 6.75006 7.47824 6.75006 7.59082C6.75006 7.70341 6.75008 7.81168 6.75022 7.91587C8.21944 8.21417 9.37671 9.37144 9.67501 10.8406C9.77921 10.8408 9.88748 10.8408 10.0001 10.8408H14.0001C14.1126 10.8408 14.2209 10.8408 14.3251 10.8406C14.6234 9.37144 15.7807 8.21418 17.2499 7.91587C17.25 7.81168 17.2501 7.70341 17.2501 7.59082C17.2501 7.47824 17.25 7.36997 17.2499 7.26578C15.7807 6.96747 14.6234 5.8102 14.3251 4.34099ZM14.9296 2.84409C14.655 2.8408 14.3625 2.84081 14.0521 2.84082H9.94806C9.63767 2.84081 9.34509 2.8408 9.07054 2.84409C9.04734 2.84193 9.02383 2.84082 9.00006 2.84082C8.96867 2.84082 8.93772 2.84275 8.90734 2.8465C8.45456 2.85454 8.05363 2.87394 7.70558 2.92073C7.07779 3.00514 6.51099 3.19081 6.05552 3.64628C5.60005 4.10175 5.41438 4.66855 5.32997 5.29634C5.28318 5.64439 5.26377 6.04533 5.25573 6.4981C5.25199 6.52849 5.25006 6.55943 5.25006 6.59082C5.25006 6.61459 5.25117 6.6381 5.25333 6.6613C5.25004 6.93585 5.25005 7.22843 5.25006 7.53882V7.64282C5.25005 7.95321 5.25004 8.24579 5.25333 8.52034C5.25117 8.54355 5.25006 8.56706 5.25006 8.59082C5.25006 8.62222 5.25199 8.65316 5.25573 8.68354C5.26377 9.13632 5.28318 9.53725 5.32997 9.8853C5.41438 10.5131 5.60005 11.0799 6.05552 11.5353C6.51099 11.9908 7.07779 12.1765 7.70558 12.2609C8.05363 12.3077 8.45456 12.3271 8.90734 12.3351C8.93772 12.3389 8.96867 12.3408 9.00006 12.3408C9.02383 12.3408 9.04733 12.3397 9.07054 12.3375C9.34509 12.3408 9.63767 12.3408 9.94807 12.3408H14.0521C14.3625 12.3408 14.655 12.3408 14.9296 12.3375C14.9528 12.3397 14.9763 12.3408 15.0001 12.3408C15.0315 12.3408 15.0624 12.3389 15.0928 12.3351C15.5456 12.3271 15.9465 12.3077 16.2945 12.2609C16.9223 12.1765 17.4891 11.9908 17.9446 11.5353C18.4001 11.0799 18.5857 10.5131 18.6701 9.8853C18.7169 9.53725 18.7363 9.13632 18.7444 8.68354C18.7481 8.65316 18.7501 8.62222 18.7501 8.59082C18.7501 8.56706 18.749 8.54355 18.7468 8.52035C18.7501 8.24579 18.7501 7.95321 18.7501 7.64282V7.53883C18.7501 7.22843 18.7501 6.93585 18.7468 6.6613C18.749 6.6381 18.7501 6.61459 18.7501 6.59082C18.7501 6.55943 18.7481 6.52849 18.7444 6.49811C18.7363 6.04533 18.7169 5.64439 18.6701 5.29634C18.5857 4.66855 18.4001 4.10175 17.9446 3.64628C17.4891 3.19081 16.9223 3.00514 16.2945 2.92073C15.9465 2.87394 15.5456 2.85454 15.0928 2.8465C15.0624 2.84275 15.0315 2.84082 15.0001 2.84082C14.9763 2.84082 14.9528 2.84193 14.9296 2.84409ZM15.8941 4.38478C16.122 4.98874 16.6021 5.46892 17.2061 5.69673C17.1996 5.62679 17.1921 5.56006 17.1835 5.49621C17.1215 5.03475 17.0143 4.83726 16.8839 4.70694C16.7536 4.57662 16.5561 4.4694 16.0947 4.40736C16.0308 4.39877 15.9641 4.3913 15.8941 4.38478ZM17.2061 9.48491C16.6021 9.71273 16.122 10.1929 15.8941 10.7968C15.9641 10.7903 16.0308 10.7829 16.0947 10.7743C16.5561 10.7122 16.7536 10.605 16.8839 10.4747C17.0143 10.3444 17.1215 10.1469 17.1835 9.68543C17.1921 9.62158 17.1996 9.55486 17.2061 9.48491ZM8.10597 10.7968C7.87816 10.1929 7.39798 9.71273 6.79402 9.48491C6.80053 9.55486 6.80801 9.62158 6.8166 9.68543C6.87864 10.1469 6.98586 10.3444 7.11618 10.4747C7.24649 10.605 7.44399 10.7122 7.90545 10.7743C7.9693 10.7829 8.03602 10.7903 8.10597 10.7968ZM6.79402 5.69673C7.39798 5.46892 7.87816 4.98874 8.10597 4.38478C8.03602 4.3913 7.9693 4.39877 7.90545 4.40736C7.44399 4.4694 7.24649 4.57662 7.11618 4.70694C6.98586 4.83726 6.87864 5.03475 6.8166 5.49621C6.80801 5.56006 6.80053 5.62679 6.79402 5.69673ZM12.0001 7.34082C11.862 7.34082 11.7501 7.45275 11.7501 7.59082C11.7501 7.72889 11.862 7.84082 12.0001 7.84082C12.1381 7.84082 12.2501 7.72889 12.2501 7.59082C12.2501 7.45275 12.1381 7.34082 12.0001 7.34082ZM10.2501 7.59082C10.2501 6.62432 11.0336 5.84082 12.0001 5.84082C12.9666 5.84082 13.7501 6.62432 13.7501 7.59082C13.7501 8.55732 12.9666 9.34082 12.0001 9.34082C11.0336 9.34082 10.2501 8.55732 10.2501 7.59082ZM8.68397 15.039C10.5498 14.6775 12.5471 14.7586 14.1633 15.7226C14.3903 15.858 14.6031 16.0267 14.7888 16.2352C15.1646 16.6574 15.3588 17.1821 15.3679 17.7082C15.5592 17.5848 15.7508 17.4478 15.9454 17.3008L17.7526 15.9356C18.6572 15.2523 19.9718 15.2522 20.8765 15.9353C21.7125 16.5665 22.0457 17.6993 21.4473 18.6585C21.022 19.3403 20.3815 20.2833 19.7296 20.887C19.0707 21.4973 18.1329 22.0104 17.4236 22.3528C16.5621 22.7686 15.6316 22.9985 14.7269 23.1449C12.8777 23.4443 10.9535 23.3985 9.12505 23.0218C8.19064 22.8292 7.21961 22.7292 6.25999 22.7292H4.00006C3.58585 22.7292 3.25006 22.3934 3.25006 21.9792C3.25006 21.565 3.58585 21.2292 4.00006 21.2292H6.25999C7.3221 21.2292 8.39454 21.3398 9.42772 21.5526C11.0798 21.893 12.8202 21.934 14.4872 21.6642C15.3161 21.53 16.0901 21.3308 16.7715 21.0019C17.4549 20.672 18.2233 20.2376 18.7104 19.7865C19.2029 19.3303 19.7541 18.5387 20.1747 17.8646C20.3016 17.6611 20.284 17.3675 19.9727 17.1324C19.6029 16.8532 19.0264 16.8533 18.6567 17.1325L16.8496 18.4977C16.1281 19.0426 15.2402 19.6257 14.1388 19.8014C14.0276 19.8191 13.9119 19.8353 13.7918 19.8496C13.7345 19.86 13.6749 19.8668 13.6133 19.8691C13.051 19.925 12.3998 19.938 11.6813 19.8701C11.2689 19.8312 10.9662 19.4653 11.0051 19.0529C11.0441 18.6405 11.41 18.3378 11.8223 18.3768C12.4498 18.436 13.0127 18.4229 13.4903 18.3739C13.5 18.3729 13.5096 18.3719 13.5192 18.3709C13.5392 18.3593 13.5696 18.3382 13.6096 18.3033C13.9291 18.0244 13.9576 17.5575 13.6684 17.2326C13.5951 17.1503 13.5049 17.0764 13.3949 17.0108C12.2138 16.3063 10.6363 16.1886 8.96927 16.5116C7.31174 16.8327 5.66497 17.5725 4.43392 18.4455C4.09604 18.6851 3.6279 18.6054 3.38828 18.2676C3.14867 17.9297 3.22833 17.4616 3.5662 17.2219C4.96457 16.2303 6.80866 15.4023 8.68397 15.039Z" style="fill: rgb(6, 150, 214);" transform="matrix(0.9999999999999999, 0, 0, 0.9999999999999999, 0, -4.440892098500626e-16)"/>
</svg>