<svg width="16" height="16" viewBox="0 0 16 16" fill="none" xmlns="http://www.w3.org/2000/svg">
<g clip-path="url(#clip0_20005_82166)">
<path d="M12.1928 1.92655C11.5077 1.83443 10.6046 1.83337 9.33337 1.83337C9.05724 1.83337 8.83337 1.60951 8.83337 1.33337C8.83337 1.05723 9.05724 0.833374 9.33337 0.833374H9.37097C10.5962 0.833361 11.5666 0.833354 12.326 0.935468C13.1077 1.04055 13.7403 1.26196 14.2392 1.76087C14.6955 2.21716 14.9447 2.65114 15.0616 3.32137C15.1668 3.92385 15.1668 4.73637 15.1667 5.93583V6.00004C15.1667 6.27619 14.9428 6.50004 14.6667 6.50004C14.3906 6.50004 14.1667 6.27619 14.1667 6.00004C14.1667 4.72065 14.1648 3.99911 14.0765 3.49327C13.9982 3.04448 13.8568 2.79273 13.5321 2.46797C13.25 2.18583 12.8635 2.01673 12.1928 1.92655Z" fill="#7C878E"/>
<path d="M1.83338 10C1.83338 9.72387 1.60952 9.5 1.33338 9.5C1.05724 9.5 0.833382 9.72387 0.833382 10L0.833375 10.0642C0.833342 11.2637 0.833322 12.0762 0.938455 12.6787C1.0554 13.3489 1.30458 13.7829 1.76088 14.2392C2.25978 14.7381 2.89242 14.9595 3.67403 15.0646C4.43351 15.1667 5.40393 15.1667 6.6291 15.1667H6.66671C6.94284 15.1667 7.16671 14.9428 7.16671 14.6667C7.16671 14.3905 6.94284 14.1667 6.66671 14.1667C5.39549 14.1667 4.49239 14.1656 3.80728 14.0735C3.13655 13.9833 2.75012 13.8142 2.46798 13.5321C2.14322 13.2073 2.00188 12.9555 1.92357 12.5068C1.8353 12.0009 1.83338 11.2794 1.83338 10Z" fill="#7C878E"/>
<path d="M15.1667 10C15.1667 9.72387 14.9428 9.5 14.6667 9.5C14.3906 9.5 14.1667 9.72387 14.1667 10C14.1667 11.2794 14.1648 12.0009 14.0765 12.5068C13.9982 12.9555 13.8568 13.2073 13.5321 13.5321C13.25 13.8142 12.8635 13.9833 12.1928 14.0735C11.5077 14.1656 10.6046 14.1667 9.33337 14.1667C9.05724 14.1667 8.83337 14.3905 8.83337 14.6667C8.83337 14.9428 9.05724 15.1667 9.33337 15.1667H9.37097C10.5962 15.1667 11.5666 15.1667 12.326 15.0646C13.1077 14.9595 13.7403 14.7381 14.2392 14.2392C14.6955 13.7829 14.9447 13.3489 15.0616 12.6787C15.1668 12.0762 15.1668 11.2637 15.1667 10.0642V10Z" fill="#7C878E"/>
<path d="M6.66671 0.833374H6.6291C5.40393 0.833361 4.4335 0.833354 3.67403 0.935468C2.89242 1.04055 2.25978 1.26196 1.76088 1.76087C1.30458 2.21716 1.0554 2.65114 0.938455 3.32137C0.833322 3.92384 0.833342 4.73636 0.833375 5.9358L0.833382 6.00004C0.833382 6.27619 1.05724 6.50004 1.33338 6.50004C1.60952 6.50004 1.83338 6.27619 1.83338 6.00004C1.83338 4.72065 1.8353 3.99911 1.92357 3.49327C2.00188 3.04448 2.14322 2.79273 2.46798 2.46797C2.75012 2.18583 3.13655 2.01673 3.80728 1.92655C4.49239 1.83443 5.3955 1.83337 6.66671 1.83337C6.94284 1.83337 7.16671 1.60951 7.16671 1.33337C7.16671 1.05723 6.94284 0.833374 6.66671 0.833374Z" fill="#7C878E"/>
<path fill-rule="evenodd" clip-rule="evenodd" d="M7.99995 6.16663C6.98742 6.16663 6.16663 6.98743 6.16663 7.99996C6.16663 9.01249 6.98742 9.83329 7.99995 9.83329C9.01249 9.83329 9.83329 9.01249 9.83329 7.99996C9.83329 6.98743 9.01249 6.16663 7.99995 6.16663ZM7.16662 7.99996C7.16662 7.53969 7.53969 7.16663 7.99995 7.16663C8.46022 7.16663 8.83329 7.53969 8.83329 7.99996C8.83329 8.46023 8.46022 8.83329 7.99995 8.83329C7.53969 8.83329 7.16662 8.46023 7.16662 7.99996Z" fill="#7C878E"/>
<path fill-rule="evenodd" clip-rule="evenodd" d="M3.54962 6.30029C4.39627 5.31821 5.85095 4.16663 8.00003 4.16663C10.1491 4.16663 11.6038 5.31821 12.4504 6.30029L12.472 6.32523C12.6526 6.53464 12.8384 6.74996 12.9661 7.00803C13.1088 7.29649 13.1667 7.60623 13.1667 7.99996C13.1667 8.39369 13.1088 8.70343 12.9661 8.99189C12.8384 9.24996 12.6526 9.46529 12.472 9.67469L12.4504 9.69963C11.6038 10.6817 10.1491 11.8333 8.00003 11.8333C5.85095 11.8333 4.39627 10.6817 3.54962 9.69963L3.52811 9.67469C3.34743 9.46529 3.16163 9.24996 3.03397 8.99189C2.89121 8.70343 2.83337 8.39369 2.83337 7.99996C2.83337 7.60623 2.89121 7.29649 3.03397 7.00803C3.16164 6.74996 3.34743 6.53464 3.5281 6.32523L3.54962 6.30029ZM8.00003 5.16663C6.24603 5.16663 5.04431 6.09801 4.30702 6.95323C4.09771 7.19603 3.99582 7.31896 3.93025 7.45149C3.87469 7.56376 3.83337 7.71063 3.83337 7.99996C3.83337 8.28929 3.87469 8.43616 3.93025 8.54843C3.99582 8.68096 4.09771 8.80389 4.30702 9.04669C5.04431 9.90189 6.24603 10.8333 8.00003 10.8333C9.75403 10.8333 10.9558 9.90189 11.693 9.04669C11.9024 8.80389 12.0042 8.68096 12.0698 8.54843C12.1254 8.43616 12.1667 8.28929 12.1667 7.99996C12.1667 7.71063 12.1254 7.56376 12.0698 7.45149C12.0042 7.31896 11.9024 7.19603 11.693 6.95323C10.9558 6.09801 9.75403 5.16663 8.00003 5.16663Z" fill="#7C878E"/>
</g>
<defs>
<clipPath id="clip0_20005_82166">
<rect width="16" height="16" fill="white"/>
</clipPath>
</defs>
</svg>
