<svg width="17" height="17" viewBox="0 0 17 17" fill="none" xmlns="http://www.w3.org/2000/svg">
<path fill-rule="evenodd" clip-rule="evenodd" d="M13.0662 7.74317C13.466 7.27325 13.8634 6.80107 14.2665 6.3342C14.5952 5.95367 14.86 5.93788 15.2383 6.27172C15.5955 6.587 15.9516 6.90364 16.3027 7.22607C16.6455 7.54093 16.6648 7.80862 16.3601 8.17009C15.315 9.40984 14.2585 10.6397 13.2242 11.8889C13.0913 12.0495 13.0005 12.2998 12.9962 12.5108C12.9737 13.6195 12.9871 14.7289 12.9845 15.838C12.9833 16.3442 12.7926 16.5379 12.2916 16.5381C8.56948 16.5395 4.84744 16.5394 1.12532 16.5382C0.61421 16.538 0.425655 16.3403 0.425586 15.8061C0.424759 10.9212 0.424897 6.03634 0.425931 1.15151C0.426 0.617982 0.608071 0.428075 1.13242 0.427579C3.77466 0.424887 6.41691 0.420849 9.05908 0.436716C9.25205 0.437921 9.49005 0.544456 9.62936 0.68393C10.6739 1.73002 11.6961 2.79941 12.7322 3.85428C12.9173 4.04263 12.9942 4.24295 12.9904 4.51226C12.9773 5.46775 12.9853 6.42359 12.9853 7.37936C12.9853 7.49255 12.9853 7.60561 12.9853 7.7188C13.0123 7.72688 13.0393 7.73502 13.0662 7.74317ZM11.8612 13.3984C11.7328 13.4472 11.6274 13.484 11.5246 13.5272C11.0997 13.7055 10.6733 13.88 10.2524 14.0676C10.0037 14.1783 9.74585 14.1765 9.59171 13.9649C9.47901 13.8104 9.41977 13.5513 9.45308 13.3601C9.54791 12.8161 9.69198 12.2802 9.83916 11.7475C9.8873 11.5733 9.97999 11.3979 10.0941 11.2592C10.6203 10.6189 11.1688 9.99783 11.6906 9.35388C11.7961 9.22368 11.8713 9.02464 11.8734 8.85612C11.8888 7.66405 11.8819 6.47176 11.8806 5.27947C11.8805 5.16776 11.8706 5.05606 11.8648 4.93231C11.0286 4.93231 10.2362 4.93231 9.44377 4.93231C8.71666 4.93238 8.58411 4.79524 8.58411 4.04284C8.58404 3.21946 8.58411 2.39614 8.58411 1.56157C6.21242 1.56157 3.87798 1.56157 1.55457 1.56157C1.55457 6.18884 1.55457 10.7864 1.55457 15.3876C5.00068 15.3876 8.42107 15.3876 11.8611 15.3876C11.8612 14.7278 11.8612 14.0855 11.8612 13.3984ZM14.8169 7.41889C13.5733 8.88077 12.3517 10.3045 11.1486 11.7445C10.9675 11.9612 10.8725 12.2536 10.7377 12.511C10.7797 12.5488 10.8218 12.5866 10.8638 12.6244C11.0869 12.4622 11.3485 12.3354 11.5268 12.1317C12.4171 11.1148 13.286 10.0781 14.1616 9.04752C14.5136 8.63328 14.8633 8.21712 15.2285 7.78468C15.0827 7.65512 14.9633 7.54901 14.8169 7.41889ZM9.70702 2.47272C9.70702 2.88937 9.70702 3.31997 9.70702 3.75957C10.1577 3.75957 10.589 3.75957 10.9594 3.75957C10.5503 3.33924 10.1265 2.90382 9.70702 2.47272Z" fill="#0696D6"/>
<path fill-rule="evenodd" clip-rule="evenodd" d="M6.702 5.63532C7.62008 5.63532 8.53816 5.63418 9.45618 5.63581C9.89577 5.63666 10.1436 5.83797 10.1499 6.19208C10.1562 6.54689 9.90266 6.76761 9.47535 6.76796C7.61629 6.76952 5.75716 6.76676 3.89817 6.77058C3.61741 6.77115 3.36327 6.68381 3.30872 6.39771C3.27286 6.20979 3.34072 5.95747 3.45065 5.79859C3.52741 5.68766 3.75327 5.6446 3.91355 5.64219C4.84281 5.62823 5.77247 5.63539 6.702 5.63532Z" fill="#0696D6"/>
<path fill-rule="evenodd" clip-rule="evenodd" d="M6.71319 10.7353C5.78359 10.7354 4.85406 10.7369 3.92446 10.7347C3.50149 10.7336 3.24611 10.5078 3.25563 10.1526C3.2648 9.8106 3.51011 9.60298 3.92053 9.60256C5.76821 9.60086 7.61589 9.601 9.46357 9.60242C9.89895 9.60277 10.1487 9.8118 10.1498 10.1663C10.151 10.5217 9.90095 10.7335 9.4675 10.7346C8.54935 10.7369 7.63127 10.7353 6.71319 10.7353Z" fill="#0696D6"/>
<path fill-rule="evenodd" clip-rule="evenodd" d="M6.68877 8.61515C5.77076 8.61515 4.85274 8.61671 3.93473 8.61444C3.5008 8.61331 3.25231 8.40165 3.2559 8.04606C3.25948 7.69352 3.51176 7.48293 3.94598 7.4825C5.782 7.48073 7.61802 7.48087 9.45398 7.48229C9.89081 7.48264 10.1422 7.68785 10.1498 8.0399C10.1578 8.40491 9.90343 8.61395 9.44273 8.61472C8.52479 8.61621 7.60678 8.61515 6.68877 8.61515Z" fill="#0696D6"/>
</svg>
