<svg width="15" height="15" viewBox="0 0 15 15" fill="none" xmlns="http://www.w3.org/2000/svg">
<path d="M11.9517 10.0521C11.9525 10.0592 11.953 10.0664 11.9531 10.0736C11.9566 10.4662 11.4875 10.9378 10.7307 11.3035C10.1175 11.5998 9.05924 11.953 7.5 11.953C5.94076 11.953 4.8825 11.5998 4.26931 11.3035C3.51246 10.9378 3.04336 10.4661 3.04687 10.0736C3.04698 10.0664 3.04745 10.0592 3.04828 10.0521L3.37207 7.13731C3.37563 7.1052 3.38674 7.07439 3.40447 7.04739C3.4222 7.02039 3.44605 6.99795 3.4741 6.98192C3.50214 6.96589 3.53357 6.9567 3.56584 6.95512C3.5981 6.95353 3.63029 6.9596 3.65976 6.97281L7.11653 8.52235C7.23717 8.57634 7.36785 8.60425 7.50001 8.60425C7.63218 8.60425 7.76286 8.57634 7.88349 8.52235L11.3401 6.97284C11.3696 6.95962 11.4018 6.95356 11.434 6.95515C11.4663 6.95673 11.4977 6.96591 11.5258 6.98195C11.5538 6.99798 11.5777 7.02042 11.5954 7.04742C11.6131 7.07442 11.6242 7.10523 11.6278 7.13734L11.9517 10.0521ZM13.9157 4.49403L7.88344 1.78992C7.7628 1.73592 7.63212 1.70801 7.49995 1.70801C7.36779 1.70801 7.23711 1.73592 7.11647 1.78992L1.08425 4.49403C1.00174 4.53101 0.931694 4.59107 0.882547 4.66696C0.8334 4.74286 0.807251 4.83134 0.807251 4.92176C0.807251 5.01218 0.8334 5.10066 0.882547 5.17656C0.931694 5.25245 1.00174 5.31251 1.08425 5.3495L7.11647 8.0536C7.23711 8.10759 7.36779 8.1355 7.49995 8.1355C7.63212 8.1355 7.7628 8.10759 7.88344 8.0536L12.8906 5.80899V7.56311C12.8194 7.60417 12.7602 7.66327 12.7191 7.73446C12.6779 7.80564 12.6563 7.88641 12.6562 7.96864V11.0155H13.5937V7.96864C13.5937 7.88641 13.5721 7.80564 13.5309 7.73446C13.4898 7.66327 13.4306 7.60417 13.3594 7.56311V5.59884L13.9156 5.3495C13.9981 5.31251 14.0682 5.25245 14.1173 5.17656C14.1665 5.10066 14.1926 5.01218 14.1926 4.92176C14.1926 4.83134 14.1665 4.74286 14.1173 4.66696C14.0682 4.59107 13.9981 4.53101 13.9156 4.49403H13.9157Z" fill="#1B2746"/>
</svg>
