<svg width="13" height="15" viewBox="0 0 13 15" fill="none" xmlns="http://www.w3.org/2000/svg">
<path d="M10.1895 6.15817L7.00768 9.65817C6.90162 9.77484 6.79555 9.83317 6.63646 9.83317C6.47737 9.83317 6.37131 9.77484 6.26525 9.65817L3.08341 6.15817C2.87129 5.92484 2.87129 5.57484 3.08341 5.3415C3.29553 5.10817 3.61372 5.10817 3.82584 5.3415L6.63646 8.43317L9.44709 5.3415C9.65921 5.10817 9.97739 5.10817 10.1895 5.3415C10.4016 5.57484 10.4016 5.92484 10.1895 6.15817Z" fill="black"/>
<mask id="mask0" style="mask-type:alpha" maskUnits="userSpaceOnUse" x="2" y="5" width="9" height="5">
<path d="M10.1895 6.15817L7.00768 9.65817C6.90162 9.77484 6.79555 9.83317 6.63646 9.83317C6.47737 9.83317 6.37131 9.77484 6.26525 9.65817L3.08341 6.15817C2.87129 5.92484 2.87129 5.57484 3.08341 5.3415C3.29553 5.10817 3.61372 5.10817 3.82584 5.3415L6.63646 8.43317L9.44709 5.3415C9.65921 5.10817 9.97739 5.10817 10.1895 5.3415C10.4016 5.57484 10.4016 5.92484 10.1895 6.15817Z" fill="white"/>
</mask>
<g mask="url(#mask0)">
<rect x="0.272705" y="0.5" width="12.7274" height="14" fill="#BABFC7"/>
</g>
</svg>
