<svg width="17" height="18" viewBox="0 0 17 18" fill="none" xmlns="http://www.w3.org/2000/svg">
<path fill-rule="evenodd" clip-rule="evenodd" d="M8.46529 2.5H9.40697C9.65741 2.5 9.86046 2.70304 9.86046 2.95349C9.86046 3.20394 9.65741 3.40698 9.40697 3.40698H8.49999C7.062 3.40698 6.02912 3.40794 5.24309 3.51362C4.4701 3.61755 4.00408 3.8152 3.65964 4.15965C3.3152 4.50409 3.11755 4.9701 3.01362 5.74309C2.90794 6.52913 2.90698 7.56201 2.90698 9C2.90698 10.438 2.90794 11.4708 3.01362 12.2569C3.11755 13.0299 3.3152 13.4959 3.65964 13.8404C4.00408 14.1848 4.4701 14.3825 5.24309 14.4864C6.02912 14.5921 7.062 14.593 8.49999 14.593C9.93797 14.593 10.9708 14.5921 11.7569 14.4864C12.5299 14.3825 12.9959 14.1848 13.3403 13.8404C13.6848 13.4959 13.8825 13.0299 13.9863 12.2569C14.092 11.4708 14.093 10.438 14.093 9V8.09302C14.093 7.84258 14.2961 7.63953 14.5465 7.63953C14.7969 7.63953 15 7.84258 15 8.09302V9.03471C15 10.4305 15 11.5243 14.8853 12.3778C14.7678 13.2513 14.5227 13.9407 13.9817 14.4817C13.4407 15.0227 12.7513 15.2678 11.8778 15.3853C11.0243 15.5 9.93047 15.5 8.5347 15.5H8.46529C7.06953 15.5 5.97569 15.5 5.12224 15.3853C4.24868 15.2678 3.55936 15.0227 3.01832 14.4817C2.47727 13.9407 2.23218 13.2513 2.11473 12.3778C1.99999 11.5243 1.99999 10.4305 2 9.03471V8.96529C1.99999 7.56953 1.99999 6.4757 2.11473 5.62224C2.23218 4.74868 2.47727 4.05937 3.01832 3.51832C3.55936 2.97727 4.24868 2.73218 5.12224 2.61473C5.97569 2.49999 7.06953 2.49999 8.46529 2.5ZM11.3845 3.12032C12.2116 2.29323 13.5526 2.29323 14.3797 3.12032C15.2068 3.94741 15.2068 5.2884 14.3797 6.11549L10.3599 10.1353C10.1354 10.3598 9.99475 10.5004 9.83784 10.6229C9.653 10.767 9.45298 10.8906 9.24135 10.9915C9.06171 11.0771 8.873 11.14 8.57182 11.2404L6.81559 11.8258C6.49135 11.9338 6.13387 11.8495 5.8922 11.6078C5.65053 11.3661 5.56614 11.0087 5.67422 10.6844L6.25962 8.92817C6.36001 8.62699 6.42289 8.43828 6.50852 8.25864C6.60936 8.04701 6.73297 7.84699 6.87714 7.66216C6.99955 7.50522 7.14019 7.36459 7.3647 7.14009L11.3845 3.12032ZM13.7383 3.76165C13.2654 3.28876 12.4987 3.28876 12.0258 3.76165L11.7981 3.98938C11.8118 4.04734 11.831 4.1164 11.8577 4.19342C11.9444 4.44318 12.1084 4.7721 12.4181 5.08185C12.7279 5.39161 13.0568 5.55558 13.3065 5.64223C13.3836 5.66896 13.4526 5.68816 13.5106 5.70189L13.7383 5.47416C14.2112 5.00127 14.2112 4.23454 13.7383 3.76165ZM12.7961 6.41638C12.4842 6.28221 12.1208 6.06712 11.7768 5.72318C11.4328 5.37926 11.2178 5.01584 11.0836 4.70387L8.02685 7.76062C7.77502 8.01248 7.67622 8.11237 7.59229 8.21994C7.48865 8.35284 7.39977 8.49669 7.32727 8.64882C7.26854 8.77205 7.22338 8.90501 7.11075 9.24289L6.8496 10.0263L7.47366 10.6504L8.2571 10.3892C8.59498 10.2766 8.72795 10.2314 8.85117 10.1727C9.0033 10.1002 9.14715 10.0113 9.28005 9.9077C9.38762 9.82378 9.48751 9.72498 9.73934 9.47314L12.7961 6.41638Z" fill="#7C878E"/>
</svg>
