<svg width="37" height="37" viewBox="0 0 37 37" fill="none" xmlns="http://www.w3.org/2000/svg">
<path d="M1.15625 6.9375C1.7945 6.9375 2.3125 7.4555 2.3125 8.09375V15.0312H6.65769L4.48509 12.8592C3.8295 12.2036 3.46875 11.333 3.46875 10.4062C3.46875 9.47952 3.8295 8.60886 4.48452 7.95442C5.13953 7.29883 6.01019 6.9375 6.9375 6.9375C7.86481 6.9375 8.73547 7.29883 9.38991 7.95384L11.8429 10.4062H21.9688C22.607 10.4062 23.125 10.9243 23.125 11.5625C23.125 12.2007 22.607 12.7188 21.9688 12.7188H11.3642C11.0578 12.7188 10.7635 12.5968 10.5467 12.38L7.75439 9.5882C7.31848 9.1523 6.55709 9.15114 6.12003 9.58936C5.9015 9.80731 5.78125 10.0975 5.78125 10.4062C5.78125 10.715 5.9015 11.0052 6.12003 11.2237L9.58878 14.6925C9.80442 14.9075 10.1022 15.0312 10.4062 15.0312H31.2188V13.875C31.2188 13.2373 30.7002 12.7188 30.0625 12.7188H28.9062C28.268 12.7188 27.75 12.2007 27.75 11.5625C27.75 10.9243 28.268 10.4062 28.9062 10.4062H30.0625C31.9755 10.4062 33.5312 11.962 33.5312 13.875V15.0312H34.6875V9.25C34.6875 8.61175 35.2055 8.09375 35.8438 8.09375C36.482 8.09375 37 8.61175 37 9.25V16.1875V20.8125C37 21.4508 36.482 21.9688 35.8438 21.9688H28.2287L29.7237 23.4638C29.7249 23.4649 29.7255 23.4661 29.7266 23.4672C30.1793 23.2505 30.684 23.125 31.2188 23.125C33.1318 23.125 34.6875 24.6807 34.6875 26.5938C34.6875 28.5068 33.1318 30.0625 31.2188 30.0625C29.7122 30.0625 28.4305 29.0947 27.9523 27.75H9.04766C8.56955 29.0947 7.28784 30.0625 5.78125 30.0625C3.86823 30.0625 2.3125 28.5068 2.3125 26.5938C2.3125 24.6807 3.86823 23.125 5.78125 23.125C6.31602 23.125 6.82072 23.2505 7.27339 23.4672C7.27455 23.4661 7.27512 23.4649 7.27628 23.4638L8.77131 21.9688H1.15625C0.518002 21.9688 0 21.4508 0 20.8125V16.1875V8.09375C0 7.4555 0.518002 6.9375 1.15625 6.9375ZM31.2188 27.75C31.8564 27.75 32.375 27.2314 32.375 26.5938C32.375 25.9561 31.8564 25.4375 31.2188 25.4375C30.5811 25.4375 30.0625 25.9561 30.0625 26.5938C30.0625 27.2314 30.5811 27.75 31.2188 27.75ZM5.78125 25.4375C5.14358 25.4375 4.625 25.9561 4.625 26.5938C4.625 27.2314 5.14358 27.75 5.78125 27.75C6.41892 27.75 6.9375 27.2314 6.9375 26.5938C6.9375 25.9561 6.41892 25.4375 5.78125 25.4375ZM2.3125 19.6562H11.5625C12.0302 19.6562 12.4517 19.9378 12.6309 20.3697C12.8101 20.8021 12.7112 21.2987 12.38 21.63L8.91122 25.0987C8.91006 25.0999 8.90891 25.1005 8.90775 25.1016C8.96036 25.2103 9.00661 25.3225 9.04766 25.4375H27.9523C27.9934 25.3225 28.0396 25.2103 28.0922 25.1016C28.0911 25.1005 28.0899 25.0999 28.0888 25.0987L24.9588 21.9688H18.5C17.8617 21.9688 17.3438 21.4508 17.3438 20.8125C17.3438 20.1742 17.8617 19.6562 18.5 19.6562H25.4375H34.6875V17.3438H2.3125V19.6562Z" fill="#0696D6"/>
<path d="M25.4375 12.7189C25.1311 12.7189 24.8363 12.5975 24.6223 12.3779C24.4027 12.1639 24.2812 11.8633 24.2812 11.5627C24.2812 11.2615 24.4027 10.9614 24.6223 10.7418C25.0502 10.3139 25.8248 10.3139 26.2584 10.7418C26.4723 10.9614 26.5938 11.2563 26.5938 11.5627C26.5938 11.8633 26.4723 12.1639 26.2527 12.3779C26.0387 12.5975 25.7439 12.7189 25.4375 12.7189Z" fill="black"/>
<path d="M15.8522 19.9918C16.0661 20.2114 16.1875 20.5063 16.1875 20.8127C16.1875 21.1191 16.0661 21.4139 15.8522 21.6279C15.6325 21.8475 15.3325 21.9689 15.0312 21.9689C14.7306 21.9689 14.43 21.8475 14.2161 21.6279C13.9964 21.4139 13.875 21.1191 13.875 20.8127C13.875 20.5115 13.9964 20.2114 14.2161 19.9918C14.6439 19.5639 15.4186 19.5639 15.8522 19.9918Z" fill="black"/>
</svg>
