<svg width="15" height="16" viewBox="0 0 15 16" fill="none" xmlns="http://www.w3.org/2000/svg">
<path fill-rule="evenodd" clip-rule="evenodd" d="M2.49994 3.625C2.33418 3.625 2.17521 3.69085 2.058 3.80806C1.94079 3.92527 1.87494 4.08424 1.87494 4.25V13C1.87494 13.1658 1.94079 13.3247 2.058 13.4419C2.17521 13.5592 2.33418 13.625 2.49994 13.625H11.2499C11.4157 13.625 11.5747 13.5592 11.6919 13.4419C11.8091 13.3247 11.8749 13.1658 11.8749 13V9.6625C11.8749 9.31732 12.1548 9.0375 12.4999 9.0375C12.8451 9.0375 13.1249 9.31732 13.1249 9.6625V13C13.1249 13.4973 12.9274 13.9742 12.5758 14.3258C12.2241 14.6775 11.7472 14.875 11.2499 14.875H2.49994C2.00266 14.875 1.52574 14.6775 1.17411 14.3258C0.822483 13.9742 0.624939 13.4973 0.624939 13V4.25C0.624939 3.75272 0.822483 3.27581 1.17411 2.92417C1.52574 2.57254 2.00266 2.375 2.49994 2.375H5.83744C6.18262 2.375 6.46244 2.65482 6.46244 3C6.46244 3.34518 6.18262 3.625 5.83744 3.625H2.49994Z" fill="#0696D6"/>
<path fill-rule="evenodd" clip-rule="evenodd" d="M10.808 1.30806C11.0521 1.06398 11.4478 1.06398 11.6919 1.30806L14.1919 3.80806C14.436 4.05214 14.436 4.44786 14.1919 4.69194L7.94188 10.9419C7.82467 11.0591 7.6657 11.125 7.49994 11.125H4.99994C4.65476 11.125 4.37494 10.8452 4.37494 10.5V8C4.37494 7.83424 4.44079 7.67527 4.558 7.55806L10.808 1.30806ZM5.62494 8.25888V9.875H7.24106L12.8661 4.25L11.2499 2.63388L5.62494 8.25888Z" fill="#0696D6"/>
</svg>
