<svg width="18" height="19" viewBox="0 0 18 19" fill="none" xmlns="http://www.w3.org/2000/svg">
<path d="M6.40378 8.84216H5.74609V10.1575H6.40378H11.6653H12.323V8.84216H11.6653H6.40378Z" fill="#1B2746"/>
<path d="M6.40378 11.473H5.74609V12.7884H6.40378H8.37685H9.03454V11.473H8.37685H6.40378Z" fill="#1B2746"/>
<path d="M11.9348 0.950012H1.7998V16.0769C1.7998 16.6002 2.00768 17.102 2.3777 17.472C2.74772 17.8421 3.24958 18.0499 3.77287 18.0499H14.2959C14.8192 18.0499 15.321 17.8421 15.6911 17.472C16.0611 17.102 16.269 16.6002 16.269 16.0769V5.28418L11.9348 0.950012ZM11.6651 2.53504L14.6839 5.55384H12.3228C12.1484 5.55384 11.9811 5.48454 11.8578 5.3612C11.7344 5.23786 11.6651 5.07058 11.6651 4.89615V2.53504ZM14.2959 16.7346H3.77287C3.59844 16.7346 3.43116 16.6653 3.30782 16.5419C3.18448 16.4186 3.11518 16.2513 3.11518 16.0769V2.26539H10.3498V4.89615C10.3498 5.41944 10.5576 5.92129 10.9277 6.29132C11.2977 6.66134 11.7995 6.86921 12.3228 6.86921H14.9536V16.0769C14.9536 16.2513 14.8843 16.4186 14.761 16.5419C14.6376 16.6653 14.4703 16.7346 14.2959 16.7346Z" fill="#0696D6"/>
</svg>
