<svg width="16" height="17" viewBox="0 0 16 17" fill="none" xmlns="http://www.w3.org/2000/svg">
<path fill-rule="evenodd" clip-rule="evenodd" d="M7.95728 0.5H9.11628C9.42452 0.5 9.67442 0.74989 9.67442 1.05814C9.67442 1.36639 9.42452 1.61628 9.11628 1.61628H8C6.23016 1.61628 4.95893 1.61746 3.9915 1.74753C3.04013 1.87544 2.46657 2.11871 2.04264 2.54264C1.61871 2.96657 1.37544 3.54013 1.24753 4.4915C1.11746 5.45893 1.11628 6.73016 1.11628 8.5C1.11628 10.2698 1.11746 11.541 1.24753 12.5085C1.37544 13.4599 1.61871 14.0334 2.04264 14.4574C2.46657 14.8813 3.04013 15.1246 3.9915 15.2524C4.95893 15.3825 6.23016 15.3837 8 15.3837C9.76982 15.3837 11.041 15.3825 12.0085 15.2524C12.9599 15.1246 13.5334 14.8813 13.9574 14.4574C14.3813 14.0334 14.6246 13.4599 14.7524 12.5085C14.8825 11.541 14.8837 10.2698 14.8837 8.5V7.38372C14.8837 7.07548 15.1336 6.82558 15.4419 6.82558C15.7501 6.82558 16 7.07548 16 7.38372V8.54272C16 10.2606 16 11.6068 15.8588 12.6572C15.7142 13.7324 15.4126 14.5808 14.7467 15.2467C14.0808 15.9126 13.2324 16.2142 12.1572 16.3588C11.1068 16.5 9.7606 16.5 8.04272 16.5H7.95728C6.23943 16.5 4.89317 16.5 3.84276 16.3588C2.76761 16.2142 1.91922 15.9126 1.25331 15.2467C0.587408 14.5808 0.28576 13.7324 0.141209 12.6572C-1.48041e-05 11.6068 -7.33382e-06 10.2606 1.08045e-07 8.54272V8.45728C-7.33382e-06 6.73943 -1.48041e-05 5.39316 0.141209 4.34276C0.28576 3.26761 0.587408 2.41922 1.25331 1.75331C1.91922 1.08741 2.76761 0.78576 3.84276 0.641209C4.89317 0.499985 6.23943 0.499993 7.95728 0.5ZM11.5501 1.26348C12.5681 0.24551 14.2186 0.24551 15.2365 1.26348C16.2545 2.28143 16.2545 3.93187 15.2365 4.94984L10.2891 9.89728C10.0128 10.1736 9.8397 10.3467 9.64659 10.4974C9.41909 10.6748 9.17291 10.8269 8.91245 10.9511C8.69135 11.0564 8.45909 11.1338 8.08841 11.2574L5.92689 11.9779C5.52782 12.1109 5.08785 12.0071 4.79041 11.7096C4.49296 11.4121 4.3891 10.9722 4.52212 10.5731L5.24262 8.41159C5.36617 8.04091 5.44357 7.80865 5.54895 7.58755C5.67307 7.32709 5.8252 7.08091 6.00264 6.85343C6.1533 6.66028 6.3264 6.48719 6.60272 6.21088L11.5501 1.26348ZM14.4472 2.0528C13.8652 1.47078 12.9215 1.47078 12.3395 2.0528L12.0592 2.33308C12.0761 2.40442 12.0997 2.48941 12.1326 2.58421C12.2393 2.89161 12.4411 3.29644 12.8223 3.67767C13.2036 4.0589 13.6084 4.26071 13.9158 4.36736C14.0106 4.40026 14.0956 4.42389 14.1669 4.44079L14.4472 4.16051C15.0292 3.57848 15.0292 2.63482 14.4472 2.0528ZM13.2875 5.32016C12.9036 5.15503 12.4563 4.8903 12.033 4.467C11.6097 4.0437 11.345 3.59642 11.1798 3.21245L7.41767 6.97461C7.10772 7.2846 6.98612 7.40753 6.88283 7.53993C6.75528 7.7035 6.64588 7.88054 6.55665 8.06778C6.48437 8.21944 6.42879 8.38309 6.29016 8.79894L5.96875 9.76318L6.73682 10.5313L7.70106 10.2098C8.11691 10.0712 8.28056 10.0156 8.43222 9.94335C8.61946 9.85412 8.7965 9.74473 8.96008 9.61717C9.09247 9.51388 9.21541 9.39228 9.52536 9.08233L13.2875 5.32016Z" fill="#1B2746"/>
</svg>
