<svg width="11" height="13" viewBox="0 0 11 13" fill="none" xmlns="http://www.w3.org/2000/svg">
<path fill-rule="evenodd" clip-rule="evenodd" d="M4.92778 0.677246H6.07222C7.06769 0.677236 7.85614 0.67723 8.47321 0.760197C9.10826 0.845575 9.6223 1.02547 10.0277 1.43083C10.433 1.8362 10.6129 2.35022 10.6983 2.98528C10.7812 3.60235 10.7812 4.39082 10.7812 5.38627V7.61405C10.7812 8.60952 10.7812 9.39797 10.6983 10.015C10.6129 10.6501 10.433 11.1641 10.0277 11.5695C9.6223 11.9748 9.10826 12.1547 8.47321 12.2401C7.85614 12.3231 7.06769 12.3231 6.07222 12.3231H4.92778C3.93232 12.3231 3.14385 12.3231 2.52678 12.2401C1.89172 12.1547 1.37771 11.9748 0.972338 11.5695C0.566977 11.1641 0.387079 10.6501 0.301701 10.015C0.218734 9.39797 0.218739 8.60952 0.21875 7.61405V5.38627C0.218739 4.39081 0.218734 3.60235 0.301701 2.98528C0.387079 2.35022 0.566977 1.8362 0.972338 1.43083C1.37771 1.02547 1.89172 0.845575 2.52678 0.760197C3.14385 0.67723 3.93232 0.677236 4.92778 0.677246ZM2.63504 1.56545C2.09008 1.63872 1.7761 1.77612 1.54686 2.00536C1.31762 2.2346 1.18022 2.54857 1.10695 3.09354C1.03211 3.65019 1.03125 4.38397 1.03125 5.41683V7.5835C1.03125 8.61635 1.03211 9.35014 1.10695 9.90681C1.18022 10.4517 1.31762 10.7657 1.54686 10.995C1.7761 11.2242 2.09008 11.3616 2.63504 11.4349C3.19169 11.5097 3.92547 11.5106 4.95833 11.5106H6.04167C7.07452 11.5106 7.80831 11.5097 8.36498 11.4349C8.9099 11.3616 9.2239 11.2242 9.45314 10.995C9.68237 10.7657 9.81979 10.4517 9.89302 9.90681C9.96788 9.35014 9.96875 8.61635 9.96875 7.5835V5.41683C9.96875 4.38397 9.96788 3.65019 9.89302 3.09354C9.81979 2.54857 9.68237 2.2346 9.45314 2.00536C9.2239 1.77612 8.9099 1.63872 8.36498 1.56545C7.80831 1.49061 7.07452 1.48975 6.04167 1.48975H4.95833C3.92547 1.48975 3.19169 1.49061 2.63504 1.56545ZM2.92708 4.3335C2.92708 4.10913 3.10897 3.92725 3.33333 3.92725H7.66667C7.89102 3.92725 8.07292 4.10913 8.07292 4.3335C8.07292 4.55786 7.89102 4.73975 7.66667 4.73975H3.33333C3.10897 4.73975 2.92708 4.55786 2.92708 4.3335ZM2.92708 6.50016C2.92708 6.2758 3.10897 6.09391 3.33333 6.09391H7.66667C7.89102 6.09391 8.07292 6.2758 8.07292 6.50016C8.07292 6.72452 7.89102 6.90641 7.66667 6.90641H3.33333C3.10897 6.90641 2.92708 6.72452 2.92708 6.50016ZM2.92708 8.66683C2.92708 8.44247 3.10897 8.26058 3.33333 8.26058H6.04167C6.26602 8.26058 6.44792 8.44247 6.44792 8.66683C6.44792 8.89119 6.26602 9.07308 6.04167 9.07308H3.33333C3.10897 9.07308 2.92708 8.89119 2.92708 8.66683Z" fill="#0696D6"/>
</svg>
