<svg width="20" height="20" viewBox="0 0 20 20" fill="none" xmlns="http://www.w3.org/2000/svg">
<g clip-path="url(#clip0_21040_4350)">
<path d="M6.04169 5.8335C6.04169 6.17867 6.32151 6.4585 6.66669 6.4585H13.3334C13.6785 6.4585 13.9584 6.17867 13.9584 5.8335C13.9584 5.48832 13.6785 5.2085 13.3334 5.2085H6.66669C6.32151 5.2085 6.04169 5.48832 6.04169 5.8335Z" fill="#1B2746"/>
<path d="M10 14.7918C10.3452 14.7918 10.625 14.512 10.625 14.1668V9.84241L12.0581 11.2754C12.3022 11.5195 12.6978 11.5195 12.9419 11.2754C13.186 11.0313 13.186 10.6357 12.9419 10.3916L10.4419 7.89155C10.3247 7.77435 10.1657 7.7085 10 7.7085C9.83425 7.7085 9.67525 7.77435 9.55808 7.89155L7.05806 10.3916C6.81398 10.6357 6.81398 11.0313 7.05806 11.2754C7.30213 11.5195 7.69786 11.5195 7.94194 11.2754L9.375 9.84241V14.1668C9.375 14.512 9.65483 14.7918 10 14.7918Z" fill="#1C274C"/>
<path fill-rule="evenodd" clip-rule="evenodd" d="M9.95219 1.0415C8.02855 1.0415 6.52101 1.04149 5.34477 1.19963C4.14083 1.3615 3.19081 1.69928 2.44514 2.44495C1.69946 3.19063 1.36168 4.14065 1.19981 5.3446C1.04167 6.52083 1.04168 8.02836 1.04169 9.952V10.0477C1.04168 11.9713 1.04167 13.4788 1.19981 14.6551C1.36168 15.859 1.69946 16.8091 2.44514 17.5548C3.19081 18.3004 4.14083 18.6382 5.34477 18.8001C6.52101 18.9582 8.02855 18.9582 9.95219 18.9582H10.0479C11.9715 18.9582 13.479 18.9582 14.6553 18.8001C15.8592 18.6382 16.8093 18.3004 17.5549 17.5548C18.3006 16.8091 18.6384 15.859 18.8003 14.6551C18.9584 13.4788 18.9584 11.9713 18.9584 10.0477V9.952C18.9584 8.02836 18.9584 6.52083 18.8003 5.3446C18.6384 4.14065 18.3006 3.19063 17.5549 2.44495C16.8093 1.69928 15.8592 1.3615 14.6553 1.19963C13.479 1.04149 11.9715 1.0415 10.0479 1.0415H9.95219ZM3.32902 3.32884C3.80373 2.85412 4.446 2.58171 5.51134 2.43848C6.59465 2.29283 8.01816 2.2915 10 2.2915C11.9819 2.2915 13.4054 2.29283 14.4887 2.43848C15.554 2.58171 16.1963 2.85412 16.671 3.32884C17.1458 3.80355 17.4182 4.44581 17.5614 5.51115C17.707 6.59447 17.7084 8.01799 17.7084 9.99984C17.7084 11.9817 17.707 13.4052 17.5614 14.4885C17.4182 15.5538 17.1458 16.1961 16.671 16.6708C16.1963 17.1456 15.554 17.418 14.4887 17.5612C13.4054 17.7068 11.9819 17.7082 10 17.7082C8.01816 17.7082 6.59465 17.7068 5.51134 17.5612C4.446 17.418 3.80373 17.1456 3.32902 16.6708C2.8543 16.1961 2.5819 15.5538 2.43866 14.4885C2.29301 13.4052 2.29169 11.9817 2.29169 9.99984C2.29169 8.01799 2.29301 6.59447 2.43866 5.51115C2.5819 4.44581 2.8543 3.80355 3.32902 3.32884Z" fill="#1C274C"/>
</g>
<defs>
<clipPath id="clip0_21040_4350">
<rect width="20" height="20" fill="white"/>
</clipPath>
</defs>
</svg>
