<svg width="38" height="38" viewBox="0 0 38 38" fill="none" xmlns="http://www.w3.org/2000/svg">
<path d="M32.5462 36.4167H5.45362C4.42714 36.4167 3.44269 36.0163 2.71686 35.3037C1.99102 34.5911 1.58325 33.6245 1.58325 32.6167V28.8167C1.58325 28.3128 1.78714 27.8295 2.15005 27.4732C2.51297 27.1169 3.00519 26.9167 3.51844 26.9167C4.03168 26.9167 4.5239 27.1169 4.88682 27.4732C5.24974 27.8295 5.45362 28.3128 5.45362 28.8167V32.6167H32.5462V28.8167C32.5462 28.3128 32.7501 27.8295 33.113 27.4732C33.4759 27.1169 33.9682 26.9167 34.4814 26.9167C34.9946 26.9167 35.4869 27.1169 35.8498 27.4732C36.2127 27.8295 36.4166 28.3128 36.4166 28.8167V32.6167C36.4166 33.6245 36.0088 34.5911 35.283 35.3037C34.5571 36.0163 33.5727 36.4167 32.5462 36.4167Z" fill="#464646"/>
<path d="M31.2143 4.74998H6.78571C6.24581 4.74998 5.72802 4.58316 5.34625 4.28623C4.96448 3.9893 4.75 3.58657 4.75 3.16665C4.75 2.74672 4.96448 2.34399 5.34625 2.04706C5.72802 1.75013 6.24581 1.58331 6.78571 1.58331H31.2143C31.7542 1.58331 32.272 1.75013 32.6538 2.04706C33.0355 2.34399 33.25 2.74672 33.25 3.16665C33.25 3.58657 33.0355 3.9893 32.6538 4.28623C32.272 4.58316 31.7542 4.74998 31.2143 4.74998Z" fill="#464646"/>
<path d="M26.346 15.8606L20.4058 10.0519C20.2175 9.87558 19.9954 9.7374 19.7523 9.64525C19.2703 9.45158 18.7296 9.45158 18.2475 9.64525C18.0044 9.7374 17.7824 9.87558 17.5941 10.0519L11.6539 15.8606C11.3791 16.1329 11.193 16.4787 11.119 16.8543C11.045 17.2299 11.0864 17.6185 11.2381 17.9712C11.3866 18.3248 11.6389 18.6274 11.963 18.8411C12.2872 19.0547 12.6688 19.1697 13.0597 19.1716H17.0199V24.9804C17.0199 25.4939 17.2285 25.9864 17.5998 26.3495C17.9711 26.7127 18.4748 26.9167 18.9999 26.9167C19.5251 26.9167 20.0287 26.7127 20.4 26.3495C20.7714 25.9864 20.98 25.4939 20.98 24.9804V19.1716H24.9401C25.331 19.1697 25.7126 19.0547 26.0368 18.8411C26.361 18.6274 26.6132 18.3248 26.7618 17.9712C26.9134 17.6185 26.9548 17.2299 26.8808 16.8543C26.8068 16.4787 26.6207 16.1329 26.346 15.8606Z" fill="#464646"/>
</svg>
