<svg width="40" height="40" viewBox="0 0 40 40" fill="none" xmlns="http://www.w3.org/2000/svg">
<path fill-rule="evenodd" clip-rule="evenodd" d="M10.4166 3.33333C10.4166 2.64298 10.9762 2.08333 11.6666 2.08333H28.3333C29.0236 2.08333 29.5833 2.64298 29.5833 3.33333C29.5833 4.02368 29.0236 4.58333 28.3333 4.58333H11.6666C10.9762 4.58333 10.4166 4.02368 10.4166 3.33333ZM19.9306 7.08333H20.0693C22.3513 7.08331 24.1594 7.08329 25.6034 7.23019C27.0828 7.38068 28.3178 7.69564 29.3983 8.41753C30.2626 8.99511 31.0047 9.73731 31.5824 10.6017C32.3043 11.6821 32.6193 12.9172 32.7698 14.3966C32.9166 15.8405 32.9166 17.6487 32.9166 19.9307V20.0693C32.9166 22.3513 32.9166 24.1595 32.7698 25.6035C32.6193 27.0828 32.3043 28.3178 31.5824 29.3983C31.0047 30.2627 30.2626 31.0048 29.3983 31.5825C28.3178 32.3043 27.0828 32.6193 25.6034 32.7698C24.1594 32.9167 22.3513 32.9167 20.0693 32.9167H19.9306C17.6486 32.9167 15.8404 32.9167 14.3965 32.7698C12.9171 32.6193 11.682 32.3043 10.6017 31.5825C9.73724 31.0048 8.99504 30.2627 8.41745 29.3983C7.69557 28.3178 7.3806 27.0828 7.23012 25.6035C7.08322 24.1595 7.08324 22.3513 7.08325 20.0693V19.9307C7.08324 17.6487 7.08322 15.8405 7.23012 14.3966C7.3806 12.9172 7.69557 11.6821 8.41745 10.6017C8.99504 9.73731 9.73724 8.99511 10.6017 8.41753C11.682 7.69564 12.9171 7.38068 14.3965 7.23019C15.8404 7.08329 17.6486 7.08331 19.9306 7.08333ZM14.6495 9.71734C13.3678 9.84774 12.5917 10.0945 11.9906 10.4962C11.3991 10.8914 10.8913 11.3992 10.4961 11.9907C10.0945 12.5918 9.84767 13.3678 9.71727 14.6496C9.58477 15.9522 9.58325 17.6332 9.58325 20C9.58325 22.3668 9.58477 24.0478 9.71727 25.3503C9.84767 26.6322 10.0945 27.4082 10.4961 28.0093C10.8913 28.6008 11.3991 29.1087 11.9906 29.5038C12.5917 29.9055 13.3678 30.1523 14.6495 30.2827C15.9521 30.4152 17.6331 30.4167 19.9999 30.4167C22.3668 30.4167 24.0478 30.4152 25.3503 30.2827C26.6321 30.1523 27.4081 29.9055 28.0093 29.5038C28.6007 29.1087 29.1086 28.6008 29.5037 28.0093C29.9054 27.4082 30.1523 26.6322 30.2826 25.3503C30.4151 24.0478 30.4166 22.3668 30.4166 20C30.4166 17.6332 30.4151 15.9522 30.2826 14.6496C30.1523 13.3678 29.9054 12.5918 29.5037 11.9907C29.1086 11.3992 28.6007 10.8914 28.0093 10.4962C27.4081 10.0945 26.6321 9.84774 25.3503 9.71734C24.0478 9.58484 22.3668 9.58333 19.9999 9.58333C17.6331 9.58333 15.9521 9.58484 14.6495 9.71734ZM19.9999 13.75C20.6903 13.75 21.2499 14.3096 21.2499 15V19.596L24.1996 22.4323C24.6973 22.9108 24.7128 23.702 24.2343 24.1997C23.7558 24.6973 22.9644 24.7128 22.4669 24.2343L19.7729 21.644C19.2684 21.159 19.0163 20.9165 18.8831 20.6037C18.7499 20.2908 18.7499 19.941 18.7499 19.2412V15C18.7499 14.3096 19.3096 13.75 19.9999 13.75ZM10.4166 36.6667C10.4166 35.9763 10.9762 35.4167 11.6666 35.4167H28.3333C29.0236 35.4167 29.5833 35.9763 29.5833 36.6667C29.5833 37.357 29.0236 37.9167 28.3333 37.9167H11.6666C10.9762 37.9167 10.4166 37.357 10.4166 36.6667Z" fill="#1C274C"/>
</svg>
