<svg width="40" height="40" viewBox="0 0 40 40" fill="none" xmlns="http://www.w3.org/2000/svg">
<path fill-rule="evenodd" clip-rule="evenodd" d="M20.0001 15.2833C17.3905 15.2833 15.2834 17.3904 15.2834 20C15.2834 20.8506 15.5067 21.6442 15.9006 22.3318L22.3319 15.9005C21.6443 15.5066 20.8507 15.2833 20.0001 15.2833ZM12.7834 20C12.7834 16.0097 16.0098 12.7833 20.0001 12.7833C21.9965 12.7833 23.7936 13.5924 25.1007 14.8995C25.5888 15.3876 25.5888 16.1791 25.1007 16.6672L16.6673 25.1006C16.1792 25.5887 15.3877 25.5887 14.8996 25.1006C13.5925 23.7935 12.7834 21.9964 12.7834 20Z" fill="#1E272F"/>
<path fill-rule="evenodd" clip-rule="evenodd" d="M3.76247 15.0116C7.74734 8.74766 13.5867 4.96666 20 4.96666C23.7494 4.96666 27.3424 6.27267 30.4527 8.61872C31.0039 9.03444 31.1136 9.81825 30.6979 10.3694C30.2822 10.9205 29.4984 11.0303 28.9472 10.6146C26.2242 8.56065 23.1506 7.46666 20 7.46666C14.6469 7.46666 9.51981 10.6187 5.87135 16.3542L5.8703 16.3559C5.27933 17.2817 4.94165 18.6071 4.94165 20.0083C4.94165 21.4096 5.27933 22.7349 5.8703 23.6608L5.87088 23.6617C7.12716 25.6336 8.58183 27.3217 10.1484 28.6689C10.6718 29.1191 10.7312 29.9083 10.281 30.4317C9.83091 30.9551 9.04169 31.0145 8.51827 30.5644C6.75147 29.0449 5.13947 27.1664 3.76242 25.005C2.8538 23.581 2.44165 21.7567 2.44165 20.0083C2.44165 18.2599 2.85381 16.4356 3.76247 15.0116Z" fill="#1E272F"/>
<path fill-rule="evenodd" clip-rule="evenodd" d="M32.6332 12.2427C33.1711 11.81 33.9579 11.8953 34.3906 12.4332C35.0304 13.2287 35.659 14.0834 36.2387 14.9969C37.1465 16.4206 37.5583 18.2441 37.5583 19.9917C37.5583 21.7401 37.1461 23.5644 36.2375 24.9884C32.2526 31.2523 26.4132 35.0333 19.9999 35.0333C17.7724 35.0333 15.5913 34.5623 13.5482 33.7021C12.912 33.4342 12.6133 32.7012 12.8812 32.0649C13.1491 31.4287 13.8821 31.1301 14.5184 31.398C16.2752 32.1377 18.1275 32.5333 19.9999 32.5333C25.353 32.5333 30.4801 29.3813 34.1286 23.6458L34.1296 23.6441C34.7206 22.7183 35.0583 21.3929 35.0583 19.9917C35.0583 18.5904 34.7206 17.2651 34.1296 16.3392L34.1279 16.3365C33.6076 15.5166 33.0361 14.738 32.4426 14.0001C32.0099 13.4622 32.0952 12.6753 32.6332 12.2427Z" fill="#1E272F"/>
<path fill-rule="evenodd" clip-rule="evenodd" d="M26.0766 19.9374C26.7555 20.0626 27.2043 20.7144 27.0792 21.3933C26.5518 24.2531 24.2363 26.5686 21.3766 27.0959C20.6976 27.2211 20.0458 26.7722 19.9206 26.0933C19.7954 25.4144 20.2443 24.7626 20.9232 24.6374C22.7635 24.2981 24.2813 22.7802 24.6206 20.94C24.7458 20.2611 25.3976 19.8122 26.0766 19.9374Z" fill="#1E272F"/>
<path fill-rule="evenodd" clip-rule="evenodd" d="M16.6671 23.3328C17.1553 23.8209 17.1553 24.6124 16.6671 25.1006L4.21714 37.5506C3.72898 38.0387 2.93752 38.0387 2.44937 37.5506C1.96121 37.0624 1.96121 36.2709 2.44937 35.7828L14.8994 23.3328C15.3875 22.8446 16.179 22.8446 16.6671 23.3328Z" fill="#1E272F"/>
<path fill-rule="evenodd" clip-rule="evenodd" d="M37.5504 2.44944C38.0386 2.9376 38.0386 3.72906 37.5504 4.21721L25.1004 16.6672C24.6123 17.1554 23.8208 17.1554 23.3327 16.6672C22.8445 16.1791 22.8445 15.3876 23.3327 14.8994L35.7827 2.44944C36.2708 1.96129 37.0623 1.96129 37.5504 2.44944Z" fill="#1E272F"/>
</svg>
