<svg width="11" height="7" viewBox="0 0 11 7" fill="none" xmlns="http://www.w3.org/2000/svg">
<path fill-rule="evenodd" clip-rule="evenodd" d="M5.74345 6.21822C5.51792 6.44375 5.15226 6.44375 4.92673 6.21822L0.306686 1.59817C0.0811556 1.37264 0.0811557 1.00698 0.306686 0.781451C0.532216 0.555921 0.897872 0.555921 1.1234 0.781451L5.74345 5.4015C5.96898 5.62703 5.96898 5.99269 5.74345 6.21822Z" fill="#1B2746"/>
<path fill-rule="evenodd" clip-rule="evenodd" d="M10.4684 0.781453C10.6939 1.00698 10.6939 1.37264 10.4684 1.59817L5.84832 6.21822C5.62279 6.44375 5.25713 6.44375 5.0316 6.21822C4.80607 5.99269 4.80607 5.62703 5.0316 5.4015L9.65165 0.781453C9.87718 0.555923 10.2428 0.555923 10.4684 0.781453Z" fill="#1B2746"/>
</svg>
