<svg width="16" height="17" viewBox="0 0 16 17" fill="none" xmlns="http://www.w3.org/2000/svg">
<g id="ic-email">
<path id="Vector" fill-rule="evenodd" clip-rule="evenodd" d="M7.29757 1.33331H8.70251C9.45771 1.3333 10.0749 1.33329 10.5621 1.39879C11.0714 1.46727 11.513 1.61545 11.8654 1.96791C12.2179 2.32038 12.3661 2.76194 12.4346 3.27124C12.4682 3.52171 12.4846 3.80651 12.4926 4.12675C13.198 4.24055 13.7762 4.46459 14.2392 4.92761C14.7381 5.42651 14.9595 6.05915 15.0646 6.84076C15.1667 7.60025 15.1667 8.57065 15.1667 9.79585V9.87105C15.1667 11.0962 15.1667 12.0666 15.0646 12.8261C14.9595 13.6077 14.7381 14.2404 14.2392 14.7393C13.7403 15.2382 13.1076 15.4596 12.326 15.5647C11.5666 15.6668 10.5962 15.6668 9.37097 15.6668H6.6291C5.40393 15.6668 4.4335 15.6668 3.67403 15.5647C2.89241 15.4596 2.25978 15.2382 1.76087 14.7393C1.26196 14.2404 1.04055 13.6077 0.935468 12.8261C0.833354 12.0666 0.833361 11.0962 0.833374 9.87105V9.79585C0.833361 8.57065 0.833354 7.60025 0.935468 6.84076C1.04055 6.05915 1.26196 5.42651 1.76087 4.92761C2.22388 4.46459 2.80205 4.24055 3.50753 4.12675C3.51548 3.80651 3.53185 3.52171 3.56552 3.27124C3.63399 2.76194 3.78218 2.32038 4.13464 1.96791C4.48711 1.61545 4.92866 1.46727 5.43797 1.39879C5.92521 1.33329 6.54236 1.3333 7.29757 1.33331ZM3.50004 5.14407C3.01271 5.2419 2.70387 5.39881 2.46797 5.63471C2.18583 5.91685 2.01672 6.30328 1.92655 6.97401C1.83443 7.65911 1.83337 8.56225 1.83337 9.83345C1.83337 11.1046 1.83443 12.0078 1.92655 12.6928C2.01672 13.3636 2.18583 13.75 2.46797 14.0322C2.75011 14.3143 3.13655 14.4834 3.80727 14.5736C4.49238 14.6657 5.39549 14.6668 6.66671 14.6668H9.33337C10.6046 14.6668 11.5077 14.6657 12.1928 14.5736C12.8635 14.4834 13.25 14.3143 13.5321 14.0322C13.8142 13.75 13.9834 13.3636 14.0735 12.6928C14.1656 12.0078 14.1667 11.1046 14.1667 9.83345C14.1667 8.56225 14.1656 7.65911 14.0735 6.97401C13.9834 6.30328 13.8142 5.91685 13.5321 5.63471C13.2962 5.39881 12.9874 5.2419 12.5 5.14407V5.91765C12.5 5.94841 12.5 5.97879 12.5001 6.00883C12.5006 6.53286 12.5011 6.94794 12.327 7.31978C12.1528 7.69158 11.8336 7.95698 11.4307 8.29205C11.4076 8.31125 11.3842 8.33065 11.3606 8.35038L10.8558 8.77105C10.2649 9.26345 9.78597 9.66258 9.36324 9.93445C8.92291 10.2176 8.49411 10.3966 8.00004 10.3966C7.50597 10.3966 7.07717 10.2176 6.63683 9.93445C6.21412 9.66258 5.73519 9.26345 5.14429 8.77105L4.63945 8.35038C4.61583 8.33065 4.59247 8.31125 4.56938 8.29205C4.16644 7.95698 3.84728 7.69158 3.67313 7.31978C3.49897 6.94794 3.49941 6.53286 3.49997 6.00882C3.50001 5.97879 3.50004 5.94841 3.50004 5.91765V5.14407ZM5.57121 2.38987C5.1728 2.44344 4.97744 2.53933 4.84175 2.67502C4.70605 2.81071 4.61017 3.00607 4.5566 3.40449C4.5011 3.81728 4.50004 4.36684 4.50004 5.16665V5.91765C4.50004 6.57852 4.51109 6.75122 4.57871 6.89561C4.64635 7.04 4.77195 7.15905 5.27964 7.58211L5.75939 7.98191C6.38137 8.50025 6.81317 8.85891 7.17777 9.09338C7.53064 9.32038 7.76997 9.39658 8.00004 9.39658C8.23011 9.39658 8.46944 9.32038 8.82231 9.09338C9.18691 8.85891 9.61871 8.50025 10.2407 7.98191L10.7204 7.58211C11.2281 7.15905 11.3537 7.04 11.4214 6.89561C11.489 6.75122 11.5 6.57852 11.5 5.91765V5.16665C11.5 4.36684 11.499 3.81728 11.4435 3.40449C11.3899 3.00607 11.294 2.81071 11.1583 2.67502C11.0226 2.53933 10.8273 2.44344 10.4288 2.38987C10.0161 2.33437 9.46651 2.33331 8.66671 2.33331H7.33337C6.53357 2.33331 5.98401 2.33437 5.57121 2.38987ZM6.16671 4.49998C6.16671 4.22384 6.39057 3.99998 6.66671 3.99998H9.33337C9.60951 3.99998 9.83337 4.22384 9.83337 4.49998C9.83337 4.77613 9.60951 4.99998 9.33337 4.99998H6.66671C6.39057 4.99998 6.16671 4.77613 6.16671 4.49998ZM6.83337 6.49998C6.83337 6.22384 7.05724 5.99998 7.33337 5.99998H8.66671C8.94284 5.99998 9.16671 6.22384 9.16671 6.49998C9.16671 6.77613 8.94284 6.99998 8.66671 6.99998H7.33337C7.05724 6.99998 6.83337 6.77613 6.83337 6.49998Z" fill="#1C274C"/>
</g>
</svg>
