<svg width="16" height="16" viewBox="0 0 16 16" fill="none" xmlns="http://www.w3.org/2000/svg">
<path d="M11.4237 10.6866L11.4234 10.6867L7.31228 13.0588C7.31191 13.059 7.31154 13.0592 7.31117 13.0595C6.56049 13.4873 5.85913 13.6865 5.24663 13.6865C4.80133 13.6865 4.38852 13.5798 4.02982 13.3734C3.19643 12.8926 2.66663 11.877 2.66663 10.3798V5.6265C2.66663 4.12312 3.19612 3.11391 4.02982 2.63292C4.86302 2.15223 6.00437 2.20057 7.31034 2.95306L11.4228 5.32588C11.4229 5.32596 11.4231 5.32604 11.4232 5.32612C12.7229 6.07873 13.34 7.04586 13.34 8.0065C13.34 8.9682 12.7283 9.93486 11.4237 10.6866Z" fill="#292D32" stroke="#232C34"/>
</svg>
