<svg width="16" height="17" viewBox="0 0 16 17" fill="none" xmlns="http://www.w3.org/2000/svg">
<path fill-rule="evenodd" clip-rule="evenodd" d="M6.56485 8.83134C6.17498 8.86191 5.8201 8.90111 5.46413 8.91569C4.16112 8.96912 2.87419 8.87774 1.65189 8.3834C1.35258 8.26236 1.07196 8.07449 0.815828 7.8755C0.525833 7.65016 0.398549 7.3282 0.399913 6.95324C0.404891 5.57834 0.400459 4.20337 0.402232 2.82844C0.402846 2.35345 0.667472 2.02837 1.03783 1.77165C1.40956 1.51398 1.82561 1.35056 2.26062 1.23405C3.49189 0.904346 4.74305 0.834948 6.00883 0.95609C6.792 1.03107 7.55891 1.17166 8.28051 1.49805C8.65179 1.666 8.98348 1.88335 9.22902 2.21955C9.2653 2.2693 9.38733 2.27667 9.46797 2.27231C10.1132 2.23711 10.7586 2.15405 11.4028 2.16318C12.4273 2.17772 13.4455 2.29839 14.3924 2.72272C14.702 2.86145 14.9907 3.06504 15.254 3.28084C15.5038 3.48559 15.599 3.78509 15.5986 4.11314C15.5961 6.17553 15.5945 8.23794 15.5999 10.3003C15.6009 10.6957 15.4502 11.0101 15.1589 11.2661C14.767 11.6105 14.2928 11.7974 13.8003 11.9405C12.9945 12.1746 12.1673 12.2711 11.3299 12.2806C11.175 12.2824 11.1271 12.3243 11.1297 12.4804C11.1388 13.0212 11.1236 13.5625 11.1357 14.1032C11.1446 14.5 10.9912 14.8143 10.7003 15.0706C10.2956 15.4273 9.80594 15.6226 9.29424 15.7616C8.06464 16.0954 6.81291 16.1649 5.54685 16.0468C4.77524 15.9749 4.01327 15.8531 3.30371 15.5323C3.01839 15.4034 2.7464 15.2286 2.50097 15.0341C2.22352 14.8143 2.09423 14.5052 2.09873 14.1412C2.10667 13.4989 2.11622 12.856 2.09603 12.2142C2.07973 11.6952 2.3192 11.334 2.7241 11.0513C3.07138 10.8088 3.45957 10.6523 3.86427 10.5344C4.66449 10.3012 5.48435 10.2018 6.31632 10.1854C6.56451 10.1805 6.56464 10.1775 6.56478 9.93044C6.56499 9.57111 6.56485 9.21174 6.56485 8.83134ZM11.0575 5.01518C11.971 4.99911 12.8478 4.93323 13.6885 4.64509C13.9588 4.55243 14.2214 4.42165 14.4647 4.27199C14.6891 4.13401 14.6795 3.99264 14.4594 3.8413C14.316 3.74272 14.1592 3.65837 13.9986 3.59039C13.4354 3.35203 12.8405 3.23844 12.2346 3.1754C11.0505 3.05219 9.87406 3.08615 8.72268 3.40628C8.37785 3.50216 8.04357 3.65776 7.72837 3.82926C7.45652 3.97719 7.4633 4.12782 7.72121 4.29377C7.90046 4.40913 8.09499 4.5089 8.29486 4.58357C9.19471 4.91984 10.1378 4.99414 11.0575 5.01518ZM6.7976 13.0372C7.5331 13.011 8.23223 12.9661 8.90288 12.7612C9.2728 12.6482 9.63446 12.4897 9.97441 12.3055C10.2353 12.1641 10.2255 12.0075 9.97359 11.8512C9.77348 11.7269 9.55662 11.621 9.33475 11.541C8.60828 11.279 7.84938 11.1906 7.08162 11.1504C6.13424 11.1007 5.19763 11.168 4.28172 11.4154C3.9727 11.4988 3.66855 11.6218 3.38456 11.7693C2.96322 11.988 2.96704 12.1635 3.37535 12.3969C3.53653 12.489 3.70879 12.5669 3.88404 12.6289C4.83849 12.9668 5.83156 13.0376 6.7976 13.0372ZM8.24716 2.53022C8.03109 2.43245 7.86231 2.34313 7.68456 2.27799C7.04657 2.04427 6.38274 1.93523 5.70615 1.89015C4.64625 1.81947 3.5933 1.86005 2.56681 2.14836C2.22212 2.24515 1.88784 2.40066 1.57288 2.57273C1.29772 2.72306 1.30577 2.87724 1.57179 3.05101C1.74538 3.16444 1.93523 3.26373 2.13108 3.33161C3.58143 3.8342 5.06758 3.84465 6.56758 3.62563C6.61252 3.61911 6.66997 3.58864 6.69193 3.55191C6.95649 3.10951 7.38383 2.88313 7.838 2.69154C7.95662 2.64149 8.07753 2.59684 8.24716 2.53022ZM14.6249 5.33558C12.2459 6.20049 9.89408 6.18006 7.52274 5.32064C7.52274 5.57225 7.52761 5.81345 7.52086 6.05428C7.51701 6.19173 7.56123 6.30522 7.67737 6.37067C7.89327 6.49238 8.10866 6.6232 8.33997 6.70815C9.01554 6.95639 9.72257 7.05172 10.4391 7.09589C11.4836 7.16025 12.5174 7.09948 13.5236 6.80369C13.8453 6.7091 14.1476 6.54314 14.4486 6.39028C14.5269 6.35058 14.6105 6.24063 14.617 6.15723C14.6381 5.8836 14.6249 5.60726 14.6249 5.33558ZM3.05862 13.3564C3.05862 13.5715 3.071 13.7906 3.05511 14.0077C3.03939 14.2224 3.12402 14.3778 3.30845 14.4619C3.62634 14.6067 3.94382 14.7695 4.27947 14.856C5.75481 15.2363 7.24246 15.2316 8.72922 14.9182C9.16785 14.8257 9.59661 14.6898 9.96936 14.4293C10.0477 14.3746 10.1454 14.2834 10.1519 14.2026C10.1742 13.9195 10.1605 13.6335 10.1605 13.3614C7.79125 14.212 5.44129 14.2138 3.05862 13.3564ZM7.52267 7.42786C7.52267 7.64769 7.53839 7.86654 7.51841 8.08217C7.49672 8.31613 7.6045 8.46501 7.79456 8.55909C8.03214 8.67668 8.27232 8.80026 8.52536 8.87422C10.0789 9.32862 11.6482 9.32588 13.2227 8.99198C13.64 8.90348 14.0465 8.77307 14.4034 8.53167C14.4916 8.47201 14.6036 8.37397 14.6121 8.28488C14.6389 8.00273 14.622 7.71641 14.622 7.44535C12.2507 8.30132 9.89837 8.29899 7.52267 7.42786ZM14.6233 9.54936C12.2522 10.4067 9.89517 10.4071 7.52335 9.54578C7.52335 9.73297 7.52608 9.91823 7.52226 10.1034C7.52018 10.2046 7.57985 10.2183 7.66206 10.2305C8.10477 10.2959 8.55206 10.3431 8.98768 10.4408C9.63337 10.5855 10.2538 10.8008 10.7521 11.2665C10.7917 11.3035 10.8638 11.3204 10.9216 11.3223C11.7139 11.3473 12.4975 11.2778 13.2686 11.0909C13.6725 10.993 14.0685 10.8698 14.4141 10.6331C14.5009 10.5737 14.6054 10.4716 14.6138 10.3811C14.6399 10.103 14.6233 9.821 14.6233 9.54936ZM6.56263 6.70558C4.78373 6.92395 3.05453 6.87407 1.3727 6.16646C1.3727 6.39234 1.39128 6.60652 1.36793 6.81607C1.33949 7.07141 1.45688 7.22123 1.66539 7.3305C1.72052 7.35938 1.77382 7.39191 1.82991 7.4188C2.36209 7.67404 2.93066 7.80072 3.51167 7.87918C4.49124 8.01145 5.47068 8.00293 6.44817 7.85768C6.49014 7.85145 6.55687 7.79636 6.55762 7.76278C6.56574 7.41505 6.56263 7.06708 6.56263 6.70558ZM1.37273 4.06032C1.37273 4.32475 1.37976 4.56653 1.37014 4.80763C1.36431 4.954 1.41501 5.06669 1.53715 5.13399C1.7493 5.2509 1.96155 5.37407 2.18745 5.45879C2.91119 5.73019 3.67182 5.84119 4.43826 5.8512C5.0997 5.85982 5.76231 5.79462 6.42396 5.75542C6.47173 5.75258 6.5553 5.69664 6.55622 5.66357C6.56597 5.31614 6.56226 4.9683 6.56226 4.59991C4.78758 4.81439 3.05897 4.76863 1.37273 4.06032Z" fill="white"/>
</svg>
