<svg width="17" height="16" viewBox="0 0 17 16" fill="none" xmlns="http://www.w3.org/2000/svg">
<path d="M13.53 4.42667C13.2433 2.98 12.17 2.34667 10.6767 2.34667H4.82333C3.06333 2.34667 1.89 3.22667 1.89 5.28V8.71333C1.89 10.1933 2.49667 11.06 3.49667 11.4333C3.64333 11.4867 3.80333 11.5333 3.97 11.56C4.23667 11.62 4.52333 11.6467 4.82333 11.6467H10.6833C12.4433 11.6467 13.6167 10.7667 13.6167 8.71333V5.28C13.6167 4.96667 13.59 4.68667 13.53 4.42667ZM4.43667 8C4.43667 8.27333 4.21 8.5 3.93667 8.5C3.66333 8.5 3.43667 8.27333 3.43667 8V6C3.43667 5.72667 3.66333 5.5 3.93667 5.5C4.21 5.5 4.43667 5.72667 4.43667 6V8ZM7.75 8.76C6.77667 8.76 5.99 7.97333 5.99 7C5.99 6.02667 6.77667 5.24 7.75 5.24C8.72333 5.24 9.51 6.02667 9.51 7C9.51 7.97333 8.72333 8.76 7.75 8.76ZM12.0567 8C12.0567 8.27333 11.83 8.5 11.5567 8.5C11.2833 8.5 11.0567 8.27333 11.0567 8V6C11.0567 5.72667 11.2833 5.5 11.5567 5.5C11.83 5.5 12.0567 5.72667 12.0567 6V8Z" fill="#0696D6"/>
<path d="M15.6167 7.28V10.7133C15.6167 12.7667 14.4433 13.6533 12.6767 13.6533H6.82333C6.32333 13.6533 5.87667 13.58 5.49 13.4333C5.17667 13.32 4.90333 13.1533 4.68333 12.94C4.56333 12.8267 4.65667 12.6467 4.82333 12.6467H10.6767C13.1433 12.6467 14.61 11.18 14.61 8.72V5.28C14.61 5.12 14.79 5.02 14.9033 5.14C15.3567 5.62 15.6167 6.32 15.6167 7.28Z" fill="#0696D6"/>
</svg>
