<svg width="24" height="25" viewBox="0 0 24 25" fill="none" xmlns="http://www.w3.org/2000/svg">
<path fill-rule="evenodd" clip-rule="evenodd" d="M6.85929 1.67384C6.88904 1.67384 6.91919 1.67385 6.94976 1.67385L6.98675 1.67384C7.33818 1.67382 7.56433 1.67381 7.78542 1.69448C8.68728 1.77882 9.54516 2.11914 10.2586 2.67385H16.5C16.5196 2.67385 16.5389 2.67384 16.5579 2.67384C16.9666 2.67377 17.2449 2.67373 17.4895 2.70593C19.1722 2.92747 20.4964 4.25162 20.7179 5.93437C20.7263 5.9978 20.7325 6.06349 20.737 6.13314C21.0145 6.25962 21.2715 6.42317 21.5077 6.63568C21.6061 6.72415 21.6997 6.81777 21.7882 6.91614C22.3165 7.50348 22.5422 8.21842 22.648 9.05984C22.75 9.87173 22.75 10.8979 22.75 12.1708V14.4802C22.75 16.318 22.75 17.7736 22.5969 18.9128C22.4393 20.0853 22.1071 21.0342 21.3588 21.7826C20.6104 22.5309 19.6615 22.8631 18.489 23.0207C17.3498 23.1738 15.8942 23.1738 14.0564 23.1738H9.94361C8.10584 23.1738 6.65021 23.1738 5.51099 23.0207C4.33857 22.8631 3.38962 22.5309 2.64126 21.7826C1.8929 21.0342 1.56078 20.0853 1.40315 18.9128C1.24999 17.7736 1.25 16.318 1.25002 14.4802V7.37359C1.25002 7.34302 1.25001 7.31287 1.25001 7.28312C1.2499 6.48721 1.24982 5.98068 1.33237 5.54318C1.6949 3.62171 3.19788 2.11873 5.11935 1.7562C5.55685 1.67365 6.06338 1.67373 6.85929 1.67384ZM19.1474 5.75151C18.8895 4.92673 18.1732 4.30889 17.2937 4.1931C17.1598 4.17546 16.9883 4.17385 16.5 4.17385H11.8113C12.4542 4.81291 12.7459 5.07981 13.0768 5.26388C13.2948 5.38517 13.526 5.48096 13.766 5.54935C14.1793 5.66716 14.6324 5.67385 15.8284 5.67385H16.253C17.4153 5.67383 18.3718 5.67382 19.1474 5.75151ZM6.94976 3.17385C6.03312 3.17385 5.67873 3.17712 5.39746 3.23019C4.08277 3.47824 3.05441 4.5066 2.80636 5.82129C2.75329 6.10256 2.75002 6.45695 2.75002 7.37359V14.4238C2.75002 16.3306 2.75161 17.6853 2.88978 18.713C3.02504 19.7191 3.27871 20.2987 3.70192 20.7219C4.12513 21.1451 4.70478 21.3988 5.71087 21.5341C6.73853 21.6722 8.0932 21.6738 10 21.6738H14C15.9068 21.6738 17.2615 21.6722 18.2892 21.5341C19.2953 21.3988 19.8749 21.1451 20.2981 20.7219C20.7213 20.2987 20.975 19.7191 21.1103 18.713C21.2484 17.6853 21.25 16.3306 21.25 14.4238V12.2217C21.25 10.8859 21.2486 9.95433 21.1597 9.24695C21.0731 8.55831 20.9141 8.18739 20.6729 7.91922C20.6198 7.8602 20.5637 7.80403 20.5046 7.75095C20.2365 7.50975 19.8656 7.35075 19.1769 7.26417C18.4695 7.17524 17.538 7.17385 16.2021 7.17385H15.8284C15.7912 7.17385 15.7545 7.17385 15.7182 7.17386C14.6702 7.17408 13.9944 7.17421 13.3548 6.99189C13.0041 6.89194 12.6661 6.75194 12.3475 6.57466C11.7663 6.2513 11.2885 5.77333 10.5476 5.03216C10.522 5.00648 10.496 4.98049 10.4697 4.95418L9.91943 4.40392C9.63616 4.12065 9.52778 4.01334 9.41731 3.92176C8.91403 3.50456 8.29664 3.24883 7.64576 3.18796C7.50289 3.1746 7.35038 3.17385 6.94976 3.17385ZM12.25 10.4238C12.25 10.0096 12.5858 9.67385 13 9.67385H18C18.4142 9.67385 18.75 10.0096 18.75 10.4238C18.75 10.838 18.4142 11.1738 18 11.1738H13C12.5858 11.1738 12.25 10.838 12.25 10.4238Z" fill="#0696D6"/>
</svg>
