<svg width="25" height="24" viewBox="0 0 25 24" fill="none" xmlns="http://www.w3.org/2000/svg">
<path d="M2.84594 11.2501C2.62458 10.5866 2.5 9.92019 2.5 9.26044C2.5 3.3495 8.00016 0.662637 12.5 5.49877C16.9998 0.662637 22.5 3.34931 22.5 9.2604C22.5 9.92017 22.3754 10.5866 22.1541 11.2501H19.1361L19.0241 11.25C18.4784 11.2491 17.9937 11.2483 17.5527 11.4447C17.1116 11.6411 16.7879 12.002 16.4233 12.4084L16.3485 12.4918L15.3192 13.6354C15.2426 13.7205 15.18 13.79 15.1247 13.8493C15.0723 13.7879 15.0128 13.7159 14.9401 13.6277L11.3889 9.32318C11.2493 9.15391 11.1 8.97281 10.954 8.8384C10.7839 8.68188 10.5325 8.50581 10.181 8.4847C9.82945 8.46359 9.55875 8.60829 9.37115 8.74333C9.21006 8.8593 9.04016 9.02123 8.88136 9.17258L7.35172 10.6294C6.87995 11.0787 6.78151 11.1553 6.67854 11.1964C6.57557 11.2376 6.4515 11.2501 5.8 11.2501H2.84594Z" fill="#E60000"/>
<path d="M3.50439 12.7502C4.88537 15.3121 7.43027 17.7143 9.46171 19.3708C10.7937 20.457 11.4597 21.0001 12.5 21.0001C13.5403 21.0001 14.2063 20.457 15.5383 19.3708C17.5697 17.7143 20.1146 15.3121 21.4956 12.7502H19.1361C18.4119 12.7502 18.2746 12.7653 18.1629 12.8151C18.0513 12.8648 17.9481 12.9568 17.4634 13.4953L16.4086 14.6673C16.2507 14.8429 16.0839 15.0284 15.9235 15.1629C15.7384 15.3181 15.4627 15.4922 15.0896 15.4842C14.7166 15.4761 14.4488 15.2905 14.2704 15.1275C14.116 14.9863 13.9574 14.7939 13.8074 14.6119L10.2549 10.3058C10.1873 10.224 10.1324 10.1574 10.0839 10.1006C10.029 10.1512 9.96643 10.2107 9.8896 10.2839L8.31344 11.7851C7.95748 12.1251 7.64163 12.4268 7.23561 12.5893C6.82959 12.7517 6.3928 12.751 5.90052 12.7503L3.50439 12.7502Z" fill="#E60000"/>
</svg>
