<svg width="24" height="24" viewBox="0 0 24 24" fill="none" xmlns="http://www.w3.org/2000/svg">
<path d="M9.84125 14.4962C9.03125 13.5737 7.8275 13 6.5 13C4.01375 13 2 15.0138 2 17.5C2 18.3438 2.23625 19.1425 2.6525 19.8175C2.8775 20.2 3.17 20.5487 3.5075 20.8412C4.295 21.5612 5.34125 22 6.5 22C8.1425 22 9.57125 21.1225 10.3475 19.8175C10.7638 19.1425 11 18.3438 11 17.5C11 16.3525 10.5612 15.295 9.84125 14.4962ZM8.3 19.2775C8.13125 19.4462 7.9175 19.525 7.70375 19.525C7.49 19.525 7.27625 19.4462 7.1075 19.2775L6.51125 18.6812L5.8925 19.3C5.72375 19.4688 5.51 19.5475 5.29625 19.5475C5.0825 19.5475 4.86875 19.4688 4.7 19.3C4.37375 18.9738 4.37375 18.4338 4.7 18.1075L5.31875 17.4887L4.7225 16.8925C4.39625 16.5662 4.39625 16.0262 4.7225 15.7C5.04875 15.3737 5.58875 15.3737 5.915 15.7L6.51125 16.2963L7.07375 15.7338C7.4 15.4075 7.94 15.4075 8.26625 15.7338C8.5925 16.06 8.5925 16.6 8.26625 16.9262L7.70375 17.4887L8.3 18.085C8.62625 18.4113 8.62625 18.94 8.3 19.2775Z" fill="#292D32"/>
<path d="M17 3H7C4 3 2 4.5 2 8V11.14C2 11.87 2.75 12.33 3.42 12.04C4.52 11.56 5.77 11.38 7.08 11.59C9.7 12.02 11.84 14.09 12.37 16.69C12.52 17.45 12.54 18.19 12.44 18.9C12.36 19.49 12.84 20.01 13.43 20.01H17C20 20.01 22 18.51 22 15.01V8C22 4.5 20 3 17 3ZM17.47 8.59L14.34 11.09C13.68 11.62 12.84 11.88 12 11.88C11.16 11.88 10.31 11.62 9.66 11.09L6.53 8.59C6.21 8.33 6.16 7.85 6.41 7.53C6.67 7.21 7.14 7.15 7.46 7.41L10.59 9.91C11.35 10.52 12.64 10.52 13.4 9.91L16.53 7.41C16.85 7.15 17.33 7.2 17.58 7.53C17.84 7.85 17.79 8.33 17.47 8.59Z" fill="#292D32"/>
</svg>
