<svg width="14" height="17" viewBox="0 0 14 17" fill="none" xmlns="http://www.w3.org/2000/svg">
<g id="Fill">
<path id="Vector" d="M4.6924 7.91528H4.10779V9.08451H4.6924H9.3693H9.95391V7.91528H9.3693H4.6924Z" fill="white"/>
<path id="Vector_2" d="M4.6924 10.2537H4.10779V11.4229H4.6924H6.44624H7.03085V10.2537H6.44624H4.6924Z" fill="white"/>
<path id="Vector_3" d="M9.60886 0.899902H0.599976V14.346C0.599976 14.8111 0.784754 15.2572 1.11366 15.5861C1.44257 15.9151 1.88867 16.0998 2.35381 16.0998H11.7076C12.1728 16.0998 12.6189 15.9151 12.9478 15.5861C13.2767 15.2572 13.4615 14.8111 13.4615 14.346V4.7525L9.60886 0.899902ZM9.36916 2.30882L12.0525 4.99219H9.95378C9.79873 4.99219 9.65003 4.9306 9.54039 4.82096C9.43076 4.71133 9.36916 4.56263 9.36916 4.40758V2.30882ZM11.7076 14.9306H2.35381C2.19876 14.9306 2.05007 14.869 1.94043 14.7594C1.83079 14.6497 1.7692 14.501 1.7692 14.346V2.06913H8.19994V4.40758C8.19994 4.87272 8.38472 5.31882 8.71363 5.64773C9.04253 5.97664 9.48863 6.16142 9.95378 6.16142H12.2922V14.346C12.2922 14.501 12.2306 14.6497 12.121 14.7594C12.0114 14.869 11.8627 14.9306 11.7076 14.9306Z" fill="white"/>
</g>
</svg>
