<svg width="16" height="13" viewBox="0 0 16 13" fill="none" xmlns="http://www.w3.org/2000/svg">
<path fill-rule="evenodd" clip-rule="evenodd" d="M8.24047 8.96368C8.02602 9.15914 7.67832 9.15914 7.46387 8.96368L3.07077 4.95964C2.85632 4.76418 2.85632 4.44728 3.07077 4.25182C3.28522 4.05636 3.63292 4.05636 3.84737 4.25182L8.24047 8.25586C8.45492 8.45132 8.45492 8.76822 8.24047 8.96368Z" fill="#7C878E"/>
<path fill-rule="evenodd" clip-rule="evenodd" d="M12.7331 4.25182C12.9475 4.44728 12.9475 4.76418 12.7331 4.95964L8.33996 8.96368C8.12551 9.15914 7.77782 9.15914 7.56336 8.96368C7.34891 8.76822 7.34891 8.45132 7.56336 8.25586L11.9565 4.25182C12.1709 4.05636 12.5186 4.05636 12.7331 4.25182Z" fill="#7C878E"/>
</svg>
