<svg width="16" height="16" viewBox="0 0 16 16" fill="none" xmlns="http://www.w3.org/2000/svg">
<path d="M5.94864 3.69231C5.94864 2.75692 6.70556 2 7.64094 2C8.57633 2 9.33325 2.75692 9.33325 3.69231C9.33325 4.62769 8.57633 5.38462 7.64094 5.38462C6.70556 5.38462 5.94864 4.62769 5.94864 3.69231Z" fill="#576A7A"/>
<path d="M5.94864 12.3077C5.94864 11.3723 6.70556 10.6154 7.64094 10.6154C8.57633 10.6154 9.33325 11.3723 9.33325 12.3077C9.33325 13.2431 8.57633 14 7.64094 14C6.70556 14 5.94864 13.2431 5.94864 12.3077Z" fill="#576A7A"/>
<path d="M5.94864 8C5.94864 7.06462 6.70556 6.30769 7.64094 6.30769C8.57633 6.30769 9.33325 7.06462 9.33325 8C9.33325 8.93538 8.57633 9.69231 7.64094 9.69231C6.70556 9.69231 5.94864 8.93538 5.94864 8Z" fill="#576A7A"/>
</svg>
