<svg width="20" height="21" viewBox="0 0 20 21" fill="none" xmlns="http://www.w3.org/2000/svg">
<g id="folder-with-files-svgrepo-com">
<path id="Vector" opacity="0.5" d="M1.66675 6.29142C1.66675 5.55598 1.66675 5.18825 1.72454 4.88195C1.97895 3.53355 3.03367 2.47883 4.38207 2.22442C4.68837 2.16663 5.0561 2.16663 5.79154 2.16663C6.11376 2.16663 6.27488 2.16663 6.42972 2.18111C7.09729 2.24353 7.73051 2.50583 8.2467 2.93372C8.36641 3.03297 8.48033 3.1469 8.70816 3.37475L9.16675 3.83329C9.84658 4.51311 10.1865 4.85302 10.5935 5.07948C10.8171 5.20388 11.0543 5.30213 11.3004 5.37228C11.7483 5.49996 12.229 5.49996 13.1904 5.49996H13.5018C15.6955 5.49996 16.7922 5.49996 17.5052 6.14118C17.5708 6.20016 17.6332 6.26258 17.6922 6.32815C18.3334 7.04108 18.3334 8.13791 18.3334 10.3315V12.1666C18.3334 15.3093 18.3334 16.8807 17.3571 17.857C16.3808 18.8333 14.8094 18.8333 11.6667 18.8333H8.33341C5.19071 18.8333 3.61937 18.8333 2.64306 17.857C1.66675 16.8807 1.66675 15.3093 1.66675 12.1666V6.29142Z" fill="#1B2746"/>
<path id="Vector_2" d="M16.6666 5.69793C16.6659 5.45013 16.6623 5.30219 16.6454 5.17368C16.4978 4.05185 15.615 3.16908 14.4932 3.02139C14.3307 3 14.1372 3 13.7502 3H8.32349C8.42009 3.0866 8.52884 3.19537 8.70825 3.37479L9.16684 3.83333C9.84667 4.51315 10.1865 4.85306 10.5936 5.07952C10.8172 5.20392 11.0543 5.30217 11.3004 5.37232C11.7484 5.5 12.2291 5.5 13.1905 5.5H13.5019C14.9844 5.5 15.966 5.5 16.6666 5.69793Z" fill="#1B2746"/>
<path id="Vector_3" fill-rule="evenodd" clip-rule="evenodd" d="M10.2083 8.83337C10.2083 8.4882 10.4881 8.20837 10.8333 8.20837H14.9999C15.3451 8.20837 15.6249 8.4882 15.6249 8.83337C15.6249 9.17854 15.3451 9.45837 14.9999 9.45837H10.8333C10.4881 9.45837 10.2083 9.17854 10.2083 8.83337Z" fill="#1B2746"/>
</g>
</svg>
