<svg width="15" height="16" viewBox="0 0 15 16" fill="none" xmlns="http://www.w3.org/2000/svg">
<path fill-rule="evenodd" clip-rule="evenodd" d="M7.74345 15.4809C7.51792 15.7064 7.15226 15.7064 6.92673 15.4809L2.30669 10.8609C2.08116 10.6353 2.08116 10.2697 2.30669 10.0441C2.53222 9.81862 2.89787 9.81862 3.1234 10.0441L7.74345 14.6642C7.96898 14.8897 7.96898 15.2554 7.74345 15.4809Z" fill="#1B2746"/>
<path fill-rule="evenodd" clip-rule="evenodd" d="M12.4682 10.0441C12.6937 10.2697 12.6937 10.6353 12.4682 10.8609L7.84817 15.4809C7.62264 15.7064 7.25698 15.7064 7.03145 15.4809C6.80592 15.2554 6.80592 14.8897 7.03145 14.6642L11.6515 10.0441C11.877 9.81862 12.2427 9.81862 12.4682 10.0441Z" fill="#1B2746"/>
<path fill-rule="evenodd" clip-rule="evenodd" d="M7.03145 0.519088C7.25698 0.293558 7.62264 0.293558 7.84817 0.519088L12.4682 5.13914C12.6937 5.36467 12.6937 5.73032 12.4682 5.95585C12.2427 6.18138 11.877 6.18138 11.6515 5.95585L7.03145 1.3358C6.80592 1.11027 6.80592 0.744618 7.03145 0.519088Z" fill="#1B2746"/>
<path fill-rule="evenodd" clip-rule="evenodd" d="M2.30669 5.95585C2.08115 5.73032 2.08115 5.36467 2.30669 5.13914L6.92673 0.519088C7.15226 0.293558 7.51792 0.293558 7.74345 0.519088C7.96898 0.744618 7.96898 1.11027 7.74345 1.3358L3.1234 5.95585C2.89787 6.18138 2.53222 6.18138 2.30669 5.95585Z" fill="#1B2746"/>
</svg>
