<svg width="21" height="20" viewBox="0 0 21 20" fill="none" xmlns="http://www.w3.org/2000/svg">
<g clip-path="url(#clip0_22438_7824)">
<path fill-rule="evenodd" clip-rule="evenodd" d="M8.78598 0.570069H8.83547C9.19881 0.570069 9.49337 0.864621 9.49337 1.22796C9.49337 1.59131 9.19881 1.88586 8.83547 1.88586C7.16282 1.88586 5.97452 1.88725 5.07306 2.00845C4.19053 2.1271 3.68206 2.34962 3.31082 2.72086C2.93959 3.09209 2.71707 3.60056 2.59842 4.48309C2.47722 5.38455 2.47582 6.57286 2.47582 8.24551C2.47582 8.60884 2.18127 8.9034 1.81793 8.9034C1.45459 8.9034 1.16003 8.60884 1.16003 8.24551V8.19601C1.16002 6.58394 1.16001 5.30708 1.29437 4.30777C1.43263 3.27933 1.72396 2.44692 2.38042 1.79045C3.03689 1.134 3.8693 0.842665 4.89774 0.704402C5.89704 0.570042 7.17391 0.570051 8.78598 0.570069ZM16.1067 2.00845C15.2052 1.88725 14.0169 1.88586 12.3442 1.88586C11.9809 1.88586 11.6863 1.59131 11.6863 1.22796C11.6863 0.864621 11.9809 0.570069 12.3442 0.570069H12.3937C14.0058 0.570051 15.2827 0.570042 16.282 0.704402C17.3104 0.842665 18.1428 1.134 18.7993 1.79045C19.4557 2.44692 19.7471 3.27933 19.8854 4.30777C20.0197 5.30708 20.0197 6.58395 20.0197 8.19602V8.24551C20.0197 8.60884 19.7251 8.9034 19.3618 8.9034C18.9985 8.9034 18.7039 8.60884 18.7039 8.24551C18.7039 6.57286 18.7025 5.38455 18.5813 4.48309C18.4627 3.60056 18.2401 3.09209 17.8689 2.72086C17.4977 2.34962 16.9892 2.1271 16.1067 2.00845ZM1.81793 11.0964C2.18127 11.0964 2.47582 11.3909 2.47582 11.7543C2.47582 13.4269 2.47722 14.6152 2.59842 15.5167C2.71707 16.3992 2.93959 16.9077 3.31082 17.2789C3.68206 17.6502 4.19053 17.8727 5.07306 17.9913C5.97452 18.1125 7.16282 18.1139 8.83547 18.1139C9.19881 18.1139 9.49337 18.4085 9.49337 18.7718C9.49337 19.1352 9.19881 19.4297 8.83547 19.4297H8.78599C7.17392 19.4297 5.89704 19.4297 4.89774 19.2954C3.8693 19.1571 3.03689 18.8658 2.38042 18.2094C1.72396 17.5529 1.43263 16.7204 1.29437 15.692C1.16001 14.6927 1.16002 13.4159 1.16003 11.8038V11.7543C1.16003 11.3909 1.45459 11.0964 1.81793 11.0964ZM19.3618 11.0964C19.7251 11.0964 20.0197 11.3909 20.0197 11.7543V11.8038C20.0197 13.4159 20.0197 14.6927 19.8854 15.692C19.7471 16.7204 19.4557 17.5529 18.7993 18.2094C18.1428 18.8658 17.3104 19.1571 16.282 19.2954C15.2827 19.4297 14.0058 19.4297 12.3937 19.4297H12.3442C11.9809 19.4297 11.6863 19.1352 11.6863 18.7718C11.6863 18.4085 11.9809 18.1139 12.3442 18.1139C14.0169 18.1139 15.2052 18.1125 16.1067 17.9913C16.9892 17.8727 17.4977 17.6502 17.8689 17.2789C18.2401 16.9077 18.4627 16.3992 18.5813 15.5167C18.7025 14.6152 18.7039 13.4269 18.7039 11.7543C18.7039 11.3909 18.9985 11.0964 19.3618 11.0964Z" fill="#7C878E"/>
</g>
<defs>
<clipPath id="clip0_22438_7824">
<rect width="20" height="20" fill="white" transform="translate(0.589905)"/>
</clipPath>
</defs>
</svg>
