<svg width="17" height="16" viewBox="0 0 17 16" fill="none" xmlns="http://www.w3.org/2000/svg">
<g clip-path="url(#clip0_1393_17753)">
<path d="M12.7091 10.4625C12.8108 10.3832 12.903 10.291 13.0875 10.1065L15.3868 7.80721C15.4424 7.75166 15.4169 7.65591 15.3426 7.63011C15.0713 7.53598 14.7182 7.35918 14.3879 7.02893C14.0577 6.69867 13.8809 6.34559 13.7867 6.07418C13.7609 5.99991 13.6652 5.97447 13.6096 6.03005L11.3103 8.32937C11.1258 8.51385 11.0336 8.60606 10.9543 8.70774C10.8607 8.82772 10.7805 8.95746 10.7151 9.09481C10.6596 9.21119 10.6183 9.33495 10.5359 9.58241L10.4293 9.90215L10.2598 10.4105L10.1009 10.8873C10.0603 11.0091 10.092 11.1433 10.1827 11.2341C10.2736 11.3248 10.4078 11.3565 10.5296 11.3159L11.0063 11.157L11.5147 10.9876L11.8344 10.8809C12.0818 10.7985 12.2056 10.7572 12.322 10.7017C12.4594 10.6363 12.5891 10.5561 12.7091 10.4625Z" fill="#0696D6"/>
<path d="M15.7648 7.19102C16.1897 6.76608 16.1897 6.07713 15.7648 5.6522C15.3399 5.22726 14.6509 5.22726 14.226 5.6522L14.162 5.7162C14.1002 5.77797 14.0722 5.86424 14.0877 5.95022C14.0974 6.0043 14.1153 6.08337 14.1481 6.17772C14.2135 6.36642 14.3372 6.61412 14.57 6.84695C14.8029 7.07984 15.0506 7.20345 15.2392 7.2689C15.3336 7.30165 15.4127 7.31961 15.4667 7.32932C15.5527 7.34476 15.639 7.31679 15.7008 7.25501L15.7648 7.19102Z" fill="#0696D6"/>
<path fill-rule="evenodd" clip-rule="evenodd" d="M2.02398 3.29134C1.4165 3.91618 1.4165 4.92184 1.4165 6.93317V9.0665C1.4165 11.0778 1.4165 12.0835 2.02398 12.7083C2.63147 13.3332 3.60919 13.3332 5.56465 13.3332H10.6017C12.5571 13.3332 13.5349 13.3332 14.1423 12.7083C14.7401 12.0935 14.7497 11.11 14.7498 9.16256L13.2885 10.6657C13.1486 10.8096 13.0341 10.9275 12.9047 11.0314C12.7531 11.153 12.5891 11.2572 12.4155 11.3423C12.2674 11.4149 12.1136 11.4676 11.9259 11.5318L10.7272 11.9428C10.3391 12.0759 9.91113 11.972 9.62179 11.6744C9.33251 11.3768 9.23145 10.9366 9.36087 10.5374L9.50269 10.0998L9.74904 9.33962L9.76039 9.30453C9.82293 9.11141 9.8741 8.95322 9.94467 8.80085C10.0274 8.62234 10.1287 8.45365 10.247 8.29776C10.3479 8.16464 10.4626 8.04682 10.6026 7.90293L12.68 5.76617L13.2565 5.17319L13.3225 5.10534C13.6934 4.72379 14.1796 4.53307 14.6658 4.53317C14.5874 3.98354 14.4357 3.59305 14.1423 3.29134C13.5349 2.6665 12.5571 2.6665 10.6017 2.6665H5.56465C3.60919 2.6665 2.63147 2.6665 2.02398 3.29134ZM3.62021 6.39984C3.62021 6.17893 3.79432 5.99984 4.0091 5.99984H10.0461C10.2609 5.99984 10.435 6.17893 10.435 6.39984C10.435 6.62075 10.2609 6.79984 10.0461 6.79984H4.0091C3.79432 6.79984 3.62021 6.62075 3.62021 6.39984ZM3.62021 8.53317C3.62021 8.31226 3.79432 8.13317 4.0091 8.13317H5.97206C6.18683 8.13317 6.36095 8.31226 6.36095 8.53317C6.36095 8.75408 6.18683 8.93317 5.97206 8.93317H4.0091C3.79432 8.93317 3.62021 8.75408 3.62021 8.53317ZM3.62021 10.6665C3.62021 10.4456 3.79432 10.2665 4.0091 10.2665H5.45354C5.66832 10.2665 5.84243 10.4456 5.84243 10.6665C5.84243 10.8874 5.66832 11.0665 5.45354 11.0665H4.0091C3.79432 11.0665 3.62021 10.8874 3.62021 10.6665Z" fill="#0696D6"/>
</g>
<defs>
<clipPath id="clip0_1393_17753">
<rect width="16" height="16" fill="white" transform="translate(0.75)"/>
</clipPath>
</defs>
</svg>
