<svg width="16" height="17" viewBox="0 0 16 17" fill="none" xmlns="http://www.w3.org/2000/svg">
<path fill-rule="evenodd" clip-rule="evenodd" d="M0.458076 1.25552C0.55943 1.03884 0.777031 0.900391 1.01625 0.900391H14.9838C15.2271 0.900391 15.4476 1.04356 15.5467 1.2658C15.6457 1.48804 15.6047 1.74775 15.442 1.92866L10.1682 7.79296V12.4642C10.1682 12.6431 10.0904 12.8132 9.95507 12.9302L6.46318 15.9502C6.28079 16.108 6.02314 16.1449 5.80384 16.0446C5.58453 15.9443 5.44387 15.7253 5.44387 15.4842V7.78009L0.543262 1.91158C0.389931 1.72797 0.356721 1.4722 0.458076 1.25552ZM2.33365 2.13282L6.53307 7.16166C6.62561 7.27247 6.6763 7.41226 6.6763 7.55663V14.1365L8.93576 12.1824V7.55663C8.93576 7.40448 8.99205 7.25771 9.09379 7.14458L13.6009 2.13282H2.33365Z" fill="#1B2746"/>
</svg>
