<svg xmlns="http://www.w3.org/2000/svg" xmlns:xlink="http://www.w3.org/1999/xlink" version="1.1" width="1000" height="1000" viewBox="0 0 1000 1000" xml:space="preserve">
<desc>Created with Fabric.js 3.5.0</desc>
<defs>
</defs>
<rect x="0" y="0" width="100%" height="100%" fill="#ffffff"/>
<g transform="matrix(0.9766 0 0 0.9766 499.6461 499.5299)" id="464620">
<path style="stroke: none; stroke-width: 0; stroke-dasharray: none; stroke-linecap: butt; stroke-dashoffset: 0; stroke-linejoin: miter; stroke-miterlimit: 4; is-custom-font: none; font-file-url: none; fill: rgb(204,205,207); fill-rule: nonzero; opacity: 1;" transform=" translate(-512.1264, -512.0104)" d="M 795.136 320.256 a 29.226667 29.226667 0 0 0 -20.437333 -9.386667 l -222.378667 -8.746666 l -16.853333 37.12 l 23.168 69.888 l -41.856 79.488 l 17.066666 64 l 42.24 54.954666 l 61.184 -56.576 a 14.72 14.72 0 0 1 20.736 0.853334 l 78.72 85.162666 a 14.848 14.848 0 0 1 2.56 16.128 a 14.762667 14.762667 0 0 1 -13.909333 8.533334 l -215.68 -8.448 l -10.752 30.890666 l 11.648 27.904 l 247.978667 9.6 a 29.354667 29.354667 0 0 0 30.464 -28.245333 L 802.858667 341.333333 a 29.013333 29.013333 0 0 0 -7.722667 -21.077333 z m -159.36 161.408 a 44.074667 44.074667 0 1 1 3.456 -88.021333 a 44.074667 44.074667 0 0 1 -3.456 88.021333 z m -159.872 202.965333 l 7.466667 -32.426666 l -175.146667 12.074666 a 14.677333 14.677333 0 0 1 -12.117333 -24.32 l 129.792 -149.034666 a 14.677333 14.677333 0 0 1 21.632 -0.512 l 43.434666 45.312 l -18.688 -48.298667 l 32.938667 -83.370667 l -30.378667 -66.730666 l 12.672 -38.656 l -238.848 16.469333 a 29.312 29.312 0 0 0 -27.221333 31.36 l 24.234667 351.573333 a 29.013333 29.013333 0 0 0 9.941333 20.053334 c 5.888 5.077333 13.568 7.68 21.333333 7.168 l 213.248 -14.72 l -14.293333 -25.941334 z" stroke-linecap="round"/>
</g>
<g transform="matrix(1.3351 0 0 1.3351 506.943 483.2361)" id="241705">
<path style="stroke: none; stroke-width: 0; stroke-dasharray: none; stroke-linecap: butt; stroke-dashoffset: 0; stroke-linejoin: miter; stroke-miterlimit: 4; is-custom-font: none; font-file-url: none; fill: rgb(247,247,247); fill-rule: nonzero; opacity: 1;" transform=" translate(-512, -512)" d="M 0 0 m 42.666667 0 l 938.666666 0 q 42.666667 0 42.666667 42.666667 l 0 938.666666 q 0 42.666667 -42.666667 42.666667 l -938.666666 0 q -42.666667 0 -42.666667 -42.666667 l 0 -938.666666 q 0 -42.666667 42.666667 -42.666667 Z" stroke-linecap="round"/>
</g>
<g transform="matrix(0.9766 0 0 0.9766 500.5075 500.5075)" id="604906">
<path style="stroke: none; stroke-width: 1; stroke-dasharray: none; stroke-linecap: butt; stroke-dashoffset: 0; stroke-linejoin: miter; stroke-miterlimit: 4; is-custom-font: none; font-file-url: none; fill: rgb(247,247,247); fill-rule: nonzero; opacity: 1;" transform=" translate(-512, -512)" d="M 0 0 m 42.666667 0 l 938.666666 0 q 42.666667 0 42.666667 42.666667 l 0 938.666666 q 0 42.666667 -42.666667 42.666667 l -938.666666 0 q -42.666667 0 -42.666667 -42.666667 l 0 -938.666666 q 0 -42.666667 42.666667 -42.666667 Z" stroke-linecap="round"/>
</g>
<g transform="matrix(1.3351 0 0 1.3351 500.0111 500.0081)" id="432917">
<path style="stroke: none; stroke-width: 1; stroke-dasharray: none; stroke-linecap: butt; stroke-dashoffset: 0; stroke-linejoin: miter; stroke-miterlimit: 4; is-custom-font: none; font-file-url: none; fill: rgb(204,205,207); fill-rule: nonzero; opacity: 1;" transform=" translate(-512.1264, -512.0104)" d="M 795.136 320.256 a 29.226667 29.226667 0 0 0 -20.437333 -9.386667 l -222.378667 -8.746666 l -16.853333 37.12 l 23.168 69.888 l -41.856 79.488 l 17.066666 64 l 42.24 54.954666 l 61.184 -56.576 a 14.72 14.72 0 0 1 20.736 0.853334 l 78.72 85.162666 a 14.848 14.848 0 0 1 2.56 16.128 a 14.762667 14.762667 0 0 1 -13.909333 8.533334 l -215.68 -8.448 l -10.752 30.890666 l 11.648 27.904 l 247.978667 9.6 a 29.354667 29.354667 0 0 0 30.464 -28.245333 L 802.858667 341.333333 a 29.013333 29.013333 0 0 0 -7.722667 -21.077333 z m -159.36 161.408 a 44.074667 44.074667 0 1 1 3.456 -88.021333 a 44.074667 44.074667 0 0 1 -3.456 88.021333 z m -159.872 202.965333 l 7.466667 -32.426666 l -175.146667 12.074666 a 14.677333 14.677333 0 0 1 -12.117333 -24.32 l 129.792 -149.034666 a 14.677333 14.677333 0 0 1 21.632 -0.512 l 43.434666 45.312 l -18.688 -48.298667 l 32.938667 -83.370667 l -30.378667 -66.730666 l 12.672 -38.656 l -238.848 16.469333 a 29.312 29.312 0 0 0 -27.221333 31.36 l 24.234667 351.573333 a 29.013333 29.013333 0 0 0 9.941333 20.053334 c 5.888 5.077333 13.568 7.68 21.333333 7.168 l 213.248 -14.72 l -14.293333 -25.941334 z" stroke-linecap="round"/>
</g>
</svg>