<svg width="12" height="11" viewBox="0 0 12 11" fill="none" xmlns="http://www.w3.org/2000/svg">
<path fill-rule="evenodd" clip-rule="evenodd" d="M6.20843 0.704646C6.41456 0.498517 6.74876 0.498517 6.95489 0.704646L11.1732 4.923L11.1775 4.9272C11.2581 5.00785 11.3072 5.1081 11.3248 5.21262C11.3325 5.25838 11.3341 5.30496 11.3297 5.35107C11.3184 5.46883 11.2677 5.58353 11.1775 5.67371L11.1733 5.6779L6.95489 9.89627C6.74876 10.1024 6.41456 10.1024 6.20843 9.89627C6.0023 9.69014 6.0023 9.35594 6.20843 9.14981L9.52992 5.82832L1.57763 5.82838C1.28612 5.82838 1.04981 5.59207 1.0498 5.30056C1.0498 5.00905 1.28612 4.77273 1.57763 4.77273L9.52999 4.77267L6.20843 1.4511C6.0023 1.24498 6.0023 0.910774 6.20843 0.704646Z" fill="#1B2746"/>
</svg>
