<svg width="13" height="14" viewBox="0 0 13 14" fill="none" xmlns="http://www.w3.org/2000/svg">
<path fill-rule="evenodd" clip-rule="evenodd" d="M6.69476 12.9847C6.51434 13.1652 6.22181 13.1652 6.04139 12.9847L2.34535 9.28869C2.16492 9.10827 2.16492 8.81574 2.34535 8.63532C2.52577 8.45489 2.8183 8.45489 2.99872 8.63532L6.69476 12.3314C6.87518 12.5118 6.87518 12.8043 6.69476 12.9847Z" fill="#1B2746"/>
<path fill-rule="evenodd" clip-rule="evenodd" d="M10.4745 8.63532C10.6549 8.81574 10.6549 9.10827 10.4745 9.28869L6.77844 12.9847C6.59801 13.1652 6.30549 13.1652 6.12506 12.9847C5.94464 12.8043 5.94464 12.5118 6.12506 12.3314L9.8211 8.63532C10.0015 8.45489 10.2941 8.45489 10.4745 8.63532Z" fill="#1B2746"/>
<path fill-rule="evenodd" clip-rule="evenodd" d="M6.12506 1.01527C6.30549 0.834846 6.59801 0.834846 6.77844 1.01527L10.4745 4.71131C10.6549 4.89173 10.6549 5.18426 10.4745 5.36468C10.2941 5.54511 10.0015 5.54511 9.8211 5.36468L6.12506 1.66864C5.94464 1.48822 5.94464 1.19569 6.12506 1.01527Z" fill="#1B2746"/>
<path fill-rule="evenodd" clip-rule="evenodd" d="M2.34535 5.36468C2.16492 5.18426 2.16492 4.89173 2.34535 4.71131L6.04139 1.01527C6.22181 0.834846 6.51434 0.834846 6.69476 1.01527C6.87518 1.19569 6.87518 1.48822 6.69476 1.66864L2.99872 5.36468C2.8183 5.54511 2.52577 5.54511 2.34535 5.36468Z" fill="#1B2746"/>
</svg>
