<svg width="16" height="16" viewBox="0 0 16 16" fill="none" xmlns="http://www.w3.org/2000/svg">
<path d="M10.7935 1.33333H5.20683C2.78016 1.33333 1.3335 2.77999 1.3335 5.20666V10.7867C1.3335 13.22 2.78016 14.6667 5.20683 14.6667H10.7868C13.2135 14.6667 14.6602 13.22 14.6602 10.7933V5.20666C14.6668 2.77999 13.2202 1.33333 10.7935 1.33333ZM6.0735 11.2667C6.0735 11.4533 5.92683 11.6 5.74016 11.6H3.88016C3.6935 11.6 3.54683 11.4533 3.54683 11.2667V8.18666C3.54683 7.76666 3.88683 7.42666 4.30683 7.42666H5.74016C5.92683 7.42666 6.0735 7.57333 6.0735 7.76V11.2667ZM9.26016 11.2667C9.26016 11.4533 9.1135 11.6 8.92683 11.6H7.06683C6.88016 11.6 6.7335 11.4533 6.7335 11.2667V5.15999C6.7335 4.73999 7.0735 4.39999 7.4935 4.39999H8.50683C8.92683 4.39999 9.26683 4.73999 9.26683 5.15999V11.2667H9.26016ZM12.4535 11.2667C12.4535 11.4533 12.3068 11.6 12.1202 11.6H10.2602C10.0735 11.6 9.92683 11.4533 9.92683 11.2667V8.9C9.92683 8.71333 10.0735 8.56666 10.2602 8.56666H11.6935C12.1135 8.56666 12.4535 8.90666 12.4535 9.32666V11.2667Z" fill="#576A7A"/>
</svg>
