<svg width="16" height="16" viewBox="0 0 16 16" fill="none" xmlns="http://www.w3.org/2000/svg">
<path fill-rule="evenodd" clip-rule="evenodd" d="M10.7794 8.37963C11.02 8.13907 11.02 7.74904 10.7794 7.50847L5.85139 2.58042C5.61083 2.33986 5.22079 2.33986 4.98023 2.58042C4.73966 2.82099 4.73966 3.21102 4.98023 3.45158L9.90828 8.37963C10.1488 8.6202 10.5389 8.6202 10.7794 8.37963Z" fill="#1B2746"/>
<path fill-rule="evenodd" clip-rule="evenodd" d="M4.98023 13.4196C5.22079 13.6601 5.61083 13.6601 5.85139 13.4196L10.7794 8.49153C11.02 8.25096 11.02 7.86093 10.7794 7.62037C10.5389 7.3798 10.1488 7.3798 9.90828 7.62037L4.98023 12.5484C4.73966 12.789 4.73966 13.179 4.98023 13.4196Z" fill="#1B2746"/>
</svg>
