<svg width="20" height="20" viewBox="0 0 20 20" fill="none" xmlns="http://www.w3.org/2000/svg">
<path opacity="0.5" d="M18.3334 11.6666V9.83154C18.3334 7.63791 18.3334 6.54108 17.6922 5.82815C17.6332 5.76258 17.5708 5.70016 17.5052 5.64118C16.7922 4.99996 15.6955 4.99996 13.5018 4.99996H13.1904C12.229 4.99996 11.7483 4.99996 11.3004 4.87228C11.0543 4.80213 10.8171 4.70388 10.5935 4.57948C10.1865 4.35302 9.84658 4.01311 9.16675 3.33329L8.70816 2.87475C8.48033 2.6469 8.36641 2.53297 8.2467 2.43372C7.73051 2.00583 7.09729 1.74353 6.42972 1.68111C6.27488 1.66663 6.11376 1.66663 5.79154 1.66663C5.0561 1.66663 4.68837 1.66663 4.38207 1.72442C3.03367 1.97883 1.97895 3.03355 1.72454 4.38195C1.66675 4.68825 1.66675 5.05598 1.66675 5.79142V11.6666C1.66675 14.8093 1.66675 16.3807 2.64306 17.357C3.61937 18.3333 5.19071 18.3333 8.33341 18.3333H11.6667C14.8094 18.3333 16.3808 18.3333 17.3571 17.357C18.3334 16.3807 18.3334 14.8093 18.3334 11.6666Z" fill="#1B2746"/>
<path d="M7.60727 11.25C7.60729 10.9048 7.88707 10.625 8.23226 10.625L9.375 10.625L9.37506 9.48222C9.37506 9.13703 9.65484 8.85726 10 8.85726C10.3452 8.85726 10.625 9.13703 10.625 9.48222L10.625 10.625L11.7678 10.625C12.113 10.625 12.3928 10.9048 12.3928 11.25C12.3928 11.5952 12.113 11.875 11.7678 11.875L10.625 11.875L10.625 13.0178C10.625 13.3629 10.3452 13.6427 10 13.6427C9.65483 13.6427 9.37505 13.363 9.37504 13.0178L9.375 11.875L8.23224 11.875C7.88706 11.875 7.60728 11.5952 7.60727 11.25Z" fill="#1C274C"/>
</svg>
