<svg width="24" height="24" viewBox="0 0 24 24" fill="none" xmlns="http://www.w3.org/2000/svg">
<path d="M12 0C5.376 0 0 5.376 0 12C0 18.624 5.376 24 12 24C18.624 24 24 18.624 24 12C24 5.376 18.636 0 12 0ZM15.6 14.676L12.12 16.68C11.688 16.932 11.208 17.052 10.74 17.052C10.26 17.052 9.792 16.932 9.36 16.68C8.496 16.176 7.98 15.288 7.98 14.28V10.26C7.98 9.264 8.496 8.364 9.36 7.86C10.224 7.356 11.256 7.356 12.132 7.86L15.612 9.864C16.476 10.368 16.992 11.256 16.992 12.264C16.992 13.272 16.476 14.172 15.6 14.676Z" fill="#292D32"/>
</svg>
