<svg width="25" height="24" viewBox="0 0 25 24" fill="none" xmlns="http://www.w3.org/2000/svg">
<path d="M17.25 4.15V7.85C17.25 10.1 16.35 11 14.1 11H11.4C9.15 11 8.25 10.1 8.25 7.85V4.15C8.25 1.9 9.15 1 11.4 1H14.1C16.35 1 17.25 1.9 17.25 4.15Z" fill="#8CA7C1"/>
<path d="M22.25 15.15V18.85C22.25 21.1 21.35 22 19.1 22H16.4C14.15 22 13.25 21.1 13.25 18.85V15.15C13.25 12.9 14.15 12 16.4 12H19.1C21.35 12 22.25 12.9 22.25 15.15Z" fill="#8CA7C1"/>
<path d="M11.25 15.15V18.85C11.25 21.1 10.35 22 8.1 22H5.4C3.15 22 2.25 21.1 2.25 18.85V15.15C2.25 12.9 3.15 12 5.4 12H8.1C10.35 12 11.25 12.9 11.25 15.15Z" fill="#8CA7C1"/>
</svg>
