<svg width="16" height="10" viewBox="0 0 16 10" fill="none" xmlns="http://www.w3.org/2000/svg">
<path fill-rule="evenodd" clip-rule="evenodd" d="M8.35708 8.98665C8.0263 9.31743 7.49001 9.31743 7.15923 8.98665L0.383159 2.21058C0.0523815 1.87981 0.0523815 1.34351 0.383159 1.01273C0.713936 0.681954 1.25023 0.681954 1.58101 1.01273L8.35708 7.7888C8.68786 8.11958 8.68786 8.65588 8.35708 8.98665Z" fill="#0696D6"/>
<path fill-rule="evenodd" clip-rule="evenodd" d="M15.2869 1.01273C15.6177 1.34351 15.6177 1.87981 15.2869 2.21058L8.51088 8.98665C8.1801 9.31743 7.6438 9.31743 7.31302 8.98665C6.98225 8.65588 6.98225 8.11958 7.31302 7.7888L14.0891 1.01273C14.4199 0.681954 14.9562 0.681954 15.2869 1.01273Z" fill="#0696D6"/>
</svg>
