<svg width="19" height="20" viewBox="0 0 19 20" fill="none" xmlns="http://www.w3.org/2000/svg">
<path fill-rule="evenodd" clip-rule="evenodd" d="M4.20937 2.41678L4.20937 2.41676V2.41676C4.20515 2.11033 4.20102 1.81043 4.21956 1.51202C4.24 1.18255 4.46481 0.994286 4.7884 0.986235C5.43154 0.970443 6.07562 0.969831 6.71846 0.985933C7.04018 0.993674 7.26747 1.1776 7.28636 1.51017C7.30337 1.80841 7.29957 2.10784 7.29567 2.41441V2.41442L7.29567 2.41448C7.29396 2.54873 7.29224 2.68436 7.29224 2.82185H4.21306C4.21306 2.68531 4.21121 2.55043 4.20937 2.41678ZM2.81948 9.45671L2.81958 11.2267C2.81958 11.8365 2.8194 12.4462 2.81921 13.0559C2.81877 14.5392 2.81832 16.0223 2.82052 17.5058C2.82176 18.4617 3.3621 19.0206 4.30591 19.0219C7.57522 19.0274 10.8442 19.0274 14.1138 19.0225C15.0613 19.0206 15.6048 18.4648 15.6063 17.5129C15.6078 16.5304 15.6075 15.5479 15.6072 14.5655C15.6069 13.5045 15.6066 12.4436 15.6085 11.3828C15.6094 10.7158 15.3772 10.1513 14.9068 9.68123L14.2224 8.99713C12.6199 7.39559 11.0177 5.79434 9.41795 4.19049C8.92809 3.69938 8.34377 3.46125 7.65046 3.46528C6.96948 3.46934 6.2885 3.46857 5.60744 3.46779C5.19871 3.46733 4.78995 3.46686 4.38115 3.46744C3.35868 3.46868 2.82051 4.00407 2.81989 5.02251C2.81923 6.50066 2.81935 7.97865 2.81948 9.45671ZM8.33063 8.97809L8.33073 8.97791C8.51285 8.6583 8.69197 8.34394 8.86646 8.03635C9.0317 8.32641 9.20329 8.62254 9.37785 8.9238L9.37792 8.92391C9.80918 9.66819 10.2586 10.4438 10.6754 11.2369C10.9882 11.8314 11.3 12.465 11.4174 13.1159C11.6208 14.243 11.152 15.1534 10.1633 15.7544C9.29006 16.2849 8.14095 16.222 7.33121 15.5984C6.41526 14.893 6.10313 13.9482 6.34961 12.8313C6.42609 12.4854 6.55398 12.1383 6.72491 11.828C7.25916 10.8585 7.80722 9.89668 8.33053 8.97826L8.33055 8.97822L8.33063 8.97809ZM14.897 8.80682C14.9834 8.89456 15.0698 8.98231 15.1557 9.0705L15.1793 9.06243L15.1795 9.06236L15.1797 9.06228C15.2025 9.05447 15.2254 9.04663 15.2483 9.0386C15.2483 8.79477 15.2514 8.55079 15.2545 8.30681V8.30676C15.2613 7.76438 15.2681 7.22199 15.2412 6.68122C15.1765 5.38781 14.2649 4.19752 12.9968 3.95537C12.3294 3.82784 11.6404 3.81306 10.9514 3.79829C10.645 3.79171 10.3386 3.78514 10.0341 3.76865L9.97888 3.88581L9.94925 3.94855C9.99524 3.98298 10.0443 4.01499 10.0934 4.047L10.0934 4.047C10.2006 4.11693 10.3079 4.18689 10.3831 4.28205C10.842 4.86172 11.3873 5.10541 12.1617 5.07042C13.2347 5.02149 14.011 5.87892 14.032 6.95651C14.0337 7.04779 14.0322 7.13928 14.0307 7.23074V7.23077V7.23079V7.23082C14.0282 7.38722 14.0257 7.5435 14.0391 7.69843C14.0497 7.82198 14.097 7.96598 14.1779 8.05546C14.4102 8.31253 14.6536 8.55965 14.897 8.80677L14.897 8.80682ZM8.5746 10.1355C8.64182 9.95139 8.70905 9.76727 8.7782 9.584C8.76148 9.57842 8.74507 9.57316 8.72835 9.56789C8.61034 9.76419 8.49193 9.96022 8.37352 10.1563C8.07744 10.6465 7.78136 11.1366 7.4916 11.6308C7.32315 11.9175 7.16213 12.2126 7.03207 12.5179C6.83761 12.9744 6.79953 13.4534 6.95064 13.933C7.02681 14.1736 7.20146 14.3105 7.46002 14.2566C7.72508 14.2009 7.82633 13.999 7.7706 13.751C7.58233 12.9134 7.76936 12.138 8.09852 11.3694C8.27196 10.9645 8.42329 10.55 8.5746 10.1355Z" fill="#E4032E"/>
</svg>
