<svg width="40" height="40" viewBox="0 0 40 40" fill="none" xmlns="http://www.w3.org/2000/svg">
<path fill-rule="evenodd" clip-rule="evenodd" d="M28.3335 2.08333C29.0238 2.08333 29.5835 2.64298 29.5835 3.33333V15.3156L32.4496 12.4494C32.9378 11.9613 33.7291 11.9613 34.2173 12.4494C34.7055 12.9376 34.7055 13.7291 34.2173 14.2172L29.2173 19.2172C28.7291 19.7053 27.9378 19.7053 27.4496 19.2172L22.4496 14.2172C21.9615 13.7291 21.9615 12.9376 22.4496 12.4494C22.9378 11.9613 23.7291 11.9613 24.2173 12.4494L27.0835 15.3156V3.33333C27.0835 2.64298 27.6431 2.08333 28.3335 2.08333Z" fill="#1C274C"/>
<path fill-rule="evenodd" clip-rule="evenodd" d="M19.9999 2.08333H19.9043C16.057 2.08331 13.0419 2.0833 10.6894 2.39958C8.28154 2.72331 6.3815 3.39888 4.89015 4.89023C3.3988 6.38158 2.72324 8.28161 2.3995 10.6895C2.08322 13.042 2.08324 16.057 2.08325 19.9043V20.0957C2.08324 23.943 2.08322 26.958 2.3995 29.3105C2.72324 31.7183 3.3988 33.6185 4.89015 35.1098C6.3815 36.6012 8.28154 37.2767 10.6894 37.6005C13.0419 37.9167 16.057 37.9167 19.9043 37.9167H20.0956C23.9429 37.9167 26.9579 37.9167 29.3104 37.6005C31.7183 37.2767 33.6184 36.6012 35.1098 35.1098C36.6011 33.6185 37.2766 31.7183 37.6004 29.3105C37.9166 26.958 37.9166 23.943 37.9166 20.0957V20C37.9166 19.3097 37.3569 18.75 36.6666 18.75C35.9762 18.75 35.4166 19.3097 35.4166 20C35.4166 23.9637 35.4139 26.8107 35.1226 28.9773C35.1111 29.0628 35.0993 29.147 35.0869 29.2297L30.4636 25.0687C28.2979 23.1197 25.0728 22.9255 22.6889 24.6008L22.1919 24.9502C21.3636 25.5322 20.2368 25.4347 19.5208 24.7188L12.3713 17.5692C10.4789 15.6769 7.44347 15.5758 5.42944 17.338L4.58489 18.077C4.59245 15.0899 4.63532 12.8217 4.8772 11.0226C5.16367 8.89195 5.70849 7.60741 6.65792 6.658C7.60734 5.70856 8.89187 5.16374 11.0226 4.87728C13.1892 4.58598 16.0362 4.58333 19.9999 4.58333C20.6903 4.58333 21.2499 4.02368 21.2499 3.33333C21.2499 2.64298 20.6903 2.08333 19.9999 2.08333ZM4.8772 28.9773C5.16367 31.108 5.70849 32.3925 6.65792 33.342C7.60734 34.2915 8.89187 34.8363 11.0226 35.1227C13.1892 35.414 16.0362 35.4167 19.9999 35.4167C23.9636 35.4167 26.8106 35.414 28.9773 35.1227C31.1079 34.8363 32.3924 34.2915 33.3419 33.342C33.7477 32.9362 34.0798 32.469 34.3493 31.9007C34.2844 31.861 34.2223 31.815 34.1638 31.7623L28.7911 26.927C27.4918 25.7575 25.5566 25.641 24.1263 26.6462L23.6293 26.9955C21.8071 28.2762 19.3279 28.0615 17.7531 26.4865L10.6035 19.337C9.64184 18.3753 8.09922 18.324 7.07569 19.2195L4.58389 21.3998C4.58819 24.6473 4.6214 27.0747 4.8772 28.9773Z" fill="#1C274C"/>
</svg>
