<svg width="15" height="15" viewBox="0 0 15 15" fill="none" xmlns="http://www.w3.org/2000/svg">
<path fill-rule="evenodd" clip-rule="evenodd" d="M4.89801 9.74124L4.89826 10.0731L4.89801 11.0031C4.8965 11.5304 4.98965 12.041 5.22151 12.5181C5.96768 14.0518 7.45976 14.8272 9.17119 14.5796C10.7689 14.3491 12.1153 12.8741 12.1792 11.2912C12.2002 10.7737 12.1967 10.2557 12.1932 9.7378C12.1919 9.54824 12.1907 9.35869 12.1907 9.16913C12.1907 9.02734 12.2282 8.97121 12.3737 8.93379C13.3127 8.69254 13.9492 7.81271 13.868 6.88562C13.7784 5.86498 12.9296 5.08559 11.8822 5.06245C10.9027 5.04128 10.0075 5.7862 9.87054 6.73644C9.72306 7.75806 10.3475 8.68368 11.3649 8.94167C11.4763 8.97072 11.5194 9.00863 11.5184 9.12679C11.5156 9.41925 11.5164 9.71121 11.5169 10.0037C11.5176 10.3547 11.5184 10.7058 11.5134 11.0563C11.4896 12.6747 10.2501 13.9134 8.60681 13.9695C7.14402 14.0198 5.78965 12.9134 5.61663 11.4896C5.54602 10.9086 5.55578 10.3242 5.5658 9.73927C5.57106 9.41728 5.57657 9.09528 5.56855 8.77378C5.5668 8.70189 5.5996 8.66792 5.66996 8.65611C6.51604 8.51332 7.15253 8.03033 7.71817 7.43213C7.81357 7.33169 7.8967 7.22337 7.89419 7.0796C7.89244 6.98409 7.93326 6.91319 7.98559 6.84032C8.47686 6.15645 8.84168 5.41202 9.0778 4.60801C9.30866 3.8237 9.41282 3.02905 9.25207 2.21716C9.15792 1.74155 8.9228 1.35703 8.47986 1.11529C8.11629 0.917362 7.71592 0.827755 7.31704 0.734208C7.18333 0.702206 7.07016 0.662325 6.9735 0.546131C6.80123 0.338852 6.49851 0.327036 6.28192 0.489511C6.06658 0.651001 6.01075 0.955273 6.15447 1.18225C6.2987 1.40922 6.57663 1.48898 6.82252 1.37082C6.88236 1.34226 6.93569 1.31961 7.00731 1.33684C7.34208 1.41808 7.67886 1.48849 7.99986 1.61748C8.30233 1.7386 8.49639 1.94933 8.58002 2.25901C8.61983 2.40672 8.63986 2.55738 8.64612 2.70951C8.70597 4.10778 8.20894 5.33177 7.42822 6.46614C7.39742 6.51094 7.36562 6.5459 7.30527 6.55673C7.15704 6.58282 7.05037 6.67539 6.95422 6.78223C6.76092 6.99837 6.54508 7.19038 6.30095 7.34941C5.84123 7.64827 5.34921 7.79696 4.7971 7.64138C4.28129 7.49613 3.88317 7.17807 3.52711 6.80044C3.43271 6.7005 3.33907 6.60006 3.19835 6.57199C3.11346 6.55427 3.06889 6.50405 3.02232 6.44004C2.56986 5.81427 2.2461 5.12793 2.02826 4.39285C1.83121 3.72868 1.75208 3.05268 1.86601 2.36438C1.92736 1.99413 2.13693 1.74057 2.49825 1.6032C2.81024 1.48406 3.13575 1.41808 3.45775 1.33635C3.52886 1.31863 3.5822 1.34127 3.64254 1.37082C3.88817 1.49095 4.16361 1.41267 4.31259 1.18569C4.45456 0.969551 4.41625 0.690882 4.2207 0.516098C4.02264 0.33836 3.70389 0.317681 3.52761 0.51659C3.38689 0.676111 3.21537 0.710083 3.03409 0.756857C2.84454 0.805599 2.65374 0.850403 2.4672 0.908992C1.9559 1.06999 1.52573 1.32995 1.32241 1.85381C1.10457 2.41558 1.09005 2.99803 1.16842 3.58245C1.32942 4.78132 1.78113 5.8704 2.49149 6.85657L2.51427 6.88611C2.54207 6.92058 2.57136 6.9575 2.56911 6.99049C2.55033 7.24848 2.71133 7.40357 2.87083 7.55817L2.92316 7.60888C3.44398 8.12486 4.0339 8.52563 4.78032 8.65266C4.896 8.67186 4.89976 8.73882 4.89901 8.82744C4.89775 9.13171 4.89801 9.43648 4.89801 9.74124ZM13.1887 7.02643C13.1965 7.75511 12.6046 8.34691 11.8639 8.35036C11.127 8.3538 10.5218 7.76249 10.5216 7.03874C10.5211 6.31892 11.13 5.71826 11.8604 5.71875C12.5863 5.71875 13.181 6.30415 13.1887 7.02643Z" fill="#1B2746"/>
<ellipse cx="11.8125" cy="6.9375" rx="0.9375" ry="0.9375" fill="#1B2746"/>
</svg>
