<svg width="40" height="40" viewBox="0 0 40 40" fill="none" xmlns="http://www.w3.org/2000/svg">
<path fill-rule="evenodd" clip-rule="evenodd" d="M7.72939 19.0284C8.34896 18.4187 8.96054 17.8002 9.59037 17.2016C10.2481 16.5764 11.2619 16.7848 11.6271 17.6047C11.8502 18.1052 11.7319 18.6578 11.2939 19.0928C10.1493 20.2295 9.00078 21.3619 7.85398 22.4962C7.65024 22.6976 7.45107 22.9039 7.24278 23.1004C6.68804 23.6241 5.96189 23.6403 5.42616 23.106C4.06593 21.7496 2.714 20.3845 1.3712 19.0105C0.870075 18.4977 0.88446 17.7195 1.36525 17.2216C1.85072 16.719 2.64081 16.7026 3.16133 17.2075C3.71715 17.7466 4.2537 18.3062 4.80007 18.8554C4.87713 18.9329 4.96229 19.0022 5.06185 19.0915C5.16032 18.4127 5.23314 17.7808 5.34587 17.1562C5.89864 14.0944 7.20621 11.3925 9.22289 9.04895C11.9406 5.89088 15.3392 3.90734 19.4331 3.22672C23.0478 2.62579 26.4969 3.22678 29.7412 4.94238C33.1027 6.71994 35.6235 9.34666 37.3127 12.7744C38.2485 14.6733 38.8395 16.6856 38.9574 18.8085C39.3329 25.5654 36.6166 30.7995 31.1251 34.5539C27.7838 36.8381 24.0296 37.6883 20.0207 37.1837C16.3254 36.7186 13.1153 35.1604 10.4047 32.5727C9.83897 32.0325 9.8083 31.2476 10.3121 30.7177C10.8131 30.1909 11.5911 30.1856 12.1513 30.7248C14.1161 32.6155 16.3976 33.9162 19.0688 34.4541C25.2034 35.6893 31.646 33.1152 34.768 27.2352C36.136 24.6587 36.6576 21.8947 36.4416 18.9835C36.2422 16.2967 35.4162 13.8297 33.8702 11.6285C31.7899 8.66662 28.9799 6.76206 25.4788 5.97647C21.4527 5.07309 17.6116 5.60886 14.1079 7.87808C10.6136 10.1411 8.56264 13.4106 7.82299 17.5258C7.73548 18.0126 7.69137 18.5074 7.62711 18.9986C7.66127 19.0087 7.69536 19.0185 7.72939 19.0284Z" fill="#1B2746"/>
<path fill-rule="evenodd" clip-rule="evenodd" d="M22.8018 15.5093C22.8021 16.7993 22.8069 18.0893 22.7978 19.3793C22.7961 19.6235 22.8633 19.7903 23.0576 19.9507C24.7323 21.3338 26.3955 22.7311 28.0665 24.1186C28.4711 24.4546 28.7072 24.8608 28.6147 25.3985C28.4424 26.4006 27.3383 26.8143 26.5437 26.1687C25.6474 25.4407 24.7676 24.6921 23.8806 23.9522C22.888 23.1242 21.903 22.2867 20.8994 21.4725C20.4615 21.1173 20.2574 20.6956 20.26 20.1235C20.2731 17.2984 20.265 14.4732 20.2669 11.648C20.2674 10.9861 20.608 10.4866 21.1575 10.3226C21.9887 10.0745 22.7913 10.6613 22.7986 11.5435C22.8096 12.8653 22.8015 14.1874 22.8018 15.5093Z" fill="#1B2746"/>
</svg>
