<svg width="16" height="15" viewBox="0 0 16 15" fill="none" xmlns="http://www.w3.org/2000/svg">
<path fill-rule="evenodd" clip-rule="evenodd" d="M3.39852 7.13565C3.63086 6.90701 3.8602 6.67506 4.09639 6.4506C4.34305 6.21613 4.7232 6.29429 4.86017 6.60176C4.94382 6.78946 4.89946 6.99669 4.7352 7.1598C4.30598 7.58606 3.87529 8.01071 3.44524 8.43608C3.36884 8.51159 3.29415 8.58896 3.21604 8.66265C3.00801 8.85905 2.73571 8.8651 2.53481 8.66476C2.02472 8.1561 1.51775 7.64419 1.0142 7.12895C0.826278 6.93663 0.831673 6.64479 1.01197 6.45812C1.19402 6.26964 1.4903 6.26347 1.6855 6.45281C1.89393 6.65497 2.09514 6.86481 2.30003 7.07077C2.32892 7.09983 2.36086 7.12581 2.39819 7.15932C2.43512 6.90476 2.46243 6.66779 2.5047 6.43358C2.71199 5.28541 3.20233 4.27219 3.95858 3.39336C4.97771 2.20908 6.2522 1.46525 7.78742 1.21002C9.14292 0.984672 10.4363 1.21004 11.653 1.85339C12.9135 2.51998 13.8588 3.505 14.4923 4.7904C14.8432 5.50248 15.0648 6.25708 15.109 7.05319C15.2498 9.58701 14.2312 11.5498 12.1719 12.9577C10.9189 13.8143 9.51112 14.1331 8.00776 13.9439C6.62203 13.7695 5.41824 13.1851 4.40177 12.2148C4.18961 12.0122 4.17811 11.7179 4.36706 11.5192C4.55491 11.3216 4.84668 11.3196 5.05675 11.5218C5.79354 12.2308 6.6491 12.7186 7.65081 12.9203C9.95127 13.3835 12.3673 12.4182 13.538 10.2132C14.051 9.247 14.2466 8.21051 14.1656 7.11882C14.0908 6.11126 13.7811 5.18615 13.2013 4.36069C12.4212 3.24998 11.3675 2.53577 10.0546 2.24118C8.54474 1.90241 7.10434 2.10332 5.79045 2.95428C4.4801 3.80291 3.71099 5.02898 3.43362 6.57216C3.4008 6.75471 3.38426 6.94028 3.36017 7.12449C3.37298 7.12825 3.38576 7.13195 3.39852 7.13565Z" fill="#0696D6"/>
<path fill-rule="evenodd" clip-rule="evenodd" d="M9.05058 5.81609C9.0507 6.29984 9.0525 6.78356 9.04908 7.26731C9.04844 7.35891 9.07363 7.42146 9.14651 7.48162C9.77451 8.00027 10.3982 8.52425 11.0249 9.04458C11.1766 9.17055 11.2651 9.32288 11.2304 9.52451C11.1658 9.90031 10.7518 10.0555 10.4538 9.81335C10.1177 9.54035 9.78775 9.25963 9.45515 8.98217C9.08292 8.67165 8.71354 8.35759 8.33717 8.05226C8.17297 7.91906 8.09642 7.76093 8.09742 7.5464C8.10232 6.487 8.09927 5.42754 8.10001 4.36811C8.10018 4.11988 8.22791 3.93258 8.43396 3.87106C8.74567 3.77802 9.04666 3.99809 9.04939 4.32889C9.0535 4.82459 9.05046 5.32036 9.05058 5.81609Z" fill="#0696D6"/>
</svg>
