<svg width="40" height="40" viewBox="0 0 40 40" fill="none" xmlns="http://www.w3.org/2000/svg">
<path d="M37.1374 19.1125L33.3874 15.3625L20.8874 2.86248C20.7712 2.74532 20.633 2.65233 20.4806 2.58887C20.3283 2.52541 20.1649 2.49274 19.9999 2.49274C19.8349 2.49274 19.6715 2.52541 19.5192 2.58887C19.3669 2.65233 19.2286 2.74532 19.1124 2.86248L6.61242 15.3625L2.86242 19.1125C2.74526 19.2287 2.65227 19.3669 2.58881 19.5193C2.52535 19.6716 2.49268 19.835 2.49268 20C2.49268 20.165 2.52535 20.3284 2.58881 20.4807C2.65227 20.633 2.74526 20.7713 2.86242 20.8875C2.97863 21.0046 3.11688 21.0976 3.2692 21.1611C3.42153 21.2246 3.58491 21.2572 3.74992 21.2572C3.91494 21.2572 4.07832 21.2246 4.23064 21.1611C4.38297 21.0976 4.52122 21.0046 4.63742 20.8875L6.24992 19.2625V36.25C6.24992 36.5815 6.38162 36.8994 6.61604 37.1339C6.85046 37.3683 7.1684 37.5 7.49992 37.5H32.4999C32.8314 37.5 33.1494 37.3683 33.3838 37.1339C33.6182 36.8994 33.7499 36.5815 33.7499 36.25V19.2625L35.3624 20.8875C35.4786 21.0046 35.6169 21.0976 35.7692 21.1611C35.9215 21.2246 36.0849 21.2572 36.2499 21.2572C36.4149 21.2572 36.5783 21.2246 36.7306 21.1611C36.883 21.0976 37.0212 21.0046 37.1374 20.8875C37.2546 20.7713 37.3476 20.633 37.411 20.4807C37.4745 20.3284 37.5072 20.165 37.5072 20C37.5072 19.835 37.4745 19.6716 37.411 19.5193C37.3476 19.3669 37.2546 19.2287 37.1374 19.1125ZM31.2499 35H8.74992V16.7625L19.9999 5.51248L31.2499 16.7625V35Z" fill="#0696D6"/>
</svg>
