<svg width="10" height="11" viewBox="0 0 10 11" fill="none" xmlns="http://www.w3.org/2000/svg">
<path d="M6.1875 7.0832V6.2915C6.36563 6.20323 6.87506 5.59679 6.9285 5.12295C7.06862 5.11227 7.28871 4.98361 7.35362 4.47574C7.38846 4.203 7.24992 4.0498 7.166 4.00151C7.166 4.00151 7.375 3.60447 7.375 3.1251C7.375 2.16398 6.99777 1.34377 6.1875 1.34377C6.1875 1.34377 5.90606 0.75 5 0.75C3.32087 0.75 2.625 1.82711 2.625 3.1251C2.625 3.56212 2.834 4.00151 2.834 4.00151C2.75008 4.0498 2.61154 4.20339 2.64637 4.47574C2.71129 4.98361 2.93138 5.11227 3.0715 5.12295C3.12494 5.59679 3.63438 6.20323 3.8125 6.2915V7.0832C3.41667 8.27075 0.25 7.47905 0.25 10.25H9.75C9.75 7.47905 6.58333 8.27075 6.1875 7.0832Z" fill="#0696D6"/>
</svg>
