<svg width="37" height="25" viewBox="0 0 37 25" fill="none" xmlns="http://www.w3.org/2000/svg">
<path d="M1.15625 0.9375C1.7945 0.9375 2.3125 1.4555 2.3125 2.09375V9.03125H6.65769L4.48509 6.85923C3.8295 6.20364 3.46875 5.33298 3.46875 4.40625C3.46875 3.47952 3.8295 2.60886 4.48452 1.95442C5.13953 1.29883 6.01019 0.9375 6.9375 0.9375C7.86481 0.9375 8.73547 1.29883 9.38991 1.95384L11.8429 4.40625H21.9688C22.607 4.40625 23.125 4.92425 23.125 5.5625C23.125 6.20075 22.607 6.71875 21.9688 6.71875H11.3642C11.0578 6.71875 10.7635 6.59677 10.5467 6.37997L7.75439 3.5882C7.31848 3.1523 6.55709 3.15114 6.12003 3.58936C5.9015 3.80731 5.78125 4.09753 5.78125 4.40625C5.78125 4.71497 5.9015 5.00519 6.12003 5.22372L9.58878 8.69247C9.80442 8.90753 10.1022 9.03125 10.4062 9.03125H31.2188V7.875C31.2188 7.23733 30.7002 6.71875 30.0625 6.71875H28.9062C28.268 6.71875 27.75 6.20075 27.75 5.5625C27.75 4.92425 28.268 4.40625 28.9062 4.40625H30.0625C31.9755 4.40625 33.5312 5.96198 33.5312 7.875V9.03125H34.6875V3.25C34.6875 2.61175 35.2055 2.09375 35.8438 2.09375C36.482 2.09375 37 2.61175 37 3.25V10.1875V14.8125C37 15.4508 36.482 15.9688 35.8438 15.9688H28.2287L29.7237 17.4638C29.7249 17.4649 29.7255 17.4661 29.7266 17.4672C30.1793 17.2505 30.684 17.125 31.2188 17.125C33.1318 17.125 34.6875 18.6807 34.6875 20.5938C34.6875 22.5068 33.1318 24.0625 31.2188 24.0625C29.7122 24.0625 28.4305 23.0947 27.9523 21.75H9.04766C8.56955 23.0947 7.28784 24.0625 5.78125 24.0625C3.86823 24.0625 2.3125 22.5068 2.3125 20.5938C2.3125 18.6807 3.86823 17.125 5.78125 17.125C6.31602 17.125 6.82072 17.2505 7.27339 17.4672C7.27455 17.4661 7.27512 17.4649 7.27628 17.4638L8.77131 15.9688H1.15625C0.518002 15.9688 0 15.4508 0 14.8125V10.1875V2.09375C0 1.4555 0.518002 0.9375 1.15625 0.9375ZM31.2188 21.75C31.8564 21.75 32.375 21.2314 32.375 20.5938C32.375 19.9561 31.8564 19.4375 31.2188 19.4375C30.5811 19.4375 30.0625 19.9561 30.0625 20.5938C30.0625 21.2314 30.5811 21.75 31.2188 21.75ZM5.78125 19.4375C5.14358 19.4375 4.625 19.9561 4.625 20.5938C4.625 21.2314 5.14358 21.75 5.78125 21.75C6.41892 21.75 6.9375 21.2314 6.9375 20.5938C6.9375 19.9561 6.41892 19.4375 5.78125 19.4375ZM2.3125 13.6562H11.5625C12.0302 13.6562 12.4517 13.9378 12.6309 14.3697C12.8101 14.8021 12.7112 15.2987 12.38 15.63L8.91122 19.0987C8.91006 19.0999 8.90891 19.1005 8.90775 19.1016C8.96036 19.2103 9.00661 19.3225 9.04766 19.4375H27.9523C27.9934 19.3225 28.0396 19.2103 28.0922 19.1016C28.0911 19.1005 28.0899 19.0999 28.0888 19.0987L24.9588 15.9688H18.5C17.8617 15.9688 17.3438 15.4508 17.3438 14.8125C17.3438 14.1742 17.8617 13.6562 18.5 13.6562H25.4375H34.6875V11.3438H2.3125V13.6562Z" fill="#0696D6"/>
<path d="M25.4375 6.71895C25.1311 6.71895 24.8363 6.59754 24.6223 6.37785C24.4027 6.16395 24.2812 5.86332 24.2812 5.5627C24.2812 5.26149 24.4027 4.96145 24.6223 4.74176C25.0502 4.31395 25.8248 4.31395 26.2584 4.74176C26.4723 4.96145 26.5938 5.25629 26.5938 5.5627C26.5938 5.86332 26.4723 6.16395 26.2527 6.37785C26.0387 6.59754 25.7439 6.71895 25.4375 6.71895Z" fill="black"/>
<path d="M15.8522 13.9918C16.0661 14.2114 16.1875 14.5063 16.1875 14.8127C16.1875 15.1191 16.0661 15.4139 15.8522 15.6279C15.6325 15.8475 15.3325 15.9689 15.0312 15.9689C14.7306 15.9689 14.43 15.8475 14.2161 15.6279C13.9964 15.4139 13.875 15.1191 13.875 14.8127C13.875 14.5115 13.9964 14.2114 14.2161 13.9918C14.6439 13.5639 15.4186 13.5639 15.8522 13.9918Z" fill="black"/>
</svg>
