<svg width="19" height="18" viewBox="0 0 19 18" fill="none" xmlns="http://www.w3.org/2000/svg">
<path fill-rule="evenodd" clip-rule="evenodd" d="M14.0044 10.6337L14.0044 9.241C14.0044 7.69558 14.0045 6.15017 14.0041 4.60474C14.004 4.39043 13.9889 4.38105 13.776 4.45607L8.78315 6.21573L2.60857 8.39184C2.36583 8.47736 2.36508 8.47629 2.36454 8.21746C2.36435 8.12084 2.36469 8.0242 2.36502 7.92757C2.36575 7.71498 2.36648 7.5024 2.36165 7.28996C2.3588 7.16492 2.39126 7.09781 2.52377 7.06456C2.84059 6.98503 2.84059 6.97775 2.84061 6.65156L2.84061 6.64671C2.84063 6.54726 2.84092 6.4478 2.84121 6.34835V6.34834C2.84201 6.07319 2.8428 5.79804 2.8379 5.52299C2.83569 5.40083 2.86944 5.33048 2.98739 5.27675C6.62337 3.62073 10.258 1.96169 13.8911 0.299392C14.0001 0.249515 14.0704 0.257685 14.1595 0.334819C14.2579 0.419943 14.3592 0.501705 14.4605 0.583453C14.586 0.684664 14.7114 0.785854 14.8311 0.893377C14.8913 0.947427 14.9384 1.04986 14.9393 1.1307C14.9476 1.83814 14.9513 2.54586 14.9394 3.25323C14.9362 3.43996 15.0008 3.5563 15.1365 3.67568C16.1986 4.61056 17.2553 5.55157 18.3087 6.49629C18.369 6.55031 18.4147 6.65202 18.4174 6.73322C18.4239 6.92799 18.4233 7.12299 18.4226 7.31801C18.4221 7.47384 18.4216 7.62968 18.4248 7.78541C18.4274 7.91549 18.3889 7.96397 18.2536 7.96151C18.2309 7.9611 18.21 7.9606 18.1907 7.96013C18.0733 7.95733 18.0156 7.95595 17.9876 7.9841C17.9605 8.01133 17.9612 8.06616 17.9624 8.17401C17.9627 8.20032 17.9631 8.22978 17.9631 8.26277L17.9629 8.6366C17.962 11.3957 17.9611 14.1548 17.9667 16.9139C17.967 17.0963 17.9188 17.1485 17.7342 17.1672C16.2244 17.3196 14.7153 17.4789 13.2061 17.6381C12.7238 17.689 12.2415 17.7399 11.7592 17.7905C11.0856 17.8613 10.4118 17.9316 9.73775 17.998C9.66946 18.0048 9.59533 17.9936 9.52907 17.9735C8.34834 17.6155 7.16774 17.257 5.98714 16.8986L5.97929 16.8962L5.97492 16.8949C4.25751 16.3735 2.5401 15.8521 0.8223 15.332C0.69818 15.2944 0.644415 15.236 0.65808 15.1054C0.664597 15.0431 0.662971 14.98 0.661344 14.9169C0.660513 14.8846 0.659682 14.8524 0.659935 14.8202C0.661505 14.6246 0.675704 14.6146 0.869108 14.6727C1.46699 14.8522 2.06481 15.0319 2.66263 15.2117L2.66415 15.2122C4.9589 15.9022 7.25366 16.5922 9.55227 17.2691C9.74392 17.3255 9.96442 17.2986 10.1779 17.2726C10.2273 17.2666 10.2762 17.2606 10.3243 17.2557C10.8572 17.2015 11.3897 17.1444 11.9223 17.0872C12.5654 17.0182 13.2086 16.9492 13.8523 16.8854C14.0276 16.868 14.0611 16.8056 14.0607 16.6449C14.0567 15.0504 14.0569 13.4559 14.0572 11.8614L14.0574 10.6337H14.0044ZM3.35027 12.9042L3.35039 12.694C3.35059 12.3301 3.35079 11.9663 3.35034 11.6024C3.35002 11.3406 3.32484 11.3218 3.05826 11.3503C2.85273 11.3722 2.64709 11.3931 2.44146 11.414L2.44118 11.4141L2.44111 11.4141C2.07948 11.4508 1.71786 11.4876 1.3569 11.5301C1.15775 11.5535 1.01747 11.4824 0.924564 11.3188C0.832268 11.1563 0.838904 10.9918 0.95282 10.8341C1.26308 10.4045 1.5723 9.97416 1.88151 9.54384L1.88186 9.54335L2.32692 8.92421C2.48828 8.69988 2.65903 8.64315 2.83571 8.75414C3.02576 8.87355 3.0868 9.14366 2.95911 9.35465C2.89019 9.46848 2.81286 9.57723 2.73554 9.68594L2.73553 9.68596C2.70603 9.72744 2.67654 9.76892 2.64751 9.81068C2.5993 9.88004 2.55082 9.94921 2.50234 10.0184C2.40761 10.1536 2.31288 10.2887 2.22014 10.4253C2.2035 10.4498 2.19513 10.4798 2.18677 10.5099C2.18291 10.5238 2.17904 10.5376 2.17436 10.551C2.18949 10.5553 2.20478 10.5612 2.22006 10.567C2.25307 10.5797 2.28608 10.5924 2.31753 10.5894C2.77869 10.5444 3.23939 10.4949 3.70005 10.4449C4.00957 10.4113 4.31906 10.3775 4.62856 10.3436C5.37017 10.2625 6.11178 10.1814 6.85375 10.1038C6.96096 10.0926 7.01897 10.0497 7.07359 9.96113C7.6812 8.97519 8.29099 7.99051 8.90728 7.00993C8.96675 6.91532 9.06261 6.81007 9.16162 6.78296C9.26487 6.75463 9.42837 6.77743 9.50001 6.84614C9.57941 6.92224 9.60895 7.05959 9.63498 7.18063L9.63498 7.18064L9.64044 7.2059C9.65002 7.2499 9.6404 7.29743 9.63065 7.34551C9.62365 7.3801 9.61658 7.41496 9.61657 7.44901C9.61529 9.64078 9.61528 11.8326 9.61526 14.0243L9.61525 15.3132C9.61525 15.3292 9.6155 15.3452 9.61574 15.3612V15.3612C9.61642 15.4048 9.61709 15.4484 9.61279 15.4914C9.59527 15.666 9.48 15.7478 9.30258 15.7131C8.3413 15.525 7.38009 15.337 6.41906 15.1478C5.80573 15.0271 5.19252 14.9058 4.5793 14.7845L4.57685 14.7841L3.62381 14.5956C3.40311 14.5521 3.35288 14.5001 3.35109 14.2772C3.34851 13.9456 3.34913 13.614 3.34975 13.2823C3.34998 13.1563 3.35021 13.0302 3.35027 12.9042ZM13.0945 13.5976C13.0944 13.2962 13.0944 12.9948 13.0944 12.6933L13.095 12.6934C13.095 12.4027 13.095 12.112 13.0951 11.8213C13.0952 11.0009 13.0953 10.1804 13.0945 9.35997C13.0942 9.10067 13.0549 9.06125 12.8056 9.09364C12.4164 9.14418 12.0274 9.19632 11.6384 9.24847C11.1978 9.30754 10.7572 9.3666 10.3163 9.42333C10.1376 9.44631 10.1203 9.55733 10.1205 9.70126C10.1216 11.0515 10.1216 12.4017 10.1217 13.7519C10.1217 14.3863 10.1217 15.0206 10.1219 15.655C10.1219 15.8971 10.1617 15.9405 10.4035 15.973C10.6418 16.0051 10.8801 16.0372 11.1185 16.0693C11.6685 16.1433 12.2186 16.2173 12.7686 16.2917C13.051 16.3299 13.0938 16.2952 13.0941 16.0089C13.0947 15.2052 13.0946 14.4014 13.0945 13.5976Z" fill="#F49600"/>
</svg>
