<svg width="41" height="40" viewBox="0 0 41 40" fill="none" xmlns="http://www.w3.org/2000/svg">
<path d="M0.333496 8C0.333496 3.58172 3.91522 0 8.3335 0H32.3335C36.7518 0 40.3335 3.58172 40.3335 8V32C40.3335 36.4183 36.7518 40 32.3335 40H8.3335C3.91522 40 0.333496 36.4183 0.333496 32V8Z" fill="#E6F7FE"/>
<path d="M12.3971 20.0001C12.1779 20.0001 12.0002 19.8224 12.0002 19.6032C12.0002 15.8986 14.5385 12.7868 17.9708 11.9121C17.844 12.0726 17.7264 12.242 17.6175 12.4164C17.0043 13.3981 16.5781 14.6712 16.2788 15.893C15.9772 17.1242 15.7937 18.3493 15.6856 19.2625C15.6529 19.5387 15.627 19.7874 15.6067 20.0001H12.3971Z" fill="#0696D6"/>
<path d="M28.6669 19.6032C28.6669 19.8224 28.4892 20.0001 28.27 20.0001H25.0604C25.0401 19.7874 25.0142 19.5387 24.9815 19.2625C24.8734 18.3493 24.69 17.1242 24.3884 15.893C24.089 14.6712 23.6629 13.3981 23.0496 12.4164C22.9407 12.242 22.8231 12.0726 22.6963 11.9121C26.1286 12.7868 28.6669 15.8986 28.6669 19.6032Z" fill="#0696D6"/>
<path d="M19.7086 26.6667V20H16.8626C16.8801 19.8238 16.9014 19.6255 16.927 19.4094C17.0316 18.5258 17.2076 17.355 17.4929 16.1904C17.7804 15.0164 18.1685 13.8937 18.6777 13.0785C19.1912 12.2562 19.7408 11.875 20.3336 11.875C20.9263 11.875 21.4759 12.2562 21.9895 13.0785C22.4987 13.8937 22.8867 15.0164 23.1743 16.1904C23.4596 17.355 23.6356 18.5258 23.7402 19.4094C23.7657 19.6255 23.787 19.8238 23.8045 20H20.9586V26.6667C20.9586 27.9323 19.9326 28.9583 18.6669 28.9583C17.4013 28.9583 16.3752 27.9323 16.3752 26.6667V25.8333C16.3752 25.4882 16.6551 25.2083 17.0002 25.2083C17.3454 25.2083 17.6252 25.4882 17.6252 25.8333V26.6667C17.6252 27.242 18.0916 27.7083 18.6669 27.7083C19.2422 27.7083 19.7086 27.242 19.7086 26.6667Z" fill="#0696D6"/>
</svg>
