<svg width="78" height="78" viewBox="0 0 78 78" fill="none" xmlns="http://www.w3.org/2000/svg">
<path fill-rule="evenodd" clip-rule="evenodd" d="M19.1455 7.7998H58.8545C65.1201 7.7998 70.2 12.8797 70.2 19.1453V58.8543C70.2 65.1199 65.1201 70.1998 58.8545 70.1998H19.1455C12.8785 70.1998 7.8 65.1199 7.8 58.8543V19.1453C7.8 12.8797 12.8785 7.7998 19.1455 7.7998ZM63.5062 48.8327L48.1884 41.1746C42.4065 38.2857 35.6049 38.2857 29.823 41.1746L14.5052 48.8327C14.0329 49.0682 13.4784 48.725 13.4784 48.1974V19.1445C13.4784 16.0118 16.0184 13.4718 19.1511 13.4718H58.8602C61.993 13.4718 64.533 16.0118 64.533 19.1445V48.1974C64.533 48.725 63.9785 49.0682 63.5062 48.8327ZM26.2357 19.1454C22.3201 19.1454 19.1448 22.3193 19.1448 26.2363C19.1448 30.1533 22.3201 33.3272 26.2357 33.3272C30.1513 33.3272 33.3266 30.1533 33.3266 26.2363C33.3266 22.3193 30.1513 19.1454 26.2357 19.1454Z" fill="#0696D6"/>
</svg>
