<svg width="16" height="16" viewBox="0 0 16 16" fill="none" xmlns="http://www.w3.org/2000/svg">
    <path fill-rule="evenodd" clip-rule="evenodd"
          d="M2.78105 2.1143C2 2.89535 2 4.15243 2 6.66658V9.33325C2 11.8474 2 13.1045 2.78105 13.8855C3.5621 14.6666 4.81917 14.6666 7.33333 14.6666H8.66667C11.1808 14.6666 12.4379 14.6666 13.2189 13.8855C14 13.1045 14 11.8474 14 9.33325V6.66658C14 4.15243 14 2.89535 13.2189 2.1143C12.4379 1.33325 11.1808 1.33325 8.66667 1.33325H7.33333C4.81917 1.33325 3.5621 1.33325 2.78105 2.1143ZM4.83333 5.33325C4.83333 5.05711 5.05719 4.83325 5.33333 4.83325H10.6667C10.9428 4.83325 11.1667 5.05711 11.1667 5.33325C11.1667 5.60939 10.9428 5.83325 10.6667 5.83325H5.33333C5.05719 5.83325 4.83333 5.60939 4.83333 5.33325ZM4.83333 7.99992C4.83333 7.72378 5.05719 7.49992 5.33333 7.49992H10.6667C10.9428 7.49992 11.1667 7.72378 11.1667 7.99992C11.1667 8.27605 10.9428 8.49992 10.6667 8.49992H5.33333C5.05719 8.49992 4.83333 8.27605 4.83333 7.99992ZM5.33333 10.1666C5.05719 10.1666 4.83333 10.3905 4.83333 10.6666C4.83333 10.9427 5.05719 11.1666 5.33333 11.1666H8.66667C8.9428 11.1666 9.16667 10.9427 9.16667 10.6666C9.16667 10.3905 8.9428 10.1666 8.66667 10.1666H5.33333Z"
          fill="white"/>
</svg>
