<svg width="40" height="40" viewBox="0 0 40 40" fill="none" xmlns="http://www.w3.org/2000/svg">
<path fill-rule="evenodd" clip-rule="evenodd" d="M35.9982 15.9666V15.9664V15.9648C36.0002 12.594 36.0022 9.22288 35.9934 5.85252C35.9839 2.56695 33.9363 0.517818 30.6982 0.517818C23.882 0.516237 17.0657 0.516237 10.2479 0.517818C7.18373 0.519399 5.03657 2.53849 5.0255 5.60271C4.99071 15.3677 4.9923 25.1327 5.0255 34.8978C5.03657 37.9667 7.16791 39.9953 10.2353 39.9969C16.2447 40.0024 22.2553 39.9995 28.265 39.9965L30.8421 39.9953C31.182 39.9953 31.5299 39.9921 31.8619 39.9273C34.4613 39.415 35.9807 37.4987 35.9902 34.6748C36.0027 31.2244 36.0005 27.7748 35.9983 24.326V24.3256V24.3252V24.3248C35.9974 22.9839 35.9965 21.6431 35.9965 20.3024C35.9965 18.8574 35.9974 17.4122 35.9982 15.967V15.9668V15.9666ZM33.3908 20.2518C33.3908 21.8572 33.391 23.4625 33.3912 25.0677V25.0809V25.0811V25.0812C33.3915 28.2869 33.3919 31.4924 33.3908 34.6985C33.3893 36.4789 32.5181 37.3896 30.7551 37.3928C23.9136 37.4023 17.0737 37.4023 10.2321 37.3896C8.50871 37.3864 7.63119 36.4726 7.6296 34.746C7.62802 25.0885 7.62802 15.431 7.6296 5.77347C7.6296 4.04372 8.50397 3.12667 10.2211 3.12351C17.0879 3.11086 23.9563 3.11086 30.8231 3.12351C32.4912 3.12667 33.3861 4.05637 33.3877 5.72603C33.3906 8.75203 33.3905 11.778 33.3904 14.8044V14.8045V14.8045V14.8045C33.3903 16.6201 33.3902 18.4359 33.3908 20.2518ZM28.2346 8.98159C28.3462 8.9264 28.5042 8.95916 28.6624 8.99194C28.9348 9.04837 29.2074 9.10486 29.2434 8.7128C29.2879 8.21729 28.9678 8.26914 28.6575 8.3194C28.5272 8.34051 28.3986 8.36134 28.2994 8.34123C28.0069 8.28273 27.9832 8.14992 27.9785 7.91908C27.9737 7.67558 28.0844 7.59652 28.3105 7.60917C28.4175 7.61471 28.5251 7.61271 28.6325 7.61071H28.6326H28.6326H28.6326H28.6326H28.6327H28.6327H28.6327C28.7094 7.60928 28.786 7.60786 28.8623 7.60917C29.1202 7.61367 29.1264 7.44475 29.1331 7.26414L29.1343 7.23445C29.1409 7.04965 29.0391 7.02248 28.9116 6.98843C28.8875 6.98198 28.8624 6.97529 28.837 6.96724C28.7442 6.93732 28.621 6.95912 28.4979 6.9809C28.2373 7.02701 27.9774 7.07301 28.0085 6.6273C28.0354 6.24804 28.2922 6.29148 28.5493 6.33497C28.6706 6.35548 28.7919 6.376 28.8892 6.35218C29.0948 6.30317 29.2228 6.25415 29.2481 6.02647C29.275 5.77191 29.1343 5.73396 28.9272 5.6976C27.4172 5.43513 27.1895 5.62012 27.1879 7.13168C27.1879 7.22146 27.1907 7.31154 27.1934 7.4016L27.1934 7.40171C27.1995 7.60185 27.2056 7.80187 27.1816 7.99813C27.0851 8.78395 27.2844 9.24564 28.2346 8.98159ZM18.2292 8.591C18.1327 8.89932 17.9699 8.99735 17.6647 9.00684C17.3153 9.0179 17.1619 8.88035 17.0639 8.54515C16.8703 7.88776 16.655 7.23679 16.4164 6.5152L16.4164 6.51515L16.4164 6.51513L16.4163 6.51492C16.3198 6.22304 16.2195 5.9196 16.1152 5.59952C17.117 5.79558 17.2456 6.43486 17.3673 7.04026C17.4341 7.37222 17.4988 7.69399 17.7043 7.92693C17.7604 7.74417 17.8186 7.55374 17.8783 7.35848C17.9834 7.01485 18.093 6.65629 18.2039 6.29838C18.3979 5.6706 18.3984 5.67067 19.1644 5.77898L19.17 5.77977C19.0816 6.04137 18.9924 6.30212 18.9033 6.56248C18.6719 7.23844 18.4415 7.91184 18.2292 8.591ZM22.4795 7.3277C22.47 8.35069 21.7917 9.05429 20.8335 9.03058C19.9102 9.00686 19.3062 8.31274 19.3251 7.2945C19.3441 6.32053 20.0208 5.61061 20.9268 5.61535C21.836 5.62167 22.489 6.3395 22.4795 7.3277ZM21.6734 7.22603C21.5775 6.74149 21.4761 6.22867 20.8478 6.27942C20.2216 6.33001 20.1062 6.88499 20.1284 7.40044C20.1505 7.88742 20.3118 8.40129 20.9094 8.38864C21.503 8.37577 21.5868 7.89848 21.6652 7.45175C21.6735 7.4046 21.6817 7.35779 21.6905 7.3119L21.6734 7.22603ZM11.7398 7.68863V7.6888C11.7388 7.96272 11.7378 8.23694 11.7423 8.51039C11.7427 8.53933 11.742 8.56891 11.7413 8.59849C11.7368 8.79833 11.7323 8.99819 12.0601 9.0037C12.3858 9.00844 12.5313 8.8946 12.5249 8.54991C12.5091 7.74196 12.506 6.93401 12.5265 6.12606C12.536 5.76714 12.3811 5.69599 12.0617 5.69125C11.7245 5.68579 11.7315 5.87595 11.7386 6.0725L11.7386 6.07253C11.7398 6.10364 11.7409 6.13491 11.7407 6.16558C11.7396 6.42594 11.74 6.6863 11.7403 6.94665C11.7405 7.07683 11.7407 7.20701 11.7407 7.33719C11.7407 7.45377 11.7403 7.57048 11.7398 7.68726V7.68743V7.6876V7.68777V7.68794V7.68812V7.68829V7.68846V7.68863ZM22.9421 7.63481V7.6347V7.63459V7.63448V7.63437V7.63426V7.63414V7.63403V7.63392C22.9424 7.51497 22.9426 7.39605 22.9426 7.27713C22.9426 7.1555 22.944 7.03386 22.9454 6.91227L22.9454 6.91191C22.9484 6.64165 22.9515 6.37162 22.9395 6.10235C22.9268 5.80985 23.0075 5.67861 23.3284 5.6881C23.632 5.69601 23.7395 5.80352 23.7348 6.1071C23.7205 6.91663 23.7205 7.72617 23.7348 8.5357C23.7395 8.8709 23.613 9.00213 23.2778 9.00688C22.9386 9.01258 22.9412 8.80883 22.9438 8.5995V8.59934V8.59917C22.9441 8.57641 22.9444 8.55359 22.9442 8.53096C22.9408 8.23174 22.9415 7.93332 22.9421 7.63513V7.63481ZM14.2557 12.6922C13.0842 12.6877 11.9128 12.6832 10.7414 12.7083C10.2402 12.7194 10.1137 12.566 10.1406 12.0901C10.1421 12.0624 10.1434 12.0354 10.1447 12.0091V12.0091V12.0091V12.0091V12.009C10.1633 11.6271 10.175 11.3853 10.743 11.3912C13.9701 11.4276 17.1987 11.4228 20.4258 11.3928C21.0061 11.3881 21.0298 11.6379 21.0488 12.0917C21.0677 12.5897 20.9001 12.713 20.4242 12.7051C19.2685 12.6869 18.112 12.69 16.9559 12.6932H16.9557H16.9556H16.9554H16.9552H16.9551H16.9549C16.5106 12.6944 16.0664 12.6956 15.6224 12.6956C15.1668 12.6956 14.7112 12.6939 14.2557 12.6922ZM26.2698 9.00685L26.309 9.00168C26.5124 8.97531 26.7725 8.94161 26.6983 8.59734C26.6271 8.27479 26.4248 8.25898 26.1876 8.36966C25.3986 8.40287 25.0033 8.05818 24.9954 7.34668C24.9875 6.60513 25.3053 6.3063 26.1386 6.32211C26.1725 6.3227 26.2064 6.32423 26.2399 6.32575C26.4767 6.33647 26.6919 6.34621 26.7252 6.01379C26.7608 5.65222 26.4947 5.64968 26.2871 5.64771C26.2459 5.64732 26.2071 5.64695 26.1734 5.64381C25.454 5.57424 24.7994 5.77188 24.4136 6.42647C24.0436 7.05575 24.0309 7.75144 24.4452 8.36176C24.8753 8.98946 25.5599 9.10172 26.2698 9.00685ZM13.0957 8.51242C13.101 8.45662 13.1061 8.40199 13.1048 8.3523C13.0859 7.64554 13.089 6.93562 13.1017 6.23043C13.1024 6.19084 13.097 6.14576 13.0914 6.0992L13.0914 6.09918C13.0714 5.93195 13.0491 5.7455 13.2977 5.72448C13.3499 5.72016 13.4039 5.7118 13.4586 5.70333C13.7044 5.66529 13.9648 5.625 14.1341 5.93793C14.3238 6.29032 14.5238 6.63794 14.724 6.98586L14.724 6.98588L14.7241 6.98591L14.7241 6.98593C14.8059 7.12816 14.8878 7.27044 14.969 7.41312C15.0117 7.40521 15.0528 7.39731 15.0939 7.3894C15.0939 7.25824 15.0946 7.12708 15.0953 6.99596V6.99593V6.99591V6.99588V6.99585C15.0969 6.68127 15.0985 6.36691 15.0907 6.05335C15.0828 5.77033 15.2267 5.70076 15.4781 5.69602C15.7437 5.69128 15.8512 5.78614 15.8465 6.05968C15.8405 6.48273 15.841 6.90625 15.8415 7.32997V7.33002V7.33006V7.33011V7.33016C15.8419 7.69343 15.8422 8.05686 15.8386 8.42029C15.8383 8.46005 15.8414 8.50244 15.8445 8.5455L15.8445 8.54552V8.54554V8.54556C15.8585 8.73873 15.8735 8.94525 15.5904 8.98791C15.3042 9.0306 15.0338 9.02428 14.8646 8.68434C14.6612 8.27631 14.4362 7.87865 14.1781 7.4224C14.0591 7.21212 13.9331 6.98939 13.799 6.74746C13.799 6.96083 13.8002 7.15492 13.8014 7.33579V7.33599V7.33618V7.33636V7.33653V7.33656V7.3366V7.33663V7.33667C13.8039 7.72774 13.8061 8.05699 13.7942 8.38551C13.7924 8.43488 13.7964 8.4889 13.8005 8.54374C13.8176 8.77167 13.8358 9.01397 13.4369 8.9974C13.0518 8.98093 13.0747 8.73717 13.0957 8.51242ZM30.2033 17.4185C30.6951 17.4169 30.8737 17.5133 30.8706 18.0541C30.8468 22.078 30.8437 26.1036 30.8737 30.1259C30.8785 30.7268 30.6524 30.7963 30.1432 30.7932C27.736 30.7789 25.3297 30.7807 22.923 30.7825C22.1206 30.7831 21.3183 30.7837 20.5158 30.7837C19.6104 30.7841 18.7049 30.7832 17.7995 30.7823H17.7995H17.7994C15.4953 30.7799 13.1914 30.7775 10.8883 30.7979C10.3144 30.8027 10.1326 30.6809 10.1373 30.069C10.1689 26.0957 10.1658 22.1239 10.1389 18.1521C10.1357 17.5687 10.2717 17.4121 10.8709 17.4137C17.3156 17.4374 23.7587 17.4343 30.2033 17.4185ZM11.9951 29.4429C14.5976 29.4239 17.2002 29.416 19.8027 29.4492C20.3687 29.4571 20.4288 29.231 20.4225 28.7646C20.4066 27.6691 20.4095 26.5727 20.4123 25.4767C20.4135 25.0478 20.4146 24.6191 20.4146 24.1904C20.4146 23.7465 20.4135 23.3027 20.4123 22.859C20.4095 21.7254 20.4066 20.5922 20.4225 19.4581C20.4288 18.9869 20.364 18.7592 19.7964 18.7656C17.1939 18.7956 14.5913 18.7893 11.9888 18.7687C11.5398 18.7656 11.4164 18.8984 11.4196 19.3443C11.437 22.5255 11.4386 25.7067 11.418 28.8879C11.4164 29.348 11.5635 29.4461 11.9951 29.4429ZM22.2376 29.4461C22.9713 29.4065 23.7112 29.4081 24.4449 29.4445C24.9081 29.4682 25.0125 29.299 25.0062 28.861C24.9889 27.7146 24.9918 26.5673 24.9946 25.4199C24.9956 24.9895 24.9967 24.5591 24.9967 24.1287C24.9967 23.6866 24.9957 23.2443 24.9948 22.802V22.8018V22.8017C24.9922 21.6402 24.9897 20.4784 25.0046 19.3174C25.0093 18.9158 24.9066 18.7529 24.4812 18.7687C23.7207 18.7972 22.9555 18.8035 22.1949 18.7687C21.7491 18.7482 21.6874 18.9363 21.689 19.3221C21.7016 22.5033 21.7032 25.6846 21.6874 28.8658C21.6842 29.2911 21.7696 29.4714 22.2376 29.4461ZM26.7502 29.4445C27.5123 29.416 28.2775 29.4081 29.038 29.4461C29.5045 29.4682 29.5993 29.2911 29.593 28.8626C29.5758 27.6955 29.5786 26.5283 29.5814 25.3612C29.5825 24.9235 29.5835 24.4858 29.5835 24.0481C29.5835 23.6273 29.5826 23.2065 29.5817 22.7856V22.7854V22.7852C29.5793 21.6276 29.5768 20.4697 29.593 19.3126C29.5993 18.9015 29.4808 18.7561 29.0633 18.7719C28.3012 18.8004 27.5376 18.794 26.7755 18.7735C26.4213 18.764 26.2663 18.8415 26.2679 19.2462C26.2837 22.4828 26.2837 25.7193 26.2695 28.9559C26.2679 29.3291 26.3659 29.4587 26.7502 29.4445ZM14.1825 13.9471L14.182 13.9471C13.0278 13.9522 11.8737 13.9574 10.7206 13.9289C10.1782 13.9147 10.1276 14.1392 10.1435 14.574C10.1447 14.6067 10.1456 14.6387 10.1464 14.67L10.1464 14.6701C10.1564 15.0399 10.1636 15.3055 10.738 15.2982C13.9729 15.265 17.2095 15.2681 20.4445 15.295C21.013 15.2994 21.0248 15.0268 21.0411 14.6495C21.0424 14.6197 21.0437 14.5893 21.0453 14.5582C21.0706 14.0775 20.922 13.921 20.4271 13.9305C19.2403 13.9535 18.0536 13.9497 16.8675 13.946H16.8674H16.8671C16.4225 13.9446 15.9779 13.9432 15.5335 13.9432C15.0832 13.9432 14.6328 13.9451 14.1825 13.9471ZM21.9001 33.5522C23.0587 33.5563 24.2174 33.5604 25.3761 33.5364C25.9089 33.5237 25.9817 33.7483 25.9643 34.1957C25.9632 34.2239 25.9624 34.2516 25.9616 34.2788C25.9502 34.6574 25.9419 34.9337 25.3666 34.9278C22.1364 34.8977 18.9077 34.8993 15.6775 34.9262C15.1051 34.9309 15.0577 34.6859 15.0498 34.2226C15.0419 33.7388 15.132 33.5237 15.687 33.5364C16.8534 33.5625 18.0207 33.5576 19.1883 33.5528C19.6492 33.5509 20.1101 33.549 20.5711 33.549C21.0141 33.549 21.4571 33.5506 21.9001 33.5522Z" fill="#1B2746"/>
</svg>
