<svg width="18" height="19" viewBox="0 0 18 19" fill="none" xmlns="http://www.w3.org/2000/svg">
<g clip-path="url(#clip0_1314:32641)">
<path d="M15.0188 13.9577H13.4578C13.3198 13.9577 13.1875 13.9028 13.0899 13.8053C12.9923 13.7077 12.9375 13.5753 12.9375 13.4374C12.9375 13.2994 12.9923 13.167 13.0899 13.0694C13.1875 12.9719 13.3198 12.917 13.4578 12.917H15.0188C15.1568 12.917 15.2891 12.8622 15.3867 12.7646C15.4843 12.6671 15.5391 12.5347 15.5391 12.3967V6.15298C15.5391 6.01498 15.4843 5.88264 15.3867 5.78506C15.2891 5.68748 15.1568 5.63267 15.0188 5.63267H2.53127C2.39328 5.63267 2.26094 5.68748 2.16336 5.78506C2.06578 5.88264 2.01096 6.01498 2.01096 6.15298V12.3967C2.01096 12.5347 2.06578 12.6671 2.16336 12.7646C2.26094 12.8622 2.39328 12.917 2.53127 12.917H4.09221C4.23021 12.917 4.36255 12.9719 4.46013 13.0694C4.55771 13.167 4.61252 13.2994 4.61252 13.4374C4.61252 13.5753 4.55771 13.7077 4.46013 13.8053C4.36255 13.9028 4.23021 13.9577 4.09221 13.9577H2.53127C2.11729 13.9577 1.72026 13.7932 1.42752 13.5005C1.13479 13.2077 0.970337 12.8107 0.970337 12.3967V6.15298C0.970337 5.73899 1.13479 5.34196 1.42752 5.04923C1.72026 4.7565 2.11729 4.59204 2.53127 4.59204H15.0188C15.4328 4.59204 15.8298 4.7565 16.1225 5.04923C16.4153 5.34196 16.5797 5.73899 16.5797 6.15298V12.3967C16.5797 12.8107 16.4153 13.2077 16.1225 13.5005C15.8298 13.7932 15.4328 13.9577 15.0188 13.9577Z" fill="#0696D6"/>
<path d="M13.4578 17.0797H4.09221C3.95422 17.0797 3.82187 17.0249 3.7243 16.9273C3.62672 16.8297 3.5719 16.6974 3.5719 16.5594V11.3562C3.5719 11.2183 3.62672 11.0859 3.7243 10.9883C3.82187 10.8908 3.95422 10.8359 4.09221 10.8359H13.4578C13.5958 10.8359 13.7282 10.8908 13.8258 10.9883C13.9233 11.0859 13.9781 11.2183 13.9781 11.3562V16.5594C13.9781 16.6974 13.9233 16.8297 13.8258 16.9273C13.7282 17.0249 13.5958 17.0797 13.4578 17.0797ZM4.61252 16.0391H12.9375V11.8766H4.61252V16.0391Z" fill="#0696D6"/>
<path d="M13.4578 5.63271C13.3198 5.63271 13.1875 5.5779 13.0899 5.48032C12.9923 5.38274 12.9375 5.2504 12.9375 5.1124V2.51084H4.61252V5.1124C4.61252 5.2504 4.55771 5.38274 4.46013 5.48032C4.36255 5.5779 4.23021 5.63271 4.09221 5.63271C3.95422 5.63271 3.82187 5.5779 3.7243 5.48032C3.62672 5.38274 3.5719 5.2504 3.5719 5.1124V1.99053C3.5719 1.85253 3.62672 1.72019 3.7243 1.62261C3.82187 1.52503 3.95422 1.47021 4.09221 1.47021H13.4578C13.5958 1.47021 13.7282 1.52503 13.8258 1.62261C13.9233 1.72019 13.9781 1.85253 13.9781 1.99053V5.1124C13.9781 5.2504 13.9233 5.38274 13.8258 5.48032C13.7282 5.5779 13.5958 5.63271 13.4578 5.63271Z" fill="#0696D6"/>
<path d="M13.9781 6.67334H12.9375V7.71396H13.9781V6.67334Z" fill="#0696D6"/>
<path d="M11.8969 6.67334H9.81567V7.71396H11.8969V6.67334Z" fill="#0696D6"/>
</g>
<defs>
<clipPath id="clip0_1314:32641">
<rect width="16.65" height="16.65" fill="white" transform="translate(0.450012 0.949951)"/>
</clipPath>
</defs>
</svg>
