<svg width="54" height="54" viewBox="0 0 54 54" fill="none" xmlns="http://www.w3.org/2000/svg">
<path fill-rule="evenodd" clip-rule="evenodd" d="M7.70001 3.20001H46.3C48.7853 3.20001 50.8 5.21472 50.8 7.70001V46.3C50.8 48.7853 48.7853 50.8 46.3 50.8H7.70001C5.21474 50.8 3.20001 48.7853 3.20001 46.3V7.70001C3.20001 5.21474 5.21472 3.20001 7.70001 3.20001ZM7.70001 7.20001C7.42387 7.20001 7.20001 7.42387 7.20001 7.70001V32.4L14.4 25.2L28.3047 40.0953L39.6 28.8L46.8 36V7.70001C46.8 7.42387 46.5761 7.20001 46.3 7.20001H7.70001ZM27 24.4828C29.5863 24.4828 31.6828 22.3863 31.6828 19.8C31.6828 17.2138 29.5863 15.1172 27 15.1172C24.4138 15.1172 22.3172 17.2138 22.3172 19.8C22.3172 22.3863 24.4138 24.4828 27 24.4828Z" fill="#C9C8C8"/>
</svg>
