<svg width="30" height="30" viewBox="0 0 30 30" fill="none" xmlns="http://www.w3.org/2000/svg">
<path d="M19.8916 0.75H3V25.9614C3 26.8336 3.34646 27.67 3.96316 28.2867C4.57987 28.9034 5.4163 29.2499 6.28845 29.2499H23.8268C24.699 29.2499 25.5354 28.9034 26.1521 28.2867C26.7688 27.67 27.1153 26.8336 27.1153 25.9614V7.97362L19.8916 0.75ZM19.4422 3.39172L24.4736 8.42304H20.5384C20.2477 8.42304 19.9689 8.30755 19.7633 8.10199C19.5577 7.89642 19.4422 7.61761 19.4422 7.32689V3.39172ZM23.8268 27.0576H6.28845C5.99773 27.0576 5.71892 26.9421 5.51335 26.7365C5.30778 26.5309 5.1923 26.2521 5.1923 25.9614V2.9423H17.2499V7.32689C17.2499 8.19904 17.5964 9.03547 18.2131 9.65217C18.8298 10.2689 19.6662 10.6153 20.5384 10.6153H24.923V25.9614C24.923 26.2521 24.8075 26.5309 24.6019 26.7365C24.3964 26.9421 24.1175 27.0576 23.8268 27.0576Z" fill="#7C878E"/>
<path fill-rule="evenodd" clip-rule="evenodd" d="M10.4627 13.5H21.75V21H10.4627C10.4161 20.8602 10.3329 20.7213 10.3293 20.5805C10.3182 20.1566 10.3199 19.7323 10.3216 19.2981C10.3222 19.1368 10.3229 18.974 10.3229 18.8094C10.1924 18.8094 10.0651 18.8133 9.94048 18.8172C9.66122 18.8257 9.39523 18.8339 9.13645 18.7968C9.04626 18.7839 8.93432 18.801 8.82069 18.8183C8.54 18.861 8.24901 18.9053 8.25 18.5037C8.25096 18.12 8.53752 18.1628 8.81293 18.2039C8.92315 18.2204 9.03158 18.2365 9.1192 18.225C9.38725 18.1898 9.66158 18.1976 9.94489 18.2057C10.0693 18.2092 10.1954 18.2128 10.3234 18.2128C10.3234 18.1623 10.3193 18.1138 10.3154 18.068C10.3074 17.9727 10.3003 17.8889 10.333 17.8229C10.3968 17.6943 10.5292 17.5961 10.6321 17.4848C10.739 17.5982 10.8631 17.7015 10.9455 17.829C10.9742 17.8735 10.9669 17.9388 10.9596 18.004C10.9563 18.0333 10.9531 18.0627 10.9531 18.0901V19.8956L14.0004 17.014L10.9531 14.4648C10.9531 14.6042 10.9527 14.736 10.9523 14.8626C10.9514 15.1454 10.9506 15.4016 10.9546 15.6578C10.9583 15.8955 10.88 16.083 10.6021 16.0807C10.3338 16.0785 10.3189 15.8789 10.3208 15.6764C10.3231 15.4449 10.3225 15.2132 10.3219 14.9816C10.321 14.6275 10.32 14.2734 10.3292 13.9196C10.3329 13.7788 10.4161 13.6398 10.4627 13.5ZM18.1221 17.0267L21.0934 19.8988V14.118H11.5107L16.0162 17.8992C16.4522 17.5543 16.8789 17.2219 17.2996 16.8828C17.9673 16.3445 18.6295 15.7998 19.2976 15.2617C19.4894 15.1072 19.6771 14.9342 19.8986 14.8317C19.9799 14.794 20.0936 14.8191 20.2075 14.8442C20.2588 14.8556 20.3102 14.8669 20.3586 14.8724C20.3283 15.0041 20.3361 15.1622 20.2589 15.2611C20.1453 15.4071 19.9716 15.511 19.8232 15.6327L18.1221 17.0267ZM20.5126 20.3837H11.4706C12.5069 19.4042 13.5143 18.4521 14.5387 17.4838C14.9167 17.7901 15.328 18.0899 15.6947 18.4324C15.935 18.6567 16.1194 18.6416 16.3477 18.451C16.7369 18.1261 17.1313 17.8068 17.5013 17.5035L20.5126 20.3837Z" fill="#0696D6"/>
<path fill-rule="evenodd" clip-rule="evenodd" d="M6 16.7525C6.09635 16.5479 6.23368 16.4987 6.42448 16.5C8.1418 16.5117 9.85919 16.5104 11.5765 16.5022C11.7925 16.5012 12.0008 16.5304 12 16.8409C11.9991 17.1559 11.7759 17.2389 11.5586 17.2418C11.0261 17.2489 10.4934 17.2442 9.96082 17.2442C8.83041 17.2442 7.69993 17.2369 6.56958 17.2499C6.32414 17.2527 6.13615 17.1727 6 16.9164V16.7525Z" fill="#0696D6"/>
<path fill-rule="evenodd" clip-rule="evenodd" d="M6.00007 19.836C6.08522 19.5715 6.23213 19.492 6.47147 19.5006C7.18046 19.5262 7.89051 19.5131 8.6001 19.5077C8.80549 19.5061 8.98541 19.5332 8.99921 19.8478C9.01448 20.1941 8.80563 20.238 8.60184 20.2405C7.87011 20.2494 7.13778 20.2607 6.40684 20.2293C6.26841 20.2233 6.1355 20.0266 6 19.9178C6.00007 19.8905 6.00007 19.8633 6.00007 19.836Z" fill="#0696D6"/>
<path fill-rule="evenodd" clip-rule="evenodd" d="M8.26072 15.7474C7.90181 15.7474 7.54276 15.7413 7.18392 15.7497C6.95442 15.7551 6.75984 15.6821 6.75035 15.3543C6.7402 15.0054 6.95456 14.9997 7.16159 15.0008C7.90122 15.0048 8.64091 15.0058 9.38055 15C9.57297 14.9985 9.7462 15.0361 9.74993 15.3265C9.75379 15.6272 9.59746 15.7492 9.37026 15.7479C9.00035 15.7458 8.63056 15.7473 8.26072 15.7474Z" fill="#0696D6"/>
</svg>
