<svg width="40" height="40" viewBox="0 0 40 40" fill="none" xmlns="http://www.w3.org/2000/svg">
<path fill-rule="evenodd" clip-rule="evenodd" d="M29.5832 3.33334C30.2736 3.33334 30.8332 3.89299 30.8332 4.58334V33.5983L33.6994 30.7323C34.1876 30.2442 34.9789 30.2442 35.4671 30.7323C35.9552 31.2205 35.9552 32.0118 35.4671 32.5L30.4671 37.5C29.9789 37.9882 29.1876 37.9882 28.6994 37.5L23.6994 32.5C23.2112 32.0118 23.2112 31.2205 23.6994 30.7323C24.1875 30.2442 24.979 30.2442 25.4671 30.7323L28.3332 33.5983V4.58334C28.3332 3.89299 28.8929 3.33334 29.5832 3.33334Z" fill="#0696D6"/>
<path fill-rule="evenodd" clip-rule="evenodd" d="M2.95108 3.16764C3.89636 2.32776 5.21083 2.08334 6.63341 2.08334H13.3667C14.7893 2.08334 16.1038 2.32776 17.0491 3.16764C18.0321 4.04102 18.3334 5.29746 18.3334 6.63334V14.2C18.3334 15.535 18.0325 16.7933 17.0473 17.6652C16.1002 18.5034 14.7847 18.7418 13.363 18.7333H6.63341C5.21528 18.7333 3.8996 18.4947 2.9529 17.6569C1.96689 16.7843 1.66675 15.525 1.66675 14.1833V6.63334C1.66675 5.29746 1.9681 4.04102 2.95108 3.16764ZM4.61158 5.03653C4.39873 5.22565 4.16675 5.61922 4.16675 6.63334V14.1833C4.16675 15.2084 4.39993 15.5991 4.60976 15.7848C4.8589 16.0053 5.40154 16.2333 6.63341 16.2333H13.3746C14.6013 16.2411 15.1426 16.0124 15.3904 15.7931C15.601 15.6067 15.8334 15.2151 15.8334 14.2V6.63334C15.8334 5.61922 15.6014 5.22565 15.3886 5.03653C15.138 4.81391 14.5942 4.58334 13.3667 4.58334H6.63341C5.406 4.58334 4.86213 4.81391 4.61158 5.03653Z" fill="#0696D6"/>
<path fill-rule="evenodd" clip-rule="evenodd" d="M2.89745 22.4807C3.84367 21.5345 5.18322 21.25 6.63341 21.25H13.3667C14.8169 21.25 16.1565 21.5345 17.1027 22.4807C18.0489 23.4269 18.3334 24.7665 18.3334 26.2167V32.95C18.3334 34.4002 18.0489 35.7397 17.1027 36.686C16.1565 37.6322 14.8169 37.9167 13.3667 37.9167H6.63341C5.18322 37.9167 3.84367 37.6322 2.89745 36.686C1.95123 35.7397 1.66675 34.4002 1.66675 32.95V26.2167C1.66675 24.7665 1.95123 23.4269 2.89745 22.4807ZM4.66521 24.2485C4.4156 24.4981 4.16675 25.0169 4.16675 26.2167V32.95C4.16675 34.1498 4.4156 34.6686 4.66521 34.9182C4.91483 35.1678 5.43361 35.4167 6.63341 35.4167H13.3667C14.5666 35.4167 15.0853 35.1678 15.3349 34.9182C15.5846 34.6686 15.8334 34.1498 15.8334 32.95V26.2167C15.8334 25.0169 15.5846 24.4981 15.3349 24.2485C15.0853 23.9989 14.5666 23.75 13.3667 23.75H6.63341C5.43361 23.75 4.91483 23.9989 4.66521 24.2485Z" fill="#0696D6"/>
</svg>
