<svg width="17" height="17" viewBox="0 0 17 17" fill="none" xmlns="http://www.w3.org/2000/svg">
<path d="M9.03125 7.79175C9.03125 7.49836 8.79339 7.2605 8.5 7.2605C8.20661 7.2605 7.96875 7.49836 7.96875 7.79175V9.20842C7.96875 9.50181 8.20661 9.73967 8.5 9.73967C8.79339 9.73967 9.03125 9.50181 9.03125 9.20842V7.79175Z" fill="white"/>
<path fill-rule="evenodd" clip-rule="evenodd" d="M9.72166 1.4359L11.4456 1.72322C12.2643 1.85965 12.9275 1.97018 13.4464 2.12464C13.9867 2.2855 14.4331 2.51085 14.7768 2.91658C15.1204 3.32229 15.2694 3.79969 15.3392 4.3591C15.4062 4.89626 15.4062 5.56864 15.4062 6.39859V10.6015C15.4062 11.4314 15.4062 12.1038 15.3392 12.641C15.2694 13.2004 15.1204 13.6777 14.7768 14.0835C14.4331 14.4892 13.9867 14.7145 13.4464 14.8754C12.9275 15.0299 12.2643 15.1404 11.4457 15.2768L9.72166 15.5642C8.98981 15.6862 8.38475 15.787 7.90146 15.7987C7.39458 15.811 6.92466 15.7295 6.53258 15.3974C6.20162 15.117 6.03773 14.7525 5.95181 14.3438H5.62864C4.82623 14.3438 4.17048 14.3438 3.6528 14.2742C3.11167 14.2015 2.64251 14.044 2.26802 13.6695C1.89352 13.295 1.73608 12.8259 1.66332 12.2847C1.59372 11.7671 1.59374 11.1113 1.59375 10.3089V6.69117C1.59374 5.88876 1.59372 5.23302 1.66332 4.71533C1.73608 4.1742 1.89352 3.70504 2.26802 3.33055C2.64251 2.95606 3.11167 2.79861 3.6528 2.72586C4.17049 2.65626 4.82622 2.65627 5.62864 2.65628H5.95181C6.03772 2.24755 6.20162 1.88308 6.53258 1.60272C6.92466 1.27058 7.39458 1.18911 7.90146 1.20135C8.38475 1.21303 8.98988 1.31391 9.72166 1.4359ZM5.84375 12.2791C5.84374 12.6446 5.84373 12.9789 5.85185 13.2813H5.66667C4.81687 13.2813 4.23296 13.2802 3.79437 13.2212C3.37106 13.1643 3.16349 13.0624 3.01932 12.9182C2.87515 12.7741 2.77326 12.5665 2.71635 12.1431C2.65738 11.7045 2.65625 11.1207 2.65625 10.2709V6.7292C2.65625 5.87941 2.65738 5.2955 2.71635 4.85691C2.77326 4.43359 2.87515 4.22603 3.01932 4.08185C3.16349 3.93768 3.37106 3.83579 3.79437 3.77888C4.23296 3.71992 4.81687 3.71878 5.66667 3.71878H5.85185C5.84373 4.02118 5.84374 4.35551 5.84375 4.72101V12.2791ZM7.87582 2.26355C7.49169 2.25426 7.32828 2.32118 7.21933 2.41343C7.11046 2.50567 7.01759 2.65587 6.9636 3.03628C6.90752 3.4314 6.90625 3.9688 6.90625 4.76134V12.2387C6.90625 13.0312 6.90752 13.5687 6.9636 13.9638C7.01759 14.3442 7.11046 14.4944 7.21933 14.5866C7.32828 14.6789 7.49169 14.7458 7.87582 14.7365C8.27475 14.7269 8.80508 14.6398 9.5868 14.5095L11.2364 14.2346C12.0978 14.091 12.6953 13.9904 13.1432 13.8571C13.5768 13.728 13.8062 13.5855 13.9661 13.3967C14.1259 13.208 14.2289 12.9583 14.2849 12.5093C14.3428 12.0457 14.3438 11.4398 14.3438 10.5664V6.43366C14.3438 5.56027 14.3428 4.9544 14.2849 4.49074C14.2289 4.04179 14.1259 3.79208 13.9661 3.60335C13.8062 3.41461 13.5768 3.27207 13.1432 3.14297C12.6953 3.00964 12.0978 2.90908 11.2364 2.7655L9.5868 2.49057C8.80508 2.36029 8.27475 2.27318 7.87582 2.26355Z" fill="white"/>
</svg>
