<svg width="19" height="18" viewBox="0 0 19 18" fill="none" xmlns="http://www.w3.org/2000/svg">
<path fill-rule="evenodd" clip-rule="evenodd" d="M16.4584 5.5875C16.4771 5.625 16.4959 5.6625 16.5334 5.7C16.6084 5.775 16.6084 5.925 16.6084 6V15C16.6084 16.275 15.6334 17.25 14.3584 17.25H5.3584C4.0834 17.25 3.1084 16.275 3.1084 15V3C3.1084 1.725 4.0834 0.75 5.3584 0.75H11.3584C11.4334 0.75 11.5834 0.75 11.6584 0.825C11.7334 0.825 11.8084 0.9 11.8834 0.975L16.3834 5.475C16.4209 5.5125 16.4396 5.55 16.4584 5.5875ZM14.0584 5.25L12.1084 3.3V5.25H14.0584ZM14.3584 15.75H5.3584C4.9084 15.75 4.6084 15.45 4.6084 15V3C4.6084 2.55 4.9084 2.25 5.3584 2.25H10.6084V6C10.6084 6.45 10.9084 6.75 11.3584 6.75H15.1084V15C15.1084 15.45 14.8084 15.75 14.3584 15.75ZM12.8584 10.5C13.3084 10.5 13.6084 10.2 13.6084 9.75C13.6084 9.3 13.3084 9 12.8584 9H6.8584C6.4084 9 6.1084 9.3 6.1084 9.75C6.1084 10.2 6.4084 10.5 6.8584 10.5H12.8584ZM13.6084 12.75C13.6084 13.2 13.3084 13.5 12.8584 13.5H6.8584C6.4084 13.5 6.1084 13.2 6.1084 12.75C6.1084 12.3 6.4084 12 6.8584 12H12.8584C13.3084 12 13.6084 12.3 13.6084 12.75ZM6.8584 6C6.4084 6 6.1084 6.3 6.1084 6.75C6.1084 7.2 6.4084 7.5 6.8584 7.5H8.3584C8.8084 7.5 9.1084 7.2 9.1084 6.75C9.1084 6.3 8.8084 6 8.3584 6H6.8584Z" fill="#137A99"/>
</svg>
