<svg width="16" height="16" viewBox="0 0 16 16" fill="none" xmlns="http://www.w3.org/2000/svg">
<path fill-rule="evenodd" clip-rule="evenodd" d="M4.00004 5.18283C3.25287 5.18283 2.5363 5.47964 2.00797 6.00797C1.47964 6.5363 1.18283 7.25287 1.18283 8.00004C1.18283 8.74721 1.47964 9.46377 2.00797 9.9921C2.26957 10.2537 2.58014 10.4612 2.92194 10.6028C3.26374 10.7444 3.63007 10.8172 4.00004 10.8172H6.00004C6.28509 10.8172 6.51616 11.0483 6.51616 11.3334C6.51616 11.6184 6.28509 11.8495 6.00004 11.8495H4.00004C3.49452 11.8495 2.99395 11.7499 2.52691 11.5565C2.05987 11.363 1.63551 11.0795 1.27805 10.722C0.556141 10.0001 0.150574 9.02098 0.150574 8.00004C0.150574 6.9791 0.556141 5.99997 1.27805 5.27806C1.99997 4.55614 2.97909 4.15057 4.00004 4.15057H6.00004C6.28509 4.15057 6.51616 4.38165 6.51616 4.6667C6.51616 4.95175 6.28509 5.18283 6.00004 5.18283H4.00004ZM9.48391 4.6667C9.48391 4.38165 9.71498 4.15057 10 4.15057H12C12.5056 4.15057 13.0061 4.25014 13.4732 4.4436C13.9402 4.63705 14.3646 4.9206 14.722 5.27806C15.0795 5.63551 15.363 6.05987 15.5565 6.52691C15.7499 6.99395 15.8495 7.49452 15.8495 8.00004C15.8495 8.50556 15.7499 9.00612 15.5565 9.47316C15.363 9.9402 15.0795 10.3646 14.722 10.722C14.3646 11.0795 13.9402 11.363 13.4732 11.5565C13.0061 11.7499 12.5056 11.8495 12 11.8495H10C9.71498 11.8495 9.48391 11.6184 9.48391 11.3334C9.48391 11.0483 9.71498 10.8172 10 10.8172H12C12.37 10.8172 12.7363 10.7444 13.0781 10.6028C13.4199 10.4612 13.7305 10.2537 13.9921 9.9921C14.2537 9.7305 14.4612 9.41993 14.6028 9.07813C14.7444 8.73634 14.8172 8.37 14.8172 8.00004C14.8172 7.63008 14.7444 7.26374 14.6028 6.92194C14.4612 6.58014 14.2537 6.26957 13.9921 6.00797C13.7305 5.74637 13.4199 5.53886 13.0781 5.39728C12.7363 5.2557 12.37 5.18283 12 5.18283H10C9.71498 5.18283 9.48391 4.95175 9.48391 4.6667Z" fill="#0696D6"/>
<path fill-rule="evenodd" clip-rule="evenodd" d="M4.8172 8.00002C4.8172 7.71497 5.04828 7.48389 5.33333 7.48389H10.6667C10.9517 7.48389 11.1828 7.71497 11.1828 8.00002C11.1828 8.28507 10.9517 8.51615 10.6667 8.51615H5.33333C5.04828 8.51615 4.8172 8.28507 4.8172 8.00002Z" fill="#0696D6"/>
</svg>
