<svg width="24" height="24" viewBox="0 0 24 24" fill="none" xmlns="http://www.w3.org/2000/svg">
<path d="M18.357 1.61497C18.5701 1.25979 19.0308 1.14462 19.386 1.35773L19.0001 2.00085C19.386 1.35773 19.3857 1.35752 19.386 1.35773L19.3874 1.35856L19.389 1.35951L19.3927 1.36177L19.4023 1.36768C19.4096 1.37226 19.4189 1.3781 19.4299 1.38522C19.4519 1.39945 19.481 1.41882 19.5162 1.44345C19.5865 1.49267 19.6815 1.56318 19.7928 1.65593C20.0149 1.84102 20.3053 2.11751 20.5946 2.49356C21.1775 3.2513 21.7501 4.40819 21.7501 6.00085C21.7501 7.5935 21.1775 8.75039 20.5946 9.50813C20.3053 9.88418 20.0149 10.1606 19.7928 10.3457C19.6815 10.4385 19.5865 10.509 19.5162 10.5582C19.481 10.5828 19.4519 10.6022 19.4299 10.6164C19.4189 10.6236 19.4096 10.6294 19.4023 10.634L19.3927 10.6399L19.389 10.6421L19.3874 10.6431C19.3871 10.6433 19.386 10.6439 19.0001 10.0008L19.386 10.6439C19.0308 10.857 18.5701 10.7419 18.357 10.3867C18.1448 10.033 18.2581 9.57472 18.6098 9.36043L18.6153 9.3569C18.6226 9.35218 18.6365 9.34304 18.656 9.32939C18.695 9.30205 18.7563 9.25693 18.8325 9.19343C18.9854 9.06602 19.1949 8.86751 19.4057 8.59356C19.8228 8.0513 20.2501 7.20819 20.2501 6.00085C20.2501 4.7935 19.8228 3.95039 19.4057 3.40813C19.1949 3.13418 18.9854 2.93567 18.8325 2.80826C18.7563 2.74477 18.695 2.69964 18.656 2.6723C18.6365 2.65865 18.6226 2.64951 18.6153 2.6448L18.6098 2.64127C18.2581 2.42698 18.1448 1.96867 18.357 1.61497Z" fill="#1B2746"/>
<path fill-rule="evenodd" clip-rule="evenodd" d="M10.0001 1.25073C7.37677 1.25073 5.25012 3.37737 5.25012 6.00073C5.25012 8.62408 7.37677 10.7507 10.0001 10.7507C12.6235 10.7507 14.7501 8.62408 14.7501 6.00073C14.7501 3.37737 12.6235 1.25073 10.0001 1.25073ZM6.75012 6.00073C6.75012 4.2058 8.2052 2.75073 10.0001 2.75073C11.7951 2.75073 13.2501 4.2058 13.2501 6.00073C13.2501 7.79565 11.7951 9.25073 10.0001 9.25073C8.2052 9.25073 6.75012 7.79565 6.75012 6.00073Z" fill="#1B2746"/>
<path fill-rule="evenodd" clip-rule="evenodd" d="M10.0001 12.2507C7.68658 12.2507 5.55506 12.7766 3.97558 13.665C2.41962 14.5403 1.25013 15.8668 1.25013 17.5007L1.25007 17.6027C1.24894 18.7645 1.24752 20.2227 2.52655 21.2642C3.15602 21.7768 4.03661 22.1414 5.22634 22.3822C6.4194 22.6237 7.97436 22.7507 10.0001 22.7507C12.0259 22.7507 13.5809 22.6237 14.7739 22.3822C15.9637 22.1414 16.8443 21.7768 17.4737 21.2642C18.7527 20.2227 18.7513 18.7645 18.7502 17.6027L18.7501 17.5007C18.7501 15.8668 17.5807 14.5403 16.0247 13.665C14.4452 12.7766 12.3137 12.2507 10.0001 12.2507ZM2.75013 17.5007C2.75013 16.6494 3.37151 15.7259 4.71098 14.9724C6.02693 14.2322 7.89541 13.7507 10.0001 13.7507C12.1049 13.7507 13.9733 14.2322 15.2893 14.9724C16.6288 15.7259 17.2501 16.6494 17.2501 17.5007C17.2501 18.8085 17.2098 19.5447 16.5265 20.1011C16.156 20.4029 15.5366 20.6974 14.4763 20.912C13.4194 21.1259 11.9744 21.2507 10.0001 21.2507C8.02591 21.2507 6.58087 21.1259 5.52393 20.912C4.46366 20.6974 3.84425 20.4029 3.47372 20.1011C2.79045 19.5447 2.75013 18.8085 2.75013 17.5007Z" fill="#1B2746"/>
<path d="M17.386 3.35773C17.0308 3.14462 16.5701 3.25979 16.357 3.61497L16.6052 4.63847L16.613 4.64379C16.6247 4.65199 16.6469 4.6682 16.6762 4.69264C16.7354 4.74192 16.8199 4.82168 16.9057 4.93313C17.0728 5.15039 17.2501 5.4935 17.2501 6.00085C17.2501 6.50819 17.0728 6.8513 16.9057 7.06856C16.8199 7.18001 16.7354 7.25977 16.6762 7.30906C16.6469 7.33349 16.6247 7.34971 16.613 7.35791L16.6052 7.36322C16.2571 7.57868 16.1457 8.03456 16.357 8.38672C16.5701 8.7419 17.0308 8.85708 17.386 8.64397L17.0001 8.00085C17.386 8.64397 17.3857 8.64417 17.386 8.64397L17.3873 8.64316L17.3888 8.64229L17.3919 8.64037L17.3994 8.63577L17.4186 8.62356C17.4333 8.61406 17.4517 8.60182 17.4732 8.58675C17.5162 8.55668 17.5721 8.51508 17.6365 8.46139C17.7649 8.35442 17.9303 8.19668 18.0946 7.98313C18.4275 7.55039 18.7501 6.8935 18.7501 6.00085C18.7501 5.10819 18.4275 4.4513 18.0946 4.01856C17.9303 3.80501 17.7649 3.64727 17.6365 3.54031C17.5721 3.48661 17.5162 3.44502 17.4732 3.41494C17.4517 3.39988 17.4333 3.38763 17.4186 3.37814L17.3994 3.36592L17.3919 3.36133L17.3888 3.3594L17.3873 3.35853C17.387 3.35833 17.386 3.35773 17.0001 4.00085L17.386 3.35773Z" fill="#1B2746"/>
</svg>
