<svg width="15" height="15" viewBox="0 0 15 15" fill="none" xmlns="http://www.w3.org/2000/svg">
<path d="M7.5162 1.5C9.07543 1.51999 10.4703 1.9985 11.6543 3.02427C12.5762 3.82309 13.1906 4.82107 13.4144 6.02649C13.6792 7.4535 13.383 8.77447 12.534 9.95259C11.6329 11.2031 10.3994 11.9573 8.9011 12.2964C8.30325 12.4317 7.69906 12.4692 7.09122 12.4349C6.57798 12.4058 6.07425 12.3052 5.5849 12.1431C5.50127 12.1153 5.43568 12.1211 5.35864 12.1684C4.86319 12.4724 4.37336 12.7869 3.86451 13.0667C3.36834 13.3395 2.83534 13.513 2.25603 13.4848C2.01635 13.4731 1.83885 13.3207 1.77205 13.096C1.72279 12.9302 1.81154 12.8156 1.8981 12.7001C2.18678 12.3157 2.48424 11.9349 2.68028 11.4932C2.77537 11.2787 2.83876 11.0466 2.88801 10.8162C2.92824 10.6283 2.87021 10.4469 2.74318 10.2958C2.18581 9.63252 1.79253 8.88416 1.61771 8.03488C1.27782 6.38288 1.68183 4.90858 2.75781 3.62637C3.62191 2.5967 4.74299 1.96876 6.04718 1.66284C6.52946 1.54973 7.02002 1.50049 7.5162 1.5ZM2.36843 12.9677C2.39915 12.9677 2.42548 12.9697 2.45157 12.9675C2.82267 12.9341 3.1762 12.8263 3.49829 12.6486C4.10857 12.3115 4.70617 11.9517 5.30695 11.5975C5.36863 11.5612 5.41447 11.559 5.48347 11.577C5.86505 11.676 6.24614 11.7833 6.63357 11.8542C7.31383 11.979 7.99506 11.9449 8.67239 11.8098C9.93416 11.5578 11.0145 10.9793 11.8423 9.98745C12.9629 8.64429 13.2747 7.12661 12.7152 5.45876C12.4016 4.52392 11.8089 3.7797 11.0282 3.18564C10.2521 2.595 9.37703 2.23764 8.41077 2.09406C7.79635 2.00265 7.18509 2.00143 6.57213 2.0965C5.53175 2.25787 4.59353 2.65326 3.79087 3.33751C2.54227 4.40203 1.91444 5.74128 2.04951 7.39938C2.12802 8.36348 2.50887 9.20739 3.12598 9.94284C3.39077 10.2585 3.45611 10.6105 3.39881 10.9964C3.33737 11.4106 3.14963 11.7782 2.92995 12.1277C2.75245 12.41 2.55934 12.6833 2.36843 12.9677Z" fill="#1B2746"/>
<path d="M9.4314 8.68443C9.84443 8.26807 10.1236 7.79078 10.2992 7.23158C10.2426 7.23158 10.1997 7.23158 10.157 7.23158C9.44701 7.23158 8.737 7.22768 8.027 7.23475C7.87803 7.23621 7.74417 7.14602 7.74076 6.97538C7.73759 6.81718 7.85047 6.71918 8.02651 6.71918C8.45588 6.71943 8.885 6.71918 9.33265 6.71918C9.33265 6.54319 9.33241 6.37889 9.33265 6.21459C9.33314 6.04444 9.43628 5.92524 9.58745 5.91914C9.73252 5.91329 9.84419 6.03688 9.84687 6.20898C9.84955 6.36694 9.85004 6.52466 9.85199 6.68262C9.85199 6.68969 9.85809 6.69651 9.86881 6.71918C10.0553 6.71918 10.2489 6.71918 10.4425 6.71918C10.6817 6.71918 10.9211 6.71772 11.1603 6.71992C11.3144 6.72138 11.4258 6.83424 11.4222 6.97855C11.4188 7.12164 11.3037 7.22792 11.1528 7.23182C11.0491 7.23451 10.9209 7.2072 10.8492 7.25791C10.7827 7.30471 10.7788 7.43805 10.7436 7.5319C10.5522 8.04405 10.2792 8.50745 9.90929 8.91186C9.88735 8.93575 9.8654 8.95964 9.84419 8.98402C9.83639 8.99303 9.83054 9.00352 9.80371 9.04252C10.0805 9.21072 10.3543 9.37721 10.6286 9.54297C10.6661 9.56564 10.7076 9.58197 10.7461 9.60343C10.8814 9.67899 10.9326 9.82501 10.8702 9.95347C10.8048 10.0878 10.6446 10.1514 10.5108 10.0715C10.1758 9.87084 9.84833 9.65754 9.51845 9.44839C9.48455 9.42694 9.45383 9.40012 9.41677 9.37209C9.08908 9.63219 8.73018 9.83842 8.34445 9.99784C8.26253 10.0317 8.18012 10.0646 8.09649 10.0934C7.93508 10.149 7.78074 10.0766 7.73393 9.92617C7.69126 9.78942 7.7727 9.64755 7.92801 9.59782C8.32763 9.46984 8.6897 9.27117 9.02105 9.02692C8.84575 8.81045 8.66922 8.59643 8.49757 8.37826C8.43784 8.30245 8.38663 8.21908 8.33811 8.13522C8.26497 8.00871 8.30057 7.85392 8.41297 7.78225C8.54512 7.69815 8.68483 7.73155 8.78309 7.8661C8.93084 8.06794 9.07908 8.26954 9.23171 8.46796C9.28828 8.54182 9.35753 8.6052 9.4314 8.68443Z" fill="#1B2746"/>
<path d="M6.72748 7.75155C6.72479 7.92998 6.62873 8.03773 6.49853 8.05747C6.38515 8.07454 6.26178 7.99117 6.2196 7.86856C6.12792 7.60261 6.03454 7.33739 5.94676 7.07022C5.92287 6.99782 5.88971 6.97393 5.81047 6.97491C5.47839 6.97832 5.14582 6.97881 4.81398 6.96613C4.68939 6.9615 4.63989 7.00197 4.60454 7.11849C4.52627 7.3759 4.42947 7.62771 4.34097 7.88221C4.29976 8.00043 4.21028 8.05577 4.09203 8.05723C3.97109 8.05869 3.86722 7.96972 3.84552 7.84588C3.83626 7.79348 3.84577 7.73278 3.86357 7.68134C4.24856 6.56416 4.63623 5.44796 5.02317 4.33127C5.07535 4.18062 5.15654 4.10773 5.27529 4.10554C5.405 4.1031 5.48595 4.1638 5.54227 4.32542C5.9058 5.36873 6.26714 6.41278 6.62873 7.45659C6.66701 7.56921 6.70431 7.68281 6.72748 7.75155ZM5.7305 6.44813C5.58152 6.01764 5.43645 5.59861 5.28479 5.15983C5.13192 5.60177 4.98709 6.02008 4.83909 6.44813C5.14192 6.44813 5.42792 6.44813 5.7305 6.44813Z" fill="#1B2746"/>
</svg>
