<svg width="144" height="57" viewBox="0 0 144 57" fill="none" xmlns="http://www.w3.org/2000/svg">
<path fill-rule="evenodd" clip-rule="evenodd" d="M105.22 38.504C104.751 39.2161 105.177 40.4348 105.03 41.6061H109.628V37.9372C107.97 38.0547 105.832 37.5796 105.22 38.504Z" fill="#1F85C6"/>
<path fill-rule="evenodd" clip-rule="evenodd" d="M32.084 35.9294C30.2553 29.8844 28.3672 23.8956 26.5407 17.8536C24.5923 17.9405 22.719 17.738 20.8732 17.8536C19.7752 17.9237 18.9715 18.5044 18.553 19.1898C18.097 19.9384 18.1973 21.0198 18.1973 22.1298V41.6061H23.5297C23.5456 35.2431 23.4977 28.8247 23.5536 22.4933C25.4063 28.878 27.308 35.2253 29.1676 41.6061H34.9514C36.819 35.2223 38.6922 28.8464 40.5928 22.4933V41.6061H45.9228V17.8536H37.511C35.6948 23.8719 33.9276 29.9318 32.084 35.9294Z" fill="#1F85C6"/>
<path fill-rule="evenodd" clip-rule="evenodd" d="M87.9843 17.8733C88.8644 17.9582 89.4539 18.3187 89.8575 18.7858C90.3078 19.3063 90.4048 19.961 90.4036 20.8321V33.3765C90.4036 36.7234 89.3194 39.1015 86.965 40.4694C84.752 41.7532 80.781 42.2688 77.2979 41.5853C74.174 40.9691 72.0624 39.3396 71.0637 36.8647C70.0946 34.4549 70.0946 30.632 70.9691 28.0465C71.8584 25.4205 73.7418 23.6487 76.8704 23.0601C78.6182 22.7312 80.5575 22.8359 81.9416 23.3435C83.3098 23.8452 84.2458 24.6669 85.0473 25.696V17.9138C85.0439 17.8851 85.0439 17.8565 85.069 17.8535C85.5255 17.8707 85.9696 17.8602 86.3986 17.85C86.9541 17.8368 87.4844 17.8242 87.9843 17.8733ZM75.8784 32.6476C76.0426 35.6519 76.9433 38.0863 80.6647 37.9372C83.9106 37.8078 85.1408 35.3448 85.0507 32.3237C84.9641 29.4133 83.8251 26.8515 80.285 27.0134C79.4128 27.0529 78.7208 27.2179 78.1302 27.5408C77.5293 27.8677 77.1417 28.2746 76.827 28.7783C76.2535 29.6819 75.8021 31.2482 75.8784 32.6476Z" fill="#1F85C6"/>
<path fill-rule="evenodd" clip-rule="evenodd" d="M122.148 41.3819V37.8759C120.883 37.795 119.404 38.0853 118.992 37.2073C118.843 36.8735 118.875 36.4183 118.875 35.9501C118.875 32.8027 118.854 29.4162 118.899 26.4456C121.394 26.5651 122.37 25.2782 122.123 23.1203H118.875C118.795 21.9886 118.987 20.8825 118.875 19.9205C118.754 18.8569 117.674 17.9394 116.508 17.8525C115.537 17.7814 114.535 17.9069 113.498 17.8525C113.469 17.8565 113.472 17.8851 113.474 17.9138V37.3693C113.474 38.7065 113.54 39.8422 114.304 40.5494C115.092 41.2831 116.307 41.3819 117.809 41.4431C119.232 41.5014 120.789 41.5379 122.148 41.3819Z" fill="#1F85C6"/>
<path fill-rule="evenodd" clip-rule="evenodd" d="M138.599 40.5494C139.382 41.8056 141.463 41.617 143.742 41.6051V31.5139C143.742 30.397 143.75 29.3175 143.527 28.3299C142.702 24.6344 139.501 22.6454 134.147 22.8577C129.129 23.0582 126.322 24.823 125.59 28.6558C125.218 30.6004 125.401 32.8442 125.399 35.0386V41.6051H130.897V31.5139C130.897 30.3456 130.812 29.1921 131.204 28.4119C131.758 27.3098 133.195 26.8614 134.927 26.9523C136.332 27.0263 137.405 27.4589 137.911 28.3704C138.316 29.1052 138.292 30.1748 138.292 31.2285V37.6133C138.292 38.6779 138.158 39.8462 138.599 40.5494Z" fill="#1F85C6"/>
<path fill-rule="evenodd" clip-rule="evenodd" d="M49.244 28.0267C50.4081 24.9187 53.1102 23.0433 57.6787 22.8586C65.6584 22.5367 68.4243 26.9324 68.0367 33.6796H54.1477C54.3187 35.7803 55.0587 37.2913 57.039 37.7742C58.8188 38.2087 60.4036 37.6537 61.4433 36.9436C62.0066 36.5595 62.4341 36.035 63.3633 35.9501C64.0255 35.8896 64.8426 35.9169 65.6495 35.9438C66.3832 35.9682 67.1086 35.9924 67.7015 35.9501C66.7141 39.2773 64.4339 41.4046 60.2622 41.9082C57.9979 42.1828 55.7211 41.9142 54.0063 41.3009C50.6144 40.0832 48.9419 37.4453 48.6283 33.5779C48.4642 31.6008 48.6614 29.5831 49.244 28.0267ZM58.1028 26.648C55.5443 26.7655 54.598 28.3309 54.2172 30.3574H62.2973C62.0259 28.2084 60.8904 26.5216 58.1028 26.648Z" fill="#1F85C6"/>
<path fill-rule="evenodd" clip-rule="evenodd" d="M49.5382 7.85319C49.5382 7.85319 49.1893 7.63197 48.5143 7.26063C47.8394 6.88634 46.8133 6.38761 45.4907 5.81875C44.1568 5.26274 42.4979 4.67018 40.554 4.16553C39.5826 3.90974 38.5348 3.69543 37.4255 3.52458C36.3184 3.34286 35.1453 3.22633 33.9253 3.15818C32.7031 3.09695 31.4342 3.10782 30.131 3.18583C28.829 3.29743 27.4927 3.43372 26.1451 3.71222C23.4476 4.22281 20.7102 5.14126 18.032 6.34613C17.7093 6.50809 17.3855 6.67104 17.0595 6.834C16.7174 7.00979 16.3298 7.18657 16.0664 7.3594C15.7746 7.53124 15.4815 7.70406 15.1885 7.87689C14.8898 8.03392 14.6037 8.26798 14.3106 8.45858C13.1215 9.24569 12.068 10.1819 11.0738 11.1616L10.367 11.927C10.1195 12.1759 9.93484 12.4643 9.7148 12.7299C9.26673 13.2603 8.92013 13.8449 8.52907 14.4098C7.84044 15.5801 7.20311 16.7889 6.80977 18.0728L6.63989 18.5478C6.58858 18.7068 6.5521 18.8708 6.50763 19.0317L6.24768 20.0025C6.17928 20.3294 6.13025 20.6603 6.07097 20.9891C6.00712 21.317 5.94783 21.6449 5.93073 21.9797L5.84066 22.9752C5.8133 23.307 5.82584 23.6418 5.81444 23.9746C5.77909 24.6413 5.83952 25.3079 5.8817 25.9725C5.89082 26.3053 5.94441 26.6362 5.99458 26.967C6.04132 27.2969 6.08921 27.6267 6.13595 27.9556C6.26479 28.6124 6.39932 29.2651 6.55438 29.912C6.7539 30.553 6.90554 31.1989 7.1347 31.826C7.38325 32.4472 7.5611 33.0842 7.83929 33.6915C8.86997 36.1378 10.1617 38.4418 11.6291 40.5266C11.9768 41.056 12.3781 41.5498 12.743 42.0564C12.9311 42.3053 13.1067 42.5591 13.3016 42.8001C13.4989 43.0391 13.6938 43.2761 13.8877 43.5121C14.281 43.9822 14.6379 44.4612 15.0415 44.9007C15.4416 45.3431 15.8316 45.7806 16.2158 46.2053C16.9797 47.0625 17.7971 47.8289 18.5211 48.5992C19.2964 49.331 20.0227 50.0372 20.7284 50.687C21.4524 51.319 22.1421 51.9017 22.7601 52.4637C23.3963 53.0088 24.0017 53.4908 24.541 53.9371C25.6127 54.8378 26.5111 55.4936 27.0994 55.9676C27.6945 56.4377 28.0126 56.6896 28.0126 56.6896C28.0126 56.6896 27.6375 56.5059 26.9352 56.1632C26.5841 55.9894 26.1508 55.7731 25.6446 55.5193C25.3904 55.3909 25.1133 55.2595 24.8271 55.1065C24.5467 54.9484 24.2457 54.7776 23.9321 54.5988C23.3017 54.2384 22.5925 53.8502 21.8389 53.4029C21.0921 52.9476 20.3077 52.4291 19.4537 51.8859C18.626 51.3181 17.7595 50.6959 16.8315 50.046C16.3834 49.7063 15.9376 49.3468 15.4758 48.9824C15.0164 48.6121 14.5295 48.2496 14.0758 47.8388C12.1991 46.2527 10.3179 44.3862 8.51197 42.2737C6.71628 40.1524 5.0745 37.7298 3.74967 35.0544C3.56839 34.7255 3.42246 34.3819 3.2731 34.0382C3.12489 33.6935 2.97553 33.3469 2.82389 32.9992C2.53202 32.302 2.31654 31.5741 2.05659 30.8522C1.84225 30.1204 1.6507 29.3758 1.46372 28.6252C1.39646 28.245 1.33033 27.8638 1.26306 27.4816C1.19352 27.0994 1.12397 26.7172 1.09661 26.3271C0.750008 23.231 0.975753 19.9788 2.05887 16.8847C2.55938 15.3302 3.34493 13.8459 4.21256 12.4188C4.68913 11.7226 5.14176 11.0174 5.70955 10.3765C5.98888 10.0545 6.234 9.70986 6.54184 9.40963L7.43683 8.49117C7.72642 8.17811 8.0753 7.91343 8.38998 7.62308C8.71947 7.34656 9.01933 7.04435 9.37846 6.79745C9.72734 6.54068 10.0728 6.2849 10.4183 6.0301C10.7603 5.76839 11.1445 5.55803 11.5037 5.32199L12.0498 4.9793C12.2254 4.86375 12.4135 4.75314 12.6187 4.64945C13.0143 4.4381 13.4077 4.22873 13.8021 4.01936C14.2092 3.79123 14.5535 3.66087 14.9195 3.49693C15.3071 3.32904 15.6936 3.16213 16.079 2.99622C19.1755 1.78049 22.3759 0.940054 25.493 0.587484C25.8829 0.54798 26.2705 0.508476 26.6548 0.468973C27.039 0.436382 27.4243 0.423544 27.804 0.400829C28.5622 0.344536 29.3158 0.366263 30.0512 0.3633C31.5231 0.414655 32.9357 0.522302 34.2708 0.734634C36.9421 1.1514 39.2816 1.86641 41.2312 2.66241C43.1979 3.43767 44.7633 4.33342 45.9981 5.10374C47.234 5.879 48.1085 6.58907 48.6888 7.07201C49.268 7.56383 49.5382 7.85319 49.5382 7.85319Z" fill="#1F85C6"/>
<path fill-rule="evenodd" clip-rule="evenodd" d="M59.9236 9.82738C59.9236 9.82738 60.2314 9.58937 60.8585 9.19631C61.4912 8.81016 62.433 8.24723 63.7213 7.6527C65.0062 7.05719 66.6206 6.38958 68.5794 5.82467C69.5553 5.53728 70.6191 5.2894 71.758 5.06522C72.9016 4.86177 74.1192 4.67808 75.4087 4.58722C76.6959 4.48846 78.0527 4.45982 79.4584 4.52994C80.8653 4.5813 82.3144 4.76104 83.7875 5.02176C84.1535 5.09188 84.524 5.16299 84.8968 5.23409C85.2639 5.32396 85.6322 5.41482 86.0039 5.50667C86.3778 5.59259 86.7472 5.69727 87.1155 5.81183C87.4826 5.92343 87.8543 6.03602 88.2294 6.1486C88.9545 6.41426 89.7127 6.64734 90.4264 6.9683C90.789 7.12138 91.155 7.27446 91.5175 7.42852C91.8744 7.59839 92.229 7.76924 92.587 7.94108L93.1251 8.20082L93.1924 8.23242L93.3258 8.30847L93.4477 8.37661L93.6917 8.51191C94.0155 8.69363 94.3416 8.87633 94.6688 9.06002C94.8227 9.14002 95.0154 9.28124 95.1899 9.39482L95.7246 9.75232C96.078 9.99428 96.452 10.2333 96.7575 10.493C98.0824 11.4786 99.2453 12.6499 100.296 13.9022C100.538 14.2291 100.779 14.556 101.019 14.8838C101.138 15.0498 101.268 15.2098 101.374 15.3806L101.687 15.8981C101.89 16.2457 102.121 16.5855 102.296 16.945L102.812 18.0293C103.422 19.4979 103.915 21.0198 104.116 22.5683L104.205 23.147L104.246 23.7277L104.318 24.8891L104.288 26.0466L104.271 26.6243L104.206 27.1961L104.075 28.3378C104.004 28.7141 103.92 29.0864 103.846 29.4597C103.712 30.2113 103.455 30.9332 103.251 31.6601C103.013 32.38 102.726 33.0802 102.451 33.7784C102.115 34.4549 101.822 35.1443 101.451 35.7941C100.73 37.1027 99.9373 38.3559 99.0435 39.5183C97.282 41.8569 95.2628 43.9013 93.1855 45.6671C91.0865 47.4151 88.9625 48.9103 86.9069 50.1655C86.4075 50.4934 85.875 50.765 85.378 51.0554C84.8752 51.3388 84.3906 51.6232 83.9038 51.882C82.913 52.3738 81.9918 52.8587 81.1002 53.2774C80.1972 53.6764 79.3604 54.0586 78.5748 54.3934C77.7813 54.7134 77.0436 54.9899 76.3847 55.2477C76.0552 55.3761 75.7428 55.4966 75.4486 55.6101C75.151 55.7158 74.866 55.8047 74.6038 55.8936C74.0782 56.0674 73.6324 56.2136 73.271 56.333C72.5447 56.5651 72.1582 56.6886 72.1582 56.6886C72.1582 56.6886 72.4991 56.4911 73.141 56.1168C73.7783 55.7425 74.736 55.2319 75.9024 54.5139C76.4861 54.1574 77.1394 53.7752 77.8338 53.3416C78.5155 52.8873 79.2623 52.4163 80.0524 51.9077C80.8197 51.3773 81.6372 50.8144 82.5003 50.2199C83.328 49.5927 84.2207 48.9627 85.0986 48.2585C85.9697 47.5445 86.8977 46.8295 87.7745 46.0177C88.6889 45.2404 89.5531 44.3763 90.4481 43.5013C92.197 41.7226 93.8548 39.7376 95.2845 37.5757C96.7039 35.4129 97.8942 33.0644 98.6091 30.6024C98.7584 29.9831 98.9659 29.3688 99.0492 28.7398L99.2179 27.8006L99.3137 26.8574L99.365 26.3843L99.3718 25.9123L99.3889 24.9672L99.3182 24.0289L99.284 23.5598L99.2065 23.0957C99.0663 21.8493 98.6752 20.6464 98.21 19.4801C97.7244 18.3177 97.0642 17.2244 96.3163 16.1865C95.8888 15.6976 95.5205 15.1742 95.0416 14.7248C94.8102 14.4947 94.5981 14.2498 94.3541 14.0306C94.1056 13.8133 93.8582 13.598 93.6108 13.3827C93.3679 13.1526 93.1114 12.9827 92.8629 12.7921L92.4889 12.5107C92.3532 12.4159 92.262 12.325 92.0864 12.2243C91.774 12.0258 91.4605 11.8282 91.1481 11.6307L90.7559 11.3828L90.3044 11.132C90.0023 10.9651 89.7013 10.7982 89.4026 10.6323C89.0936 10.4822 88.7869 10.332 88.4802 10.1829C88.1758 10.0288 87.8691 9.88466 87.5545 9.75529C87.2443 9.619 86.9354 9.4837 86.6275 9.35037C85.3722 8.86053 84.1227 8.41414 82.8583 8.09317C82.547 7.99935 82.2301 7.92627 81.9154 7.85615C81.6007 7.78801 81.2895 7.70702 80.9748 7.64777C80.3477 7.53716 79.7286 7.41272 79.1096 7.3347C77.8771 7.14706 76.664 7.06706 75.4931 7.02558C73.1467 6.94658 70.9679 7.12434 69.048 7.39791C67.1291 7.68036 65.4611 8.04675 64.1078 8.41907C62.7625 8.80127 61.7033 9.13705 60.9998 9.40469C60.2941 9.66739 59.9236 9.82738 59.9236 9.82738Z" fill="#1F85C6"/>
</svg>
