<svg width="40" height="40" viewBox="0 0 40 40" fill="none" xmlns="http://www.w3.org/2000/svg">
<path fill-rule="evenodd" clip-rule="evenodd" d="M33.0687 36H10.5895C9.63513 36 8.86031 35.243 8.86031 34.3105V32.9025C8.86031 31.9701 9.63513 31.213 10.5895 31.213H33.0687C34.023 31.213 34.7979 31.9701 34.7979 32.9025V34.3105C34.7979 35.243 34.023 36 33.0687 36Z" fill="#1B2746"/>
<path fill-rule="evenodd" clip-rule="evenodd" d="M33.0687 22.4108H7.13115C6.17679 22.4108 5.40198 21.6538 5.40198 20.7213V19.3134C5.40198 18.3809 6.17679 17.6239 7.13115 17.6239H33.0687C34.023 17.6239 34.7979 18.3809 34.7979 19.3134V20.7213C34.7979 21.6538 34.023 22.4108 33.0687 22.4108Z" fill="#1B2746"/>
<path fill-rule="evenodd" clip-rule="evenodd" d="M33.0687 8.82043H15.777C14.8226 8.82043 14.0478 8.06339 14.0478 7.13091V5.72298C14.0478 4.79051 14.8226 4.03346 15.777 4.03346H33.0687C34.023 4.03346 34.7979 4.79051 34.7979 5.72298V7.13091C34.7979 8.06339 34.023 8.82043 33.0687 8.82043Z" fill="#1B2746"/>
</svg>
