<svg width="40" height="40" viewBox="0 0 40 40" fill="none" xmlns="http://www.w3.org/2000/svg">
<path d="M18.24 2.08501H21.76C24.825 2.08501 27.25 2.08501 29.15 2.34001C31.1 2.60001 32.685 3.15501 33.93 4.40001C35.175 5.64501 35.73 7.23001 35.995 9.18501C36.25 11.085 36.25 13.51 36.25 16.575V23.43C36.25 26.495 36.25 28.92 35.995 30.82C35.73 32.775 35.18 34.355 33.93 35.605C32.685 36.85 31.1 37.405 29.145 37.67C27.245 37.925 24.82 37.925 21.755 37.925H18.235C15.17 37.925 12.745 37.925 10.845 37.67C8.88999 37.405 7.30999 36.855 6.05999 35.605C4.81499 34.36 4.25999 32.775 3.99499 30.82C3.73999 28.92 3.73999 26.495 3.73999 23.43V16.575C3.73999 13.51 3.73999 11.085 3.99499 9.18501C4.25999 7.23001 4.80999 5.65001 6.05999 4.40001C7.31499 3.15501 8.89999 2.60001 10.85 2.34001C12.75 2.08501 15.175 2.08501 18.24 2.08501ZM11.185 4.81501C9.50999 5.04001 8.53999 5.46501 7.83499 6.17001C7.12999 6.87501 6.70499 7.84001 6.47999 9.52001C6.24999 11.235 6.24499 13.49 6.24499 16.67V23.335C6.24499 26.515 6.24999 28.77 6.47999 30.485C6.70499 32.16 7.12999 33.13 7.83499 33.835C8.53999 34.54 9.50499 34.965 11.185 35.19C12.9 35.42 15.155 35.425 18.335 35.425H21.67C24.85 35.425 27.105 35.42 28.82 35.19C30.495 34.965 31.465 34.54 32.17 33.835C32.875 33.13 33.3 32.165 33.525 30.485C33.755 28.77 33.76 26.515 33.76 23.335V16.665C33.76 13.485 33.755 11.23 33.525 9.51501C33.3 7.84001 32.875 6.87001 32.17 6.16501C31.465 5.46001 30.5 5.03501 28.82 4.81001C27.105 4.58001 24.85 4.57501 21.67 4.57501H18.335C15.155 4.58501 12.9 4.58501 11.185 4.81501Z" fill="#1C274C"/>
<path d="M19.7599 13.33C19.3899 13.7 19.3899 14.3 19.7599 14.67L21.1549 16.065C21.3399 16.25 21.5799 16.34 21.8249 16.34C22.0699 16.34 22.3099 16.25 22.4949 16.065C22.8649 15.695 22.8649 15.095 22.4949 14.725L21.0999 13.33C20.7299 12.96 20.1299 12.96 19.7599 13.33Z" fill="#1C274C"/>
<path d="M27.975 16.785L23.215 12.025C22.085 10.895 20.575 10.27 18.975 10.27C17.375 10.27 15.87 10.895 14.735 12.025C13.12 13.64 12.565 16.035 13.295 18.19C12.155 18.66 11.18 19.435 10.46 20.45C9.67501 21.555 9.26001 22.86 9.26001 24.215C9.26001 27.81 12.185 30.735 15.78 30.735C17.14 30.735 18.44 30.32 19.545 29.535C20.56 28.815 21.335 27.84 21.805 26.7C23.96 27.43 26.355 26.875 27.97 25.26C30.315 22.925 30.315 19.12 27.975 16.785ZM26.64 23.925C25.04 25.525 22.44 25.525 20.84 23.925L19.5 22.59C19.51 22.585 19.52 22.58 19.53 22.575C20.705 22.01 21.825 21.195 22.865 20.155C23.905 19.115 24.72 17.99 25.285 16.82C25.29 16.81 25.295 16.8 25.3 16.79L26.635 18.125C28.24 19.72 28.24 22.325 26.64 23.925ZM20.13 25.81C19.465 27.63 17.74 28.84 15.785 28.84C13.235 28.84 11.16 26.765 11.16 24.215C11.16 22.26 12.37 20.54 14.19 19.87C14.36 20.09 14.54 20.305 14.74 20.5L19.5 25.26C19.695 25.46 19.905 25.645 20.13 25.81ZM23.585 15.995C23.26 16.67 22.64 17.705 21.53 18.815C20.42 19.925 19.385 20.545 18.71 20.87C18.45 20.995 18.225 21.085 18.06 21.145L16.08 19.165C15.305 18.39 14.88 17.36 14.88 16.265C14.88 15.17 15.305 14.14 16.08 13.365C16.855 12.59 17.885 12.165 18.98 12.165C20.075 12.165 21.105 12.59 21.88 13.365L23.86 15.345C23.785 15.55 23.69 15.77 23.585 15.995Z" fill="#1C274C"/>
</svg>
