<svg width="15" height="14" viewBox="0 0 15 14" fill="none" xmlns="http://www.w3.org/2000/svg">
<path fill-rule="evenodd" clip-rule="evenodd" d="M7.63688 8.16634C8.28121 8.16634 8.80355 7.64401 8.80355 6.99967C8.80355 6.35534 8.28121 5.83301 7.63688 5.83301C6.99255 5.83301 6.47021 6.35534 6.47021 6.99967C6.47021 7.64401 6.99255 8.16634 7.63688 8.16634Z" stroke="#422F8A" stroke-opacity="0.87" stroke-width="1.16667" stroke-linecap="round" stroke-linejoin="round"/>
<path fill-rule="evenodd" clip-rule="evenodd" d="M12.3036 8.16634C12.948 8.16634 13.4703 7.64401 13.4703 6.99967C13.4703 6.35534 12.948 5.83301 12.3036 5.83301C11.6593 5.83301 11.137 6.35534 11.137 6.99967C11.137 7.64401 11.6593 8.16634 12.3036 8.16634Z" stroke="#422F8A" stroke-opacity="0.87" stroke-width="1.16667" stroke-linecap="round" stroke-linejoin="round"/>
<path fill-rule="evenodd" clip-rule="evenodd" d="M2.97038 8.16634C3.61471 8.16634 4.13704 7.64401 4.13704 6.99967C4.13704 6.35534 3.61471 5.83301 2.97038 5.83301C2.32605 5.83301 1.80371 6.35534 1.80371 6.99967C1.80371 7.64401 2.32605 8.16634 2.97038 8.16634Z" stroke="#422F8A" stroke-opacity="0.87" stroke-width="1.16667" stroke-linecap="round" stroke-linejoin="round"/>
</svg>
