<svg width="19" height="19" viewBox="0 0 19 19" fill="none" xmlns="http://www.w3.org/2000/svg">
<path d="M1.80029 9.00002L8.20824 3.56559C8.46997 3.34339 8.8289 3.34505 9.08918 3.56934L15.4003 9.00002H1.80029Z" fill="#B5E0F3"/>
<path d="M16.1282 18.2H2.27198C2.01155 18.2 1.80029 17.9911 1.80029 17.7337V9.06629C1.80029 8.80883 2.01117 8.59998 2.27198 8.59998H16.1286C16.389 8.59998 16.6003 8.80883 16.6003 9.06629V17.734C16.5999 17.9911 16.3887 18.2 16.1282 18.2Z" fill="#B5E0F3"/>
<path d="M2.41992 8.44063L8.99804 3.57274C9.26673 3.37371 9.63519 3.3752 9.90238 3.5761L16.3811 8.44063H2.41992Z" fill="#FFD100"/>
<path d="M2.41992 8.44063L8.99804 3.57274C9.26673 3.37371 9.63519 3.3752 9.90238 3.5761L16.3811 8.44063H2.41992Z" fill="url(#paint0_linear)" fill-opacity="0.5"/>
<path d="M16.1412 17.8H2.66056C2.40719 17.8 2.20166 17.595 2.20166 17.3423V8.83467C2.20166 8.58196 2.40682 8.37695 2.66056 8.37695H16.1415C16.3949 8.37695 16.6004 8.58196 16.6004 8.83467V17.3427C16.6001 17.595 16.3945 17.8 16.1412 17.8Z" fill="#FFD100"/>
<path d="M16.1412 17.8H2.66056C2.40719 17.8 2.20166 17.595 2.20166 17.3423V8.83467C2.20166 8.58196 2.40682 8.37695 2.66056 8.37695H16.1415C16.3949 8.37695 16.6004 8.58196 16.6004 8.83467V17.3427C16.6001 17.595 16.3945 17.8 16.1412 17.8Z" fill="url(#paint1_linear)" fill-opacity="0.5"/>
<path d="M14.6812 10.1111L13.4757 10.8816L13.46 10.8917L12.482 11.5167L11.7758 11.9681L10.3054 12.9083L10.0223 13.0893L9.86509 13.0101C9.61917 12.8857 9.30955 12.8869 9.06454 13.0123L8.90824 13.0927L8.66054 12.9351L7.13923 11.9679L6.42889 11.5165L5.44614 10.8915L5.26632 10.7774L4.21777 10.1108H14.6812V10.1111Z" fill="white"/>
<path d="M16.0919 17.1657L10.1012 13.5156L9.9039 13.3955C9.59523 13.2069 9.20659 13.2088 8.89904 13.3989L8.70285 13.5208L2.81494 17.1657L8.39194 13.2819L8.88223 12.9404C9.22117 12.6885 9.68567 12.6885 10.025 12.9404L10.457 13.2412L16.0919 17.1657Z" fill="#DA9135"/>
<g filter="url(#filter0_d)">
<path d="M14.6812 5.26538H4.21777V10.1109H14.6812V5.26538Z" fill="white"/>
</g>
<path d="M13.5601 6.78357H5.33887V7.38357H13.5601V6.78357Z" fill="#0696D6"/>
<path d="M13.5601 9H5.33887V9.6H13.5601V9Z" fill="#0696D6"/>
<path d="M12.8129 11.4001L11.6918 12.0001H7.20751L6.08643 11.4001H12.8129Z" fill="#0696D6"/>
<defs>
<filter id="filter0_d" x="0.217773" y="0.265381" width="18.4634" height="12.8455" filterUnits="userSpaceOnUse" color-interpolation-filters="sRGB">
<feFlood flood-opacity="0" result="BackgroundImageFix"/>
<feColorMatrix in="SourceAlpha" type="matrix" values="0 0 0 0 0 0 0 0 0 0 0 0 0 0 0 0 0 0 127 0" result="hardAlpha"/>
<feOffset dy="-1"/>
<feGaussianBlur stdDeviation="2"/>
<feColorMatrix type="matrix" values="0 0 0 0 0 0 0 0 0 0 0 0 0 0 0 0 0 0 0.11 0"/>
<feBlend mode="normal" in2="BackgroundImageFix" result="effect1_dropShadow"/>
<feBlend mode="normal" in="SourceGraphic" in2="effect1_dropShadow" result="shape"/>
</filter>
<linearGradient id="paint0_linear" x1="9.40051" y1="3.42444" x2="9.40051" y2="8.44063" gradientUnits="userSpaceOnUse">
<stop stop-color="white"/>
<stop offset="1" stop-color="white" stop-opacity="0"/>
</linearGradient>
<linearGradient id="paint1_linear" x1="9.40105" y1="8.37695" x2="9.40105" y2="17.8" gradientUnits="userSpaceOnUse">
<stop stop-color="white"/>
<stop offset="1" stop-color="white" stop-opacity="0"/>
</linearGradient>
</defs>
</svg>
