<svg width="14" height="15" viewBox="0 0 14 15" fill="none" xmlns="http://www.w3.org/2000/svg">
<path d="M7.82455 7.43604H6.38544V8.79973C6.38544 8.92228 6.28803 9.01968 6.16549 9.01968C6.04294 9.01968 5.94554 8.92228 5.94554 8.79973V7.43604H1.05005V10.5028C1.05005 11.5303 1.50566 12.4478 2.22836 13.0699C2.82223 13.5821 3.5952 13.89 4.4373 13.89C5.34538 13.89 6.16863 13.5318 6.77821 12.9505C7.42235 12.3347 7.82455 11.4643 7.82455 10.4996V7.43604ZM6.32259 10.3551C6.28175 10.396 6.22519 10.4179 6.16549 10.4179C6.14978 10.4179 6.13721 10.4179 6.1215 10.4148C6.10893 10.4117 6.09322 10.4085 6.08065 10.4022C6.06808 10.396 6.05551 10.3897 6.04294 10.3802C6.03037 10.3708 6.02095 10.3645 6.00838 10.352C5.96753 10.3111 5.94554 10.2546 5.94554 10.1949C5.94554 10.1383 5.97067 10.0817 6.00838 10.0409C6.01781 10.0315 6.03037 10.022 6.04294 10.0126C6.05551 10.0032 6.06808 9.9969 6.08065 9.99375C6.09322 9.98747 6.10893 9.98433 6.1215 9.98119C6.19377 9.96548 6.26918 9.99061 6.31945 10.0409C6.3603 10.0817 6.3823 10.1383 6.3823 10.1949C6.38544 10.2577 6.36344 10.3143 6.32259 10.3551Z" fill="#16ADE1"/>
<path d="M9.10977 7.14679C8.81755 7.14679 8.53476 7.1845 8.26453 7.25362V10.5026C8.26453 11.5427 7.85605 12.5105 7.1145 13.2363C7.67381 13.6479 8.36194 13.8899 9.10977 13.8899C9.9613 13.8899 10.7406 13.5725 11.3344 13.0509C11.3281 13.0478 11.3219 13.0415 11.3187 13.0352L9.10349 10.82C9.01865 10.7351 9.01865 10.5937 9.10349 10.5089C9.18833 10.4241 9.32973 10.4241 9.41456 10.5089L11.6298 12.7241C11.6361 12.7304 11.6392 12.7336 11.6455 12.7398C12.1671 12.146 12.4845 11.3667 12.4845 10.5152C12.4813 8.65503 10.9731 7.14679 9.10977 7.14679ZM8.85212 10.2607C8.81127 10.3015 8.75471 10.3267 8.69501 10.3267C8.6793 10.3267 8.66673 10.3235 8.65102 10.3235C8.63531 10.3204 8.62274 10.3172 8.61017 10.3109C8.5976 10.3047 8.58503 10.2984 8.57246 10.2921C8.5599 10.2827 8.55047 10.2764 8.5379 10.2638C8.49705 10.223 8.47506 10.1664 8.47506 10.1098C8.47506 10.0941 8.47506 10.0816 8.4782 10.0659C8.48134 10.0501 8.48448 10.0376 8.49077 10.025C8.49705 10.0124 8.50334 9.99987 8.50962 9.9873C8.51905 9.97473 8.52533 9.96531 8.5379 9.95274C8.58818 9.90246 8.66673 9.87733 8.73586 9.89304C8.75157 9.89618 8.76414 9.89932 8.77671 9.90561C8.78927 9.91189 8.80184 9.91817 8.81441 9.9276C8.82698 9.93703 8.83641 9.94331 8.84897 9.95588C8.8584 9.96531 8.86783 9.97788 8.87725 9.99044C8.88668 10.003 8.89297 10.0156 8.89925 10.0282C8.90553 10.0407 8.90868 10.0564 8.91182 10.069C8.91496 10.0816 8.91496 10.0973 8.91496 10.113C8.91496 10.1601 8.89297 10.2198 8.85212 10.2607Z" fill="#1B3954"/>
<path d="M9.26358 7.14679C8.97136 7.14679 8.68857 7.1845 8.41834 7.25362V10.5026C8.41834 11.5427 8.00986 12.5105 7.26831 13.2363C7.82762 13.6479 8.51575 13.8899 9.26358 13.8899C10.1151 13.8899 10.8944 13.5725 11.4882 13.0509C11.4819 13.0478 11.4757 13.0415 11.4725 13.0352L9.2573 10.82C9.17246 10.7351 9.17246 10.5937 9.2573 10.5089C9.34214 10.4241 9.48353 10.4241 9.56837 10.5089L11.7836 12.7241C11.7899 12.7304 11.793 12.7336 11.7993 12.7398C12.3209 12.146 12.6383 11.3667 12.6383 10.5152C12.6351 8.65503 11.1269 7.14679 9.26358 7.14679ZM9.00593 10.2607C8.96508 10.3015 8.90852 10.3267 8.84882 10.3267C8.83311 10.3267 8.82054 10.3235 8.80483 10.3235C8.78912 10.3204 8.77655 10.3172 8.76398 10.3109C8.75141 10.3047 8.73884 10.2984 8.72627 10.2921C8.7137 10.2827 8.70428 10.2764 8.69171 10.2638C8.65086 10.223 8.62887 10.1664 8.62887 10.1098C8.62887 10.0941 8.62887 10.0816 8.63201 10.0659C8.63515 10.0501 8.63829 10.0376 8.64458 10.025C8.65086 10.0124 8.65715 9.99987 8.66343 9.9873C8.67286 9.97473 8.67914 9.96531 8.69171 9.95274C8.74198 9.90246 8.82054 9.87733 8.88967 9.89304C8.90538 9.89618 8.91795 9.89932 8.93051 9.90561C8.94308 9.91189 8.95565 9.91817 8.96822 9.9276C8.98079 9.93703 8.99021 9.94331 9.00278 9.95588C9.01221 9.96531 9.02164 9.97788 9.03106 9.99044C9.04049 10.003 9.04677 10.0156 9.05306 10.0282C9.05934 10.0407 9.06248 10.0564 9.06563 10.069C9.06877 10.0816 9.06877 10.0973 9.06877 10.113C9.06877 10.1601 9.04677 10.2198 9.00593 10.2607Z" fill="#FFD400"/>
<path d="M7.82455 4.23723C7.82455 3.30086 7.44435 2.45562 6.83163 1.8429C6.21891 1.23018 5.37052 0.849976 4.4373 0.849976C3.80572 0.849976 3.215 1.02279 2.70911 1.32444C1.71619 1.91517 1.05005 2.99921 1.05005 4.24037V7.00233H7.82455V4.23723ZM3.4161 2.51218C2.80966 2.87353 2.4326 3.53338 2.4326 4.23723C2.4326 4.35977 2.33519 4.45718 2.21265 4.45718C2.0901 4.45718 1.9927 4.35977 1.9927 4.23723C1.9927 3.37942 2.45145 2.57188 3.18986 2.13198C3.29355 2.06913 3.42867 2.1037 3.49151 2.21053C3.55435 2.31422 3.51979 2.44934 3.4161 2.51218Z" fill="#1B3954"/>
</svg>
