<svg width="40" height="38" viewBox="0 0 40 38" fill="none" xmlns="http://www.w3.org/2000/svg">
<path d="M0 8C0 3.58172 3.58172 0 8 0H32C36.4183 0 40 3.58172 40 8V32C40 36.4183 36.4183 40 32 40H8C3.58172 40 0 36.4183 0 32V8Z" fill="#FFFBE5"/>
<path d="M28.4916 11.8416C28.4333 11.6916 28.3083 11.5666 28.1583 11.5083C28.0749 11.4749 27.9999 11.4583 27.9166 11.4583H22.4999C22.1583 11.4583 21.8749 11.7416 21.8749 12.0833C21.8749 12.4249 22.1583 12.7083 22.4999 12.7083H26.4083L22.6499 16.4749H22.6416C21.5249 15.5499 20.0999 14.9999 18.5416 14.9999C14.9749 14.9999 12.0833 17.8916 12.0833 21.4583C12.0833 25.0249 14.9749 27.9166 18.5416 27.9166C22.1083 27.9166 24.9999 25.0249 24.9999 21.4583C24.9999 19.8999 24.4499 18.4749 23.5249 17.3583L27.2916 13.5916V17.4999C27.2916 17.8416 27.5749 18.1249 27.9166 18.1249C28.2583 18.1249 28.5416 17.8416 28.5416 17.4999V12.0833C28.5416 11.9999 28.5249 11.9249 28.4916 11.8416Z" fill="#FFD400"/>
</svg>
