<svg width="16" height="16" viewBox="0 0 16 16" fill="none" xmlns="http://www.w3.org/2000/svg">
<path d="M1.43288 5.87145L12.0036 2.06397C12.207 1.99069 12.4318 2.0911 12.5132 2.29135L15.3083 9.17866C15.5345 9.73612 15.2539 10.3702 14.6892 10.5776L4.50518 14.3192C3.86698 14.5537 3.15535 14.262 2.86524 13.6471L0.443559 8.5139C0.331952 8.27734 0.442195 7.99563 0.684715 7.89774L1.63341 7.51461L1.19452 6.39747C1.11162 6.18631 1.21942 5.94831 1.43288 5.87145Z" fill="#B5E0F3"/>
<path d="M12.6661 1.48884L12.6661 1.48883C12.6051 1.33836 12.436 1.26291 12.2831 1.31794L12.6661 1.48884ZM12.6661 1.48884L15.4612 8.37615C15.6662 8.88124 15.4121 9.45568 14.9004 9.64361L14.9349 9.73747L14.9004 9.64361L4.7163 13.3851C4.12671 13.6017 3.46929 13.3323 3.20129 12.7643L0.779605 7.63112L0.779599 7.63111C0.692517 7.44659 0.778547 7.22673 0.967753 7.15035L0.967767 7.15034L1.91646 6.76722L2.00831 6.73013L1.97209 6.63793L1.5332 5.52073C1.5332 5.52072 1.5332 5.52072 1.5332 5.52072C1.47092 5.36211 1.5519 5.18327 1.71237 5.12541C1.71238 5.12541 1.71238 5.12541 1.71239 5.1254L12.2831 1.31794L12.6661 1.48884Z" fill="#FFFCFF" stroke="#C9C8C8" stroke-width="0.2"/>
<path d="M1.87904 6.67468L0.930352 7.05781C0.687831 7.1557 0.577517 7.43748 0.689195 7.67397L3.11088 12.8072C3.21933 13.037 3.38678 13.2216 3.58717 13.3506C4.62421 13.1632 4.01917 11.6862 4.01917 11.6862L1.87904 6.67468Z" fill="#D1CDD3"/>
<path d="M6.66875 6.77286L3.23438 8.15735L4.61886 11.5917L8.05324 10.2072L6.66875 6.77286Z" fill="#6FA7DB"/>
<path d="M7.56084 8.98599L4.12646 10.3705L4.6189 11.592L8.05328 10.2075L7.56084 8.98599Z" fill="#ABDE91"/>
<path d="M4.71729 9.68886L7.17837 8.03687L7.56071 8.98513L4.87074 10.0696L4.71729 9.68886Z" fill="#2B5434"/>
<path d="M5.61488 9.76953L3.81934 9.6084L4.12624 10.3698L5.61488 9.76953Z" fill="#62A953"/>
<path d="M4.68206 9.13243C4.93417 9.13243 5.13854 8.92806 5.13854 8.67596C5.13854 8.42385 4.93417 8.21948 4.68206 8.21948C4.42996 8.21948 4.22559 8.42385 4.22559 8.67596C4.22559 8.92806 4.42996 9.13243 4.68206 9.13243Z" fill="#FFC66D"/>
<path d="M9.57173 5.60247L7.02979 6.6272L7.1411 6.90333L9.68305 5.8786L9.57173 5.60247Z" fill="#0696D6"/>
<path d="M9.82564 6.23198L7.28369 7.25671L7.39501 7.53284L9.93695 6.50811L9.82564 6.23198Z" fill="#0696D6"/>
<path d="M10.0795 6.86113L7.5376 7.88586L7.64889 8.16193L10.1908 7.1372L10.0795 6.86113Z" fill="#0696D6"/>
<path d="M10.333 7.49103L7.79102 8.51575L7.90233 8.79188L10.4443 7.76716L10.333 7.49103Z" fill="#0696D6"/>
<path d="M10.586 8.11746L8.04395 9.14221L8.15526 9.41834L10.6973 8.39359L10.586 8.11746Z" fill="#0696D6"/>
<path d="M10.8399 8.74709L8.29785 9.77185L8.40917 10.048L10.9512 9.02322L10.8399 8.74709Z" fill="#0696D6"/>
<path d="M12.7954 4.30301L10.2534 5.32776L10.3647 5.60389L12.9067 4.57914L12.7954 4.30301Z" fill="#0696D6"/>
<path d="M13.0493 4.93267L10.5073 5.9574L10.6186 6.23353L13.1606 5.2088L13.0493 4.93267Z" fill="#0696D6"/>
<path d="M13.3026 5.56232L10.7607 6.58704L10.8721 6.86317L13.4139 5.83845L13.3026 5.56232Z" fill="#0696D6"/>
<path d="M13.5566 6.19123L11.0146 7.21594L11.126 7.49207L13.6679 6.46736L13.5566 6.19123Z" fill="#0696D6"/>
<path d="M13.809 6.81818L11.2671 7.8429L11.3784 8.11902L13.9204 7.09431L13.809 6.81818Z" fill="#0696D6"/>
<path d="M14.0629 7.44768L11.521 8.47241L11.6323 8.74854L14.1743 7.72381L14.0629 7.44768Z" fill="#0696D6"/>
<path d="M11.3134 9.92281L8.77148 10.9475L8.8828 11.2236L11.4247 10.1989L11.3134 9.92281Z" fill="#0696D6"/>
<path d="M7.51802 11.4527L4.97607 12.4774L5.08739 12.7535L7.62934 11.7288L7.51802 11.4527Z" fill="#0696D6"/>
<path d="M12.4651 3.48403L2.9043 7.33826L3.01561 7.61439L12.5764 3.76016L12.4651 3.48403Z" fill="#0696D6"/>
<path d="M14.5371 8.6231L11.9951 9.64783L12.1064 9.92396L14.6484 8.89923L14.5371 8.6231Z" fill="#0696D6"/>
<path d="M2.59562 10.2396L3.28321 9.96241L3.16629 9.6886L2.48438 9.96356L2.59562 10.2396Z" fill="#1B2746"/>
<path d="M2.84862 10.8661L3.54898 10.5837L3.43199 10.3099L2.7373 10.59L2.84862 10.8661Z" fill="#1B2746"/>
<path d="M2.34228 9.61011L3.01701 9.33809L2.9001 9.06421L2.23096 9.334L2.34228 9.61011Z" fill="#1B2746"/>
<path d="M1.83439 8.35124L2.48358 8.08949L2.36659 7.81567L1.72314 8.07513L1.83439 8.35124Z" fill="#1B2746"/>
<path d="M3.69833 10.9342L2.99072 11.2195L3.10204 11.4955L3.81525 11.208L3.69833 10.9342Z" fill="#1B2746"/>
<path d="M2.08788 8.98061L2.74984 8.71375L2.63292 8.43994L1.97656 8.70457L2.08788 8.98061Z" fill="#1B2746"/>
</svg>
