<svg width="10" height="11" viewBox="0 0 10 11" fill="none" xmlns="http://www.w3.org/2000/svg">
<path d="M9.26304 3.09277L8.92289 2.75262L5.77204 5.90348C5.37818 6.29733 4.71579 6.29733 4.32193 5.90348L1.17108 2.77053L0.830933 3.11068L3.17617 5.45591L0.830933 7.80115L1.17108 8.1413L3.51632 5.79606L3.98178 6.26153C4.26822 6.54797 4.64418 6.70909 5.03803 6.70909C5.43189 6.70909 5.80784 6.54797 6.09429 6.26153L6.55975 5.79606L8.90499 8.1413L9.24514 7.80115L6.8999 5.45591L9.26304 3.09277Z" fill="#7C878E"/>
<path d="M8.60052 8.75003H1.52901C1.11725 8.75003 0.7771 8.40988 0.7771 7.99812V2.9496C0.7771 2.53784 1.11725 2.19769 1.52901 2.19769H8.60052C9.01228 2.19769 9.35243 2.53784 9.35243 2.9496V7.99812C9.35243 8.40988 9.01228 8.75003 8.60052 8.75003ZM1.5111 2.68106C1.36788 2.68106 1.26047 2.78848 1.26047 2.9317V7.98022C1.26047 8.12344 1.36788 8.23086 1.5111 8.23086H8.58262C8.72584 8.23086 8.83325 8.12344 8.83325 7.98022V2.9317C8.83325 2.78848 8.72584 2.68106 8.58262 2.68106H1.5111Z" fill="#7C878E"/>
</svg>
