<svg width="40" height="40" viewBox="0 0 40 40" fill="none" xmlns="http://www.w3.org/2000/svg">
<path d="M19.8267 27.7227C23.827 27.7227 27.0881 24.4691 27.0881 20.4347V8.24462C27.0881 4.25357 23.827 1 19.8267 1C15.8263 1 12.5652 4.25357 12.5652 8.24462V20.4781C12.5652 24.4691 15.8263 27.7227 19.8267 27.7227Z" fill="#1B2746"/>
<path d="M30.3497 16.0101H27.9147V18.613H29.0452V22.2136C29.0452 25.5973 24.9144 29.6751 19.8271 29.6751C14.7397 29.6751 10.6089 25.5539 10.6089 20.4784V18.613H11.696V16.0101H9.30446C8.56526 16.0101 8 16.5741 8 17.3116V20.4784C8 26.5517 12.6091 31.5405 18.5226 32.1912V36.5727H14.6527C13.9135 36.5727 13.3483 37.1367 13.3483 37.8741C13.3483 38.6116 13.9135 39.1756 14.6527 39.1756H25.0014C25.7406 39.1756 26.3059 38.6116 26.3059 37.8741C26.3059 37.1367 25.7406 36.5727 25.0014 36.5727H21.1315V32.1912C23.697 31.9309 26.1319 30.8464 28.1321 29.0678C30.3497 27.0723 31.6541 24.5996 31.6541 22.1702V17.3116C31.6541 16.5741 31.0889 16.0101 30.3497 16.0101Z" fill="#1B2746"/>
</svg>
