<svg width="40" height="40" viewBox="0 0 40 40" fill="none" xmlns="http://www.w3.org/2000/svg">
<path d="M16.6665 16.25C15.9762 16.25 15.4165 15.6903 15.4165 15C15.4165 14.3096 15.9762 13.75 16.6665 13.75H23.3332C23.8387 13.75 24.2946 14.0545 24.4881 14.5216C24.6816 14.9887 24.5746 15.5264 24.2171 15.8839L19.6842 20.4167H23.3332C24.0236 20.4167 24.5832 20.9763 24.5832 21.6667C24.5832 22.357 24.0236 22.9167 23.3332 22.9167H16.6665C16.161 22.9167 15.7052 22.6122 15.5117 22.145C15.3182 21.678 15.4252 21.1403 15.7827 20.7828L20.3154 16.25H16.6665Z" fill="#1C274C"/>
<path fill-rule="evenodd" clip-rule="evenodd" d="M7.08332 15C7.08332 7.8663 12.8663 2.08331 19.9999 2.08331C27.1336 2.08331 32.9166 7.8663 32.9166 15V16.1735C32.9166 17.335 33.2604 18.4706 33.9048 19.437L35.8191 22.3085C38.0409 25.6413 36.3448 30.1713 32.4804 31.2251C31.2211 31.5686 29.9509 31.8591 28.6736 32.0968L28.6704 32.1053C27.3888 35.5251 23.9633 37.9166 19.9999 37.9166C16.0366 37.9166 12.611 35.5251 11.3294 32.1053L11.3262 32.0968C10.0489 31.8591 8.77888 31.5686 7.51953 31.2251C3.65522 30.1713 1.95904 25.6413 4.18085 22.3085L6.0952 19.437C6.7395 18.4706 7.08332 17.335 7.08332 16.1735V15ZM14.3724 32.5615C15.5573 34.2641 17.6183 35.4166 19.9999 35.4166C22.3814 35.4166 24.4424 34.2641 25.6273 32.5616C21.8891 33.0083 18.1106 33.0081 14.3724 32.5615ZM19.9999 4.58331C14.247 4.58331 9.58332 9.24701 9.58332 15V16.1735C9.58332 17.8286 9.0934 19.4466 8.17532 20.8238L6.26098 23.6953C4.9857 25.6081 5.95927 28.2083 8.17732 28.8133C15.9178 30.9243 24.0823 30.9243 31.8226 28.8133C34.0408 28.2083 35.0143 25.6081 33.7389 23.6953L31.8246 20.8238C30.9066 19.4466 30.4166 17.8286 30.4166 16.1735V15C30.4166 9.24701 25.7529 4.58331 19.9999 4.58331Z" fill="#1C274C"/>
</svg>
