<svg width="200" height="201" viewBox="0 0 200 201" fill="none" xmlns="http://www.w3.org/2000/svg">
<path d="M88.9891 183.958L86.6966 187.831C83.2816 193.601 74.7501 193.601 71.3349 187.831L69.0428 183.958L69.0411 183.956C65.3686 177.752 63.532 174.649 60.6064 172.918C57.6805 171.188 53.8639 171.065 46.2308 170.821C39.0734 170.592 34.2631 169.967 30.1501 168.264C21.4904 164.677 14.6104 157.797 11.0234 149.137C8.33325 142.642 8.33325 134.409 8.33325 117.942V110.873C8.33325 87.7358 8.33325 76.1672 13.5412 67.6686C16.4553 62.9132 20.4534 58.915 25.2088 56.0009C33.7073 50.793 45.2761 50.793 68.4136 50.793H89.6182C112.756 50.793 124.325 50.793 132.823 56.0009C137.578 58.915 141.577 62.9132 144.491 67.6686C149.699 76.1672 149.699 87.7358 149.699 110.873V117.942C149.699 134.409 149.699 142.642 147.008 149.137C143.422 157.797 136.542 164.677 127.882 168.264C123.769 169.967 118.958 170.592 111.801 170.821C104.167 171.065 100.352 171.188 97.4249 172.918C94.4995 174.649 92.6629 177.752 88.9905 183.956L88.9891 183.958Z" fill="#DDDDDD"/>
<path opacity="0.5" d="M129.05 8.83334C139.608 8.83328 148.003 8.83323 154.736 9.47343C161.639 10.1298 167.477 11.5058 172.677 14.6923C178.027 17.9707 182.524 22.4686 185.803 27.8184C188.989 33.0183 190.365 38.8554 191.022 45.7593C191.662 52.4923 191.662 60.8882 191.662 71.4453V78.6558C191.662 86.1692 191.662 92.1458 191.331 96.9917C190.993 101.95 190.287 106.207 188.635 110.193C184.6 119.936 176.86 127.676 167.118 131.711C166.874 131.812 166.629 131.909 166.383 132.003C165.208 132.453 164.199 132.838 163.315 133.125H149.564C149.699 128.967 149.699 124.014 149.699 117.942V110.873C149.699 87.7358 149.699 76.1672 144.491 67.6686C141.577 62.9132 137.578 58.915 132.823 56.0009C124.325 50.793 112.756 50.793 89.6184 50.793H68.4138C60.202 50.793 53.4475 50.793 47.7703 51.0258V37.2725C48.0428 36.3278 48.4163 35.2451 48.8547 33.9742C49.6003 31.8126 50.5425 29.7683 51.7374 27.8184C55.0158 22.4686 59.5137 17.9707 64.8635 14.6923C70.0633 11.5058 75.9005 10.1298 82.8043 9.47343C89.5376 8.83323 97.9326 8.83328 108.49 8.83334H129.05Z" fill="#DDDDDD"/>
</svg>
