<svg width="22" height="22" viewBox="0 0 22 22" fill="none" xmlns="http://www.w3.org/2000/svg">
<path fill-rule="evenodd" clip-rule="evenodd" d="M5.54903 3.11191C5.21526 3.78994 5.05706 4.50588 5.05031 5.38043C5.05341 5.41296 5.05768 5.45412 5.06261 5.50163C5.07617 5.63224 5.0947 5.81082 5.10737 5.9898C5.16253 6.77177 5.32596 7.53176 5.59222 8.26878C5.86968 9.03699 6.25906 9.74501 6.80467 10.3631C7.3377 10.9668 7.96825 11.4287 8.75724 11.6554C9.18738 11.779 9.62623 11.8115 10.0698 11.7491C10.8215 11.6433 11.462 11.3059 12.0213 10.811C12.7653 10.1528 13.2656 9.3326 13.6226 8.42171C13.9146 7.67683 14.0777 6.90211 14.1573 6.10803C14.2048 5.63445 14.2441 5.16319 14.1871 4.68662C14.1106 4.04688 13.922 3.44371 13.604 2.88331C13.0774 1.9556 12.3253 1.26748 11.3316 0.845272C10.6147 0.540695 9.86755 0.438023 9.09403 0.535685C8.19533 0.64905 7.40794 1.01196 6.72489 1.59419C6.22701 2.01856 5.8371 2.52654 5.54903 3.11191ZM10.4518 14.1526C10.5613 14.0597 10.6709 13.9667 10.7803 13.8735C10.4526 14.5983 10.2702 15.4029 10.2702 16.25C10.2702 17.7928 10.8752 19.1944 11.8609 20.2303L11.241 20.2317C9.83113 20.235 8.42122 20.2383 7.01134 20.2399C6.3151 20.2406 5.61848 20.2399 4.92262 20.2208C4.23543 20.202 3.55035 20.1442 2.88389 19.9558C2.3141 19.7947 1.79701 19.5386 1.41428 19.0587C1.1347 18.7081 0.969728 18.3028 0.89742 17.8613C0.709298 16.7131 0.868693 15.6093 1.33368 14.5496C1.71385 13.6833 2.27399 12.9564 2.99828 12.3612C3.29045 12.1211 3.88116 11.8647 4.24174 11.7208C4.30575 11.6953 4.39852 11.6729 4.50539 11.6472C4.69854 11.6006 4.93775 11.543 5.13626 11.4354C5.30463 11.3442 5.45199 11.2523 5.48978 11.2129C5.50817 11.1937 5.53079 11.1705 5.55447 11.1663C5.69112 11.1413 5.82821 11.1189 5.96579 11.0964L6.09546 11.075C6.15593 11.4784 6.38251 11.7705 6.61338 12.0571C7.02491 12.568 7.49442 13.0222 7.98769 13.4487C8.34803 13.7603 8.71619 14.0625 9.08437 14.3647L9.08495 14.3651C9.23906 14.4916 9.39318 14.6181 9.54672 14.7453C9.56364 14.7593 9.58171 14.7719 9.60242 14.7864C9.61301 14.7938 9.62428 14.8017 9.63645 14.8105C9.69955 14.7607 9.76328 14.7113 9.82709 14.6619C9.96806 14.5527 10.1095 14.4431 10.2458 14.3273C10.3144 14.269 10.3831 14.2108 10.4518 14.1526Z" fill="#1B2746"/>
<path fill-rule="evenodd" clip-rule="evenodd" d="M11.5827 16.1345C11.6297 16.0672 11.666 15.988 11.7258 15.9352C11.8593 15.8174 12.0192 15.8035 12.179 15.8759C12.3423 15.9499 12.4215 16.0882 12.4197 16.2645C12.4121 16.972 12.5814 17.6367 12.9295 18.2486C13.6229 19.4676 14.67 20.1903 16.0608 20.3753C18.2443 20.6656 20.302 19.1314 20.6664 16.9636C21.0451 14.71 19.5831 12.5976 17.3401 12.1679C17.1027 12.1224 16.8571 12.1127 16.6147 12.1033C16.3864 12.0945 16.1998 11.9684 16.1622 11.7703C16.1184 11.5397 16.2256 11.3619 16.4602 11.2756C16.4656 11.2736 16.4694 11.2671 16.474 11.2627C16.6104 11.2627 16.7468 11.2627 16.8832 11.2627C16.9083 11.2682 16.9332 11.2751 16.9586 11.2788C17.1862 11.3124 17.4164 11.3334 17.6411 11.3805C20.3587 11.9507 22.1028 14.7601 21.414 17.4527C20.7379 20.0959 18.1547 21.6944 15.4852 21.1216C13.5492 20.7062 11.9788 19.0643 11.6598 17.1199C11.6294 16.9351 11.6082 16.7488 11.5827 16.5632C11.5827 16.4203 11.5827 16.2774 11.5827 16.1345Z" fill="#1B2746"/>
<path fill-rule="evenodd" clip-rule="evenodd" d="M16.9856 14.8013C16.9855 15.2722 16.9831 15.7431 16.9866 16.2139C16.9882 16.4149 16.9027 16.5525 16.7239 16.6411C16.1837 16.9092 15.6449 17.1802 15.1051 17.4493C14.9447 17.5292 14.7887 17.5177 14.649 17.4052C14.5128 17.2957 14.465 17.1492 14.5067 16.9785C14.5388 16.8471 14.6242 16.7589 14.7443 16.6992C15.1856 16.4798 15.6253 16.2572 16.0678 16.0402C16.1359 16.0069 16.1597 15.9701 16.1594 15.8936C16.1563 15.0526 16.1572 14.2115 16.1576 13.3705C16.1577 13.1503 16.2748 12.9877 16.4651 12.9394C16.7282 12.8727 16.9785 13.0583 16.9841 13.3303C16.989 13.5673 16.9855 13.8044 16.9856 14.0415C16.9857 14.1681 16.9856 14.2948 16.9856 14.4214C16.9856 14.548 16.9856 14.6747 16.9856 14.8013Z" fill="#1B2746"/>
<path fill-rule="evenodd" clip-rule="evenodd" d="M14.405 12.0277C14.4041 11.7955 14.5844 11.6124 14.8149 11.6113C15.0484 11.6103 15.2308 11.7879 15.2338 12.0192C15.2368 12.2536 15.0501 12.4447 14.8188 12.4441C14.5918 12.4436 14.4058 12.2564 14.405 12.0277Z" fill="#0696D6"/>
<path fill-rule="evenodd" clip-rule="evenodd" d="M11.931 14.5017C11.9306 14.272 12.1132 14.0874 12.3426 14.0855C12.5787 14.0835 12.7635 14.2682 12.7609 14.5035C12.7583 14.7345 12.5739 14.9174 12.3448 14.9164C12.1142 14.9153 11.9313 14.7321 11.931 14.5017Z" fill="#0696D6"/>
<path fill-rule="evenodd" clip-rule="evenodd" d="M13.3386 12.606C13.5689 12.6055 13.7525 12.7883 13.7526 13.0181C13.7527 13.2498 13.5729 13.4298 13.3399 13.4312C13.1093 13.4325 12.926 13.2503 12.9261 13.0196C12.9261 12.7894 13.1086 12.6064 13.3386 12.606Z" fill="#0696D6"/>
</svg>
