<svg width="40" height="40" viewBox="0 0 40 40" fill="none" xmlns="http://www.w3.org/2000/svg">
<path fill-rule="evenodd" clip-rule="evenodd" d="M20 40C31.0456 40 40 31.0456 40 20C40 8.9543 31.0456 0 20 0C8.9543 0 0 8.9543 0 20C0 31.0456 8.9543 40 20 40ZM22.872 10.9221C22.1978 10.4406 21.261 10.5967 20.7796 11.2708C20.298 11.945 20.4542 12.8818 21.1282 13.3633L27.5714 17.9656C28.9672 18.9626 28.9672 21.0372 27.5714 22.0342L21.1282 26.6364C20.4542 27.1178 20.298 28.0548 20.7796 28.7288C21.261 29.403 22.1978 29.559 22.872 29.0776L29.315 24.4754C32.386 22.2818 32.386 17.7178 29.315 15.5243L22.872 10.9221ZM11 26.2636V13.7377C11 12.1403 12.7803 11.1876 14.1094 12.0736L23.5038 18.3366C24.6914 19.1282 24.6914 20.8732 23.5038 21.6648L14.1094 27.9278C12.7803 28.8138 11 27.861 11 26.2636Z" fill="#1C274C"/>
<path d="M20.7796 11.2708C21.261 10.5967 22.1978 10.4406 22.872 10.9221L29.315 15.5243C32.386 17.7178 32.386 22.2818 29.315 24.4754L22.872 29.0776C22.1978 29.559 21.261 29.403 20.7796 28.7288C20.298 28.0548 20.4542 27.1178 21.1282 26.6364L27.5714 22.0342C28.9672 21.0372 28.9672 18.9626 27.5714 17.9656L21.1282 13.3633C20.4542 12.8818 20.298 11.945 20.7796 11.2708Z" fill="white"/>
<path d="M11 13.7377V26.2636C11 27.861 12.7803 28.8138 14.1094 27.9278L23.5038 21.6648C24.6914 20.8732 24.6914 19.1282 23.5038 18.3366L14.1094 12.0736C12.7803 11.1876 11 12.1403 11 13.7377Z" fill="white"/>
</svg>
