<svg width="21" height="20" viewBox="0 0 21 20" fill="none" xmlns="http://www.w3.org/2000/svg">
<path fill-rule="evenodd" clip-rule="evenodd" d="M6.2869 2.24743C7.42293 1.12857 8.96372 0.5 10.5703 0.5C12.1769 0.5 13.7177 1.12857 14.8537 2.24743C15.9898 3.36629 16.628 4.88379 16.628 6.4661C16.628 9.46196 17.2789 11.3393 17.8919 12.4462C18.1994 13.0014 18.501 13.3695 18.7151 13.5921C18.8224 13.7036 18.9082 13.7791 18.9624 13.8236C18.9895 13.8459 19.0088 13.8604 19.0189 13.8678L19.0266 13.8734C19.2691 14.0364 19.3766 14.3357 19.2914 14.613C19.2054 14.8926 18.9438 15.0838 18.6472 15.0838H2.49344C2.19684 15.0838 1.9352 14.8926 1.84925 14.613C1.764 14.3357 1.8715 14.0364 2.11401 13.8734L2.12175 13.8678C2.13186 13.8604 2.15111 13.8459 2.17823 13.8236C2.23245 13.7791 2.31823 13.7036 2.42549 13.5921C2.63965 13.3695 2.94124 13.0014 3.2487 12.4462C3.86175 11.3393 4.51266 9.46196 4.51266 6.4661C4.51266 4.88379 5.15087 3.36629 6.2869 2.24743ZM4.00993 13.758H17.1307C16.993 13.5605 16.8511 13.3356 16.7102 13.0811C15.9771 11.7574 15.2818 9.6573 15.2818 6.4661C15.2818 5.23542 14.7854 4.05514 13.9019 3.18491C13.0183 2.31469 11.8199 1.8258 10.5703 1.8258C9.32074 1.8258 8.12235 2.31469 7.23877 3.18491C6.35519 4.05514 5.8588 5.23542 5.8588 6.4661C5.8588 9.6573 5.16356 11.7574 4.43047 13.0811C4.28951 13.3356 4.14767 13.5605 4.00993 13.758ZM8.68003 17.383C9.00157 17.1993 9.41344 17.3071 9.59997 17.6237C9.69858 17.7912 9.84012 17.9301 10.0104 18.0267C10.1807 18.1234 10.3738 18.1742 10.5703 18.1742C10.7668 18.1742 10.9599 18.1234 11.1302 18.0267C11.3005 17.9301 11.442 17.7912 11.5407 17.6237C11.7272 17.3071 12.1391 17.1993 12.4606 17.383C12.7821 17.5667 12.8916 17.9723 12.7051 18.289C12.4881 18.6573 12.1767 18.9631 11.8021 19.1756C11.4274 19.3881 11.0027 19.5 10.5703 19.5C10.138 19.5 9.71319 19.3881 9.33853 19.1756C8.96388 18.9631 8.65249 18.6573 8.43555 18.289C8.24903 17.9723 8.35848 17.5667 8.68003 17.383Z" fill="#1B2746"/>
</svg>
