<svg width="16" height="16" viewBox="0 0 16 16" fill="none" xmlns="http://www.w3.org/2000/svg">
<g clip-path="url(#clip0_1501_21849)">
<mask id="path-1-inside-1_1501_21849" fill="white">
<path fill-rule="evenodd" clip-rule="evenodd" d="M7.99992 0.833336C8.27605 0.833336 8.49992 1.0572 8.49992 1.33334V1.50096C8.57405 1.50208 8.63732 1.5045 8.69632 1.50972C9.90312 1.61644 10.8597 2.57302 10.9664 3.77979C10.9761 3.89008 10.9761 4.01504 10.9761 4.19857V5.014C10.9761 7.59353 9.01339 9.7146 6.49993 9.9654V11.3334C6.49993 12.8982 7.76845 14.1667 9.33325 14.1667H9.92152C10.7549 14.1667 11.4831 13.7123 11.8704 13.0372C10.8801 12.7047 10.1666 11.769 10.1666 10.6667C10.1666 9.28593 11.2859 8.16667 12.6666 8.16667C14.0473 8.16667 15.1666 9.28593 15.1666 10.6667C15.1666 11.9603 14.184 13.0245 12.9245 13.1535C12.4394 14.3345 11.2782 15.1667 9.92152 15.1667H9.33325C7.21619 15.1667 5.49993 13.4505 5.49993 11.3334V9.96633C2.88105 9.7148 0.83326 7.50834 0.83326 4.82353L0.833254 4.19861C0.833234 4.01506 0.83322 3.8901 0.842974 3.77979C0.949687 2.57302 1.90628 1.61644 3.11305 1.50972C3.21683 1.50054 3.33359 1.50002 3.49993 1.5V1.33334C3.49993 1.0572 3.72378 0.833336 3.99993 0.833336C4.27607 0.833336 4.49993 1.0572 4.49993 1.33334V2.66667C4.49993 2.94281 4.27607 3.16667 3.99993 3.16667C3.72378 3.16667 3.49993 2.94281 3.49993 2.66667V2.50002C3.32432 2.50014 3.25587 2.50099 3.20113 2.50584C2.47707 2.56986 1.90311 3.14382 1.83909 3.86788C1.83375 3.92827 1.83326 4.00535 1.83326 4.2246V4.82353C1.83326 7.12473 3.69874 8.9902 5.99993 8.9902C8.19592 8.9902 9.97612 7.21 9.97612 5.014V4.2246C9.97612 4.00535 9.97565 3.92827 9.97025 3.86788C9.90625 3.14382 9.33232 2.56986 8.60825 2.50584C8.58005 2.50334 8.54819 2.5019 8.49992 2.50108V2.66667C8.49992 2.94281 8.27605 3.16667 7.99992 3.16667C7.72379 3.16667 7.49992 2.94281 7.49992 2.66667V1.33334C7.49992 1.0572 7.72379 0.833336 7.99992 0.833336ZM11.1666 10.6667C11.1666 9.83827 11.8382 9.16667 12.6666 9.16667C13.495 9.16667 14.1666 9.83827 14.1666 10.6667C14.1666 11.4951 13.495 12.1667 12.6666 12.1667C11.8382 12.1667 11.1666 11.4951 11.1666 10.6667Z"/>
</mask>
<path fill-rule="evenodd" clip-rule="evenodd" d="M7.99992 0.833336C8.27605 0.833336 8.49992 1.0572 8.49992 1.33334V1.50096C8.57405 1.50208 8.63732 1.5045 8.69632 1.50972C9.90312 1.61644 10.8597 2.57302 10.9664 3.77979C10.9761 3.89008 10.9761 4.01504 10.9761 4.19857V5.014C10.9761 7.59353 9.01339 9.7146 6.49993 9.9654V11.3334C6.49993 12.8982 7.76845 14.1667 9.33325 14.1667H9.92152C10.7549 14.1667 11.4831 13.7123 11.8704 13.0372C10.8801 12.7047 10.1666 11.769 10.1666 10.6667C10.1666 9.28593 11.2859 8.16667 12.6666 8.16667C14.0473 8.16667 15.1666 9.28593 15.1666 10.6667C15.1666 11.9603 14.184 13.0245 12.9245 13.1535C12.4394 14.3345 11.2782 15.1667 9.92152 15.1667H9.33325C7.21619 15.1667 5.49993 13.4505 5.49993 11.3334V9.96633C2.88105 9.7148 0.83326 7.50834 0.83326 4.82353L0.833254 4.19861C0.833234 4.01506 0.83322 3.8901 0.842974 3.77979C0.949687 2.57302 1.90628 1.61644 3.11305 1.50972C3.21683 1.50054 3.33359 1.50002 3.49993 1.5V1.33334C3.49993 1.0572 3.72378 0.833336 3.99993 0.833336C4.27607 0.833336 4.49993 1.0572 4.49993 1.33334V2.66667C4.49993 2.94281 4.27607 3.16667 3.99993 3.16667C3.72378 3.16667 3.49993 2.94281 3.49993 2.66667V2.50002C3.32432 2.50014 3.25587 2.50099 3.20113 2.50584C2.47707 2.56986 1.90311 3.14382 1.83909 3.86788C1.83375 3.92827 1.83326 4.00535 1.83326 4.2246V4.82353C1.83326 7.12473 3.69874 8.9902 5.99993 8.9902C8.19592 8.9902 9.97612 7.21 9.97612 5.014V4.2246C9.97612 4.00535 9.97565 3.92827 9.97025 3.86788C9.90625 3.14382 9.33232 2.56986 8.60825 2.50584C8.58005 2.50334 8.54819 2.5019 8.49992 2.50108V2.66667C8.49992 2.94281 8.27605 3.16667 7.99992 3.16667C7.72379 3.16667 7.49992 2.94281 7.49992 2.66667V1.33334C7.49992 1.0572 7.72379 0.833336 7.99992 0.833336ZM11.1666 10.6667C11.1666 9.83827 11.8382 9.16667 12.6666 9.16667C13.495 9.16667 14.1666 9.83827 14.1666 10.6667C14.1666 11.4951 13.495 12.1667 12.6666 12.1667C11.8382 12.1667 11.1666 11.4951 11.1666 10.6667Z" fill="#576A7A"/>
<path d="M8.49992 1.50096H-24.8334V34.3345L7.99638 34.8305L8.49992 1.50096ZM8.69632 1.50972L5.75864 34.7134L5.76022 34.7135L8.69632 1.50972ZM10.9664 3.77979L44.1707 0.849526L44.1701 0.843063L10.9664 3.77979ZM6.49993 9.9654L3.19027 -23.2032L-26.8334 -20.2074V9.9654H6.49993ZM11.8704 13.0372L40.7826 29.6262L61.0102 -5.62756L22.4789 -18.563L11.8704 13.0372ZM12.9245 13.1535L9.52652 -20.0062L-10.327 -17.9717L-17.9094 0.489281L12.9245 13.1535ZM5.49993 9.96633H38.8333V-20.3188L8.68681 -23.2143L5.49993 9.96633ZM0.83326 4.82353H34.1666V4.82317L0.83326 4.82353ZM0.833254 4.19861L34.1666 4.19825L34.1666 4.19498L0.833254 4.19861ZM0.842974 3.77979L-32.3608 0.843609L-32.3608 0.843905L0.842974 3.77979ZM3.11305 1.50972L6.04923 34.7135L6.05012 34.7134L3.11305 1.50972ZM3.49993 1.5L3.50393 34.8333L36.8333 34.8293V1.5H3.49993ZM3.49993 2.50002H36.8333V-30.8561L3.47715 -30.8333L3.49993 2.50002ZM3.20113 2.50584L6.13727 35.7096L6.1406 35.7093L3.20113 2.50584ZM1.83909 3.86788L-31.3647 0.931756L-31.3647 0.931985L1.83909 3.86788ZM9.97025 3.86788L-23.2336 6.80278L-23.2321 6.81964L-23.2306 6.83649L9.97025 3.86788ZM8.60825 2.50584L5.66471 35.7089L5.67216 35.7096L8.60825 2.50584ZM8.49992 2.50108L9.06614 -30.8274L-24.8334 -31.4034V2.50108H8.49992ZM7.99992 34.1667C-10.1331 34.1667 -24.8334 19.467 -24.8334 1.33334H41.8333C41.8333 -17.3526 26.6853 -32.5 7.99992 -32.5V34.1667ZM-24.8334 1.33334V1.50096H41.8333V1.33334H-24.8334ZM7.99638 34.8305C7.68502 34.8258 6.84528 34.8095 5.75864 34.7134L11.634 -31.6939C10.4294 -31.8005 9.46308 -31.8216 9.00346 -31.8286L7.99638 34.8305ZM5.76022 34.7135C-9.12402 33.3973 -20.9211 21.5987 -22.2373 6.71652L44.1701 0.843063C42.6404 -16.4527 28.9303 -30.1645 11.6324 -31.694L5.76022 34.7135ZM-22.2379 6.71005C-22.3277 5.69207 -22.347 4.90001 -22.3531 4.55837C-22.3583 4.2659 -22.3572 4.01625 -22.3572 4.19857H44.3095C44.3095 4.19736 44.3106 3.79347 44.3029 3.36506C44.2943 2.88749 44.2702 1.9778 44.1707 0.849527L-22.2379 6.71005ZM-22.3572 4.19857V5.014H44.3095V4.19857H-22.3572ZM-22.3572 5.014C-22.3572 -9.70615 -11.1678 -21.7705 3.19027 -23.2032L9.80958 43.134C29.1946 41.1997 44.3095 24.8932 44.3095 5.014H-22.3572ZM-26.8334 9.9654V11.3334H39.8333V9.9654H-26.8334ZM-26.8334 11.3334C-26.8334 31.3076 -10.6411 47.5001 9.33325 47.5001V-19.1666C26.178 -19.1666 39.8333 -5.51119 39.8333 11.3334H-26.8334ZM9.33325 47.5001H9.92152V-19.1666H9.33325V47.5001ZM9.92152 47.5001C23.1724 47.5001 34.6937 40.2382 40.7826 29.6262L-17.0418 -3.55178C-11.7276 -12.8137 -1.66261 -19.1666 9.92152 -19.1666V47.5001ZM22.4789 -18.563C34.6557 -14.4751 43.4999 -2.97996 43.4999 10.6667H-23.1667C-23.1667 26.518 -12.8955 39.8846 1.26184 44.6374L22.4789 -18.563ZM43.4999 10.6667C43.4999 27.6954 29.6954 41.5 12.6666 41.5V-25.1667C-7.12365 -25.1667 -23.1667 -9.12355 -23.1667 10.6667H43.4999ZM12.6666 41.5C-4.36217 41.5 -18.1667 27.6954 -18.1667 10.6667H48.4999C48.4999 -9.12356 32.4568 -25.1667 12.6666 -25.1667V41.5ZM-18.1667 10.6667C-18.1667 -5.30939 -6.04319 -18.4107 9.52652 -20.0062L16.3224 46.3132C34.4112 44.4596 48.4999 29.2301 48.4999 10.6667H-18.1667ZM-17.9094 0.489281C-13.4406 -10.391 -2.713 -18.1666 9.92152 -18.1666V48.5001C25.2694 48.5001 38.3194 39.0601 43.7583 25.8178L-17.9094 0.489281ZM9.92152 -18.1666H9.33325V48.5001H9.92152V-18.1666ZM9.33325 -18.1666C25.6257 -18.1666 38.8333 -4.95895 38.8333 11.3334H-27.8334C-27.8334 31.8599 -11.1934 48.5001 9.33325 48.5001V-18.1666ZM38.8333 11.3334V9.96633H-27.8334V11.3334H38.8333ZM8.68681 -23.2143C22.9986 -21.8397 34.1666 -9.8327 34.1666 4.82353H-32.5001C-32.5001 24.8494 -17.2364 41.2693 2.31305 43.147L8.68681 -23.2143ZM34.1666 4.82317L34.1666 4.19825L-32.5001 4.19896L-32.5001 4.82388L34.1666 4.82317ZM34.1666 4.19498C34.1666 4.01234 34.1677 4.26303 34.1625 4.55664C34.1563 4.89962 34.1371 5.69436 34.0468 6.71567L-32.3608 0.843905C-32.4609 1.97553 -32.485 2.8879 -32.4936 3.36682C-32.5012 3.79638 -32.5001 4.20133 -32.5001 4.20224L34.1666 4.19498ZM34.0467 6.71597C32.7306 21.5995 20.9325 33.3974 6.04923 34.7135L0.176867 -31.694C-17.12 -30.1645 -30.8312 -16.4535 -32.3608 0.843609L34.0467 6.71597ZM6.05012 34.7134C5.08376 34.7989 4.32607 34.8204 3.9615 34.8279C3.63701 34.8345 3.38181 34.8333 3.50393 34.8333L3.49592 -31.8333C3.45171 -31.8333 3.05496 -31.8342 2.60456 -31.825C2.11408 -31.815 1.24611 -31.7886 0.17597 -31.694L6.05012 34.7134ZM36.8333 1.5V1.33334H-29.8334V1.5H36.8333ZM36.8333 1.33334C36.8333 19.4664 22.1336 34.1667 3.99993 34.1667V-32.5C-14.686 -32.5 -29.8334 -17.352 -29.8334 1.33334H36.8333ZM3.99993 34.1667C-14.1334 34.1667 -28.8334 19.4667 -28.8334 1.33334H37.8333C37.8333 -17.3523 22.6856 -32.5 3.99993 -32.5V34.1667ZM-28.8334 1.33334V2.66667H37.8333V1.33334H-28.8334ZM-28.8334 2.66667C-28.8334 -15.4667 -14.1334 -30.1667 3.99993 -30.1667V36.5C22.6856 36.5 37.8333 21.3523 37.8333 2.66667H-28.8334ZM3.99993 -30.1667C22.1336 -30.1667 36.8333 -15.4664 36.8333 2.66667H-29.8334C-29.8334 21.352 -14.686 36.5 3.99993 36.5V-30.1667ZM36.8333 2.66667V2.50002H-29.8334V2.66667H36.8333ZM3.47715 -30.8333C3.41526 -30.8333 3.0775 -30.8335 2.6996 -30.8267C2.26986 -30.8189 1.37868 -30.7965 0.261657 -30.6976L6.1406 35.7093C5.07832 35.8033 4.24874 35.8228 3.9108 35.829C3.62472 35.8342 3.40899 35.8334 3.52271 35.8333L3.47715 -30.8333ZM0.26498 -30.6979C-16.5492 -29.2111 -29.8778 -15.8826 -31.3647 0.931756L35.0429 6.80399C33.6841 22.1703 21.5033 34.3508 6.13727 35.7096L0.26498 -30.6979ZM-31.3647 0.931985C-31.4727 2.15333 -31.4901 3.12231 -31.4956 3.50161C-31.5006 3.84575 -31.5001 4.17767 -31.5001 4.2246H35.1666C35.1666 4.05228 35.1674 4.23603 35.164 4.47172C35.16 4.74257 35.1455 5.64281 35.0429 6.80377L-31.3647 0.931985ZM-31.5001 4.2246V4.82353H35.1666V4.2246H-31.5001ZM-31.5001 4.82353C-31.5001 25.5343 -14.7107 42.3235 5.99993 42.3235V-24.3431C22.1082 -24.3431 35.1666 -11.2848 35.1666 4.82353H-31.5001ZM5.99993 42.3235C26.6054 42.3235 43.3095 25.6195 43.3095 5.014H-23.3572C-23.3572 -11.1995 -10.2136 -24.3431 5.99993 -24.3431V42.3235ZM43.3095 5.014V4.2246H-23.3572V5.014H43.3095ZM43.3095 4.2246C43.3095 4.18021 43.31 3.84579 43.305 3.50002C43.2994 3.11929 43.2818 2.13724 43.1711 0.899257L-23.2306 6.83649C-23.3359 5.6589 -23.3506 4.7456 -23.3546 4.47331C-23.358 4.23599 -23.3572 4.04974 -23.3572 4.2246H43.3095ZM43.1741 0.932969C41.6878 -15.882 28.359 -29.2111 11.5443 -30.6979L5.67216 35.7096C-9.69435 34.3508 -21.8753 22.1696 -23.2336 6.80278L43.1741 0.932969ZM11.5518 -30.6973C10.3976 -30.7996 9.4793 -30.8204 9.06614 -30.8274L7.9337 35.8296C7.61707 35.8242 6.76255 35.8063 5.66471 35.7089L11.5518 -30.6973ZM-24.8334 2.50108V2.66667H41.8333V2.50108H-24.8334ZM-24.8334 2.66667C-24.8334 -15.467 -10.1331 -30.1667 7.99992 -30.1667V36.5C26.6853 36.5 41.8333 21.3526 41.8333 2.66667H-24.8334ZM7.99992 -30.1667C26.133 -30.1667 40.8333 -15.467 40.8333 2.66667H-25.8334C-25.8334 21.3526 -10.6854 36.5 7.99992 36.5V-30.1667ZM40.8333 2.66667V1.33334H-25.8334V2.66667H40.8333ZM40.8333 1.33334C40.8333 19.467 26.133 34.1667 7.99992 34.1667V-32.5C-10.6854 -32.5 -25.8334 -17.3526 -25.8334 1.33334H40.8333ZM44.4999 10.6667C44.4999 28.2477 30.2477 42.5 12.6666 42.5V-24.1667C-6.57132 -24.1667 -22.1667 -8.57121 -22.1667 10.6667H44.4999ZM12.6666 42.5C-4.91451 42.5 -19.1667 28.2478 -19.1667 10.6667H47.4999C47.4999 -8.57122 31.9045 -24.1667 12.6666 -24.1667V42.5ZM-19.1667 10.6667C-19.1667 -6.91442 -4.91451 -21.1667 12.6666 -21.1667V45.5C31.9045 45.5 47.4999 29.9046 47.4999 10.6667H-19.1667ZM12.6666 -21.1667C30.2477 -21.1667 44.4999 -6.9144 44.4999 10.6667H-22.1667C-22.1667 29.9045 -6.57132 45.5 12.6666 45.5V-21.1667Z" fill="#576A7A" mask="url(#path-1-inside-1_1501_21849)"/>
</g>
<defs>
<clipPath id="clip0_1501_21849">
<rect width="16" height="16" fill="white"/>
</clipPath>
</defs>
</svg>
