<svg width="16" height="16" viewBox="0 0 16 16" fill="none" xmlns="http://www.w3.org/2000/svg">
<path d="M14.6666 15.1665H1.33325C1.05992 15.1665 0.833252 14.9398 0.833252 14.6665C0.833252 14.3932 1.05992 14.1665 1.33325 14.1665H14.6666C14.9399 14.1665 15.1666 14.3932 15.1666 14.6665C15.1666 14.9398 14.9399 15.1665 14.6666 15.1665Z" fill="#576A7A"/>
<path d="M13.9266 15.1665C13.6532 15.1665 13.4266 14.9398 13.4266 14.6665V8.6665C13.4266 7.83984 12.6532 7.1665 11.7066 7.1665H4.29324C3.34658 7.1665 2.57324 7.83984 2.57324 8.6665V14.6665C2.57324 14.9398 2.34658 15.1665 2.07324 15.1665C1.79991 15.1665 1.57324 14.9398 1.57324 14.6665V8.6665C1.57324 7.2865 2.79324 6.1665 4.29324 6.1665H11.6999C13.1999 6.1665 14.4199 7.2865 14.4199 8.6665V14.6665C14.4266 14.9398 14.1999 15.1665 13.9266 15.1665Z" fill="#576A7A"/>
<path d="M12.2935 7.16683C12.0201 7.16683 11.7935 6.94016 11.7935 6.66683V4.78016C11.7935 4.26016 11.2935 3.8335 10.6868 3.8335H5.32012C4.70679 3.8335 4.21345 4.26016 4.21345 4.78016V6.66683C4.21345 6.94016 3.98679 7.16683 3.71345 7.16683C3.44012 7.16683 3.20679 6.94016 3.20679 6.66683V4.78016C3.20679 3.70683 4.15345 2.8335 5.31345 2.8335H10.6801C11.8401 2.8335 12.7868 3.70683 12.7868 4.78016V6.66683C12.7935 6.94016 12.5668 7.16683 12.2935 7.16683Z" fill="#576A7A"/>
<path d="M11.5533 11.8335C10.78 11.8335 10.1533 11.2068 10.1533 10.4335V10.2268C10.1533 10.0068 9.9733 9.82681 9.7533 9.82681C9.5333 9.82681 9.3533 10.0068 9.3533 10.2268V10.4335C9.3533 11.2068 8.72663 11.8335 7.9533 11.8335C7.17997 11.8335 6.5533 11.2068 6.5533 10.4335V10.2268C6.5533 10.0068 6.3733 9.82681 6.1533 9.82681C5.9333 9.82681 5.7533 10.0068 5.7533 10.2268V10.4335C5.7533 11.2068 5.12663 11.8335 4.3533 11.8335C3.57997 11.8335 2.9533 11.2068 2.9533 10.4335V10.2135C2.9533 10.0001 2.77997 9.82014 2.55997 9.81348H2.3133C2.03997 9.80681 1.8133 9.58014 1.81997 9.30681C1.82663 9.03348 2.04663 8.81348 2.31997 8.81348H2.32663H2.5733C3.3333 8.82681 3.9533 9.45348 3.9533 10.2135V10.4335C3.9533 10.6535 4.1333 10.8335 4.3533 10.8335C4.5733 10.8335 4.7533 10.6535 4.7533 10.4335V10.2268C4.7533 9.45348 5.37997 8.82681 6.1533 8.82681C6.92663 8.82681 7.5533 9.45348 7.5533 10.2268V10.4335C7.5533 10.6535 7.7333 10.8335 7.9533 10.8335C8.1733 10.8335 8.3533 10.6535 8.3533 10.4335V10.2268C8.3533 9.45348 8.97997 8.82681 9.7533 8.82681C10.5266 8.82681 11.1533 9.45348 11.1533 10.2268V10.4335C11.1533 10.6535 11.3333 10.8335 11.5533 10.8335C11.7733 10.8335 11.9533 10.6535 11.9533 10.4335V10.2268C11.9533 9.45348 12.58 8.82681 13.3533 8.82681H13.6533C13.9266 8.82681 14.1533 9.05348 14.1533 9.32681C14.1533 9.60014 13.9266 9.82681 13.6533 9.82681H13.3533C13.1333 9.82681 12.9533 10.0068 12.9533 10.2268V10.4335C12.9533 11.2068 12.3266 11.8335 11.5533 11.8335Z" fill="#576A7A"/>
<path d="M5.33325 3.83333C5.05992 3.83333 4.83325 3.60667 4.83325 3.33333V2C4.83325 1.72667 5.05992 1.5 5.33325 1.5C5.60659 1.5 5.83325 1.72667 5.83325 2V3.33333C5.83325 3.60667 5.60659 3.83333 5.33325 3.83333Z" fill="#576A7A"/>
<path d="M10.6667 3.83333C10.3934 3.83333 10.1667 3.60667 10.1667 3.33333V2C10.1667 1.72667 10.3934 1.5 10.6667 1.5C10.9401 1.5 11.1667 1.72667 11.1667 2V3.33333C11.1667 3.60667 10.9401 3.83333 10.6667 3.83333Z" fill="#576A7A"/>
<path d="M8 3.8335C7.72667 3.8335 7.5 3.60683 7.5 3.3335V1.3335C7.5 1.06016 7.72667 0.833496 8 0.833496C8.27333 0.833496 8.5 1.06016 8.5 1.3335V3.3335C8.5 3.60683 8.27333 3.8335 8 3.8335Z" fill="#576A7A"/>
</svg>
