<svg width="24" height="24" viewBox="0 0 24 24" fill="none" xmlns="http://www.w3.org/2000/svg">
<path d="M8.77606 21C8.5788 21 8.38154 20.9273 8.22581 20.7716C7.92473 20.4705 7.92473 19.9722 8.22581 19.6711L14.995 12.9019C15.4933 12.4036 15.4933 11.5938 14.995 11.0955L8.22581 4.32632C7.92473 4.02523 7.92473 3.52689 8.22581 3.22581C8.52689 2.92473 9.02523 2.92473 9.32632 3.22581L16.0955 9.99495C16.6249 10.5244 16.926 11.2408 16.926 11.9987C16.926 12.7566 16.6353 13.473 16.0955 14.0025L9.32632 20.7716C9.17058 20.9169 8.97332 21 8.77606 21Z" fill="#292D32"/>
</svg>
