<svg width="16" height="16" viewBox="0 0 16 16" fill="none" xmlns="http://www.w3.org/2000/svg">
<path d="M6.00004 11.8333C5.72671 11.8333 5.50004 11.6067 5.50004 11.3333V8.54L5.02004 9.02C4.82671 9.21334 4.50671 9.21334 4.31337 9.02C4.12004 8.82667 4.12004 8.50667 4.31337 8.31334L5.64671 6.98C5.78671 6.84 6.00671 6.79334 6.19337 6.87334C6.38004 6.94667 6.50004 7.13334 6.50004 7.33334V11.3333C6.50004 11.6067 6.27337 11.8333 6.00004 11.8333Z" fill="#576A7A"/>
<path d="M7.33337 9.16667C7.20671 9.16667 7.08004 9.12 6.98004 9.02L5.64671 7.68667C5.45337 7.49334 5.45337 7.17334 5.64671 6.98C5.84004 6.78667 6.16004 6.78667 6.35337 6.98L7.68671 8.31334C7.88004 8.50667 7.88004 8.82667 7.68671 9.02C7.58671 9.12 7.46004 9.16667 7.33337 9.16667Z" fill="#576A7A"/>
<path d="M10 15.1667H6.00004C2.38004 15.1667 0.833374 13.62 0.833374 10V6C0.833374 2.38 2.38004 0.833336 6.00004 0.833336H9.33337C9.60671 0.833336 9.83337 1.06 9.83337 1.33334C9.83337 1.60667 9.60671 1.83334 9.33337 1.83334H6.00004C2.92671 1.83334 1.83337 2.92667 1.83337 6V10C1.83337 13.0733 2.92671 14.1667 6.00004 14.1667H10C13.0734 14.1667 14.1667 13.0733 14.1667 10V6.66667C14.1667 6.39334 14.3934 6.16667 14.6667 6.16667C14.94 6.16667 15.1667 6.39334 15.1667 6.66667V10C15.1667 13.62 13.62 15.1667 10 15.1667Z" fill="#576A7A"/>
<path d="M14.6667 7.16667H12C9.72004 7.16667 8.83337 6.28 8.83337 4V1.33334C8.83337 1.13334 8.95337 0.946669 9.14004 0.873336C9.32671 0.793336 9.54004 0.840003 9.68671 0.980003L15.02 6.31334C15.16 6.45334 15.2067 6.67334 15.1267 6.86C15.0467 7.04667 14.8667 7.16667 14.6667 7.16667ZM9.83337 2.54V4C9.83337 5.72 10.28 6.16667 12 6.16667H13.46L9.83337 2.54Z" fill="#576A7A"/>
</svg>
