<svg width="16" height="16" viewBox="0 0 16 16" fill="none" xmlns="http://www.w3.org/2000/svg">
<path d="M3.33325 14.6668C2.22939 14.6668 1.33325 13.7707 1.33325 12.6668C1.33325 13.7696 2.23044 14.6668 3.33325 14.6668Z" fill="#232C34" stroke="#232C34"/>
<path d="M9.95313 8.70687H9.96028L9.96741 8.70667C10.0084 8.7055 10.0489 8.70243 10.0889 8.69754C10.0517 8.70234 10.0143 8.70555 9.97667 8.70713C9.60035 8.71616 9.23733 8.57679 8.98091 8.32088C8.98061 8.32059 8.98032 8.32029 8.98002 8.31999L8.43662 7.7708L8.97958 8.31376L9.33313 7.96021L8.97958 8.31376C9.25085 8.58503 9.60335 8.70687 9.95313 8.70687ZM10.9339 8.24098C10.8618 8.32454 10.7804 8.39818 10.692 8.46083C10.7805 8.39718 10.8615 8.32251 10.9332 8.23839C10.9334 8.23818 10.9336 8.23798 10.9338 8.23777L13.9903 4.66845L13.9912 4.66756L13.9915 4.66739C13.9917 4.66729 13.9922 4.66708 13.993 4.66701C13.993 4.66767 13.9929 4.66808 13.9929 4.66825L13.9926 4.66881C13.9925 4.66906 13.9921 4.66966 13.9914 4.6706C13.9913 4.67076 13.9911 4.67092 13.991 4.6711L10.9344 8.24041C10.9343 8.2406 10.9341 8.24079 10.9339 8.24098ZM6.39918 7.76264L3.35092 11.3223C3.34215 11.3303 3.33577 11.3327 3.33325 11.3334C3.33323 11.3327 3.33333 11.3323 3.33338 11.3322L3.33364 11.3316C3.33377 11.3313 3.33412 11.3307 3.33487 11.3298L6.39184 7.76001C6.39201 7.7598 6.39219 7.7596 6.39236 7.7594C6.63556 7.47762 6.98454 7.30861 7.3496 7.29329C7.37181 7.29275 7.39397 7.29274 7.41607 7.29323C7.39926 7.29309 7.38241 7.29326 7.36552 7.29375C6.98363 7.30466 6.63983 7.48042 6.39962 7.76213C6.39947 7.7623 6.39933 7.76247 6.39918 7.76264Z" fill="#232C34" stroke="#232C34"/>
</svg>
