<svg width="20" height="20" viewBox="0 0 20 20" fill="none" xmlns="http://www.w3.org/2000/svg">
<path fill-rule="evenodd" clip-rule="evenodd" d="M5.83317 1.45831C6.17835 1.45831 6.45817 1.73814 6.45817 2.08331V2.71891C7.00986 2.7083 7.61767 2.7083 8.28615 2.70831H11.7135C12.382 2.7083 12.9898 2.7083 13.5415 2.71891V2.08331C13.5415 1.73814 13.8213 1.45831 14.1665 1.45831C14.5117 1.45831 14.7915 1.73814 14.7915 2.08331V2.77255C15.0081 2.78907 15.2133 2.80983 15.4073 2.83592C16.3843 2.96728 17.1752 3.24405 17.7988 3.86768C18.4224 4.49132 18.6992 5.2821 18.8306 6.25913C18.8725 6.57137 18.9007 6.91214 18.9196 7.28337C18.9446 7.35086 18.9582 7.42382 18.9582 7.49998C18.9582 7.55775 18.9503 7.61368 18.9357 7.66678C18.9582 8.33506 18.9582 9.09398 18.9582 9.95298V11.7136C18.9582 13.2451 18.9582 14.4581 18.8306 15.4075C18.6992 16.3845 18.4224 17.1753 17.7988 17.799C17.1752 18.4226 16.3843 18.6993 15.4073 18.8307C14.458 18.9583 13.245 18.9583 11.7135 18.9583H8.28616C6.7547 18.9583 5.54166 18.9583 4.59232 18.8307C3.6153 18.6993 2.82451 18.4226 2.20087 17.799C1.57724 17.1753 1.30047 16.3845 1.16912 15.4075C1.04148 14.4581 1.04149 13.2451 1.0415 11.7136V9.95298C1.0415 9.0939 1.04149 8.33506 1.06401 7.66679C1.04935 7.61369 1.0415 7.55775 1.0415 7.49998C1.0415 7.42383 1.05512 7.35085 1.08006 7.28336C1.09896 6.91213 1.12714 6.57136 1.16912 6.25913C1.30047 5.28211 1.57724 4.49132 2.20087 3.86768C2.82451 3.24405 3.6153 2.96728 4.59232 2.83592C4.78642 2.80983 4.99155 2.78907 5.20817 2.77255V2.08331C5.20817 1.73814 5.488 1.45831 5.83317 1.45831ZM2.30241 8.12498C2.29177 8.6689 2.2915 9.28831 2.2915 9.99998V11.6666C2.2915 13.2556 2.29283 14.3846 2.40797 15.241C2.52069 16.0793 2.73208 16.5624 3.08475 16.9151C3.43743 17.2677 3.92047 17.4791 4.75888 17.5918C5.61526 17.707 6.74415 17.7083 8.33317 17.7083H11.6665C13.2555 17.7083 14.3844 17.707 15.2408 17.5918C16.0792 17.4791 16.5623 17.2677 16.9149 16.9151C17.2676 16.5624 17.479 16.0793 17.5917 15.241C17.7068 14.3846 17.7082 13.2556 17.7082 11.6666V9.99998C17.7082 9.28831 17.7079 8.6689 17.6973 8.12498H2.30241ZM17.6401 6.87498H2.35957C2.37292 6.71715 2.38888 6.56767 2.40797 6.42569C2.52069 5.58728 2.73208 5.10424 3.08475 4.75156C3.43743 4.39889 3.92047 4.1875 4.75888 4.07478C5.61526 3.95964 6.74415 3.95831 8.33317 3.95831H11.6665C13.2555 3.95831 14.3844 3.95964 15.2408 4.07478C16.0792 4.1875 16.5623 4.39889 16.9149 4.75156C17.2676 5.10424 17.479 5.58728 17.5917 6.42569C17.6108 6.56767 17.6268 6.71715 17.6401 6.87498Z" fill="#0696D6"/>
<path fill-rule="evenodd" clip-rule="evenodd" d="M8.9437 13.2981C9.74102 12.5545 10.5094 11.8381 11.2776 11.1215C11.6042 10.8167 11.9264 10.5072 12.2577 10.2071C12.5698 9.92412 13.0212 9.93384 13.3056 10.2197C13.5744 10.4899 13.5659 10.9415 13.2699 11.2214C12.104 12.323 10.9336 13.4198 9.76503 14.5186C9.67339 14.6049 9.58567 14.695 9.49256 14.7797C9.18383 15.0608 8.75945 15.08 8.45757 14.7961C7.87539 14.2486 7.3057 13.6883 6.73724 13.1276C6.52285 12.916 6.44861 12.6527 6.53535 12.3657C6.68506 11.8709 7.33021 11.7212 7.72813 12.0924C8.07312 12.4143 8.40415 12.7504 8.74008 13.0813C8.80673 13.1468 8.86824 13.2175 8.9437 13.2981Z" fill="#0696D6"/>
</svg>
