<svg width="16" height="16" viewBox="0 0 16 16" fill="none" xmlns="http://www.w3.org/2000/svg">
<path d="M10 15.1668H6.00004C2.38004 15.1668 0.833374 13.6202 0.833374 10.0002V6.00016C0.833374 2.38016 2.38004 0.833496 6.00004 0.833496H10C13.62 0.833496 15.1667 2.38016 15.1667 6.00016V10.0002C15.1667 13.6202 13.62 15.1668 10 15.1668ZM6.00004 1.8335C2.92671 1.8335 1.83337 2.92683 1.83337 6.00016V10.0002C1.83337 13.0735 2.92671 14.1668 6.00004 14.1668H10C13.0734 14.1668 14.1667 13.0735 14.1667 10.0002V6.00016C14.1667 2.92683 13.0734 1.8335 10 1.8335H6.00004Z" fill="#576A7A"/>
<path d="M7.99998 9.94005C7.87332 9.94005 7.74665 9.89338 7.64665 9.79338L5.29332 7.44005C5.09998 7.24671 5.09998 6.92671 5.29332 6.73338C5.48665 6.54005 5.80665 6.54005 5.99998 6.73338L7.99998 8.73338L9.99998 6.73338C10.1933 6.54005 10.5133 6.54005 10.7066 6.73338C10.9 6.92671 10.9 7.24671 10.7066 7.44005L8.35332 9.79338C8.25332 9.89338 8.12665 9.94005 7.99998 9.94005Z" fill="#576A7A"/>
</svg>
