<svg width="24" height="24" viewBox="0 0 24 24" fill="none" xmlns="http://www.w3.org/2000/svg">
<path fill-rule="evenodd" clip-rule="evenodd" d="M6.99994 1.75C7.41415 1.75 7.74994 2.08579 7.74994 2.5V3.26272C8.41197 3.24999 9.14134 3.24999 9.94352 3.25H14.0563C14.8585 3.24999 15.5879 3.24999 16.2499 3.26272V2.5C16.2499 2.08579 16.5857 1.75 16.9999 1.75C17.4141 1.75 17.7499 2.08579 17.7499 2.5V3.32709C18.0098 3.34691 18.256 3.37182 18.4889 3.40313C19.6613 3.56076 20.6103 3.89288 21.3587 4.64124C22.107 5.38961 22.4391 6.33855 22.5968 7.51098C22.6471 7.88567 22.6809 8.29459 22.7036 8.74007C22.7336 8.82106 22.7499 8.90861 22.7499 9C22.7499 9.06932 22.7405 9.13644 22.7229 9.20016C22.7499 10.0021 22.7499 10.9128 22.7499 11.9436V14.0564C22.7499 15.8942 22.7499 17.3498 22.5968 18.489C22.4391 19.6614 22.107 20.6104 21.3587 21.3588C20.6103 22.1071 19.6613 22.4392 18.4889 22.5969C17.3497 22.75 15.8941 22.75 14.0563 22.75H9.94353C8.10577 22.75 6.65013 22.75 5.51092 22.5969C4.3385 22.4392 3.38955 22.1071 2.64118 21.3588C1.89282 20.6104 1.5607 19.6614 1.40308 18.489C1.24991 17.3498 1.24992 15.8942 1.24994 14.0564V11.9436C1.24993 10.9127 1.24992 10.0021 1.27695 9.20017C1.25935 9.13645 1.24994 9.06932 1.24994 9C1.24994 8.90862 1.26628 8.82105 1.29621 8.74006C1.31889 8.29458 1.3527 7.88566 1.40308 7.51098C1.5607 6.33856 1.89282 5.38961 2.64118 4.64124C3.38955 3.89288 4.3385 3.56076 5.51092 3.40313C5.74384 3.37182 5.99 3.34691 6.24994 3.32709V2.5C6.24994 2.08579 6.58573 1.75 6.99994 1.75ZM2.76303 9.75C2.75026 10.4027 2.74994 11.146 2.74994 12V14C2.74994 15.9068 2.75153 17.2615 2.8897 18.2892C3.02496 19.2952 3.27863 19.8749 3.70184 20.2981C4.12505 20.7213 4.7047 20.975 5.71079 21.1102C6.73845 21.2484 8.09312 21.25 9.99994 21.25H13.9999C15.9067 21.25 17.2614 21.2484 18.2891 21.1102C19.2951 20.975 19.8748 20.7213 20.298 20.2981C20.7212 19.8749 20.9749 19.2952 21.1101 18.2892C21.2483 17.2615 21.2499 15.9068 21.2499 14V12C21.2499 11.146 21.2496 10.4027 21.2368 9.75H2.76303ZM21.1682 8.25H2.83162C2.84764 8.06061 2.86679 7.88123 2.8897 7.71085C3.02496 6.70476 3.27863 6.12511 3.70184 5.7019C4.12505 5.27869 4.7047 5.02502 5.71079 4.88976C6.73845 4.75159 8.09312 4.75 9.99994 4.75H13.9999C15.9067 4.75 17.2614 4.75159 18.2891 4.88976C19.2951 5.02502 19.8748 5.27869 20.298 5.7019C20.7212 6.12511 20.9749 6.70476 21.1101 7.71085C21.133 7.88123 21.1522 8.06061 21.1682 8.25Z" fill="#232C34"/>
<path fill-rule="evenodd" clip-rule="evenodd" d="M14.25 16.5C14.25 15.2574 15.2574 14.25 16.5 14.25C17.7426 14.25 18.75 15.2574 18.75 16.5C18.75 17.7426 17.7426 18.75 16.5 18.75C15.2574 18.75 14.25 17.7426 14.25 16.5ZM16.5 15.75C16.0858 15.75 15.75 16.0858 15.75 16.5C15.75 16.9142 16.0858 17.25 16.5 17.25C16.9142 17.25 17.25 16.9142 17.25 16.5C17.25 16.0858 16.9142 15.75 16.5 15.75Z" fill="#232C34"/>
</svg>
