<svg width="24" height="24" viewBox="0 0 24 24" fill="none" xmlns="http://www.w3.org/2000/svg">
<path d="M17.9511 19.6514L4.34857 6.04888C3.88381 5.58413 3.88381 4.81332 4.34857 4.34857C4.81332 3.88381 5.58413 3.88381 6.04888 4.34857L19.6514 17.9511C20.1162 18.4159 20.1162 19.1867 19.6514 19.6514C19.1867 20.1162 18.4159 20.1162 17.9511 19.6514Z" fill="#292D32"/>
<path d="M4.34857 19.6514C3.88381 19.1867 3.88381 18.4159 4.34857 17.9511L17.9511 4.34857C18.4159 3.88381 19.1867 3.88381 19.6514 4.34857C20.1162 4.81332 20.1162 5.58413 19.6514 6.04888L6.04888 19.6514C5.58413 20.1162 4.81332 20.1162 4.34857 19.6514Z" fill="#292D32"/>
</svg>
