<svg width="16" height="16" viewBox="0 0 16 16" fill="none" xmlns="http://www.w3.org/2000/svg">
<path d="M10 15.1667H6.00004C2.38004 15.1667 0.833374 13.62 0.833374 10V6C0.833374 2.38 2.38004 0.833333 6.00004 0.833333H9.33337C9.60671 0.833333 9.83337 1.06 9.83337 1.33333C9.83337 1.60667 9.60671 1.83333 9.33337 1.83333H6.00004C2.92671 1.83333 1.83337 2.92667 1.83337 6V10C1.83337 13.0733 2.92671 14.1667 6.00004 14.1667H10C13.0734 14.1667 14.1667 13.0733 14.1667 10V6.66667C14.1667 6.39333 14.3934 6.16667 14.6667 6.16667C14.94 6.16667 15.1667 6.39333 15.1667 6.66667V10C15.1667 13.62 13.62 15.1667 10 15.1667Z" fill="#576A7A"/>
<path d="M14.6667 7.16667H12C9.72004 7.16667 8.83337 6.28 8.83337 4V1.33333C8.83337 1.13333 8.95337 0.946667 9.14004 0.873333C9.32671 0.793333 9.54004 0.84 9.68671 0.98L15.02 6.31333C15.16 6.45333 15.2067 6.67333 15.1267 6.86C15.0467 7.04667 14.8667 7.16667 14.6667 7.16667ZM9.83337 2.54V4C9.83337 5.72 10.28 6.16667 12 6.16667H13.46L9.83337 2.54Z" fill="#576A7A"/>
<path d="M8.66663 9.16667H4.66663C4.39329 9.16667 4.16663 8.94 4.16663 8.66667C4.16663 8.39333 4.39329 8.16667 4.66663 8.16667H8.66663C8.93996 8.16667 9.16663 8.39333 9.16663 8.66667C9.16663 8.94 8.93996 9.16667 8.66663 9.16667Z" fill="#576A7A"/>
<path d="M7.33329 11.8333H4.66663C4.39329 11.8333 4.16663 11.6067 4.16663 11.3333C4.16663 11.06 4.39329 10.8333 4.66663 10.8333H7.33329C7.60663 10.8333 7.83329 11.06 7.83329 11.3333C7.83329 11.6067 7.60663 11.8333 7.33329 11.8333Z" fill="#576A7A"/>
</svg>
