<svg width="16" height="16" viewBox="0 0 16 16" fill="none" xmlns="http://www.w3.org/2000/svg">
<path d="M13.832 6.76198C13.832 8.33798 13.382 10.032 12.588 11.494C11.796 12.954 10.636 14.224 9.18602 14.902L13.832 6.76198ZM13.832 6.76198C13.834 3.49598 11.23 0.833984 8.00002 0.833984C4.77002 0.833984 2.16602 3.49598 2.16602 6.76198C2.16602 8.33798 2.61602 10.032 3.41002 11.494C4.20402 12.954 5.36202 14.224 6.81202 14.902L13.832 6.76198ZM7.99934 1.33398C7.9989 1.33398 7.99846 1.33398 7.99802 1.33398C7.99846 1.33398 7.9989 1.33398 7.99934 1.33398ZM7.99934 1.33398C10.9447 1.33471 13.3318 3.76414 13.332 6.76163L13.332 6.76127C13.3336 3.76344 10.9454 1.33398 8.00002 1.33398C7.99979 1.33398 7.99956 1.33398 7.99934 1.33398Z" fill="#576A7A" stroke="#576A7A"/>
<path d="M8.42812 6.18205V5.32405C8.42812 5.11605 8.25812 4.94604 8.05012 4.94604C7.84212 4.94604 7.67212 5.11605 7.67212 5.32405V6.34205C7.67212 6.44405 7.71412 6.54405 7.78812 6.61405L8.45012 7.25005C8.52212 7.31805 8.61412 7.35604 8.71212 7.35604C8.71412 7.35604 8.71812 7.35604 8.72012 7.35604C8.82212 7.35404 8.91612 7.31205 8.98612 7.24005C9.05612 7.16805 9.09412 7.07205 9.09212 6.97005C9.09012 6.86804 9.04812 6.77405 8.97612 6.70405L8.42812 6.18205Z" fill="#1C274C"/>
<path d="M10.154 4.24004C9.59198 3.67804 8.84398 3.36804 8.04997 3.36804C7.25597 3.36804 6.50797 3.67804 5.94597 4.24004C5.38397 4.80204 5.07397 5.55004 5.07397 6.34404C5.07397 7.13804 5.38397 7.88604 5.94597 8.44804C6.50797 9.01004 7.25597 9.32004 8.04997 9.32004C8.84398 9.32004 9.59198 9.01004 10.154 8.44804C10.716 7.88604 11.026 7.13804 11.026 6.34404C11.026 5.55004 10.716 4.80204 10.154 4.24004ZM8.04997 8.45804C6.88397 8.45804 5.93397 7.51004 5.93397 6.34204C5.93397 5.17404 6.88197 4.22604 8.04997 4.22604C9.21798 4.22604 10.166 5.17404 10.166 6.34204C10.166 7.51004 9.21597 8.45804 8.04997 8.45804Z" fill="#1C274C"/>
</svg>
