<svg width="16" height="16" viewBox="0 0 16 16" fill="none" xmlns="http://www.w3.org/2000/svg">
<g id="ic-outline-export">
<g id="vuesax/outline/export">
<g id="export">
<path id="Vector" d="M1.65332 10.1599L1.65332 10.1665C1.65332 10.1643 1.65332 10.1621 1.65332 10.1599ZM13.2871 13.4637C13.3191 13.4347 13.3504 13.4049 13.381 13.3742C13.4795 13.2757 13.5691 13.1704 13.6504 13.0586C13.5685 13.1724 13.4797 13.2766 13.3843 13.3717C13.3529 13.4031 13.3205 13.4337 13.2871 13.4637ZM14.3467 10.1732C14.3467 10.2212 14.3463 10.2686 14.3457 10.3155C14.3463 10.2678 14.3466 10.2197 14.3467 10.1713V10.1732ZM1.65332 10.0732C1.65332 10.0364 1.65351 10 1.65388 9.96386C1.65351 10.0023 1.65332 10.0409 1.65332 10.0799L1.65332 10.0732ZM3.1902 6.43676C3.03838 6.52285 2.89659 6.62125 2.76532 6.73327C2.89304 6.62405 3.03427 6.52512 3.1902 6.43676ZM3.38266 6.33666C3.80808 6.13392 4.33095 5.9998 4.97046 5.93858C4.97078 5.93865 4.97122 5.93877 4.97178 5.93895C4.97367 5.93957 4.97597 5.94066 4.97825 5.9422C4.37423 5.99817 3.83857 6.11959 3.38266 6.33666Z" fill="#292D32" stroke="#0696D6"/>
<g id="Vector_2">
<mask id="path-2-inside-1_1163_15404" fill="white">
<path d="M8 10.5002C7.72667 10.5002 7.5 10.2736 7.5 10.0002V2.41357C7.5 2.14024 7.72667 1.91357 8 1.91357C8.27333 1.91357 8.5 2.14024 8.5 2.41357V10.0002C8.5 10.2736 8.27333 10.5002 8 10.5002Z"/>
</mask>
<path d="M8 10.5002C7.72667 10.5002 7.5 10.2736 7.5 10.0002V2.41357C7.5 2.14024 7.72667 1.91357 8 1.91357C8.27333 1.91357 8.5 2.14024 8.5 2.41357V10.0002C8.5 10.2736 8.27333 10.5002 8 10.5002Z" fill="#292D32"/>
<path d="M8 9.50024C8.27895 9.50024 8.5 9.72129 8.5 10.0002H6.5C6.5 10.8259 7.17438 11.5002 8 11.5002V9.50024ZM8.5 10.0002V2.41357H6.5V10.0002H8.5ZM8.5 2.41357C8.5 2.69253 8.27895 2.91357 8 2.91357V0.913574C7.17438 0.913574 6.5 1.58796 6.5 2.41357H8.5ZM8 2.91357C7.72105 2.91357 7.5 2.69253 7.5 2.41357H9.5C9.5 1.58796 8.82562 0.913574 8 0.913574V2.91357ZM7.5 2.41357V10.0002H9.5V2.41357H7.5ZM7.5 10.0002C7.5 9.72129 7.72105 9.50024 8 9.50024V11.5002C8.82562 11.5002 9.5 10.8259 9.5 10.0002H7.5Z" fill="#0696D6" mask="url(#path-2-inside-1_1163_15404)"/>
</g>
<g id="Vector_3">
<mask id="path-4-inside-2_1163_15404" fill="white">
<path d="M10.2333 4.40012C10.1066 4.40012 9.97998 4.35346 9.87998 4.25346L7.99998 2.37346L6.11998 4.25346C5.92664 4.44679 5.60664 4.44679 5.41331 4.25346C5.21998 4.06012 5.21998 3.74012 5.41331 3.54679L7.64664 1.31346C7.83998 1.12012 8.15998 1.12012 8.35331 1.31346L10.5866 3.54679C10.78 3.74012 10.78 4.06012 10.5866 4.25346C10.4933 4.35346 10.36 4.40012 10.2333 4.40012Z"/>
</mask>
<path d="M10.2333 4.40012C10.1066 4.40012 9.97998 4.35346 9.87998 4.25346L7.99998 2.37346L6.11998 4.25346C5.92664 4.44679 5.60664 4.44679 5.41331 4.25346C5.21998 4.06012 5.21998 3.74012 5.41331 3.54679L7.64664 1.31346C7.83998 1.12012 8.15998 1.12012 8.35331 1.31346L10.5866 3.54679C10.78 3.74012 10.78 4.06012 10.5866 4.25346C10.4933 4.35346 10.36 4.40012 10.2333 4.40012Z" fill="#292D32"/>
<path d="M9.87998 4.25346L9.17287 4.96056L9.87998 4.25346ZM7.99998 2.37346L8.70708 1.66635L7.99998 0.959243L7.29287 1.66635L7.99998 2.37346ZM6.11998 4.25346L6.82708 4.96056H6.82708L6.11998 4.25346ZM5.41331 3.54679L4.7062 2.83968H4.7062L5.41331 3.54679ZM7.64664 1.31346L8.35375 2.02056V2.02056L7.64664 1.31346ZM8.35331 1.31346L7.6462 2.02056V2.02056L8.35331 1.31346ZM10.5866 3.54679L11.2938 2.83968L10.5866 3.54679ZM10.5866 4.25346L9.87954 3.54635L9.86735 3.55854L9.85559 3.57114L10.5866 4.25346ZM10.2333 3.40012C10.3575 3.40012 10.4897 3.44893 10.5871 3.54635L9.17287 4.96056C9.47029 5.25798 9.85574 5.40012 10.2333 5.40012V3.40012ZM10.5871 3.54635L8.70708 1.66635L7.29287 3.08056L9.17287 4.96056L10.5871 3.54635ZM7.29287 1.66635L5.41287 3.54635L6.82708 4.96056L8.70708 3.08056L7.29287 1.66635ZM5.41287 3.54635C5.61006 3.34916 5.92323 3.34916 6.12042 3.54635L4.7062 4.96056C5.29006 5.54442 6.24323 5.54442 6.82708 4.96056L5.41287 3.54635ZM6.12042 3.54635C6.31761 3.74354 6.31761 4.05671 6.12042 4.2539L4.7062 2.83968C4.12235 3.42354 4.12235 4.37671 4.7062 4.96056L6.12042 3.54635ZM6.12042 4.2539L8.35375 2.02056L6.93954 0.60635L4.7062 2.83968L6.12042 4.2539ZM8.35375 2.02056C8.15656 2.21775 7.84339 2.21775 7.6462 2.02056L9.06042 0.60635C8.47656 0.0224926 7.52339 0.0224926 6.93954 0.60635L8.35375 2.02056ZM7.6462 2.02056L9.87954 4.2539L11.2938 2.83968L9.06042 0.60635L7.6462 2.02056ZM9.87954 4.2539C9.68235 4.05671 9.68235 3.74354 9.87954 3.54635L11.2938 4.96056C11.8776 4.37671 11.8776 3.42354 11.2938 2.83968L9.87954 4.2539ZM9.85559 3.57114C9.98176 3.43596 10.1307 3.40012 10.2333 3.40012V5.40012C10.5893 5.40012 11.0049 5.27096 11.3177 4.93578L9.85559 3.57114Z" fill="#0696D6" mask="url(#path-4-inside-2_1163_15404)"/>
</g>
</g>
</g>
</g>
</svg>
