<svg width="16" height="16" viewBox="0 0 16 16" fill="none" xmlns="http://www.w3.org/2000/svg">
<path d="M6.0063 14.1667C5.87964 14.1667 5.75297 14.12 5.65297 14.02L2.31297 10.68C2.11964 10.4867 2.11964 10.1667 2.31297 9.97337C2.5063 9.78004 2.8263 9.78004 3.01964 9.97337L6.35964 13.3134C6.55297 13.5067 6.55297 13.8267 6.35964 14.02C6.25964 14.1134 6.13297 14.1667 6.0063 14.1667Z" fill="#292D32"/>
<path d="M6.00781 14.1667C5.73448 14.1667 5.50781 13.94 5.50781 13.6667V2.33337C5.50781 2.06004 5.73448 1.83337 6.00781 1.83337C6.28115 1.83337 6.50781 2.06004 6.50781 2.33337V13.6667C6.50781 13.94 6.28115 14.1667 6.00781 14.1667Z" fill="#292D32"/>
<path d="M13.3383 6.17329C13.2117 6.17329 13.085 6.12663 12.985 6.02663L9.645 2.68663C9.45167 2.49329 9.45167 2.17329 9.645 1.97996C9.83833 1.78663 10.1583 1.78663 10.3517 1.97996L13.6917 5.31996C13.885 5.51329 13.885 5.83329 13.6917 6.02663C13.5917 6.12663 13.465 6.17329 13.3383 6.17329Z" fill="#292D32"/>
<path d="M9.99219 14.1667C9.71885 14.1667 9.49219 13.94 9.49219 13.6667V2.33337C9.49219 2.06004 9.71885 1.83337 9.99219 1.83337C10.2655 1.83337 10.4922 2.06004 10.4922 2.33337V13.6667C10.4922 13.94 10.2722 14.1667 9.99219 14.1667Z" fill="#292D32"/>
</svg>
