<svg width="16" height="16" viewBox="0 0 16 16" fill="none" xmlns="http://www.w3.org/2000/svg">
<path d="M13.832 6.76198C13.832 8.33798 13.382 10.032 12.588 11.494C11.796 12.954 10.636 14.224 9.18602 14.902L13.832 6.76198ZM13.832 6.76198C13.834 3.49598 11.23 0.833984 8.00002 0.833984C4.77002 0.833984 2.16602 3.49598 2.16602 6.76198C2.16602 8.33798 2.61602 10.032 3.41002 11.494C4.20402 12.954 5.36202 14.224 6.81202 14.902L13.832 6.76198ZM7.99934 1.33398C7.9989 1.33398 7.99846 1.33398 7.99802 1.33398C7.99846 1.33398 7.9989 1.33398 7.99934 1.33398ZM7.99934 1.33398C10.9447 1.33471 13.3318 3.76414 13.332 6.76163L13.332 6.76127C13.3336 3.76344 10.9454 1.33398 8.00002 1.33398C7.99979 1.33398 7.99956 1.33398 7.99934 1.33398Z" fill="#576A7A" />
</svg>
