<svg width="16" height="16" viewBox="0 0 16 16" fill="none" xmlns="http://www.w3.org/2000/svg">
<mask id="path-1-inside-1_1263_16109" fill="white">
<path d="M14 5.1665H2C1.72667 5.1665 1.5 4.93984 1.5 4.6665C1.5 4.39317 1.72667 4.1665 2 4.1665H14C14.2733 4.1665 14.5 4.39317 14.5 4.6665C14.5 4.93984 14.2733 5.1665 14 5.1665Z"/>
<path d="M14 8.49984H2C1.72667 8.49984 1.5 8.27317 1.5 7.99984C1.5 7.7265 1.72667 7.49984 2 7.49984H14C14.2733 7.49984 14.5 7.7265 14.5 7.99984C14.5 8.27317 14.2733 8.49984 14 8.49984Z"/>
<path d="M14 11.8332H2C1.72667 11.8332 1.5 11.6065 1.5 11.3332C1.5 11.0598 1.72667 10.8332 2 10.8332H14C14.2733 10.8332 14.5 11.0598 14.5 11.3332C14.5 11.6065 14.2733 11.8332 14 11.8332Z"/>
</mask>
<path d="M14 5.1665H2C1.72667 5.1665 1.5 4.93984 1.5 4.6665C1.5 4.39317 1.72667 4.1665 2 4.1665H14C14.2733 4.1665 14.5 4.39317 14.5 4.6665C14.5 4.93984 14.2733 5.1665 14 5.1665Z" fill="#292D32"/>
<path d="M14 8.49984H2C1.72667 8.49984 1.5 8.27317 1.5 7.99984C1.5 7.7265 1.72667 7.49984 2 7.49984H14C14.2733 7.49984 14.5 7.7265 14.5 7.99984C14.5 8.27317 14.2733 8.49984 14 8.49984Z" fill="#292D32"/>
<path d="M14 11.8332H2C1.72667 11.8332 1.5 11.6065 1.5 11.3332C1.5 11.0598 1.72667 10.8332 2 10.8332H14C14.2733 10.8332 14.5 11.0598 14.5 11.3332C14.5 11.6065 14.2733 11.8332 14 11.8332Z" fill="#292D32"/>
<path d="M14 4.1665H2V6.1665H14V4.1665ZM2 4.1665C2.27895 4.1665 2.5 4.38755 2.5 4.6665H0.5C0.5 5.49212 1.17438 6.1665 2 6.1665V4.1665ZM2.5 4.6665C2.5 4.94546 2.27895 5.1665 2 5.1665V3.1665C1.17438 3.1665 0.5 3.84089 0.5 4.6665H2.5ZM2 5.1665H14V3.1665H2V5.1665ZM14 5.1665C13.721 5.1665 13.5 4.94546 13.5 4.6665H15.5C15.5 3.84089 14.8256 3.1665 14 3.1665V5.1665ZM13.5 4.6665C13.5 4.38755 13.721 4.1665 14 4.1665V6.1665C14.8256 6.1665 15.5 5.49212 15.5 4.6665H13.5ZM14 7.49984H2V9.49984H14V7.49984ZM2 7.49984C2.27895 7.49984 2.5 7.72089 2.5 7.99984H0.5C0.5 8.82546 1.17438 9.49984 2 9.49984V7.49984ZM2.5 7.99984C2.5 8.27879 2.27895 8.49984 2 8.49984V6.49984C1.17438 6.49984 0.5 7.17422 0.5 7.99984H2.5ZM2 8.49984H14V6.49984H2V8.49984ZM14 8.49984C13.721 8.49984 13.5 8.27879 13.5 7.99984H15.5C15.5 7.17422 14.8256 6.49984 14 6.49984V8.49984ZM13.5 7.99984C13.5 7.72089 13.721 7.49984 14 7.49984V9.49984C14.8256 9.49984 15.5 8.82546 15.5 7.99984H13.5ZM14 10.8332H2V12.8332H14V10.8332ZM2 10.8332C2.27895 10.8332 2.5 11.0542 2.5 11.3332H0.5C0.5 12.1588 1.17438 12.8332 2 12.8332V10.8332ZM2.5 11.3332C2.5 11.6121 2.27895 11.8332 2 11.8332V9.83317C1.17438 9.83317 0.5 10.5076 0.5 11.3332H2.5ZM2 11.8332H14V9.83317H2V11.8332ZM14 11.8332C13.721 11.8332 13.5 11.6121 13.5 11.3332H15.5C15.5 10.5076 14.8256 9.83317 14 9.83317V11.8332ZM13.5 11.3332C13.5 11.0542 13.721 10.8332 14 10.8332V12.8332C14.8256 12.8332 15.5 12.1588 15.5 11.3332H13.5Z" fill="#576A7A" mask="url(#path-1-inside-1_1263_16109)"/>
</svg>
