<svg width="16" height="16" viewBox="0 0 16 16" fill="none" xmlns="http://www.w3.org/2000/svg">
<g clip-path="url(#clip0_947_186056)">
<path fill-rule="evenodd" clip-rule="evenodd" d="M5.49992 6.00016C5.49992 4.61945 6.6192 3.50016 7.99992 3.50016C9.38065 3.50016 10.4999 4.61945 10.4999 6.00016C10.4999 7.3809 9.38065 8.50016 7.99992 8.50016C6.6192 8.50016 5.49992 7.3809 5.49992 6.00016ZM7.99992 4.50016C7.17152 4.50016 6.49992 5.17174 6.49992 6.00016C6.49992 6.82856 7.17152 7.50016 7.99992 7.50016C8.82832 7.50016 9.49992 6.82856 9.49992 6.00016C9.49992 5.17174 8.82832 4.50016 7.99992 4.50016Z" fill="#8CA7C1"/>
<path fill-rule="evenodd" clip-rule="evenodd" d="M0.833252 8.00016C0.833252 4.04212 4.04188 0.833496 7.99992 0.833496C11.958 0.833496 15.1666 4.04212 15.1666 8.00016C15.1666 11.9582 11.958 15.1668 7.99992 15.1668C4.04188 15.1668 0.833252 11.9582 0.833252 8.00016ZM7.99992 1.8335C4.59416 1.8335 1.83325 4.59441 1.83325 8.00016C1.83325 9.69723 2.51877 11.2342 3.62799 12.3492C3.74825 11.7004 3.98455 11.0888 4.45883 10.5969C5.16826 9.86116 6.30269 9.50016 7.99992 9.50016C9.69705 9.50016 10.8315 9.86116 11.5409 10.5969C12.0153 11.0888 12.2515 11.7005 12.3718 12.3492C13.4811 11.2342 14.1666 9.69723 14.1666 8.00016C14.1666 4.59441 11.4057 1.8335 7.99992 1.8335ZM11.4624 13.1038C11.3945 12.2958 11.219 11.7037 10.8211 11.291C10.3881 10.842 9.58585 10.5002 7.99992 10.5002C6.41391 10.5002 5.61166 10.842 5.17868 11.291C4.78077 11.7037 4.60533 12.2958 4.5374 13.1037C5.52448 13.7747 6.71639 14.1668 7.99992 14.1668C9.28338 14.1668 10.4753 13.7747 11.4624 13.1038Z" fill="#8CA7C1"/>
</g>
<defs>
<clipPath id="clip0_947_186056">
<rect width="16" height="16" fill="white"/>
</clipPath>
</defs>
</svg>
