<svg width="20" height="20" viewBox="0 0 20 20" fill="none" xmlns="http://www.w3.org/2000/svg">
<path d="M9.58335 17.625C5.15116 17.625 1.54169 14.0155 1.54169 9.58332C1.54169 5.15113 5.15116 1.54166 9.58335 1.54166C14.0155 1.54166 17.625 5.15113 17.625 9.58332C17.625 14.0155 14.0155 17.625 9.58335 17.625ZM9.58335 1.79166C5.28184 1.79166 1.79169 5.29089 1.79169 9.58332C1.79169 13.8758 5.28184 17.375 9.58335 17.375C13.8849 17.375 17.375 13.8758 17.375 9.58332C17.375 5.29089 13.8849 1.79166 9.58335 1.79166Z" fill="#292D32" stroke="#A0B6CC"/>
<path d="M18.3333 18.4583C18.3157 18.4583 18.3001 18.4551 18.2868 18.4497C18.274 18.4446 18.2599 18.4361 18.2452 18.4214L16.5786 16.7548C16.557 16.7333 16.5438 16.7025 16.5438 16.6667C16.5438 16.6308 16.557 16.6001 16.5786 16.5786C16.6001 16.557 16.6308 16.5437 16.6667 16.5437C16.7025 16.5437 16.7333 16.557 16.7548 16.5786L18.4215 18.2452C18.443 18.2667 18.4563 18.2975 18.4563 18.3333C18.4563 18.3692 18.443 18.3999 18.4215 18.4214C18.4068 18.4361 18.3927 18.4446 18.3799 18.4497C18.3666 18.4551 18.351 18.4583 18.3333 18.4583Z" fill="#292D32" stroke="#A0B6CC"/>
</svg>
