<svg width="22" height="22" viewBox="0 0 22 22" fill="none" xmlns="http://www.w3.org/2000/svg">
<path d="M7.67762 11.4529C8.0838 12.2885 8.6943 12.9944 9.5032 13.395C8.71022 13.5776 7.79298 13.6153 6.8552 13.4824C4.06415 13.087 1.5 11.2842 1.5 8C1.5 7.58579 1.16421 7.25 0.75 7.25C0.33579 7.25 0 7.58579 0 8C0 12.3158 3.43585 14.513 6.6448 14.9676C8.25716 15.196 9.9145 15.0102 11.2029 14.3839C12.0711 13.9619 12.7993 13.3192 13.1905 12.4626C13.333 13.2041 13.3534 14.041 13.2324 14.8948C12.837 17.6858 11.0342 20.25 7.75 20.25C7.33579 20.25 7 20.5858 7 21C7 21.4142 7.33579 21.75 7.75 21.75C12.0658 21.75 14.263 18.3142 14.7176 15.1052C14.946 13.4928 14.7602 11.8355 14.1339 10.5471C13.7877 9.835 13.2932 9.2171 12.6539 8.80205C13.2791 8.72593 13.9564 8.73159 14.6448 8.82911C17.4358 9.2245 20 11.0274 20 14.3115C20 14.7257 20.3358 15.0615 20.75 15.0615C21.1642 15.0615 21.5 14.7257 21.5 14.3115C21.5 9.9957 18.0641 7.79854 14.8552 7.34394C13.2428 7.11552 11.5855 7.30132 10.2971 7.92762C9.6055 8.26381 9.0027 8.73999 8.58837 9.3528C8.47613 8.6583 8.46808 7.88892 8.57911 7.1052C8.9745 4.31415 10.7774 1.75 14.0615 1.75C14.4757 1.75 14.8115 1.41421 14.8115 1C14.8115 0.58579 14.4757 0.25 14.0615 0.25C9.7457 0.25 7.54854 3.68585 7.09394 6.8948C6.86552 8.50716 7.05132 10.1645 7.67762 11.4529Z" fill="#0696D6"/>
</svg>
