<svg width="17" height="17" viewBox="0 0 17 17" fill="none" xmlns="http://www.w3.org/2000/svg">
<path fill-rule="evenodd" clip-rule="evenodd" d="M0.8693 5.4628C0.938423 5.27274 0.984865 5.07046 1.08185 4.89513C1.27799 4.54046 1.59509 4.32366 2.00054 4.23842C2.09493 4.21863 2.1943 4.21484 2.29128 4.21463C3.80226 4.21337 5.31324 4.214 6.82422 4.21295C6.91732 4.21295 6.99876 4.22979 7.03267 4.32472C7.06421 4.41291 7.08516 4.51499 7.00222 4.57814C6.94152 4.62466 6.85036 4.65476 6.7726 4.65518C5.85737 4.66023 4.94214 4.65854 4.02691 4.65854C3.43505 4.65854 2.84319 4.64949 2.25154 4.66191C1.90333 4.66928 1.64412 4.85135 1.46764 5.13908C1.36763 5.30199 1.34495 5.48511 1.34495 5.67392C1.34646 8.27655 1.34495 10.879 1.34711 13.4816C1.34733 13.9091 1.6249 14.292 2.07376 14.3945C2.18285 14.4195 2.29733 14.4322 2.40923 14.4322C6.43325 14.4341 10.4575 14.4345 14.4815 14.4324C14.8111 14.4324 15.1114 14.349 15.3287 14.0811C15.4659 13.9121 15.5428 13.7197 15.543 13.5064C15.5451 10.8577 15.5451 8.20899 15.5432 5.56026C15.543 5.19044 15.2786 4.83493 14.9189 4.72653C14.7947 4.68906 14.6614 4.6617 14.5323 4.66128C13.0293 4.65686 11.5261 4.65854 10.0229 4.65833C9.86606 4.65833 9.78289 4.60761 9.7412 4.48826C9.69433 4.35461 9.78246 4.22326 9.92611 4.214C9.95354 4.21211 9.98119 4.21358 10.0088 4.21358C11.571 4.21358 13.1334 4.20958 14.6958 4.21632C15.1062 4.218 15.4285 4.41943 15.6909 4.71643C15.8806 4.93133 15.9616 5.19254 16.0208 5.46259V13.6062C15.9983 13.6925 15.9772 13.7792 15.9527 13.8649C15.8512 14.2198 15.6497 14.5046 15.3121 14.6786C15.1546 14.7599 14.9803 14.8104 14.8135 14.875H2.07614C2.01155 14.8535 1.94783 14.8296 1.88238 14.811C1.4212 14.6812 1.12678 14.3808 0.963048 13.9514C0.92071 13.8403 0.899542 13.7214 0.868652 13.6062C0.8693 10.8918 0.8693 8.1772 0.8693 5.4628Z" fill="#1B2746"/>
<path fill-rule="evenodd" clip-rule="evenodd" d="M9.10387 1.96777C9.19527 2.03809 9.29768 2.09808 9.37548 2.1809C9.49609 2.30902 9.50749 2.47826 9.49949 2.64411C9.49229 2.79428 9.46809 2.94345 9.45868 3.09361C9.44708 3.28053 9.44848 3.46863 9.43428 3.65534C9.41008 3.97335 9.37548 4.29056 9.35068 4.60837C9.33688 4.78436 9.33468 4.96114 9.32568 5.13753C9.31608 5.32662 9.31008 5.51493 9.21808 5.68992C9.11067 5.89431 8.93927 5.99045 8.71486 5.9972C8.52145 6.00296 8.32764 5.99581 8.13423 5.99899C7.81262 6.00435 7.56401 5.75527 7.54461 5.4611C7.52681 5.19195 7.51381 4.92241 7.50041 4.65307C7.47761 4.19641 7.45721 3.73936 7.43381 3.28271C7.42181 3.04952 7.40021 2.81652 7.39261 2.58313C7.38781 2.43456 7.41541 2.28519 7.52201 2.17395C7.59861 2.0939 7.69882 2.0359 7.78842 1.96797C8.22684 1.96777 8.66545 1.96777 9.10387 1.96777Z" fill="#1B2746"/>
<path fill-rule="evenodd" clip-rule="evenodd" d="M2.36548 12.665C2.41328 12.4213 2.44228 12.1792 2.51028 11.9484C2.62689 11.5529 2.7995 11.1777 3.13371 10.9147C3.27951 10.7999 3.46372 10.7302 3.63613 10.6521C3.95174 10.5089 4.27255 10.3768 4.58937 10.2356C4.75897 10.1599 4.92418 10.0749 5.10499 9.9875C5.04058 9.89891 4.98018 9.8286 4.93458 9.74974C4.87638 9.64903 4.83438 9.53899 4.77797 9.43729C4.71097 9.31633 4.64597 9.19238 4.56277 9.08254C4.35356 8.80644 4.24795 8.5075 4.32176 8.16149C4.32996 8.12315 4.35536 8.06873 4.38536 8.05879C4.45676 8.03536 4.45256 7.98947 4.45216 7.93465C4.45056 7.77495 4.45196 7.61545 4.45156 7.45575C4.45056 7.11411 4.55516 6.80603 4.78277 6.55178C4.97478 6.33706 5.23239 6.22046 5.5142 6.16902C5.67301 6.14002 5.83762 6.11996 5.99842 6.12611C6.44504 6.1432 6.86686 6.23933 7.16667 6.6074C7.32527 6.80225 7.41628 7.03287 7.43668 7.28254C7.45528 7.50898 7.45268 7.73681 7.46248 7.96405C7.46368 7.99106 7.47648 8.03238 7.49608 8.04151C7.57988 8.08045 7.58768 8.14738 7.59469 8.22783C7.61489 8.46062 7.58729 8.68309 7.46228 8.8845C7.39148 8.99892 7.30787 9.10538 7.23307 9.21761C7.20227 9.26389 7.17347 9.31315 7.15447 9.36499C7.08527 9.5527 7.00366 9.73286 6.86806 9.88421C6.84526 9.90964 6.82705 9.93963 6.79265 9.9871C7.05266 10.1101 7.29947 10.2318 7.55068 10.3442C7.8737 10.4886 8.20011 10.6253 8.52492 10.7653C8.81653 10.8913 9.00754 11.1195 9.15375 11.3884C9.35595 11.7601 9.48396 12.154 9.50116 12.5798C9.50376 12.6462 9.48856 12.6895 9.42076 12.7093C9.20835 12.7715 8.99954 12.8512 8.78333 12.8957C8.43572 12.9668 8.0841 13.0204 7.73289 13.0709C7.54368 13.0979 7.35148 13.1066 7.16027 13.1163C6.93166 13.1281 6.70265 13.1318 6.47384 13.1394C6.26243 13.1463 6.05082 13.1624 5.83962 13.1586C5.58641 13.1543 5.3334 13.1326 5.08039 13.1189C4.92838 13.1106 4.77557 13.1094 4.62417 13.0945C4.29455 13.0625 3.96474 13.0307 3.63653 12.9862C3.38812 12.9525 3.13991 12.9096 2.8963 12.8508C2.72429 12.8093 2.56029 12.7346 2.36548 12.665Z" fill="#0696D6"/>
<path fill-rule="evenodd" clip-rule="evenodd" d="M12.1291 10.6513C12.7279 10.6513 13.3269 10.6555 13.9256 10.649C14.1116 10.647 14.176 10.7235 14.187 10.8518C14.1976 10.9769 14.0936 11.0605 13.9366 11.0709C13.9076 11.0728 13.8782 11.0713 13.849 11.0713C12.7025 11.0713 11.5559 11.0717 10.4092 11.0705C10.3488 11.0705 10.2874 11.0615 10.228 11.049C10.0938 11.0208 10.0468 10.9469 10.0654 10.8041C10.0786 10.7036 10.1498 10.6517 10.2778 10.6517C10.8951 10.6513 11.5121 10.6513 12.1291 10.6513Z" fill="#1B2746"/>
<path fill-rule="evenodd" clip-rule="evenodd" d="M12.1056 9.26393H10.31C10.1627 9.26393 10.0743 9.19441 10.0633 9.08358C10.0471 8.9207 10.1401 8.86468 10.2988 8.84442C10.3096 8.84303 10.3206 8.84423 10.3316 8.84423C11.5358 8.84423 12.7403 8.84403 13.9447 8.84442C14.1135 8.84442 14.2035 8.95327 14.1697 9.11258C14.1485 9.21229 14.0811 9.26373 13.9667 9.26373C13.3465 9.26413 12.7261 9.26373 12.1056 9.26393Z" fill="#1B2746"/>
<path fill-rule="evenodd" clip-rule="evenodd" d="M12.1162 7.05917H13.9557C14.1087 7.05917 14.1699 7.11797 14.1705 7.26376C14.1711 7.39744 14.1067 7.45385 13.9585 7.45782C13.8209 7.4618 13.6839 7.4753 13.5463 7.47808C13.3593 7.48166 13.1721 7.47888 12.985 7.47888H11.3456C11.1548 7.47888 10.9642 7.48166 10.7736 7.47808C10.5918 7.47471 10.4089 7.47431 10.2285 7.45425C10.0929 7.43915 10.0471 7.35493 10.0653 7.21232C10.0781 7.11161 10.1495 7.05917 10.2769 7.05917C10.8898 7.05897 11.503 7.05917 12.1162 7.05917Z" fill="#1B2746"/>
</svg>
