<svg width="16" height="16" viewBox="0 0 16 16" fill="none" xmlns="http://www.w3.org/2000/svg">
<path fill-rule="evenodd" clip-rule="evenodd" d="M4.00501 2.27222C5.12506 1.15217 7.01518 1.23732 7.79504 2.63473L8.22771 3.41002C8.73698 4.32256 8.51998 5.47395 7.77444 6.2286C7.76451 6.2422 7.71184 6.31882 7.70531 6.4527C7.69698 6.62358 7.75764 7.01878 8.36991 7.63104C8.98198 8.24311 9.37711 8.30398 9.54811 8.29564C9.68211 8.28911 9.75878 8.23651 9.77238 8.22651C10.527 7.48104 11.6784 7.26398 12.591 7.77324L13.3662 8.20598C14.7636 8.98584 14.8488 10.8759 13.7288 11.996C13.1296 12.595 12.333 13.1274 11.3969 13.1629C10.0096 13.2155 7.70611 12.8572 5.42494 10.576C3.14375 8.29484 2.7855 5.99135 2.83808 4.60406C2.87358 3.66794 3.4059 2.87132 4.00501 2.27222ZM6.92184 3.12206C6.52246 2.4065 5.44934 2.2421 4.71212 2.97932C4.19522 3.49622 3.85918 4.06676 3.83737 4.64195C3.79351 5.79884 4.07914 7.81604 6.13205 9.86891C8.18498 11.9218 10.2021 12.2074 11.359 12.1636C11.9342 12.1418 12.5048 11.8058 13.0216 11.2888C13.7588 10.5516 13.5944 9.47851 12.8789 9.07918L12.1036 8.64651C11.6214 8.37731 10.9439 8.46918 10.4684 8.94471C10.4216 8.99138 10.1243 9.26884 9.59671 9.29451C9.05651 9.32078 8.40271 9.07804 7.66284 8.33818C6.92271 7.59804 6.68004 6.94404 6.70651 6.4038C6.73238 5.87612 7.00984 5.57905 7.05624 5.53262C7.53178 5.05707 7.62364 4.37962 7.35451 3.89735L6.92184 3.12206Z" fill="#7C878E"/>
</svg>
