<svg width="21" height="20" viewBox="0 0 21 20" fill="none" xmlns="http://www.w3.org/2000/svg">
<path fill-rule="evenodd" clip-rule="evenodd" d="M10.8203 18.75C15.6528 18.75 19.5703 14.8325 19.5703 10C19.5703 5.16751 15.6528 1.25 10.8203 1.25C5.98782 1.25 2.07031 5.16751 2.07031 10C2.07031 14.8325 5.98782 18.75 10.8203 18.75ZM10.8203 19.5C16.067 19.5 20.3203 15.2467 20.3203 10C20.3203 4.75329 16.067 0.5 10.8203 0.5C5.57361 0.5 1.32031 4.75329 1.32031 10C1.32031 15.2467 5.57361 19.5 10.8203 19.5Z" fill="#1B2746"/>
<path d="M11.107 4.72168C12.1371 4.72168 12.9602 4.97159 13.5763 5.47142C14.202 5.97125 14.5149 6.67636 14.5149 7.58676C14.5149 8.42575 14.2165 9.08178 13.6196 9.55483C13.0324 10.019 12.2526 10.2555 11.2803 10.2644L11.2081 11.2685H9.04206L8.96986 8.77831H9.83628C10.5775 8.77831 11.1407 8.69352 11.5258 8.52393C11.9205 8.35435 12.1178 8.04642 12.1178 7.60015C12.1178 7.28776 12.0264 7.0423 11.8435 6.8638C11.6606 6.68529 11.4055 6.59603 11.0781 6.59603C10.7316 6.59603 10.462 6.68975 10.2695 6.87718C10.0769 7.05569 9.98068 7.30114 9.98068 7.61354H7.6558C7.63655 7.06908 7.75688 6.57818 8.01681 6.14083C8.28636 5.70348 8.68106 5.35985 9.20091 5.10994C9.73038 4.8511 10.3658 4.72168 11.107 4.72168ZM10.154 14.7495C9.72076 14.7495 9.36456 14.6334 9.08539 14.4014C8.81583 14.1604 8.68106 13.8658 8.68106 13.5177C8.68106 13.1607 8.81583 12.8617 9.08539 12.6207C9.36456 12.3797 9.72076 12.2592 10.154 12.2592C10.5775 12.2592 10.9241 12.3797 11.1937 12.6207C11.4728 12.8617 11.6124 13.1607 11.6124 13.5177C11.6124 13.8658 11.4728 14.1604 11.1937 14.4014C10.9241 14.6334 10.5775 14.7495 10.154 14.7495Z" fill="#1B2746"/>
</svg>
