<svg width="16" height="16" viewBox="0 0 16 16" fill="none" xmlns="http://www.w3.org/2000/svg">
<g clip-path="url(#clip0_96:12853)">
<path d="M15.5446 6.26131C15.573 6.15391 15.5579 6.03983 15.5028 5.94362L13.5644 2.5906C13.4483 2.39099 13.1927 2.32218 12.9928 2.43793L11.3669 3.37649C11.0677 3.16218 10.7477 2.97711 10.4103 2.82411V0.945991C10.4103 0.714984 10.2231 0.52774 9.99172 0.52774H6.11756C5.88622 0.52774 5.69931 0.714984 5.69931 0.945991V2.82444C5.38345 2.96826 5.08145 3.14064 4.79633 3.33991L3.17978 2.38181C3.08424 2.32535 2.97066 2.30931 2.86309 2.33654C2.75569 2.36427 2.66315 2.43309 2.60669 2.52863L0.631694 5.86027C0.575237 5.95548 0.558868 6.06973 0.586428 6.1773C0.614156 6.2847 0.682973 6.3769 0.778516 6.43336L2.39573 7.39112C2.37001 7.6091 2.35748 7.81255 2.35748 8.00831C2.35748 8.18186 2.36767 8.36192 2.38905 8.56102L0.760811 9.50175C0.6646 9.55754 0.594446 9.64891 0.56605 9.75581C0.536986 9.86288 0.552353 9.9773 0.607808 10.0732L2.54539 13.4265C2.66081 13.6265 2.91704 13.6953 3.11698 13.5792L4.74321 12.6403C5.0427 12.8549 5.36307 13.0397 5.69947 13.1927V15.0708C5.69947 15.3021 5.88638 15.489 6.11772 15.489H9.99172C10.2231 15.489 10.4103 15.3021 10.4103 15.0708V13.1928C10.7258 13.0494 11.0278 12.8763 11.3126 12.677L12.9302 13.6352C13.1286 13.7529 13.3857 13.6871 13.5034 13.4883L15.4781 10.1569C15.5342 10.0613 15.5506 9.94706 15.5234 9.83983C15.4956 9.73243 15.4268 9.64022 15.3309 9.58377L13.7147 8.626C13.7408 8.40652 13.7531 8.20541 13.7531 8.00881C13.7531 7.83326 13.7426 7.65086 13.7216 7.45543L15.3495 6.51554C15.4453 6.46025 15.5158 6.36855 15.5446 6.26131ZM10.2954 8.00831C10.2954 9.24369 9.29018 10.2489 8.05447 10.2489C6.8191 10.2489 5.81423 9.24369 5.81423 8.00831C5.81423 6.77344 6.8191 5.7684 8.05447 5.7684C9.29035 5.7684 10.2954 6.77344 10.2954 8.00831Z" fill="#0696D6"/>
</g>
<defs>
<clipPath id="clip0_96:12853">
<rect width="15.2" height="15.2" fill="white" transform="translate(0.400024 0.399994)"/>
</clipPath>
</defs>
</svg>
