<svg width="15" height="16" viewBox="0 0 15 16" fill="none" xmlns="http://www.w3.org/2000/svg">
<path d="M13.125 12.2188H11.7188C11.5944 12.2188 11.4752 12.1694 11.3873 12.0815C11.2994 11.9935 11.25 11.8743 11.25 11.75C11.25 11.6257 11.2994 11.5065 11.3873 11.4185C11.4752 11.3306 11.5944 11.2812 11.7188 11.2812H13.125C13.2493 11.2812 13.3685 11.2319 13.4565 11.144C13.5444 11.056 13.5938 10.9368 13.5938 10.8125V5.1875C13.5938 5.06318 13.5444 4.94395 13.4565 4.85604C13.3685 4.76814 13.2493 4.71875 13.125 4.71875H1.875C1.75068 4.71875 1.63145 4.76814 1.54354 4.85604C1.45564 4.94395 1.40625 5.06318 1.40625 5.1875V10.8125C1.40625 10.9368 1.45564 11.056 1.54354 11.144C1.63145 11.2319 1.75068 11.2812 1.875 11.2812H3.28125C3.40557 11.2812 3.5248 11.3306 3.61271 11.4185C3.70061 11.5065 3.75 11.6257 3.75 11.75C3.75 11.8743 3.70061 11.9935 3.61271 12.0815C3.5248 12.1694 3.40557 12.2188 3.28125 12.2188H1.875C1.50204 12.2188 1.14435 12.0706 0.880631 11.8069C0.616908 11.5431 0.46875 11.1855 0.46875 10.8125V5.1875C0.46875 4.81454 0.616908 4.45685 0.880631 4.19313C1.14435 3.92941 1.50204 3.78125 1.875 3.78125H13.125C13.498 3.78125 13.8556 3.92941 14.1194 4.19313C14.3831 4.45685 14.5312 4.81454 14.5312 5.1875V10.8125C14.5312 11.1855 14.3831 11.5431 14.1194 11.8069C13.8556 12.0706 13.498 12.2188 13.125 12.2188Z" fill="#101820"/>
<path d="M11.7188 15.0312H3.28125C3.15693 15.0312 3.0377 14.9819 2.94979 14.894C2.86189 14.806 2.8125 14.6868 2.8125 14.5625V9.875C2.8125 9.75068 2.86189 9.63145 2.94979 9.54354C3.0377 9.45564 3.15693 9.40625 3.28125 9.40625H11.7188C11.8431 9.40625 11.9623 9.45564 12.0502 9.54354C12.1381 9.63145 12.1875 9.75068 12.1875 9.875V14.5625C12.1875 14.6868 12.1381 14.806 12.0502 14.894C11.9623 14.9819 11.8431 15.0312 11.7188 15.0312ZM3.75 14.0938H11.25V10.3438H3.75V14.0938Z" fill="#101820"/>
<path d="M11.7188 4.71875C11.5944 4.71875 11.4752 4.66936 11.3873 4.58146C11.2994 4.49355 11.25 4.37432 11.25 4.25V1.90625H3.75V4.25C3.75 4.37432 3.70061 4.49355 3.61271 4.58146C3.5248 4.66936 3.40557 4.71875 3.28125 4.71875C3.15693 4.71875 3.0377 4.66936 2.94979 4.58146C2.86189 4.49355 2.8125 4.37432 2.8125 4.25V1.4375C2.8125 1.31318 2.86189 1.19395 2.94979 1.10604C3.0377 1.01814 3.15693 0.96875 3.28125 0.96875H11.7188C11.8431 0.96875 11.9623 1.01814 12.0502 1.10604C12.1381 1.19395 12.1875 1.31318 12.1875 1.4375V4.25C12.1875 4.37432 12.1381 4.49355 12.0502 4.58146C11.9623 4.66936 11.8431 4.71875 11.7188 4.71875Z" fill="#101820"/>
<path d="M12.1875 5.65625H11.25V6.59375H12.1875V5.65625Z" fill="#101820"/>
<path d="M10.3125 5.65625H8.4375V6.59375H10.3125V5.65625Z" fill="#101820"/>
</svg>
