<svg width="16" height="16" viewBox="0 0 16 16" fill="none" xmlns="http://www.w3.org/2000/svg">
<path d="M1.33331 3.99992C1.33331 2.74284 1.33331 2.1143 1.72384 1.72378C2.11436 1.33325 2.7429 1.33325 3.99998 1.33325C5.25706 1.33325 5.8856 1.33325 6.27612 1.72378C6.66665 2.1143 6.66665 2.74284 6.66665 3.99992V11.9999C6.66665 13.257 6.66665 13.8855 6.27612 14.2761C5.8856 14.6666 5.25706 14.6666 3.99998 14.6666C2.7429 14.6666 2.11436 14.6666 1.72384 14.2761C1.33331 13.8855 1.33331 13.257 1.33331 11.9999V3.99992Z" fill="white"/>
<path d="M9.33331 3.99992C9.33331 2.74284 9.33331 2.1143 9.72385 1.72378C10.1144 1.33325 10.7429 1.33325 12 1.33325C13.257 1.33325 13.8856 1.33325 14.2761 1.72378C14.6666 2.1143 14.6666 2.74284 14.6666 3.99992V11.9999C14.6666 13.257 14.6666 13.8855 14.2761 14.2761C13.8856 14.6666 13.257 14.6666 12 14.6666C10.7429 14.6666 10.1144 14.6666 9.72385 14.2761C9.33331 13.8855 9.33331 13.257 9.33331 11.9999V3.99992Z" fill="white"/>
</svg>
