<svg width="73" height="73" viewBox="0 0 73 73" fill="none" xmlns="http://www.w3.org/2000/svg">
<path d="M18.25 0C15.7406 0 13.6875 2.05312 13.6875 4.5625V68.4375C13.6875 70.9469 15.7406 73 18.25 73H63.875C66.3844 73 68.4375 70.9469 68.4375 68.4375V18.25L50.1875 0H18.25Z" fill="#E2E5E7"/>
<path d="M54.75 18.25H68.4375L50.1875 0V13.6875C50.1875 16.1969 52.2406 18.25 54.75 18.25Z" fill="#B0B7BD"/>
<path d="M68.4375 31.9375L54.75 18.25H68.4375V31.9375Z" fill="#CAD1D8"/>
<path d="M59.3125 59.3125C59.3125 60.5672 58.2859 61.5938 57.0312 61.5938H6.84375C5.58906 61.5938 4.5625 60.5672 4.5625 59.3125V36.5C4.5625 35.2453 5.58906 34.2188 6.84375 34.2188H57.0312C58.2859 34.2188 59.3125 35.2453 59.3125 36.5V59.3125Z" fill="#F15642"/>
<path d="M14.5063 43.2226C14.5063 42.6204 14.9808 41.9634 15.7451 41.9634H19.9585C22.331 41.9634 24.4663 43.5511 24.4663 46.5943C24.4663 49.4778 22.331 51.0838 19.9585 51.0838H16.9131V53.4928C16.9131 54.2958 16.4021 54.7498 15.7451 54.7498C15.1428 54.7498 14.5063 54.2958 14.5063 53.4928V43.2226ZM16.9131 44.2606V48.8048H19.9585C21.1813 48.8048 22.1485 47.7258 22.1485 46.5943C22.1485 45.3191 21.1813 44.2606 19.9585 44.2606H16.9131Z" fill="white"/>
<path d="M28.0387 54.7496C27.4365 54.7496 26.7795 54.4211 26.7795 53.6204V43.2589C26.7795 42.6042 27.4365 42.1274 28.0387 42.1274H32.2157C40.5514 42.1274 40.3689 54.7496 32.3799 54.7496H28.0387ZM29.1885 44.3539V52.5254H32.2157C37.1409 52.5254 37.3599 44.3539 32.2157 44.3539H29.1885Z" fill="white"/>
<path d="M43.3253 44.5003V47.3997H47.9768C48.6338 47.3997 49.2908 48.0567 49.2908 48.6932C49.2908 49.2955 48.6338 49.7882 47.9768 49.7882H43.3253V53.6184C43.3253 54.2572 42.8714 54.7476 42.2326 54.7476C41.4296 54.7476 40.9391 54.2572 40.9391 53.6184V43.257C40.9391 42.6023 41.4319 42.1255 42.2326 42.1255H48.6361C49.4391 42.1255 49.9136 42.6023 49.9136 43.257C49.9136 43.841 49.4391 44.498 48.6361 44.498H43.3253V44.5003Z" fill="white"/>
<path d="M57.0312 61.5938H13.6875V63.875H57.0312C58.2859 63.875 59.3125 62.8484 59.3125 61.5938V59.3125C59.3125 60.5672 58.2859 61.5938 57.0312 61.5938Z" fill="#CAD1D8"/>
</svg>
