<svg width="20" height="21" viewBox="0 0 20 21" fill="none" xmlns="http://www.w3.org/2000/svg">
<path d="M10.4384 8.34333L9.20782 7.4844C9.11288 7.41813 9.00158 7.37915 8.88603 7.3717C8.77048 7.36426 8.6551 7.38863 8.55244 7.44217C8.44977 7.49572 8.36375 7.57638 8.30373 7.6754C8.2437 7.77441 8.21197 7.88799 8.21198 8.00377V12.9962C8.21197 13.112 8.2437 13.2256 8.30373 13.3246C8.36375 13.4236 8.44977 13.5043 8.55244 13.5578C8.6551 13.6114 8.77048 13.6357 8.88603 13.6283C9.00158 13.6209 9.11288 13.5819 9.20782 13.5156L10.4384 12.6567L12.7839 11.0192C12.8675 10.9609 12.9358 10.8832 12.983 10.7928C13.0301 10.7024 13.0547 10.6019 13.0547 10.4999C13.0547 10.398 13.0301 10.2975 12.983 10.2071C12.9358 10.1167 12.8675 10.039 12.7839 9.98062L10.4384 8.34333Z" fill="#F0FAFF"/>
<path d="M10 1C8.12108 1 6.28435 1.55717 4.72209 2.60104C3.15982 3.64491 1.94218 5.12861 1.22315 6.86451C0.504116 8.60041 0.315985 10.5105 0.682544 12.3534C1.0491 14.1962 1.95389 15.8889 3.28249 17.2175C4.61109 18.5461 6.30383 19.4509 8.14665 19.8175C9.98947 20.184 11.8996 19.9959 13.6355 19.2769C15.3714 18.5578 16.8551 17.3402 17.899 15.7779C18.9428 14.2156 19.5 12.3789 19.5 10.5C19.4972 7.9813 18.4954 5.56657 16.7144 3.78558C14.9334 2.00459 12.5187 1.0028 10 1V1ZM12.7839 11.0192L10.4384 12.6567L9.20783 13.5156C9.11289 13.5819 9.00159 13.6209 8.88604 13.6283C8.77049 13.6357 8.65511 13.6114 8.55245 13.5578C8.44978 13.5043 8.36376 13.4236 8.30373 13.3246C8.24371 13.2256 8.21198 13.112 8.21198 12.9962V8.00377C8.21198 7.88798 8.24371 7.77441 8.30373 7.6754C8.36376 7.57638 8.44978 7.49572 8.55245 7.44217C8.65511 7.38863 8.77049 7.36426 8.88604 7.3717C9.00159 7.37915 9.11289 7.41813 9.20783 7.4844L10.4384 8.34333L12.7839 9.98062C12.8675 10.039 12.9358 10.1167 12.983 10.2071C13.0301 10.2975 13.0547 10.398 13.0547 10.4999C13.0547 10.6019 13.0301 10.7024 12.983 10.7928C12.9358 10.8832 12.8675 10.9609 12.7839 11.0192Z" fill="#FFC909"/>
</svg>
