<svg width="15" height="15" viewBox="0 0 15 15" fill="none" xmlns="http://www.w3.org/2000/svg">
<path d="M13.125 11.7188H11.7188C11.5944 11.7188 11.4752 11.6694 11.3873 11.5815C11.2994 11.4935 11.25 11.3743 11.25 11.25C11.25 11.1257 11.2994 11.0065 11.3873 10.9185C11.4752 10.8306 11.5944 10.7812 11.7188 10.7812H13.125C13.2493 10.7812 13.3685 10.7319 13.4565 10.644C13.5444 10.556 13.5938 10.4368 13.5938 10.3125V4.6875C13.5938 4.56318 13.5444 4.44395 13.4565 4.35604C13.3685 4.26814 13.2493 4.21875 13.125 4.21875H1.875C1.75068 4.21875 1.63145 4.26814 1.54354 4.35604C1.45564 4.44395 1.40625 4.56318 1.40625 4.6875V10.3125C1.40625 10.4368 1.45564 10.556 1.54354 10.644C1.63145 10.7319 1.75068 10.7812 1.875 10.7812H3.28125C3.40557 10.7812 3.5248 10.8306 3.61271 10.9185C3.70061 11.0065 3.75 11.1257 3.75 11.25C3.75 11.3743 3.70061 11.4935 3.61271 11.5815C3.5248 11.6694 3.40557 11.7188 3.28125 11.7188H1.875C1.50204 11.7188 1.14435 11.5706 0.880631 11.3069C0.616908 11.0431 0.46875 10.6855 0.46875 10.3125V4.6875C0.46875 4.31454 0.616908 3.95685 0.880631 3.69313C1.14435 3.42941 1.50204 3.28125 1.875 3.28125H13.125C13.498 3.28125 13.8556 3.42941 14.1194 3.69313C14.3831 3.95685 14.5312 4.31454 14.5312 4.6875V10.3125C14.5312 10.6855 14.3831 11.0431 14.1194 11.3069C13.8556 11.5706 13.498 11.7188 13.125 11.7188Z" fill="#0696D6"/>
<path d="M11.7188 14.5312H3.28125C3.15693 14.5312 3.0377 14.4819 2.94979 14.394C2.86189 14.306 2.8125 14.1868 2.8125 14.0625V9.375C2.8125 9.25068 2.86189 9.13145 2.94979 9.04354C3.0377 8.95564 3.15693 8.90625 3.28125 8.90625H11.7188C11.8431 8.90625 11.9623 8.95564 12.0502 9.04354C12.1381 9.13145 12.1875 9.25068 12.1875 9.375V14.0625C12.1875 14.1868 12.1381 14.306 12.0502 14.394C11.9623 14.4819 11.8431 14.5312 11.7188 14.5312ZM3.75 13.5938H11.25V9.84375H3.75V13.5938Z" fill="#0696D6"/>
<path d="M11.7188 4.21875C11.5944 4.21875 11.4752 4.16936 11.3873 4.08146C11.2994 3.99355 11.25 3.87432 11.25 3.75V1.40625H3.75V3.75C3.75 3.87432 3.70061 3.99355 3.61271 4.08146C3.5248 4.16936 3.40557 4.21875 3.28125 4.21875C3.15693 4.21875 3.0377 4.16936 2.94979 4.08146C2.86189 3.99355 2.8125 3.87432 2.8125 3.75V0.9375C2.8125 0.81318 2.86189 0.693951 2.94979 0.606044C3.0377 0.518136 3.15693 0.46875 3.28125 0.46875H11.7188C11.8431 0.46875 11.9623 0.518136 12.0502 0.606044C12.1381 0.693951 12.1875 0.81318 12.1875 0.9375V3.75C12.1875 3.87432 12.1381 3.99355 12.0502 4.08146C11.9623 4.16936 11.8431 4.21875 11.7188 4.21875Z" fill="#0696D6"/>
<path d="M12.1875 5.15625H11.25V6.09375H12.1875V5.15625Z" fill="#0696D6"/>
<path d="M10.3125 5.15625H8.4375V6.09375H10.3125V5.15625Z" fill="#0696D6"/>
</svg>
