<svg width="17" height="17" viewBox="0 0 17 17" fill="none" xmlns="http://www.w3.org/2000/svg">
<path fill-rule="evenodd" clip-rule="evenodd" d="M8.46144 0.885376H8.53921C9.50793 0.885362 10.2887 0.885348 10.9029 0.967911C11.5404 1.05363 12.0772 1.23701 12.5036 1.66337C13.0277 2.18753 13.1898 2.88654 13.247 3.75372C13.4206 3.7653 13.5835 3.78072 13.7362 3.80124C14.3738 3.88697 14.9105 4.07035 15.3369 4.49671C15.7633 4.92307 15.9467 5.45989 16.0324 6.09747C16.1149 6.71157 16.1149 7.49236 16.1149 8.46107V8.53885C16.1149 9.50756 16.1149 10.2884 16.0324 10.9025C15.9467 11.5401 15.7633 12.0768 15.3369 12.5032C14.8128 13.0273 14.1137 13.1895 13.2466 13.2466C13.235 13.4202 13.2196 13.5832 13.1991 13.7358C13.1133 14.3734 12.93 14.9102 12.5036 15.3366C12.0772 15.7629 11.5404 15.9463 10.9029 16.032C10.2887 16.1145 9.50793 16.1145 8.53921 16.1145H8.46144C7.49272 16.1145 6.71194 16.1145 6.09784 16.032C5.46026 15.9463 4.92343 15.7629 4.49707 15.3366C4.07071 14.9102 3.88733 14.3734 3.80161 13.7358C3.78109 13.5832 3.76567 13.4202 3.75408 13.2466C2.8869 13.1895 2.18789 13.0273 1.66374 12.5032C1.23738 12.0768 1.054 11.5401 0.968278 10.9025C0.885714 10.2884 0.885728 9.50756 0.885743 8.53885V8.46107C0.885728 7.49236 0.885714 6.71157 0.968278 6.09747C1.054 5.45989 1.23738 4.92307 1.66374 4.49671C2.0901 4.07035 2.62693 3.88697 3.2645 3.80124C3.41714 3.78072 3.58008 3.7653 3.75364 3.75372C3.81082 2.88654 3.97292 2.18753 4.49707 1.66337C4.92343 1.23701 5.46026 1.05363 6.09784 0.967911C6.71194 0.885348 7.49272 0.885362 8.46144 0.885376ZM4.82205 3.7208C5.07487 3.7187 5.34338 3.7187 5.62812 3.71871H11.3725C11.6573 3.7187 11.9258 3.7187 12.1786 3.7208C12.1205 2.99769 11.9899 2.65233 11.7523 2.41467C11.5562 2.21864 11.281 2.09082 10.7613 2.02094C10.2262 1.949 9.51707 1.94788 8.50033 1.94788C7.48358 1.94788 6.77445 1.949 6.23941 2.02094C5.71965 2.09082 5.44441 2.21864 5.24837 2.41467C5.01072 2.65233 4.8801 2.99769 4.82205 3.7208ZM3.72116 12.1783C3.71907 11.9254 3.71907 11.6569 3.71908 11.3722V9.16466C3.60957 9.209 3.50504 9.25377 3.40543 9.29846C3.13777 9.41867 2.82336 9.2991 2.70318 9.03142C2.58301 8.76374 2.70257 8.44938 2.97023 8.32918C4.18981 7.78157 6.00735 7.26038 8.50033 7.26038C10.9933 7.26038 12.8108 7.78157 14.0304 8.32918C14.2981 8.44938 14.4177 8.76374 14.2975 9.03142C14.1773 9.2991 13.8629 9.41867 13.5952 9.29846C13.4956 9.25377 13.3911 9.209 13.2816 9.16466V11.3722C13.2816 11.6569 13.2816 11.9254 13.2795 12.1783C14.0026 12.1202 14.348 11.9896 14.5856 11.7519C14.7817 11.5559 14.9095 11.2807 14.9794 10.7609C15.0513 10.2258 15.0524 9.5167 15.0524 8.49996C15.0524 7.48322 15.0513 6.77408 14.9794 6.23904C14.9095 5.71929 14.7817 5.44405 14.5856 5.24801C14.3896 5.05197 14.1144 4.92415 13.5946 4.85427C13.0595 4.78234 12.3504 4.78121 11.3337 4.78121H5.66699C4.65024 4.78121 3.94112 4.78234 3.40608 4.85427C2.88632 4.92415 2.61108 5.05197 2.41504 5.24801C2.219 5.44405 2.09118 5.71929 2.02131 6.23904C1.94937 6.77408 1.94824 7.48322 1.94824 8.49996C1.94824 9.5167 1.94937 10.2258 2.02131 10.7609C2.09118 11.2807 2.219 11.5559 2.41504 11.7519C2.65269 11.9896 2.99806 12.1202 3.72116 12.1783ZM12.2191 8.80228C11.2438 8.52659 10.0119 8.32288 8.50033 8.32288C6.98871 8.32288 5.75691 8.52659 4.78158 8.80228V11.3333C4.78158 12.35 4.7827 13.0591 4.85464 13.5942C4.92452 14.114 5.05234 14.3892 5.24837 14.5852C5.44441 14.7813 5.71966 14.9091 6.23941 14.979C6.77445 15.0509 7.48358 15.052 8.50033 15.052C9.51707 15.052 10.2262 15.0509 10.7613 14.979C11.281 14.9091 11.5562 14.7813 11.7523 14.5852C11.9484 14.3892 12.0761 14.114 12.146 13.5942C12.2179 13.0591 12.2191 12.35 12.2191 11.3333V8.80228Z" fill="#7C878E"/>
</svg>
