<svg width="18" height="18" viewBox="0 0 18 18" fill="none" xmlns="http://www.w3.org/2000/svg">
<path fill-rule="evenodd" clip-rule="evenodd" d="M8.10713 0C8.65074 0 9.18311 0 9.73326 0C9.73326 0.0382277 9.73322 0.0759359 9.73326 0.113644C9.7338 0.593439 9.73642 1.07323 9.73296 1.55301C9.73235 1.63914 9.75616 1.66713 9.844 1.6786C11.1109 1.84387 12.2625 2.29979 13.2853 3.06824C14.4462 3.94051 15.2799 5.05857 15.783 6.42215C15.9712 6.93209 16.0934 7.45802 16.1628 7.99591C16.1755 8.09416 16.2134 8.10821 16.2988 8.10763C16.775 8.10453 17.2512 8.10685 17.7274 8.10728C17.7627 8.10733 17.798 8.10728 17.8416 8.10728C17.8416 8.65189 17.8416 9.18727 17.8416 9.73707C17.6532 9.73707 17.4668 9.73707 17.2805 9.73707C16.9486 9.73705 16.6167 9.73915 16.2848 9.73547C16.2054 9.7346 16.1758 9.75458 16.1645 9.84004C15.9637 11.357 15.3577 12.6898 14.3298 13.8252C13.5183 14.7217 12.5414 15.3751 11.4043 15.7898C10.897 15.9749 10.3748 16.0954 9.84097 16.1659C9.7491 16.1781 9.73283 16.2124 9.73328 16.2946C9.73609 16.7888 9.73395 17.283 9.73326 17.7772C9.73324 17.7948 9.73105 17.8125 9.72921 17.8399C9.19063 17.8399 8.65606 17.8399 8.10707 17.8399C8.10707 17.8 8.10711 17.7617 8.10707 17.7233C8.10655 17.2471 8.10427 16.7709 8.10713 16.2948C8.10761 16.2124 8.09116 16.1783 7.99931 16.1661C6.47076 15.9634 5.12663 15.352 3.99122 14.308C2.74848 13.1653 1.9881 11.7544 1.71142 10.0862C1.69786 10.0044 1.67737 9.92256 1.67542 9.84039C1.67334 9.75242 1.63505 9.73516 1.55565 9.73558C1.07585 9.73811 0.596058 9.73603 0.116263 9.73549C0.0806331 9.73545 0.0450031 9.73549 0 9.73549C0 9.19359 0 8.65855 0 8.10735C0.0387689 8.10735 0.0767367 8.10737 0.114705 8.10733C0.594499 8.10698 1.07429 8.10527 1.55409 8.10761C1.63134 8.108 1.66329 8.0925 1.67578 8.005C2.00191 5.7192 3.1395 3.95025 5.08394 2.70884C5.97549 2.13967 6.95926 1.80958 8.00821 1.67713C8.08971 1.66682 8.10722 1.6376 8.10687 1.56236C8.10456 1.07901 8.10655 0.595625 8.10713 0.112259C8.10717 0.0771264 8.10713 0.0419726 8.10713 0ZM14.6014 8.92318C14.6045 5.7839 12.0637 3.24665 8.91058 3.24048C5.78925 3.23435 3.24247 5.78496 3.23901 8.92048C3.23557 12.0502 5.77373 14.595 8.90797 14.6041C12.0453 14.6133 14.5982 12.066 14.6014 8.92318Z" fill="#7C878E"/>
<path fill-rule="evenodd" clip-rule="evenodd" d="M5.67383 8.92058C5.67682 7.12184 7.13157 5.67116 8.92771 5.67579C10.7207 5.6804 12.1689 7.13262 12.1672 8.92422C12.1655 10.72 10.7072 12.1745 8.91314 12.1698C7.12224 12.1651 5.67087 10.7093 5.67383 8.92058Z" fill="#7C878E"/>
</svg>
