<svg width="20" height="21" viewBox="0 0 20 21" fill="none" xmlns="http://www.w3.org/2000/svg">
<path fill-rule="evenodd" clip-rule="evenodd" d="M9.95409 1.54199H10.0456C11.1853 1.54198 12.1038 1.54196 12.8263 1.63909C13.5764 1.73994 14.2079 1.95568 14.7096 2.45728C15.3262 3.07393 15.5169 3.8963 15.5842 4.91652C15.7883 4.93014 15.9801 4.94828 16.1597 4.97243C16.9098 5.07328 17.5413 5.28902 18.0429 5.79062C18.5445 6.29222 18.7603 6.92378 18.8611 7.67387C18.9582 8.39634 18.9582 9.31491 18.9582 10.4546V10.5461C18.9582 11.6857 18.9582 12.6043 18.8611 13.3268C18.7603 14.0769 18.5445 14.7084 18.0429 15.2101C17.4263 15.8267 16.6038 16.0174 15.5837 16.0847C15.57 16.2888 15.5519 16.4806 15.5278 16.6602C15.4269 17.4102 15.2112 18.0417 14.7096 18.5434C14.2079 19.045 13.5764 19.2607 12.8263 19.3616C12.1038 19.4587 11.1853 19.4587 10.0456 19.4587H9.95409C8.81442 19.4587 7.89585 19.4587 7.17338 19.3616C6.42329 19.2607 5.79173 19.045 5.29013 18.5434C4.78853 18.0417 4.57279 17.4102 4.47194 16.6602C4.4478 16.4806 4.42965 16.2888 4.41602 16.0847C3.39581 16.0174 2.57345 15.8267 1.9568 15.2101C1.4552 14.7084 1.23945 14.0769 1.1386 13.3268C1.04147 12.6043 1.04149 11.6857 1.0415 10.5461V10.4546C1.04149 9.31491 1.04147 8.39634 1.1386 7.67387C1.23945 6.92378 1.4552 6.29222 1.9568 5.79062C2.4584 5.28902 3.08995 5.07328 3.84005 4.97243C4.01962 4.94828 4.21131 4.93014 4.4155 4.91652C4.48277 3.8963 4.67348 3.07393 5.29013 2.45728C5.79173 1.95568 6.42329 1.73994 7.17338 1.63909C7.89585 1.54196 8.81442 1.54198 9.95409 1.54199ZM5.67245 4.87778C5.96989 4.87532 6.28578 4.87532 6.62077 4.87533H13.3789C13.7139 4.87532 14.0298 4.87532 14.3273 4.87778C14.2589 4.02707 14.1053 3.62076 13.8257 3.34117C13.595 3.11053 13.2713 2.96016 12.6598 2.87795C12.0303 2.79332 11.196 2.79199 9.99984 2.79199C8.80367 2.79199 7.9694 2.79332 7.33994 2.87795C6.72845 2.96016 6.40465 3.11053 6.17401 3.34117C5.89442 3.62076 5.74075 4.02707 5.67245 4.87778ZM4.37729 14.8277C4.37483 14.5302 4.37483 14.2144 4.37484 13.8794V11.2823C4.246 11.3345 4.12303 11.3872 4.00584 11.4397C3.69095 11.5812 3.32105 11.4405 3.17967 11.1256C3.03829 10.8107 3.17895 10.4408 3.49384 10.2994C4.92864 9.65516 7.06692 9.04199 9.99984 9.04199C12.9328 9.04199 15.071 9.65516 16.5058 10.2994C16.8208 10.4408 16.9614 10.8107 16.82 11.1256C16.6786 11.4405 16.3088 11.5812 15.9938 11.4397C15.8767 11.3872 15.7537 11.3345 15.6248 11.2823V13.8794C15.6248 14.2144 15.6248 14.5302 15.6224 14.8277C16.4731 14.7594 16.8794 14.6057 17.159 14.3262C17.3897 14.0955 17.54 13.7717 17.6223 13.1602C17.7068 12.5307 17.7082 11.6965 17.7082 10.5003C17.7082 9.30416 17.7068 8.46988 17.6223 7.84043C17.54 7.22895 17.3897 6.90513 17.159 6.6745C16.9283 6.44387 16.6046 6.29349 15.9931 6.21128C15.3636 6.12665 14.5293 6.12533 13.3332 6.12533H6.6665C5.47032 6.12533 4.63606 6.12665 4.0066 6.21128C3.39513 6.29349 3.07131 6.44387 2.84068 6.6745C2.61005 6.90513 2.45967 7.22895 2.37746 7.84043C2.29283 8.46988 2.2915 9.30416 2.2915 10.5003C2.2915 11.6965 2.29283 12.5307 2.37746 13.1602C2.45967 13.7717 2.61005 14.0955 2.84068 14.3262C3.12027 14.6057 3.52658 14.7594 4.37729 14.8277ZM14.3748 10.856C13.2274 10.5317 11.7782 10.292 9.99984 10.292C8.22147 10.292 6.77229 10.5317 5.62484 10.856V13.8337C5.62484 15.0298 5.62616 15.8641 5.7108 16.4936C5.793 17.1051 5.94338 17.4288 6.17401 17.6595C6.40465 17.8902 6.72846 18.0405 7.33994 18.1227C7.9694 18.2073 8.80367 18.2087 9.99984 18.2087C11.196 18.2087 12.0303 18.2073 12.6598 18.1227C13.2713 18.0405 13.595 17.8902 13.8257 17.6595C14.0563 17.4288 14.2067 17.1051 14.2889 16.4936C14.3735 15.8641 14.3748 15.0298 14.3748 13.8337V10.856Z" fill="#1B2746"/>
</svg>
