<svg width="9" height="12" viewBox="0 0 9 12" fill="none" xmlns="http://www.w3.org/2000/svg">
<path fill-rule="evenodd" clip-rule="evenodd" d="M0.910698 0.629433C0.403197 1.01533 -1.07699 3.03177 1.35975 7.25361C3.92663 11.7009 6.56079 11.3521 7.10071 11.0073L5.36545 8.09432C4.9161 8.36992 4.56205 7.98277 3.91539 7.13252C3.4875 6.56994 3.02211 5.8341 2.66697 5.0368C2.41779 4.47734 2.22179 3.90227 2.69237 3.61365L0.910698 0.629433Z" fill="white"/>
<path fill-rule="evenodd" clip-rule="evenodd" d="M7.99929 10.5971C8.20044 10.4713 8.25632 10.2301 8.15726 10.0608L8.1579 10.0585C8.1579 10.0585 6.84823 7.82365 6.84744 7.8223C6.74366 7.64494 6.50592 7.60264 6.31642 7.72114L5.43484 8.27247L7.11771 11.1485C7.11771 11.1485 7.99785 10.5997 7.99818 10.5986L7.99929 10.5971Z" fill="white"/>
<path fill-rule="evenodd" clip-rule="evenodd" d="M3.25794 3.00951C3.45939 2.88362 3.51535 2.64216 3.41614 2.47274L3.41679 2.47052C3.41679 2.47052 2.06748 0.169481 2.06668 0.168125C1.96276 -0.00935972 1.72467 -0.0516961 1.5349 0.0668933L0.652047 0.618607L2.37508 3.56122C2.37508 3.56122 3.2565 3.01211 3.25683 3.01099L3.25794 3.00951Z" fill="white"/>
</svg>
