<svg width="16" height="16" viewBox="0 0 16 16" fill="none" xmlns="http://www.w3.org/2000/svg">
<path fill-rule="evenodd" clip-rule="evenodd" d="M2.8335 5.67642C2.8335 2.96842 5.18114 0.833328 8.00016 0.833328C10.8192 0.833328 13.1668 2.96842 13.1668 5.67642C13.1668 8.21719 11.5916 11.2 9.05003 12.2861C8.38283 12.5713 7.6175 12.5713 6.9503 12.2861C4.40876 11.2 2.8335 8.21719 2.8335 5.67642ZM8.00016 1.83333C5.66453 1.83333 3.8335 3.58717 3.8335 5.67642C3.8335 7.89533 5.23712 10.4665 7.3433 11.3666C7.7595 11.5445 8.24083 11.5445 8.65703 11.3666C10.7632 10.4665 12.1668 7.89533 12.1668 5.67642C12.1668 3.58717 10.3358 1.83333 8.00016 1.83333ZM8.00016 5.16666C7.5399 5.16666 7.16683 5.53975 7.16683 5.99999C7.16683 6.46023 7.5399 6.83333 8.00016 6.83333C8.46043 6.83333 8.8335 6.46023 8.8335 5.99999C8.8335 5.53975 8.46043 5.16666 8.00016 5.16666ZM6.16683 5.99999C6.16683 4.98747 6.98763 4.16666 8.00016 4.16666C9.0127 4.16666 9.8335 4.98747 9.8335 5.99999C9.8335 7.01253 9.0127 7.83333 8.00016 7.83333C6.98763 7.83333 6.16683 7.01253 6.16683 5.99999ZM2.3971 9.99773C2.58246 10.2024 2.56678 10.5186 2.36208 10.7039C1.98362 11.0467 1.8335 11.3747 1.8335 11.6667C1.8335 12.1758 2.31617 12.8032 3.4913 13.332C4.6195 13.8397 6.21317 14.1667 8.00016 14.1667C9.78716 14.1667 11.3808 13.8397 12.509 13.332C13.6842 12.8032 14.1668 12.1758 14.1668 11.6667C14.1668 11.3747 14.0167 11.0467 13.6382 10.7039C13.4336 10.5186 13.4179 10.2024 13.6032 9.99773C13.7886 9.79299 14.1048 9.77733 14.3094 9.96273C14.8182 10.4233 15.1668 11.0007 15.1668 11.6667C15.1668 12.8144 14.1571 13.687 12.9194 14.2439C11.6347 14.8221 9.8951 15.1667 8.00016 15.1667C6.10526 15.1667 4.3656 14.8221 3.08094 14.2439C1.84321 13.687 0.833496 12.8144 0.833496 11.6667C0.833496 11.0007 1.1822 10.4233 1.69086 9.96273C1.89556 9.77733 2.21175 9.79299 2.3971 9.99773Z" fill="#0696D6"/>
</svg>
