<svg width="40" height="40" viewBox="0 0 40 40" fill="none" xmlns="http://www.w3.org/2000/svg">
<path fill-rule="evenodd" clip-rule="evenodd" d="M33.2738 21.2194C33.9337 21.2205 34.4848 20.6863 34.5045 20.026C34.5243 19.3658 34.0053 18.8296 33.3454 18.8284L21.1978 18.8067L21.2194 6.72643C21.2206 6.06649 20.6863 5.51547 20.0261 5.49569C19.3658 5.47592 18.8296 5.99488 18.8285 6.65482L18.8067 18.8024L6.72621 18.7808C6.06626 18.7796 5.51524 19.3139 5.49547 19.9741C5.47569 20.6344 5.99465 21.1706 6.6546 21.1717L18.8025 21.1935L18.7808 33.274C18.7797 33.934 19.3139 34.485 19.9742 34.5048C20.6344 34.5245 21.1706 34.0056 21.1718 33.3456L21.1935 21.1978L33.2738 21.2194Z" fill="#1B2746"/>
</svg>
