<svg width="41" height="40" viewBox="0 0 41 40" fill="none" xmlns="http://www.w3.org/2000/svg">
<rect x="0.666687" width="40" height="40" rx="8" fill="#FFF0F0"/>
<path fill-rule="evenodd" clip-rule="evenodd" d="M26.8769 13.8304C26.0954 13.7509 25.0868 13.75 23.6667 13.75H17.6667C16.2466 13.75 15.238 13.7509 14.4564 13.8304C13.6874 13.9087 13.2218 14.0567 12.8611 14.2977C12.5062 14.5348 12.2015 14.8395 11.9644 15.1944C11.7234 15.5551 11.5753 16.0207 11.4971 16.7897C11.4176 17.5713 11.4167 18.5799 11.4167 20C11.4167 21.4201 11.4176 22.4287 11.4971 23.2102C11.5753 23.9793 11.7234 24.4449 11.9644 24.8056C12.2015 25.1605 12.5062 25.4652 12.8611 25.7023C13.2218 25.9433 13.6874 26.0914 14.4564 26.1696C15.238 26.2491 16.2466 26.25 17.6667 26.25H23.6667C25.0868 26.25 26.0954 26.2491 26.8769 26.1696C27.646 26.0914 28.1116 25.9433 28.4723 25.7023C28.8272 25.4652 29.1319 25.1605 29.369 24.8056C29.61 24.4449 29.7581 23.9793 29.8363 23.2102C29.9158 22.4287 29.9167 21.4201 29.9167 20C29.9167 18.5799 29.9158 17.5713 29.8363 16.7897C29.7581 16.0207 29.61 15.5551 29.369 15.1944C29.1319 14.8395 28.8272 14.5348 28.4723 14.2977C28.1116 14.0567 27.646 13.9087 26.8769 13.8304ZM27.0288 12.3381C27.9164 12.4284 28.6574 12.6174 29.3057 13.0505C29.8243 13.3971 30.2696 13.8424 30.6162 14.361C31.0493 15.0093 31.2383 15.7503 31.3286 16.6379C31.4167 17.5043 31.4167 18.5892 31.4167 19.9584V20.0416C31.4167 21.4108 31.4167 22.4957 31.3286 23.3621C31.2383 24.2497 31.0493 24.9907 30.6162 25.639C30.2696 26.1576 29.8243 26.6029 29.3057 26.9495C28.6574 27.3826 27.9164 27.5716 27.0288 27.6619C26.1624 27.75 25.0775 27.75 23.7083 27.75H17.6251C16.2559 27.75 15.171 27.75 14.3046 27.6619C13.417 27.5716 12.6759 27.3826 12.0277 26.9495C11.5091 26.6029 11.0638 26.1576 10.7172 25.639C10.2841 24.9907 10.0951 24.2497 10.0048 23.3621C9.91667 22.4957 9.91668 21.4108 9.91669 20.0416V19.9584C9.91668 18.5892 9.91667 17.5043 10.0048 16.6379C10.0951 15.7503 10.2841 15.0093 10.7172 14.361C11.0638 13.8424 11.5091 13.3971 12.0277 13.0505C12.6759 12.6174 13.417 12.4284 14.3046 12.3381C15.171 12.25 16.2559 12.25 17.6251 12.25H23.7083C25.0775 12.25 26.1624 12.25 27.0288 12.3381ZM14.1667 16.25C14.5809 16.25 14.9167 16.5858 14.9167 17V23C14.9167 23.4142 14.5809 23.75 14.1667 23.75C13.7525 23.75 13.4167 23.4142 13.4167 23V17C13.4167 16.5858 13.7525 16.25 14.1667 16.25ZM20.6667 17.75C19.4241 17.75 18.4167 18.7574 18.4167 20C18.4167 21.2426 19.4241 22.25 20.6667 22.25C21.9093 22.25 22.9167 21.2426 22.9167 20C22.9167 18.7574 21.9093 17.75 20.6667 17.75ZM16.9167 20C16.9167 17.9289 18.5956 16.25 20.6667 16.25C22.7378 16.25 24.4167 17.9289 24.4167 20C24.4167 22.0711 22.7378 23.75 20.6667 23.75C18.5956 23.75 16.9167 22.0711 16.9167 20ZM27.1667 16.25C27.5809 16.25 27.9167 16.5858 27.9167 17V23C27.9167 23.4142 27.5809 23.75 27.1667 23.75C26.7525 23.75 26.4167 23.4142 26.4167 23V17C26.4167 16.5858 26.7525 16.25 27.1667 16.25Z" fill="#E83B68"/>
</svg>
