<svg width="40" height="40" viewBox="0 0 40 40" fill="none" xmlns="http://www.w3.org/2000/svg">
<path fill-rule="evenodd" clip-rule="evenodd" d="M20 40C31.0456 40 40 31.0456 40 20C40 8.9543 31.0456 0 20 0C8.9543 0 0 8.9543 0 20C0 31.0456 8.9543 40 20 40ZM12.1522 13.2346C12 13.6022 12 14.0681 12 15V25C12 25.9318 12 26.3978 12.1522 26.7654C12.3552 27.2554 12.7446 27.6448 13.2346 27.8478C13.6022 28 14.0681 28 15 28C15.9319 28 16.3978 28 16.7654 27.8478C17.2554 27.6448 17.6448 27.2554 17.8478 26.7654C18 26.3978 18 25.9318 18 25V15C18 14.0681 18 13.6022 17.8478 13.2346C17.6448 12.7446 17.2554 12.3552 16.7654 12.1522C16.3978 12 15.9319 12 15 12C14.0681 12 13.6022 12 13.2346 12.1522C12.7446 12.3552 12.3552 12.7446 12.1522 13.2346ZM22.1522 13.2346C22 13.6022 22 14.0681 22 15V25C22 25.9318 22 26.3978 22.1522 26.7654C22.3552 27.2554 22.7446 27.6448 23.2346 27.8478C23.6022 28 24.0682 28 25 28C25.9318 28 26.3978 28 26.7654 27.8478C27.2554 27.6448 27.6448 27.2554 27.8478 26.7654C28 26.3978 28 25.9318 28 25V15C28 14.0681 28 13.6022 27.8478 13.2346C27.6448 12.7446 27.2554 12.3552 26.7654 12.1522C26.3978 12 25.9318 12 25 12C24.0682 12 23.6022 12 23.2346 12.1522C22.7446 12.3552 22.3552 12.7446 22.1522 13.2346Z" fill="#1C274C"/>
<path d="M12 15C12 14.0681 12 13.6022 12.1522 13.2346C12.3552 12.7446 12.7446 12.3552 13.2346 12.1522C13.6022 12 14.0681 12 15 12C15.9319 12 16.3978 12 16.7654 12.1522C17.2554 12.3552 17.6448 12.7446 17.8478 13.2346C18 13.6022 18 14.0681 18 15V25C18 25.9318 18 26.3978 17.8478 26.7654C17.6448 27.2554 17.2554 27.6448 16.7654 27.8478C16.3978 28 15.9319 28 15 28C14.0681 28 13.6022 28 13.2346 27.8478C12.7446 27.6448 12.3552 27.2554 12.1522 26.7654C12 26.3978 12 25.9318 12 25V15Z" fill="white"/>
<path d="M22 15C22 14.0681 22 13.6022 22.1522 13.2346C22.3552 12.7446 22.7446 12.3552 23.2346 12.1522C23.6022 12 24.0682 12 25 12C25.9318 12 26.3978 12 26.7654 12.1522C27.2554 12.3552 27.6448 12.7446 27.8478 13.2346C28 13.6022 28 14.0681 28 15V25C28 25.9318 28 26.3978 27.8478 26.7654C27.6448 27.2554 27.2554 27.6448 26.7654 27.8478C26.3978 28 25.9318 28 25 28C24.0682 28 23.6022 28 23.2346 27.8478C22.7446 27.6448 22.3552 27.2554 22.1522 26.7654C22 26.3978 22 25.9318 22 25V15Z" fill="white"/>
</svg>
