<svg width="8" height="9" viewBox="0 0 8 9" fill="none" xmlns="http://www.w3.org/2000/svg">
<path fill-rule="evenodd" clip-rule="evenodd" d="M0 1.64306C0.232313 1.36219 0.447905 1.06486 0.700469 0.803923C1.18171 0.306478 1.98022 0.435589 2.25023 1.07483C2.43051 1.5019 2.58556 1.96158 2.62699 2.41823C2.65026 2.67445 2.47548 3.00608 2.28938 3.2106C2.03993 3.48475 2.01241 3.71266 2.15323 4.03453C2.65753 5.18769 3.47919 5.98802 4.65997 6.40879C4.81658 6.46459 4.94701 6.45913 5.06436 6.32751C5.12833 6.25577 5.20217 6.19169 5.27767 6.13233C5.57053 5.90243 5.87315 5.7425 6.26747 5.88755C6.54558 5.9898 6.8429 6.03753 7.12672 6.12574C7.50889 6.24436 7.79261 6.47088 7.8894 6.88872C7.90425 6.95269 7.96209 7.00641 8 7.06483V7.17116C7.86956 7.3847 7.77267 7.63231 7.60091 7.80358C7.34014 8.06358 7.02744 8.27052 6.73687 8.5H6.63156C6.4707 8.46172 6.31067 8.41987 6.14897 8.38578C5.63709 8.27797 5.11504 8.20623 4.61417 8.06035C3.44627 7.72012 2.49126 7.03409 1.69774 6.11387C0.928004 5.22103 0.422567 4.19415 0.203962 3.02935C0.124413 2.6049 0.067295 2.17617 0 1.74942V1.64306Z" fill="#7C878E"/>
</svg>
