<svg width="16" height="16" viewBox="0 0 16 16" fill="none" xmlns="http://www.w3.org/2000/svg">
<path d="M11.1666 5.16683H4.83325C4.55992 5.16683 4.33325 4.94016 4.33325 4.66683V3.3335C4.33325 1.62683 5.12659 0.833496 6.83325 0.833496H9.16659C10.8733 0.833496 11.6666 1.62683 11.6666 3.3335V4.66683C11.6666 4.94016 11.4399 5.16683 11.1666 5.16683ZM5.33325 4.16683H10.6666V3.3335C10.6666 2.20016 10.2999 1.8335 9.16659 1.8335H6.83325C5.69992 1.8335 5.33325 2.20016 5.33325 3.3335V4.16683Z" fill="#576A7A"/>
<path d="M8.66659 15.1667H7.33325C5.71992 15.1667 4.83325 14.28 4.83325 12.6667V10C4.83325 9.72667 5.05992 9.5 5.33325 9.5H10.6666C10.9399 9.5 11.1666 9.72667 11.1666 10V12.6667C11.1666 14.28 10.2799 15.1667 8.66659 15.1667ZM5.83325 10.5V12.6667C5.83325 13.72 6.27992 14.1667 7.33325 14.1667H8.66659C9.71992 14.1667 10.1666 13.72 10.1666 12.6667V10.5H5.83325Z" fill="#576A7A"/>
<path d="M12 12.4998H10.6667C10.3933 12.4998 10.1667 12.2732 10.1667 11.9998V10.4998H5.83333V11.9998C5.83333 12.2732 5.60667 12.4998 5.33333 12.4998H4C2.38667 12.4998 1.5 11.6132 1.5 9.99984V6.6665C1.5 5.05317 2.38667 4.1665 4 4.1665H12C13.6133 4.1665 14.5 5.05317 14.5 6.6665V9.99984C14.5 11.6132 13.6133 12.4998 12 12.4998ZM11.1667 11.4998H12C13.0533 11.4998 13.5 11.0532 13.5 9.99984V6.6665C13.5 5.61317 13.0533 5.1665 12 5.1665H4C2.94667 5.1665 2.5 5.61317 2.5 6.6665V9.99984C2.5 11.0532 2.94667 11.4998 4 11.4998H4.83333V9.99984C4.83333 9.7265 5.06 9.49984 5.33333 9.49984H10.6667C10.94 9.49984 11.1667 9.7265 11.1667 9.99984V11.4998Z" fill="#576A7A"/>
<path d="M11.3334 10.5H4.66675C4.39341 10.5 4.16675 10.2733 4.16675 10C4.16675 9.72667 4.39341 9.5 4.66675 9.5H11.3334C11.6067 9.5 11.8334 9.72667 11.8334 10C11.8334 10.2733 11.6067 10.5 11.3334 10.5Z" fill="#576A7A"/>
<path d="M6.66675 7.8335H4.66675C4.39341 7.8335 4.16675 7.60683 4.16675 7.3335C4.16675 7.06016 4.39341 6.8335 4.66675 6.8335H6.66675C6.94008 6.8335 7.16675 7.06016 7.16675 7.3335C7.16675 7.60683 6.94008 7.8335 6.66675 7.8335Z" fill="#576A7A"/>
</svg>
