<svg width="16" height="16" viewBox="0 0 16 16" fill="none" xmlns="http://www.w3.org/2000/svg">
<path fill-rule="evenodd" clip-rule="evenodd" d="M8.34497 15.4805C12.4871 15.4805 15.845 12.1226 15.845 7.98047C15.845 3.83833 12.4871 0.480469 8.34497 0.480469C4.20283 0.480469 0.844971 3.83833 0.844971 7.98047C0.844971 12.1226 4.20283 15.4805 8.34497 15.4805ZM7.3651 10.8648L10.9052 8.77472C11.4915 8.42852 11.4915 7.53242 10.9052 7.18622L7.3651 5.09611C6.79525 4.75968 6.09497 5.19757 6.09497 5.89034V10.0706C6.09497 10.7633 6.79525 11.2013 7.3651 10.8648Z" fill="#1C274C"/>
<path d="M10.9052 8.77472L7.3651 10.8648C6.79525 11.2013 6.09497 10.7633 6.09497 10.0706V5.89034C6.09497 5.19757 6.79525 4.75968 7.3651 5.09611L10.9052 7.18622C11.4915 7.53242 11.4915 8.42852 10.9052 8.77472Z" fill="white"/>
</svg>
