<svg width="22" height="23" viewBox="0 0 22 23" fill="none" xmlns="http://www.w3.org/2000/svg">
<path fill-rule="evenodd" clip-rule="evenodd" d="M3.8501 13.5186C3.8501 10.4536 3.8501 7.38858 3.8501 4.32354C3.86264 4.29091 3.87651 4.25877 3.88755 4.22565C3.97458 3.96407 4.16424 3.83076 4.43631 3.86056C4.54044 3.87193 4.6469 3.90668 4.74156 3.95288C5.2428 4.19745 5.74075 4.44886 6.23962 4.69826C8.41366 5.78531 10.5903 6.86729 12.76 7.96298C13.3634 8.26768 13.6836 8.78832 13.6857 9.46366C13.6944 12.3794 13.6885 15.2953 13.6909 18.211C13.6911 18.5237 13.6021 18.7735 13.2912 18.9003C13.2093 18.9003 13.1272 18.9003 13.0452 18.9003C12.9472 18.8582 12.8467 18.8208 12.7514 18.7732C10.1023 17.4499 7.45411 16.1248 4.80445 14.8026C4.5159 14.6585 4.27848 14.4578 4.12604 14.1779C4.01269 13.9698 3.94057 13.7392 3.8501 13.5186ZM11.7264 12.8574C11.7217 12.4922 11.6492 12.1458 11.4534 11.833C11.328 11.6327 11.1661 11.4722 10.934 11.4012C10.6031 11.2999 10.2501 11.4479 10.0339 11.8228C9.63901 12.5076 9.6331 13.2139 10.0437 13.8898C10.404 14.4829 11.0586 14.4717 11.4393 13.8915C11.6449 13.5781 11.7196 13.2264 11.7264 12.8574Z" fill="#0696D6"/>
<path fill-rule="evenodd" clip-rule="evenodd" d="M6.13909 3.50001C7.32289 3.50001 8.50666 3.49998 9.69043 3.50004C12.3043 3.50016 14.9182 3.50056 17.5321 3.50041C18.199 3.50038 18.6094 3.90625 18.6094 4.56916C18.6096 7.47004 18.6097 10.3709 18.6094 13.2718C18.6094 13.9097 18.2007 14.3196 17.563 14.3204C16.6559 14.3215 15.7487 14.3211 14.8416 14.321C14.7917 14.321 14.7419 14.3164 14.6846 14.3136C14.6846 12.6771 14.6846 11.0501 14.6846 9.40894C15.3355 9.40894 15.9792 9.40894 16.634 9.40894C16.634 9.07543 16.634 8.75588 16.634 8.41667C16.5771 8.41667 16.5226 8.41667 16.4681 8.41667C15.8428 8.4167 15.2175 8.41458 14.5922 8.41895C14.4924 8.41963 14.4403 8.39219 14.3933 8.29849C14.1142 7.74147 13.707 7.31037 13.1364 7.04076C12.8078 6.88555 12.4854 6.7174 12.1605 6.55444C12.1167 6.53242 12.0747 6.50671 12.0369 6.45837C13.5652 6.45837 15.0935 6.45837 16.6335 6.45837C16.6335 6.12368 16.6335 5.80413 16.6335 5.46382C16.5777 5.46382 16.5232 5.46382 16.4688 5.46382C14.3623 5.46407 12.2559 5.4653 10.1494 5.46154C10.0468 5.46136 9.93473 5.43673 9.84302 5.39127C8.65052 4.80033 7.46088 4.2036 6.27065 3.60798C6.22225 3.58375 6.17563 3.55595 6.12817 3.52981C6.13177 3.51981 6.13543 3.50991 6.13909 3.50001Z" fill="#0696D6"/>
</svg>
