<svg width="21" height="20" viewBox="0 0 21 20" fill="none" xmlns="http://www.w3.org/2000/svg">
<path fill-rule="evenodd" clip-rule="evenodd" d="M6.40877 5.83317C6.40877 3.49984 8.24211 1.6665 10.5754 1.6665C12.9088 1.6665 14.7421 3.49984 14.7421 5.83317C14.7421 8.1665 12.9088 9.99984 10.5754 9.99984C8.24211 9.99984 6.40877 8.1665 6.40877 5.83317ZM18.0754 15.8332V17.4998C18.0754 17.9998 17.7421 18.3332 17.2421 18.3332C16.7421 18.3332 16.4088 17.9998 16.4088 17.4998V15.8332C16.4088 14.4165 15.3254 13.3332 13.9088 13.3332H7.24211C5.82544 13.3332 4.74211 14.4165 4.74211 15.8332V17.4998C4.74211 17.9998 4.40877 18.3332 3.90877 18.3332C3.40877 18.3332 3.07544 17.9998 3.07544 17.4998V15.8332C3.07544 13.4998 4.90877 11.6665 7.24211 11.6665H13.9088C16.2421 11.6665 18.0754 13.4998 18.0754 15.8332ZM10.5754 8.33317C9.15877 8.33317 8.07544 7.24984 8.07544 5.83317C8.07544 4.4165 9.15877 3.33317 10.5754 3.33317C11.9921 3.33317 13.0754 4.4165 13.0754 5.83317C13.0754 7.24984 11.9921 8.33317 10.5754 8.33317Z" fill="#0095B7"/>
</svg>
