<svg width="18" height="14" viewBox="0 0 18 14" fill="none" xmlns="http://www.w3.org/2000/svg">
<path fill-rule="evenodd" clip-rule="evenodd" d="M15.1948 3.98991H16.8507C17.4841 3.98991 18 4.50202 18 5.13185V12.4848C18 13.1146 17.4841 13.6267 16.8507 13.6267H4.59472C3.96118 13.6267 3.44604 13.1146 3.44604 12.4848V11.9361L3.00622 12.0133C2.93884 12.0255 2.87133 12.0312 2.80395 12.0312C2.57007 12.0312 2.34265 11.9598 2.14673 11.8236C1.89563 11.6482 1.72839 11.3857 1.67529 11.0854L0.388181 3.83015C0.277707 3.2096 0.696042 2.61546 1.31946 2.50636L13.3895 0.390116C14.0081 0.283121 14.6114 0.697519 14.7205 1.31806L15.1948 3.98991ZM2.76025 10.8957L1.68115 4.81303L1.51111 3.58479L13.6357 1.50779L14.0762 3.98994H4.59485C3.9613 3.98994 3.44616 4.50205 3.44616 5.13185V10.8046L2.76025 10.8957ZM16.8981 6.206V5.13185L4.59472 5.08549L4.55249 6.206H16.8981ZM4.54809 12.4848L16.8506 12.5312C16.8765 12.5312 16.8979 12.5105 16.8979 12.4848V8.14536H4.54809V12.4848Z" fill="#0696D6"/>
</svg>
