<svg width="18" height="19" viewBox="0 0 18 19" fill="none" xmlns="http://www.w3.org/2000/svg">
<path d="M12.6729 16.2962L2.21539 9.50001L12.6729 2.70386L13.6154 4.40265L5.77137 9.50001L13.6154 14.5974L12.6729 16.2962Z" fill="#0696D6"/>
<path d="M13.6154 7.08841C15.3105 7.08841 16.6846 5.71427 16.6846 4.01918C16.6846 2.32409 15.3105 0.949951 13.6154 0.949951C11.9203 0.949951 10.5461 2.32409 10.5461 4.01918C10.5461 5.71427 11.9203 7.08841 13.6154 7.08841Z" fill="#0696D6"/>
<path d="M3.96925 12.7884C5.66434 12.7884 7.03849 11.4142 7.03849 9.71913C7.03849 8.02404 5.66434 6.6499 3.96925 6.6499C2.27417 6.6499 0.900024 8.02404 0.900024 9.71913C0.900024 11.4142 2.27417 12.7884 3.96925 12.7884Z" fill="#0696D6"/>
<path d="M13.6154 18.0498C15.3105 18.0498 16.6846 16.6757 16.6846 14.9806C16.6846 13.2855 15.3105 11.9114 13.6154 11.9114C11.9203 11.9114 10.5461 13.2855 10.5461 14.9806C10.5461 16.6757 11.9203 18.0498 13.6154 18.0498Z" fill="#0696D6"/>
</svg>
