<svg width="16" height="17" viewBox="0 0 16 17" fill="none" xmlns="http://www.w3.org/2000/svg">
<g id="agenda/ic-pin">
<path id="Vector" fill-rule="evenodd" clip-rule="evenodd" d="M2.83325 6.17641C2.83325 3.46841 5.18089 1.33331 7.99992 1.33331C10.8189 1.33331 13.1666 3.46841 13.1666 6.17641C13.1666 8.71718 11.5913 11.7 9.04978 12.7861C8.38258 13.0712 7.61725 13.0712 6.95005 12.7861C4.40851 11.7 2.83325 8.71718 2.83325 6.17641ZM7.99992 2.33331C5.66429 2.33331 3.83325 4.08715 3.83325 6.17641C3.83325 8.39531 5.23687 10.9665 7.34305 11.8666C7.75925 12.0444 8.24058 12.0444 8.65679 11.8666C10.763 10.9665 12.1666 8.39531 12.1666 6.17641C12.1666 4.08715 10.3355 2.33331 7.99992 2.33331ZM7.99992 5.66665C7.53965 5.66665 7.16658 6.03974 7.16658 6.49998C7.16658 6.96022 7.53965 7.33331 7.99992 7.33331C8.46019 7.33331 8.83325 6.96022 8.83325 6.49998C8.83325 6.03974 8.46019 5.66665 7.99992 5.66665ZM6.16658 6.49998C6.16658 5.48746 6.98738 4.66665 7.99992 4.66665C9.01245 4.66665 9.83325 5.48746 9.83325 6.49998C9.83325 7.51251 9.01245 8.33331 7.99992 8.33331C6.98738 8.33331 6.16658 7.51251 6.16658 6.49998ZM2.39686 10.4977C2.58221 10.7024 2.56653 11.0186 2.36184 11.2039C1.98338 11.5466 1.83325 11.8747 1.83325 12.1666C1.83325 12.6758 2.31593 13.3032 3.49106 13.832C4.61925 14.3397 6.21292 14.6666 7.99992 14.6666C9.78692 14.6666 11.3806 14.3397 12.5088 13.832C13.6839 13.3032 14.1666 12.6758 14.1666 12.1666C14.1666 11.8747 14.0165 11.5466 13.638 11.2039C13.4333 11.0186 13.4177 10.7024 13.603 10.4977C13.7883 10.293 14.1045 10.2773 14.3092 10.4627C14.8179 10.9233 15.1666 11.5007 15.1666 12.1666C15.1666 13.3144 14.1569 14.187 12.9191 14.7439C11.6345 15.322 9.89485 15.6666 7.99992 15.6666C6.10501 15.6666 4.36535 15.322 3.08069 14.7439C1.84297 14.187 0.833252 13.3144 0.833252 12.1666C0.833252 11.5007 1.18195 10.9233 1.69062 10.4627C1.89531 10.2773 2.21151 10.293 2.39686 10.4977Z" fill="#1C274C"/>
</g>
</svg>
