<svg width="24" height="22" viewBox="0 0 24 22" fill="none" xmlns="http://www.w3.org/2000/svg">
<path fill-rule="evenodd" clip-rule="evenodd" d="M0.223877 3.58702C0.91175 2.85608 1.55011 2.08232 2.29795 1.40324C3.72289 0.108679 6.08725 0.444679 6.88674 2.10826C7.42056 3.21967 7.87965 4.41596 8.00234 5.60435C8.07122 6.27115 7.5537 7.13419 7.00266 7.66642C6.26405 8.37989 6.18258 8.97299 6.59955 9.81065C8.09276 12.8116 10.5257 14.8944 14.0219 15.9895C14.4856 16.1347 14.8718 16.1205 15.2193 15.7779C15.4087 15.5912 15.6274 15.4245 15.8509 15.27C16.7181 14.6717 17.6141 14.2555 18.7817 14.633C19.6052 14.8991 20.4855 15.0233 21.3259 15.2528C22.4575 15.5615 23.2976 16.151 23.5842 17.2384C23.6282 17.4049 23.7994 17.5447 23.9117 17.6968V17.9735C23.5255 18.5292 23.2386 19.1736 22.73 19.6193C21.9578 20.2959 21.032 20.8345 20.1716 21.4317H19.8598C19.3835 21.3321 18.9096 21.2231 18.4308 21.1344C16.9152 20.8539 15.3694 20.6672 13.8863 20.2875C10.4282 19.4021 7.60044 17.6168 5.25085 15.222C2.97167 12.8984 1.47509 10.226 0.827803 7.19474C0.59226 6.09015 0.423136 4.97441 0.223877 3.86381V3.58702Z" fill="#00234B"/>
</svg>
