<svg width="16" height="16" viewBox="0 0 16 16" fill="none" xmlns="http://www.w3.org/2000/svg">
<path d="M6.92677 4.20007C7.459 4.21734 8.17 4.41472 8.73602 4.91218C9.65079 5.71659 9.63287 6.67937 8.67958 7.44269C8.56211 7.53675 8.4392 7.62605 8.31657 7.71516C7.83877 8.06233 7.36517 8.40646 7.23394 9.01695C7.17987 9.26822 6.86053 9.29502 6.59695 9.24708C6.28876 9.19171 6.11574 9.011 6.07519 8.73473C5.99206 8.16968 6.23571 7.71598 6.7017 7.34653C6.84164 7.23567 6.98732 7.13049 7.13301 7.02531C7.27017 6.92628 7.40736 6.82723 7.53976 6.72343C8.03246 6.3379 8.06186 5.91903 7.59619 5.50492C7.16635 5.12236 6.37932 5.12029 6.01098 5.50582C5.85521 5.66845 5.7521 5.87518 5.65319 6.0735L5.64738 6.08515C5.48247 6.41501 5.23849 6.65794 4.80899 6.5195C4.36158 6.37512 4.17402 6.07443 4.29838 5.62996C4.54405 4.75172 5.45071 4.19412 6.92677 4.20007Z" fill="#0696D6"/>
<path d="M6.19151 10.4534C6.18074 10.8723 6.46124 11.0903 6.8588 11.1667C7.23593 11.1313 7.48938 10.9469 7.47778 10.5774C7.46508 10.1634 7.18182 9.90575 6.77239 9.90008C6.4502 9.89603 6.20007 10.1248 6.19151 10.4534Z" fill="#0696D6"/>
<path fill-rule="evenodd" clip-rule="evenodd" d="M2.53635 12.0708C1.55287 11.0311 0.745591 9.8817 0.50074 8.43658C0.151177 6.37269 0.697622 4.57745 2.34104 3.24588C2.45507 3.15345 2.56886 3.06047 2.68271 2.96743C3.95556 1.9273 5.23579 0.881143 6.93364 0.534941C10.6854 -0.230088 14.5087 2.34371 15.1372 6.09367C15.3263 7.22046 15.0736 8.27332 14.5667 9.27648C14.5312 9.3468 14.4901 9.41462 14.4491 9.4824C14.3419 9.6593 14.2348 9.836 14.2287 10.0566C13.3195 10.5486 12.9938 11.1532 13.1581 12.0805C13.2926 12.8399 13.2029 13.5024 12.5881 14.0673C12.3307 14.3046 12.1226 14.5955 11.9146 14.8863C11.8208 15.0174 11.727 15.1485 11.6288 15.2747C11.1039 15.7824 10.5361 15.5913 9.96811 15.4001L9.91323 15.3816C9.43356 14.6597 8.68992 14.0705 7.9284 14.0513C5.87178 14.0007 4.11487 13.3303 2.53635 12.0708ZM6.47059 2.51861C6.39636 2.51861 6.32197 2.51688 6.24758 2.51515C6.08663 2.51141 5.92565 2.50766 5.76613 2.52143C1.86952 2.85361 -0.185221 6.9106 1.88018 10.223C2.90253 11.8622 4.40581 12.8421 6.28781 13.2076C6.5857 13.2654 6.88923 13.298 7.19237 13.3305C8.06009 13.4237 8.92452 13.5165 9.64362 14.1979C9.67923 14.2317 9.71667 14.2683 9.75563 14.3063C10.0812 14.6244 10.5131 15.0464 10.8757 14.8314C11.1517 14.6674 11.0245 14.2471 10.9075 13.8604C10.8702 13.737 10.8339 13.6171 10.8121 13.5099C10.6747 12.8364 10.7961 12.4071 11.3739 11.9286C12.6699 10.8566 13.1954 9.39601 12.9129 7.71495C12.4094 4.7146 9.65804 2.50288 6.47059 2.51861Z" fill="#0696D6"/>
</svg>
