<svg width="20" height="21" viewBox="0 0 20 21" fill="none" xmlns="http://www.w3.org/2000/svg">
<path d="M12.3585 4.89168L10.5835 3.11668C10.0668 2.60001 9.16683 2.96668 9.16683 3.70834V4.25834C5.8835 4.66668 3.3335 7.46668 3.3335 10.8667C3.3335 13.9 5.3585 16.4583 8.14183 17.2667C8.65849 17.4167 9.16683 17 9.16683 16.4667V16.4417C9.1694 16.2675 9.11563 16.0971 9.01351 15.956C8.9114 15.8148 8.76642 15.7104 8.60016 15.6583C7.56141 15.3585 6.64841 14.7288 5.99899 13.8644C5.34957 13 4.99898 11.9478 5.00016 10.8667C5.00016 8.39168 6.80016 6.34168 9.16683 5.94168V7.21668C9.16683 7.95834 10.0585 8.32501 10.5835 7.80834L12.3585 6.07501C12.4376 5.99812 12.5005 5.90614 12.5435 5.80451C12.5864 5.70288 12.6086 5.59367 12.6086 5.48334C12.6086 5.37301 12.5864 5.2638 12.5435 5.16217C12.5005 5.06055 12.4376 4.96857 12.3585 4.89168ZM16.3918 9.00001C16.2585 8.54168 16.0752 8.10001 15.8418 7.67501C15.5835 7.20001 14.9252 7.12501 14.5418 7.50834L14.5335 7.51668C14.2752 7.77501 14.2168 8.16668 14.3918 8.48334C14.5585 8.79168 14.6918 9.11668 14.7918 9.45001C14.8918 9.80001 15.2168 10.0333 15.5752 10.0333H15.5918C16.1335 10.0333 16.5502 9.51668 16.3918 9.00001ZM10.8335 16.4333V16.45C10.8335 16.9917 11.3502 17.4 11.8668 17.25C12.3252 17.1167 12.7668 16.9333 13.1918 16.7C13.6668 16.4417 13.7418 15.7833 13.3585 15.4L13.3418 15.3833C13.2181 15.2577 13.0567 15.1759 12.8823 15.1504C12.7078 15.1248 12.5297 15.1569 12.3752 15.2417C12.0668 15.4167 11.7418 15.55 11.4085 15.65C11.0668 15.75 10.8335 16.075 10.8335 16.4333ZM14.5335 14.225C14.9168 14.6083 15.5752 14.5333 15.8335 14.0583C16.0668 13.6333 16.2502 13.1917 16.3918 12.7333C16.5418 12.2167 16.1335 11.7 15.5918 11.7H15.5752C15.2085 11.7 14.8918 11.9333 14.7918 12.2833C14.6918 12.6167 14.5585 12.9417 14.3918 13.2583C14.2168 13.575 14.2835 13.975 14.5335 14.225Z" fill="#1B2746"/>
</svg>
