<svg width="16" height="16" viewBox="0 0 16 16" fill="none" xmlns="http://www.w3.org/2000/svg">
    <g clip-path="url(#clip0_21038_444899)">
        <path fill-rule="evenodd" clip-rule="evenodd"
              d="M6.88327 5.2161C7.05653 5.29936 7.16667 5.47455 7.16667 5.66675V10.3334C7.16667 10.6095 6.9428 10.8334 6.66667 10.8334C6.39054 10.8334 6.16669 10.6095 6.16669 10.3334V6.70708L5.31237 7.39055C5.09673 7.56301 4.78209 7.52808 4.60959 7.31241C4.43708 7.09681 4.47204 6.78215 4.68767 6.60965L6.35434 5.27632C6.50442 5.15625 6.71007 5.13284 6.88327 5.2161ZM9.5 6.16675C9.1318 6.16675 8.83333 6.46523 8.83333 6.83341V9.16675C8.83333 9.53495 9.1318 9.83341 9.5 9.83341C9.8682 9.83341 10.1667 9.53495 10.1667 9.16675V6.83341C10.1667 6.46523 9.8682 6.16675 9.5 6.16675ZM7.83333 6.83341C7.83333 5.91295 8.57953 5.16676 9.5 5.16676C10.4205 5.16676 11.1667 5.91295 11.1667 6.83341V9.16675C11.1667 10.0872 10.4205 10.8334 9.5 10.8334C8.57953 10.8334 7.83333 10.0872 7.83333 9.16675V6.83341Z"
              fill="white"/>
        <path fill-rule="evenodd" clip-rule="evenodd"
              d="M8.45066 1.11666C8.3674 0.943425 8.1922 0.833252 8 0.833252C7.5098 0.833252 7.0306 0.882545 6.5672 0.976605C3.29578 1.64067 0.833332 4.53217 0.833332 7.99992C0.833332 11.958 4.04196 15.1666 8 15.1666C11.9581 15.1666 15.1667 11.958 15.1667 7.99992C15.1667 5.06035 13.3969 2.53524 10.8669 1.4298C10.6138 1.31924 10.3191 1.43475 10.2085 1.68779C10.0979 1.94083 10.2135 2.23559 10.4665 2.34615C12.6455 3.2982 14.1667 5.47197 14.1667 7.99992C14.1667 11.4057 11.4057 14.1666 8 14.1666C4.59424 14.1666 1.83333 11.4057 1.83333 7.99992C1.83333 5.23294 3.65614 2.89073 6.16667 2.11021V2.99992C6.16667 3.21227 6.30079 3.40144 6.50116 3.47173C6.70153 3.54202 6.92447 3.47808 7.05713 3.31227L8.39046 1.6456C8.51053 1.49551 8.53393 1.28989 8.45066 1.11666Z"
              fill="white"/>
    </g>
    <defs>
        <clipPath id="clip0_21038_444899">
            <rect width="16" height="16" fill="white"/>
        </clipPath>
    </defs>
</svg>
