<svg width="33" height="32" viewBox="0 0 33 32" fill="none" xmlns="http://www.w3.org/2000/svg">
<path fill-rule="evenodd" clip-rule="evenodd" d="M3.7002 23.6599C3.7002 19.2345 3.7002 14.8089 3.7002 10.3834C3.73113 10.3456 3.77465 10.3125 3.79105 10.2693C4.27739 8.98655 5.05918 8.44405 6.43724 8.44201C7.6043 8.44038 8.77714 8.37165 9.93658 8.46489C10.9519 8.54659 11.6426 8.28065 12.1456 7.36508C12.5209 6.68216 13.2229 6.40039 14.0173 6.4007C15.9395 6.40121 17.8616 6.40151 19.7838 6.40039C20.5789 6.39998 21.206 6.72281 21.6736 7.35538C21.8562 7.60212 22.0522 7.84099 22.2122 8.10142C22.3723 8.36205 22.5722 8.45253 22.8842 8.44926C24.4115 8.43313 25.939 8.43956 27.4665 8.4465C27.7042 8.44763 27.9463 8.47122 28.1786 8.52085C29.2101 8.74124 29.7367 9.48197 30.1002 10.3834C30.1002 14.8089 30.1002 19.2345 30.1002 23.6599C30.0692 23.6977 30.0254 23.7308 30.0091 23.7741C29.5216 25.0615 28.7454 25.5996 27.3604 25.5998C20.3869 25.6006 13.4133 25.6016 6.43981 25.5955C6.11755 25.5953 5.78456 25.5669 5.47508 25.4838C4.5252 25.2291 4.04216 24.5068 3.7002 23.6599ZM12.7588 21.4217C12.9698 21.5979 13.0611 21.6739 13.152 21.7501C15.1452 23.4193 17.9438 23.6182 20.1511 22.2285C21.503 21.3774 22.3585 20.1616 22.7422 18.623C22.8678 18.1196 22.6409 17.6941 22.1977 17.5618C21.7551 17.4297 21.3326 17.6709 21.1607 18.1595C21.11 18.3037 21.0771 18.454 21.0297 18.5996C20.0721 21.5465 16.2066 22.5062 13.9151 20.185C14.3485 19.8637 14.7845 19.5402 15.3219 19.1417C13.5405 18.6699 11.9604 18.2514 10.305 17.8129C10.7341 19.4059 11.1391 20.9108 11.5463 22.415C11.5628 22.4762 11.5996 22.5321 11.6553 22.6506C12.035 22.2277 12.3847 21.8383 12.7588 21.4217ZM21.0465 12.5137C20.8299 12.3327 20.7385 12.257 20.6478 12.1804C18.6951 10.5311 15.8746 10.318 13.6946 11.6734C12.3235 12.5259 11.4466 13.7456 11.057 15.302C10.9307 15.8067 11.1531 16.2194 11.6011 16.3639C12.0371 16.5044 12.4534 16.2692 12.6383 15.7714C12.6915 15.6283 12.7252 15.4781 12.7714 15.3323C13.7032 12.3919 17.5419 11.4356 19.8674 13.714C19.4504 14.0524 19.0325 14.3914 18.5295 14.7995C20.2636 15.2585 21.8409 15.6759 23.4974 16.1143C23.05 14.4626 22.6267 12.8997 22.1713 11.2187C21.755 11.6982 21.4112 12.094 21.0465 12.5137Z" fill="#1B2746"/>
</svg>
