<svg width="40" height="40" viewBox="0 0 40 40" fill="none" xmlns="http://www.w3.org/2000/svg">
<path fill-rule="evenodd" clip-rule="evenodd" d="M19.9043 2.08334H20.0956C23.9429 2.08333 26.9579 2.08331 29.3104 2.39959C31.7183 2.72333 33.6184 3.39889 35.1098 4.89024C36.6011 6.38159 37.2766 8.28163 37.6004 10.6895C37.9166 13.042 37.9166 16.0571 37.9166 19.9043V20.0957C37.9166 23.943 37.9166 26.958 37.6004 29.3105C37.2766 31.7183 36.6011 33.6185 35.1098 35.1098C33.6184 36.6012 31.7183 37.2767 29.3104 37.6005C26.9579 37.9167 23.9429 37.9167 20.0956 37.9167H19.9043C16.057 37.9167 13.0419 37.9167 10.6894 37.6005C8.28154 37.2767 6.3815 36.6012 4.89015 35.1098C3.3988 33.6185 2.72324 31.7183 2.3995 29.3105C2.08322 26.958 2.08324 23.943 2.08325 20.0957V19.9043C2.08324 16.0571 2.08322 13.042 2.3995 10.6895C2.72324 8.28163 3.3988 6.38159 4.89015 4.89024C6.3815 3.39889 8.28154 2.72333 10.6894 2.39959C13.0419 2.08331 16.057 2.08333 19.9043 2.08334ZM11.0226 4.87729C8.89187 5.16376 7.60734 5.70858 6.65792 6.65801C5.70849 7.60743 5.16367 8.89196 4.8772 11.0226C4.5859 13.1893 4.58325 16.0363 4.58325 20C4.58325 23.9637 4.5859 26.8107 4.8772 28.9773C5.16367 31.108 5.70849 32.3925 6.65792 33.342C7.60734 34.2915 8.89187 34.8363 11.0226 35.1227C13.1892 35.414 16.0362 35.4167 19.9999 35.4167C23.9636 35.4167 26.8106 35.414 28.9773 35.1227C31.1079 34.8363 32.3924 34.2915 33.3419 33.342C34.2914 32.3925 34.8363 31.108 35.1226 28.9773C35.4139 26.8107 35.4166 23.9637 35.4166 20C35.4166 16.0363 35.4139 13.1893 35.1226 11.0226C34.8363 8.89196 34.2914 7.60743 33.3419 6.65801C32.3924 5.70858 31.1079 5.16376 28.9773 4.87729C26.8106 4.58599 23.9636 4.58334 19.9999 4.58334C16.0362 4.58334 13.1892 4.58599 11.0226 4.87729ZM18.3376 10.8448C18.7914 11.3649 18.7378 12.1545 18.2178 12.6085L14.9999 15.4167H28.3333C29.0236 15.4167 29.5833 15.9763 29.5833 16.6667C29.5833 17.357 29.0236 17.9167 28.3333 17.9167H11.6666C11.1455 17.9167 10.6791 17.5935 10.4962 17.1055C10.3132 16.6177 10.4521 16.0675 10.8447 15.7249L16.5738 10.7249C17.0939 10.271 17.8836 10.3246 18.3376 10.8448ZM24.9999 24.5833H11.6666C10.9762 24.5833 10.4166 24.0237 10.4166 23.3333C10.4166 22.643 10.9762 22.0833 11.6666 22.0833H28.3333C28.8543 22.0833 29.3208 22.4065 29.5036 22.8945C29.6866 23.3823 29.5478 23.9325 29.1553 24.2752L23.4261 29.2752C22.9059 29.729 22.1163 29.6753 21.6623 29.1553C21.2084 28.6352 21.2621 27.8455 21.7821 27.3915L24.9999 24.5833Z" fill="#7C878E"/>
</svg>
