<svg width="40" height="40" viewBox="0 0 40 40" fill="none" xmlns="http://www.w3.org/2000/svg">
<path fill-rule="evenodd" clip-rule="evenodd" d="M24.8938 28.8653C22.418 30.6644 19.3723 31.7438 16.1105 31.7438C7.77908 31.7438 1 24.8275 1 16.3719C1 7.91636 7.77908 1 16.1105 1C24.4222 1 31.2209 7.91636 31.2209 16.3719C31.2209 19.8701 30.0616 23.0884 28.1163 25.687L37.3712 35.122C37.8035 35.5618 38 36.1215 38 36.7212C38 38.0005 37.0765 39 35.7993 39C35.2098 39 34.6399 38.7801 34.2076 38.3403L24.8938 28.8653ZM4.26182 16.3719C4.26182 22.9684 9.60648 28.4256 16.1105 28.4256C22.5948 28.4256 27.9591 22.9684 27.9591 16.3719C27.9591 9.77538 22.5948 4.31825 16.1105 4.31825C9.60648 4.31825 4.26182 9.77538 4.26182 16.3719ZM17.6151 19.7696L17.9255 10.1819H14.5317L14.842 19.7696H17.6151ZM14.9837 23.683C15.3301 24.0248 15.7439 24.1957 16.2252 24.1957C16.5401 24.1957 16.828 24.117 17.0888 23.9596C17.3542 23.8021 17.5679 23.5907 17.7298 23.3254C17.8963 23.06 17.9795 22.7653 17.9795 22.4415C17.9795 21.9647 17.8018 21.5576 17.4464 21.2202C17.0956 20.8784 16.6885 20.7075 16.2252 20.7075C15.7439 20.7075 15.3301 20.8784 14.9837 21.2202C14.6419 21.5576 14.4709 21.9647 14.4709 22.4415C14.4709 22.9273 14.6419 23.3411 14.9837 23.683Z" fill="#1B2746"/>
</svg>
