<svg width="16" height="16" viewBox="0 0 16 16" fill="none" xmlns="http://www.w3.org/2000/svg">
    <path d="M5.83334 7.99992C5.83334 6.80332 6.80341 5.83325 8.00001 5.83325C9.19661 5.83325 10.1667 6.80332 10.1667 7.99992C10.1667 9.19652 9.19661 10.1666 8.00001 10.1666C6.80341 10.1666 5.83334 9.19652 5.83334 7.99992Z"
          fill="white"/>
    <path fill-rule="evenodd" clip-rule="evenodd"
          d="M8.00001 14.6666C11.6819 14.6666 14.6667 11.6818 14.6667 7.99992C14.6667 4.31802 11.6819 1.33325 8.00001 1.33325C4.31811 1.33325 1.33334 4.31802 1.33334 7.99992C1.33334 11.6818 4.31811 14.6666 8.00001 14.6666ZM8.00001 4.83325C6.25111 4.83325 4.83334 6.25102 4.83334 7.99992C4.83334 9.74885 6.25111 11.1666 8.00001 11.1666C9.74894 11.1666 11.1667 9.74885 11.1667 7.99992C11.1667 6.25102 9.74894 4.83325 8.00001 4.83325Z"
          fill="white"/>
</svg>
