<svg width="16" height="16" viewBox="0 0 16 16" fill="none" xmlns="http://www.w3.org/2000/svg">
<g clip-path="url(#clip0_21038_444870)">
<path fill-rule="evenodd" clip-rule="evenodd" d="M6.88327 5.2161C7.05653 5.29936 7.16667 5.47455 7.16667 5.66675V10.3334C7.16667 10.6095 6.9428 10.8334 6.66667 10.8334C6.39054 10.8334 6.16669 10.6095 6.16669 10.3334V6.70708L5.31237 7.39055C5.09673 7.56301 4.78209 7.52808 4.60959 7.31241C4.43708 7.09681 4.47204 6.78215 4.68767 6.60965L6.35434 5.27632C6.50442 5.15625 6.71007 5.13284 6.88327 5.2161ZM9.5 6.16675C9.1318 6.16675 8.83333 6.46523 8.83333 6.83341V9.16675C8.83333 9.53495 9.1318 9.83341 9.5 9.83341C9.8682 9.83341 10.1667 9.53495 10.1667 9.16675V6.83341C10.1667 6.46523 9.8682 6.16675 9.5 6.16675ZM7.83333 6.83341C7.83333 5.91295 8.57953 5.16676 9.5 5.16676C10.4205 5.16676 11.1667 5.91295 11.1667 6.83341V9.16675C11.1667 10.0872 10.4205 10.8334 9.5 10.8334C8.57953 10.8334 7.83333 10.0872 7.83333 9.16675V6.83341Z" fill="white"/>
<path fill-rule="evenodd" clip-rule="evenodd" d="M7.54934 1.11666C7.6326 0.943425 7.8078 0.833252 8 0.833252C8.4902 0.833252 8.9694 0.882545 9.4328 0.976605C12.7042 1.64067 15.1667 4.53217 15.1667 7.99992C15.1667 11.958 11.9581 15.1666 8 15.1666C4.04196 15.1666 0.833336 11.958 0.833336 7.99992C0.833336 5.06035 2.60306 2.53524 5.13315 1.4298C5.3862 1.31924 5.68096 1.43475 5.79151 1.68779C5.90207 1.94083 5.78656 2.23559 5.53352 2.34615C3.35453 3.2982 1.83334 5.47197 1.83334 7.99992C1.83334 11.4057 4.59425 14.1666 8 14.1666C11.4057 14.1666 14.1667 11.4057 14.1667 7.99992C14.1667 5.23294 12.3439 2.89073 9.83333 2.11021V2.99992C9.83333 3.21227 9.6992 3.40144 9.49887 3.47173C9.29847 3.54202 9.07554 3.47808 8.94287 3.31227L7.60954 1.6456C7.48947 1.49551 7.46607 1.28989 7.54934 1.11666Z" fill="white"/>
</g>
<defs>
<clipPath id="clip0_21038_444870">
<rect width="16" height="16" fill="white"/>
</clipPath>
</defs>
</svg>
