<svg width="40" height="40" viewBox="0 0 40 40" fill="none" xmlns="http://www.w3.org/2000/svg">
<path fill-rule="evenodd" clip-rule="evenodd" d="M17.9201 3.32274C17.9259 4.01307 17.3709 4.57744 16.6806 4.58329C13.8313 4.60745 11.7314 4.7001 10.1046 5.01875C8.5127 5.33059 7.46629 5.8422 6.65855 6.64994C5.7088 7.59969 5.16382 8.88464 4.87729 11.0159C4.5859 13.1831 4.58325 16.0309 4.58325 19.9957C4.58325 23.9603 4.5859 26.8082 4.87729 28.9753C5.16382 31.1067 5.7088 32.3917 6.65855 33.3413C7.6083 34.2912 8.89325 34.8362 11.0245 35.1227C13.1917 35.414 16.0395 35.4167 20.0043 35.4167C23.9689 35.4167 26.8167 35.414 28.9841 35.1227C31.1152 34.8362 32.4003 34.2912 33.3499 33.3413C34.1578 32.5337 34.6694 31.4872 34.9811 29.8953C35.2998 28.2685 35.3924 26.1687 35.4166 23.3193C35.4224 22.629 35.9869 22.074 36.6772 22.0798C37.3676 22.0858 37.9224 22.6502 37.9166 23.3405C37.8924 26.1812 37.8031 28.4947 37.4346 30.3758C37.0592 32.292 36.3786 33.8483 35.1178 35.1092C33.6261 36.6008 31.7256 37.2765 29.3171 37.6003C26.9641 37.9167 23.9483 37.9167 20.0999 37.9167H19.9086C16.0603 37.9167 13.0445 37.9167 10.6914 37.6003C8.2829 37.2765 6.38245 36.6008 4.89079 35.1092C3.39912 33.6175 2.72339 31.717 2.39957 29.3085C2.08322 26.9555 2.08324 23.9397 2.08325 20.0913V19.9C2.08324 16.0517 2.08322 13.0359 2.39957 10.6828C2.72339 8.2743 3.39912 6.37384 4.89079 4.88217C6.15162 3.62134 7.70788 2.94072 9.62403 2.56539C11.5053 2.19689 13.8188 2.10747 16.6595 2.08339C17.3498 2.07754 17.9141 2.6324 17.9201 3.32274ZM27.4494 2.44945C27.9376 1.9613 28.7289 1.9613 29.2171 2.44945L37.5504 10.7828C38.0386 11.2709 38.0386 12.0624 37.5504 12.5506L29.2171 20.8838C28.7289 21.372 27.9376 21.372 27.4494 20.8838C26.9613 20.3957 26.9613 19.6043 27.4494 19.1162L33.6488 12.9167H23.3333C20.7474 12.9167 19.2213 14.1784 18.6866 14.7156L18.3664 15.0374L18.0488 15.3534C17.5116 15.888 16.2499 17.4142 16.2499 20V25C16.2499 25.6903 15.6903 26.25 14.9999 26.25C14.3096 26.25 13.7499 25.6903 13.7499 25V20C13.7499 16.527 15.4616 14.4011 16.2853 13.5814L16.6029 13.2653L16.9146 12.9521C17.7343 12.1284 19.8603 10.4167 23.3333 10.4167H33.6488L27.4494 4.21722C26.9613 3.72907 26.9613 2.9376 27.4494 2.44945Z" fill="#1C274C"/>
</svg>
