<svg width="13" height="14" viewBox="0 0 13 14" fill="none" xmlns="http://www.w3.org/2000/svg">
<path d="M8.81049 9.82497C8.79479 9.78988 8.77512 9.75676 8.75187 9.72629C8.74111 9.70459 8.72873 9.68375 8.71485 9.66396C8.71234 9.66117 8.70875 9.66028 8.70619 9.65757C8.67736 9.63027 8.64541 9.60656 8.61104 9.58696C8.59039 9.57039 8.56854 9.55544 8.54568 9.54221C8.52145 9.53432 8.49668 9.52824 8.47158 9.52403C8.43331 9.51114 8.39363 9.50302 8.35343 9.49986C8.34986 9.49976 8.34688 9.49776 8.34329 9.49776H3.79111C3.25704 9.49877 2.73714 9.32338 2.30993 8.99806C1.88272 8.67274 1.57139 8.21516 1.42294 7.69442C1.2745 7.17368 1.297 6.61805 1.48706 6.11144C1.67711 5.60483 2.0244 5.17474 2.47648 4.88611C2.58943 4.81374 2.66943 4.69879 2.69888 4.56655C2.72833 4.4343 2.70482 4.2956 2.63352 4.18095C2.56222 4.06631 2.44898 3.9851 2.31869 3.95521C2.18841 3.92532 2.05176 3.94918 1.93882 4.02155C1.30201 4.42844 0.812857 5.03453 0.545186 5.74836C0.277516 6.46219 0.245848 7.24503 0.454961 7.97873C0.664075 8.71243 1.10262 9.35719 1.70442 9.8157C2.30623 10.2742 3.03863 10.5216 3.7911 10.5205H5.46449L5.46449 12.2161C5.46749 12.2411 5.4724 12.2658 5.47917 12.29C5.48145 12.367 5.50993 12.4409 5.55978 12.499C5.57052 12.5207 5.58288 12.5415 5.59676 12.5613C5.59917 12.564 5.60273 12.5648 5.60522 12.5674C5.64633 12.61 5.69452 12.6449 5.74758 12.6705C5.75577 12.6746 5.76207 12.6825 5.77043 12.6861C5.83296 12.7134 5.90028 12.7275 5.96833 12.7275H5.96852C6.03277 12.727 6.09631 12.714 6.15573 12.6891C6.18128 12.6761 6.20565 12.6608 6.22855 12.6434C6.25679 12.6294 6.2836 12.6126 6.30859 12.5933L8.68358 10.3863C8.6864 10.3837 8.68732 10.3799 8.69007 10.3773C8.71649 10.3483 8.73951 10.3162 8.75868 10.2818C8.77522 10.2607 8.79011 10.2382 8.80321 10.2147C8.81153 10.1888 8.81781 10.1623 8.822 10.1354C8.834 10.098 8.84168 10.0594 8.8449 10.0202C8.84501 10.0163 8.84712 10.013 8.84712 10.0092C8.84413 9.9842 8.83922 9.95952 8.83243 9.93534C8.82927 9.89782 8.82191 9.8608 8.81049 9.82497Z" fill="#0696D6"/>
<path d="M8.93685 3.4794L7.26346 3.4794V1.78385C7.26047 1.75889 7.25556 1.73421 7.24877 1.71003C7.24562 1.67252 7.23826 1.63549 7.22685 1.59967C7.21115 1.56458 7.19148 1.53146 7.16823 1.50098C7.15747 1.47929 7.14509 1.45845 7.13121 1.43866C7.1287 1.43586 7.12511 1.43498 7.12255 1.43227C7.09381 1.40514 7.06203 1.38154 7.02786 1.36195C7.00713 1.34524 6.98514 1.33022 6.96208 1.31701C6.93738 1.30883 6.91209 1.30262 6.88644 1.29843C6.8488 1.28582 6.8098 1.27783 6.77028 1.27466C6.76653 1.27456 6.76341 1.27246 6.75965 1.27246C6.73567 1.27544 6.71195 1.28032 6.68871 1.28704C6.65111 1.29015 6.614 1.29773 6.57814 1.30962C6.54408 1.32538 6.51192 1.34506 6.48227 1.36825C6.46038 1.37942 6.43936 1.39228 6.41939 1.4067L5.43733 2.3193C5.42005 2.33327 5.40374 2.34842 5.3885 2.36465L4.0444 3.61365C4.04158 3.61625 4.04066 3.62004 4.0379 3.62265C4.01151 3.65161 3.98854 3.68359 3.96944 3.71794C3.95285 3.73916 3.93791 3.76167 3.92477 3.78526C3.91648 3.81109 3.91021 3.83754 3.906 3.86436C3.89401 3.90179 3.88631 3.94051 3.88307 3.97973C3.88297 3.98363 3.88086 3.98682 3.88086 3.99082C3.88386 4.01581 3.88876 4.04052 3.89554 4.06473C3.8987 4.10218 3.90606 4.13914 3.91746 4.1749C3.93316 4.21003 3.95285 4.24318 3.97613 4.27368C3.98687 4.29538 3.99923 4.31622 4.01311 4.336C4.01553 4.3387 4.01908 4.3395 4.02157 4.34209C4.06268 4.38469 4.11088 4.41959 4.16393 4.44519C4.17212 4.44928 4.17844 4.45727 4.18678 4.46087C4.24931 4.48812 4.31664 4.50218 4.38468 4.50222H8.93685C9.47091 4.50122 9.99078 4.67663 10.418 5.00195C10.8452 5.32726 11.1565 5.78483 11.3049 6.30556C11.4534 6.82628 11.4309 7.38189 11.2408 7.8885C11.0508 8.3951 10.7035 8.82519 10.2515 9.11383C10.1956 9.14966 10.1471 9.19633 10.109 9.25116C10.0708 9.30599 10.0437 9.36791 10.0291 9.43339C10.0145 9.49887 10.0128 9.56662 10.024 9.63278C10.0352 9.69894 10.0591 9.76221 10.0944 9.81898C10.1297 9.87575 10.1757 9.9249 10.2297 9.96364C10.2837 10.0024 10.3448 10.0299 10.4093 10.0447C10.4738 10.0595 10.5405 10.0613 10.6057 10.0499C10.6709 10.0385 10.7332 10.0142 10.7891 9.97839C11.426 9.5715 11.9151 8.96541 12.1828 8.25158C12.4504 7.53775 12.4821 6.75491 12.273 6.02121C12.0639 5.28751 11.6253 4.64275 11.0235 4.18424C10.4217 3.72572 9.68933 3.47834 8.93686 3.47941L8.93685 3.4794Z" fill="#0696D6"/>
</svg>
