<svg width="24" height="25" viewBox="0 0 24 25" fill="none" xmlns="http://www.w3.org/2000/svg">
<path d="M11.499 3.17536C6.66598 3.17536 2.74798 7.09336 2.74798 11.9264C2.75098 16.7564 6.66898 20.6744 11.499 20.6744C16.332 20.6744 20.25 16.7564 20.25 11.9234C20.25 7.09336 16.332 3.17536 11.499 3.17536ZM1.25098 11.9234C1.25098 6.26236 5.84098 1.67236 11.502 1.67236C17.16 1.67536 21.75 6.26236 21.75 11.9234C21.75 17.5844 17.16 22.1744 11.499 22.1744C5.83798 22.1744 1.25098 17.5844 1.25098 11.9234ZM19.47 19.8944C19.764 19.6004 20.238 19.6004 20.532 19.8944L22.533 21.8954C22.827 22.1894 22.827 22.6634 22.533 22.9574C22.239 23.2514 21.765 23.2514 21.471 22.9574L19.47 20.9534C19.176 20.6624 19.176 20.1884 19.47 19.8944ZM11.499 7.55536C11.913 7.55536 12.249 7.89136 12.249 8.30536V12.3044C12.249 12.7184 11.913 13.0544 11.499 13.0544C11.085 13.0544 10.749 12.7184 10.749 12.3044V8.30536C10.749 7.89136 11.085 7.55536 11.499 7.55536ZM11.499 16.3034C12.051 16.3034 12.498 15.8564 12.498 15.3044C12.498 14.7524 12.051 14.3054 11.499 14.3054C10.947 14.3054 10.5 14.7524 10.5 15.3044C10.5 15.8564 10.947 16.3034 11.499 16.3034Z" fill="#1C274C"/>
</svg>
