<svg width="40" height="40" viewBox="0 0 40 40" fill="none" xmlns="http://www.w3.org/2000/svg">
<path d="M26.5222 1H4V34.6152C4 35.7781 4.46195 36.8933 5.28422 37.7156C6.10649 38.5379 7.22173 38.9998 8.38459 38.9998H31.7691C32.932 38.9998 34.0472 38.5379 34.8695 37.7156C35.6917 36.8933 36.1537 35.7781 36.1537 34.6152V10.6315L26.5222 1ZM25.923 4.52229L32.6314 11.2307H27.3845C26.9969 11.2307 26.6251 11.0767 26.351 10.8026C26.077 10.5286 25.923 10.1568 25.923 9.76919V4.52229ZM31.7691 36.0768H8.38459C7.99697 36.0768 7.62523 35.9228 7.35114 35.6487C7.07705 35.3746 6.92306 35.0028 6.92306 34.6152V3.92306H22.9999V9.76919C22.9999 10.9321 23.4619 12.0473 24.2841 12.8696C25.1064 13.6918 26.2216 14.1538 27.3845 14.1538H33.2306V34.6152C33.2306 35.0028 33.0766 35.3746 32.8026 35.6487C32.5285 35.9228 32.1567 36.0768 31.7691 36.0768Z" fill="#7C878E"/>
<path fill-rule="evenodd" clip-rule="evenodd" d="M12.2867 25.6659L12.2867 20.9091L13.5457 20.9091C13.8628 20.9091 14.1658 20.7779 14.3828 20.5467L17.4532 17.2752V29.2998L14.3828 26.0283C14.1658 25.7971 13.8628 25.6659 13.5457 25.6659H12.2867ZM11.7126 25.6659V20.9091C11.7126 20.5921 11.9697 20.335 12.2867 20.335H13.5457C13.7042 20.335 13.8557 20.2695 13.9643 20.1538L17.0347 16.8824C17.3907 16.503 18.0273 16.755 18.0273 17.2752V29.2998C18.0273 29.82 17.3907 30.072 17.0347 29.6926L13.9643 26.4212C13.8557 26.3056 13.7042 26.24 13.5457 26.24H12.2867C11.9697 26.24 11.7126 25.983 11.7126 25.6659ZM24.7098 28.1529C24.484 27.8215 24.4681 27.3925 24.6332 27.027C26.076 23.8333 25.1427 20.8083 24.6134 19.5404C24.4603 19.1737 24.4822 18.7506 24.7065 18.4226C25.1594 17.7601 26.1293 17.8245 26.3919 18.5828C27.195 20.9017 27.7297 24.4689 26.422 28.0055C26.1442 28.7567 25.1609 28.8147 24.7098 28.1529ZM20.8828 27.0299C20.5594 26.6848 20.5404 26.1606 20.7678 25.7459C21.8782 23.7216 21.247 21.8247 20.7405 20.8306C20.527 20.4118 20.5565 19.8897 20.8785 19.5472C21.2963 19.1027 22.0126 19.1466 22.288 19.691C23.1562 21.4075 23.7858 24.1784 22.3088 26.8998C22.019 27.4337 21.2982 27.4731 20.8828 27.0299Z" fill="#0696D6"/>
</svg>
