<svg width="43" height="40" viewBox="0 0 43 40" fill="none" xmlns="http://www.w3.org/2000/svg">
<path d="M30 15C30 15.552 29.6544 16 29.2287 16H12.7713C12.3456 16 12 15.552 12 15C12 14.448 12.3456 14 12.7713 14H29.2256C29.6544 14 30 14.448 30 15Z" fill="#7C878E"/>
<path d="M27 20C27 20.552 26.6375 21 26.1908 21H12.8092C12.3625 21 12 20.552 12 20C12 19.448 12.3625 19 12.8092 19H26.1875C26.6375 19 27 19.448 27 20Z" fill="#7C878E"/>
<path d="M27 25.5C27 26.052 26.6249 26.5 26.1628 26.5H12.8372C12.3751 26.5 12 26.052 12 25.5C12 24.948 12.3751 24.5 12.8372 24.5H26.1594C26.6249 24.5 27 24.948 27 25.5Z" fill="#7C878E"/>
</svg>
