<svg width="30" height="30" viewBox="0 0 30 30" fill="none" xmlns="http://www.w3.org/2000/svg">
<path fill-rule="evenodd" clip-rule="evenodd" d="M13.8921 15.6501C13.8918 16.9588 14.9153 17.9949 16.1819 18C17.1941 18.0037 18.0575 17.4042 18.387 16.4215C18.9388 14.7731 19.9096 13.4673 21.3081 12.4739C21.6723 12.2149 21.9973 11.8771 22.2794 11.5244C22.588 11.1385 22.5586 10.7262 22.2797 10.3115C21.9515 9.82416 21.6194 9.3395 21.2823 8.85856C20.7933 8.16106 20.1882 8.05478 19.5319 8.58298C17.9759 9.8343 16.2661 10.59 14.2391 10.55C13.1054 10.5275 12.1948 11.4507 12.0238 12.6149C11.8656 13.6924 12.5087 14.7766 13.5618 15.1465C13.8355 15.2423 13.8921 15.3724 13.8921 15.6501ZM14.8295 15.1499C14.9163 14.896 15.0245 14.6497 15.1407 14.3547C14.8798 14.3774 14.6642 14.395 14.4486 14.4145C13.6643 14.4855 12.9357 13.8481 12.8817 13.0433C12.8244 12.1855 13.427 11.429 14.2364 11.4392C16.3756 11.4659 18.2381 10.7307 19.9054 9.39556C20.3527 9.03746 20.3655 9.05589 20.6984 9.54402C20.9565 9.92268 21.2023 10.3112 21.482 10.6723C21.6525 10.8915 21.6266 11.0466 21.4358 11.2106C21.1884 11.4229 20.9538 11.6541 20.6916 11.8456C19.2242 12.9164 18.1888 14.3109 17.6015 16.0605C17.2986 16.9625 16.4454 17.3551 15.6308 17.0034C14.9233 16.6979 14.5743 15.8981 14.8295 15.1499Z" fill="#0096D6"/>
<path fill-rule="evenodd" clip-rule="evenodd" d="M16.1851 18.0953C15.3295 17.8681 14.5632 18.0806 13.88 18.6541C12.9656 18.0447 12.3483 17.8902 11.5926 18.0708C9.92662 18.4698 9.20582 20.3715 10.2095 21.757C10.8094 22.585 11.3181 23.4664 11.4831 24.4646C11.6397 25.4126 11.6607 26.3831 11.7119 27.3454C11.7495 28.0503 12.1734 28.4889 12.898 28.4944C13.5619 28.4998 14.2258 28.5046 14.8897 28.4923C15.5476 28.4804 15.9972 28.0372 16.0187 27.3986C16.0274 27.1393 16.028 26.8797 16.0214 26.6204C15.9757 24.8173 16.4767 23.1901 17.5545 21.7099C18.5337 20.3651 17.8195 18.5291 16.1851 18.0953ZM13.4427 19.5536C13.5843 19.7576 13.7046 19.9752 13.8639 20.2343C14.0235 19.9781 14.146 19.7616 14.2882 19.5584C14.7802 18.853 15.7211 18.674 16.4255 19.1448C17.1166 19.6068 17.3192 20.5255 16.8171 21.2053C15.5726 22.8906 15.0406 24.7679 15.1304 26.8292C15.133 26.8884 15.132 26.9477 15.131 27.0071C15.1298 27.0776 15.1285 27.1481 15.1334 27.2183C15.153 27.5005 15.0406 27.6242 14.7348 27.6154C14.1556 27.5992 13.575 27.6008 12.9958 27.6159C12.6941 27.6236 12.6029 27.5029 12.589 27.2191C12.5435 26.2796 12.541 25.3306 12.3926 24.4053C12.2094 23.2616 11.6647 22.2424 10.9772 21.2976C10.5281 20.6806 10.5287 20.0329 10.9423 19.4903C11.5787 18.656 12.84 18.6858 13.4427 19.5536Z" fill="#0096D6"/>
<path d="M19.8916 0.75H3V25.9614C3 26.8336 3.34646 27.67 3.96316 28.2867C4.57987 28.9034 5.4163 29.2499 6.28845 29.2499H23.8268C24.699 29.2499 25.5354 28.9034 26.1521 28.2867C26.7688 27.67 27.1153 26.8336 27.1153 25.9614V7.97362L19.8916 0.75ZM19.4422 3.39172L24.4736 8.42304H20.5384C20.2477 8.42304 19.9689 8.30755 19.7633 8.10199C19.5577 7.89642 19.4422 7.61761 19.4422 7.32689V3.39172ZM23.8268 27.0576H6.28845C5.99773 27.0576 5.71892 26.9421 5.51335 26.7365C5.30778 26.5309 5.1923 26.2521 5.1923 25.9614V2.9423H17.2499V7.32689C17.2499 8.19904 17.5964 9.03547 18.2131 9.65217C18.8298 10.2689 19.6662 10.6153 20.5384 10.6153H24.923V25.9614C24.923 26.2521 24.8075 26.5309 24.6019 26.7365C24.3964 26.9421 24.1175 27.0576 23.8268 27.0576Z" fill="#7C878E"/>
</svg>
