<svg width="37" height="37" viewBox="0 0 37 37" fill="none" xmlns="http://www.w3.org/2000/svg">
<path d="M14.952 0V2.69693H6.37915V34.2635L14.952 34.2706V37L30.6046 34.1885L30.6208 2.83101L14.952 0ZM17.5481 17.2614C18.0738 17.2614 18.5 17.816 18.5 18.5C18.5 19.1842 18.0739 19.7386 17.5481 19.7386C17.0224 19.7386 16.5962 19.1842 16.5962 18.5C16.5962 17.816 17.0224 17.2614 17.5481 17.2614ZM8.92448 31.7203V5.24226H14.952V31.7252L8.92448 31.7203Z" fill="#0696D6"/>
<path d="M25.9 10.3489H23.582V13.8748H22.657V10.3489H20.35V9.09201H22.657V5.5498H23.582V9.09201H25.9V10.3489Z" fill="white"/>
</svg>
