<svg width="30" height="30" viewBox="0 0 30 30" fill="none" xmlns="http://www.w3.org/2000/svg">
<mask id="mask0_69:13532" style="mask-type:alpha" maskUnits="userSpaceOnUse" x="6" y="5" width="21" height="20">
<path d="M25.9207 16.2057L8.61991 24.852C7.45406 25.4348 6.24113 24.1847 6.81094 23.0442C6.81094 23.0442 8.95521 18.7139 9.54501 17.5797C10.1348 16.4454 10.81 16.2491 17.08 15.4387C17.312 15.4087 17.5019 15.2336 17.5019 14.9998C17.5019 14.7663 17.312 14.5913 17.08 14.5612C10.81 13.7509 10.1348 13.5546 9.54501 12.4203C8.95521 11.2865 6.81094 6.95581 6.81094 6.95581C6.24113 5.81572 7.45406 4.56517 8.61991 5.14793L25.9207 13.7947C26.9141 14.2907 26.9141 15.7093 25.9207 16.2057Z" fill="white"/>
</mask>
<g mask="url(#mask0_69:13532)">
<path fill-rule="evenodd" clip-rule="evenodd" d="M0 30H30V0H0V30Z" fill="#0696D6"/>
</g>
</svg>
