<svg width="16" height="16" viewBox="0 0 16 16" fill="none" xmlns="http://www.w3.org/2000/svg">
<path d="M13.4106 14.0953H14.4281C14.518 14.0953 14.6043 14.1311 14.6679 14.1947C14.7315 14.2583 14.7672 14.3445 14.7672 14.4345C14.7672 14.5244 14.7315 14.6107 14.6679 14.6743C14.6043 14.7379 14.518 14.7736 14.4281 14.7736H1.54032C1.45037 14.7736 1.36411 14.7379 1.30051 14.6743C1.2369 14.6107 1.20117 14.5244 1.20117 14.4345C1.20117 14.3445 1.2369 14.2583 1.30051 14.1947C1.36411 14.1311 1.45037 14.0953 1.54032 14.0953H2.55778H5.27099H6.6276H9.34081H10.6974H13.4106Z" fill="#0696D6"/>
<path d="M1.54038 8.66886C1.58486 8.6694 1.62896 8.66063 1.66985 8.6431C1.71073 8.62558 1.7475 8.5997 1.77778 8.56711L4.96581 5.38587L7.44161 7.24442C7.50647 7.29383 7.58723 7.31768 7.66852 7.31142C7.74981 7.30517 7.82597 7.26925 7.88251 7.2105L12.7324 2.36742V3.58158C12.7324 3.67153 12.7681 3.75779 12.8317 3.8214C12.8953 3.885 12.9816 3.92073 13.0715 3.92073C13.1615 3.92073 13.2477 3.885 13.3113 3.8214C13.375 3.75779 13.4107 3.67153 13.4107 3.58158V1.54667C13.4208 1.5043 13.4208 1.46016 13.4107 1.41779C13.3935 1.36932 13.3657 1.32528 13.3293 1.28891C13.2929 1.25253 13.2489 1.22473 13.2004 1.20752C13.158 1.19743 13.1139 1.19743 13.0715 1.20752H11.0366C10.9467 1.20752 10.8604 1.24325 10.7968 1.30685C10.7332 1.37046 10.6975 1.45672 10.6975 1.54667C10.6975 1.63662 10.7332 1.72288 10.7968 1.78649C10.8604 1.85009 10.9467 1.88582 11.0366 1.88582H12.2508L7.61119 6.52542L5.13538 4.66687C5.07053 4.61746 4.98977 4.59361 4.90848 4.59986C4.82718 4.60612 4.75102 4.64203 4.69449 4.70078L1.30297 8.0923C1.27053 8.12275 1.24467 8.15952 1.22699 8.20036C1.20932 8.24119 1.2002 8.28521 1.2002 8.3297C1.2002 8.3742 1.20932 8.41822 1.22699 8.45905C1.24467 8.49989 1.27053 8.53666 1.30297 8.56711C1.33325 8.5997 1.37002 8.62558 1.41091 8.6431C1.4518 8.66063 1.4959 8.6694 1.54038 8.66886Z" fill="#1B2746"/>
<path d="M2.80078 10.5736C2.80078 10.0213 3.2485 9.57361 3.80078 9.57361H4.20078C4.75307 9.57361 5.20078 10.0213 5.20078 10.5736V14.3736H2.80078V10.5736Z" fill="#FFD400"/>
<path d="M7.20068 9.37354C7.20068 8.82125 7.6484 8.37354 8.20068 8.37354H8.60068C9.15297 8.37354 9.60068 8.82125 9.60068 9.37354V14.3735H7.20068V9.37354Z" fill="#0696D6"/>
<path d="M11.2007 6.97363C11.2007 6.42135 11.6484 5.97363 12.2007 5.97363H12.6007C13.153 5.97363 13.6007 6.42135 13.6007 6.97363V14.3736H11.2007V6.97363Z" fill="#1BC47D"/>
</svg>
