<svg width="19" height="20" viewBox="0 0 19 20" fill="none" xmlns="http://www.w3.org/2000/svg">
<path fill-rule="evenodd" clip-rule="evenodd" d="M3.46393 0.974976H2.31181V3.61843C1.25931 3.87757 0.475098 4.82671 0.475098 5.95918C0.475098 7.09165 1.25931 8.04079 2.31181 8.29993V19.025H3.46393V8.29998C4.51648 8.04115 5.30065 7.09194 5.30065 5.95918C5.30065 4.82635 4.51641 3.87753 3.46393 3.61843V0.974976ZM1.62722 5.95918C1.62722 5.26409 2.19279 4.69852 2.88787 4.69852C3.58296 4.69852 4.14853 5.26409 4.14853 5.95918C4.14853 6.65427 3.58296 7.21984 2.88787 7.21984C2.19279 7.21984 1.62722 6.65427 1.62722 5.95918ZM16.6884 0.974976H15.5363V7.65917C14.4837 7.91801 13.6995 8.86721 13.6995 9.99998C13.6995 11.1328 14.4838 12.0816 15.5363 12.3407V19.025H16.6884V12.3408C17.7409 12.0819 18.5251 11.1327 18.5251 9.99998C18.5251 8.86714 17.7409 7.91833 16.6884 7.65922V0.974976ZM14.8517 9.99998C14.8517 9.30488 15.4172 8.73931 16.1123 8.73931C16.8074 8.73931 17.373 9.30488 17.373 9.99998C17.373 10.6951 16.8074 11.2606 16.1123 11.2606C15.4172 11.2606 14.8517 10.6951 14.8517 9.99998ZM10.0763 0.974976H8.92418V12.0673C7.87163 12.3261 7.08747 13.2754 7.08747 14.4081C7.08747 15.5409 7.8717 16.4898 8.92418 16.7489V19.025H10.0763V16.7489C11.1289 16.4901 11.913 15.5409 11.913 14.4081C11.913 13.2753 11.1288 12.3265 10.0763 12.0674V0.974976ZM8.23959 14.4081C8.23959 13.713 8.80515 13.1475 9.50024 13.1475C10.1953 13.1475 10.7609 13.713 10.7609 14.4081C10.7609 15.1032 10.1953 15.6688 9.50024 15.6688C8.80515 15.6688 8.23959 15.1032 8.23959 14.4081Z" fill="#647F94"/>
</svg>
