<svg width="20" height="14" viewBox="0 0 20 14" fill="none" xmlns="http://www.w3.org/2000/svg">
    <path fill-rule="evenodd" clip-rule="evenodd"
          d="M17.2274 11.2581C12.4048 11.2581 7.61522 11.2581 2.7759 11.2581C2.7759 11.5278 2.7759 11.7997 2.7759 12.0719C2.77573 12.4099 2.77828 12.7479 2.77459 13.0858C2.77188 13.3372 2.64907 13.5103 2.39139 13.5101C2.13018 13.51 2.01622 13.3316 2.01549 13.081C2.01393 12.5997 2.01524 12.1183 2.01541 11.6368C2.01541 11.5159 2.01541 11.3951 2.01541 11.2389C1.71091 11.2389 1.437 11.2392 1.16309 11.2388C0.668066 11.2381 0.49393 11.1351 0.500161 10.8473C0.505982 10.5737 0.680774 10.4731 1.15005 10.4731C6.9577 10.4731 12.7653 10.4731 18.573 10.4731C18.7369 10.4731 18.9008 10.4698 19.0646 10.4733C19.3105 10.4785 19.4918 10.5838 19.4997 10.8467C19.5077 11.1129 19.3303 11.2296 19.0833 11.2349C18.7278 11.2425 18.3719 11.2368 17.9798 11.2368C17.9798 11.7756 17.9798 12.2748 17.9797 12.774C17.9797 12.8866 17.9801 12.9993 17.9779 13.1119C17.9733 13.3561 17.8491 13.5092 17.6054 13.5079C17.365 13.5067 17.2315 13.3589 17.23 13.113C17.227 12.6111 17.228 12.1092 17.2275 11.6073C17.2274 11.4969 17.2274 11.3867 17.2274 11.2581Z"
          fill="CurrentColor"/>
    <path fill-rule="evenodd" clip-rule="evenodd"
          d="M3.91361 9.71826C3.19739 9.71826 2.48092 9.72014 1.7647 9.71752C1.37749 9.71604 1.25091 9.58913 1.24976 9.20339C1.24763 8.49734 1.24459 7.7912 1.25058 7.08515C1.25992 5.98622 2.07559 5.17318 3.17747 5.16219C3.67881 5.15711 4.18039 5.15604 4.68173 5.164C5.74835 5.18089 6.56074 5.9859 6.5791 7.05383C6.59132 7.76997 6.58386 8.48643 6.58082 9.20273C6.57918 9.58413 6.44178 9.71875 6.06268 9.71948C5.34638 9.72072 4.62999 9.71981 3.91369 9.71981C3.91361 9.7194 3.91361 9.71883 3.91361 9.71826ZM5.78934 8.93464C5.78934 8.21334 5.8264 7.50786 5.77671 6.80861C5.74195 6.32056 5.25283 5.9381 4.74338 5.92162C4.19121 5.90383 3.63765 5.90334 3.08548 5.92105C2.57562 5.93728 2.08764 6.32154 2.0537 6.8096C2.00508 7.50852 2.0414 8.21342 2.0414 8.93464C3.28675 8.93464 4.52161 8.93464 5.78934 8.93464Z"
          fill="CurrentColor"/>
    <path fill-rule="evenodd" clip-rule="evenodd"
          d="M9.99961 9.71837C9.28331 9.71853 8.56692 9.72017 7.85062 9.71788C7.46423 9.71657 7.33764 9.58957 7.33649 9.20334C7.3342 8.49729 7.33133 7.79115 7.336 7.0851C7.34322 5.9997 8.14839 5.18362 9.23199 5.16493C9.73316 5.1564 10.2347 5.15878 10.7362 5.16296C11.8229 5.1719 12.6401 5.96584 12.6639 7.05403C12.6797 7.78017 12.6701 8.50704 12.6655 9.23351C12.6632 9.58039 12.5264 9.71534 12.1793 9.71714C11.4528 9.72108 10.7262 9.71837 9.99961 9.71837ZM8.13036 8.93246C9.3812 8.93246 10.6238 8.93246 11.8827 8.93246C11.8827 8.22805 11.9099 7.54348 11.8737 6.8621C11.8472 6.36347 11.3692 5.94321 10.8523 5.92329C10.2902 5.90165 9.72619 5.90378 9.16378 5.92222C8.6658 5.93854 8.17881 6.31092 8.14396 6.78544C8.09182 7.49412 8.13036 8.2096 8.13036 8.93246Z"
          fill="CurrentColor"/>
    <path fill-rule="evenodd" clip-rule="evenodd"
          d="M16.0933 9.71884C15.3873 9.71859 14.6812 9.71941 13.9753 9.71843C13.5431 9.71777 13.4223 9.60086 13.4216 9.18159C13.4206 8.48586 13.4184 7.79006 13.4223 7.09434C13.4285 5.99041 14.2322 5.17917 15.3387 5.1631C15.8399 5.1558 16.3414 5.15687 16.8426 5.1649C17.9067 5.18196 18.7071 5.9463 18.7453 7.01415C18.772 7.76014 18.7557 8.50792 18.749 9.25472C18.7461 9.58126 18.6027 9.71588 18.2726 9.71769C17.5462 9.72187 16.8198 9.71908 16.0933 9.71884ZM14.1942 8.93399C15.4621 8.93399 16.705 8.93399 17.9648 8.93399C17.9648 8.22154 17.999 7.52599 17.9535 6.83576C17.9198 6.3227 17.4185 5.92949 16.8819 5.91736C16.3601 5.90539 15.8376 5.90662 15.3157 5.91695C14.716 5.92892 14.2391 6.33606 14.2031 6.93209C14.1637 7.58321 14.1942 8.2386 14.1942 8.93399Z"
          fill="CurrentColor"/>
    <path fill-rule="evenodd" clip-rule="evenodd"
          d="M14.5598 3.0919C13.7106 3.09058 13.017 2.40413 13.0084 1.55648C12.9998 0.699578 13.7015 -0.000900964 14.5676 8.69826e-07C15.4191 0.000902703 16.1118 0.685723 16.1194 1.5341C16.1271 2.39002 15.4231 3.09321 14.5598 3.0919ZM14.575 2.6541C15.1723 2.64721 15.6722 2.14907 15.6758 1.55739C15.6796 0.930857 15.1676 0.427716 14.5379 0.439276C13.938 0.450262 13.4562 0.94545 13.4586 1.54853C13.4611 2.16432 13.9628 2.66115 14.575 2.6541Z"
          fill="CurrentColor"/>
    <path fill-rule="evenodd" clip-rule="evenodd"
          d="M14.3438 1.29915C14.3438 1.15838 14.3146 1.01786 14.3532 0.899636C14.3829 0.808878 14.4984 0.746079 14.5757 0.670898C14.6426 0.744685 14.7567 0.812405 14.7674 0.89357C14.7951 1.1037 14.7991 1.32325 14.7671 1.53207C14.7541 1.61766 14.6363 1.71932 14.5442 1.75244C14.4356 1.79147 14.2939 1.79253 14.1838 1.75695C14.0798 1.72342 13.9982 1.62078 13.9067 1.54855C13.9854 1.47246 14.0574 1.38704 14.1456 1.32432C14.1875 1.29439 14.2603 1.30784 14.3438 1.29915Z"
          fill="CurrentColor"/>
    <line x1="3" y1="4" x2="18" y2="12" stroke="#0696D6" style="stroke-width:1"/>
</svg>
