<svg width="16" height="17" viewBox="0 0 16 17" fill="none" xmlns="http://www.w3.org/2000/svg">
<path d="M14.5 5.27002V9.73002C14.8126 9.4487 15.0626 9.10479 15.2337 8.72062C15.4048 8.33644 15.4932 7.92058 15.4932 7.50002C15.4932 7.07946 15.4048 6.6636 15.2337 6.27942C15.0626 5.89525 14.8126 5.55134 14.5 5.27002Z" fill="#1B2746"/>
<path d="M5.5 5H3.5V10H5.5V5Z" fill="#1B2746"/>
<path d="M12.865 3.00003L6.5 4.83503V10.165L12.865 12C12.9097 12.0073 12.9553 12.0073 13 12C13.1326 12 13.2598 11.9473 13.3536 11.8536C13.4473 11.7598 13.5 11.6326 13.5 11.5V3.50003C13.5 3.42241 13.4819 3.34585 13.4472 3.27642C13.4125 3.20699 13.3621 3.1466 13.3 3.10003C13.2402 3.0508 13.1698 3.01615 13.0943 2.99879C13.0188 2.98144 12.9403 2.98186 12.865 3.00003Z" fill="#1B2746"/>
<path d="M0.5 7.50005C0.499882 8.07638 0.698892 8.63504 1.06335 9.0815C1.4278 9.52796 1.93532 9.83478 2.5 9.95005V5.05005C1.93532 5.16531 1.4278 5.47214 1.06335 5.9186C0.698892 6.36505 0.499882 6.92372 0.5 7.50005Z" fill="#1B2746"/>
<path d="M5.88999 11H2.85999L3.49999 13.62C3.52736 13.7309 3.59191 13.8292 3.68288 13.8983C3.77386 13.9674 3.88577 14.0033 3.99999 14H5.99999C6.07593 14.0004 6.15097 13.9835 6.21942 13.9506C6.28786 13.9177 6.3479 13.8696 6.39499 13.81C6.44174 13.7499 6.47414 13.6799 6.48974 13.6054C6.50534 13.5309 6.50371 13.4538 6.48499 13.38L5.88999 11Z" fill="#1B2746"/>
</svg>
