<svg width="40" height="40" viewBox="0 0 40 40" fill="none" xmlns="http://www.w3.org/2000/svg">
<path fill-rule="evenodd" clip-rule="evenodd" d="M19.9999 2.08334C15.6277 2.08334 12.0833 5.62775 12.0833 10C12.0833 14.3723 15.6277 17.9167 19.9999 17.9167C24.3723 17.9167 27.9166 14.3723 27.9166 10C27.9166 5.62775 24.3723 2.08334 19.9999 2.08334ZM14.5833 10C14.5833 7.00845 17.0084 4.58334 19.9999 4.58334C22.9914 4.58334 25.4166 7.00845 25.4166 10C25.4166 12.9916 22.9914 15.4167 19.9999 15.4167C17.0084 15.4167 14.5833 12.9916 14.5833 10Z" fill="#1C274C"/>
<path d="M30 5.41666C29.3097 5.41666 28.75 5.97631 28.75 6.66666C28.75 7.35701 29.3097 7.91666 30 7.91666C32.2942 7.91666 33.75 9.42621 33.75 10.8333C33.75 12.2404 32.2942 13.75 30 13.75C29.3097 13.75 28.75 14.3096 28.75 15C28.75 15.6903 29.3097 16.25 30 16.25C33.2287 16.25 36.25 14.0286 36.25 10.8333C36.25 7.63808 33.2287 5.41666 30 5.41666Z" fill="#1C274C"/>
<path d="M11.25 6.66666C11.25 5.97631 10.6904 5.41666 10 5.41666C6.7713 5.41666 3.75 7.63808 3.75 10.8333C3.75 14.0286 6.7713 16.25 10 16.25C10.6904 16.25 11.25 15.6903 11.25 15C11.25 14.3096 10.6904 13.75 10 13.75C7.70585 13.75 6.25 12.2404 6.25 10.8333C6.25 9.42621 7.70585 7.91666 10 7.91666C10.6904 7.91666 11.25 7.35701 11.25 6.66666Z" fill="#1C274C"/>
<path fill-rule="evenodd" clip-rule="evenodd" d="M20 20.4167C17.0262 20.4167 14.2774 21.218 12.2355 22.5792C10.2024 23.9347 8.75 25.9443 8.75 28.3333C8.75 30.7223 10.2024 32.732 12.2355 34.0875C14.2774 35.4487 17.0262 36.25 20 36.25C22.9738 36.25 25.7225 35.4487 27.7645 34.0875C29.7975 32.732 31.25 30.7223 31.25 28.3333C31.25 25.9443 29.7975 23.9347 27.7645 22.5792C25.7225 21.218 22.9738 20.4167 20 20.4167ZM11.25 28.3333C11.25 27.0403 12.0361 25.7168 13.6223 24.6593C15.1997 23.6077 17.451 22.9167 20 22.9167C22.549 22.9167 24.8003 23.6077 26.3777 24.6593C27.9638 25.7168 28.75 27.0403 28.75 28.3333C28.75 29.6263 27.9638 30.9498 26.3777 32.0073C24.8003 33.059 22.549 33.75 20 33.75C17.451 33.75 15.1997 33.059 13.6223 32.0073C12.0361 30.9498 11.25 29.6263 11.25 28.3333Z" fill="#1C274C"/>
<path d="M32.1123 23.0655C32.2601 22.3912 32.9268 21.9645 33.6011 22.1123C35.2041 22.4638 36.6488 23.0988 37.7213 23.9765C38.7929 24.8533 39.5833 26.0587 39.5833 27.5C39.5833 28.9413 38.7929 30.1467 37.7213 31.0235C36.6488 31.9012 35.2041 32.5362 33.6011 32.8877C32.9268 33.0355 32.2601 32.6088 32.1123 31.9345C31.9644 31.2602 32.3911 30.5935 33.0654 30.4457C34.3861 30.156 35.4414 29.6587 36.1381 29.0887C36.8356 28.518 37.0833 27.9605 37.0833 27.5C37.0833 27.0395 36.8356 26.482 36.1381 25.9113C35.4414 25.3413 34.3861 24.844 33.0654 24.5543C32.3911 24.4065 31.9644 23.7398 32.1123 23.0655Z" fill="#1C274C"/>
<path d="M6.399 22.1123C7.07333 21.9645 7.73986 22.3912 7.88773 23.0655C8.03561 23.7398 7.60883 24.4065 6.9345 24.5543C5.6139 24.844 4.5585 25.3413 3.86195 25.9113C3.16446 26.482 2.91675 27.0395 2.91675 27.5C2.91675 27.9605 3.16446 28.518 3.86195 29.0887C4.5585 29.6587 5.6139 30.156 6.9345 30.4457C7.60883 30.5935 8.03561 31.2602 7.88773 31.9345C7.73986 32.6088 7.07333 33.0355 6.399 32.8877C4.79585 32.5362 3.35125 31.9012 2.27873 31.0235C1.20716 30.1467 0.416748 28.9413 0.416748 27.5C0.416748 26.0587 1.20716 24.8533 2.27873 23.9765C3.35125 23.0988 4.79585 22.4638 6.399 22.1123Z" fill="#1C274C"/>
</svg>
