<svg width="250" height="288" viewBox="0 0 250 288" fill="none" xmlns="http://www.w3.org/2000/svg">
<g clip-path="url(#clip0_19118_260255)" filter="url(#filter0_d_19118_260255)">
<g filter="url(#filter1_d_19118_260255)">
<path d="M214 17H34V272H214V17Z" fill="white"/>
<path d="M109.071 58.85H47.5544V137.129H109.071V58.85Z" fill="#C3DAE6"/>
<path d="M199.403 58.85H115.706V63.8911H199.403V58.85Z" fill="#C3DAE6"/>
<path d="M199.403 70.6442H115.706V75.6852H199.403V70.6442Z" fill="#C3DAE6"/>
<path d="M199.403 82.4383H115.706V87.4793H199.403V82.4383Z" fill="#C3DAE6"/>
<path d="M199.403 94.2324H115.706V99.2734H199.403V94.2324Z" fill="#C3DAE6"/>
<path d="M199.403 105.931H115.706V110.972H199.403V105.931Z" fill="#C3DAE6"/>
<path d="M199.403 117.725H115.706V122.766H199.403V117.725Z" fill="#C3DAE6"/>
<path d="M199.403 129.52H115.706V134.561H199.403V129.52Z" fill="#C3DAE6"/>
<path d="M199.403 161.097H47.5544V166.138H199.403V161.097Z" fill="#C3DAE6"/>
<path d="M199.403 172.796H47.5544V177.837H199.403V172.796Z" fill="#C3DAE6"/>
<path d="M199.403 184.59H47.5544V189.631H199.403V184.59Z" fill="#C3DAE6"/>
<path d="M199.403 196.385H47.5544V201.426H199.403V196.385Z" fill="#C3DAE6"/>
<path d="M199.403 208.179H47.5544V213.22H199.403V208.179Z" fill="#C3DAE6"/>
<path d="M199.403 219.973H47.5544V225.014H199.403V219.973Z" fill="#C3DAE6"/>
<path d="M134.569 231.767H47.5544V236.808H134.569V231.767Z" fill="#C3DAE6"/>
</g>
</g>
<path fill-rule="evenodd" clip-rule="evenodd" d="M210.625 288H179.868C178.422 288 177.516 287.478 176.944 286.829C176.33 286.132 175.968 285.13 175.967 284.044C175.967 282.958 176.328 281.957 176.941 281.262C177.512 280.614 178.418 280.091 179.868 280.091H210.625C217.996 280.091 223.989 274.092 223.989 266.713V235.925C223.989 234.477 224.51 233.57 225.159 232.997C225.855 232.383 226.856 232.02 227.94 232.02C229.025 232.019 230.025 232.381 230.72 232.994C231.368 233.566 231.89 234.473 231.89 235.925V266.713C231.89 278.448 222.348 288 210.625 288ZM179.868 285.509H210.625C220.974 285.509 229.402 277.073 229.402 266.713V235.925C229.402 235.503 229.327 235.262 229.272 235.135C229.217 235.011 229.15 234.929 229.074 234.862C228.89 234.7 228.499 234.51 227.942 234.51C227.384 234.51 226.991 234.701 226.805 234.865C226.728 234.933 226.661 235.015 226.606 235.139C226.551 235.266 226.477 235.506 226.477 235.925V266.713C226.477 275.467 219.37 282.581 210.625 282.581H179.868C179.447 282.581 179.206 282.656 179.079 282.712C178.955 282.766 178.873 282.833 178.806 282.909C178.644 283.093 178.455 283.485 178.455 284.043C178.455 284.601 178.645 284.995 178.809 285.181C178.877 285.258 178.959 285.325 179.083 285.38C179.209 285.435 179.45 285.509 179.868 285.509ZM179.868 288H210.625C222.348 288 231.89 278.448 231.89 266.713V235.925C231.89 234.473 231.368 233.566 230.72 232.994C230.025 232.381 229.025 232.019 227.94 232.02C226.856 232.02 225.855 232.383 225.159 232.997C224.51 233.57 223.989 234.477 223.989 235.925V266.713C223.989 274.092 217.996 280.091 210.625 280.091H179.868C178.418 280.091 177.512 280.614 176.941 281.262C176.328 281.957 175.967 282.958 175.967 284.044C175.968 285.13 176.33 286.132 176.944 286.829C177.516 287.478 178.422 288 179.868 288Z" fill="#24388A"/>
<path fill-rule="evenodd" clip-rule="evenodd" d="M69.1319 288H38.3748C26.6519 288 17.1101 278.448 17.1101 266.713V235.925C17.1101 234.477 17.6314 233.57 18.28 232.997C18.9759 232.383 19.977 232.02 21.0616 232.02C22.1462 232.019 23.1464 232.381 23.8412 232.994C24.4888 233.566 25.0108 234.473 25.0108 235.925V266.713C25.0108 274.092 31.0038 280.091 38.3748 280.091H69.1319C70.5776 280.091 71.4838 280.613 72.0561 281.262C72.6699 281.959 73.0322 282.961 73.0327 284.047C73.0332 285.132 72.6719 286.133 72.0591 286.829C71.4881 287.477 70.5816 288 69.1319 288ZM38.3748 285.509H69.1319C69.5527 285.509 69.794 285.435 69.9207 285.379C70.0447 285.324 70.1266 285.258 70.1933 285.182C70.3557 284.997 70.5451 284.605 70.5449 284.048C70.5446 283.49 70.3547 283.096 70.1905 282.91C70.1229 282.833 70.0405 282.766 69.9167 282.711C69.7903 282.655 69.5502 282.581 69.1319 282.581H38.3748C29.6298 282.581 22.523 275.467 22.523 266.713V235.925C22.523 235.503 22.4487 235.262 22.3928 235.135C22.338 235.011 22.2713 234.929 22.1957 234.862C22.0115 234.7 21.62 234.51 21.0628 234.51C20.5055 234.51 20.112 234.701 19.9259 234.865L18.28 232.997C18.9759 232.383 19.977 232.02 21.0616 232.02C22.1462 232.019 23.1464 232.381 23.8412 232.994C24.4888 233.566 25.0108 234.473 25.0108 235.925V266.713C25.0108 274.092 31.0038 280.091 38.3748 280.091H69.1319C70.5776 280.091 71.4838 280.613 72.0561 281.262C72.6699 281.959 73.0322 282.961 73.0327 284.047C73.0332 285.132 72.6719 286.133 72.0591 286.829C71.4881 287.477 70.5816 288 69.1319 288H38.3748C26.6519 288 17.1101 278.448 17.1101 266.713V235.925C17.1101 234.477 17.6314 233.57 18.28 232.997L19.9259 234.865C19.8493 234.933 19.7823 235.015 19.7277 235.139C19.6719 235.266 19.5979 235.506 19.5979 235.925V266.713C19.5979 277.073 28.0259 285.509 38.3748 285.509Z" fill="#24388A"/>
<g opacity="0.62" filter="url(#filter2_d_19118_260255)">
<path d="M227.861 182.575H21.8405C13.3233 182.575 13.3207 177.595 21.8405 177.595H227.861C236.378 177.595 236.381 182.575 227.861 182.575Z" fill="#FFD400"/>
</g>
<path fill-rule="evenodd" clip-rule="evenodd" d="M223.989 52.0752V21.2869C223.989 13.9081 217.996 7.9088 210.625 7.9088H179.868C178.422 7.9088 177.516 7.38697 176.944 6.73766C176.33 6.04112 175.968 5.03899 175.967 3.95324C175.967 2.8675 176.328 1.86636 176.941 1.17082C177.512 0.522575 178.418 0 179.868 0H210.625C222.348 0 231.89 9.55149 231.89 21.2869V52.0752C231.89 53.5223 231.368 54.4295 230.72 55.0023C230.024 55.6168 229.023 55.9795 227.938 55.98C226.853 55.9805 225.853 55.6188 225.159 55.0054C224.511 54.4338 223.989 53.5264 223.989 52.0752ZM226.477 21.2869V52.0752C226.477 52.4964 226.551 52.7379 226.607 52.8648C226.662 52.9889 226.728 53.0709 226.804 53.1376C226.988 53.3002 227.38 53.4899 227.937 53.4896C228.494 53.4893 228.888 53.2992 229.074 53.1348C229.15 53.0672 229.217 52.9847 229.272 52.8608C229.328 52.7342 229.402 52.4939 229.402 52.0752V21.2869C229.402 10.9268 220.974 2.49035 210.625 2.49035H179.868C179.447 2.49035 179.206 2.56475 179.079 2.62071C178.955 2.6755 178.873 2.74226 178.806 2.818C178.644 3.00233 178.455 3.39426 178.455 3.95207C178.455 4.50996 178.645 4.90385 178.809 5.09015C178.877 5.16683 178.959 5.23382 179.083 5.28856C179.209 5.34441 179.45 5.41845 179.868 5.41845H210.625C219.37 5.41845 226.477 12.5328 226.477 21.2869ZM223.989 21.2869V52.0752C223.989 53.5264 224.511 54.4338 225.159 55.0054C225.853 55.6188 226.853 55.9805 227.938 55.98C229.023 55.9795 230.024 55.6168 230.72 55.0023C231.368 54.4295 231.89 53.5223 231.89 52.0752V21.2869C231.89 9.55149 222.348 0 210.625 0H179.868C178.418 0 177.512 0.522575 176.941 1.17082C176.328 1.86636 175.967 2.8675 175.967 3.95324C175.968 5.03899 176.33 6.04112 176.944 6.73766C177.516 7.38697 178.422 7.9088 179.868 7.9088H210.625C217.996 7.9088 223.989 13.9081 223.989 21.2869Z" fill="#24388A"/>
<path fill-rule="evenodd" clip-rule="evenodd" d="M18.2797 55.0054C17.6321 54.4338 17.1101 53.5264 17.1101 52.0752V21.2869C17.1101 9.55149 26.6519 0 38.3748 0H69.1319C70.5776 0 71.4838 0.521827 72.0561 1.17114C72.6699 1.86768 73.0322 2.86981 73.0327 3.95556C73.0332 5.0413 72.6719 6.04244 72.0591 6.73798C71.4881 7.38622 70.5816 7.9088 69.1319 7.9088H38.3748C31.0038 7.9088 25.0108 13.9081 25.0108 21.2869V52.0752C25.0108 53.5223 24.4895 54.4295 23.8409 55.0023C23.145 55.6168 22.1439 55.9795 21.0593 55.98C19.9747 55.9805 18.9746 55.6188 18.2797 55.0054ZM19.7281 52.8648C19.7829 52.9889 19.8496 53.0709 19.9252 53.1376L18.2904 54.9933L19.9252 53.1376C20.1094 53.3002 20.5009 53.4899 21.0581 53.4896C21.6154 53.4893 22.0089 53.2992 22.195 53.1348C22.2716 53.0672 22.3386 52.9847 22.3932 52.8607C22.449 52.7342 22.523 52.4939 22.523 52.0752V21.2869C22.523 12.5328 29.6298 5.41845 38.3748 5.41845H69.1319C69.5527 5.41845 69.794 5.34405 69.9207 5.28809C70.0447 5.2333 70.1266 5.16654 70.1933 5.09081L72.0276 6.71017L70.1933 5.0908C70.3557 4.90646 70.5451 4.51453 70.5449 3.95672C70.5446 3.39884 70.3547 3.00495 70.1905 2.81865C70.1229 2.74197 70.0405 2.67498 69.9167 2.62024C69.7903 2.56439 69.5502 2.49035 69.1319 2.49035H38.3748C28.0259 2.49035 19.5979 10.9268 19.5979 21.2869V52.0752C19.5979 52.4964 19.6722 52.7379 19.7281 52.8648ZM17.1101 52.0752C17.1101 53.5264 17.6321 54.4338 18.2797 55.0054C18.9746 55.6188 19.9747 55.9805 21.0593 55.98C22.1439 55.9795 23.145 55.6168 23.8409 55.0023C24.4895 54.4295 25.0108 53.5223 25.0108 52.0752V21.2869C25.0108 13.9081 31.0038 7.9088 38.3748 7.9088H69.1319C70.5816 7.9088 71.4881 7.38622 72.0591 6.73798C72.6719 6.04244 73.0332 5.0413 73.0327 3.95556C73.0322 2.86981 72.6699 1.86768 72.0561 1.17114C71.4838 0.521827 70.5776 0 69.1319 0H38.3748C26.6519 0 17.1101 9.55149 17.1101 21.2869V52.0752Z" fill="#24388A"/>
<defs>
<filter id="filter0_d_19118_260255" x="29" y="13" width="190" height="265" filterUnits="userSpaceOnUse" color-interpolation-filters="sRGB">
<feFlood flood-opacity="0" result="BackgroundImageFix"/>
<feColorMatrix in="SourceAlpha" type="matrix" values="0 0 0 0 0 0 0 0 0 0 0 0 0 0 0 0 0 0 127 0" result="hardAlpha"/>
<feOffset dy="1"/>
<feGaussianBlur stdDeviation="2.5"/>
<feComposite in2="hardAlpha" operator="out"/>
<feColorMatrix type="matrix" values="0 0 0 0 0 0 0 0 0 0 0 0 0 0 0 0 0 0 0.25 0"/>
<feBlend mode="normal" in2="BackgroundImageFix" result="effect1_dropShadow_19118_260255"/>
<feBlend mode="normal" in="SourceGraphic" in2="effect1_dropShadow_19118_260255" result="shape"/>
</filter>
<filter id="filter1_d_19118_260255" x="29" y="13" width="190" height="265" filterUnits="userSpaceOnUse" color-interpolation-filters="sRGB">
<feFlood flood-opacity="0" result="BackgroundImageFix"/>
<feColorMatrix in="SourceAlpha" type="matrix" values="0 0 0 0 0 0 0 0 0 0 0 0 0 0 0 0 0 0 127 0" result="hardAlpha"/>
<feOffset dy="1"/>
<feGaussianBlur stdDeviation="2.5"/>
<feComposite in2="hardAlpha" operator="out"/>
<feColorMatrix type="matrix" values="0 0 0 0 0 0 0 0 0 0 0 0 0 0 0 0 0 0 0.25 0"/>
<feBlend mode="normal" in2="BackgroundImageFix" result="effect1_dropShadow_19118_260255"/>
<feBlend mode="normal" in="SourceGraphic" in2="effect1_dropShadow_19118_260255" result="shape"/>
</filter>
<filter id="filter2_d_19118_260255" x="0.45166" y="162.595" width="248.798" height="34.9807" filterUnits="userSpaceOnUse" color-interpolation-filters="sRGB">
<feFlood flood-opacity="0" result="BackgroundImageFix"/>
<feColorMatrix in="SourceAlpha" type="matrix" values="0 0 0 0 0 0 0 0 0 0 0 0 0 0 0 0 0 0 127 0" result="hardAlpha"/>
<feOffset/>
<feGaussianBlur stdDeviation="7.5"/>
<feColorMatrix type="matrix" values="0 0 0 0 1 0 0 0 0 0.831373 0 0 0 0 0 0 0 0 0.63 0"/>
<feBlend mode="normal" in2="BackgroundImageFix" result="effect1_dropShadow_19118_260255"/>
<feBlend mode="normal" in="SourceGraphic" in2="effect1_dropShadow_19118_260255" result="shape"/>
</filter>
<clipPath id="clip0_19118_260255">
<rect width="180" height="255" fill="white" transform="translate(34 17)"/>
</clipPath>
</defs>
</svg>
