<svg aria-hidden="true" width="16" height="16" viewBox="0 0 16 16" fill="none" xmlns="http://www.w3.org/2000/svg"><path fill-rule="evenodd" clip-rule="evenodd" d="M8.0001 14.4001C9.69748 14.4001 11.3253 13.7258 12.5256 12.5256C13.7258 11.3253 14.4001 9.69748 14.4001 8.0001C14.4001 6.30271 13.7258 4.67485 12.5256 3.47461C11.3253 2.27438 9.69748 1.6001 8.0001 1.6001C6.30271 1.6001 4.67485 2.27438 3.47461 3.47461C2.27438 4.67485 1.6001 6.30271 1.6001 8.0001C1.6001 9.69748 2.27438 11.3253 3.47461 12.5256C4.67485 13.7258 6.30271 14.4001 8.0001 14.4001ZM7.4001 10.6001C7.4001 10.7592 7.46331 10.9118 7.57583 11.0244C7.68836 11.1369 7.84097 11.2001 8.0001 11.2001C8.15923 11.2001 8.31184 11.1369 8.42436 11.0244C8.53688 10.9118 8.6001 10.7592 8.6001 10.6001V6.9281L10.1601 8.6081C10.2683 8.72479 10.4184 8.79372 10.5775 8.79972C10.7365 8.80573 10.8914 8.74831 11.0081 8.6401C11.1248 8.53189 11.1937 8.38176 11.1997 8.22272C11.2057 8.06369 11.1483 7.90879 11.0401 7.7921L8.4401 4.9921C8.38393 4.93151 8.31586 4.88318 8.24015 4.85013C8.16443 4.81708 8.08271 4.80002 8.0001 4.80002C7.91748 4.80002 7.83576 4.81708 7.76005 4.85013C7.68434 4.88318 7.61626 4.93151 7.5601 4.9921L4.9601 7.7921C4.90652 7.84988 4.86484 7.91765 4.83746 7.99154C4.81007 8.06542 4.7975 8.14398 4.80047 8.22272C4.80344 8.30147 4.82189 8.37886 4.85477 8.45047C4.88765 8.52208 4.93432 8.58652 4.9921 8.6401C5.04988 8.69368 5.11765 8.73535 5.19154 8.76274C5.26542 8.79013 5.34398 8.8027 5.42272 8.79972C5.50147 8.79675 5.57886 8.7783 5.65047 8.74542C5.72208 8.71254 5.78652 8.66588 5.8401 8.6081L7.4001 6.9281V10.6001Z" fill="#94A3B8"></path></svg>