<svg width="15" height="15" viewBox="0 0 15 15" fill="none" xmlns="http://www.w3.org/2000/svg">
<path fill-rule="evenodd" clip-rule="evenodd" d="M2.73461 0.375H1.82504V2.46194C0.994117 2.66652 0.375 3.41585 0.375 4.3099C0.375 5.20395 0.994117 5.95327 1.82504 6.15786V14.625H2.73461V6.1579C3.56557 5.95356 4.18464 5.20418 4.18464 4.3099C4.18464 3.41556 3.56551 2.66649 2.73461 2.46194V0.375ZM1.28457 4.3099C1.28457 3.76114 1.73107 3.31464 2.27982 3.31464C2.82857 3.31464 3.27507 3.76114 3.27507 4.3099C3.27507 4.85865 2.82857 5.30516 2.27982 5.30516C1.73107 5.30516 1.28457 4.85865 1.28457 4.3099ZM13.175 0.375H12.2654V5.652C11.4344 5.85634 10.8154 6.60571 10.8154 7.5C10.8154 8.39434 11.4345 9.14341 12.2654 9.34796V14.625H13.175V9.348C14.0059 9.14366 14.625 8.39429 14.625 7.5C14.625 6.60566 14.0059 5.85659 13.175 5.65204V0.375ZM11.7249 7.5C11.7249 6.95124 12.1714 6.50474 12.7202 6.50474C13.2689 6.50474 13.7154 6.95124 13.7154 7.5C13.7154 8.04876 13.2689 8.49526 12.7202 8.49526C12.1714 8.49526 11.7249 8.04876 11.7249 7.5ZM7.9549 0.375H7.04533V9.13211C6.21437 9.33645 5.59529 10.0858 5.59529 10.9801C5.59529 11.8745 6.21442 12.6235 7.04533 12.8281V14.625H7.9549V12.8281C8.78586 12.6238 9.40494 11.8744 9.40494 10.9801C9.40494 10.0858 8.7858 9.3367 7.9549 9.13215V0.375ZM6.50486 10.9801C6.50486 10.4314 6.95136 9.98485 7.50011 9.98485C8.04887 9.98485 8.49537 10.4314 8.49537 10.9801C8.49537 11.5289 8.04887 11.9754 7.50011 11.9754C6.95136 11.9754 6.50486 11.5289 6.50486 10.9801Z" fill="white"/>
</svg>
