<svg width="26" height="15" viewBox="0 0 26 15" fill="none" xmlns="http://www.w3.org/2000/svg">
<path fill-rule="evenodd" clip-rule="evenodd" d="M8.44252 1.05078H25.4627V14.296H8.44252C8.37224 14.0492 8.24679 13.8038 8.24129 13.5552C8.22457 12.8065 8.22711 12.0572 8.22972 11.2904C8.23069 11.0055 8.23167 10.7181 8.23167 10.4274C8.03493 10.4274 7.84299 10.4343 7.65505 10.4411C7.23395 10.4562 6.83286 10.4705 6.44264 10.4052C6.30664 10.3824 6.13784 10.4124 5.9665 10.443C5.54325 10.5185 5.10446 10.5967 5.10596 9.8874C5.1074 9.20991 5.53951 9.28542 5.95481 9.35804C6.12101 9.38709 6.28451 9.41566 6.41663 9.39533C6.82083 9.33317 7.23448 9.34695 7.66169 9.36117C7.84935 9.36743 8.03949 9.37379 8.23241 9.37379C8.23241 9.2846 8.22623 9.19888 8.22039 9.11793C8.20825 8.94966 8.19758 8.80178 8.24689 8.68507C8.34307 8.45798 8.54282 8.28465 8.69798 8.08801C8.85916 8.28827 9.04633 8.47084 9.17052 8.69596C9.21376 8.77446 9.20278 8.88977 9.1918 9.00498C9.18687 9.05678 9.18194 9.10858 9.18194 9.157V12.3455L13.777 7.25656L9.18194 2.75458C9.18194 3.00081 9.18132 3.23359 9.18073 3.45712C9.17941 3.95662 9.17821 4.40908 9.18427 4.8615C9.18986 5.28124 9.0717 5.61242 8.65264 5.60842C8.24816 5.60457 8.22564 5.25194 8.2286 4.89441C8.23195 4.48545 8.23105 4.07641 8.23014 3.66736C8.22876 3.042 8.22738 2.4167 8.24118 1.79178C8.24679 1.54309 8.37224 1.29768 8.44252 1.05078ZM19.9921 7.27907L24.4726 12.3513V2.14214H10.0228L16.8167 8.81985C17.4741 8.21083 18.1176 7.62369 18.7518 7.02489C19.7588 6.07423 20.7573 5.11235 21.7647 4.16208C22.0539 3.88916 22.3369 3.58366 22.671 3.40263C22.7935 3.33603 22.965 3.38032 23.1367 3.4247C23.2142 3.44474 23.2917 3.46479 23.3646 3.47457C23.319 3.70706 23.3306 3.9862 23.2143 4.16102C23.043 4.41872 22.781 4.60235 22.5572 4.81716L19.9921 7.27907ZM23.5968 13.2077H9.96236C11.5249 11.4778 13.044 9.79633 14.5887 8.08622C15.1588 8.62716 15.779 9.15662 16.3319 9.76154C16.6941 10.1576 16.9722 10.1309 17.3166 9.79436C17.9035 9.22061 18.4982 8.65669 19.056 8.12101L23.5968 13.2077Z" fill="#00234B"/>
<path fill-rule="evenodd" clip-rule="evenodd" d="M1.67676 6.79435C1.83255 6.50196 2.05461 6.43176 2.36312 6.43363C5.13994 6.45027 7.91687 6.44848 10.6937 6.43676C11.043 6.43536 11.3798 6.47709 11.3785 6.92064C11.3771 7.37076 11.016 7.48937 10.6647 7.49347C9.80366 7.50367 8.94238 7.49685 8.08121 7.49685C6.25339 7.49685 4.42546 7.48645 2.59775 7.50509C2.20088 7.50907 1.89691 7.39467 1.67676 7.02858V6.79435Z" fill="#00234B"/>
<path fill-rule="evenodd" clip-rule="evenodd" d="M1.67687 12.3025C1.81183 11.9229 2.04468 11.8088 2.424 11.8212C3.54771 11.8579 4.6731 11.839 5.79776 11.8314C6.12329 11.8291 6.40844 11.8679 6.43032 12.3194C6.45452 12.8163 6.1235 12.8793 5.8005 12.8829C4.64076 12.8956 3.48006 12.9119 2.32158 12.8667C2.10217 12.8582 1.89152 12.5759 1.67676 12.4198C1.67686 12.3807 1.67687 12.3416 1.67687 12.3025Z" fill="#00234B"/>
<path fill-rule="evenodd" clip-rule="evenodd" d="M5.07755 4.33235C4.49836 4.33235 3.91896 4.32368 3.33988 4.33563C2.96954 4.34325 2.65553 4.24003 2.64021 3.77644C2.62383 3.28296 2.96975 3.27499 3.30384 3.27651C4.49741 3.28213 5.69109 3.28365 6.88466 3.27545C7.19518 3.27334 7.47472 3.32644 7.48075 3.73707C7.48698 4.16234 7.2347 4.33495 6.86806 4.33308C6.27112 4.33003 5.67439 4.33224 5.07755 4.33235Z" fill="#00234B"/>
</svg>
