<svg width="24" height="24" viewBox="0 0 24 24" fill="none" xmlns="http://www.w3.org/2000/svg">
<path fill-rule="evenodd" clip-rule="evenodd" d="M19 2.75049C17.7574 2.75049 16.75 3.75785 16.75 5.00049C16.75 6.24313 17.7574 7.25049 19 7.25049C20.2426 7.25049 21.25 6.24313 21.25 5.00049C21.25 3.75785 20.2426 2.75049 19 2.75049ZM15.25 5.00049C15.25 2.92942 16.9289 1.25049 19 1.25049C21.0711 1.25049 22.75 2.92942 22.75 5.00049C22.75 7.07156 21.0711 8.75049 19 8.75049C16.9289 8.75049 15.25 7.07156 15.25 5.00049ZM9.94359 3.25049H13C13.4142 3.25049 13.75 3.58628 13.75 4.00049C13.75 4.4147 13.4142 4.75049 13 4.75049H10C8.09318 4.75049 6.73851 4.75208 5.71085 4.89025C4.70476 5.02551 4.12511 5.27918 3.7019 5.70239C3.27869 6.1256 3.02502 6.70525 2.88976 7.71134C2.75159 8.739 2.75 10.0937 2.75 12.0005C2.75 13.9073 2.75159 15.262 2.88976 16.2897C3.02502 17.2957 3.27869 17.8754 3.7019 18.2986C4.12511 18.7218 4.70476 18.9755 5.71085 19.1107C6.73851 19.2489 8.09318 19.2505 10 19.2505H14C15.9068 19.2505 17.2615 19.2489 18.2892 19.1107C19.2952 18.9755 19.8749 18.7218 20.2981 18.2986C20.7213 17.8754 20.975 17.2957 21.1102 16.2897C21.2484 15.262 21.25 13.9073 21.25 12.0005C21.25 11.6276 21.2527 11.3551 21.255 11.1209C21.2587 10.7417 21.2615 10.4627 21.2502 10.0196C21.2397 9.60547 21.5669 9.26126 21.9809 9.25073C22.395 9.24021 22.7392 9.56735 22.7498 9.98143C22.7616 10.4475 22.7586 10.7657 22.7547 11.1677C22.7525 11.4017 22.75 11.664 22.75 12.0005V12.0569C22.75 13.8947 22.75 15.3503 22.5969 16.4895C22.4392 17.6619 22.1071 18.6109 21.3588 19.3593C20.6104 20.1076 19.6614 20.4397 18.489 20.5974C17.3498 20.7505 15.8942 20.7505 14.0564 20.7505H9.94359C8.10583 20.7505 6.65019 20.7505 5.51098 20.5974C4.33856 20.4397 3.38961 20.1076 2.64124 19.3593C1.89288 18.6109 1.56076 17.6619 1.40314 16.4895C1.24997 15.3503 1.24998 13.8947 1.25 12.0569V11.9441C1.24998 10.1063 1.24997 8.65068 1.40314 7.51147C1.56076 6.33904 1.89288 5.3901 2.64124 4.64173C3.38961 3.89337 4.33856 3.56125 5.51098 3.40362C6.65019 3.25046 8.10582 3.25047 9.94359 3.25049ZM5.42383 7.52035C5.68901 7.20214 6.16193 7.15915 6.48014 7.42432L8.63903 9.2234C9.57199 10.0009 10.2197 10.5389 10.7666 10.8906C11.2959 11.2311 11.6549 11.3454 12 11.3454C12.3451 11.3454 12.7041 11.2311 13.2334 10.8906C13.7803 10.5389 14.428 10.0009 15.361 9.2234C15.6792 8.95823 16.1521 9.00122 16.4173 9.31943C16.6824 9.63764 16.6395 10.1106 16.3212 10.3757L16.2837 10.4071C15.3973 11.1457 14.6789 11.7444 14.0448 12.1522C13.3843 12.577 12.7411 12.8454 12 12.8454C11.2589 12.8454 10.6157 12.577 9.95518 12.1522C9.32112 11.7444 8.60272 11.1457 7.71637 10.4071L5.51986 8.57666C5.20165 8.31148 5.15866 7.83856 5.42383 7.52035Z" fill="#1B2746"/>
</svg>
