<svg width="40" height="40" viewBox="0 0 40 40" fill="none" xmlns="http://www.w3.org/2000/svg">
<path fill-rule="evenodd" clip-rule="evenodd" d="M20 40C31.0456 40 40 31.0456 40 20C40 8.9543 31.0456 0 20 0C8.9543 0 0 8.9543 0 20C0 31.0456 8.9543 40 20 40ZM13.1716 13.1716C12 14.3431 12 16.2288 12 20C12 23.7712 12 25.6568 13.1716 26.8284C14.3431 28 16.2288 28 20 28C23.7712 28 25.6568 28 26.8284 26.8284C28 25.6568 28 23.7712 28 20C28 16.2288 28 14.3431 26.8284 13.1716C25.6568 12 23.7712 12 20 12C16.2288 12 14.3431 12 13.1716 13.1716Z" fill="#1C274C"/>
<path d="M12 20C12 16.2288 12 14.3431 13.1716 13.1716C14.3431 12 16.2288 12 20 12C23.7712 12 25.6568 12 26.8284 13.1716C28 14.3431 28 16.2288 28 20C28 23.7712 28 25.6568 26.8284 26.8284C25.6568 28 23.7712 28 20 28C16.2288 28 14.3431 28 13.1716 26.8284C12 25.6568 12 23.7712 12 20Z" fill="white"/>
</svg>
