<svg width="43" height="19" viewBox="0 0 43 19" fill="none" xmlns="http://www.w3.org/2000/svg">
<path fill-rule="evenodd" clip-rule="evenodd" d="M14.2399 1.33203H41.561V18.1093H14.2399C14.1271 17.7967 13.9257 17.4859 13.9169 17.1709C13.8901 16.2226 13.8942 15.2735 13.8983 14.3022C13.8999 13.9413 13.9015 13.5773 13.9015 13.2091C13.5857 13.2091 13.2776 13.2178 12.9759 13.2264C12.2999 13.2455 11.6561 13.2637 11.0297 13.1809C10.8114 13.152 10.5404 13.1901 10.2654 13.2288C9.58599 13.3245 8.88163 13.4235 8.88404 12.5251C8.88635 11.6669 9.57998 11.7626 10.2466 11.8546C10.5134 11.8914 10.7759 11.9276 10.988 11.9018C11.6368 11.8231 12.3008 11.8405 12.9865 11.8585C13.2878 11.8665 13.593 11.8745 13.9027 11.8745C13.9027 11.7615 13.8927 11.653 13.8834 11.5504C13.8639 11.3373 13.8468 11.15 13.9259 11.0021C14.0803 10.7145 14.4009 10.4949 14.65 10.2458C14.9087 10.4995 15.2092 10.7308 15.4085 11.0159C15.478 11.1154 15.4603 11.2614 15.4427 11.4073C15.4348 11.473 15.4269 11.5386 15.4269 11.5999V15.6387L22.8029 9.19269L15.4269 3.49017C15.4269 3.80206 15.4259 4.09692 15.4249 4.38007C15.4228 5.01276 15.4209 5.58588 15.4306 6.15894C15.4396 6.69061 15.2499 7.11011 14.5772 7.10504C13.9279 7.10016 13.8918 6.6535 13.8966 6.20062C13.9019 5.68262 13.9005 5.16449 13.899 4.64636C13.8968 3.85425 13.8946 3.06219 13.9167 2.27063C13.9257 1.95563 14.1271 1.64478 14.2399 1.33203ZM32.7796 9.22119L39.9717 15.646V2.71442H16.7767L27.6824 11.1729C28.7376 10.4014 29.7705 9.65771 30.7886 8.89923C32.405 7.69507 34.0079 6.47668 35.6249 5.27301C36.0892 4.92731 36.5434 4.54034 37.0797 4.31104C37.2764 4.22668 37.5516 4.28278 37.8273 4.33899C37.9516 4.36438 38.076 4.38977 38.1932 4.40216C38.1198 4.69666 38.1385 5.05023 37.9519 5.27167C37.6769 5.59808 37.2563 5.83069 36.8971 6.10278L32.7796 9.22119ZM38.5659 16.7308H16.6796C19.1878 14.5396 21.6263 12.4097 24.1058 10.2436C25.021 10.9288 26.0165 11.5994 26.9042 12.3657C27.4856 12.8674 27.9319 12.8336 28.4847 12.4072C29.4268 11.6805 30.3815 10.9662 31.2769 10.2877L38.5659 16.7308Z" fill="#00234B"/>
<path fill-rule="evenodd" clip-rule="evenodd" d="M3.37952 8.60735C3.62959 8.23699 3.98605 8.14806 4.48128 8.15044C8.93868 8.17151 13.3962 8.16925 17.8537 8.1544C18.4144 8.15262 18.9551 8.20548 18.9528 8.76732C18.9506 9.33747 18.3711 9.48771 17.8072 9.4929C16.425 9.50582 15.0424 9.49718 13.6601 9.49718C10.726 9.49718 7.79178 9.48401 4.8579 9.50761C4.22084 9.51266 3.73291 9.36776 3.37952 8.90404V8.60735Z" fill="#00234B"/>
<path fill-rule="evenodd" clip-rule="evenodd" d="M3.37957 15.5854C3.59622 15.1046 3.96998 14.96 4.57888 14.9757C6.38268 15.0222 8.18918 14.9983 9.9945 14.9887C10.517 14.9857 10.9748 15.0349 11.0099 15.6067C11.0487 16.2363 10.5174 16.316 9.9989 16.3206C8.13726 16.3366 6.27409 16.3572 4.41448 16.3001C4.06227 16.2893 3.72414 15.9317 3.37939 15.734C3.37956 15.6844 3.37957 15.6349 3.37957 15.5854Z" fill="#00234B"/>
<path fill-rule="evenodd" clip-rule="evenodd" d="M8.83828 5.48823C7.90856 5.48823 6.9785 5.47724 6.04895 5.49238C5.45447 5.50203 4.95043 5.37129 4.92583 4.78407C4.89953 4.159 5.45481 4.1489 5.9911 4.15083C7.90703 4.15796 9.82315 4.15988 11.7391 4.14949C12.2375 4.14682 12.6863 4.21408 12.6959 4.7342C12.7059 5.27288 12.301 5.49152 11.7124 5.48915C10.7542 5.48529 9.79634 5.48808 8.83828 5.48823Z" fill="#00234B"/>
</svg>
