<svg width="12" height="12" viewBox="0 0 12 12" fill="none" xmlns="http://www.w3.org/2000/svg">
<path id="Vector" d="M5.71915 0.838669C3.02197 0.838669 0.835438 3.0249 0.835438 5.7217C0.837112 8.41682 3.02365 10.6031 5.71915 10.6031C8.41632 10.6031 10.6029 8.41682 10.6029 5.72003C10.6029 3.0249 8.41632 0.838669 5.71915 0.838669ZM0 5.72003C0 2.56121 2.56156 0 5.72082 0C8.87841 0.00167399 11.44 2.56121 11.44 5.72003C11.44 8.87885 8.87841 11.4401 5.71915 11.4401C2.55989 11.4401 0 8.87885 0 5.72003ZM10.1676 10.1678C10.3316 10.0038 10.5962 10.0038 10.7602 10.1678L11.8769 11.2844C12.041 11.4484 12.041 11.7129 11.8769 11.877C11.7129 12.041 11.4483 12.041 11.2843 11.877L10.1676 10.7587C10.0035 10.5964 10.0035 10.3319 10.1676 10.1678Z" fill="#7C878E"/>
</svg>
