<svg width="30" height="30" viewBox="0 0 30 30" fill="none" xmlns="http://www.w3.org/2000/svg">
<path d="M18.75 16.5H17.1568V18.0847C17.1568 18.2271 17.0489 18.3403 16.9133 18.3403C16.7776 18.3403 16.6698 18.2271 16.6698 18.0847V16.5H11.25V20.0638C11.25 21.2578 11.7544 22.324 12.5545 23.047C13.212 23.6422 14.0677 24 15 24C16.0053 24 16.9167 23.5837 17.5916 22.9082C18.3047 22.1926 18.75 21.1811 18.75 20.0601V16.5ZM17.0872 19.8922C17.042 19.9396 16.9794 19.9652 16.9133 19.9652C16.8959 19.9652 16.882 19.9652 16.8646 19.9615C16.8506 19.9579 16.8333 19.9542 16.8193 19.9469C16.8054 19.9396 16.7915 19.9323 16.7776 19.9214C16.7637 19.9104 16.7532 19.9031 16.7393 19.8885C16.6941 19.841 16.6698 19.7753 16.6698 19.7059C16.6698 19.6402 16.6976 19.5745 16.7393 19.527C16.7498 19.5161 16.7637 19.5051 16.7776 19.4942C16.7915 19.4832 16.8054 19.4759 16.8193 19.4722C16.8333 19.4649 16.8506 19.4613 16.8646 19.4576C16.9446 19.4394 17.0281 19.4686 17.0837 19.527C17.1289 19.5745 17.1533 19.6402 17.1533 19.7059C17.1568 19.779 17.1324 19.8447 17.0872 19.8922Z" fill="#0696D6"/>
<path d="M18.75 12.7163C18.75 11.689 18.3291 10.7616 17.6507 10.0894C16.9724 9.41713 16.0332 9 15 9C14.3008 9 13.6468 9.18961 13.0867 9.52056C11.9875 10.1687 11.25 11.358 11.25 12.7197V15.75H18.75V12.7163ZM13.8694 10.8237C13.1981 11.2201 12.7806 11.9441 12.7806 12.7163C12.7806 12.8507 12.6728 12.9576 12.5371 12.9576C12.4014 12.9576 12.2936 12.8507 12.2936 12.7163C12.2936 11.7752 12.8015 10.8892 13.619 10.4065C13.7338 10.3376 13.8833 10.3755 13.9529 10.4927C14.0225 10.6065 13.9842 10.7547 13.8694 10.8237Z" fill="#0696D6"/>
<path d="M19.8916 0.75H3V25.9614C3 26.8336 3.34646 27.67 3.96316 28.2867C4.57987 28.9034 5.4163 29.2499 6.28845 29.2499H23.8268C24.699 29.2499 25.5354 28.9034 26.1521 28.2867C26.7688 27.67 27.1153 26.8336 27.1153 25.9614V7.97362L19.8916 0.75ZM19.4422 3.39172L24.4736 8.42304H20.5384C20.2477 8.42304 19.9689 8.30755 19.7633 8.10199C19.5577 7.89642 19.4422 7.61761 19.4422 7.32689V3.39172ZM23.8268 27.0576H6.28845C5.99773 27.0576 5.71892 26.9421 5.51335 26.7365C5.30778 26.5309 5.1923 26.2521 5.1923 25.9614V2.9423H17.2499V7.32689C17.2499 8.19904 17.5964 9.03547 18.2131 9.65217C18.8298 10.2689 19.6662 10.6153 20.5384 10.6153H24.923V25.9614C24.923 26.2521 24.8075 26.5309 24.6019 26.7365C24.3964 26.9421 24.1175 27.0576 23.8268 27.0576Z" fill="#7C878E"/>
</svg>
