<svg width="10" height="12" viewBox="0 0 10 12" fill="none" xmlns="http://www.w3.org/2000/svg">
<path fill-rule="evenodd" clip-rule="evenodd" d="M5.16263 10.9873C5.01227 11.1376 4.7685 11.1376 4.61815 10.9873L1.53812 7.90724C1.38776 7.75689 1.38776 7.51312 1.53812 7.36276C1.68847 7.21241 1.93224 7.21241 2.08259 7.36276L5.16263 10.4428C5.31298 10.5932 5.31298 10.8369 5.16263 10.9873Z" fill="#1B2746"/>
<path fill-rule="evenodd" clip-rule="evenodd" d="M8.31247 7.36277C8.46282 7.51312 8.46282 7.75689 8.31247 7.90724L5.23244 10.9873C5.08208 11.1376 4.83831 11.1376 4.68796 10.9873C4.53761 10.8369 4.53761 10.5931 4.68796 10.4428L7.76799 7.36277C7.91835 7.21241 8.16212 7.21241 8.31247 7.36277Z" fill="#1B2746"/>
<path fill-rule="evenodd" clip-rule="evenodd" d="M4.68796 1.01273C4.83831 0.862371 5.08209 0.862371 5.23244 1.01273L8.31247 4.09276C8.46282 4.24311 8.46282 4.48688 8.31247 4.63723C8.16212 4.78759 7.91835 4.78759 7.76799 4.63723L4.68796 1.5572C4.53761 1.40685 4.53761 1.16308 4.68796 1.01273Z" fill="#1B2746"/>
<path fill-rule="evenodd" clip-rule="evenodd" d="M1.53812 4.63723C1.38776 4.48688 1.38776 4.24311 1.53812 4.09276L4.61815 1.01272C4.7685 0.862372 5.01227 0.862372 5.16263 1.01272C5.31298 1.16308 5.31298 1.40685 5.16263 1.5572L2.08259 4.63723C1.93224 4.78759 1.68847 4.78759 1.53812 4.63723Z" fill="#1B2746"/>
</svg>
