<svg width="16" height="16" viewBox="0 0 16 16" fill="none" xmlns="http://www.w3.org/2000/svg">
<path d="M8 2.6333C7.34767 2.6333 6.7914 3.04999 6.58525 3.63325C6.49322 3.89361 6.20756 4.03008 5.9472 3.93805C5.68684 3.84603 5.55038 3.56037 5.64241 3.30001C5.98536 2.32969 6.91073 1.6333 8 1.6333C9.08933 1.6333 10.0147 2.32969 10.3577 3.30001C10.4497 3.56037 10.3132 3.84603 10.0529 3.93805C9.79247 4.03008 9.5068 3.89361 9.4148 3.63325C9.20867 3.04999 8.65233 2.6333 8 2.6333Z" fill="white"/>
<path d="M1.83333 4.80005C1.83333 4.52391 2.05719 4.30005 2.33333 4.30005H13.6667C13.9429 4.30005 14.1667 4.52391 14.1667 4.80005C14.1667 5.07619 13.9429 5.30005 13.6667 5.30005H2.33333C2.05719 5.30005 1.83333 5.07619 1.83333 4.80005Z" fill="white"/>
<path d="M3.94339 6.43356C3.92502 6.15802 3.68677 5.94956 3.41124 5.96792C3.13571 5.98629 2.92723 6.22454 2.94561 6.50008L3.25457 11.1345C3.31157 11.9897 3.35761 12.6805 3.46559 13.2225C3.57785 13.7861 3.7688 14.2568 4.1632 14.6257C4.55759 14.9947 5.03996 15.1539 5.60973 15.2285C6.15775 15.3001 6.85007 15.3001 7.70713 15.3001H8.293C9.15007 15.3001 9.84233 15.3001 10.3904 15.2285C10.9601 15.1539 11.4425 14.9947 11.8369 14.6257C12.2313 14.2568 12.4223 13.7861 12.5345 13.2225C12.6425 12.6805 12.6885 11.9897 12.7455 11.1345L13.0545 6.50008C13.0729 6.22454 12.8644 5.98629 12.5889 5.96792C12.3133 5.94956 12.0751 6.15802 12.0567 6.43356L11.7501 11.0329C11.6902 11.9315 11.6475 12.5567 11.5538 13.0271C11.4629 13.4835 11.336 13.725 11.1537 13.8955C10.9715 14.066 10.722 14.1766 10.2607 14.2369C9.78507 14.2991 9.1584 14.3001 8.25787 14.3001H7.74227C6.84173 14.3001 6.21503 14.2991 5.73943 14.2369C5.2781 14.1766 5.02866 14.066 4.84638 13.8955C4.66411 13.725 4.53722 13.4835 4.44632 13.0271C4.35261 12.5567 4.30992 11.9315 4.25002 11.0329L3.94339 6.43356Z" fill="white"/>
<path d="M6.28364 7.63582C6.55841 7.60835 6.8034 7.80882 6.83093 8.08362L7.16427 11.417C7.19173 11.6917 6.99127 11.9368 6.71647 11.9642C6.44171 11.9917 6.19668 11.7912 6.16921 11.5164L5.83587 8.18308C5.80839 7.90835 6.00887 7.66328 6.28364 7.63582Z" fill="white"/>
<path d="M10.1643 8.18308C10.1917 7.90835 9.99127 7.66328 9.71647 7.63582C9.44173 7.60835 9.19667 7.80882 9.1692 8.08362L8.83587 11.417C8.8084 11.6917 9.00887 11.9368 9.28367 11.9642C9.5584 11.9917 9.8034 11.7912 9.83093 11.5164L10.1643 8.18308Z" fill="white"/>
</svg>
