<svg width="41" height="40" viewBox="0 0 41 40" fill="none" xmlns="http://www.w3.org/2000/svg">
<rect x="0.333374" width="40" height="40" rx="8" fill="#F0F7FA"/>
<path fill-rule="evenodd" clip-rule="evenodd" d="M9.58337 15.0204C9.58337 12.4095 11.637 10.25 14.2223 10.25H26.4445C29.0298 10.25 31.0834 12.4095 31.0834 15.0204C31.0834 17.0483 29.8473 18.8004 28.0834 19.4846V24.052C28.0834 24.3624 28.0834 24.655 28.0801 24.9295C28.0823 24.9527 28.0834 24.9762 28.0834 25C28.0834 25.0314 28.0815 25.0623 28.0777 25.0927C28.0697 25.5455 28.0503 25.9464 28.0035 26.2945C27.9191 26.9223 27.7334 27.4891 27.2779 27.9445C26.8225 28.4 26.2557 28.5857 25.6279 28.6701C25.0331 28.7501 24.2839 28.75 23.3854 28.75H17.2814C16.3829 28.75 15.6337 28.7501 15.0389 28.6701C14.4111 28.5857 13.8443 28.4 13.3888 27.9445C12.9334 27.4891 12.7477 26.9223 12.6633 26.2945C12.6165 25.9464 12.5971 25.5455 12.589 25.0927C12.5853 25.0623 12.5834 25.0314 12.5834 25C12.5834 24.9762 12.5845 24.9527 12.5866 24.9295C12.5834 24.655 12.5834 24.3624 12.5834 24.052V19.4846C10.8195 18.8004 9.58337 17.0483 9.58337 15.0204ZM12.5834 17.8096C12.5836 16.9723 12.5875 16.2695 12.6633 15.7055C12.7477 15.0777 12.9334 14.5109 13.3888 14.0555C13.8443 13.6 14.4111 13.4143 15.0389 13.3299C15.6337 13.2499 16.3829 13.25 17.2814 13.25H23.3854C24.2839 13.25 25.0331 13.2499 25.6279 13.3299C26.2557 13.4143 26.8225 13.6 27.2779 14.0555C27.7334 14.5109 27.9191 15.0777 28.0035 15.7055C28.0793 16.2695 28.0832 16.9723 28.0834 17.8095C28.9773 17.238 29.5834 16.2103 29.5834 15.0204C29.5834 13.1905 28.1548 11.75 26.4445 11.75H14.2223C12.512 11.75 11.0834 13.1905 11.0834 15.0204C11.0834 16.2103 11.6895 17.238 12.5834 17.8096ZM19.5834 14.75H17.3334C16.3694 14.75 15.7218 14.7516 15.2388 14.8165C14.7773 14.8786 14.5798 14.9858 14.4495 15.1161C14.3192 15.2464 14.212 15.4439 14.1499 15.9054C14.085 16.3884 14.0834 17.036 14.0834 18V24C14.0834 24.0858 14.0834 24.1691 14.0835 24.25H26.5833C26.5834 24.1691 26.5834 24.0858 26.5834 24V18C26.5834 17.036 26.5818 16.3884 26.5169 15.9054C26.4548 15.4439 26.3476 15.2464 26.2173 15.1161C26.087 14.9858 25.8895 14.8786 25.428 14.8165C24.945 14.7516 24.2974 14.75 23.3334 14.75H21.0834V18.9726L21.764 18.1786C22.0335 17.8641 22.507 17.8277 22.8215 18.0972C23.136 18.3668 23.1724 18.8403 22.9028 19.1548L20.9028 21.4881C20.7604 21.6543 20.5523 21.75 20.3334 21.75C20.1145 21.75 19.9064 21.6543 19.764 21.4881L17.7639 19.1548C17.4944 18.8403 17.5308 18.3668 17.8453 18.0972C18.1598 17.8277 18.6333 17.8641 18.9028 18.1786L19.5834 18.9726V14.75ZM26.5512 25.75H14.1156C14.1244 25.8739 14.1356 25.9883 14.1499 26.0946C14.212 26.5561 14.3192 26.7536 14.4495 26.8839C14.5798 27.0142 14.7773 27.1214 15.2388 27.1835C15.7218 27.2484 16.3694 27.25 17.3334 27.25H23.3334C24.2974 27.25 24.945 27.2484 25.428 27.1835C25.8895 27.1214 26.087 27.0142 26.2173 26.8839C26.3476 26.7536 26.4548 26.5561 26.5169 26.0946C26.5312 25.9883 26.5424 25.8739 26.5512 25.75Z" fill="#24388A"/>
</svg>
