<svg width="40" height="40" viewBox="0 0 40 40" fill="none" xmlns="http://www.w3.org/2000/svg">
<rect width="40" height="40" rx="8" fill="#FFF7CD"/>
<path fill-rule="evenodd" clip-rule="evenodd" d="M18.9451 9.25H21.0549C22.4225 9.24998 23.5248 9.24996 24.3918 9.36652C25.2919 9.48754 26.0497 9.74643 26.6517 10.3484C26.9501 10.6468 27.1642 10.9836 27.319 11.3571C28.2511 11.4739 29.0336 11.7303 29.6517 12.3484C30.2536 12.9503 30.5125 13.7082 30.6335 14.6083C30.75 15.4753 30.75 16.5776 30.75 17.9452V22.0549C30.75 23.4225 30.75 24.5248 30.6335 25.3918C30.5125 26.2919 30.2536 27.0498 29.6517 27.6517C29.0336 28.2698 28.2511 28.5262 27.319 28.643C27.1642 29.0164 26.9501 29.3532 26.6517 29.6517C26.0497 30.2536 25.2919 30.5125 24.3918 30.6335C23.5248 30.75 22.4225 30.75 21.0549 30.75H18.9451C17.5775 30.75 16.4752 30.75 15.6083 30.6335C14.7081 30.5125 13.9503 30.2536 13.3484 29.6517C13.0499 29.3532 12.8358 29.0164 12.681 28.643C11.7489 28.5262 10.9664 28.2698 10.3484 27.6517C9.74643 27.0498 9.48754 26.2919 9.36652 25.3918C9.24996 24.5248 9.24998 23.4225 9.25 22.0549V17.9452C9.24998 16.5776 9.24996 15.4753 9.36652 14.6083C9.48754 13.7082 9.74643 12.9503 10.3484 12.3484C10.9664 11.7303 11.7489 11.4739 12.681 11.3571C12.8358 10.9836 13.0499 10.6468 13.3484 10.3484C13.9503 9.74643 14.7081 9.48754 15.6083 9.36652C16.4752 9.24996 17.5775 9.24998 18.9451 9.25ZM12.3284 12.9405C11.8908 13.0459 11.618 13.2001 11.409 13.4091C11.1323 13.6858 10.9518 14.0744 10.8532 14.8082C10.7516 15.5635 10.75 16.5646 10.75 18.0001V22.0001C10.75 23.4355 10.7516 24.4366 10.8532 25.1919C10.9518 25.9257 11.1323 26.3143 11.409 26.591C11.618 26.8 11.8908 26.9542 12.3285 27.0596C12.25 26.2484 12.25 25.2535 12.25 24.0549V15.9451C12.25 14.7465 12.25 13.7517 12.3284 12.9405ZM27.6716 27.0596C28.1092 26.9542 28.382 26.8 28.591 26.591C28.8678 26.3143 29.0482 25.9257 29.1469 25.1919C29.2484 24.4366 29.25 23.4355 29.25 22.0001V18.0001C29.25 16.5646 29.2484 15.5635 29.1469 14.8082C29.0482 14.0744 28.8678 13.6858 28.591 13.4091C28.382 13.2001 28.1092 13.0459 27.6716 12.9405C27.75 13.7517 27.75 14.7465 27.75 15.9451V24.0549C27.75 25.2535 27.75 26.2484 27.6716 27.0596ZM15.8081 10.8532C15.0744 10.9518 14.6858 11.1323 14.409 11.409C14.1323 11.6858 13.9518 12.0744 13.8532 12.8081C13.7516 13.5635 13.75 14.5646 13.75 16V24C13.75 25.4354 13.7516 26.4365 13.8532 27.1919C13.9518 27.9257 14.1323 28.3142 14.409 28.591C14.6858 28.8678 15.0744 29.0482 15.8081 29.1469C16.5635 29.2484 17.5646 29.25 19 29.25H21C22.4354 29.25 23.4365 29.2484 24.1919 29.1469C24.9257 29.0482 25.3142 28.8678 25.591 28.591C25.8678 28.3142 26.0482 27.9257 26.1469 27.1919C26.2484 26.4365 26.25 25.4354 26.25 24V16C26.25 14.5646 26.2484 13.5635 26.1469 12.8081C26.0482 12.0744 25.8678 11.6858 25.591 11.409C25.3142 11.1323 24.9257 10.9518 24.1919 10.8532C23.4365 10.7516 22.4354 10.75 21 10.75H19C17.5646 10.75 16.5635 10.7516 15.8081 10.8532ZM16.25 17C16.25 16.5858 16.5858 16.25 17 16.25H23C23.4142 16.25 23.75 16.5858 23.75 17C23.75 17.4142 23.4142 17.75 23 17.75H17C16.5858 17.75 16.25 17.4142 16.25 17ZM16.25 21C16.25 20.5858 16.5858 20.25 17 20.25H23C23.4142 20.25 23.75 20.5858 23.75 21C23.75 21.4142 23.4142 21.75 23 21.75H17C16.5858 21.75 16.25 21.4142 16.25 21ZM16.25 25C16.25 24.5858 16.5858 24.25 17 24.25H20C20.4142 24.25 20.75 24.5858 20.75 25C20.75 25.4142 20.4142 25.75 20 25.75H17C16.5858 25.75 16.25 25.4142 16.25 25Z" fill="#FF3C02"/>
</svg>
