<svg width="11" height="11" viewBox="0 0 11 11" fill="none" xmlns="http://www.w3.org/2000/svg">
<path fill-rule="evenodd" clip-rule="evenodd" d="M1.1001 2.35746C1.35564 2.0485 1.59279 1.72145 1.87061 1.43441C2.39998 0.887224 3.27834 1.02925 3.57535 1.73241C3.77366 2.20219 3.94421 2.70784 3.98979 3.21015C4.01538 3.49199 3.82312 3.85679 3.61841 4.08175C3.34402 4.38333 3.31375 4.63402 3.46865 4.98808C4.02338 6.25655 4.92721 7.13692 6.22606 7.59977C6.39833 7.66115 6.54181 7.65514 6.67089 7.51035C6.74126 7.43144 6.82248 7.36096 6.90553 7.29566C7.22768 7.04277 7.56056 6.86685 7.99431 7.0264C8.30023 7.13888 8.62729 7.19138 8.93949 7.28841C9.35988 7.41889 9.67197 7.66806 9.77844 8.12769C9.79477 8.19806 9.8584 8.25715 9.9001 8.32141V8.43838C9.75662 8.67327 9.65004 8.94564 9.46109 9.13404C9.17425 9.42003 8.83028 9.64767 8.51065 9.9001H8.39482C8.21787 9.85799 8.04183 9.81195 7.86397 9.77446C7.3009 9.65586 6.72664 9.57695 6.17568 9.41648C4.891 9.04222 3.84049 8.28759 2.96761 7.27535C2.1209 6.29323 1.56492 5.16366 1.32446 3.88238C1.23695 3.41549 1.17412 2.94389 1.1001 2.47445V2.35746Z" fill="#7C878E"/>
</svg>
