<svg width="17" height="16" viewBox="0 0 17 16" fill="none" xmlns="http://www.w3.org/2000/svg">
<path fill-rule="evenodd" clip-rule="evenodd" d="M8.49996 1.8335C5.09421 1.8335 2.3333 4.59441 2.3333 8.00016C2.3333 11.4059 5.09421 14.1668 8.49996 14.1668C11.9057 14.1668 14.6666 11.4059 14.6666 8.00016C14.6666 4.59441 11.9057 1.8335 8.49996 1.8335ZM1.3333 8.00016C1.3333 4.04212 4.54192 0.833496 8.49996 0.833496C12.458 0.833496 15.6666 4.04212 15.6666 8.00016C15.6666 11.9582 12.458 15.1668 8.49996 15.1668C4.54192 15.1668 1.3333 11.9582 1.3333 8.00016ZM8.49996 4.8335C8.7761 4.8335 8.99996 5.05736 8.99996 5.3335V7.79303L10.5202 9.3133C10.7154 9.50856 10.7154 9.8251 10.5202 10.0204C10.3249 10.2156 10.0084 10.2156 9.8131 10.0204L8.14643 8.3537C8.05263 8.25996 7.99996 8.13276 7.99996 8.00016V5.3335C7.99996 5.05736 8.22383 4.8335 8.49996 4.8335Z" fill="#1B2746"/>
</svg>
