<svg width="18" height="18" viewBox="0 0 18 18" fill="none" xmlns="http://www.w3.org/2000/svg">
<path fill-rule="evenodd" clip-rule="evenodd" d="M0.449951 8.80159C0.530471 8.68632 0.592816 8.55044 0.695254 8.46003C0.924118 8.25803 1.19819 8.23421 1.47216 8.3583C1.75214 8.48509 1.88795 8.72227 1.88475 9.02451C1.87185 10.2373 2.16196 11.3768 2.75867 12.4258C3.9475 14.5155 5.74243 15.7545 8.12669 16.0715C11.8699 16.5693 15.3973 13.9392 16.0219 10.2229C16.6712 6.35969 14.165 2.73833 10.3197 2.00168C9.91287 1.92374 9.49183 1.90717 9.07626 1.89106C8.68486 1.87586 8.36505 1.65976 8.3005 1.32017C8.22536 0.924853 8.40928 0.619945 8.81132 0.472036C8.82067 0.468561 8.82719 0.457469 8.835 0.449951C9.06888 0.449951 9.30272 0.449951 9.53656 0.449951C9.5796 0.459306 9.62223 0.4712 9.6657 0.477615C10.0559 0.535216 10.4506 0.571132 10.8358 0.651987C15.4946 1.62935 18.4845 6.44553 17.3037 11.0613C16.1445 15.5925 11.7163 18.3329 7.1399 17.351C3.82104 16.6388 1.12903 13.8241 0.582058 10.4909C0.530037 10.1741 0.493619 9.85474 0.449951 9.53656C0.449951 9.2916 0.449951 9.04659 0.449951 8.80159Z" fill="#1B2746"/>
<path fill-rule="evenodd" clip-rule="evenodd" d="M9.71194 6.51628C9.71184 7.32345 9.70766 8.13066 9.71381 8.93777C9.71642 9.28233 9.56991 9.51818 9.26347 9.6702C8.33729 10.1297 7.41374 10.5944 6.4884 11.0556C6.21342 11.1926 5.94587 11.1729 5.70635 10.9801C5.47294 10.7922 5.39102 10.5411 5.46252 10.2486C5.51758 10.0234 5.66398 9.87203 5.86979 9.7697C6.62632 9.39356 7.38013 9.01197 8.13872 8.64001C8.25533 8.58288 8.29619 8.51983 8.29572 8.38869C8.29038 6.94695 8.29185 5.50514 8.29261 4.06336C8.29281 3.68595 8.49358 3.40714 8.81967 3.32444C9.27085 3.20998 9.69985 3.52815 9.70947 3.99457C9.71782 4.40081 9.71181 4.80728 9.71204 5.21366C9.71214 5.43076 9.71204 5.6479 9.71204 5.86497C9.71207 6.08204 9.71207 6.29918 9.71194 6.51628Z" fill="#0696D6"/>
<path fill-rule="evenodd" clip-rule="evenodd" d="M5.28809 1.76113C5.28662 1.3631 5.59574 1.04918 5.99085 1.04737C6.39108 1.04553 6.70388 1.35011 6.70892 1.74653C6.714 2.14836 6.39402 2.47599 5.99744 2.47498C5.60833 2.47405 5.28956 2.15324 5.28809 1.76113Z" fill="#0696D6"/>
<path fill-rule="evenodd" clip-rule="evenodd" d="M1.047 6.00292C1.04643 5.60918 1.35946 5.29264 1.7527 5.28933C2.15741 5.28589 2.47424 5.60259 2.4697 6.006C2.46525 6.40195 2.14915 6.71554 1.75638 6.71374C1.36109 6.71187 1.0476 6.39777 1.047 6.00292Z" fill="#0696D6"/>
<path fill-rule="evenodd" clip-rule="evenodd" d="M3.46005 2.75244C3.85476 2.75164 4.16953 3.06497 4.16966 3.45895C4.16983 3.8562 3.86161 4.16475 3.46225 4.16709C3.06684 4.1694 2.75274 3.85711 2.75281 3.46162C2.75291 3.06697 3.06573 2.75328 3.46005 2.75244Z" fill="#0696D6"/>
</svg>
