<svg width="20" height="20" viewBox="0 0 20 20" fill="none" xmlns="http://www.w3.org/2000/svg">
<path fill-rule="evenodd" clip-rule="evenodd" d="M16.1035 2.31593C15.2763 2.46307 14.1583 2.83401 12.5777 3.36087L4.80165 5.95278C3.91772 6.24742 3.31243 6.45044 2.88994 6.65332C2.47051 6.85473 2.35889 6.99856 2.31592 7.10237C2.27969 7.18991 2.25778 7.2827 2.25104 7.3772C2.24305 7.48927 2.27855 7.66782 2.56363 8.03553C2.85077 8.40592 3.30136 8.85817 3.9602 9.517L4.19573 9.7525C4.20699 9.76375 4.21813 9.77492 4.22913 9.78592C4.40882 9.96542 4.55513 10.1115 4.66943 10.2798C4.89323 10.6094 5.02028 10.995 5.03615 11.3931C5.04426 11.5963 5.01345 11.8008 4.97561 12.052C4.97329 12.0673 4.97095 12.0829 4.96858 12.0987C4.8859 12.6496 4.82831 13.0351 4.80161 13.3357C4.77506 13.6347 4.7847 13.7988 4.81108 13.9137C4.82964 13.9944 4.85409 14.0729 4.88397 14.1486L16.7828 2.24969C16.6044 2.24673 16.3827 2.26628 16.1035 2.31593ZM18.3271 1.58927C18.9649 2.22708 18.9974 3.09703 18.8312 4.03172C18.666 4.96004 18.2642 6.16522 17.7592 7.68032L15.119 15.6004C14.8491 16.4102 14.628 17.0736 14.3942 17.5643C14.1553 18.0657 13.8478 18.5107 13.3353 18.7362C13.0968 18.8412 12.8411 18.9016 12.5808 18.9144C12.0215 18.9418 11.5476 18.6813 11.1096 18.3397C10.681 18.0053 10.1865 17.5109 9.58292 16.9072L9.34342 16.6677C9.10667 16.431 9.04617 16.3745 8.98633 16.3344C8.856 16.2471 8.70475 16.1961 8.54808 16.1866C8.47617 16.1822 8.39392 16.1907 8.06212 16.2357L7.98259 16.2464C7.45523 16.318 7.03138 16.3756 6.68818 16.4012C6.33898 16.4272 6.02254 16.4252 5.72033 16.3512C4.66037 16.0919 3.8372 15.2571 3.59283 14.1936C3.52315 13.8903 3.52553 13.5739 3.55651 13.2252C3.58695 12.8823 3.65043 12.4594 3.72943 11.9332L3.73243 11.9132C3.7806 11.5922 3.78992 11.5125 3.78714 11.4429C3.78058 11.2782 3.72799 11.1185 3.63535 10.9821C3.5962 10.9244 3.54132 10.8659 3.31186 10.6364L3.04528 10.3698C2.42514 9.74975 1.91719 9.24183 1.57573 8.80142C1.2265 8.35092 0.963226 7.86287 1.00421 7.28826C1.02049 7.05997 1.07342 6.83578 1.16095 6.62431C1.38128 6.09203 1.83503 5.77324 2.34884 5.52651C2.85125 5.28524 3.53272 5.05811 4.36471 4.78082L12.2359 2.15717C13.7511 1.65213 14.9563 1.25039 15.8846 1.08526C16.8193 0.918983 17.6892 0.951467 18.3271 1.58927ZM17.6667 3.13358L5.75257 15.0477C5.83726 15.0846 5.92575 15.1146 6.01737 15.137C6.13179 15.165 6.29585 15.177 6.59517 15.1547C6.89615 15.1322 7.28246 15.08 7.83448 15.0051L7.89402 14.997C7.91027 14.9948 7.92633 14.9926 7.94221 14.9904C8.20193 14.9551 8.4135 14.9262 8.62342 14.9389C9.00175 14.9617 9.36717 15.0849 9.682 15.2958C9.85675 15.4129 10.0076 15.5639 10.1928 15.7493C10.2042 15.7607 10.2157 15.7722 10.2273 15.7838L10.4367 15.9932C11.0778 16.6344 11.518 17.0729 11.8784 17.3541C12.2367 17.6335 12.4112 17.6712 12.5195 17.6659C12.6272 17.6606 12.7331 17.6356 12.8318 17.5922C12.9311 17.5485 13.0703 17.4367 13.2657 17.0266C13.4623 16.614 13.6599 16.0249 13.9467 15.1647L16.5555 7.33849C17.0824 5.75791 17.4533 4.63991 17.6005 3.81278C17.6501 3.53371 17.6697 3.31201 17.6667 3.13358Z" fill="#1C274C"/>
</svg>
