<svg width="12" height="11" viewBox="0 0 12 11" fill="none" xmlns="http://www.w3.org/2000/svg">
<path fill-rule="evenodd" clip-rule="evenodd" d="M5.99862 0.857361C3.38596 0.857361 1.30986 2.95941 1.30986 5.49862V5.50118C1.30986 8.0404 3.38596 10.1424 5.99862 10.1424H6.0012C8.61386 10.1424 10.6899 8.0404 10.6899 5.50118V5.49862C10.6899 2.95941 8.61386 0.857361 6.0012 0.857361H5.99862ZM0.774902 5.49862C0.774902 2.58956 3.13678 0.274902 5.99862 0.274902H6.0012C8.86304 0.274902 11.2249 2.58956 11.2249 5.49862V5.50118C11.2249 8.41025 8.86304 10.7249 6.0012 10.7249H5.99862C3.13678 10.7249 0.774902 8.41025 0.774902 5.50118V5.49862Z" fill="#1B2746"/>
<path fill-rule="evenodd" clip-rule="evenodd" d="M5.93301 1.9248C6.04797 1.9248 6.14117 2.04499 6.14117 2.19325V5.51292H7.7167C7.83166 5.51292 7.92485 5.63311 7.92485 5.78136C7.92485 5.92962 7.83166 6.0498 7.7167 6.0498H5.93301C5.81805 6.0498 5.72485 5.92962 5.72485 5.78136V2.19325C5.72485 2.04499 5.81805 1.9248 5.93301 1.9248Z" fill="#1B2746"/>
</svg>
