<svg width="30" height="31" viewBox="0 0 30 31" fill="none" xmlns="http://www.w3.org/2000/svg">
<rect y="0.552246" width="30" height="30" rx="4" fill="#1BC47D"/>
<path fill-rule="evenodd" clip-rule="evenodd" d="M8 10.5526C8.40655 10.0611 8.78383 9.54076 9.22582 9.08411C10.068 8.21358 11.4654 8.43953 11.9379 9.5582C12.2534 10.3056 12.5247 11.11 12.5972 11.9091C12.6379 12.3575 12.3321 12.9379 12.0064 13.2958C11.5699 13.7756 11.5217 14.1744 11.7682 14.7377C12.6507 16.7557 14.0886 18.1563 16.1549 18.8926C16.429 18.9903 16.6573 18.9807 16.8626 18.7504C16.9746 18.6248 17.1038 18.5127 17.2359 18.4088C17.7484 18.0065 18.278 17.7266 18.9681 17.9805C19.4548 18.1594 19.9751 18.2429 20.4718 18.3973C21.1406 18.6049 21.6371 19.0013 21.8064 19.7325C21.8324 19.8445 21.9337 19.9385 22 20.0407V20.2268C21.7717 20.6005 21.6022 21.0338 21.3016 21.3335C20.8452 21.7885 20.298 22.1507 19.7895 22.5522H19.6052C19.3237 22.4853 19.0437 22.412 18.7607 22.3524C17.8649 22.1637 16.9513 22.0382 16.0748 21.7829C14.031 21.1874 12.3597 19.9869 10.971 18.3765C9.62401 16.814 8.73949 15.017 8.35693 12.9786C8.21772 12.2358 8.11777 11.4855 8 10.7387V10.5526Z" fill="white"/>
</svg>
