<svg width="30" height="30" viewBox="0 0 30 30" fill="none" xmlns="http://www.w3.org/2000/svg">
<path d="M10.6733 13.9037H9.57715V16.096H10.6733H19.4425H20.5386V13.9037H19.4425H10.6733Z" fill="#0696D6"/>
<path d="M10.6733 18.2883H9.57715V20.4806H10.6733H13.9617H15.0579V18.2883H13.9617H10.6733Z" fill="#0696D6"/>
<path d="M19.8916 0.75H3V25.9614C3 26.8336 3.34646 27.67 3.96316 28.2867C4.57987 28.9034 5.4163 29.2499 6.28845 29.2499H23.8268C24.699 29.2499 25.5354 28.9034 26.1521 28.2867C26.7688 27.67 27.1153 26.8336 27.1153 25.9614V7.97362L19.8916 0.75ZM19.4422 3.39172L24.4736 8.42304H20.5384C20.2477 8.42304 19.9689 8.30755 19.7633 8.10199C19.5577 7.89642 19.4422 7.61761 19.4422 7.32689V3.39172ZM23.8268 27.0576H6.28845C5.99773 27.0576 5.71892 26.9421 5.51335 26.7365C5.30778 26.5309 5.1923 26.2521 5.1923 25.9614V2.9423H17.2499V7.32689C17.2499 8.19904 17.5964 9.03547 18.2131 9.65217C18.8298 10.2689 19.6662 10.6153 20.5384 10.6153H24.923V25.9614C24.923 26.2521 24.8075 26.5309 24.6019 26.7365C24.3964 26.9421 24.1175 27.0576 23.8268 27.0576Z" fill="#7C878E"/>
</svg>
