<svg width="25" height="25" viewBox="0 0 25 25" fill="none" xmlns="http://www.w3.org/2000/svg">
<path d="M19.001 8.84087C18.587 8.84087 18.251 9.17687 18.251 9.59087V15.5909C18.251 16.0049 18.587 16.3409 19.001 16.3409C19.415 16.3409 19.751 16.0049 19.751 15.5909V9.59087C19.751 9.17687 19.415 8.84087 19.001 8.84087ZM12.5 8.84087C12.083 8.84087 11.684 8.90987 11.309 9.03287L12.62 10.3439C13.769 10.4039 14.687 11.3249 14.747 12.4709L16.058 13.7819C16.184 13.4069 16.25 13.0079 16.25 12.5909C16.25 10.5209 14.57 8.84087 12.5 8.84087ZM10.256 12.7319L8.93905 11.4149C8.81605 11.7839 8.75005 12.1799 8.75005 12.5909C8.75005 14.6609 10.43 16.3409 12.5 16.3409C12.911 16.3409 13.307 16.2749 13.676 16.1519L12.359 14.8349C11.228 14.7659 10.325 13.8629 10.256 12.7319ZM5.99905 8.84087C5.58505 8.84087 5.24905 9.17687 5.24905 9.59087V15.5909C5.24905 16.0049 5.58505 16.3409 5.99905 16.3409C6.41305 16.3409 6.74905 16.0049 6.74905 15.5909V9.59087C6.74905 9.17687 6.41305 8.84087 5.99905 8.84087ZM23.162 9.22787C23.072 8.33987 22.883 7.59887 22.448 6.95087C22.1 6.43187 21.656 5.98787 21.137 5.63987C20.489 5.20787 19.748 5.01887 18.86 4.92587C17.993 4.83887 16.91 4.83887 15.539 4.83887H9.45805C8.57305 4.83887 7.80505 4.83887 7.13905 4.86287L8.61505 6.33887C8.89105 6.33887 9.18505 6.33887 9.49705 6.33887H15.497C16.916 6.33887 17.927 6.33887 18.707 6.41987C19.475 6.49787 19.94 6.64487 20.303 6.88787C20.657 7.12487 20.963 7.43087 21.2 7.78487C21.44 8.14487 21.59 8.60987 21.668 9.38087C21.746 10.1609 21.749 11.1719 21.749 12.5909C21.749 14.0099 21.749 15.0209 21.668 15.8009C21.59 16.5689 21.443 17.0339 21.2 17.3969C20.996 17.6999 20.747 17.9669 20.456 18.1859L21.524 19.2539C21.878 18.9599 22.19 18.6149 22.448 18.2309C22.88 17.5829 23.069 16.8419 23.162 15.9539C23.249 15.0869 23.249 14.0039 23.249 12.6329V12.5489C23.249 11.1809 23.249 10.0949 23.162 9.22787ZM19.001 8.84087C18.587 8.84087 18.251 9.17687 18.251 9.59087V15.5909C18.251 16.0049 18.587 16.3409 19.001 16.3409C19.415 16.3409 19.751 16.0049 19.751 15.5909V9.59087C19.751 9.17687 19.415 8.84087 19.001 8.84087ZM15.5 18.8399H9.50005C8.08105 18.8399 7.07005 18.8399 6.29005 18.7589C5.52205 18.6809 5.05705 18.5339 4.69405 18.2909C4.34005 18.0539 4.03405 17.7479 3.79705 17.3939C3.55705 17.0339 3.40705 16.5689 3.32905 15.7979C3.25105 15.0179 3.24805 14.0069 3.24805 12.5879C3.24805 11.1689 3.24805 10.1579 3.32905 9.37787C3.40705 8.60987 3.55405 8.14487 3.79705 7.78187C3.99805 7.48187 4.24405 7.22087 4.52905 7.00187L3.46105 5.93387C3.11305 6.23087 2.80405 6.56987 2.54905 6.95087C2.11705 7.59887 1.92805 8.33987 1.83505 9.22787C1.74805 10.0949 1.74805 11.1779 1.74805 12.5489V12.6329C1.74805 14.0009 1.74805 15.0869 1.83505 15.9539C1.92505 16.8419 2.11405 17.5829 2.54905 18.2309C2.89705 18.7499 3.34105 19.1939 3.86005 19.5419C4.50805 19.9739 5.24905 20.1629 6.13705 20.2559C7.00405 20.3429 8.08705 20.3429 9.45805 20.3429H15.542C16.418 20.3429 17.18 20.3429 17.84 20.3189L16.361 18.8399C16.094 18.8399 15.806 18.8399 15.5 18.8399ZM14.747 12.4709L16.058 13.7819C16.184 13.4069 16.25 13.0079 16.25 12.5909C16.25 10.5209 14.57 8.84087 12.5 8.84087C12.083 8.84087 11.684 8.90987 11.309 9.03287L12.62 10.3439C13.766 10.4039 14.687 11.3249 14.747 12.4709ZM10.256 12.7319L8.93905 11.4149C8.81605 11.7839 8.75005 12.1799 8.75005 12.5909C8.75005 14.6609 10.43 16.3409 12.5 16.3409C12.911 16.3409 13.307 16.2749 13.676 16.1519L12.359 14.8349C11.228 14.7659 10.325 13.8629 10.256 12.7319ZM5.99905 16.3409C6.41305 16.3409 6.74905 16.0049 6.74905 15.5909V9.59087C6.74905 9.17687 6.41305 8.84087 5.99905 8.84087C5.58505 8.84087 5.24905 9.17687 5.24905 9.59087V15.5909C5.24905 16.0049 5.58505 16.3409 5.99905 16.3409ZM19.001 8.84087C18.587 8.84087 18.251 9.17687 18.251 9.59087V15.5909C18.251 16.0049 18.587 16.3409 19.001 16.3409C19.415 16.3409 19.751 16.0049 19.751 15.5909V9.59087C19.751 9.17687 19.415 8.84087 19.001 8.84087ZM12.5 8.84087C12.083 8.84087 11.684 8.90987 11.309 9.03287L12.62 10.3439C13.769 10.4039 14.687 11.3249 14.747 12.4709L16.058 13.7819C16.184 13.4069 16.25 13.0079 16.25 12.5909C16.25 10.5209 14.57 8.84087 12.5 8.84087ZM10.256 12.7319L8.93905 11.4149C8.81605 11.7839 8.75005 12.1799 8.75005 12.5909C8.75005 14.6609 10.43 16.3409 12.5 16.3409C12.911 16.3409 13.307 16.2749 13.676 16.1519L12.359 14.8349C11.228 14.7659 10.325 13.8629 10.256 12.7319ZM5.99905 8.84087C5.58505 8.84087 5.24905 9.17687 5.24905 9.59087V15.5909C5.24905 16.0049 5.58505 16.3409 5.99905 16.3409C6.41305 16.3409 6.74905 16.0049 6.74905 15.5909V9.59087C6.74905 9.17687 6.41305 8.84087 5.99905 8.84087ZM22.895 23.8109C22.685 23.8109 22.472 23.7299 22.313 23.5679L1.52005 2.77787C1.19905 2.45687 1.19905 1.93487 1.52005 1.61087C1.84105 1.28987 2.36605 1.28987 2.68705 1.61087L23.48 22.4039C23.801 22.7249 23.801 23.2499 23.48 23.5709C23.318 23.7299 23.108 23.8109 22.895 23.8109Z" fill="#0696D6"/>
</svg>
