<svg width="41" height="40" viewBox="0 0 41 40" fill="none" xmlns="http://www.w3.org/2000/svg">
<path d="M0.666626 8C0.666626 3.58172 4.24835 0 8.66663 0H32.6666C37.0849 0 40.6666 3.58172 40.6666 8V32C40.6666 36.4183 37.0849 40 32.6666 40H8.66663C4.24835 40 0.666626 36.4183 0.666626 32V8Z" fill="#FFE3E3"/>
<path d="M24.8333 13.3333H16.4999C13.9999 13.3333 12.3333 14.5833 12.3333 17.4999V20.4666C12.3333 20.7749 12.6499 20.9666 12.9249 20.8416C13.7416 20.4666 14.6833 20.3249 15.6749 20.4999C17.8666 20.8916 19.4749 22.9249 19.4166 25.1499C19.4083 25.4999 19.3583 25.8416 19.2666 26.1749C19.1999 26.4333 19.4083 26.6749 19.6749 26.6749H24.8333C27.3333 26.6749 28.9999 25.4249 28.9999 22.5083V17.4999C28.9999 14.5833 27.3333 13.3333 24.8333 13.3333ZM20.6666 22.0833C19.5166 22.0833 18.5833 21.1499 18.5833 19.9999C18.5833 18.8499 19.5166 17.9166 20.6666 17.9166C21.8166 17.9166 22.7499 18.8499 22.7499 19.9999C22.7499 21.1499 21.8166 22.0833 20.6666 22.0833ZM26.7083 21.6666C26.7083 22.0083 26.4249 22.2916 26.0833 22.2916C25.7416 22.2916 25.4583 22.0083 25.4583 21.6666V18.3333C25.4583 17.9916 25.7416 17.7083 26.0833 17.7083C26.4249 17.7083 26.7083 17.9916 26.7083 18.3333V21.6666Z" fill="#E60000"/>
<path d="M14.8333 21.6667C13.8333 21.6667 12.9417 22.1084 12.3333 22.8001C11.8167 23.3917 11.5 24.1584 11.5 25.0001C11.5 25.6251 11.675 26.2167 11.9833 26.7167C12.5583 27.6834 13.6167 28.3334 14.8333 28.3334C15.675 28.3334 16.4417 28.0251 17.025 27.5001C17.2833 27.2834 17.5083 27.0167 17.6833 26.7167C17.9917 26.2167 18.1667 25.6251 18.1667 25.0001C18.1667 23.1584 16.675 21.6667 14.8333 21.6667ZM16.1667 26.3167C16.0417 26.4417 15.8833 26.5001 15.725 26.5001C15.5667 26.5001 15.4083 26.4417 15.2833 26.3167L14.8417 25.8751L14.3833 26.3334C14.2583 26.4584 14.1 26.5167 13.9417 26.5167C13.7833 26.5167 13.625 26.4584 13.5 26.3334C13.2583 26.0917 13.2583 25.6917 13.5 25.4501L13.9583 24.9917L13.5167 24.5501C13.275 24.3084 13.275 23.9084 13.5167 23.6667C13.7583 23.4251 14.1583 23.4251 14.4 23.6667L14.8417 24.1084L15.2583 23.6917C15.5 23.4501 15.9 23.4501 16.1417 23.6917C16.3833 23.9334 16.3833 24.3334 16.1417 24.5751L15.725 24.9917L16.1667 25.4334C16.4083 25.6751 16.4083 26.0667 16.1667 26.3167Z" fill="#E60000"/>
</svg>
