<svg width="12" height="11" viewBox="0 0 12 11" fill="none" xmlns="http://www.w3.org/2000/svg">
<path fill-rule="evenodd" clip-rule="evenodd" d="M3.80197 1.64305C3.62714 1.9982 3.54427 2.37322 3.54074 2.83132C3.54236 2.84836 3.54459 2.86992 3.54718 2.89481C3.55428 2.96323 3.56399 3.05676 3.57062 3.15051C3.59952 3.56012 3.68512 3.9582 3.82459 4.34427C3.96993 4.74666 4.17389 5.11753 4.45968 5.44127C4.73889 5.75749 5.06918 5.99948 5.48246 6.11821C5.70777 6.18296 5.93764 6.19999 6.16998 6.16729C6.56373 6.11186 6.89922 5.93513 7.1922 5.6759C7.5819 5.33112 7.844 4.9015 8.03098 4.42437C8.18394 4.03419 8.26938 3.62839 8.31106 3.21244C8.33594 2.96438 8.35654 2.71753 8.32665 2.46789C8.28661 2.13279 8.18782 1.81685 8.02121 1.5233C7.74538 1.03736 7.35143 0.676914 6.83091 0.455759C6.45542 0.296219 6.06405 0.242438 5.65887 0.293594C5.18813 0.352976 4.77568 0.543069 4.41789 0.848049C4.1571 1.07034 3.95286 1.33642 3.80197 1.64305ZM3.77093 5.88641C3.75113 5.90708 3.67394 5.95518 3.58575 6.00298C3.48177 6.05932 3.35649 6.08951 3.25532 6.1139C3.19933 6.12739 3.15072 6.1391 3.11719 6.15248C2.92831 6.22787 2.6189 6.36213 2.46585 6.48789C2.08646 6.79969 1.79306 7.18042 1.59392 7.63423C1.35036 8.18929 1.26686 8.76746 1.3654 9.36895C1.40328 9.60019 1.4897 9.8125 1.63614 9.99612C1.83662 10.2475 2.10748 10.3816 2.40594 10.466C2.75504 10.5647 3.11389 10.595 3.47384 10.6049C3.83834 10.6148 4.20324 10.6152 4.56793 10.6148C5.30652 10.614 6.04512 10.6123 6.78372 10.6106C7.27225 10.6094 7.76078 10.6083 8.2493 10.6074C8.54986 10.6069 8.84875 10.5853 9.14556 10.538C9.41799 10.4947 9.68226 10.423 9.92223 10.2783C10.1194 10.1593 10.2729 9.99789 10.3787 9.78988C10.5019 9.5477 10.5462 9.28679 10.5552 9.01812C10.5701 8.57593 10.4974 8.14954 10.333 7.73874C10.2032 7.41436 10.0243 7.12174 9.79857 6.8589C9.6509 6.68694 9.48557 6.53324 9.30314 6.39967C9.14035 6.28053 8.1771 5.85715 8.05901 5.85755C8.05636 5.85755 8.05375 5.85664 8.05113 5.85572C8.04919 5.85504 8.04724 5.85436 8.04527 5.85405L7.79246 5.81579C7.77674 5.96234 7.70869 6.07633 7.63239 6.18458C7.44688 6.44786 7.22247 6.67593 6.98649 6.89093C6.78525 7.07423 6.57761 7.25028 6.37003 7.42628C6.33407 7.45677 6.29811 7.48726 6.26219 7.51778C6.19079 7.57846 6.11671 7.63585 6.04286 7.69304C6.00943 7.71894 5.97605 7.74479 5.94299 7.77089C5.93662 7.76629 5.93071 7.76216 5.92517 7.75828C5.91432 7.75069 5.90485 7.74407 5.89599 7.73673C5.81546 7.67003 5.73464 7.60369 5.65381 7.53736C5.46096 7.37907 5.26811 7.22079 5.07935 7.05759C4.82098 6.83414 4.57504 6.59622 4.35948 6.32864C4.23855 6.17851 4.11986 6.02549 4.08819 5.81422C4.06552 5.81797 4.04288 5.82168 4.02026 5.82538C3.94819 5.83719 3.87639 5.84895 3.80481 5.86201C3.79241 5.86422 3.78056 5.87636 3.77093 5.88641Z" fill="#0696D6"/>
</svg>
