<svg width="33" height="34" viewBox="0 0 33 34" fill="none" xmlns="http://www.w3.org/2000/svg">
<path d="M4.125 6C4.125 3.72183 5.97183 1.875 8.25 1.875H21.6664C22.7604 1.875 23.8096 2.3096 24.5832 3.08318L27.6668 6.16682C28.4404 6.9404 28.875 7.98961 28.875 9.08363V28C28.875 30.2782 27.0282 32.125 24.75 32.125H8.25C5.97183 32.125 4.125 30.2782 4.125 28V6Z" fill="#008DE5"/>
<path opacity="0.25" d="M20.625 3.10123C20.625 2.424 21.174 1.875 21.8512 1.875V1.875C22.8269 1.875 23.7626 2.26258 24.4525 2.95247L27.7975 6.29754C28.4874 6.98742 28.875 7.92312 28.875 8.89877V8.89877C28.875 9.576 28.326 10.125 27.6488 10.125H22C21.2406 10.125 20.625 9.50939 20.625 8.75V3.10123Z" fill="white"/>
<path d="M15.9737 12.9793C15.8115 13.0464 15.6596 13.1459 15.5277 13.2777L11.4027 17.4027C10.8658 17.9397 10.8658 18.8103 11.4027 19.3473C11.9397 19.8842 12.8103 19.8842 13.3473 19.3473L15.125 17.5695V23.875C15.125 24.6344 15.7406 25.25 16.5 25.25C17.2594 25.25 17.875 24.6344 17.875 23.875V17.5695L19.6527 19.3473C20.1897 19.8842 21.0603 19.8842 21.5973 19.3473C22.1342 18.8103 22.1342 17.9397 21.5973 17.4027L17.4723 13.2777C17.0671 12.8726 16.4721 12.7731 15.9737 12.9793Z" fill="white"/>
</svg>
