<svg width="25" height="26" viewBox="0 0 25 26" fill="none" xmlns="http://www.w3.org/2000/svg">
<path d="M7.55225 8.15833C7.55225 8.58979 7.90203 8.93958 8.3335 8.93958H16.6668C17.0983 8.93958 17.4481 8.58979 17.4481 8.15833C17.4481 7.72686 17.0983 7.37708 16.6668 7.37708H8.3335C7.90203 7.37708 7.55225 7.72686 7.55225 8.15833Z" fill="#0696D6"/>
<path d="M12.5 19.3562C12.9315 19.3562 13.2812 19.0064 13.2812 18.575V13.1695L15.0726 14.9607C15.3777 15.2658 15.8723 15.2658 16.1774 14.9607C16.4825 14.6556 16.4825 14.161 16.1774 13.8559L13.0524 10.7309C12.9059 10.5844 12.7072 10.5021 12.5 10.5021C12.2928 10.5021 12.0941 10.5844 11.9476 10.7309L8.82257 13.8559C8.51748 14.161 8.51748 14.6556 8.82257 14.9607C9.12766 15.2658 9.62233 15.2658 9.92742 14.9607L11.7187 13.1695V18.575C11.7187 19.0064 12.0685 19.3562 12.5 19.3562Z" fill="#0696D6"/>
<path fill-rule="evenodd" clip-rule="evenodd" d="M12.4404 2.16882C10.0358 2.16881 8.1514 2.1688 6.6811 2.36648C5.17617 2.56881 3.98865 2.99104 3.05656 3.92314C2.12446 4.85523 1.70224 6.04275 1.4999 7.54769C1.30223 9.01798 1.30224 10.9024 1.30225 13.3069V13.4265C1.30224 15.8311 1.30223 17.7155 1.4999 19.1858C1.70224 20.6907 2.12446 21.8783 3.05656 22.8104C3.98865 23.7425 5.17617 24.1647 6.6811 24.3671C8.1514 24.5647 10.0358 24.5647 12.4404 24.5647H12.56C14.9645 24.5647 16.8489 24.5647 18.3192 24.3671C19.8241 24.1647 21.0117 23.7425 21.9438 22.8104C22.8759 21.8783 23.2981 20.6907 23.5005 19.1858C23.6981 17.7155 23.6981 15.8311 23.6981 13.4265V13.3069C23.6981 10.9024 23.6981 9.01798 23.5005 7.54769C23.2981 6.04275 22.8759 4.85523 21.9438 3.92314C21.0117 2.99104 19.8241 2.56881 18.3192 2.36648C16.8489 2.1688 14.9645 2.16881 12.56 2.16882H12.4404ZM4.16141 5.02799C4.7548 4.43459 5.55763 4.09408 6.88931 3.91504C8.24345 3.73298 10.0228 3.73132 12.5002 3.73132C14.9775 3.73132 16.7568 3.73298 18.111 3.91504C19.4427 4.09408 20.2455 4.43459 20.8389 5.02799C21.4323 5.62138 21.7729 6.42421 21.9518 7.75589C22.1339 9.11003 22.1356 10.8894 22.1356 13.3667C22.1356 15.844 22.1339 17.6234 21.9518 18.9776C21.7729 20.3092 21.4323 21.1121 20.8389 21.7055C20.2455 22.2989 19.4427 22.6394 18.111 22.8184C16.7568 23.0005 14.9775 23.0022 12.5002 23.0022C10.0228 23.0022 8.24345 23.0005 6.88931 22.8184C5.55763 22.6394 4.7548 22.2989 4.16141 21.7055C3.56802 21.1121 3.22751 20.3092 3.04846 18.9776C2.8664 17.6234 2.86475 15.844 2.86475 13.3667C2.86475 10.8894 2.8664 9.11003 3.04846 7.75589C3.22751 6.42421 3.56802 5.62138 4.16141 5.02799Z" fill="#0696D6"/>
</svg>
