<svg width="40" height="40" viewBox="0 0 40 40" fill="none" xmlns="http://www.w3.org/2000/svg">
<rect width="40" height="40" rx="5" fill="#1BC47D" fill-opacity="0.1"/>
<path fill-rule="evenodd" clip-rule="evenodd" d="M16.0037 12.9875C15.6858 13.6333 15.5351 14.3151 15.5287 15.148C15.5316 15.179 15.5357 15.2182 15.5404 15.2635C15.5533 15.3879 15.571 15.5579 15.583 15.7284C15.6356 16.4731 15.7912 17.1969 16.0448 17.8988C16.309 18.6305 16.6799 19.3048 17.1995 19.8934C17.7072 20.4683 18.3077 20.9083 19.0591 21.1242C19.4687 21.2419 19.8867 21.2729 20.3091 21.2134C21.025 21.1127 21.635 20.7913 22.1677 20.32C22.8763 19.6931 23.3528 18.912 23.6928 18.0445C23.9709 17.3351 24.1262 16.5973 24.202 15.841C24.2472 15.39 24.2847 14.9411 24.2304 14.4873C24.1575 13.878 23.9779 13.3035 23.675 12.7698C23.1735 11.8863 22.4572 11.2309 21.5108 10.8288C20.8281 10.5388 20.1165 10.441 19.3798 10.534C18.5239 10.642 17.774 10.9876 17.1235 11.5421C16.6493 11.9462 16.278 12.43 16.0037 12.9875ZM15.9472 20.7027C15.9112 20.7403 15.7709 20.8278 15.6105 20.9146C15.4215 21.0171 15.1937 21.072 15.0098 21.1163C14.908 21.1409 14.8196 21.1621 14.7586 21.1865C14.4152 21.3236 13.8526 21.5677 13.5744 21.7963C12.8846 22.3632 12.3511 23.0555 11.989 23.8806C11.5462 24.8898 11.3944 25.941 11.5736 27.0346C11.6424 27.455 11.7995 27.8411 12.0658 28.1749C12.4303 28.632 12.9228 28.8758 13.4654 29.0293C14.1002 29.2087 14.7526 29.2638 15.4071 29.2817C16.0698 29.2999 16.7332 29.3006 17.3963 29.2999C18.7391 29.2984 20.0818 29.2952 21.4246 29.2921C22.313 29.29 23.2014 29.2879 24.0897 29.2863C24.6362 29.2854 25.1796 29.2462 25.7193 29.1602C26.2146 29.0814 26.6951 28.9511 27.1314 28.6879C27.49 28.4716 27.7689 28.1781 27.9614 27.7999C28.1854 27.3596 28.2659 26.8852 28.2823 26.3967C28.3094 25.5927 28.1772 24.8175 27.8783 24.0706C27.6423 23.4808 27.317 22.9488 26.9066 22.4709C26.6381 22.1582 26.3375 21.8788 26.0058 21.6359C25.7098 21.4193 23.9585 20.6495 23.7437 20.6502C23.7389 20.6502 23.7342 20.6486 23.7294 20.6469C23.7259 20.6457 23.7223 20.6444 23.7188 20.6439C23.5669 20.6208 23.4149 20.5978 23.2591 20.5743C23.2305 20.8408 23.1068 21.048 22.9681 21.2448C22.6308 21.7235 22.2228 22.1382 21.7937 22.5291C21.4278 22.8624 21.0503 23.1825 20.6729 23.5024C20.6075 23.5579 20.5421 23.6133 20.4768 23.6688C20.347 23.7792 20.2123 23.8835 20.078 23.9875C20.0172 24.0346 19.9565 24.0816 19.8964 24.129C19.8848 24.1207 19.8741 24.1132 19.864 24.1061C19.8443 24.0923 19.8271 24.0803 19.811 24.0669C19.6646 23.9456 19.5176 23.825 19.3706 23.7044C19.02 23.4166 18.6694 23.1289 18.3262 22.8321C17.8564 22.4259 17.4093 21.9933 17.0173 21.5068C16.7974 21.2338 16.5817 20.9556 16.5241 20.5715C16.4829 20.5783 16.4417 20.585 16.4006 20.5917C16.2696 20.6132 16.139 20.6346 16.0088 20.6583C15.9863 20.6624 15.9647 20.6844 15.9472 20.7027Z" fill="#1BC47D"/>
</svg>
