<svg width="6" height="9" viewBox="0 0 6 9" fill="none" xmlns="http://www.w3.org/2000/svg">
<path d="M2.75844 1.74353L1.23382 0.64572C1.11618 0.561012 0.978292 0.511191 0.835131 0.501675C0.69197 0.49216 0.54902 0.523312 0.421822 0.591747C0.294624 0.660182 0.188046 0.76328 0.113676 0.889831C0.0393055 1.01638 -1.12569e-05 1.16155 2.41761e-09 1.30954V7.69046C-1.12569e-05 7.83845 0.0393055 7.98362 0.113676 8.11017C0.188046 8.23672 0.294624 8.33982 0.421822 8.40825C0.54902 8.47669 0.69197 8.50784 0.835131 8.49832C0.978292 8.48881 1.11618 8.43899 1.23382 8.35428L2.75844 7.25647L5.66444 5.16362C5.76804 5.08903 5.85265 4.98974 5.91107 4.87418C5.96949 4.75863 6 4.63023 6 4.4999C6 4.36957 5.96949 4.24117 5.91107 4.12561C5.85265 4.01006 5.76804 3.91076 5.66444 3.83618L2.75844 1.74353Z" fill="#1B2746"/>
</svg>
