<svg aria-labelledby="upload image" width="16" height="16" viewBox="0 0 16 16" fill="none" xmlns="http://www.w3.org/2000/svg"><path fill-rule="evenodd" clip-rule="evenodd" d="M0.799805 4.1999C0.799805 3.72251 0.989447 3.26468 1.32701 2.92711C1.66458 2.58954 2.12242 2.3999 2.5998 2.3999H13.3998C13.6362 2.3999 13.8702 2.44646 14.0886 2.53692C14.307 2.62738 14.5055 2.75996 14.6726 2.92711C14.8397 3.09426 14.9723 3.29269 15.0628 3.51107C15.1532 3.72946 15.1998 3.96352 15.1998 4.1999V11.7999C15.1998 12.0363 15.1532 12.2703 15.0628 12.4887C14.9723 12.7071 14.8397 12.9056 14.6726 13.0727C14.5055 13.2398 14.307 13.3724 14.0886 13.4629C13.8702 13.5533 13.6362 13.5999 13.3998 13.5999H2.5998C2.12242 13.5999 1.66458 13.4103 1.32701 13.0727C0.989447 12.7351 0.799805 12.2773 0.799805 11.7999V4.1999ZM1.9998 8.8479V11.7999C1.9998 12.1311 2.2686 12.3999 2.5998 12.3999H13.3998C13.5589 12.3999 13.7115 12.3367 13.8241 12.2242C13.9366 12.1116 13.9998 11.959 13.9998 11.7999V9.6479L12.2238 7.8727C12.1113 7.76034 11.9588 7.69723 11.7998 7.69723C11.6408 7.69723 11.4883 7.76034 11.3758 7.8727L9.84781 9.3999L10.2238 9.7759C10.2828 9.83083 10.33 9.89707 10.3628 9.97067C10.3956 10.0443 10.4133 10.1237 10.4147 10.2043C10.4161 10.2848 10.4013 10.3649 10.3711 10.4396C10.3409 10.5143 10.296 10.5822 10.239 10.6391C10.1821 10.6961 10.1142 10.741 10.0395 10.7712C9.96477 10.8014 9.88475 10.8162 9.80419 10.8148C9.72363 10.8134 9.64417 10.7957 9.57057 10.7629C9.49697 10.7301 9.43073 10.6829 9.3758 10.6239L5.2238 6.4727C5.1113 6.36034 4.95881 6.29723 4.7998 6.29723C4.6408 6.29723 4.4883 6.36034 4.3758 6.4727L1.9998 8.8487V8.8479ZM9.5998 5.5999C9.5998 5.81208 9.51552 6.01556 9.36549 6.16559C9.21546 6.31562 9.01198 6.3999 8.7998 6.3999C8.58763 6.3999 8.38415 6.31562 8.23412 6.16559C8.08409 6.01556 7.9998 5.81208 7.9998 5.5999C7.9998 5.38773 8.08409 5.18425 8.23412 5.03422C8.38415 4.88419 8.58763 4.7999 8.7998 4.7999C9.01198 4.7999 9.21546 4.88419 9.36549 5.03422C9.51552 5.18425 9.5998 5.38773 9.5998 5.5999Z" fill="#1E293B"></path></svg>