<svg width="100" height="100" viewBox="0 0 100 100" fill="none" xmlns="http://www.w3.org/2000/svg">
<path fill-rule="evenodd" clip-rule="evenodd" d="M30.0183 14.9377C28.4289 18.1664 27.6756 21.5756 27.6435 25.7401C27.6582 25.895 27.6785 26.0911 27.702 26.3173C27.7666 26.9393 27.8548 27.7897 27.9151 28.6419C28.1778 32.3656 28.9561 35.9846 30.2239 39.4942C31.5452 43.1524 33.3994 46.5238 35.9975 49.4669C38.5358 52.3417 41.5384 54.5416 45.2955 55.6209C47.3437 56.2096 49.4335 56.3645 51.5457 56.0671C55.1252 55.5633 58.1751 53.9566 60.8386 51.5999C64.3813 48.4656 66.7641 44.56 68.4638 40.2224C69.8544 36.6754 70.6312 32.9863 71.01 29.2049C71.2362 26.9498 71.4235 24.7057 71.1518 22.4363C70.7877 19.3899 69.8897 16.5177 68.375 13.8491C65.8675 9.43142 62.2861 6.15465 57.5542 4.14415C54.1406 2.69379 50.5827 2.20487 46.8992 2.66993C42.6197 3.20976 38.8703 4.93788 35.6176 7.71042C33.2467 9.73125 31.39 12.1502 30.0183 14.9377ZM29.7361 53.5135C29.5562 53.7015 28.8545 54.1388 28.0527 54.5733C27.1075 55.0855 25.9685 55.36 25.0488 55.5816C24.5398 55.7043 24.0979 55.8107 23.7931 55.9324C22.076 56.6178 19.2632 57.8383 17.8718 58.9816C14.4228 61.8161 11.7555 65.2773 9.9452 69.4028C7.73096 74.4488 6.97194 79.7049 7.86776 85.173C8.21208 87.2752 8.99768 89.2053 10.329 90.8745C12.1515 93.1598 14.6139 94.3792 17.3272 95.1466C20.5008 96.0437 23.7631 96.3188 27.0354 96.4087C30.349 96.4993 33.6662 96.503 36.9817 96.4993C43.6981 96.4919 50.4147 96.4762 57.1312 96.4605C61.5704 96.4501 66.0095 96.4397 70.4486 96.4317C73.181 96.427 75.8982 96.2308 78.5964 95.801C81.0731 95.4068 83.4755 94.7556 85.6571 93.4397C87.4498 92.3581 88.8447 90.8906 89.8069 88.9996C90.9271 86.798 91.3293 84.4261 91.4115 81.9837C91.5472 77.9637 90.8862 74.0874 89.3915 70.3529C88.2117 67.404 86.5852 64.7438 84.5329 62.3544C83.1904 60.7911 81.6875 59.3938 80.029 58.1795C78.549 57.0964 69.7923 53.2475 68.7187 53.2512C68.6946 53.2512 68.6709 53.2429 68.6471 53.2346C68.6294 53.2284 68.6117 53.2222 68.5938 53.2194C67.8344 53.1039 67.0747 52.9892 66.2955 52.8715C66.1526 54.2038 65.534 55.2401 64.8403 56.2242C63.1539 58.6176 61.1138 60.691 58.9685 62.6456C57.1391 64.3119 55.2515 65.9123 53.3644 67.5123C53.0375 67.7895 52.7106 68.0667 52.384 68.3442C51.7349 68.8959 51.0614 69.4175 50.3901 69.9375C50.0862 70.1729 49.7827 70.4079 49.4822 70.6452C49.4243 70.6034 49.3706 70.5658 49.3202 70.5306C49.2215 70.4616 49.1355 70.4014 49.0549 70.3346C48.3228 69.7283 47.588 69.1252 46.8533 68.5221C45.1 67.0832 43.3468 65.6443 41.6309 64.1606C39.2821 62.1293 37.0463 59.9664 35.0866 57.5338C33.9872 56.169 32.9083 54.7779 32.6203 52.8573C32.4143 52.8914 32.2086 52.9251 32.0031 52.9587C31.3478 53.066 30.695 53.173 30.0442 53.2917C29.9314 53.3118 29.8237 53.4222 29.7361 53.5135Z" fill="#C9C8C8"/>
</svg>
