<svg width="40" height="40" viewBox="0 0 40 40" fill="none" xmlns="http://www.w3.org/2000/svg">
<path fill-rule="evenodd" clip-rule="evenodd" d="M4.02772 23.5604C4.02193 21.029 4.01245 18.4977 4.01128 15.9663C4.00924 11.6731 4.01143 7.3798 4.01394 3.08661C4.01449 2.07291 4.7533 1.1918 5.73591 1.00698C5.98597 0.959913 6.14745 1.16635 6.40511 1.16525C11.1419 1.14591 15.8788 1.15225 20.6157 1.15319C20.6151 3.68517 20.6153 6.21723 20.6133 8.7492C20.6125 9.95274 21.5237 10.8626 22.7379 10.863C25.3742 10.8638 28.0107 10.8635 30.6471 10.8635C30.863 10.9072 30.7961 11.0816 30.7962 11.2108C30.7988 14.917 30.7978 18.6231 30.7973 22.3294C30.7972 23.008 30.7978 23.6866 30.7952 24.3652C30.7936 24.8353 30.6935 24.9119 30.2259 24.886C28.9617 24.8162 27.7747 25.1261 26.646 25.6696C25.8951 26.0311 25.2009 26.4946 24.6308 27.1024C23.521 28.2856 22.813 29.6788 22.57 31.295C22.4092 32.3649 22.4552 33.4216 22.807 34.4495C22.9197 34.779 22.7426 34.751 22.5292 34.7509C17.8835 34.7493 13.2376 34.7504 8.59188 34.7507C7.75665 34.7508 6.9194 34.7123 6.08684 34.759C5.11276 34.8137 3.98481 33.7489 4.00015 32.6653C4.04096 29.7818 4.01707 26.8975 4.01887 24.0135L4.02772 23.5604Z" fill="#F2F2F2"/>
<path fill-rule="evenodd" clip-rule="evenodd" d="M30.6471 10.8639C28.0106 10.8638 25.3742 10.8642 22.7378 10.8633C21.5236 10.8629 20.6124 9.95308 20.6133 8.74955C20.6152 6.21757 20.6149 3.68551 20.6156 1.15354C21.0983 1.07099 21.3009 1.47893 21.56 1.73525C22.8382 2.99979 24.1099 4.27099 25.3902 5.53357C26.5006 6.62848 27.5917 7.74642 28.6775 8.86765C29.3278 9.53927 30.0504 10.1395 30.6471 10.8639Z" fill="#DDDDDD"/>
<path fill-rule="evenodd" clip-rule="evenodd" d="M17.3272 10.5505C17.3272 10.7235 17.1869 10.8637 17.0139 10.8637H8.47683C8.30384 10.8637 8.16357 10.7235 8.16357 10.5505V9.21584C8.16357 9.04285 8.30384 8.90259 8.47683 8.90259H17.0139C17.1869 8.90259 17.3272 9.04285 17.3272 9.21584V10.5505Z" fill="#DDDDDD"/>
<path fill-rule="evenodd" clip-rule="evenodd" d="M26.3414 17.6457C26.3414 17.8187 26.2011 17.9589 26.0281 17.9589H8.47683C8.30384 17.9589 8.16357 17.8187 8.16357 17.6457V16.3111C8.16357 16.1381 8.30384 15.9978 8.47683 15.9978H26.0281C26.2011 15.9978 26.3414 16.1381 26.3414 16.3111V17.6457Z" fill="#DDDDDD"/>
<path fill-rule="evenodd" clip-rule="evenodd" d="M26.3414 22.2982C26.3414 22.4713 26.2011 22.6115 26.0281 22.6115H8.47683C8.30384 22.6115 8.16357 22.4713 8.16357 22.2982V20.9636C8.16357 20.7907 8.30384 20.6504 8.47683 20.6504H26.0281C26.2011 20.6504 26.3414 20.7907 26.3414 20.9636V22.2982Z" fill="#DDDDDD"/>
<path fill-rule="evenodd" clip-rule="evenodd" d="M19.8731 27.217C19.8731 27.3901 19.7329 27.5303 19.5599 27.5303H8.47683C8.30383 27.5303 8.16357 27.3901 8.16357 27.217V25.8825C8.16357 25.7095 8.30383 25.5692 8.47683 25.5692H19.5599C19.7329 25.5692 19.8731 25.7095 19.8731 25.8825V27.217Z" fill="#DDDDDD"/>
<path fill-rule="evenodd" clip-rule="evenodd" d="M35.7458 31.5074C35.7451 35.4763 32.6164 38.6796 28.7386 38.6816C24.9455 38.6836 21.7426 35.4675 21.7459 31.6604C21.7496 27.4927 24.8374 24.3496 28.9202 24.3576C32.6143 24.3647 35.7466 27.6458 35.7458 31.5074Z" fill="#DDDDDD"/>
<path fill-rule="evenodd" clip-rule="evenodd" d="M35.7461 31.9462C35.7454 35.6351 32.8375 38.6125 29.2333 38.6143C25.708 38.6161 22.7311 35.627 22.7341 32.0883C22.7376 28.2147 25.6075 25.2933 29.4021 25.3007C32.8356 25.3073 35.7468 28.357 35.7461 31.9462ZM26.5605 32.4284C27.0441 32.4284 27.4222 32.443 27.7985 32.4232C28.0374 32.4106 28.1014 32.4927 28.0976 32.7314C28.0842 33.5655 28.1004 34.4001 28.087 35.2342C28.0829 35.4818 28.1406 35.5778 28.4007 35.5668C28.8968 35.5458 29.3954 35.541 29.8908 35.5682C30.1955 35.585 30.2467 35.462 30.2413 35.1868C30.2256 34.3789 30.2486 33.57 30.2285 32.7623C30.2215 32.479 30.3068 32.4053 30.5711 32.4223C30.933 32.4457 31.2975 32.4281 31.6651 32.4281C31.6583 32.358 31.6652 32.3258 31.6525 32.3115C30.8814 31.444 30.1084 30.5781 29.3365 29.7112C29.2137 29.5733 29.1028 29.5853 28.9837 29.7189C28.2028 30.594 27.4201 31.4676 26.5605 32.4284ZM29.2574 28.8259C30.0213 28.8259 30.7852 28.8255 31.549 28.8262C31.7021 28.8264 31.8498 28.8564 31.8501 28.6036C31.8504 28.3799 31.756 28.3521 31.5743 28.3527C30.0212 28.3577 28.468 28.3572 26.9149 28.3534C26.7405 28.3531 26.6324 28.3698 26.6314 28.5992C26.6304 28.8475 26.7704 28.8271 26.9277 28.8267C27.7043 28.825 28.4808 28.8259 29.2574 28.8259Z" fill="white"/>
<path fill-rule="evenodd" clip-rule="evenodd" d="M26.5603 32.4286C27.4199 31.4678 28.2027 30.5942 28.9835 29.7189C29.1027 29.5854 29.2136 29.5734 29.3363 29.7112C30.1081 30.5782 30.8812 31.444 31.6522 32.3116C31.6649 32.3259 31.6581 32.3582 31.6648 32.4282C31.2972 32.4282 30.9328 32.4457 30.5708 32.4224C30.3067 32.4053 30.2213 32.479 30.2283 32.7623C30.2483 33.57 30.2253 34.3789 30.2411 35.1868C30.2464 35.4621 30.1952 35.585 29.8906 35.5683C29.3951 35.541 28.8966 35.5459 28.4005 35.5668C28.1404 35.5778 28.0827 35.4818 28.0867 35.2342C28.1002 34.4001 28.084 33.5655 28.0973 32.7314C28.1011 32.4927 28.0371 32.4106 27.7982 32.4232C27.422 32.4431 27.044 32.4286 26.5603 32.4286Z" fill="#0696D6"/>
<path fill-rule="evenodd" clip-rule="evenodd" d="M29.2572 28.8256C28.4806 28.8256 27.7041 28.8247 26.9274 28.8264C26.7701 28.8268 26.63 28.8472 26.6311 28.5989C26.6321 28.3695 26.7402 28.3527 26.9145 28.3531C28.4677 28.3569 30.0209 28.3574 31.574 28.3524C31.7557 28.3518 31.85 28.3796 31.8498 28.6033C31.8495 28.8561 31.7018 28.8261 31.5486 28.8259C30.7849 28.8252 30.021 28.8256 29.2572 28.8256Z" fill="#0696D6"/>
</svg>
