<svg width="41" height="40" viewBox="0 0 41 40" fill="none" xmlns="http://www.w3.org/2000/svg">
<rect x="0.25" width="40" height="40" rx="8" fill="#FFE7E9"/>
<path d="M26.751 16.25C26.337 16.25 26.001 16.586 26.001 17V23C26.001 23.414 26.337 23.75 26.751 23.75C27.165 23.75 27.501 23.414 27.501 23V17C27.501 16.586 27.165 16.25 26.751 16.25ZM20.25 16.25C19.833 16.25 19.434 16.319 19.059 16.442L20.37 17.753C21.519 17.813 22.437 18.734 22.497 19.88L23.808 21.191C23.934 20.816 24 20.417 24 20C24 17.93 22.32 16.25 20.25 16.25ZM18.006 20.141L16.689 18.824C16.566 19.193 16.5 19.589 16.5 20C16.5 22.07 18.18 23.75 20.25 23.75C20.661 23.75 21.057 23.684 21.426 23.561L20.109 22.244C18.978 22.175 18.075 21.272 18.006 20.141ZM13.749 16.25C13.335 16.25 12.999 16.586 12.999 17V23C12.999 23.414 13.335 23.75 13.749 23.75C14.163 23.75 14.499 23.414 14.499 23V17C14.499 16.586 14.163 16.25 13.749 16.25ZM30.912 16.637C30.822 15.749 30.633 15.008 30.198 14.36C29.85 13.841 29.406 13.397 28.887 13.049C28.239 12.617 27.498 12.428 26.61 12.335C25.743 12.248 24.66 12.248 23.289 12.248H17.208C16.323 12.248 15.555 12.248 14.889 12.272L16.365 13.748C16.641 13.748 16.935 13.748 17.247 13.748H23.247C24.666 13.748 25.677 13.748 26.457 13.829C27.225 13.907 27.69 14.054 28.053 14.297C28.407 14.534 28.713 14.84 28.95 15.194C29.19 15.554 29.34 16.019 29.418 16.79C29.496 17.57 29.499 18.581 29.499 20C29.499 21.419 29.499 22.43 29.418 23.21C29.34 23.978 29.193 24.443 28.95 24.806C28.746 25.109 28.497 25.376 28.206 25.595L29.274 26.663C29.628 26.369 29.94 26.024 30.198 25.64C30.63 24.992 30.819 24.251 30.912 23.363C30.999 22.496 30.999 21.413 30.999 20.042V19.958C30.999 18.59 30.999 17.504 30.912 16.637ZM26.751 16.25C26.337 16.25 26.001 16.586 26.001 17V23C26.001 23.414 26.337 23.75 26.751 23.75C27.165 23.75 27.501 23.414 27.501 23V17C27.501 16.586 27.165 16.25 26.751 16.25ZM23.25 26.249H17.25C15.831 26.249 14.82 26.249 14.04 26.168C13.272 26.09 12.807 25.943 12.444 25.7C12.09 25.463 11.784 25.157 11.547 24.803C11.307 24.443 11.157 23.978 11.079 23.207C11.001 22.427 10.998 21.416 10.998 19.997C10.998 18.578 10.998 17.567 11.079 16.787C11.157 16.019 11.304 15.554 11.547 15.191C11.748 14.891 11.994 14.63 12.279 14.411L11.211 13.343C10.863 13.64 10.554 13.979 10.299 14.36C9.86705 15.008 9.67805 15.749 9.58505 16.637C9.49805 17.504 9.49805 18.587 9.49805 19.958V20.042C9.49805 21.41 9.49805 22.496 9.58505 23.363C9.67505 24.251 9.86405 24.992 10.299 25.64C10.647 26.159 11.091 26.603 11.61 26.951C12.258 27.383 12.999 27.572 13.887 27.665C14.754 27.752 15.837 27.752 17.208 27.752H23.292C24.168 27.752 24.93 27.752 25.59 27.728L24.111 26.249C23.844 26.249 23.556 26.249 23.25 26.249ZM22.497 19.88L23.808 21.191C23.934 20.816 24 20.417 24 20C24 17.93 22.32 16.25 20.25 16.25C19.833 16.25 19.434 16.319 19.059 16.442L20.37 17.753C21.516 17.813 22.437 18.734 22.497 19.88ZM18.006 20.141L16.689 18.824C16.566 19.193 16.5 19.589 16.5 20C16.5 22.07 18.18 23.75 20.25 23.75C20.661 23.75 21.057 23.684 21.426 23.561L20.109 22.244C18.978 22.175 18.075 21.272 18.006 20.141ZM13.749 23.75C14.163 23.75 14.499 23.414 14.499 23V17C14.499 16.586 14.163 16.25 13.749 16.25C13.335 16.25 12.999 16.586 12.999 17V23C12.999 23.414 13.335 23.75 13.749 23.75ZM26.751 16.25C26.337 16.25 26.001 16.586 26.001 17V23C26.001 23.414 26.337 23.75 26.751 23.75C27.165 23.75 27.501 23.414 27.501 23V17C27.501 16.586 27.165 16.25 26.751 16.25ZM20.25 16.25C19.833 16.25 19.434 16.319 19.059 16.442L20.37 17.753C21.519 17.813 22.437 18.734 22.497 19.88L23.808 21.191C23.934 20.816 24 20.417 24 20C24 17.93 22.32 16.25 20.25 16.25ZM18.006 20.141L16.689 18.824C16.566 19.193 16.5 19.589 16.5 20C16.5 22.07 18.18 23.75 20.25 23.75C20.661 23.75 21.057 23.684 21.426 23.561L20.109 22.244C18.978 22.175 18.075 21.272 18.006 20.141ZM13.749 16.25C13.335 16.25 12.999 16.586 12.999 17V23C12.999 23.414 13.335 23.75 13.749 23.75C14.163 23.75 14.499 23.414 14.499 23V17C14.499 16.586 14.163 16.25 13.749 16.25ZM30.645 31.22C30.435 31.22 30.222 31.139 30.063 30.977L9.27005 10.187C8.94905 9.86605 8.94905 9.34405 9.27005 9.02005C9.59105 8.69905 10.116 8.69905 10.437 9.02005L31.23 29.813C31.551 30.134 31.551 30.659 31.23 30.98C31.068 31.139 30.858 31.22 30.645 31.22Z" fill="#E83B68"/>
</svg>
