<svg width="14" height="15" viewBox="0 0 14 15" fill="none" xmlns="http://www.w3.org/2000/svg">
<g clip-path="url(#clip0_12023_244321)">
<path d="M3.7354 12.0944L2.48283 10.8418L1.02149 12.3031L2.27406 13.5557L3.7354 12.0944Z" fill="#4F5559"/>
<path fill-rule="evenodd" clip-rule="evenodd" d="M14.421 0.821884L13.756 0.156871L11.2509 2.66202L11.1658 2.577C11.0777 2.48882 10.9581 2.43927 10.8333 2.43927C10.7086 2.43927 10.589 2.48882 10.5008 2.577L9.16324 3.9146L8.86946 3.62081C8.78128 3.53263 8.66167 3.48309 8.53695 3.48308C8.41224 3.48308 8.29263 3.53263 8.20445 3.62081L1.73281 10.0924C1.64463 10.1806 1.59509 10.3002 1.59509 10.425C1.59509 10.5497 1.64463 10.6693 1.73281 10.7575L1.81783 10.8425L1.02151 11.6388L0.395221 11.0125L-0.269791 11.6775L2.90037 14.8477L3.56538 14.1827L2.93909 13.5564L3.73542 12.7601L3.82044 12.8451C3.90862 12.9333 4.02823 12.9828 4.15294 12.9828C4.27766 12.9828 4.39727 12.9333 4.48545 12.8451L10.9571 6.37345C11.0453 6.28526 11.0948 6.16566 11.0948 6.04094C11.0948 5.91623 11.0453 5.79662 10.9571 5.70844L10.6633 5.41466L12.0009 4.07706C12.0891 3.98888 12.1386 3.86927 12.1386 3.74456C12.1386 3.61984 12.0891 3.50024 12.0009 3.41205L11.9159 3.32703L14.421 0.821884ZM9.82825 4.57961L10.8333 3.57452L11.0034 3.74456L9.99829 4.74964L9.82825 4.57961ZM2.73033 10.425L8.53696 4.61833L9.95957 6.04094L9.372 6.62851L8.95448 6.21098L8.28947 6.87599L8.70699 7.29352L8.53695 7.46356L8.11943 7.04603L7.45442 7.71104L7.87194 8.12857L7.70191 8.29861L6.86686 7.46356L6.20184 8.12857L7.03689 8.96362L6.86686 9.13365L6.44933 8.71613L5.78432 9.38114L6.20184 9.79867L6.03181 9.9687L5.61428 9.55118L4.94927 10.2162L5.36679 10.6337L5.19676 10.8038L4.36171 9.96871L3.69669 10.6337L4.53174 11.4688L4.15294 11.8476L2.73033 10.425ZM1.68652 12.3038L2.48285 11.5075L3.07041 12.0951L2.27408 12.8914L1.68652 12.3038Z" fill="#3A4249"/>
</g>
<defs>
<clipPath id="clip0_12023_244321">
<rect width="14" height="14" fill="white" transform="translate(0 0.5)"/>
</clipPath>
</defs>
</svg>
