<svg width="17" height="17" viewBox="0 0 17 17" fill="none" xmlns="http://www.w3.org/2000/svg">
<g clip-path="url(#clip0_25470_37777)">
<path d="M12.9552 2.04687C12.2272 1.949 11.2676 1.94788 9.91699 1.94788C9.6236 1.94788 9.38574 1.71003 9.38574 1.41663C9.38574 1.12323 9.6236 0.885376 9.91699 0.885376H9.95694C11.2587 0.885362 12.2898 0.885355 13.0967 0.99385C13.9272 1.1055 14.5994 1.34075 15.1295 1.87084C15.6143 2.35565 15.879 2.81675 16.0033 3.52887C16.115 4.169 16.115 5.03231 16.1149 6.30674V6.37496C16.1149 6.66837 15.8771 6.90621 15.5837 6.90621C15.2903 6.90621 15.0524 6.66837 15.0524 6.37496C15.0524 5.01561 15.0504 4.24897 14.9566 3.71151C14.8734 3.23468 14.7232 2.9672 14.3781 2.62214C14.0784 2.32237 13.6678 2.14269 12.9552 2.04687Z" fill="#7C878E"/>
<path d="M1.94825 10.625C1.94825 10.3316 1.7104 10.0938 1.417 10.0938C1.12359 10.0938 0.885751 10.3316 0.885751 10.625L0.885743 10.6932C0.885708 11.9676 0.885687 12.831 0.997391 13.4711C1.12165 14.1832 1.3864 14.6443 1.87121 15.1292C2.4013 15.6592 3.07347 15.8944 3.90394 16.0061C4.71089 16.1146 5.74196 16.1146 7.0437 16.1146H7.08366C7.37705 16.1146 7.61491 15.8767 7.61491 15.5833C7.61491 15.2899 7.37705 15.0521 7.08366 15.0521C5.733 15.0521 4.77344 15.051 4.04551 14.9531C3.33286 14.8573 2.92229 14.6776 2.62251 14.3778C2.27746 14.0328 2.12727 13.7653 2.04407 13.2885C1.95029 12.751 1.94825 11.9844 1.94825 10.625Z" fill="#7C878E"/>
<path d="M16.1149 10.625C16.1149 10.3316 15.8771 10.0938 15.5837 10.0938C15.2903 10.0938 15.0524 10.3316 15.0524 10.625C15.0524 11.9844 15.0504 12.751 14.9566 13.2885C14.8734 13.7653 14.7232 14.0328 14.3781 14.3778C14.0784 14.6776 13.6678 14.8573 12.9552 14.9531C12.2272 15.051 11.2676 15.0521 9.91699 15.0521C9.6236 15.0521 9.38574 15.2899 9.38574 15.5833C9.38574 15.8767 9.6236 16.1146 9.91699 16.1146H9.95694C11.2587 16.1146 12.2898 16.1146 13.0967 16.0061C13.9272 15.8944 14.5994 15.6592 15.1295 15.1292C15.6143 14.6443 15.879 14.1832 16.0033 13.4711C16.115 12.831 16.115 11.9676 16.1149 10.6932V10.625Z" fill="#7C878E"/>
<path d="M7.08366 0.885376H7.0437C5.74196 0.885362 4.71088 0.885355 3.90394 0.99385C3.07347 1.1055 2.4013 1.34075 1.87121 1.87084C1.3864 2.35565 1.12165 2.81675 0.997391 3.52887C0.885687 4.169 0.885708 5.0323 0.885743 6.3067L0.885751 6.37496C0.885751 6.66837 1.12359 6.90621 1.417 6.90621C1.7104 6.90621 1.94825 6.66837 1.94825 6.37496C1.94825 5.01561 1.95029 4.24897 2.04407 3.71151C2.12727 3.23468 2.27746 2.9672 2.62251 2.62214C2.92229 2.32237 3.33286 2.14269 4.04551 2.04687C4.77344 1.949 5.733 1.94788 7.08366 1.94788C7.37705 1.94788 7.61491 1.71003 7.61491 1.41663C7.61491 1.12323 7.37705 0.885376 7.08366 0.885376Z" fill="#7C878E"/>
<path fill-rule="evenodd" clip-rule="evenodd" d="M8.49967 6.55212C7.42385 6.55212 6.55176 7.42422 6.55176 8.50004C6.55176 9.57586 7.42385 10.448 8.49967 10.448C9.57548 10.448 10.4476 9.57586 10.4476 8.50004C10.4476 7.42422 9.57548 6.55212 8.49967 6.55212ZM7.61425 8.50004C7.61425 8.01101 8.01063 7.61462 8.49967 7.61462C8.9887 7.61462 9.38508 8.01101 9.38508 8.50004C9.38508 8.98907 8.9887 9.38546 8.49967 9.38546C8.01063 9.38546 7.61425 8.98907 7.61425 8.50004Z" fill="#7C878E"/>
<path fill-rule="evenodd" clip-rule="evenodd" d="M3.77175 6.69414C4.67132 5.65068 6.21691 4.42712 8.50032 4.42712C10.7837 4.42712 12.3294 5.65068 13.2289 6.69414L13.2517 6.72064C13.4437 6.94314 13.6411 7.17192 13.7768 7.44611C13.9284 7.75261 13.9899 8.0817 13.9899 8.50004C13.9899 8.91838 13.9284 9.24747 13.7768 9.55397C13.6411 9.82817 13.4437 10.057 13.2517 10.2794L13.2289 10.3059C12.3294 11.3494 10.7837 12.573 8.50032 12.573C6.21691 12.573 4.67132 11.3494 3.77175 10.3059L3.7489 10.2794C3.55693 10.057 3.35952 9.82817 3.22387 9.55397C3.07219 9.24747 3.01074 8.91838 3.01074 8.50004C3.01074 8.0817 3.07219 7.75261 3.22387 7.44611C3.35953 7.17192 3.55692 6.94314 3.74889 6.72064L3.77175 6.69414ZM8.50032 5.48962C6.63669 5.48962 5.35987 6.47922 4.57649 7.38789C4.3541 7.64586 4.24584 7.77648 4.17618 7.9173C4.11714 8.03658 4.07324 8.19262 4.07324 8.50004C4.07324 8.80746 4.11714 8.9635 4.17618 9.08279C4.24584 9.2236 4.3541 9.35422 4.57649 9.6122C5.35987 10.5208 6.63669 11.5105 8.50032 11.5105C10.3639 11.5105 11.6408 10.5208 12.4241 9.6122C12.6465 9.35422 12.7548 9.2236 12.8245 9.08279C12.8835 8.9635 12.9274 8.80746 12.9274 8.50004C12.9274 8.19262 12.8835 8.03658 12.8245 7.9173C12.7548 7.77648 12.6465 7.64586 12.4241 7.38789C11.6408 6.47922 10.3639 5.48962 8.50032 5.48962Z" fill="#7C878E"/>
</g>
<defs>
<clipPath id="clip0_25470_37777">
<rect width="17" height="17" fill="white"/>
</clipPath>
</defs>
</svg>
