<svg width="15" height="15" viewBox="0 0 15 15" fill="none" xmlns="http://www.w3.org/2000/svg">
<path fill-rule="evenodd" clip-rule="evenodd" d="M13.5281 1.96949V1.96958V1.96959V1.96961V1.96962C13.5275 2.36028 13.5269 2.74167 13.5298 3.12306C13.532 3.40499 13.7398 3.63543 14.0035 3.66492C14.2887 3.69685 14.5406 3.52607 14.6084 3.25051C14.6218 3.19598 14.6238 3.13765 14.6238 3.08107C14.6248 2.37938 14.6253 1.67766 14.6241 0.975976C14.6235 0.601843 14.4014 0.376807 14.0309 0.37602C13.3292 0.374581 12.6275 0.374752 11.9258 0.375986C11.5753 0.376602 11.3329 0.601089 11.332 0.921481C11.3311 1.24287 11.5729 1.47023 11.9216 1.47126C12.2908 1.47231 12.66 1.47208 13.0358 1.47184H13.0359H13.0359H13.036L13.5286 1.47164C13.5286 1.63962 13.5283 1.80528 13.5281 1.96931V1.9694V1.96949ZM11.6746 9.96069C10.4504 10.9113 9.04892 11.3248 7.51159 11.3631C7.38101 11.3496 7.24998 11.3387 7.11895 11.3278C6.83487 11.3041 6.55077 11.2805 6.27122 11.231C4.15452 10.8562 2.60723 9.68688 1.56659 7.82163C1.44396 7.60176 1.4514 7.39451 1.56833 7.17259C1.95644 6.4359 2.46525 5.7921 3.09967 5.25931C5.00774 3.65697 7.19274 3.30452 9.54242 3.96459C11.3057 4.45994 12.581 5.60611 13.4471 7.2102C13.6165 7.52384 13.5074 7.85591 13.2135 7.99535C12.9192 8.13503 12.6148 8.00227 12.459 7.67575C11.986 6.68467 11.2585 5.92791 10.2912 5.41954C8.88218 4.67891 7.38917 4.58852 5.86582 4.96173C4.49293 5.29808 3.43767 6.08245 2.72649 7.31638C2.64867 7.45136 2.65049 7.55333 2.72841 7.68883C3.03664 8.22494 3.42403 8.69149 3.90644 9.07737C4.79589 9.78889 5.82321 10.1353 6.94924 10.2181C8.43553 10.3274 9.80722 10.0257 11.0067 9.09604C11.0768 9.04171 11.1622 8.99589 11.2476 8.97465C11.5061 8.91043 11.7621 9.04182 11.8702 9.2798C11.9808 9.52326 11.9053 9.78156 11.6746 9.96069ZM7.49218 9.685C6.30141 9.68164 5.31102 8.68604 5.31506 7.49651C5.31914 6.30238 6.30699 5.31586 7.4993 5.31517C8.69733 5.31449 9.693 6.31533 9.68492 7.51213C9.67684 8.70543 8.68497 9.68836 7.49218 9.685ZM7.49516 6.41165C6.89394 6.41463 6.40883 6.90398 6.41136 7.50493C6.41389 8.10523 6.90644 8.59339 7.50485 8.58866C8.10769 8.5839 8.59239 8.09475 8.58841 7.49514C8.58444 6.89261 8.09611 6.40863 7.49516 6.41165ZM1.94961 1.47177L1.47155 1.47172L1.47173 1.96054V1.96111V1.96168C1.47192 2.33818 1.47212 2.70823 1.47121 3.07831C1.47032 3.42655 1.24285 3.66895 0.921535 3.66816C0.600801 3.6674 0.376383 3.42535 0.375731 3.07471C0.374498 2.37871 0.374738 1.68268 0.375628 0.986678C0.376108 0.592575 0.594841 0.376308 0.992575 0.375863C1.63015 0.375188 2.26779 0.375449 2.90537 0.37571L3.02926 0.375761C3.42336 0.375898 3.66998 0.589561 3.66789 0.92821C3.6659 1.25919 3.42025 1.47131 3.03745 1.47162C2.67794 1.47188 2.31847 1.47182 1.94991 1.47177H1.94961ZM13.5284 13.5282L13.0439 13.5281H13.0439C12.6716 13.5281 12.3084 13.528 11.9452 13.5284C11.5791 13.5287 11.3339 13.7466 11.3319 14.0719C11.3299 14.3998 11.5734 14.6236 11.9361 14.6241C12.6321 14.6249 13.3282 14.6252 14.0242 14.624C14.3983 14.6233 14.6232 14.4013 14.624 14.0306C14.6254 13.3289 14.6253 12.6272 14.624 11.9255C14.6234 11.5753 14.3983 11.3325 14.0782 11.3318C13.7568 11.3311 13.5297 11.5729 13.5287 11.9218C13.5277 12.2916 13.5279 12.6614 13.5282 13.0376V13.0376L13.5284 13.5282ZM1.47184 13.0308C1.47158 13.1948 1.47132 13.3604 1.47132 13.5283C1.63522 13.5283 1.79735 13.5282 1.95822 13.5281C2.33652 13.5278 2.7079 13.5276 3.07924 13.5288C3.42779 13.5299 3.66903 13.7577 3.6679 14.0794C3.66677 14.399 3.42365 14.6234 3.07318 14.624C2.37153 14.6252 1.66981 14.6254 0.968162 14.6239C0.59759 14.6232 0.376357 14.3984 0.375741 14.0234C0.374611 13.3274 0.375022 12.6314 0.376083 11.9354C0.376186 11.8732 0.377625 11.809 0.392319 11.7491C0.459932 11.4731 0.711821 11.3028 0.997105 11.335C1.26043 11.3648 1.46793 11.5956 1.47009 11.8777C1.47306 12.259 1.47246 12.6403 1.47184 13.0308Z" fill="#0696D6"/>
</svg>
