<svg width="21" height="14" viewBox="0 0 21 14" fill="none" xmlns="http://www.w3.org/2000/svg">
<path d="M15.7391 11.6795C15.7389 11.6824 15.7387 11.6853 15.7384 11.6882C15.6997 12.0632 15.5966 12.452 15.3589 12.7514C15.1115 13.063 14.7402 13.25 14.2327 13.25H2.57716C2.1736 13.25 1.79705 13.0537 1.52587 12.7681C1.25386 12.4817 1.07019 12.0876 1.07019 11.6625V2.33746C1.07019 1.91243 1.25386 1.5183 1.52587 1.23187C1.79705 0.946309 2.1736 0.75 2.57716 0.75H14.2327C14.6079 0.75 14.9653 0.95365 15.2295 1.23187C15.4965 1.51302 15.6957 1.89742 15.7384 2.31184C15.7392 2.32035 15.7397 2.3289 15.7397 2.33746V4.97972L19.1089 2.0256C19.378 1.7892 19.7549 1.74014 20.0714 1.90708C20.3847 2.07185 20.5702 2.4094 20.5702 2.76471V11.2353C20.5702 11.5906 20.3847 11.9282 20.0714 12.0929M15.7391 11.6795L19.955 11.8716M15.7391 11.6795C15.7395 11.6738 15.7397 11.6682 15.7397 11.6625V9.02028M15.7391 11.6795L15.7397 9.02028M20.0714 12.0929L19.955 11.8716M20.0714 12.0929C20.0714 12.0929 20.0714 12.0929 20.0714 12.0929L19.955 11.8716M20.0714 12.0929C19.947 12.1584 19.8117 12.1912 19.6761 12.1912C19.471 12.1912 19.2701 12.1158 19.1091 11.9746L19.2739 11.7866C19.3902 11.8886 19.5328 11.9412 19.6761 11.9412C19.7711 11.9412 19.8664 11.9182 19.955 11.8716M15.7397 9.02028L19.109 11.9745L15.7397 9.02028ZM2.32649 11.9821L2.14521 12.1542L2.32649 11.9821C2.2266 11.8769 2.18309 11.7554 2.18309 11.6625V2.33746C2.18309 2.24456 2.2266 2.12309 2.32649 2.01791C2.42847 1.91052 2.52928 1.88158 2.57716 1.88158H14.2287C14.2297 1.88195 14.2468 1.8846 14.2779 1.90022C14.3158 1.9192 14.3689 1.95474 14.4288 2.01791C14.5359 2.13059 14.6053 2.27114 14.6268 2.39549V5.53141C14.6268 5.87099 14.8184 6.18438 15.1251 6.33044C15.433 6.47709 15.7953 6.42517 16.0517 6.20041L19.4573 3.21437V10.7856L16.0517 7.79959C15.7953 7.57483 15.433 7.52291 15.1251 7.66956C14.8184 7.81562 14.6268 8.12901 14.6268 8.46859V11.6123C14.5966 11.8577 14.5363 11.986 14.493 12.0406C14.4785 12.0587 14.4633 12.0734 14.4356 12.0861C14.4049 12.1002 14.3449 12.1184 14.2327 12.1184H2.57716C2.52928 12.1184 2.42847 12.0895 2.32649 11.9821ZM19.6544 11.2672L19.6733 11.3031L19.6764 11.3091L19.6544 11.2672Z" fill="#1B2746" stroke="#1B2746" stroke-width="0.5" stroke-linejoin="round"/>
</svg>
