<svg width="31" height="30" viewBox="0 0 31 30" fill="none" xmlns="http://www.w3.org/2000/svg">
<path d="M23.0362 21.9938C23.0362 22.0024 23.0358 22.0109 23.0349 22.0194C22.9781 22.5709 22.8276 23.127 22.4921 23.5494C22.147 23.9841 21.6277 24.25 20.9008 24.25H3.41744C2.85286 24.25 2.31919 23.9747 1.93114 23.5661C1.54227 23.1566 1.28198 22.5953 1.28198 21.9938V8.00619C1.28198 7.40469 1.54227 6.84338 1.93114 6.43388C2.31919 6.02526 2.85286 5.75 3.41744 5.75H20.9008C21.4188 5.75 21.9242 6.0326 22.3053 6.43388C22.6891 6.8381 22.974 7.38968 23.0349 7.98057C23.0358 7.98908 23.0362 7.99764 23.0362 8.00619V12.2454L28.2975 7.63231L23.0362 21.9938ZM23.0362 21.9938V17.7546M23.0362 21.9938V17.7546M23.0362 17.7546L28.2977 22.3678C28.5168 22.5601 28.7891 22.6618 29.0659 22.6618C29.249 22.6618 29.4319 22.6175 29.6006 22.5287C30.0256 22.3052 30.282 21.844 30.282 21.3529V8.64706C30.282 8.1562 30.0258 7.69507 29.601 7.47147L23.0362 17.7546ZM21.2856 7.44079L21.4669 7.26863L21.2856 7.44079C21.4645 7.62915 21.5822 7.86684 21.6169 8.08292V12.7971C21.6169 13.2598 21.8779 13.6851 22.2931 13.8828C22.7095 14.0811 23.1995 14.0112 23.5468 13.7066L28.8626 9.04572V20.9543L23.5468 16.2934C23.1995 15.9888 22.7095 15.9189 22.2931 16.1172C21.8779 16.3149 21.6169 16.7402 21.6169 17.2029V21.926C21.5706 22.3104 21.4747 22.5307 21.389 22.6386C21.3582 22.6774 21.3207 22.7136 21.2574 22.7427C21.1912 22.7732 21.0823 22.8026 20.9008 22.8026H3.41744C3.30518 22.8026 3.12275 22.7403 2.95079 22.5592L2.76951 22.7314L2.95079 22.5592C2.78165 22.3811 2.70134 22.169 2.70134 21.9938V8.00619C2.70134 7.83102 2.78165 7.61889 2.95079 7.44079C3.12275 7.2597 3.30518 7.19737 3.41744 7.19737H20.9008C20.9007 7.19737 20.9039 7.19739 20.9106 7.19836C20.917 7.19931 20.9259 7.20105 20.9371 7.20407C20.9595 7.21013 20.9892 7.22082 21.0246 7.23859C21.0953 7.27402 21.1864 7.33633 21.2856 7.44079ZM29.6009 7.47145C29.1732 7.24556 28.6635 7.31091 28.2977 7.63214L29.6009 7.47145Z" fill="#0696D6" stroke="#0696D6" stroke-width="0.5" stroke-linejoin="round"/>
</svg>
