<svg width="40" height="40" viewBox="0 0 40 40" fill="none" xmlns="http://www.w3.org/2000/svg">
<path d="M37.7119 28.9706C37.9019 28.9706 38.0925 28.9266 38.2696 28.8373C38.7166 28.6121 39 28.1379 39 27.6176V11.3824C39 10.8621 38.7166 10.3879 38.2696 10.1627C37.8246 9.93741 37.2939 10.0003 36.9074 10.3257L29.339 16.6852V10.5635C29.1935 9.21053 27.9677 8 26.825 8H3.51394C2.22581 8 1 9.21053 1 10.5635V28.4365C1 29.7895 2.22581 31 3.51394 31H26.825C28.5806 31 29.1935 29.7895 29.339 28.4365V22.3148L36.9074 28.6743C37.1399 28.8698 37.4253 28.9706 37.7119 28.9706Z" fill="#1B2746"/>
</svg>
