<svg width="17" height="16" viewBox="0 0 17 16" fill="none" xmlns="http://www.w3.org/2000/svg">
<g id="waiting hour">
<path id="Vector" fill-rule="evenodd" clip-rule="evenodd" d="M8.70836 0.833252H8.79156C10.134 0.833239 11.1936 0.833232 11.9652 0.934979C12.7238 1.03499 13.4053 1.25538 13.729 1.88383C13.7756 1.97437 13.815 2.06846 13.8466 2.16522C14.0675 2.8392 13.7407 3.47583 13.2752 4.07838C12.8018 4.69115 12.0524 5.43333 11.1035 6.37297L9.46056 7.99992L11.1035 9.62685C12.0524 10.5665 12.8018 11.3087 13.2752 11.9215C13.7407 12.524 14.0675 13.1607 13.8466 13.8346C13.815 13.9314 13.7756 14.0255 13.729 14.116C13.4053 14.7445 12.7238 14.9649 11.9652 15.0649C11.1936 15.1666 10.134 15.1666 8.79156 15.1666H8.70836C7.36585 15.1666 6.30634 15.1666 5.53463 15.0649C4.77613 14.9649 4.09461 14.7445 3.77093 14.116C3.7243 14.0255 3.68494 13.9314 3.65323 13.8346C3.43239 13.1607 3.75921 12.524 4.22468 11.9215C4.69805 11.3087 5.44753 10.5665 6.39642 9.62685L8.03936 7.99992L6.39642 6.37297C5.44754 5.43333 4.69805 4.69115 4.22468 4.07838C3.75921 3.47583 3.43239 2.83921 3.65323 2.16522C3.68494 2.06846 3.7243 1.97437 3.77093 1.88383C4.09461 1.25538 4.77613 1.03499 5.53463 0.934979C6.30634 0.833232 7.36584 0.833239 8.70836 0.833252ZM8.74996 7.29625L10.3699 5.69202C11.3552 4.71632 12.0562 4.02062 12.4838 3.46704C12.9244 2.89681 12.9482 2.63494 12.8964 2.4766C12.8812 2.43027 12.8623 2.38517 12.84 2.3417C12.7622 2.19064 12.5541 2.02127 11.8346 1.9264C11.1362 1.83432 10.1431 1.83325 8.74996 1.83325C7.35681 1.83325 6.36373 1.83432 5.66535 1.9264C4.94581 2.02127 4.73775 2.19064 4.65995 2.3417C4.63757 2.38517 4.6187 2.43027 4.60352 2.4766C4.55164 2.63494 4.57555 2.89681 5.01605 3.46704C5.4437 4.02062 6.14468 4.71632 7.12997 5.69202L8.74996 7.29625ZM8.74996 8.70358L7.12997 10.3078C6.14468 11.2835 5.4437 11.9793 5.01605 12.5328C4.57555 13.1031 4.55164 13.3649 4.60352 13.5233C4.6187 13.5696 4.63757 13.6147 4.65995 13.6581C4.73775 13.8092 4.94581 13.9786 5.66535 14.0735C6.36373 14.1655 7.35681 14.1666 8.74996 14.1666C10.1431 14.1666 11.1362 14.1655 11.8346 14.0735C12.5541 13.9786 12.7622 13.8092 12.84 13.6581C12.8623 13.6147 12.8812 13.5696 12.8964 13.5233C12.9482 13.3649 12.9244 13.1031 12.4838 12.5328C12.0562 11.9793 11.3552 11.2835 10.3699 10.3078L8.74996 8.70358ZM6.91661 3.66659C6.91661 3.39045 7.14047 3.16659 7.41661 3.16659H10.0833C10.3594 3.16659 10.5833 3.39045 10.5833 3.66659C10.5833 3.94273 10.3594 4.16659 10.0833 4.16659H7.41661C7.14047 4.16659 6.91661 3.94273 6.91661 3.66659ZM6.91661 12.3333C6.91661 12.0571 7.14047 11.8333 7.41661 11.8333H10.0833C10.3594 11.8333 10.5833 12.0571 10.5833 12.3333C10.5833 12.6094 10.3594 12.8333 10.0833 12.8333H7.41661C7.14047 12.8333 6.91661 12.6094 6.91661 12.3333Z" fill="#1C274C"/>
</g>
</svg>
