<svg width="16" height="14" viewBox="0 0 16 14" fill="none" xmlns="http://www.w3.org/2000/svg">
<g clip-path="url(#clip0_19540_56352)">
<path fill-rule="evenodd" clip-rule="evenodd" d="M13.949 6.85882C13.9355 6.85871 13.9177 6.85871 13.8889 6.85871H12.1539C11.2049 6.85871 10.5 7.45306 10.5 8.12186C10.5 8.79066 11.2049 9.38502 12.1539 9.38502H13.8889C13.9177 9.38502 13.9355 9.38502 13.949 9.38491C13.9618 9.3848 13.9653 9.38457 13.9653 9.38457C14.1027 9.37756 14.1618 9.29947 14.1663 9.25248C14.1663 9.25248 14.1665 9.24899 14.1665 9.24389C14.1667 9.23389 14.1667 9.22064 14.1667 9.19791V7.04582C14.1667 7.03325 14.1667 7.02359 14.1667 7.01573C14.1666 7.00944 14.1666 7.00428 14.1665 6.99984C14.1665 6.99479 14.1663 6.99125 14.1663 6.99125C14.1618 6.94426 14.1027 6.86617 13.9653 6.85916C13.9653 6.85916 13.962 6.85893 13.949 6.85882ZM13.8999 6.0166C13.9442 6.0166 13.9869 6.01655 14.0261 6.01857C14.6069 6.04838 15.1207 6.41733 15.1639 6.9327C15.1667 6.9665 15.1667 7.00293 15.1667 7.03667C15.1667 7.03976 15.1667 7.04279 15.1667 7.04582V9.19791C15.1667 9.20094 15.1667 9.20397 15.1667 9.20706C15.1667 9.2408 15.1667 9.27723 15.1639 9.31103C15.1207 9.8264 14.6069 10.1954 14.0261 10.2252C13.9869 10.2272 13.9442 10.2271 13.8999 10.2271C13.8963 10.2271 13.8926 10.2271 13.8889 10.2271H12.1539C10.7237 10.2271 9.5 9.31339 9.5 8.12186C9.5 6.93034 10.7237 6.0166 12.1539 6.0166H13.8889C13.8926 6.0166 13.8963 6.0166 13.8999 6.0166Z" fill="#1B2746"/>
<path d="M12.6668 8.12195C12.6668 8.43201 12.3684 8.68335 12.0002 8.68335C11.632 8.68335 11.3335 8.43201 11.3335 8.12195C11.3335 7.81189 11.632 7.56055 12.0002 7.56055C12.3684 7.56055 12.6668 7.81189 12.6668 8.12195Z" fill="#1B2746"/>
<path fill-rule="evenodd" clip-rule="evenodd" d="M13.9001 6.01662C13.9444 6.01662 13.987 6.01656 14.0262 6.01858C14.1765 6.02627 14.3223 6.0567 14.4566 6.1065C14.3853 5.20462 14.1889 4.5096 13.5727 3.99065C13.0738 3.57052 12.4411 3.38406 11.6595 3.29557L11.6313 3.29243C11.6243 3.28807 11.6172 3.28384 11.6098 3.27973L9.1195 1.88921C8.2507 1.40412 7.08296 1.40412 6.21418 1.88921L3.72386 3.27973C3.71652 3.28384 3.70934 3.28807 3.70234 3.29243L3.67415 3.29557C2.89254 3.38406 2.2599 3.57052 1.76099 3.99065C1.26208 4.41079 1.04067 4.94353 0.93559 5.60173C0.833476 6.24129 0.833483 7.05847 0.833496 8.09022V8.15355C0.833483 9.18529 0.833476 10.0025 0.93559 10.642C1.04067 11.3002 1.26208 11.833 1.76099 12.2531C2.2599 12.6732 2.89254 12.8597 3.67415 12.9482C4.43362 13.0342 5.40405 13.0342 6.62922 13.0342H8.70443C9.92963 13.0342 10.9 13.0342 11.6595 12.9482C12.4411 12.8597 13.0738 12.6732 13.5727 12.2531C14.1889 11.7342 14.3853 11.0392 14.4566 10.1373C14.3223 10.1871 14.1765 10.2175 14.0262 10.2252C13.987 10.2272 13.9444 10.2271 13.9001 10.2271H13.889H13.4454C13.3696 10.9803 13.1979 11.3778 12.8656 11.6577C12.5834 11.8952 12.197 12.0377 11.5263 12.1136C10.8412 12.1912 9.93803 12.1921 8.66683 12.1921H6.66683C5.39562 12.1921 4.4925 12.1912 3.8074 12.1136C3.13667 12.0377 2.75024 11.8952 2.4681 11.6577C2.18596 11.4201 2.01684 11.0946 1.92667 10.5299C1.83456 9.9529 1.8335 9.19237 1.8335 8.12188C1.8335 7.0514 1.83456 6.29086 1.92667 5.71394C2.01684 5.14912 2.18596 4.8237 2.4681 4.58611C2.75024 4.34851 3.13667 4.2061 3.8074 4.13017C4.4925 4.0526 5.39562 4.05171 6.66683 4.05171H8.66683C9.93803 4.05171 10.8412 4.0526 11.5263 4.13017C12.197 4.2061 12.5834 4.34851 12.8656 4.58611C13.1979 4.86598 13.3696 5.26352 13.4454 6.01662H13.889H13.9001ZM6.62922 3.2096H8.70443C9.04876 3.2096 9.37296 3.2096 9.67803 3.2115L8.5669 2.59105C8.03303 2.29298 7.30063 2.29298 6.76683 2.59105L5.65562 3.2115C5.96068 3.2096 6.28488 3.2096 6.62922 3.2096Z" fill="#1B2746"/>
<path d="M4 5.45605C3.72386 5.45605 3.5 5.64457 3.5 5.87711C3.5 6.10964 3.72386 6.29816 4 6.29816H6.66667C6.9428 6.29816 7.16667 6.10964 7.16667 5.87711C7.16667 5.64457 6.9428 5.45605 6.66667 5.45605H4Z" fill="#1B2746"/>
<path fill-rule="evenodd" clip-rule="evenodd" d="M12.6668 8.12195C12.6668 8.43201 12.3684 8.68335 12.0002 8.68335C11.632 8.68335 11.3335 8.43201 11.3335 8.12195C11.3335 7.81189 11.632 7.56055 12.0002 7.56055C12.3684 7.56055 12.6668 7.81189 12.6668 8.12195Z" fill="#1B2746"/>
</g>
<defs>
<clipPath id="clip0_19540_56352">
<rect width="16" height="13.4737" fill="white" transform="translate(0 0.262695)"/>
</clipPath>
</defs>
</svg>
