<svg width="18" height="20" viewBox="0 0 18 20" fill="none" xmlns="http://www.w3.org/2000/svg">
<path fill-rule="evenodd" clip-rule="evenodd" d="M0 8C0 4.22876 -1.19209e-07 2.34315 1.17157 1.17157C2.34315 1.19209e-07 4.22876 0 8 0H10C13.7712 0 15.6569 1.19209e-07 16.8284 1.17157C18 2.34315 18 4.22876 18 8V12C18 15.7712 18 17.6569 16.8284 18.8284C15.6569 20 13.7712 20 10 20H8C4.22876 20 2.34315 20 1.17157 18.8284C-1.19209e-07 17.6569 0 15.7712 0 12V8ZM4.25 16C4.25 15.5858 4.58579 15.25 5 15.25H13C13.4142 15.25 13.75 15.5858 13.75 16C13.75 16.4142 13.4142 16.75 13 16.75H5C4.58579 16.75 4.25 16.4142 4.25 16ZM12.3553 4.30984C10.1338 3.89672 7.8663 3.89672 5.64474 4.30984L5.16897 4.39831C4.2887 4.562 3.76942 5.59158 4.10085 6.51607L4.84525 8.5925C4.95314 8.8934 5.2437 9.0592 5.52553 8.9806C5.70281 8.9311 5.88073 8.8855 6.05918 8.8437L5.41984 6.854C5.26351 6.36748 5.49027 5.83168 5.92632 5.65725C6.36237 5.48283 6.84259 5.73584 6.99892 6.22236L7.7514 8.5641C9.3304 8.41 10.9267 8.5488 12.4746 8.9806C12.7564 9.0592 13.047 8.8934 13.1548 8.5925L13.8992 6.51607C14.2307 5.59158 13.7114 4.562 12.8311 4.39831L12.3553 4.30984Z" fill="#2AD587"/>
</svg>
