<svg width="40" height="40" viewBox="0 0 40 40" fill="none" xmlns="http://www.w3.org/2000/svg">
<path fill-rule="evenodd" clip-rule="evenodd" d="M34.8725 19.5837C34.8387 19.5833 34.7943 19.5833 34.7222 19.5833H30.3847C28.0123 19.5833 26.25 21.3478 26.25 23.3333C26.25 25.3188 28.0123 27.0833 30.3847 27.0833H34.7222C34.7943 27.0833 34.8387 27.0833 34.8725 27.083C34.9045 27.0827 34.9133 27.082 34.9133 27.082C35.2567 27.0612 35.4045 26.8293 35.4158 26.6898C35.4158 26.6898 35.4162 26.6795 35.4163 26.6643C35.4167 26.6347 35.4167 26.5953 35.4167 26.5278V20.1388C35.4167 20.1015 35.4167 20.0728 35.4167 20.0495C35.4165 20.0308 35.4165 20.0155 35.4163 20.0023C35.4162 19.9873 35.4158 19.9768 35.4158 19.9768C35.4045 19.8373 35.2567 19.6055 34.9132 19.5847C34.9132 19.5847 34.905 19.584 34.8725 19.5837ZM34.7498 17.0833C34.8605 17.0833 34.9672 17.0832 35.0652 17.0892C36.5173 17.1777 37.8017 18.273 37.9097 19.803C37.9168 19.9033 37.9167 20.0115 37.9167 20.1117C37.9167 20.1208 37.9167 20.1298 37.9167 20.1388V26.5278C37.9167 26.5368 37.9167 26.5458 37.9167 26.555C37.9167 26.6552 37.9168 26.7633 37.9097 26.8637C37.8017 28.3937 36.5173 29.489 35.0652 29.5775C34.9672 29.5835 34.8605 29.5833 34.7498 29.5833C34.7407 29.5833 34.7315 29.5833 34.7222 29.5833H30.3847C26.8093 29.5833 23.75 26.8707 23.75 23.3333C23.75 19.796 26.8093 17.0833 30.3847 17.0833H34.7222C34.7315 17.0833 34.7407 17.0833 34.7498 17.0833Z" fill="#1C274C"/>
<path d="M31.6666 23.3333C31.6666 24.2538 30.9204 25 29.9999 25C29.0794 25 28.3333 24.2538 28.3333 23.3333C28.3333 22.4128 29.0794 21.6667 29.9999 21.6667C30.9204 21.6667 31.6666 22.4128 31.6666 23.3333Z" fill="#1C274C"/>
<path fill-rule="evenodd" clip-rule="evenodd" d="M34.7497 17.0833C34.8604 17.0833 34.9671 17.0832 35.0651 17.0892C35.4408 17.112 35.8052 17.2023 36.1411 17.3502C35.9627 14.6727 35.4718 12.6094 33.9312 11.0687C32.6839 9.82147 31.1022 9.26793 29.1483 9.00522L29.0777 8.9959C29.0602 8.98295 29.0424 8.97038 29.0241 8.9582L22.7983 4.8301C20.6262 3.38997 17.7069 3.38997 15.535 4.8301L9.30915 8.9582C9.2908 8.97038 9.27287 8.98295 9.25537 8.9959L9.18489 9.00522C7.23085 9.26793 5.64927 9.82147 4.40199 11.0687C3.15472 12.316 2.60119 13.8976 2.33849 15.8516C2.0832 17.7503 2.08322 20.1763 2.08325 23.2393V23.4273C2.08322 26.4903 2.0832 28.9163 2.33849 30.815C2.60119 32.769 3.15472 34.3507 4.40199 35.598C5.64927 36.8452 7.23085 37.3987 9.18489 37.6615C11.0836 37.9167 13.5096 37.9167 16.5726 37.9167H21.7606C24.8236 37.9167 27.2496 37.9167 29.1483 37.6615C31.1022 37.3987 32.6839 36.8452 33.9312 35.598C35.4718 34.0573 35.9627 31.994 36.1411 29.3165C35.8052 29.4643 35.4408 29.5547 35.0651 29.5775C34.9671 29.5835 34.8604 29.5833 34.7497 29.5833H34.7221H33.6131C33.4234 31.8192 32.9942 32.9993 32.1634 33.8302C31.4581 34.5355 30.4919 34.9583 28.8152 35.1837C27.1024 35.414 24.8446 35.4167 21.6666 35.4167H16.6666C13.4886 35.4167 11.2308 35.414 9.518 35.1837C7.84119 34.9583 6.8751 34.5355 6.16975 33.8302C5.4644 33.1248 5.04162 32.1587 4.81619 30.482C4.5859 28.7692 4.58325 26.5113 4.58325 23.3333C4.58325 20.1553 4.5859 17.8975 4.81619 16.1847C5.04162 14.5079 5.4644 13.5418 6.16975 12.8365C6.8751 12.1311 7.84119 11.7084 9.518 11.4829C11.2308 11.2526 13.4886 11.25 16.6666 11.25H21.6666C24.8446 11.25 27.1024 11.2526 28.8152 11.4829C30.4919 11.7084 31.4581 12.1311 32.1634 12.8365C32.9942 13.6674 33.4234 14.8476 33.6131 17.0833H34.7221H34.7497ZM16.5725 8.75H21.7606C22.6214 8.74998 23.4319 8.74998 24.1946 8.75565L21.4167 6.91368C20.0821 6.02877 18.2511 6.02877 16.9166 6.91368L14.1386 8.75565C14.9012 8.74998 15.7117 8.74998 16.5725 8.75Z" fill="#1C274C"/>
<path d="M10 15.4167C9.30965 15.4167 8.75 15.9763 8.75 16.6667C8.75 17.357 9.30965 17.9167 10 17.9167H16.6667C17.357 17.9167 17.9167 17.357 17.9167 16.6667C17.9167 15.9763 17.357 15.4167 16.6667 15.4167H10Z" fill="#1C274C"/>
<path fill-rule="evenodd" clip-rule="evenodd" d="M31.6666 23.3333C31.6666 24.2538 30.9204 25 29.9999 25C29.0794 25 28.3333 24.2538 28.3333 23.3333C28.3333 22.4128 29.0794 21.6667 29.9999 21.6667C30.9204 21.6667 31.6666 22.4128 31.6666 23.3333Z" fill="#1C274C"/>
</svg>
