<svg width="28" height="28" viewBox="2 2 28 28" fill="none" xmlns="http://www.w3.org/2000/svg">
<mask id="mask0_1081_180309" style="mask-type:luminance" maskUnits="userSpaceOnUse" x="0" y="0" width="28" height="28">
<path fill-rule="evenodd" clip-rule="evenodd" d="M7.27467 0.0157223C6.56103 0.04109 5.64126 0.0969219 5.22321 0.181299C4.58507 0.310165 3.98243 0.505548 3.48127 0.760983C2.89243 1.06107 2.36469 1.44394 1.909 1.89892C1.45227 2.35478 1.06786 2.88301 0.766571 3.47272C0.511851 3.9712 0.316578 4.57018 0.187164 5.2047C0.101088 5.62697 0.044161 6.55359 0.0183548 7.27183C0.0078898 7.5654 0.00252035 7.94532 0.00252035 8.12054L0 23.8769C0 24.0514 0.00531466 24.4315 0.0157248 24.7254C0.0410927 25.439 0.096924 26.3587 0.181356 26.7768C0.310168 27.4149 0.505605 28.0176 0.760983 28.5187C1.06112 29.1076 1.44394 29.6352 1.89892 30.091C2.35478 30.5477 2.88307 30.9321 3.47272 31.2334C3.97126 31.4881 4.57022 31.6834 5.20469 31.8128C5.62696 31.8989 6.55363 31.9558 7.27188 31.9816C7.56534 31.9921 7.94531 31.9975 8.12053 31.9975L23.8769 32C24.0515 32 24.4315 31.9947 24.7253 31.9843C25.4389 31.9589 26.3587 31.9031 26.7767 31.8186C27.4149 31.6898 28.0176 31.4943 28.5187 31.239C29.1075 30.9389 29.6353 30.556 30.0909 30.1011C30.5476 29.6452 30.932 29.117 31.2334 28.5273C31.488 28.0287 31.6834 27.4298 31.8128 26.7953C31.8989 26.373 31.9558 25.4463 31.9816 24.7281C31.9921 24.4346 31.9974 24.0547 31.9974 23.8795L32 8.12306C32 7.9485 31.9947 7.56847 31.9842 7.27463C31.9588 6.56104 31.903 5.64127 31.8186 5.22322C31.6898 4.58508 31.4943 3.98244 31.239 3.48127C30.9389 2.89238 30.5559 2.3647 30.1011 1.90895C29.6452 1.45233 29.1169 1.06786 28.5272 0.766571C28.0287 0.51185 27.4298 0.316523 26.7952 0.187162C26.373 0.101088 25.4463 0.0441589 24.7281 0.0184078C24.4346 0.00783348 24.0546 0.00251961 23.8794 0.00251961L8.12305 0C7.94848 0 7.56846 0.00525665 7.27467 0.0157223Z" fill="white"/>
</mask>
<g mask="url(#mask0_1081_180309)">
    <path fill-rule="evenodd" clip-rule="evenodd" d="M21.5491 18.106C21.2641 17.9633 19.8629 17.274 19.6016 17.179C19.3403 17.0839 19.1504 17.0363 18.9604 17.3216C18.7703 17.6068 18.2241 18.2486 18.0579 18.4388C17.8916 18.6289 17.7254 18.6527 17.4404 18.51C17.1553 18.3675 16.237 18.0666 15.1484 17.0959C14.3011 16.3404 13.7291 15.4073 13.5628 15.122C13.3966 14.8368 13.5451 14.6826 13.6878 14.5405C13.816 14.4129 13.9728 14.2078 14.1153 14.0414C14.2578 13.875 14.3053 13.7562 14.4003 13.566C14.4953 13.3759 14.4478 13.2095 14.3765 13.0668C14.3053 12.9242 13.7353 11.5218 13.4978 10.9513C13.2665 10.3958 13.0315 10.4709 12.8566 10.4622C12.6905 10.4539 12.5003 10.4522 12.3103 10.4522C12.1203 10.4522 11.8115 10.5235 11.5502 10.8087C11.289 11.0939 10.5527 11.7833 10.5527 13.1857C10.5527 14.5881 11.574 15.943 11.7165 16.1331C11.859 16.3233 13.7263 19.2012 16.5854 20.4354C17.2654 20.7289 17.7963 20.9042 18.2102 21.0356C18.893 21.2524 19.5143 21.2218 20.0054 21.1485C20.5529 21.0667 21.6917 20.4592 21.9292 19.7936C22.1666 19.1281 22.1666 18.5576 22.0954 18.4388C22.0242 18.3199 21.8342 18.2486 21.5491 18.106ZM16.3491 25.2031H16.3453C14.6441 25.2025 12.9755 24.7456 11.5199 23.8821L11.1736 23.6766L7.58537 24.6176L8.54316 21.1202L8.3177 20.7617C7.36867 19.2526 6.86745 17.5085 6.86816 15.7176C6.87025 10.492 11.1233 6.2405 16.3529 6.2405C18.8852 6.24149 21.2656 7.22864 23.0556 9.02007C24.8456 10.8116 25.8309 13.1929 25.8299 15.7253C25.8277 20.9514 21.5747 25.2031 16.3491 25.2031ZM24.4171 7.66018C22.2635 5.50478 19.3995 4.3172 16.3481 4.31599C10.0609 4.31599 4.94389 9.43106 4.94137 15.7183C4.94055 17.7281 5.46576 19.6899 6.46393 21.4191L4.8457 27.3281L10.8926 25.7425C12.5586 26.6509 14.4344 27.1296 16.3436 27.1304H16.3482H16.3483C22.6349 27.1304 27.7523 22.0147 27.7549 15.7274C27.756 12.6805 26.5707 9.81553 24.4171 7.66018Z" fill="white"/>
</g>
<defs>
<linearGradient id="paint0_linear_1081_180309" x1="-3.43323e-05" y1="32.0005" x2="-3.43323e-05" y2="0.000451514" gradientUnits="userSpaceOnUse">
<stop stop-color="#25CF43"/>
<stop offset="1" stop-color="#61FD7D"/>
</linearGradient>
</defs>
</svg>
