<svg width="16" height="16" viewBox="0 0 16 16" fill="none" xmlns="http://www.w3.org/2000/svg">
<g clip-path="url(#clip0_910_42242)">
<mask id="path-1-inside-1_910_42242" fill="white">
<path fill-rule="evenodd" clip-rule="evenodd" d="M3.71737 3.56179C2.55499 4.68332 1.83203 6.25725 1.83203 8.00004C1.83203 11.4058 4.59294 14.1667 7.9987 14.1667C8.0837 14.1667 8.1683 14.165 8.2525 14.1616C8.1155 13.5538 8.09696 12.7368 8.5147 11.9496C8.94943 11.1304 9.8495 10.7748 10.5113 10.6122C10.858 10.527 11.1792 10.4849 11.4128 10.464C11.5302 10.4534 11.6269 10.4481 11.6955 10.4454C11.7298 10.444 11.7572 10.4433 11.7767 10.443L11.8 10.4426L11.8056 10.4426C12.9206 10.431 13.423 10.0684 13.6896 9.72244C13.9173 9.42697 14.0033 9.13144 14.0905 8.83171C14.1016 8.79357 14.1127 8.75537 14.1241 8.71711C14.1514 8.48184 14.1654 8.24257 14.1654 8.00004C14.1654 6.31732 13.4914 4.79202 12.3986 3.67936C12.3928 3.70207 12.3869 3.72444 12.3808 3.74644C12.2723 4.14175 12.097 4.54747 11.9066 4.83654C11.736 5.09546 11.405 5.35665 11.1304 5.554C10.9496 5.68389 10.7614 5.79424 10.5906 5.89263C10.57 5.90452 10.5497 5.91623 10.5296 5.92777C10.3776 6.01523 10.2408 6.09389 10.1091 6.18086C9.82123 6.37107 9.5985 6.57579 9.44856 6.88491C9.3961 6.99317 9.39443 7.09877 9.4255 7.21184C9.47523 7.39284 9.5091 7.59644 9.50963 7.80404C9.51076 8.23671 9.29036 8.58784 9.0071 8.81611C8.72723 9.04171 8.36143 9.17071 7.99323 9.16671C6.35638 9.14877 5.34998 7.82044 5.21724 6.34303C5.16444 5.75533 4.90678 5.16085 4.58144 4.64127C4.28265 4.16411 3.94599 3.78067 3.71737 3.56179ZM4.4954 2.92445C4.7721 3.20312 5.11926 3.61591 5.42899 4.11057C5.80067 4.70415 6.14119 5.45177 6.21323 6.25354C6.31387 7.37371 7.02196 8.15604 8.00416 8.16671C8.13923 8.16824 8.2795 8.11817 8.37963 8.03751C8.47636 7.95957 8.50983 7.87724 8.50963 7.80664C8.50936 7.70297 8.4919 7.58837 8.46116 7.47657C8.38043 7.18244 8.3689 6.81951 8.54883 6.44851C8.8055 5.91931 9.1859 5.59229 9.5579 5.34651C9.7173 5.24118 9.8827 5.14616 10.0319 5.06041C10.052 5.04885 10.0718 5.03746 10.0913 5.02624C10.2614 4.92816 10.4108 4.83963 10.5468 4.74189C10.8342 4.53541 11.016 4.37058 11.0715 4.28635C11.1932 4.10174 11.33 3.79693 11.4165 3.48171C11.4851 3.23195 11.5041 3.04028 11.4977 2.92148C10.5036 2.23525 9.29803 1.83337 7.9987 1.83337C6.69743 1.83337 5.49035 2.23641 4.4954 2.92445ZM15.1182 8.82691C15.1494 8.55557 15.1654 8.27971 15.1654 8.00004C15.1654 4.042 11.9568 0.833374 7.9987 0.833374C4.04066 0.833374 0.832031 4.042 0.832031 8.00004C0.832031 11.9581 4.04066 15.1667 7.9987 15.1667C11.639 15.1667 14.6453 12.4526 15.1046 8.93764C15.1168 8.89531 15.1273 8.86004 15.1368 8.83344L15.1182 8.82691ZM13.2685 11.2044C12.8714 11.35 12.3928 11.4365 11.8161 11.4426H11.8108H11.8091L11.7954 11.4428C11.7824 11.443 11.762 11.4435 11.735 11.4446C11.6809 11.4468 11.601 11.4511 11.5022 11.46C11.3034 11.4778 11.0345 11.5134 10.75 11.5833C10.1492 11.731 9.62203 11.9962 9.39803 12.4183C9.09436 12.9905 9.1377 13.6131 9.25096 14.0395C10.9503 13.689 12.3941 12.6393 13.2685 11.2044Z"/>
</mask>
<path fill-rule="evenodd" clip-rule="evenodd" d="M3.71737 3.56179C2.55499 4.68332 1.83203 6.25725 1.83203 8.00004C1.83203 11.4058 4.59294 14.1667 7.9987 14.1667C8.0837 14.1667 8.1683 14.165 8.2525 14.1616C8.1155 13.5538 8.09696 12.7368 8.5147 11.9496C8.94943 11.1304 9.8495 10.7748 10.5113 10.6122C10.858 10.527 11.1792 10.4849 11.4128 10.464C11.5302 10.4534 11.6269 10.4481 11.6955 10.4454C11.7298 10.444 11.7572 10.4433 11.7767 10.443L11.8 10.4426L11.8056 10.4426C12.9206 10.431 13.423 10.0684 13.6896 9.72244C13.9173 9.42697 14.0033 9.13144 14.0905 8.83171C14.1016 8.79357 14.1127 8.75537 14.1241 8.71711C14.1514 8.48184 14.1654 8.24257 14.1654 8.00004C14.1654 6.31732 13.4914 4.79202 12.3986 3.67936C12.3928 3.70207 12.3869 3.72444 12.3808 3.74644C12.2723 4.14175 12.097 4.54747 11.9066 4.83654C11.736 5.09546 11.405 5.35665 11.1304 5.554C10.9496 5.68389 10.7614 5.79424 10.5906 5.89263C10.57 5.90452 10.5497 5.91623 10.5296 5.92777C10.3776 6.01523 10.2408 6.09389 10.1091 6.18086C9.82123 6.37107 9.5985 6.57579 9.44856 6.88491C9.3961 6.99317 9.39443 7.09877 9.4255 7.21184C9.47523 7.39284 9.5091 7.59644 9.50963 7.80404C9.51076 8.23671 9.29036 8.58784 9.0071 8.81611C8.72723 9.04171 8.36143 9.17071 7.99323 9.16671C6.35638 9.14877 5.34998 7.82044 5.21724 6.34303C5.16444 5.75533 4.90678 5.16085 4.58144 4.64127C4.28265 4.16411 3.94599 3.78067 3.71737 3.56179ZM4.4954 2.92445C4.7721 3.20312 5.11926 3.61591 5.42899 4.11057C5.80067 4.70415 6.14119 5.45177 6.21323 6.25354C6.31387 7.37371 7.02196 8.15604 8.00416 8.16671C8.13923 8.16824 8.2795 8.11817 8.37963 8.03751C8.47636 7.95957 8.50983 7.87724 8.50963 7.80664C8.50936 7.70297 8.4919 7.58837 8.46116 7.47657C8.38043 7.18244 8.3689 6.81951 8.54883 6.44851C8.8055 5.91931 9.1859 5.59229 9.5579 5.34651C9.7173 5.24118 9.8827 5.14616 10.0319 5.06041C10.052 5.04885 10.0718 5.03746 10.0913 5.02624C10.2614 4.92816 10.4108 4.83963 10.5468 4.74189C10.8342 4.53541 11.016 4.37058 11.0715 4.28635C11.1932 4.10174 11.33 3.79693 11.4165 3.48171C11.4851 3.23195 11.5041 3.04028 11.4977 2.92148C10.5036 2.23525 9.29803 1.83337 7.9987 1.83337C6.69743 1.83337 5.49035 2.23641 4.4954 2.92445ZM15.1182 8.82691C15.1494 8.55557 15.1654 8.27971 15.1654 8.00004C15.1654 4.042 11.9568 0.833374 7.9987 0.833374C4.04066 0.833374 0.832031 4.042 0.832031 8.00004C0.832031 11.9581 4.04066 15.1667 7.9987 15.1667C11.639 15.1667 14.6453 12.4526 15.1046 8.93764C15.1168 8.89531 15.1273 8.86004 15.1368 8.83344L15.1182 8.82691ZM13.2685 11.2044C12.8714 11.35 12.3928 11.4365 11.8161 11.4426H11.8108H11.8091L11.7954 11.4428C11.7824 11.443 11.762 11.4435 11.735 11.4446C11.6809 11.4468 11.601 11.4511 11.5022 11.46C11.3034 11.4778 11.0345 11.5134 10.75 11.5833C10.1492 11.731 9.62203 11.9962 9.39803 12.4183C9.09436 12.9905 9.1377 13.6131 9.25096 14.0395C10.9503 13.689 12.3941 12.6393 13.2685 11.2044Z" fill="#576A7A"/>
<path d="M3.71737 3.56179L26.7695 -20.5154L3.62805 -42.6716L-19.4276 -20.4261L3.71737 3.56179ZM8.2525 14.1616L9.5974 47.4678L49.5666 45.8538L40.7698 6.83126L8.2525 14.1616ZM8.5147 11.9496L-20.9294 -3.67585L-20.9297 -3.67532L8.5147 11.9496ZM10.5113 10.6122L2.55718 -21.7582L2.55497 -21.7577L10.5113 10.6122ZM11.4128 10.464L14.3887 43.6642L14.3915 43.6639L11.4128 10.464ZM11.6955 10.4454L10.3995 -22.8628L10.3839 -22.8621L10.3684 -22.8615L11.6955 10.4454ZM11.7767 10.443L11.2995 -22.8869L11.2537 -22.8863L11.208 -22.8855L11.7767 10.443ZM11.8 10.4426L11.4073 -22.8884L11.365 -22.8879L11.3227 -22.8873L11.8 10.4426ZM11.8056 10.4426L11.4589 -22.889L11.4359 -22.8887L11.4129 -22.8884L11.8056 10.4426ZM13.6896 9.72244L-12.7117 -10.6266L-12.7129 -10.6251L13.6896 9.72244ZM14.0905 8.83171L46.0969 18.1432L46.0999 18.1326L46.103 18.122L14.0905 8.83171ZM14.1241 8.71711L46.07 18.2341L46.9008 15.4453L47.2358 12.5546L14.1241 8.71711ZM12.3986 3.67936L36.1809 -19.6769L-5.26053 -61.874L-19.8978 -4.57016L12.3986 3.67936ZM12.3808 3.74644L-19.7531 -5.11474L-19.7581 -5.09677L-19.763 -5.0788L12.3808 3.74644ZM11.9066 4.83654L39.7411 23.1764L39.7411 23.1764L11.9066 4.83654ZM11.1304 5.554L30.5793 32.6252L30.5803 32.6244L11.1304 5.554ZM10.5906 5.89263L-6.0524 -22.9885L-6.06418 -22.9817L-6.07595 -22.9749L10.5906 5.89263ZM10.5296 5.92777L-6.05375 -22.9877L-6.07376 -22.9762L-6.09376 -22.9647L10.5296 5.92777ZM10.1091 6.18086L-8.2631 -21.6323L-8.2672 -21.6296L10.1091 6.18086ZM9.44856 6.88491L-20.5429 -7.66227L-20.5481 -7.65165L9.44856 6.88491ZM9.4255 7.21184L-22.7166 16.0433L-22.7166 16.0435L9.4255 7.21184ZM9.50963 7.80404L-23.8236 7.88968L-23.8236 7.89135L9.50963 7.80404ZM9.0071 8.81611L-11.9083 -17.1388L-11.9124 -17.1355L9.0071 8.81611ZM7.99323 9.16671L7.62805 42.498L7.63113 42.4981L7.99323 9.16671ZM5.21724 6.34303L38.4169 3.36032L38.4168 3.35994L5.21724 6.34303ZM4.58144 4.64127L32.8332 -13.0491L32.8332 -13.0491L4.58144 4.64127ZM4.4954 2.92445L-14.464 -24.4918L-47.2139 -1.84408L-19.1581 26.4111L4.4954 2.92445ZM5.42899 4.11057L-22.8228 21.8008L-22.8228 21.8009L5.42899 4.11057ZM6.21323 6.25354L39.4128 3.27076L39.4128 3.27053L6.21323 6.25354ZM8.00416 8.16671L8.38255 -25.1645L8.37435 -25.1646L8.36614 -25.1647L8.00416 8.16671ZM8.37963 8.03751L29.2912 33.9955L29.2921 33.9948L8.37963 8.03751ZM8.50963 7.80664L-24.8236 7.89239L-24.8236 7.90107L8.50963 7.80664ZM8.46116 7.47657L-23.6833 16.2995L-23.6799 16.312L8.46116 7.47657ZM8.54883 6.44851L-21.4431 -8.09783L-21.4431 -8.09772L8.54883 6.44851ZM9.5579 5.34651L27.9328 33.1579L27.935 33.1564L9.5579 5.34651ZM10.0319 5.06041L-6.55862 -23.8509L-6.56854 -23.8452L-6.57847 -23.8395L10.0319 5.06041ZM10.0913 5.02624L26.7367 33.906L26.7393 33.9045L10.0913 5.02624ZM10.5468 4.74189L-8.90219 -22.3293L-8.90727 -22.3256L10.5468 4.74189ZM11.0715 4.28635L-16.7612 -14.0563L-16.7675 -14.0467L11.0715 4.28635ZM11.4165 3.48171L-20.7264 -5.34701L-20.7276 -5.34241L11.4165 3.48171ZM11.4977 2.92148L44.7828 1.12835L43.9024 -15.2138L30.4338 -24.5109L11.4977 2.92148ZM15.1182 8.82691L-17.997 5.01907L-21.037 31.4574L4.07163 40.2766L15.1182 8.82691ZM15.1046 8.93764L-16.9252 -0.292988L-17.6219 2.12444L-17.9478 4.61904L15.1046 8.93764ZM15.1368 8.83344L46.5406 20.0097L57.7632 -11.524L26.1833 -22.6163L15.1368 8.83344ZM13.2685 11.2044L41.7329 28.5505L91.3862 -52.9291L1.79736 -20.0929L13.2685 11.2044ZM11.8161 11.4426V44.7759H11.9914L12.1667 44.7741L11.8161 11.4426ZM11.8091 11.4426V-21.8908H11.5653L11.3215 -21.8872L11.8091 11.4426ZM11.7954 11.4428L11.3078 -21.887L11.2097 -21.8856L11.1117 -21.8835L11.7954 11.4428ZM11.735 11.4446L10.4191 -21.8628L10.3994 -21.862L10.3797 -21.8612L11.735 11.4446ZM11.5022 11.46L14.4758 44.6604L14.4816 44.6599L11.5022 11.46ZM10.75 11.5833L2.794 -20.7866L2.79397 -20.7866L10.75 11.5833ZM9.39803 12.4183L38.8419 28.0442L38.8427 28.0428L9.39803 12.4183ZM9.25096 14.0395L-22.9651 22.5972L-14.8755 53.0513L15.9851 46.6855L9.25096 14.0395ZM-19.4276 -20.4261C-26.8311 -13.2828 -31.5013 -3.15803 -31.5013 8.00004H35.1654C35.1654 15.6725 31.9411 22.6495 26.8624 27.5497L-19.4276 -20.4261ZM-31.5013 8.00004C-31.5013 29.8152 -13.8166 47.5 7.9987 47.5V-19.1666C23.0025 -19.1666 35.1654 -7.00365 35.1654 8.00004H-31.5013ZM7.9987 47.5C8.53699 47.5 9.07001 47.4891 9.5974 47.4678L6.90759 -19.1446C7.26659 -19.1591 7.6304 -19.1666 7.9987 -19.1666V47.5ZM40.7698 6.83126C41.7958 11.3823 42.3654 19.2709 37.9591 27.5745L-20.9297 -3.67532C-26.1715 6.20262 -25.5648 15.7254 -24.2648 21.4919L40.7698 6.83126ZM37.9588 27.575C34.5402 34.017 29.7033 37.7936 26.2473 39.8134C22.9068 41.7657 19.9827 42.6096 18.4676 42.982L2.55497 -21.7577C-0.120073 -21.1002 -13.4661 -17.7395 -20.9294 -3.67585L37.9588 27.575ZM18.4654 42.9826C16.7421 43.406 15.3198 43.5807 14.3887 43.6642L8.43678 -22.7362C7.03862 -22.6109 4.974 -22.3521 2.55718 -21.7582L18.4654 42.9826ZM14.3915 43.6639C13.888 43.7091 13.4289 43.7361 13.0226 43.7523L10.3684 -22.8615C9.82494 -22.8399 9.17229 -22.8022 8.434 -22.736L14.3915 43.6639ZM12.9915 43.7535C12.8236 43.76 12.6055 43.767 12.3454 43.7715L11.208 -22.8855C10.9089 -22.8804 10.636 -22.872 10.3995 -22.8628L12.9915 43.7535ZM12.2539 43.7729L12.2772 43.7726L11.3227 -22.8873L11.2995 -22.8869L12.2539 43.7729ZM12.1927 43.7737L12.1983 43.7736L11.4129 -22.8884L11.4073 -22.8884L12.1927 43.7737ZM12.1524 43.7741C21.6212 43.6756 32.5341 39.8769 40.092 30.07L-12.7129 -10.6251C-9.85865 -14.3287 -5.85817 -17.8098 -0.707295 -20.1469C4.13097 -22.3422 8.50793 -22.8583 11.4589 -22.889L12.1524 43.7741ZM40.0909 30.0715C44.605 24.2146 46.0773 18.2106 46.0969 18.1432L-17.9159 -0.479753C-18.0707 0.0522924 -16.7704 -5.3607 -12.7117 -10.6266L40.0909 30.0715ZM46.103 18.122C46.1054 18.1139 46.1027 18.1232 46.0977 18.1403C46.0924 18.1583 46.0828 18.1911 46.07 18.2341L-17.8218 -0.799867C-17.8682 -0.644144 -17.9061 -0.51344 -17.922 -0.458635L46.103 18.122ZM47.2358 12.5546C47.4105 11.047 47.4987 9.52646 47.4987 8.00004H-19.168C-19.168 6.95869 -19.1078 5.91666 -18.9876 4.87957L47.2358 12.5546ZM47.4987 8.00004C47.4987 -2.76748 43.1463 -12.5845 36.1809 -19.6769L-11.3836 27.0357C-16.1636 22.1685 -19.168 15.4021 -19.168 8.00004H47.4987ZM-19.8978 -4.57016C-19.8541 -4.74097 -19.806 -4.92283 -19.7531 -5.11474L44.5148 12.6076C44.5798 12.3717 44.6398 12.1451 44.695 11.9289L-19.8978 -4.57016ZM-19.763 -5.0788C-19.3912 -6.43292 -18.9333 -7.71896 -18.4007 -8.94541C-17.8919 -10.1173 -17.1084 -11.7117 -15.928 -13.5033L39.7411 23.1764C42.2265 19.4042 43.6837 15.6346 44.5247 12.5717L-19.763 -5.0788ZM-15.9279 -13.5034C-14.7111 -15.3502 -13.5274 -16.7315 -12.6943 -17.6303C-11.8348 -18.5575 -11.0694 -19.2699 -10.5191 -19.7564C-9.46326 -20.6897 -8.60385 -21.3122 -8.31962 -21.5164L30.5803 32.6244C31.1392 32.2229 32.3015 31.371 33.634 30.1931C34.7407 29.2149 37.3294 26.8367 39.7411 23.1764L-15.9279 -13.5034ZM-8.31857 -21.5172C-7.60568 -22.0294 -7.0121 -22.4075 -6.64183 -22.6358C-6.2872 -22.8546 -6.01855 -23.008 -6.0524 -22.9885L27.2337 34.7738C27.4325 34.6592 28.9106 33.8241 30.5793 32.6252L-8.31857 -21.5172ZM-6.07595 -22.9749C-6.07378 -22.9762 -6.06595 -22.9807 -6.05375 -22.9877L27.1129 34.8433C27.1653 34.8132 27.2138 34.7852 27.2572 34.7602L-6.07595 -22.9749ZM-6.09376 -22.9647C-6.12318 -22.9478 -6.41778 -22.7791 -6.73926 -22.5877C-7.09361 -22.3768 -7.63026 -22.0504 -8.2631 -21.6323L28.4813 33.994C27.9801 34.3251 27.5777 34.5687 27.3627 34.6967C27.1805 34.8051 27.0303 34.8908 27.1529 34.8203L-6.09376 -22.9647ZM-8.2672 -21.6296C-11.3627 -19.5842 -16.8369 -15.3029 -20.5429 -7.66227L39.4401 21.4321C37.8725 24.664 35.8524 27.4345 33.6303 29.7208C31.5317 31.88 29.5778 33.2695 28.4854 33.9913L-8.2672 -21.6296ZM-20.5481 -7.65165C-24.8048 1.13214 -24.4357 9.78683 -22.7166 16.0433L41.5676 -1.61966C42.2948 1.02679 42.9304 4.65166 42.6847 8.94957C42.4314 13.3794 41.2919 17.6108 39.4452 21.4215L-20.5481 -7.65165ZM-22.7166 16.0435C-23.3029 13.9098 -23.8152 11.1449 -23.8236 7.88968L42.8429 7.71841C42.8334 4.04793 42.2533 0.875925 41.5676 -1.61983L-22.7166 16.0435ZM-23.8236 7.89135C-23.8542 -3.80054 -17.7912 -12.3982 -11.9083 -17.1388L29.9225 34.771C36.3719 29.5739 42.8757 20.274 42.8428 7.71673L-23.8236 7.89135ZM-11.9124 -17.1355C-6.19764 -21.7422 0.952365 -24.2451 8.35533 -24.1647L7.63113 42.4981C15.7705 42.5865 23.6521 39.8256 29.9266 34.7677L-11.9124 -17.1355ZM8.35841 -24.1646C17.244 -24.0673 25.2358 -20.1249 30.6827 -14.1457C35.7055 -8.63207 37.9157 -2.2184 38.4169 3.36032L-27.9824 9.32574C-26.8 22.4865 -16.0161 42.239 7.62805 42.498L8.35841 -24.1646ZM38.4168 3.35994C37.7229 -4.36315 34.7035 -10.0622 32.8332 -13.0491L-23.6703 22.3316C-24.4104 21.1497 -25.2848 19.5541 -26.0631 17.5539C-26.832 15.5775 -27.6717 12.7832 -27.9823 9.32611L38.4168 3.35994ZM32.8332 -13.0491C30.9786 -16.0109 28.8576 -18.5162 26.7695 -20.5154L-19.3347 27.639C-20.2614 26.7517 -21.0197 25.9117 -21.6427 25.1526C-22.2863 24.3685 -22.9805 23.4334 -23.6703 22.3316L32.8332 -13.0491ZM-19.1581 26.4111C-20.4728 25.087 -21.7101 23.5779 -22.8228 21.8008L33.6808 -13.5797C31.9486 -16.3461 30.017 -18.6808 28.1489 -20.5622L-19.1581 26.4111ZM-22.8228 21.8009C-23.9958 19.9276 -26.4172 15.5705 -26.9864 9.23655L39.4128 3.27053C38.6996 -4.667 35.5971 -10.5194 33.6808 -13.5798L-22.8228 21.8009ZM-26.9864 9.23632C-25.7853 22.6049 -14.8763 41.2535 7.64219 41.4981L8.36614 -25.1647C17.2314 -25.0684 25.4529 -21.2593 31.2224 -15.0363C36.7011 -9.12686 38.9128 -2.29447 39.4128 3.27076L-26.9864 9.23632ZM7.62577 41.4979C15.5517 41.5879 23.2072 38.8968 29.2912 33.9955L-12.5319 -17.9205C-6.64817 -22.6604 0.726719 -25.2514 8.38255 -25.1645L7.62577 41.4979ZM29.2921 33.9948C35.8292 28.7281 41.8766 19.6163 41.8428 7.71221L-24.8236 7.90107C-24.8569 -3.86186 -18.8765 -12.809 -12.5329 -17.9197L29.2921 33.9948ZM41.8429 7.7209C41.8337 4.15562 41.2704 1.07179 40.6022 -1.35886L-23.6799 16.312C-24.2866 14.105 -24.815 11.2503 -24.8236 7.89239L41.8429 7.7209ZM40.6056 -1.3464C42.1738 4.36685 42.6194 12.5853 38.5408 20.9947L-21.4431 -8.09772C-25.8816 1.05376 -25.4129 9.99803 -23.6833 16.2995L40.6056 -1.3464ZM38.5407 20.9949C35.2381 27.8044 30.3608 31.5538 27.9328 33.1579L-8.81705 -22.4649C-11.989 -20.3692 -17.6271 -15.9657 -21.4431 -8.09783L38.5407 20.9949ZM27.935 33.1564C27.4526 33.4752 27.0683 33.708 26.8658 33.8288C26.682 33.9383 26.5338 34.0227 26.6423 33.9604L-6.57847 -23.8395C-6.59485 -23.8301 -7.65473 -23.2329 -8.81922 -22.4634L27.935 33.1564ZM26.6224 33.9718C26.6649 33.9474 26.7035 33.9251 26.7367 33.906L-6.55413 -23.8535C-6.55985 -23.8502 -6.56085 -23.8497 -6.55862 -23.8509L26.6224 33.9718ZM26.7393 33.9045C26.913 33.8044 28.3673 32.9835 30.0009 31.8094L-8.90727 -22.3256C-8.16052 -22.8623 -7.5389 -23.2576 -7.15891 -23.4918C-6.9658 -23.6109 -6.81106 -23.703 -6.71571 -23.7592C-6.62265 -23.8141 -6.55886 -23.8508 -6.55671 -23.852L26.7393 33.9045ZM29.9959 31.813C30.7876 31.2442 31.7969 30.4757 32.8905 29.5154C33.2557 29.1947 36.251 26.6579 38.9105 22.6194L-16.7675 -14.0467C-15.1816 -16.4549 -13.6387 -18.0972 -13.0271 -18.7335C-12.2381 -19.5545 -11.5541 -20.1786 -11.0982 -20.5789C-10.1813 -21.3841 -9.4065 -21.9669 -8.90219 -22.3293L29.9959 31.813ZM38.9041 22.629C41.3221 18.9601 42.7415 15.2898 43.5606 12.3058L-20.7276 -5.34241C-20.3282 -6.7975 -19.8455 -8.12895 -19.3176 -9.34456C-18.8365 -10.4523 -18.0298 -12.1314 -16.7612 -14.0563L38.9041 22.629ZM43.5594 12.3104C44.2512 9.79166 45.0386 5.87734 44.7828 1.12835L-21.7874 4.71462C-21.921 2.23403 -21.7468 0.180678 -21.556 -1.25075C-21.3519 -2.78195 -21.0545 -4.15244 -20.7264 -5.34701L43.5594 12.3104ZM30.4338 -24.5109C24.0513 -28.9166 16.2765 -31.5 7.9987 -31.5V35.1667C2.31954 35.1667 -3.04417 33.3871 -7.4384 30.3539L30.4338 -24.5109ZM7.9987 -31.5C-0.291474 -31.5 -8.07652 -28.909 -14.464 -24.4918L23.4548 30.3407C19.0572 33.3818 13.6863 35.1667 7.9987 35.1667V-31.5ZM48.2333 12.6347C48.4098 11.0997 48.4987 9.55246 48.4987 8.00004H-18.168C-18.168 7.00695 -18.1111 6.01146 -17.997 5.01907L48.2333 12.6347ZM48.4987 8.00004C48.4987 -14.3674 30.3663 -32.5 7.9987 -32.5V34.1667C-6.45281 34.1667 -18.168 22.4514 -18.168 8.00004H48.4987ZM7.9987 -32.5C-14.3688 -32.5 -32.5013 -14.3675 -32.5013 8.00004H34.1654C34.1654 22.4515 22.4501 34.1667 7.9987 34.1667V-32.5ZM-32.5013 8.00004C-32.5013 30.3677 -14.3688 48.5 7.9987 48.5V-18.1666C22.4501 -18.1666 34.1654 -6.45147 34.1654 8.00004H-32.5013ZM7.9987 48.5C28.5967 48.5 45.5572 33.1536 48.157 13.2562L-17.9478 4.61904C-16.2666 -8.24829 -5.31873 -18.1666 7.9987 -18.1666V48.5ZM47.1343 18.1683C47.1225 18.2094 47.0683 18.3977 46.9925 18.645C46.9235 18.8703 46.767 19.3737 46.5406 20.0097L-16.2671 -2.34286C-16.5029 -1.6802 -16.6694 -1.14588 -16.7491 -0.885722C-16.8356 -0.603596 -16.9011 -0.376495 -16.9252 -0.292988L47.1343 18.1683ZM26.1833 -22.6163L26.1647 -22.6228L4.07163 40.2766L4.09023 40.2832L26.1833 -22.6163ZM1.79736 -20.0929C5.54624 -21.467 8.92029 -21.8621 11.4655 -21.8889L12.1667 44.7741C15.8654 44.7352 20.1966 44.1669 24.7396 42.5018L1.79736 -20.0929ZM11.8161 -21.8908H11.8108V44.7759H11.8161V-21.8908ZM11.8108 -21.8908H11.8091V44.7759H11.8108V-21.8908ZM11.3215 -21.8872L11.3078 -21.887L12.283 44.7725L12.2967 44.7723L11.3215 -21.8872ZM11.1117 -21.8835C10.9846 -21.8809 10.7352 -21.8753 10.4191 -21.8628L13.0508 44.7519C12.7887 44.7623 12.5801 44.767 12.479 44.7691L11.1117 -21.8835ZM10.3797 -21.8612C9.87935 -21.8408 9.24976 -21.8052 8.52268 -21.7399L14.4816 44.6599C13.9522 44.7074 13.4824 44.7344 13.0902 44.7503L10.3797 -21.8612ZM8.52849 -21.7405C7.16194 -21.6181 5.1487 -21.3654 2.794 -20.7866L18.7059 43.9533C16.9203 44.3921 15.4449 44.5736 14.4758 44.6604L8.52849 -21.7405ZM2.79397 -20.7866C0.132034 -20.1324 -12.8066 -16.8502 -20.0466 -3.20615L38.8427 28.0428C35.208 34.8923 30.0694 38.7344 26.7749 40.6633C23.4442 42.6134 20.4868 43.5156 18.706 43.9533L2.79397 -20.7866ZM-20.0459 -3.20758C-25.6768 7.40272 -24.3319 17.4519 -22.9651 22.5972L41.4671 5.48179C42.6073 9.77432 43.8655 18.5783 38.8419 28.0442L-20.0459 -3.20758ZM15.9851 46.6855C26.9631 44.421 36.1715 37.6767 41.7329 28.5505L-15.1959 -6.14164C-11.3833 -12.3981 -5.06252 -17.0431 2.51684 -18.6065L15.9851 46.6855Z" fill="#576A7A" mask="url(#path-1-inside-1_910_42242)"/>
</g>
<defs>
<clipPath id="clip0_910_42242">
<rect width="16" height="16" fill="white"/>
</clipPath>
</defs>
</svg>
