<svg width="24" height="25" viewBox="0 0 24 25" fill="none" xmlns="http://www.w3.org/2000/svg">
<path fill-rule="evenodd" clip-rule="evenodd" d="M9.4602 4.48382C9.23099 4.55644 9.00462 4.63897 8.78176 4.73128C7.76152 5.15388 6.83451 5.77328 6.05365 6.55414C5.2728 7.33499 4.65339 8.26201 4.23079 9.28225C3.89541 10.0919 3.68921 10.9477 3.61837 11.8184H7.69154C7.72063 10.8222 7.8134 9.84036 7.96757 8.90987C8.1566 7.76897 8.43589 6.71767 8.79543 5.8188C8.99172 5.32806 9.21351 4.87882 9.4602 4.48382ZM11.9998 2.72754C10.7164 2.72754 9.4456 2.98032 8.25991 3.47144C7.07423 3.96257 5.9969 4.68242 5.08941 5.5899C4.18193 6.49738 3.46208 7.57472 2.97096 8.7604C2.47983 9.94608 2.22705 11.2169 2.22705 12.5003C2.22705 13.7836 2.47983 15.0544 2.97095 16.2401C3.46208 17.4258 4.18193 18.5032 5.08941 19.4106C5.9969 20.3181 7.07423 21.038 8.25991 21.5291C9.4456 22.0202 10.7164 22.273 11.9998 22.273C13.2831 22.273 14.554 22.0202 15.7396 21.5291C16.9253 21.038 18.0027 20.3181 18.9101 19.4106C19.8176 18.5032 20.5375 17.4258 21.0286 16.2401C21.5197 15.0544 21.7725 13.7836 21.7725 12.5003C21.7725 11.2169 21.5197 9.94608 21.0286 8.7604C20.5375 7.57472 19.8176 6.49738 18.9101 5.5899C18.0027 4.68242 16.9253 3.96257 15.7396 3.47145C14.554 2.98032 13.2831 2.72754 11.9998 2.72754ZM11.9998 4.09118C11.7622 4.09118 11.4554 4.20553 11.0987 4.57499C10.7392 4.94718 10.3794 5.5305 10.0615 6.32524C9.74574 7.11471 9.48932 8.06776 9.31286 9.13277C9.17129 9.98726 9.08447 10.894 9.0558 11.8184H14.9438C14.9151 10.894 14.8282 9.98726 14.6867 9.13277C14.5102 8.06776 14.2538 7.11472 13.9381 6.32525C13.6201 5.5305 13.2603 4.94718 12.9009 4.57499C12.5441 4.20553 12.2373 4.09118 11.9998 4.09118ZM16.3081 11.8184C16.279 10.8222 16.1861 9.84036 16.032 8.90987C15.843 7.76897 15.5637 6.71767 15.2041 5.8188C15.0079 5.32806 14.7861 4.87882 14.5393 4.48382C14.7686 4.55644 14.995 4.63897 15.2178 4.73128C16.2381 5.15388 17.1651 5.77328 17.9459 6.55414C18.7268 7.335 19.3461 8.26201 19.7688 9.28225C20.1041 10.0919 20.3103 10.9477 20.3811 11.8184H16.3081ZM14.9438 13.1821H9.0558C9.08447 14.1065 9.17129 15.0133 9.31286 15.8677C9.48932 16.9328 9.74574 17.8858 10.0615 18.6753C10.3794 19.47 10.7392 20.0534 11.0987 20.4255C11.4554 20.795 11.7622 20.9094 11.9998 20.9094C12.2373 20.9094 12.5441 20.795 12.9009 20.4255C13.2603 20.0534 13.6201 19.47 13.9381 18.6753C14.2538 17.8858 14.5102 16.9328 14.6867 15.8677C14.8282 15.0133 14.9151 14.1065 14.9438 13.1821ZM14.5393 20.5167C14.7861 20.1217 15.0079 19.6724 15.2041 19.1817C15.5637 18.2829 15.843 17.2315 16.032 16.0906C16.1861 15.1602 16.279 14.1784 16.3081 13.1821H20.3811C20.3103 14.0528 20.1041 14.9086 19.7688 15.7183C19.3461 16.7385 18.7268 17.6655 17.9459 18.4464C17.1651 19.2273 16.2381 19.8466 15.2178 20.2693C14.995 20.3615 14.7686 20.4441 14.5393 20.5167ZM9.4602 20.5167C9.21351 20.1217 8.99172 19.6724 8.79542 19.1817C8.43588 18.2829 8.1566 17.2315 7.96757 16.0906C7.8134 15.1602 7.72063 14.1784 7.69154 13.1821H3.61837C3.68921 14.0528 3.89541 14.9086 4.23079 15.7183C4.65339 16.7385 5.2728 17.6655 6.05365 18.4464C6.83451 19.2273 7.76152 19.8466 8.78176 20.2693C9.00462 20.3615 9.23099 20.4441 9.4602 20.5167Z" fill="#7C878E"/>
</svg>
