<svg width="15" height="16" viewBox="0 0 15 16" fill="none" xmlns="http://www.w3.org/2000/svg">
<path fill-rule="evenodd" clip-rule="evenodd" d="M12.5725 3.78094C12.8039 3.55038 12.8098 3.17053 12.5856 2.93252C12.3615 2.69452 11.9922 2.68849 11.7608 2.91906L7.5015 7.16313L3.28094 2.92745C3.05038 2.69606 2.67053 2.6902 2.43252 2.91436C2.19452 3.13852 2.18849 3.50782 2.41906 3.73922L6.66313 7.9985L2.42745 12.2191C2.19606 12.4496 2.1902 12.8295 2.41436 13.0675C2.63852 13.3055 3.00782 13.3115 3.23921 13.0809L7.4985 8.83687L11.7191 13.0725C11.9496 13.3039 12.3295 13.3098 12.5675 13.0856C12.8055 12.8615 12.8115 12.4922 12.5809 12.2608L8.33687 8.0015L12.5725 3.78094Z" fill="#1B2746"/>
</svg>
