<svg width="20" height="20" viewBox="0 0 20 20" fill="none" xmlns="http://www.w3.org/2000/svg">
<rect x="0.5" y="0.5" width="19" height="19" rx="9.5" fill="#0696D6"/>
<path fill-rule="evenodd" clip-rule="evenodd" d="M13.2626 6.45347C13.4255 6.29119 13.6454 6.19986 13.8747 6.19922C14.1041 6.19859 14.3244 6.2887 14.4882 6.45007C14.652 6.61144 14.746 6.83111 14.7499 7.06159C14.7538 7.29206 14.6673 7.51483 14.5091 7.68172L9.86308 13.5188C9.78323 13.6053 9.68686 13.6746 9.57973 13.7228C9.47259 13.7709 9.3569 13.7969 9.23956 13.7991C9.12222 13.8013 9.00565 13.7796 8.89682 13.7355C8.78799 13.6914 8.68912 13.6256 8.60614 13.5422L5.52782 10.447C5.44206 10.3667 5.37327 10.2699 5.32556 10.1622C5.27786 10.0546 5.2522 9.93845 5.25014 9.82065C5.24807 9.70285 5.26963 9.58584 5.31353 9.4766C5.35743 9.36736 5.42277 9.26812 5.50566 9.18481C5.58855 9.1015 5.68728 9.03583 5.79596 8.9917C5.90465 8.94758 6.02107 8.92591 6.13827 8.92799C6.25547 8.93007 6.37106 8.95585 6.47813 9.0038C6.5852 9.05175 6.68156 9.12089 6.76147 9.20708L9.19853 11.6554L13.2405 6.4792C13.2477 6.47014 13.2555 6.46154 13.2638 6.45347H13.2626Z" fill="white"/>
</svg>
