<svg width="20" height="20" viewBox="0 0 20 20" fill="none" xmlns="http://www.w3.org/2000/svg">
<rect x="1" y="1" width="18" height="18" rx="4.5" stroke="white"/>
<path fill-rule="evenodd" clip-rule="evenodd" d="M13.2626 6.4542C13.4255 6.29192 13.6454 6.20059 13.8747 6.19995C14.1041 6.19932 14.3244 6.28943 14.4882 6.4508C14.652 6.61217 14.746 6.83184 14.7499 7.06232C14.7538 7.2928 14.6673 7.51556 14.5091 7.68245L9.86308 13.5196C9.78323 13.606 9.68686 13.6754 9.57973 13.7235C9.47259 13.7717 9.3569 13.7976 9.23956 13.7998C9.12222 13.802 9.00565 13.7804 8.89682 13.7362C8.78799 13.6921 8.68912 13.6264 8.60614 13.5429L5.52782 10.4478C5.44206 10.3674 5.37327 10.2706 5.32556 10.163C5.27786 10.0554 5.2522 9.93918 5.25014 9.82138C5.24807 9.70358 5.26963 9.58657 5.31353 9.47733C5.35743 9.36809 5.42277 9.26885 5.50566 9.18555C5.58855 9.10224 5.68728 9.03656 5.79596 8.99244C5.90465 8.94831 6.02107 8.92664 6.13827 8.92872C6.25547 8.9308 6.37106 8.95658 6.47813 9.00453C6.5852 9.05248 6.68156 9.12162 6.76147 9.20782L9.19853 11.6561L13.2405 6.47993C13.2477 6.47087 13.2555 6.46228 13.2638 6.4542H13.2626Z" fill="white"/>
</svg>
