<svg width="22" height="22" viewBox="0 0 22 22" fill="none" xmlns="http://www.w3.org/2000/svg">
<rect width="22" height="22" rx="4" fill="#0696D6"/>
<path fill-rule="evenodd" clip-rule="evenodd" d="M8.31154 11.9723C8.40171 11.9241 8.48063 11.8756 8.50087 11.8548C8.51072 11.8447 8.52284 11.8324 8.53552 11.8302C8.63166 11.8129 8.72822 11.7978 8.82525 11.782C8.85764 11.995 8.97898 12.1494 9.10263 12.3008C9.32303 12.5706 9.57449 12.8106 9.83866 13.0359C10.1125 13.2695 10.3948 13.4931 10.6736 13.7209C10.6873 13.732 10.7024 13.7416 10.7217 13.7553C10.8301 13.6708 10.942 13.5889 11.048 13.5C11.2968 13.2916 11.5472 13.0847 11.7886 12.8679C12.0299 12.651 12.2593 12.421 12.449 12.1555C12.527 12.0463 12.5966 11.9314 12.6127 11.7836C12.7003 11.7966 12.7857 11.8093 12.8711 11.8222C12.8759 11.8229 12.8805 11.8257 12.8852 11.8257C13.0059 11.8253 13.9908 12.2523 14.1572 12.3724C14.3438 12.5071 14.5128 12.6621 14.6638 12.8356C14.8946 13.1006 15.0775 13.3957 15.2102 13.7229C15.3783 14.1372 15.4527 14.5672 15.4374 15.0132C15.4282 15.2841 15.3829 15.5472 15.257 15.7915C15.1487 16.0013 14.9918 16.1641 14.7902 16.284C14.5449 16.43 14.2747 16.5023 13.9961 16.546C13.6927 16.5937 13.3871 16.6154 13.0798 16.616C11.8251 16.6182 10.5704 16.6221 9.31576 16.6235C8.94288 16.6239 8.5698 16.6235 8.19712 16.6134C7.82908 16.6034 7.46218 16.5729 7.10525 16.4734C6.80009 16.3883 6.52315 16.253 6.31818 15.9995C6.16844 15.8143 6.08009 15.6002 6.04136 15.367C5.94061 14.7604 6.02598 14.1773 6.27501 13.6175C6.47861 13.1598 6.7786 12.7758 7.16651 12.4614C7.32299 12.3346 7.63935 12.1992 7.83247 12.1231C7.9287 12.0852 8.14639 12.0606 8.31154 11.9723Z" fill="white"/>
<path fill-rule="evenodd" clip-rule="evenodd" d="M8.27612 8.64565C8.27972 8.17157 8.36403 7.78346 8.54191 7.4159C8.69544 7.09858 8.90325 6.8232 9.16859 6.59315C9.53263 6.27753 9.95227 6.0808 10.4312 6.01934C10.8435 5.9664 11.2417 6.02206 11.6237 6.18717C12.1533 6.41605 12.5542 6.78907 12.8348 7.29198C13.0043 7.59577 13.1048 7.92275 13.1456 8.26955C13.176 8.52789 13.155 8.78336 13.1297 9.04008C13.0873 9.47055 13.0004 9.89052 12.8447 10.2943C12.6545 10.7881 12.3878 11.2327 11.9913 11.5895C11.6932 11.8578 11.3519 12.0407 10.9513 12.0981C10.7149 12.1319 10.481 12.1143 10.2517 12.0473C9.83125 11.9244 9.4952 11.674 9.21111 11.3467C8.92033 11.0117 8.71281 10.6279 8.56493 10.2114C8.42303 9.81188 8.33593 9.3999 8.30653 8.97599C8.29732 8.84368 8.2823 8.71177 8.27612 8.64565Z" fill="white"/>
</svg>
