<svg width="16" height="16" viewBox="0 0 16 16" fill="none" xmlns="http://www.w3.org/2000/svg">
<g clip-path="url(#clip0_96:13253)">
<path fill-rule="evenodd" clip-rule="evenodd" d="M3.99936 5.18283C3.2522 5.18283 2.53563 5.47964 2.0073 6.00797C1.47897 6.5363 1.18216 7.25287 1.18216 8.00004C1.18216 8.74721 1.47897 9.46377 2.0073 9.9921C2.2689 10.2537 2.57947 10.4612 2.92127 10.6028C3.26307 10.7444 3.6294 10.8172 3.99936 10.8172H5.99936C6.28441 10.8172 6.51549 11.0483 6.51549 11.3334C6.51549 11.6184 6.28441 11.8495 5.99936 11.8495H3.99936C3.49385 11.8495 2.99328 11.7499 2.52624 11.5565C2.0592 11.363 1.63484 11.0795 1.27738 10.722C0.555469 10.0001 0.149902 9.02098 0.149902 8.00004C0.149902 6.9791 0.555469 5.99997 1.27738 5.27806C1.9993 4.55614 2.97842 4.15057 3.99936 4.15057H5.99936C6.28441 4.15057 6.51549 4.38165 6.51549 4.6667C6.51549 4.95175 6.28441 5.18283 5.99936 5.18283H3.99936ZM9.48323 4.6667C9.48323 4.38165 9.71431 4.15057 9.99936 4.15057H11.9994C12.5049 4.15057 13.0055 4.25014 13.4725 4.4436C13.9395 4.63705 14.3639 4.9206 14.7213 5.27806C15.0788 5.63551 15.3623 6.05987 15.5558 6.52691C15.7493 6.99395 15.8488 7.49452 15.8488 8.00004C15.8488 8.50556 15.7493 9.00612 15.5558 9.47316C15.3623 9.9402 15.0788 10.3646 14.7213 10.722C14.3639 11.0795 13.9395 11.363 13.4725 11.5565C13.0055 11.7499 12.5049 11.8495 11.9994 11.8495H9.99936C9.71431 11.8495 9.48323 11.6184 9.48323 11.3334C9.48323 11.0483 9.71431 10.8172 9.99936 10.8172H11.9994C12.3693 10.8172 12.7357 10.7444 13.0775 10.6028C13.4193 10.4612 13.7298 10.2537 13.9914 9.9921C14.253 9.7305 14.4605 9.41993 14.6021 9.07813C14.7437 8.73634 14.8166 8.37 14.8166 8.00004C14.8166 7.63008 14.7437 7.26374 14.6021 6.92194C14.4605 6.58014 14.253 6.26957 13.9914 6.00797C13.7298 5.74637 13.4193 5.53886 13.0775 5.39728C12.7357 5.2557 12.3693 5.18283 11.9994 5.18283H9.99936C9.71431 5.18283 9.48323 4.95175 9.48323 4.6667Z" fill="#0696D6"/>
<path fill-rule="evenodd" clip-rule="evenodd" d="M4.81689 8.00002C4.81689 7.71497 5.04797 7.48389 5.33302 7.48389H10.6664C10.9514 7.48389 11.1825 7.71497 11.1825 8.00002C11.1825 8.28507 10.9514 8.51615 10.6664 8.51615H5.33302C5.04797 8.51615 4.81689 8.28507 4.81689 8.00002Z" fill="#0696D6"/>
</g>
<defs>
<clipPath id="clip0_96:13253">
<rect width="16" height="16" fill="white" transform="translate(-0.000488281)"/>
</clipPath>
</defs>
</svg>
