<svg width="21" height="20" viewBox="0 0 21 20" fill="none" xmlns="http://www.w3.org/2000/svg">
<path fill-rule="evenodd" clip-rule="evenodd" d="M9.91675 8.25C9.91675 6.15 11.5667 4.5 13.6667 4.5C15.7667 4.5 17.4167 6.15 17.4167 8.25C17.4167 10.35 15.7667 12 13.6667 12C11.5667 12 9.91675 10.35 9.91675 8.25ZM20.4167 17.25V18.75C20.4167 19.2 20.1167 19.5 19.6667 19.5C19.2167 19.5 18.9167 19.2 18.9167 18.75V17.25C18.9167 15.975 17.9417 15 16.6667 15H10.6667C9.39175 15 8.41675 15.975 8.41675 17.25V18.75C8.41675 19.2 8.11675 19.5 7.66675 19.5C7.21675 19.5 6.91675 19.2 6.91675 18.75V17.25C6.91675 15.15 8.56675 13.5 10.6667 13.5H16.6667C18.7667 13.5 20.4167 15.15 20.4167 17.25ZM13.6667 10.5C12.3917 10.5 11.4167 9.525 11.4167 8.25C11.4167 6.975 12.3917 6 13.6667 6C14.9417 6 15.9167 6.975 15.9167 8.25C15.9167 9.525 14.9417 10.5 13.6667 10.5Z" fill="#28C76F"/>
<path fill-rule="evenodd" clip-rule="evenodd" d="M3.66675 4.25C3.66675 2.15 5.31675 0.5 7.41675 0.5C9.51675 0.5 11.1667 2.15 11.1667 4.25C11.1667 6.35 9.51675 8 7.41675 8C5.31675 8 3.66675 6.35 3.66675 4.25ZM10.4167 11V9.5H4.41675C2.31675 9.5 0.666748 11.15 0.666748 13.25V14.75C0.666748 15.2 0.966748 15.5 1.41675 15.5C1.86675 15.5 2.16675 15.2 2.16675 14.75V13.25C2.16675 11.975 3.14175 11 4.41675 11H10.4167ZM7.41675 6.5C6.14175 6.5 5.16675 5.525 5.16675 4.25C5.16675 2.975 6.14175 2 7.41675 2C8.69175 2 9.66675 2.975 9.66675 4.25C9.66675 5.525 8.69175 6.5 7.41675 6.5Z" fill="#28C76F"/>
</svg>
