<svg width="15" height="16" viewBox="0 0 15 16" fill="none" xmlns="http://www.w3.org/2000/svg">
<path d="M10.1555 10.5484C10.1385 10.5108 10.1171 10.4754 10.0919 10.4428C10.0802 10.4196 10.0668 10.3974 10.0517 10.3762C10.049 10.3732 10.0451 10.3723 10.0423 10.3694C10.011 10.3402 9.97634 10.3148 9.93902 10.2938C9.91661 10.2761 9.8929 10.2601 9.86808 10.246C9.84178 10.2375 9.8149 10.2311 9.78765 10.2266C9.7461 10.2128 9.70303 10.2041 9.65939 10.2007C9.65552 10.2006 9.65229 10.1985 9.64839 10.1985H4.70709C4.12737 10.1995 3.56304 10.012 3.09931 9.66407C2.63558 9.31618 2.29763 8.82685 2.1365 8.26997C1.97536 7.71309 1.99979 7.11891 2.2061 6.57714C2.4124 6.03536 2.78937 5.57543 3.28009 5.26677C3.4027 5.18938 3.48954 5.06645 3.5215 4.92503C3.55347 4.78361 3.52795 4.63528 3.45056 4.51268C3.37317 4.39008 3.25024 4.30324 3.10882 4.27127C2.9674 4.2393 2.81907 4.26482 2.69647 4.34221C2.00523 4.77734 1.47427 5.42549 1.18372 6.18886C0.893165 6.95223 0.85879 7.78939 1.08578 8.57401C1.31277 9.35863 1.7888 10.0481 2.44204 10.5385C3.09529 11.0288 3.89029 11.2933 4.70708 11.2922H6.52352V13.1054C6.52677 13.1322 6.5321 13.1586 6.53945 13.1845C6.54192 13.2668 6.57284 13.3458 6.62695 13.4079C6.6386 13.4311 6.65202 13.4534 6.66709 13.4746C6.66971 13.4775 6.67357 13.4783 6.67627 13.4811C6.7209 13.5266 6.77321 13.564 6.8308 13.5913C6.83969 13.5957 6.84653 13.6043 6.85561 13.6081C6.92348 13.6372 6.99656 13.6523 7.07042 13.6523H7.07063C7.14037 13.6518 7.20935 13.6378 7.27384 13.6113C7.30157 13.5974 7.32802 13.581 7.35288 13.5624C7.38354 13.5474 7.41264 13.5295 7.43977 13.5088L10.0178 11.1487C10.0208 11.1459 10.0218 11.1418 10.0248 11.139C10.0535 11.108 10.0785 11.0737 10.0993 11.0369C10.1172 11.0143 10.1334 10.9903 10.1476 10.9652C10.1567 10.9375 10.1635 10.9091 10.168 10.8803C10.181 10.8404 10.1894 10.7991 10.1929 10.7572C10.193 10.753 10.1953 10.7495 10.1953 10.7453C10.192 10.7187 10.1867 10.6923 10.1793 10.6664C10.1759 10.6263 10.1679 10.5867 10.1555 10.5484Z" fill="white"/>
<path d="M10.2929 3.76244H8.47643V1.94922C8.47318 1.92253 8.46785 1.89614 8.46049 1.87028C8.45706 1.83017 8.44907 1.79057 8.43669 1.75226C8.41964 1.71473 8.39829 1.67932 8.37306 1.64673C8.36138 1.62352 8.34794 1.60124 8.33287 1.58008C8.33015 1.57709 8.32625 1.57614 8.32347 1.57324C8.29228 1.54423 8.25778 1.519 8.22069 1.49805C8.19819 1.48018 8.17431 1.46411 8.14929 1.44998C8.12248 1.44124 8.09502 1.4346 8.06718 1.43012C8.02632 1.41663 7.98399 1.40809 7.94109 1.40469C7.93702 1.40459 7.93364 1.40234 7.92955 1.40234C7.90352 1.40553 7.87777 1.41075 7.85255 1.41794C7.81174 1.42126 7.77145 1.42937 7.73252 1.44208C7.69556 1.45894 7.66064 1.47998 7.62846 1.50478C7.6047 1.51672 7.58188 1.53047 7.56021 1.5459L6.4942 2.52183C6.47545 2.53677 6.45774 2.55297 6.44119 2.57033L4.98221 3.90601C4.97914 3.90878 4.97815 3.91284 4.97515 3.91563C4.94651 3.9466 4.92157 3.9808 4.90084 4.01753C4.88283 4.04023 4.86661 4.0643 4.85235 4.08952C4.84336 4.11714 4.83654 4.14543 4.83197 4.17412C4.81896 4.21415 4.81061 4.25555 4.80709 4.29749C4.80698 4.30166 4.80469 4.30508 4.80469 4.30935C4.80794 4.33607 4.81327 4.3625 4.82063 4.38839C4.82406 4.42844 4.83204 4.46796 4.84442 4.5062C4.86146 4.54377 4.88283 4.57923 4.9081 4.61184C4.91976 4.63505 4.93317 4.65733 4.94824 4.67849C4.95086 4.68137 4.95473 4.68223 4.95743 4.685C5.00205 4.73055 5.05436 4.76787 5.11196 4.79525C5.12085 4.79963 5.12771 4.80817 5.13676 4.81202C5.20463 4.84116 5.27771 4.8562 5.35157 4.85624H10.2929C10.8726 4.85518 11.4369 5.04275 11.9006 5.39065C12.3643 5.73854 12.7022 6.22786 12.8634 6.78472C13.0245 7.34159 13.0001 7.93576 12.7938 8.47752C12.5875 9.01928 12.2106 9.47922 11.7199 9.78788C11.6591 9.8262 11.6066 9.87611 11.5652 9.93474C11.5237 9.99338 11.4943 10.0596 11.4784 10.1296C11.4626 10.1996 11.4607 10.2721 11.4729 10.3429C11.4851 10.4136 11.5111 10.4813 11.5494 10.542C11.5877 10.6027 11.6376 10.6552 11.6962 10.6967C11.7549 10.7381 11.8211 10.7676 11.8911 10.7834C11.9612 10.7992 12.0336 10.8011 12.1044 10.7889C12.1751 10.7767 12.2428 10.7508 12.3035 10.7124C12.9947 10.2773 13.5257 9.62916 13.8162 8.86579C14.1068 8.10242 14.1412 7.26526 13.9142 6.48064C13.6872 5.69602 13.2111 5.00652 12.5579 4.51619C11.9047 4.02586 11.1097 3.7613 10.2929 3.76245L10.2929 3.76244Z" fill="white"/>
</svg>
