<svg width="20" height="20" viewBox="0 0 20 20" fill="none" xmlns="http://www.w3.org/2000/svg">
<g clip-path="url(#clip0_20687_15224)">
<path d="M9.94954 0.570068H10.0502C12.0752 0.57006 13.662 0.570051 14.9002 0.736516C16.1674 0.906902 17.1675 1.26246 17.9524 2.04738C18.7374 2.83231 19.0929 3.83232 19.2633 5.09964C19.4297 6.33778 19.4297 7.92466 19.4297 9.94954V9.99989H19.4202C19.4297 10.5077 19.4297 11.0788 19.4297 11.7248V11.7838C19.4297 12.987 19.4297 13.9303 19.3678 14.6886C19.3047 15.4606 19.1741 16.0984 18.88 16.6757C18.3964 17.6248 17.6248 18.3964 16.6757 18.88C16.0984 19.1741 15.4606 19.3047 14.6886 19.3678C13.9303 19.4297 12.987 19.4297 11.7838 19.4297H8.21605C7.0128 19.4297 6.06944 19.4297 5.31124 19.3678C4.53919 19.3047 3.90138 19.1741 3.32406 18.88C2.375 18.3964 1.60338 17.6248 1.11981 16.6757C0.825665 16.0984 0.695086 15.4606 0.632007 14.6886C0.57006 13.9303 0.570068 12.987 0.570068 11.7838V11.7248C0.570068 11.0788 0.570069 10.5077 0.579647 9.99989H0.570068V9.94954C0.57006 7.92466 0.570051 6.33778 0.736516 5.09964C0.906902 3.83232 1.26246 2.83231 2.04738 2.04738C2.83231 1.26246 3.83232 0.906902 5.09964 0.736516C6.33778 0.570051 7.92466 0.57006 9.94954 0.570068ZM2.00162 5.60251C2.38394 5.21019 2.82995 4.88035 3.32406 4.62859C3.90138 4.33444 4.53919 4.20386 5.31124 4.14078C6.06945 4.07883 7.01281 4.07884 8.21608 4.07884H11.7838C12.987 4.07884 13.9303 4.07883 14.6886 4.14078C15.4606 4.20386 16.0984 4.33444 16.6757 4.62859C17.1698 4.88035 17.6159 5.2102 17.9981 5.60251C17.9864 5.4901 17.9735 5.38099 17.9592 5.27496C17.8085 4.15355 17.5217 3.47748 17.022 2.97779C16.5223 2.47809 15.8462 2.19134 14.7248 2.04057C13.5845 1.88725 12.086 1.88586 9.99989 1.88586C7.91373 1.88586 6.4153 1.88725 5.27496 2.04057C4.15355 2.19134 3.47748 2.47809 2.97779 2.97779C2.47809 3.47748 2.19134 4.15355 2.04057 5.27496C2.02631 5.38098 2.01338 5.4901 2.00162 5.60251ZM5.41838 5.4522C4.7277 5.50863 4.28232 5.61708 3.92142 5.80096C3.21994 6.15839 2.64961 6.72871 2.29219 7.43019C2.10831 7.7911 1.99986 8.23647 1.94343 8.92717C1.88637 9.62551 1.88586 10.5152 1.88586 11.7543C1.88586 12.9933 1.88637 13.8831 1.94343 14.5814C1.99986 15.2721 2.10831 15.7174 2.29219 16.0784C2.64961 16.7798 3.21994 17.3502 3.92142 17.7076C4.28232 17.8915 4.7277 17.9999 5.41838 18.0564C6.11675 18.1134 7.00646 18.1139 8.24551 18.1139H11.7543C12.9933 18.1139 13.8831 18.1134 14.5814 18.0564C15.2721 17.9999 15.7174 17.8915 16.0784 17.7076C16.7798 17.3502 17.3502 16.7798 17.7076 16.0784C17.8915 15.7174 17.9999 15.2721 18.0564 14.5814C18.1134 13.8831 18.1139 12.9933 18.1139 11.7543C18.1139 10.5152 18.1134 9.62551 18.0564 8.92717C17.9999 8.23647 17.8915 7.7911 17.7076 7.43019C17.3502 6.72871 16.7798 6.15838 16.0784 5.80096C15.7174 5.61708 15.2721 5.50863 14.5814 5.4522C13.8831 5.39514 12.9933 5.39463 11.7543 5.39463H8.24551C7.00646 5.39463 6.11675 5.39514 5.41838 5.4522ZM12.631 9.5091C12.9021 9.75112 12.9256 10.167 12.6837 10.4381L9.55077 13.9468C9.42595 14.0866 9.24744 14.1666 9.06007 14.1666C8.87261 14.1666 8.6941 14.0866 8.56928 13.9468L7.31616 12.5433C7.07416 12.2723 7.09771 11.8564 7.36874 11.6144C7.63978 11.3724 8.05567 11.3959 8.2977 11.667L9.06007 12.5209L11.7021 9.56174C11.9441 9.29068 12.36 9.26717 12.631 9.5091Z" fill="#1B2746"/>
</g>
<defs>
<clipPath id="clip0_20687_15224">
<rect width="20" height="20" fill="white"/>
</clipPath>
</defs>
</svg>
