<svg width="13" height="13" viewBox="0 0 13 13" fill="none" xmlns="http://www.w3.org/2000/svg">
<path d="M11.375 10.1562H10.1562C10.0485 10.1562 9.94517 10.1134 9.86899 10.0373C9.7928 9.96108 9.75 9.85774 9.75 9.75C9.75 9.64226 9.7928 9.53892 9.86899 9.46274C9.94517 9.38655 10.0485 9.34375 10.1562 9.34375H11.375C11.4827 9.34375 11.5861 9.30095 11.6623 9.22476C11.7384 9.14858 11.7812 9.04524 11.7812 8.9375V4.0625C11.7812 3.95476 11.7384 3.85142 11.6623 3.77524C11.5861 3.69905 11.4827 3.65625 11.375 3.65625H1.625C1.51726 3.65625 1.41392 3.69905 1.33774 3.77524C1.26155 3.85142 1.21875 3.95476 1.21875 4.0625V8.9375C1.21875 9.04524 1.26155 9.14858 1.33774 9.22476C1.41392 9.30095 1.51726 9.34375 1.625 9.34375H2.84375C2.95149 9.34375 3.05483 9.38655 3.13101 9.46274C3.2072 9.53892 3.25 9.64226 3.25 9.75C3.25 9.85774 3.2072 9.96108 3.13101 10.0373C3.05483 10.1134 2.95149 10.1562 2.84375 10.1562H1.625C1.30177 10.1562 0.991774 10.0278 0.763214 9.79929C0.534654 9.57073 0.40625 9.26073 0.40625 8.9375V4.0625C0.40625 3.73927 0.534654 3.42927 0.763214 3.20071C0.991774 2.97215 1.30177 2.84375 1.625 2.84375H11.375C11.6982 2.84375 12.0082 2.97215 12.2368 3.20071C12.4653 3.42927 12.5938 3.73927 12.5938 4.0625V8.9375C12.5938 9.26073 12.4653 9.57073 12.2368 9.79929C12.0082 10.0278 11.6982 10.1562 11.375 10.1562Z" fill="#101820"/>
<path d="M10.1562 12.5938H2.84375C2.73601 12.5938 2.63267 12.5509 2.55649 12.4748C2.4803 12.3986 2.4375 12.2952 2.4375 12.1875V8.125C2.4375 8.01726 2.4803 7.91392 2.55649 7.83774C2.63267 7.76155 2.73601 7.71875 2.84375 7.71875H10.1562C10.264 7.71875 10.3673 7.76155 10.4435 7.83774C10.5197 7.91392 10.5625 8.01726 10.5625 8.125V12.1875C10.5625 12.2952 10.5197 12.3986 10.4435 12.4748C10.3673 12.5509 10.264 12.5938 10.1562 12.5938ZM3.25 11.7812H9.75V8.53125H3.25V11.7812Z" fill="#101820"/>
<path d="M10.1562 3.65625C10.0485 3.65625 9.94517 3.61345 9.86899 3.53726C9.7928 3.46108 9.75 3.35774 9.75 3.25V1.21875H3.25V3.25C3.25 3.35774 3.2072 3.46108 3.13101 3.53726C3.05483 3.61345 2.95149 3.65625 2.84375 3.65625C2.73601 3.65625 2.63267 3.61345 2.55649 3.53726C2.4803 3.46108 2.4375 3.35774 2.4375 3.25V0.8125C2.4375 0.704756 2.4803 0.601425 2.55649 0.525238C2.63267 0.449051 2.73601 0.40625 2.84375 0.40625H10.1562C10.264 0.40625 10.3673 0.449051 10.4435 0.525238C10.5197 0.601425 10.5625 0.704756 10.5625 0.8125V3.25C10.5625 3.35774 10.5197 3.46108 10.4435 3.53726C10.3673 3.61345 10.264 3.65625 10.1562 3.65625Z" fill="#101820"/>
<path d="M10.5625 4.46875H9.75V5.28125H10.5625V4.46875Z" fill="#101820"/>
<path d="M8.9375 4.46875H7.3125V5.28125H8.9375V4.46875Z" fill="#101820"/>
</svg>
