<svg width="24" height="25" viewBox="0 0 24 25" fill="none" xmlns="http://www.w3.org/2000/svg">
<path fill-rule="evenodd" clip-rule="evenodd" d="M18.2892 5.75646C17.2615 5.61829 15.9068 5.6167 14 5.6167H10C8.09318 5.6167 6.73851 5.61829 5.71085 5.75646C4.70476 5.89173 4.12511 6.14539 3.7019 6.5686C3.27869 6.99181 3.02502 7.57146 2.88976 8.57755C2.75159 9.60521 2.75 10.9599 2.75 12.8667C2.75 14.7735 2.75159 16.1282 2.88976 17.1559C3.02502 18.1619 3.27869 18.7416 3.7019 19.1648C4.12511 19.588 4.70476 19.8417 5.71085 19.9769C6.73851 20.1151 8.09318 20.1167 10 20.1167H14C15.9068 20.1167 17.2615 20.1151 18.2892 19.9769C19.2952 19.8417 19.8749 19.588 20.2981 19.1648C20.7213 18.7416 20.975 18.1619 21.1102 17.1559C21.2484 16.1282 21.25 14.7735 21.25 12.8667C21.25 10.9599 21.2484 9.60521 21.1102 8.57755C20.975 7.57146 20.7213 6.99181 20.2981 6.5686C19.8749 6.14539 19.2952 5.89172 18.2892 5.75646ZM18.489 4.26984C19.6614 4.42746 20.6104 4.75958 21.3588 5.50794C22.1071 6.25631 22.4392 7.20526 22.5969 8.37768C22.75 9.51689 22.75 10.9725 22.75 12.8103V12.9231C22.75 14.7609 22.75 16.2165 22.5969 17.3557C22.4392 18.5281 22.1071 19.4771 21.3588 20.2255C20.6104 20.9738 19.6614 21.3059 18.489 21.4636C17.3498 21.6167 15.8942 21.6167 14.0564 21.6167H9.94359C8.10583 21.6167 6.65019 21.6167 5.51098 21.4636C4.33856 21.3059 3.38961 20.9738 2.64124 20.2255C1.89288 19.4771 1.56076 18.5281 1.40314 17.3557C1.24997 16.2165 1.24998 14.7609 1.25 12.9231V12.8103C1.24998 10.9725 1.24997 9.51689 1.40314 8.37768C1.56076 7.20526 1.89288 6.25631 2.64124 5.50794C3.38961 4.75958 4.33856 4.42746 5.51098 4.26984C6.65019 4.11667 8.10583 4.11668 9.94359 4.1167H14.0564C15.8942 4.11668 17.3498 4.11667 18.489 4.26984Z" fill="#7C878E"/>
</svg>
