<svg width="16" height="16" viewBox="0 0 16 16" fill="none" xmlns="http://www.w3.org/2000/svg">
<path fill-rule="evenodd" clip-rule="evenodd" d="M12.8224 3.57639V3.57644V3.57646C12.8219 3.88899 12.8214 4.19411 12.8238 4.49923C12.8256 4.72477 12.9918 4.90913 13.2027 4.93272C13.4309 4.95826 13.6325 4.82163 13.6867 4.60119C13.6974 4.55757 13.699 4.5109 13.699 4.46563C13.6998 3.90429 13.7002 3.34291 13.6993 2.78156C13.6988 2.48226 13.5211 2.30223 13.2246 2.3016C12.6633 2.30045 12.1019 2.30058 11.5406 2.30157C11.2602 2.30206 11.0663 2.48165 11.0656 2.73797C11.0648 2.99508 11.2583 3.17697 11.5373 3.17779C11.8327 3.17863 12.1281 3.17844 12.4287 3.17825H12.4287H12.4287H12.4287L12.8228 3.17809C12.8228 3.3125 12.8226 3.44505 12.8224 3.57629V3.57634V3.57639ZM11.3396 9.96933C10.3603 10.7298 9.23906 11.0606 8.0092 11.0912C7.90474 11.0805 7.79991 11.0717 7.69509 11.063H7.69508C7.46782 11.0441 7.24055 11.0252 7.01691 10.9855C5.32355 10.6857 4.08571 9.75028 3.2532 8.25808C3.1551 8.08219 3.16105 7.91638 3.2546 7.73885C3.56508 7.1495 3.97213 6.63446 4.47966 6.20823C6.00612 4.92635 7.75412 4.64439 9.63386 5.17245C11.0445 5.56873 12.0647 6.48567 12.7576 7.76894C12.8931 8.01985 12.8058 8.28551 12.5707 8.39706C12.3353 8.5088 12.0918 8.4026 11.9671 8.14138C11.5887 7.34851 11.0067 6.7431 10.2329 6.33641C9.10567 5.74391 7.91127 5.67159 6.69258 5.97016C5.59427 6.23924 4.75006 6.86674 4.18112 7.85388C4.11887 7.96187 4.12032 8.04344 4.18266 8.15184C4.42924 8.58073 4.73916 8.95397 5.12508 9.26268C5.83664 9.83189 6.6585 10.109 7.55932 10.1753C8.74836 10.2627 9.84571 10.0213 10.8053 9.27761C10.8614 9.23415 10.9297 9.19749 10.998 9.1805C11.2048 9.12912 11.4096 9.23423 11.4961 9.42462C11.5846 9.61939 11.5242 9.82602 11.3396 9.96933ZM7.99376 9.74879C7.04114 9.7461 6.24883 8.94962 6.25206 7.99799C6.25532 7.04269 7.04561 6.25348 7.99945 6.25293C8.95788 6.25238 9.75441 7.05305 9.74795 8.01049C9.74148 8.96513 8.94799 9.75147 7.99376 9.74879ZM7.99614 7.13011C7.51516 7.13249 7.12707 7.52397 7.1291 8.00473C7.13113 8.48497 7.52516 8.8755 8.00389 8.87172C8.48616 8.86791 8.87392 8.47659 8.87074 7.9969C8.86756 7.51488 8.4769 7.12769 7.99614 7.13011ZM3.55968 3.17821L3.17723 3.17817L3.17736 3.56926C3.17752 3.87077 3.17768 4.1671 3.17695 4.46344C3.17624 4.74203 2.99427 4.93595 2.73721 4.93532C2.48062 4.93472 2.30109 4.74107 2.30057 4.46056C2.29958 3.90376 2.29977 3.34693 2.30049 2.79014C2.30087 2.47485 2.47586 2.30184 2.79404 2.30148C3.3041 2.30094 3.81421 2.30115 4.32428 2.30136L4.42339 2.3014C4.73867 2.30151 4.93597 2.47244 4.93429 2.74336C4.9327 3.00814 4.73618 3.17784 4.42994 3.17809C4.14226 3.1783 3.85461 3.17825 3.55968 3.17821ZM12.8226 12.8233L12.4351 12.8233C12.1372 12.8232 11.8467 12.8232 11.5561 12.8235C11.2633 12.8237 11.0671 12.998 11.0655 13.2583C11.0639 13.5206 11.2586 13.6997 11.5489 13.7C12.1057 13.7007 12.6625 13.7009 13.2193 13.6999C13.5186 13.6994 13.6985 13.5218 13.6991 13.2253C13.7003 12.6639 13.7002 12.1025 13.6992 11.5412C13.6987 11.261 13.5186 11.0668 13.2625 11.0662C13.0054 11.0657 12.8237 11.2591 12.8229 11.5382C12.8221 11.834 12.8223 12.1299 12.8225 12.4308V12.4309L12.8226 12.8233ZM3.17746 12.4254C3.17725 12.5566 3.17704 12.6891 3.17704 12.8234C3.30819 12.8234 3.4379 12.8234 3.56662 12.8233C3.86924 12.8231 4.16632 12.8229 4.46338 12.8238C4.74222 12.8247 4.93521 13.007 4.9343 13.2643C4.9334 13.52 4.7389 13.6995 4.45853 13.7C3.89721 13.701 3.33583 13.7011 2.77451 13.6999C2.47806 13.6993 2.30107 13.5195 2.30058 13.2195C2.29967 12.6627 2.3 12.1059 2.30085 11.5491C2.30093 11.4994 2.30208 11.448 2.31384 11.4C2.36793 11.1792 2.56944 11.0431 2.79767 11.0688C3.00833 11.0926 3.17433 11.2773 3.17606 11.5029C3.17843 11.808 3.17795 12.1131 3.17746 12.4254Z" fill="#B8BCCA"/>
</svg>
