<svg width="24" height="17" viewBox="0 0 24 17" fill="none" xmlns="http://www.w3.org/2000/svg">
<path fill-rule="evenodd" clip-rule="evenodd" d="M11.6948 14.4847C11.5143 14.6652 11.2218 14.6652 11.0414 14.4847L7.34535 10.7887C7.16492 10.6083 7.16492 10.3157 7.34535 10.1353C7.52577 9.95489 7.8183 9.95489 7.99872 10.1353L11.6948 13.8314C11.8752 14.0118 11.8752 14.3043 11.6948 14.4847Z" fill="#1B2746"/>
<path fill-rule="evenodd" clip-rule="evenodd" d="M15.4747 10.1353C15.6551 10.3157 15.6551 10.6083 15.4747 10.7887L11.7786 14.4847C11.5982 14.6652 11.3057 14.6652 11.1252 14.4847C10.9448 14.3043 10.9448 14.0118 11.1252 13.8314L14.8213 10.1353C15.0017 9.95489 15.2942 9.95489 15.4747 10.1353Z" fill="#1B2746"/>
<path fill-rule="evenodd" clip-rule="evenodd" d="M11.1252 2.51527C11.3057 2.33485 11.5982 2.33485 11.7786 2.51527L15.4747 6.21131C15.6551 6.39173 15.6551 6.68426 15.4747 6.86468C15.2942 7.04511 15.0017 7.04511 14.8213 6.86468L11.1252 3.16864C10.9448 2.98822 10.9448 2.69569 11.1252 2.51527Z" fill="#1B2746"/>
<path fill-rule="evenodd" clip-rule="evenodd" d="M7.34535 6.86468C7.16492 6.68426 7.16492 6.39173 7.34535 6.21131L11.0414 2.51527C11.2218 2.33485 11.5143 2.33485 11.6948 2.51527C11.8752 2.69569 11.8752 2.98822 11.6948 3.16864L7.99872 6.86468C7.8183 7.04511 7.52577 7.04511 7.34535 6.86468Z" fill="#1B2746"/>
</svg>
