<svg width="14" height="15" viewBox="0 0 14 15" fill="none" xmlns="http://www.w3.org/2000/svg">
<path fill-rule="evenodd" clip-rule="evenodd" d="M6.99992 8.66659C7.64425 8.66659 8.16659 8.14425 8.16659 7.49992C8.16659 6.85559 7.64425 6.33325 6.99992 6.33325C6.35559 6.33325 5.83325 6.85559 5.83325 7.49992C5.83325 8.14425 6.35559 8.66659 6.99992 8.66659Z" stroke="#422F8A" stroke-opacity="0.87" stroke-width="1.16667" stroke-linecap="round" stroke-linejoin="round"/>
<path fill-rule="evenodd" clip-rule="evenodd" d="M11.6667 8.66659C12.311 8.66659 12.8333 8.14425 12.8333 7.49992C12.8333 6.85559 12.311 6.33325 11.6667 6.33325C11.0223 6.33325 10.5 6.85559 10.5 7.49992C10.5 8.14425 11.0223 8.66659 11.6667 8.66659Z" stroke="#422F8A" stroke-opacity="0.87" stroke-width="1.16667" stroke-linecap="round" stroke-linejoin="round"/>
<path fill-rule="evenodd" clip-rule="evenodd" d="M2.33341 8.66659C2.97775 8.66659 3.50008 8.14425 3.50008 7.49992C3.50008 6.85559 2.97775 6.33325 2.33341 6.33325C1.68908 6.33325 1.16675 6.85559 1.16675 7.49992C1.16675 8.14425 1.68908 8.66659 2.33341 8.66659Z" stroke="#422F8A" stroke-opacity="0.87" stroke-width="1.16667" stroke-linecap="round" stroke-linejoin="round"/>
</svg>
