<svg width="15" height="15" viewBox="0 0 15 15" fill="none" xmlns="http://www.w3.org/2000/svg">
<path fill-rule="evenodd" clip-rule="evenodd" d="M7.5 10.875C8.53553 10.875 9.375 11.7145 9.375 12.75C9.375 13.7855 8.53553 14.625 7.5 14.625C6.46447 14.625 5.625 13.7855 5.625 12.75C5.625 11.7145 6.46447 10.875 7.5 10.875ZM7.5 5.62527C8.53553 5.62527 9.375 6.46474 9.375 7.50027C9.375 8.53581 8.53553 9.37527 7.5 9.37527C6.46447 9.37527 5.625 8.53581 5.625 7.50027C5.625 6.46474 6.46447 5.62527 7.5 5.62527ZM9.375 2.25009C9.375 1.21456 8.53553 0.37509 7.5 0.37509C6.46447 0.37509 5.625 1.21456 5.625 2.25009C5.625 3.28563 6.46447 4.12509 7.5 4.12509C8.53553 4.12509 9.375 3.28563 9.375 2.25009Z" fill="#1B2746"/>
</svg>
