<svg width="24" height="30" viewBox="0 0 24 30" fill="none" xmlns="http://www.w3.org/2000/svg">
<path d="M0.00995618 13.2152C0.0109934 15.4504 0.0193601 17.6856 0.0244773 19.9207L0.0166639 20.3208C0.0150734 22.8674 0.0361646 25.4143 0.000136823 27.9603C-0.0134168 28.9172 0.982567 29.8574 1.84267 29.8091C2.57782 29.7678 3.31711 29.8018 4.05461 29.8018C8.1568 29.8015 12.2591 29.8005 16.3612 29.802H21.1017C21.9545 29.8361 23.6601 29.802 23.6601 27.2563V21.5413L23.6619 18.8338C23.6624 15.5612 23.6633 12.2887 23.6609 9.01608C23.6608 8.90205 23.7199 8.74798 23.5293 8.70946C21.2013 8.70939 18.8734 8.70974 16.5455 8.70898C15.4733 8.70863 14.6688 7.90524 14.6695 6.84252C14.6713 4.60679 14.671 2.371 14.6716 0.135268C10.4889 0.134438 6.30624 0.128837 2.1237 0.145917C1.89619 0.146885 1.7536 -0.035397 1.5328 0.00616283C0.665164 0.16936 0.0127911 0.94738 0.0123071 1.84247C0.0100942 5.63334 0.00815824 9.42435 0.00995618 13.2152Z" fill="#F2F2F2"/>
<path fill-rule="evenodd" clip-rule="evenodd" d="M23.5292 8.70876C21.2013 8.70869 18.8733 8.70904 16.5454 8.70828C15.4732 8.70793 14.6687 7.90454 14.6694 6.84182C14.6711 4.60609 14.6709 2.3703 14.6715 0.134569C15.0977 0.0616833 15.2766 0.421892 15.5054 0.648224C16.634 1.76481 17.7569 2.88727 18.8875 4.00213C19.8679 4.96893 20.8314 5.95606 21.7901 6.9461C22.3643 7.53914 23.0024 8.06918 23.5292 8.70876Z" fill="#DDDDDD"/>
<path fill-rule="evenodd" clip-rule="evenodd" d="M11.7677 8.4336C11.7677 8.58635 11.6439 8.7102 11.4911 8.7102H3.95287C3.80012 8.7102 3.67627 8.58635 3.67627 8.4336V7.25512C3.67627 7.10237 3.80012 6.97852 3.95287 6.97852H11.4911C11.6439 6.97852 11.7677 7.10237 11.7677 7.25512V8.4336Z" fill="#DDDDDD"/>
<path fill-rule="evenodd" clip-rule="evenodd" d="M19.7272 14.6973C19.7272 14.85 19.6034 14.9739 19.4506 14.9739H3.95287C3.80012 14.9739 3.67627 14.85 3.67627 14.6973V13.5188C3.67627 13.366 3.80012 13.2422 3.95287 13.2422H19.4506C19.6034 13.2422 19.7272 13.366 19.7272 13.5188V14.6973Z" fill="#DDDDDD"/>
<path fill-rule="evenodd" clip-rule="evenodd" d="M19.7272 18.8066C19.7272 18.9594 19.6034 19.0832 19.4506 19.0832H3.95287C3.80012 19.0832 3.67627 18.9594 3.67627 18.8066V17.6282C3.67627 17.4754 3.80012 17.3516 3.95287 17.3516H19.4506C19.6034 17.3516 19.7272 17.4754 19.7272 17.6282V18.8066Z" fill="#DDDDDD"/>
<path fill-rule="evenodd" clip-rule="evenodd" d="M14.0158 23.1484C14.0158 23.3012 13.8919 23.425 13.7392 23.425H3.95287C3.80012 23.425 3.67627 23.3012 3.67627 23.1484V21.97C3.67627 21.8172 3.80012 21.6934 3.95287 21.6934H13.7392C13.8919 21.6934 14.0158 21.8172 14.0158 21.97V23.1484Z" fill="#DDDDDD"/>
</svg>
