<svg width="31" height="31" viewBox="0 0 31 31" fill="none" xmlns="http://www.w3.org/2000/svg">
<g id="pdf" clip-path="url(#clip0_24713_142170)">
<path id="Vector" d="M8 0.5C6.96875 0.5 6.125 1.34375 6.125 2.375V28.625C6.125 29.6562 6.96875 30.5 8 30.5H26.75C27.7812 30.5 28.625 29.6562 28.625 28.625V8L21.125 0.5H8Z" fill="#E2E5E7"/>
<path id="Vector_2" d="M23 8H28.625L21.125 0.5V6.125C21.125 7.15625 21.9688 8 23 8Z" fill="#B0B7BD"/>
<path id="Vector_3" d="M28.625 13.625L23 8H28.625V13.625Z" fill="#CAD1D8"/>
<path id="Vector_4" d="M24.875 24.875C24.875 25.3906 24.4531 25.8125 23.9375 25.8125H3.3125C2.79688 25.8125 2.375 25.3906 2.375 24.875V15.5C2.375 14.9844 2.79688 14.5625 3.3125 14.5625H23.9375C24.4531 14.5625 24.875 14.9844 24.875 15.5V24.875Z" fill="#F15642"/>
<g id="Group">
<path id="Vector_5" d="M6.46167 18.2629C6.46167 18.0154 6.65667 17.7454 6.97073 17.7454H8.70229C9.67729 17.7454 10.5548 18.3979 10.5548 19.6485C10.5548 20.8335 9.67729 21.4935 8.70229 21.4935H7.45073V22.4835C7.45073 22.8135 7.24073 23 6.97073 23C6.72323 23 6.46167 22.8135 6.46167 22.4835V18.2629ZM7.45073 18.6894V20.5569H8.70229C9.20479 20.5569 9.60229 20.1135 9.60229 19.6485C9.60229 19.1244 9.20479 18.6894 8.70229 18.6894H7.45073Z" fill="white"/>
<path id="Vector_6" d="M12.0229 22.9999C11.7754 22.9999 11.5054 22.8649 11.5054 22.5359V18.2777C11.5054 18.0087 11.7754 17.8127 12.0229 17.8127H13.7394C17.1651 17.8127 17.0901 22.9999 13.8069 22.9999H12.0229ZM12.4954 18.7277V22.0859H13.7394C15.7635 22.0859 15.8535 18.7277 13.7394 18.7277H12.4954Z" fill="white"/>
<path id="Vector_7" d="M18.3048 18.7878V19.9794H20.2164C20.4864 19.9794 20.7564 20.2494 20.7564 20.511C20.7564 20.7585 20.4864 20.961 20.2164 20.961H18.3048V22.535C18.3048 22.7975 18.1183 22.9991 17.8558 22.9991C17.5258 22.9991 17.3242 22.7975 17.3242 22.535V18.2769C17.3242 18.0078 17.5267 17.8119 17.8558 17.8119H20.4873C20.8173 17.8119 21.0123 18.0078 21.0123 18.2769C21.0123 18.5169 20.8173 18.7869 20.4873 18.7869H18.3048V18.7878Z" fill="white"/>
</g>
<path id="Vector_8" d="M23.9375 25.8125H6.125V26.75H23.9375C24.4531 26.75 24.875 26.3281 24.875 25.8125V24.875C24.875 25.3906 24.4531 25.8125 23.9375 25.8125Z" fill="#CAD1D8"/>
</g>
<defs>
<clipPath id="clip0_24713_142170">
<rect width="30" height="30" fill="white" transform="translate(0.5 0.5)"/>
</clipPath>
</defs>
</svg>
