<svg width="16" height="17" viewBox="0 0 16 17" fill="none" xmlns="http://www.w3.org/2000/svg">
<g id="phone">
<path id="Vector" fill-rule="evenodd" clip-rule="evenodd" d="M4.00501 2.77124C5.12506 1.65119 7.01518 1.73634 7.79504 3.13375L8.22771 3.90904C8.73698 4.82159 8.51998 5.97297 7.77444 6.72762C7.76451 6.74123 7.71184 6.81785 7.70531 6.95172C7.69698 7.12261 7.75764 7.5178 8.36991 8.13007C8.98198 8.74213 9.37711 8.803 9.54811 8.79467C9.68211 8.78813 9.75878 8.73553 9.77238 8.72553C10.527 7.98007 11.6784 7.763 12.591 8.27227L13.3662 8.705C14.7636 9.48487 14.8488 11.3749 13.7288 12.495C13.1296 13.0941 12.333 13.6264 11.3969 13.6619C10.0096 13.7145 7.70611 13.3563 5.42494 11.0751C3.14375 8.79387 2.7855 6.49037 2.83808 5.10309C2.87358 4.16696 3.4059 3.37035 4.00501 2.77124ZM6.92184 3.62109C6.52246 2.90552 5.44934 2.74113 4.71212 3.47835C4.19522 3.99525 3.85918 4.56579 3.83737 5.14097C3.79351 6.29787 4.07914 8.31507 6.13205 10.3679C8.18498 12.4209 10.2021 12.7065 11.359 12.6626C11.9342 12.6408 12.5048 12.3048 13.0216 11.7879C13.7588 11.0507 13.5944 9.97753 12.8789 9.5782L12.1036 9.14553C11.6214 8.87633 10.9439 8.9682 10.4684 9.44373C10.4216 9.4904 10.1243 9.76787 9.59671 9.79353C9.05651 9.8198 8.40271 9.57707 7.66284 8.8372C6.92271 8.09707 6.68004 7.44307 6.70651 6.90282C6.73238 6.37514 7.00984 6.07807 7.05624 6.03164C7.53178 5.55609 7.62364 4.87865 7.35451 4.39637L6.92184 3.62109Z" fill="#1C274C"/>
</g>
</svg>
