<svg width="118" height="118" viewBox="0 0 118 118" fill="none" xmlns="http://www.w3.org/2000/svg">
<path d="M83.2942 17.0691L35.7284 17.1992L35.9689 105.086L83.5347 104.955L83.2942 17.0691Z" fill="white"/>
<path d="M76.0308 59.027L44.1526 59.1511C41.4627 59.1667 39.28 56.3107 39.28 52.7719L39.2328 30.9643C39.221 27.4255 41.3919 24.554 44.0818 24.554L75.96 24.4454C78.65 24.4299 80.8326 27.2858 80.8326 30.8247L80.8798 52.6322C80.8916 56.1555 78.7208 59.027 76.0308 59.027Z" fill="#F6F5F5"/>
<path d="M80.7003 29.6934V28.3128C80.7003 26.2478 79.0129 24.584 76.9597 24.584L42.8105 24.6784C40.7455 24.6784 39.0817 26.3658 39.0817 28.419V29.7996L80.7003 29.6934Z" fill="#2994D2"/>
<path d="M43.5716 49.7909L43.1885 49.7919C43.1596 49.792 43.1359 49.7848 43.1176 49.7704C43.1002 49.756 43.0862 49.7392 43.0755 49.7199L42.7807 49.2307C42.7721 49.2635 42.7597 49.2924 42.7434 49.3175L42.493 49.7215C42.4814 49.7399 42.467 49.7568 42.4497 49.7722C42.4334 49.7867 42.4122 49.794 42.3862 49.7941L42.0306 49.7951L42.5344 49.0246L42.0467 48.3046L42.4298 48.3036C42.4587 48.3035 42.4799 48.3073 42.4934 48.315C42.507 48.3226 42.519 48.3351 42.5297 48.3525L42.823 48.8244C42.8278 48.808 42.834 48.7916 42.8416 48.7752C42.8493 48.7578 42.8584 48.7409 42.869 48.7245L43.092 48.3581C43.1151 48.3205 43.1449 48.3016 43.1815 48.3015L43.5472 48.3005L43.0634 49.0058L43.5716 49.7909Z" fill="black"/>
<path d="M45.1103 49.7866L44.7272 49.7877C44.6983 49.7878 44.6747 49.7806 44.6563 49.7662C44.6389 49.7518 44.6249 49.735 44.6143 49.7157L44.3195 49.2265C44.3109 49.2593 44.2984 49.2882 44.2821 49.3133L44.0317 49.7173C44.0202 49.7357 44.0058 49.7526 43.9885 49.768C43.9721 49.7825 43.9509 49.7898 43.9249 49.7899L43.5693 49.7909L44.0732 49.0204L43.5855 48.3004L43.9686 48.2994C43.9975 48.2993 44.0187 48.3031 44.0322 48.3108C44.0457 48.3184 44.0578 48.3309 44.0684 48.3482L44.3617 48.8202C44.3665 48.8038 44.3727 48.7874 44.3804 48.771C44.3881 48.7536 44.3972 48.7367 44.4077 48.7203L44.6308 48.3539C44.6538 48.3163 44.6836 48.2974 44.7203 48.2973L45.086 48.2963L44.6022 49.0016L45.1103 49.7866Z" fill="black"/>
<path d="M46.649 49.7824L46.266 49.7835C46.2371 49.7836 46.2134 49.7764 46.1951 49.762C46.1777 49.7476 46.1637 49.7308 46.153 49.7115L45.8582 49.2223C45.8496 49.2551 45.8372 49.284 45.8209 49.3091L45.5704 49.7131C45.5589 49.7314 45.5445 49.7484 45.5272 49.7638C45.5109 49.7783 45.4897 49.7856 45.4637 49.7857L45.1081 49.7867L45.6119 49.0162L45.1242 48.2962L45.5073 48.2952C45.5362 48.2951 45.5574 48.2989 45.5709 48.3066C45.5845 48.3142 45.5965 48.3267 45.6072 48.344L45.9005 48.8159C45.9053 48.7995 45.9115 48.7831 45.9191 48.7667C45.9268 48.7494 45.9359 48.7325 45.9465 48.7161L46.1695 48.3497C46.1926 48.3121 46.2224 48.2932 46.259 48.2931L46.6247 48.2921L46.1409 48.9974L46.649 49.7824Z" fill="black"/>
<path d="M48.1878 49.7782L47.8047 49.7793C47.7758 49.7794 47.7522 49.7722 47.7338 49.7578C47.7164 49.7434 47.7024 49.7265 47.6918 49.7073L47.397 49.2181C47.3884 49.2508 47.3759 49.2798 47.3596 49.3049L47.1092 49.7089C47.0977 49.7272 47.0833 49.7441 47.066 49.7596C47.0496 49.7741 47.0284 49.7814 47.0024 49.7815L46.6468 49.7824L47.1507 49.012L46.663 48.292L47.046 48.291C47.075 48.2909 47.0962 48.2947 47.1097 48.3023C47.1232 48.31 47.1353 48.3225 47.1459 48.3398L47.4392 48.8117C47.444 48.7953 47.4502 48.7789 47.4579 48.7625C47.4655 48.7452 47.4747 48.7283 47.4852 48.7119L47.7083 48.3455C47.7313 48.3079 47.7611 48.289 47.7977 48.2889L48.1635 48.2879L47.6797 48.9932L48.1878 49.7782Z" fill="black"/>
<path d="M49.7265 49.774L49.3435 49.7751C49.3146 49.7751 49.2909 49.768 49.2726 49.7536C49.2552 49.7392 49.2412 49.7223 49.2305 49.7031L48.9357 49.2138C48.9271 49.2466 48.9147 49.2756 48.8984 49.3007L48.6479 49.7047C48.6364 49.723 48.622 49.7399 48.6047 49.7554C48.5884 49.7699 48.5672 49.7772 48.5412 49.7773L48.1856 49.7782L48.6894 49.0078L48.2017 48.2878L48.5848 48.2867C48.6137 48.2867 48.6349 48.2905 48.6484 48.2981C48.6619 48.3058 48.674 48.3183 48.6847 48.3356L48.978 48.8075C48.9827 48.7911 48.989 48.7747 48.9966 48.7583C49.0043 48.741 49.0134 48.7241 49.024 48.7076L49.247 48.3413C49.27 48.3037 49.2999 48.2848 49.3365 48.2847L49.7022 48.2837L49.2184 48.989L49.7265 49.774Z" fill="black"/>
<path d="M51.2653 49.7698L50.8822 49.7708C50.8533 49.7709 50.8297 49.7638 50.8113 49.7494C50.7939 49.735 50.7799 49.7181 50.7693 49.6989L50.4745 49.2096C50.4659 49.2424 50.4534 49.2714 50.4371 49.2965L50.1867 49.7005C50.1752 49.7188 50.1608 49.7357 50.1435 49.7512C50.1271 49.7657 50.1059 49.773 50.0799 49.773L49.7243 49.774L50.2282 49.0036L49.7405 48.2836L50.1235 48.2825C50.1525 48.2825 50.1737 48.2862 50.1872 48.2939C50.2007 48.3016 50.2128 48.3141 50.2234 48.3314L50.5167 48.8033C50.5215 48.7869 50.5277 48.7705 50.5354 48.7541C50.543 48.7367 50.5522 48.7199 50.5627 48.7034L50.7858 48.3371C50.8088 48.2994 50.8386 48.2806 50.8752 48.2805L51.241 48.2795L50.7572 48.9848L51.2653 49.7698Z" fill="black"/>
<path d="M52.804 49.7656L52.421 49.7666C52.392 49.7667 52.3684 49.7596 52.3501 49.7451C52.3327 49.7307 52.3187 49.7139 52.308 49.6947L52.0132 49.2054C52.0046 49.2382 51.9922 49.2672 51.9759 49.2923L51.7254 49.6963C51.7139 49.7146 51.6995 49.7315 51.6822 49.747C51.6659 49.7615 51.6447 49.7688 51.6187 49.7688L51.2631 49.7698L51.7669 48.9994L51.2792 48.2794L51.6623 48.2783C51.6912 48.2782 51.7124 48.282 51.7259 48.2897C51.7394 48.2974 51.7515 48.3099 51.7622 48.3272L52.0555 48.7991C52.0602 48.7827 52.0665 48.7663 52.0741 48.7499C52.0818 48.7325 52.0909 48.7156 52.1015 48.6992L52.3245 48.3329C52.3475 48.2952 52.3774 48.2764 52.414 48.2763L52.7797 48.2753L52.2959 48.9806L52.804 49.7656Z" fill="black"/>
<path d="M54.3428 49.7614L53.9597 49.7624C53.9308 49.7625 53.9072 49.7553 53.8888 49.7409C53.8714 49.7265 53.8574 49.7097 53.8468 49.6905L53.552 49.2012C53.5434 49.234 53.5309 49.2629 53.5146 49.2881L53.2642 49.6921C53.2527 49.7104 53.2383 49.7273 53.221 49.7428C53.2046 49.7573 53.1834 49.7646 53.1574 49.7646L52.8018 49.7656L53.3056 48.9952L52.818 48.2752L53.201 48.2741C53.2299 48.274 53.2512 48.2778 53.2647 48.2855C53.2782 48.2932 53.2903 48.3057 53.3009 48.323L53.5942 48.7949C53.599 48.7785 53.6052 48.7621 53.6129 48.7457C53.6205 48.7283 53.6296 48.7114 53.6402 48.695L53.8633 48.3287C53.8863 48.291 53.9161 48.2722 53.9527 48.2721L54.3185 48.2711L53.8347 48.9764L54.3428 49.7614Z" fill="black"/>
<rect x="41.9489" y="32.293" width="27.1611" height="1.50895" fill="#1B2746"/>
<rect x="41.9489" y="36.2148" width="36.5166" height="1.50896" fill="#1B2746"/>
<rect x="41.9489" y="44.0625" width="31.688" height="1.50895" fill="#1B2746"/>
<rect x="41.9489" y="40.1387" width="31.688" height="1.50895" fill="#1B2746"/>
<rect x="41.9489" y="52.2109" width="37.422" height="1.50894" fill="#0696D6"/>
<path d="M56.5575 25.6571H56.2153V25.5155C56.2153 25.3621 56.0973 25.2441 55.9439 25.2441C55.7905 25.2441 55.6725 25.3621 55.6725 25.5155V25.6571H55.1297V25.5155C55.1297 25.3621 55.0117 25.2441 54.8583 25.2441C54.7049 25.2441 54.5869 25.3621 54.5869 25.5155V25.6571H54.0441V25.5155C54.0441 25.3621 53.9261 25.2441 53.7727 25.2441C53.6193 25.2441 53.5013 25.3621 53.5013 25.5155V25.6571H53.1591C52.9703 25.6571 52.8169 25.8105 52.8169 25.9993L52.8287 28.7133C52.8287 28.9021 52.9821 29.0555 53.1709 29.0555H55.0707C55.1061 29.0555 55.1415 29.0201 55.1415 28.9847C55.1415 28.9493 55.1061 28.9139 55.0707 28.9139H53.1709C53.0529 28.9139 52.9703 28.8195 52.9703 28.7133V26.6129L56.7699 26.6011V27.7575C56.7699 27.7929 56.8053 27.8283 56.8407 27.8283C56.8761 27.8283 56.9115 27.7929 56.9115 27.7575V25.9875C56.8997 25.8105 56.7463 25.6571 56.5575 25.6571ZM55.8141 25.5273C55.8141 25.4565 55.8731 25.3857 55.9439 25.3857C56.0147 25.3857 56.0855 25.4447 56.0855 25.5155V25.9285C56.0855 25.9993 56.0265 26.0701 55.9557 26.0701C55.8849 26.0701 55.8141 26.0111 55.8141 25.9403V25.5273ZM54.7285 25.5273C54.7285 25.4565 54.7875 25.3857 54.8583 25.3857C54.9291 25.3857 54.9999 25.4447 54.9999 25.5155V25.9285C54.9999 25.9993 54.9409 26.0701 54.8701 26.0701C54.7993 26.0701 54.7285 26.0111 54.7285 25.9403V25.5273ZM53.6429 25.5273C53.6429 25.4565 53.7019 25.3857 53.7727 25.3857C53.8435 25.3857 53.9143 25.4447 53.9143 25.5155V25.9285C53.9143 25.9993 53.8553 26.0701 53.7845 26.0701C53.7137 26.0701 53.6429 26.0111 53.6429 25.9403V25.5273ZM56.7699 26.4713L52.9703 26.4831V26.0111C52.9703 25.8931 53.0647 25.8105 53.1709 25.8105H53.5131V25.9521C53.5131 26.1055 53.6311 26.2235 53.7845 26.2235C53.9379 26.2235 54.0559 26.1055 54.0559 25.9521V25.8105H54.5987V25.9521C54.5987 26.1055 54.7167 26.2235 54.8701 26.2235C55.0235 26.2235 55.1415 26.1055 55.1415 25.9521V25.8105H55.6843V25.9521C55.6843 26.1055 55.8023 26.2235 55.9557 26.2235C56.1091 26.2235 56.2271 26.1055 56.2271 25.9521V25.8223H56.5693C56.6873 25.8223 56.7699 25.9167 56.7699 26.0229V26.4713Z" fill="#F6F5F5"/>
<path d="M54.7403 27.0849C54.7403 27.0141 54.6813 26.9551 54.5987 26.9551H54.3273C54.2565 26.9551 54.1975 27.0141 54.1975 27.0967V27.2973C54.1975 27.3681 54.2565 27.4271 54.3391 27.4271H54.6105C54.6813 27.4271 54.7403 27.3681 54.7403 27.2855V27.0849ZM54.3273 27.2855V27.0849H54.5987V27.2855H54.3273Z" fill="#F6F5F5"/>
<path d="M53.9261 27.0849C53.9261 27.0141 53.8671 26.9551 53.7845 26.9551H53.5131C53.4423 26.9551 53.3833 27.0141 53.3833 27.0967V27.2973C53.3833 27.3681 53.4423 27.4271 53.5249 27.4271H53.7963C53.8671 27.4271 53.9261 27.3681 53.9261 27.2855V27.0849ZM53.5131 27.2973V27.0967H53.7845V27.2973H53.5131Z" fill="#F6F5F5"/>
<path d="M56.2271 27.4271C56.2979 27.4271 56.3569 27.3681 56.3569 27.2855V27.0849C56.3569 27.0141 56.2979 26.9551 56.2153 26.9551H55.9439C55.8731 26.9551 55.8141 27.0141 55.8141 27.0967V27.2973C55.8141 27.3681 55.8731 27.4271 55.9557 27.4271H56.2271ZM55.9557 27.0849H56.2271V27.2855H55.9557V27.0849Z" fill="#F6F5F5"/>
<path d="M54.7403 27.6982C54.7403 27.6274 54.6813 27.5684 54.5987 27.5684H54.3273C54.2565 27.5684 54.1975 27.6274 54.1975 27.71V27.9106C54.1975 27.9814 54.2565 28.0404 54.3391 28.0404H54.6105C54.6813 28.0404 54.7403 27.9814 54.7403 27.8988V27.6982ZM54.3273 27.8988V27.6982H54.5987V27.8988H54.3273Z" fill="#F6F5F5"/>
<path d="M53.9261 27.6982C53.9261 27.6274 53.8671 27.5684 53.7845 27.5684H53.5131C53.4423 27.5684 53.3833 27.6274 53.3833 27.71V27.9106C53.3833 27.9814 53.4423 28.0404 53.5249 28.0404H53.7963C53.8671 28.0404 53.9261 27.9814 53.9261 27.8988V27.6982ZM53.5131 27.8988V27.6982H53.7845V27.8988H53.5131Z" fill="#F6F5F5"/>
<path d="M54.5987 28.1699H54.3273C54.2565 28.1699 54.1975 28.2289 54.1975 28.3115V28.5121C54.1975 28.5829 54.2565 28.6419 54.3391 28.6419H54.6105C54.6813 28.6419 54.7403 28.5829 54.7403 28.5003V28.2997C54.7403 28.2289 54.6813 28.1699 54.5987 28.1699ZM54.3273 28.5121V28.3115H54.5987V28.5121H54.3273Z" fill="#F6F5F5"/>
<path d="M55.1415 27.4271H55.4129C55.4837 27.4271 55.5427 27.3681 55.5427 27.2855V27.0849C55.5427 27.0141 55.4837 26.9551 55.4011 26.9551H55.1297C55.0589 26.9551 54.9999 27.0141 54.9999 27.0967V27.2973C55.0117 27.3681 55.0707 27.4271 55.1415 27.4271ZM55.1415 27.0849H55.4129V27.2855H55.1415V27.0849Z" fill="#F6F5F5"/>
<path d="M55.0117 27.8989C55.0117 27.9697 55.0707 28.0287 55.1533 28.0287C55.1887 28.0287 55.2241 27.9933 55.2241 27.9579C55.2241 27.9225 55.1887 27.8871 55.1533 27.8871V27.6865H55.4247C55.4601 27.6865 55.4955 27.6511 55.4955 27.6157C55.4955 27.5803 55.4601 27.5449 55.4247 27.5449H55.1533C55.0825 27.5449 55.0235 27.6039 55.0235 27.6865L55.0117 27.8989Z" fill="#F6F5F5"/>
<path d="M53.7845 28.1699H53.5131C53.4423 28.1699 53.3833 28.2289 53.3833 28.3115V28.5121C53.3833 28.5829 53.4423 28.6419 53.5249 28.6419H53.7963C53.8671 28.6419 53.9261 28.5829 53.9261 28.5003V28.2997C53.9261 28.2289 53.8671 28.1699 53.7845 28.1699ZM53.5131 28.5121V28.3115H53.7845V28.5121H53.5131Z" fill="#F6F5F5"/>
<path d="M56.0264 27.5566C55.6724 27.5566 55.3539 27.769 55.2123 28.0994C55.0825 28.4298 55.1533 28.8074 55.4011 29.0552C55.6489 29.303 56.0383 29.3856 56.3687 29.244C56.699 29.1024 56.9114 28.7838 56.9114 28.4298C56.9114 27.946 56.5102 27.5566 56.0264 27.5566ZM56.0264 29.185C55.7196 29.185 55.4483 29.008 55.3303 28.7248C55.2123 28.4416 55.2713 28.123 55.4954 27.9106C55.7078 27.6982 56.0265 27.6274 56.3097 27.7454C56.5928 27.8634 56.7698 28.1348 56.7698 28.4298C56.7698 28.8546 56.4394 29.185 56.0264 29.185Z" fill="#F6F5F5"/>
<path d="M56.416 28.1594L55.885 28.6904L55.649 28.4544C55.6254 28.4308 55.5782 28.4308 55.5546 28.4544C55.531 28.478 55.531 28.5252 55.5546 28.5488L55.8378 28.832C55.8614 28.8556 55.9086 28.8556 55.9322 28.832L56.5104 28.2538C56.534 28.2302 56.534 28.183 56.5104 28.1594C56.4868 28.124 56.4514 28.124 56.416 28.1594Z" fill="#F6F5F5"/>
<path d="M58.7523 26.3535H59.1653L59.5901 27.9465L59.9913 26.3535H60.6285V28.4421H60.2273V26.7547L59.8025 28.4421H59.3659L58.9293 26.7547V28.4421H58.5281V26.5777C58.5281 26.4597 58.6225 26.3535 58.7523 26.3535Z" fill="#F6F5F5"/>
<path d="M61.5725 28.4667C61.0769 28.4549 60.8291 28.1717 60.8291 27.6171C60.8291 27.0625 61.0769 26.7911 61.5725 26.7793C62.0917 26.7793 62.3277 27.0979 62.3041 27.7233H61.2539C61.2657 27.9711 61.3719 28.1009 61.5725 28.1009C61.6669 28.1009 61.7613 28.0655 61.8321 27.9829C61.8675 27.9475 61.9147 27.9239 61.9737 27.9239H62.2687C62.1861 28.2779 61.9619 28.4667 61.5725 28.4667ZM61.2539 27.4401H61.8675C61.8439 27.2277 61.7377 27.1097 61.5607 27.1097C61.3837 27.1215 61.2893 27.2277 61.2539 27.4401Z" fill="#F6F5F5"/>
<path d="M63.9796 26.5425V27.7225C63.9796 28.2063 63.7318 28.4541 63.2244 28.4541C62.717 28.4423 62.4692 28.1709 62.4692 27.6281C62.4692 27.0735 62.6816 26.7903 63.1182 26.7785C63.3188 26.7785 63.4722 26.8611 63.5784 27.0263V26.3301H63.779C63.897 26.3419 63.9796 26.4363 63.9796 26.5425ZM62.894 27.6163C62.894 27.9467 63.0002 28.1119 63.2362 28.1119C63.4722 28.1119 63.5902 27.9467 63.5902 27.6163C63.5784 27.2977 63.4604 27.1443 63.248 27.1561C63.012 27.1443 62.9058 27.2977 62.894 27.6163Z" fill="#F6F5F5"/>
<path d="M64.5225 28.0996V28.4182H64.1803V28.2176C64.1803 28.135 64.2275 28.0996 64.3101 28.0996H64.5225Z" fill="#F6F5F5"/>
<path d="M65.1833 27.0853H65.1361V27.9821C65.1361 28.0529 65.1715 28.0883 65.2541 28.0883H65.3839V28.3951C65.2541 28.4069 65.1125 28.4069 64.9591 28.3951C64.8057 28.3833 64.7349 28.2889 64.7349 28.1001V26.3301H64.9473C65.0535 26.3301 65.1479 26.4245 65.1479 26.5307V26.7903H65.3957V26.8847C65.3839 27.0027 65.3013 27.0853 65.1833 27.0853Z" fill="#F6F5F5"/>
<path d="M66.7408 28.4196C66.611 28.4078 66.5402 28.3488 66.5402 28.219V27.3812C66.5284 27.216 66.434 27.1334 66.257 27.1334C66.08 27.1334 65.9856 27.216 65.9856 27.3812V28.4196H65.5726V27.4638C65.5726 27.0036 65.8086 26.7676 66.2688 26.7676C66.729 26.7676 66.965 26.9918 66.9532 27.4638V28.4196H66.7408Z" fill="#F6F5F5"/>
<path d="M92.5711 56.0851L92.5593 56.0379C90.7775 49.7958 84.4763 51.3651 84.4763 51.3651L83.4379 51.6248L83.9217 64.9823L84.3111 64.8879C94.3529 62.3745 92.5711 56.0851 92.5711 56.0851Z" fill="#FFB29E"/>
<path d="M91.0488 76.2518L91.037 76.1692C90.3998 70.0096 84.2284 70.4462 84.2284 70.4462L83.2018 70.517L84.1458 82.8952C91.5798 81.4438 91.0488 76.2518 91.0488 76.2518Z" fill="#FFB29E"/>
<path d="M48.675 100.629C49.5836 101.054 50.504 100.995 50.504 100.995L64.0623 100.051L48.675 100.629Z" fill="#DEAC89"/>
<path d="M89.975 91.6026L89.9632 91.5318C89.4322 86.3398 85.1724 85.5846 83.4614 85.4902L84.3582 98.1752C90.447 96.2754 89.975 91.6026 89.975 91.6026Z" fill="#FFB29E"/>
<path d="M78.5408 112.006C78.5408 112.006 78.0098 117.906 68.6996 116.761L42.2204 113.516C42.2204 113.516 39.3412 113.162 39.6008 110.271L39.8722 107.262C39.8722 107.262 40.4032 101.362 49.7134 102.507L73.2662 105.398C73.2662 105.398 79.0718 106.106 78.5526 111.935L78.5408 112.006Z" fill="#FFB29E"/>
<path d="M85.5106 19.8067L82.3246 19.8203L82.6644 99.6473L85.8504 99.6338L85.5106 19.8067Z" fill="#EEEDED"/>
<path d="M37.0713 20.0196L33.8853 20.0332L34.225 99.8602L37.411 99.8467L37.0713 20.0196Z" fill="#EEEDED"/>
<path d="M85.5028 19.8119L85.491 17.5817C85.491 17.5817 85.4556 9.67566 75.5908 9.71106L43.7072 9.85266C43.7072 9.85266 33.8424 9.15645 33.8778 17.8059L33.8896 20.0361L85.5028 19.8119ZM34.22 99.8631L34.2436 106.589C34.2436 106.589 34.2672 112.536 44.132 112.501L76.0156 112.359C76.0156 112.359 85.8804 112.772 85.845 104.135L85.8214 99.6507L34.22 99.8631Z" fill="#264654"/>
<path d="M55.519 14.4417L55.5308 15.8813L67.0358 15.8341V14.3945L55.519 14.4417Z" fill="#EEEDED"/>
<path d="M52.3448 14.4552L52.3566 15.8948H54.2682V14.4434L52.3448 14.4552Z" fill="#EEEDED"/>
<path d="M54.103 97.2325C54.103 97.2325 49.7606 94.6954 51.743 92.0168C51.743 92.0168 56.1444 85.4796 59.9322 88.8308C60.4042 89.2438 63.661 91.415 61.1594 95.0141L60.3216 96.2177C60.3216 96.2177 57.82 99.8167 54.221 97.3151L54.103 97.2325Z" fill="#F0D0BA"/>
<path d="M50.504 118C51.6368 115.333 51.4008 116.312 52.097 112.666C52.097 112.666 72.0272 96.7127 62.0326 88.7123C55.8966 83.8035 52.1442 93.6093 46.3622 96.2053C37.0402 100.371 34.2318 103.403 34.2318 103.403L34.0902 70.3633C32.6388 70.7763 26.1724 73.9151 23.6944 77.5259C21.8536 80.2045 11.2454 106.731 7.198 118H50.504Z" fill="#FFB29E"/>
<path d="M43.9025 37.1041C43.9025 35.3585 45.3176 33.9434 47.0632 33.9434H82.5334C84.279 33.9434 85.6941 35.3585 85.6941 37.1041V38.5088C85.6941 40.2545 84.279 41.6696 82.5334 41.6696H53.2069C52.697 41.6696 52.2572 42.028 52.1544 42.5275C52.0333 43.1159 51.1019 46.6075 51.1019 46.6075C51.1019 46.6075 50.1637 43.083 50.0493 42.5275C49.9465 42.028 49.5068 41.6696 48.9968 41.6696H47.0632C45.3176 41.6696 43.9025 40.2545 43.9025 38.5088V37.1041Z" fill="white"/>
<path fill-rule="evenodd" clip-rule="evenodd" d="M49.1086 41.6759C49.0718 41.6721 49.0344 41.6701 48.9967 41.6701H47.0631C45.3175 41.6701 43.9024 40.255 43.9024 38.5094V37.1046C43.9024 35.359 45.3175 33.9439 47.0631 33.9439H82.5334C84.279 33.9439 85.6941 35.359 85.6941 37.1046V38.5094C85.6941 40.255 84.279 41.6701 82.5334 41.6701H53.2069C53.1692 41.6701 53.1319 41.6721 53.0951 41.6759C53.0936 41.676 53.0921 41.6762 53.0906 41.6764C52.8138 41.7063 52.5651 41.842 52.3903 42.046C52.2751 42.1806 52.1921 42.3448 52.1544 42.528C52.0366 43.1 51.1018 46.5466 51.1018 46.5466C51.1018 46.5466 50.167 43.1 50.0493 42.528C50.0116 42.3448 49.9285 42.1806 49.8133 42.046C49.6386 41.842 49.3898 41.7063 49.113 41.6764C49.1115 41.6762 49.1101 41.676 49.1086 41.6759ZM47.0631 30.7832H82.5334C86.0246 30.7832 88.8548 33.6134 88.8548 37.1046V38.5094C88.8548 42.0006 86.0246 44.8308 82.5334 44.8308H54.5404C53.69 46.0257 50.9262 49.7039 50.9262 49.7039C50.9262 49.7688 48.441 45.9237 47.6632 44.8308H47.0631C43.5719 44.8308 40.7417 42.0006 40.7417 38.5094V37.1046C40.7417 33.6134 43.5719 30.7832 47.0631 30.7832Z" fill="#FFD400"/>
<path d="M50.2627 39.3828L49.6791 38.5424L49.1925 39.3858L48.1876 39.3885L49.1828 37.8376L48.1521 36.3574L49.1951 36.3546L49.7786 37.1895L50.2652 36.3516L51.2702 36.3489L50.2585 37.8781L51.3057 39.38L50.2627 39.3828Z" fill="black"/>
<path d="M53.4562 39.3741L52.8727 38.5337L52.3861 39.377L51.3811 39.3798L52.3764 37.8289L51.3457 36.3487L52.3886 36.3458L52.9722 37.1808L53.4588 36.3429L54.4638 36.3402L53.4521 37.8694L54.4992 39.3713L53.4562 39.3741Z" fill="black"/>
<path d="M56.6498 39.3654L56.0662 38.525L55.5796 39.3683L54.5747 39.371L55.57 37.8201L54.5392 36.3399L55.5822 36.3371L56.1657 37.1721L56.6523 36.3342L57.6573 36.3314L56.6457 37.8606L57.6928 39.3625L56.6498 39.3654Z" fill="black"/>
<path d="M59.8433 39.3566L59.2598 38.5162L58.7732 39.3596L57.7682 39.3623L58.7635 37.8114L57.7328 36.3312L58.7757 36.3284L59.3593 37.1633L59.8459 36.3254L60.8509 36.3227L59.8392 37.8519L60.8863 39.3538L59.8433 39.3566Z" fill="black"/>
<path d="M63.0369 39.3479L62.4533 38.5075L61.9667 39.3508L60.9618 39.3536L61.9571 37.8027L60.9263 36.3225L61.9693 36.3196L62.5528 37.1546L63.0395 36.3167L64.0444 36.3139L63.0328 37.8432L64.0799 39.345L63.0369 39.3479Z" fill="black"/>
<path d="M66.2304 39.3392L65.6469 38.4988L65.1603 39.3421L64.1553 39.3448L65.1506 37.7939L64.1199 36.3137L65.1629 36.3109L65.7464 37.1458L66.233 36.3079L67.238 36.3052L66.2263 37.8344L67.2734 39.3363L66.2304 39.3392Z" fill="black"/>
<path d="M69.424 39.3304L68.8404 38.49L68.3538 39.3333L67.3489 39.3361L68.3442 37.7852L67.3134 36.305L68.3564 36.3021L68.94 37.1371L69.4266 36.2992L70.4315 36.2965L69.4199 37.8257L70.467 39.3276L69.424 39.3304Z" fill="black"/>
<path d="M72.6175 39.3217L72.034 38.4813L71.5474 39.3246L70.5424 39.3274L71.5377 37.7764L70.507 36.2963L71.55 36.2934L72.1335 37.1284L72.6201 36.2905L73.6251 36.2877L72.6134 37.817L73.6605 39.3188L72.6175 39.3217Z" fill="black"/>
<path d="M75.8111 39.3129L75.2275 38.4725L74.741 39.3159L73.736 39.3186L74.7313 37.7677L73.7005 36.2875L74.7435 36.2847L75.3271 37.1196L75.8137 36.2817L76.8186 36.279L75.807 37.8082L76.8541 39.3101L75.8111 39.3129Z" fill="black"/>
<path d="M79.0047 39.3042L78.4211 38.4638L77.9345 39.3071L76.9295 39.3099L77.9248 37.759L76.8941 36.2788L77.9371 36.2759L78.5206 37.1109L79.0072 36.273L80.0122 36.2702L79.0005 37.7995L80.0476 39.3013L79.0047 39.3042Z" fill="black"/>
</svg>
