<svg width="20" height="20" viewBox="0 0 20 20" fill="none" xmlns="http://www.w3.org/2000/svg">
<path d="M10 0.5C8.12108 0.5 6.28435 1.05717 4.72209 2.10104C3.15982 3.14491 1.94218 4.62861 1.22315 6.36451C0.504116 8.10041 0.315985 10.0105 0.682544 11.8534C1.0491 13.6962 1.95389 15.3889 3.28249 16.7175C4.61109 18.0461 6.30383 18.9509 8.14665 19.3175C9.98947 19.684 11.8996 19.4959 13.6355 18.7769C15.3714 18.0578 16.8551 16.8402 17.899 15.2779C18.9428 13.7156 19.5 11.8789 19.5 10C19.4972 7.4813 18.4954 5.06657 16.7144 3.28558C14.9334 1.50459 12.5187 0.502803 10 0.5V0.5ZM12.7839 10.5192L10.4384 12.1567L9.20783 13.0156C9.11289 13.0819 9.00159 13.1209 8.88604 13.1283C8.77049 13.1357 8.65511 13.1114 8.55245 13.0578C8.44978 13.0043 8.36376 12.9236 8.30373 12.8246C8.24371 12.7256 8.21198 12.612 8.21198 12.4962V7.50377C8.21198 7.38798 8.24371 7.27441 8.30373 7.1754C8.36376 7.07638 8.44978 6.99572 8.55245 6.94217C8.65511 6.88863 8.77049 6.86426 8.88604 6.8717C9.00159 6.87915 9.11289 6.91813 9.20783 6.9844L10.4384 7.84333L12.7839 9.48062C12.8675 9.53898 12.9358 9.61667 12.983 9.70708C13.0301 9.79749 13.0547 9.89795 13.0547 9.99992C13.0547 10.1019 13.0301 10.2024 12.983 10.2928C12.9358 10.3832 12.8675 10.4609 12.7839 10.5192Z" fill="#1B2746"/>
</svg>
