<svg width="40" height="40" viewBox="0 0 40 40" fill="none" xmlns="http://www.w3.org/2000/svg">
<path fill-rule="evenodd" clip-rule="evenodd" d="M20 40C31.0456 40 40 31.0456 40 20C40 8.9543 31.0456 0 20 0C8.9543 0 0 8.9543 0 20C0 31.0456 8.9543 40 20 40ZM17.387 27.6916L26.8274 22.118C28.3908 21.1948 28.3908 18.8052 26.8274 17.882L17.387 12.3084C15.8674 11.4112 14 12.5789 14 14.4263V25.5736C14 27.421 15.8674 28.5888 17.387 27.6916Z" fill="#1C274C"/>
<path d="M26.8274 22.118L17.387 27.6916C15.8674 28.5888 14 27.421 14 25.5736V14.4263C14 12.5789 15.8674 11.4112 17.387 12.3084L26.8274 17.882C28.3908 18.8052 28.3908 21.1948 26.8274 22.118Z" fill="white"/>
</svg>
