<svg width="24" height="25" viewBox="0 0 24 25" fill="none" xmlns="http://www.w3.org/2000/svg">
<path fill-rule="evenodd" clip-rule="evenodd" d="M19.1102 19.1559C19.2484 18.1282 19.25 16.7735 19.25 14.8667L19.25 10.8667C19.25 8.95988 19.2484 7.60521 19.1102 6.57755C18.975 5.57146 18.7213 4.99181 18.2981 4.5686C17.8749 4.14539 17.2952 3.89172 16.2891 3.75646C15.2615 3.61829 13.9068 3.6167 12 3.6167C10.0932 3.6167 8.7385 3.61829 7.7108 3.75646C6.7048 3.89172 6.1251 4.14539 5.7019 4.5686C5.2787 4.99181 5.025 5.57146 4.8898 6.57755C4.7516 7.60521 4.75 8.95988 4.75 10.8667L4.75 14.8667C4.75 16.7735 4.7516 18.1282 4.8898 19.1559C5.025 20.1619 5.2787 20.7416 5.7019 21.1648C6.1251 21.588 6.7048 21.8417 7.7108 21.9769C8.7385 22.1151 10.0932 22.1167 12 22.1167C13.9068 22.1167 15.2615 22.1151 16.2891 21.9769C17.2952 21.8417 17.8749 21.588 18.2981 21.1648C18.7213 20.7416 18.975 20.1619 19.1102 19.1559ZM20.5969 19.3557C20.4392 20.5281 20.1071 21.4771 19.3588 22.2255C18.6104 22.9738 17.6614 23.3059 16.489 23.4636C15.3498 23.6167 13.8942 23.6167 12.0564 23.6167L11.9436 23.6167C10.1058 23.6167 8.6502 23.6167 7.511 23.4636C6.3386 23.3059 5.3896 22.9738 4.6412 22.2255C3.8929 21.4771 3.5608 20.5281 3.4031 19.3557C3.25 18.2165 3.25 16.7609 3.25 14.9231L3.25 10.8103C3.25 8.97253 3.25 7.51689 3.4031 6.37768C3.5608 5.20526 3.8929 4.25631 4.6412 3.50794C5.3896 2.75958 6.3386 2.42746 7.511 2.26984C8.6502 2.11667 10.1058 2.11668 11.9436 2.1167L12.0564 2.1167C13.8942 2.11668 15.3498 2.11667 16.489 2.26984C17.6614 2.42746 18.6104 2.75958 19.3588 3.50794C20.1071 4.25631 20.4392 5.20526 20.5969 6.37768C20.75 7.51689 20.75 8.97253 20.75 10.8103L20.75 14.9231C20.75 16.7609 20.75 18.2165 20.5969 19.3557Z" fill="#0696D6"/>
</svg>
