<svg width="21" height="21" viewBox="0 0 21 21" fill="none" xmlns="http://www.w3.org/2000/svg">
<path d="M10.475 0C8.40325 0 6.37801 0.614348 4.65541 1.76536C2.9328 2.91636 1.59019 4.55234 0.797367 6.46639C0.00453863 8.38045 -0.202901 10.4866 0.201279 12.5186C0.605459 14.5505 1.60311 16.417 3.06806 17.8819C4.53302 19.3469 6.39948 20.3445 8.43143 20.7487C10.4634 21.1529 12.5696 20.9455 14.4836 20.1526C16.3977 19.3598 18.0336 18.0172 19.1846 16.2946C20.3357 14.572 20.95 12.5468 20.95 10.475C20.9469 7.69781 19.8423 5.03524 17.8785 3.07147C15.9148 1.1077 13.2522 0.00309048 10.475 0Z" fill="#F0FAFF"/>
<path fill-rule="evenodd" clip-rule="evenodd" d="M6.41681 15.255C6.59968 15.0717 6.59939 14.7749 6.41614 14.592C5.36701 13.545 4.71875 12.0986 4.71875 10.5C4.71875 8.88263 5.38227 7.42113 6.45314 6.37132C6.63801 6.19007 6.64096 5.89332 6.45973 5.70844C6.27851 5.52357 5.98172 5.52063 5.79686 5.70188C4.55352 6.92069 3.78125 8.62056 3.78125 10.5C3.78125 12.3576 4.53576 14.0399 5.75389 15.2556C5.93713 15.4385 6.23393 15.4382 6.41681 15.255ZM14.6353 15.2097C14.8201 15.3909 15.1169 15.388 15.2981 15.2031C16.4857 13.9917 17.2188 12.331 17.2188 10.5C17.2188 8.64719 16.4682 6.96882 15.2556 5.75388C15.0727 5.57063 14.7759 5.57032 14.5928 5.75319C14.4095 5.93607 14.4092 6.23288 14.5921 6.41613C15.6364 7.4625 16.2812 8.9055 16.2812 10.5C16.2812 12.0758 15.6514 13.5036 14.6287 14.5468C14.4474 14.7317 14.4504 15.0285 14.6353 15.2097ZM8.19327 13.3203C8.37016 13.1312 8.36033 12.8346 8.1713 12.6577C7.57823 12.1027 7.21875 11.3436 7.21875 10.5111C7.21875 9.66894 7.58668 8.90169 8.19222 8.34507C8.38282 8.16988 8.3953 7.87338 8.2201 7.68275C8.04491 7.49219 7.74837 7.47969 7.55778 7.65488C6.77479 8.37463 6.28125 9.386 6.28125 10.5111C6.28125 11.6231 6.76342 12.6242 7.53073 13.3422C7.71975 13.5191 8.01638 13.5093 8.19327 13.3203ZM12.8393 13.2965C13.0182 13.4836 13.3149 13.4902 13.5021 13.3112C14.2503 12.5955 14.7188 11.6071 14.7188 10.5111C14.7188 9.402 14.2391 8.40325 13.4753 7.68563C13.2866 7.50832 12.9899 7.51757 12.8127 7.70625C12.6354 7.89494 12.6447 8.19157 12.8333 8.36882C13.4236 8.92344 13.7812 9.68075 13.7812 10.5111C13.7812 11.3318 13.4319 12.081 12.854 12.6338C12.6669 12.8127 12.6604 13.1094 12.8393 13.2965ZM10.8701 12.4448C10.8811 12.4388 10.8921 12.4328 10.9031 12.4267C11.0534 12.3445 11.2025 12.2586 11.3369 12.1736C11.4901 12.0768 11.6528 11.9632 11.8126 11.8459C11.8222 11.8389 11.8317 11.8318 11.8412 11.8249C12.0964 11.6376 12.3353 11.4623 12.5042 11.2853C12.7001 11.0799 12.8438 10.8307 12.8438 10.4999C12.8438 10.1693 12.7001 9.92 12.5042 9.71469C12.3353 9.53763 12.0964 9.36232 11.8412 9.17507C11.8317 9.16807 11.8222 9.16107 11.8126 9.15407C11.6528 9.03675 11.4901 8.92313 11.3369 8.82631C11.2025 8.74138 11.0534 8.6555 10.9031 8.57319C10.8921 8.56719 10.8811 8.56113 10.8701 8.55513C10.6198 8.418 10.3765 8.28475 10.1626 8.21563C9.90706 8.133 9.61144 8.11481 9.32738 8.30669C9.05979 8.48744 8.95024 8.75506 8.89531 9.01019C8.84521 9.24294 8.82626 9.53831 8.80533 9.86456C8.80464 9.87538 8.80394 9.88619 8.80324 9.897C8.78998 10.1034 8.78125 10.3105 8.78125 10.4999C8.78125 10.6894 8.78998 10.8965 8.80324 11.1029C8.80394 11.1138 8.80464 11.1246 8.80533 11.1354C8.82626 11.4616 8.84521 11.757 8.89531 11.9897C8.95024 12.2448 9.05979 12.5125 9.32738 12.6933C9.61144 12.8852 9.90706 12.8669 10.1626 12.7843C10.3765 12.7152 10.6198 12.5819 10.8701 12.4448ZM9.84438 11.9009C9.83619 11.883 9.82419 11.8499 9.81181 11.7924C9.77819 11.6363 9.76256 11.4122 9.73881 11.0428C9.72631 10.8484 9.71875 10.6627 9.71875 10.4999C9.71875 10.3373 9.72631 10.1515 9.73881 9.95713C9.76256 9.58775 9.77819 9.36369 9.81181 9.2075C9.82419 9.15 9.83619 9.11694 9.84438 9.099C9.85244 9.101 9.86231 9.10381 9.87419 9.10769C9.99288 9.14606 10.1565 9.23331 10.4531 9.39556C10.5925 9.47194 10.7234 9.54763 10.8361 9.61881C10.9647 9.70007 11.1085 9.80013 11.2578 9.90975C11.5518 10.1256 11.7212 10.2521 11.8259 10.3618C11.9066 10.4464 11.9064 10.4768 11.9062 10.4974V10.4999V10.5025C11.9064 10.5232 11.9066 10.5535 11.8259 10.6381C11.7212 10.7478 11.5518 10.8743 11.2578 11.0902C11.1085 11.1998 10.9647 11.2998 10.8361 11.3811C10.7234 11.4523 10.5925 11.528 10.4531 11.6043C10.1565 11.7666 9.99288 11.8539 9.87419 11.8923C9.86231 11.8961 9.85244 11.8989 9.84438 11.9009Z" fill="#0696D6"/>
</svg>
