<svg width="11" height="11" viewBox="0 0 11 11" fill="none" xmlns="http://www.w3.org/2000/svg">
<rect width="11" height="11" rx="5.5" fill="#7C878E"/>
<path d="M6.84529 7.05547C6.83665 7.03617 6.82583 7.01796 6.81305 7.00119C6.80713 6.98926 6.80032 6.9778 6.79269 6.96692C6.79131 6.96538 6.78933 6.96489 6.78792 6.9634C6.77207 6.94839 6.7545 6.93535 6.73559 6.92457C6.72424 6.91546 6.71222 6.90723 6.69964 6.89996C6.68632 6.89561 6.6727 6.89227 6.65889 6.88996C6.63784 6.88287 6.61602 6.8784 6.59391 6.87667C6.59195 6.87661 6.59031 6.87551 6.58834 6.87551H4.08474C3.79101 6.87607 3.50508 6.7796 3.27012 6.60068C3.03517 6.42177 2.86394 6.17011 2.7823 5.88371C2.70066 5.59732 2.71303 5.29174 2.81756 5.01311C2.92209 4.73449 3.11309 4.49794 3.36172 4.33921C3.42384 4.2994 3.46784 4.23618 3.48404 4.16345C3.50023 4.09072 3.48731 4.01444 3.44809 3.95139C3.40888 3.88833 3.3466 3.84367 3.27494 3.82723C3.20329 3.81079 3.12814 3.82392 3.06602 3.86372C2.71579 4.0875 2.44677 4.42083 2.29955 4.81343C2.15234 5.20602 2.13492 5.63656 2.24993 6.04008C2.36494 6.4436 2.60613 6.7982 2.93711 7.05037C3.26809 7.30254 3.67089 7.4386 4.08473 7.43801H5.00506V8.37053C5.00671 8.38427 5.00941 8.39786 5.01314 8.41118C5.01439 8.45354 5.03005 8.49414 5.05747 8.5261C5.06337 8.53804 5.07017 8.5495 5.0778 8.56038C5.07913 8.56186 5.08109 8.5623 5.08246 8.56373C5.10507 8.58715 5.13157 8.60635 5.16075 8.62043C5.16526 8.62268 5.16872 8.62707 5.17332 8.62905C5.20771 8.64403 5.24474 8.65177 5.28216 8.65179H5.28227C5.3176 8.6515 5.35255 8.64434 5.38523 8.6307C5.39928 8.62352 5.41268 8.6151 5.42528 8.60554C5.44081 8.59784 5.45555 8.5886 5.4693 8.57796L6.77549 7.36419C6.77704 7.36277 6.77754 7.36068 6.77906 7.35924C6.79359 7.34327 6.80625 7.32565 6.81679 7.30673C6.82589 7.29509 6.83408 7.28274 6.84128 7.26981C6.84586 7.25557 6.84931 7.24099 6.85162 7.2262C6.85821 7.20565 6.86244 7.1844 6.86421 7.16286C6.86427 7.16072 6.86543 7.15891 6.86543 7.15676C6.86379 7.14304 6.86109 7.12947 6.85736 7.11617C6.85561 7.09554 6.85157 7.07517 6.84529 7.05547Z" fill="white"/>
<path d="M6.91496 3.56533H5.99463V2.63281C5.99299 2.61909 5.99029 2.60551 5.98655 2.59222C5.98482 2.57159 5.98077 2.55122 5.9745 2.53152C5.96586 2.51222 5.95504 2.49401 5.94226 2.47725C5.93634 2.46531 5.92953 2.45385 5.9219 2.44297C5.92052 2.44143 5.91854 2.44094 5.91713 2.43945C5.90133 2.42453 5.88385 2.41155 5.86506 2.40078C5.85366 2.39159 5.84156 2.38333 5.82888 2.37606C5.8153 2.37157 5.80139 2.36815 5.78728 2.36585C5.76658 2.35891 5.74513 2.35452 5.72339 2.35277C5.72133 2.35272 5.71962 2.35156 5.71755 2.35156C5.70436 2.3532 5.69131 2.35588 5.67853 2.35958C5.65785 2.36129 5.63744 2.36546 5.61772 2.372C5.59899 2.38067 5.5813 2.39149 5.56499 2.40424C5.55295 2.41039 5.54139 2.41746 5.53041 2.42539L4.9903 2.9273C4.9808 2.93498 4.97183 2.94332 4.96344 2.95224L4.22422 3.63917C4.22267 3.64059 4.22216 3.64268 4.22065 3.64412C4.20613 3.66004 4.1935 3.67763 4.183 3.69652C4.17387 3.70819 4.16565 3.72057 4.15843 3.73354C4.15387 3.74775 4.15042 3.7623 4.1481 3.77705C4.14151 3.79764 4.13728 3.81893 4.13549 3.8405C4.13544 3.84264 4.13428 3.8444 4.13428 3.8466C4.13593 3.86034 4.13863 3.87393 4.14235 3.88725C4.14409 3.90784 4.14814 3.92817 4.15441 3.94784C4.16304 3.96716 4.17387 3.98539 4.18667 4.00216C4.19258 4.0141 4.19938 4.02556 4.20701 4.03644C4.20834 4.03792 4.2103 4.03837 4.21167 4.03979C4.23428 4.06322 4.26078 4.08241 4.28996 4.09649C4.29446 4.09874 4.29794 4.10314 4.30253 4.10512C4.33692 4.1201 4.37394 4.12784 4.41137 4.12786H6.91496C7.20868 4.12731 7.4946 4.22378 7.72955 4.4027C7.9645 4.58161 8.13572 4.83326 8.21736 5.11965C8.299 5.40604 8.28662 5.71161 8.1821 5.99023C8.07759 6.26886 7.8866 6.50539 7.63797 6.66414C7.60722 6.68385 7.58058 6.70951 7.5596 6.73967C7.53861 6.76982 7.52368 6.80388 7.51566 6.83989C7.50764 6.8759 7.50669 6.91317 7.51285 6.94955C7.51902 6.98594 7.53219 7.02074 7.5516 7.05196C7.57102 7.08318 7.5963 7.11021 7.62601 7.13151C7.65572 7.15282 7.68927 7.16797 7.72475 7.17611C7.76023 7.18425 7.79694 7.18522 7.83279 7.17896C7.86864 7.1727 7.90292 7.15933 7.93368 7.13963C8.28391 6.91585 8.55293 6.58251 8.70014 6.18992C8.84735 5.79733 8.86477 5.36679 8.74976 4.96327C8.63476 4.55975 8.39356 4.20515 8.06259 3.95297C7.73161 3.7008 7.32881 3.56474 6.91496 3.56533L6.91496 3.56533Z" fill="white"/>
</svg>
