<svg width="21" height="21" viewBox="0 0 21 21" fill="none" xmlns="http://www.w3.org/2000/svg">
    <g clip-path="url(#clip0_19737_322514)">
        <path d="M12.6 7C12.5081 6.99998 12.4171 7.01807 12.3321 7.05324C12.2472 7.08841 12.17 7.13997 12.105 7.20497C12.04 7.26998 11.9884 7.34715 11.9533 7.43209C11.9181 7.51703 11.9 7.60807 11.9 7.7V13.3C11.9 13.4857 11.9738 13.6637 12.105 13.795C12.2363 13.9263 12.4144 14 12.6 14C12.7857 14 12.9637 13.9263 13.095 13.795C13.2263 13.6637 13.3 13.4857 13.3 13.3V7.7C13.3 7.60807 13.282 7.51703 13.2468 7.43209C13.2116 7.34715 13.1601 7.26998 13.0951 7.20497C13.03 7.13997 12.9529 7.08841 12.8679 7.05324C12.783 7.01807 12.692 6.99998 12.6 7Z"
              fill="#0696D6"/>
        <path d="M8.39995 7C8.30802 6.99998 8.21698 7.01807 8.13204 7.05324C8.04711 7.08841 7.96993 7.13997 7.90492 7.20497C7.83992 7.26998 7.78836 7.34715 7.75319 7.43209C7.71802 7.51703 7.69993 7.60807 7.69995 7.7V13.3C7.69995 13.4857 7.7737 13.6637 7.90498 13.795C8.03625 13.9263 8.2143 14 8.39995 14C8.5856 14 8.76365 13.9263 8.89493 13.795C9.0262 13.6637 9.09995 13.4857 9.09995 13.3V7.7C9.09998 7.60807 9.08189 7.51703 9.04672 7.43209C9.01155 7.34715 8.95999 7.26998 8.89498 7.20497C8.82997 7.13997 8.7528 7.08841 8.66786 7.05324C8.58292 7.01807 8.49188 6.99998 8.39995 7Z"
              fill="#0696D6"/>
        <path d="M10.5 0C8.4233 0 6.39323 0.615814 4.66652 1.76957C2.9398 2.92332 1.59399 4.5632 0.79927 6.48182C0.00454948 8.40045 -0.203386 10.5116 0.201759 12.5484C0.606904 14.5852 1.60693 16.4562 3.07538 17.9246C4.54383 19.3931 6.41475 20.3931 8.45156 20.7982C10.4884 21.2034 12.5996 20.9955 14.5182 20.2007C16.4368 19.406 18.0767 18.0602 19.2304 16.3335C20.3842 14.6068 21 12.5767 21 10.5C20.9969 7.71618 19.8897 5.04726 17.9212 3.0788C15.9527 1.11034 13.2838 0.00309786 10.5 0V0ZM9.1 13.3C9.1 13.4857 9.02625 13.6637 8.89498 13.795C8.7637 13.9263 8.58566 14 8.4 14C8.21435 14 8.0363 13.9263 7.90503 13.795C7.77375 13.6637 7.7 13.4857 7.7 13.3V7.7C7.7 7.51435 7.77375 7.3363 7.90503 7.20503C8.0363 7.07375 8.21435 7 8.4 7C8.58566 7 8.7637 7.07375 8.89498 7.20503C9.02625 7.3363 9.1 7.51435 9.1 7.7V13.3ZM13.3 13.3C13.3 13.4857 13.2263 13.6637 13.095 13.795C12.9637 13.9263 12.7857 14 12.6 14C12.4144 14 12.2363 13.9263 12.105 13.795C11.9738 13.6637 11.9 13.4857 11.9 13.3V7.7C11.9 7.51435 11.9738 7.3363 12.105 7.20503C12.2363 7.07375 12.4144 7 12.6 7C12.7857 7 12.9637 7.07375 13.095 7.20503C13.2263 7.3363 13.3 7.51435 13.3 7.7V13.3Z"
              fill="#F0FAFF"/>
    </g>
    <defs>
        <clipPath id="clip0_19737_322514">
            <rect width="21" height="21" fill="white"/>
        </clipPath>
    </defs>
</svg>
