<svg width="11" height="11" viewBox="0 0 11 11" fill="none" xmlns="http://www.w3.org/2000/svg">
<rect width="11" height="11" rx="5.5" fill="#FFD400"/>
<path d="M7.97333 2.61911H3.09667C2.97425 2.61911 2.875 2.51997 2.875 2.39745C2.875 2.27493 2.97425 2.17578 3.09667 2.17578H7.97333C8.09575 2.17578 8.195 2.27493 8.195 2.39745C8.195 2.51997 8.09575 2.61911 7.97333 2.61911Z" fill="#1B2746"/>
<path d="M7.97333 8.82615H3.09667C2.97425 8.82615 2.875 8.727 2.875 8.60448C2.875 8.48196 2.97425 8.38281 3.09667 8.38281H7.97333C8.09575 8.38281 8.195 8.48196 8.195 8.60448C8.195 8.727 8.09575 8.82615 7.97333 8.82615Z" fill="#1B2746"/>
<path d="M7.3968 8.82578H3.67284C3.55075 8.82578 3.45161 8.72707 3.45117 8.60476C3.45107 8.56255 3.45226 7.55683 3.84634 6.69808C4.11282 6.11729 4.41555 5.70816 4.58678 5.50078C4.41555 5.2934 4.11282 4.88427 3.84634 4.30348C3.45226 3.44474 3.45107 2.43901 3.45117 2.3968C3.45161 2.27449 3.55075 2.17578 3.67284 2.17578H7.3968C7.51889 2.17578 7.61803 2.27449 7.61846 2.3968C7.61857 2.43901 7.61738 3.44474 7.2233 4.30348C6.95682 4.88427 6.65408 5.2934 6.48286 5.50078C6.65408 5.70816 6.95682 6.11729 7.2233 6.69808C7.61738 7.55683 7.61857 8.56255 7.61846 8.60476C7.61803 8.72707 7.51889 8.82578 7.3968 8.82578ZM3.90382 8.38245H7.16582C7.14374 8.05623 7.06949 7.42586 6.82044 6.88295C6.46478 6.10798 6.03346 5.6601 6.02924 5.65556C5.94547 5.56962 5.94547 5.43194 6.02924 5.346C6.03346 5.34146 6.46478 4.89358 6.82044 4.11861C7.06949 3.5757 7.14374 2.94534 7.16582 2.61911H3.90382C3.9259 2.94534 4.00015 3.5757 4.2492 4.11861C4.60486 4.89358 5.03618 5.34146 5.0404 5.346C5.12417 5.43194 5.12417 5.56962 5.0404 5.65556C5.03618 5.6601 4.60486 6.10798 4.2492 6.88295C4.00015 7.42586 3.9259 8.05623 3.90382 8.38245Z" fill="#1B2746"/>
<path d="M4.47656 7.93636C4.47656 7.93636 4.47472 7.37393 4.68977 6.90524C4.90482 6.43655 5.25545 6.17188 5.53525 6.17188C5.81506 6.17188 6.16569 6.43655 6.38073 6.90524C6.59578 7.37393 6.59394 7.93636 6.59394 7.93636H4.47656V7.93636Z" fill="#1B2746"/>
</svg>
