<svg width="21" height="21" viewBox="0 0 21 21" fill="none" xmlns="http://www.w3.org/2000/svg">
<path d="M10.9604 8.23557L9.66826 7.3337C9.56857 7.26411 9.45171 7.22318 9.33038 7.21537C9.20905 7.20755 9.0879 7.23314 8.98011 7.28936C8.87231 7.34558 8.78199 7.43028 8.71896 7.53424C8.65593 7.63821 8.62261 7.75746 8.62262 7.87904V13.1211C8.62261 13.2427 8.65593 13.3619 8.71896 13.4659C8.78199 13.5699 8.87231 13.6546 8.98011 13.7108C9.0879 13.767 9.20905 13.7926 9.33038 13.7848C9.45171 13.777 9.56857 13.736 9.66826 13.6665L10.9604 12.7646L13.4231 11.0453C13.5109 10.984 13.5826 10.9024 13.6321 10.8075C13.6817 10.7125 13.7075 10.6071 13.7075 10.5C13.7075 10.3929 13.6817 10.2874 13.6321 10.1925C13.5826 10.0976 13.5109 10.016 13.4231 9.95473L10.9604 8.23557Z" fill="#0696D6"/>
<path d="M10.5 0.525024C8.52716 0.525024 6.5986 1.11005 4.95822 2.20612C3.31784 3.30218 2.03931 4.86006 1.28433 6.68276C0.529346 8.50545 0.331808 10.5111 0.716696 12.4461C1.10158 14.381 2.05161 16.1584 3.44664 17.5534C4.84167 18.9484 6.61904 19.8985 8.554 20.2834C10.489 20.6682 12.4946 20.4707 14.3173 19.7157C16.14 18.9607 17.6979 17.6822 18.7939 16.0418C19.89 14.4015 20.475 12.4729 20.475 10.5C20.4721 7.85539 19.4202 5.31992 17.5502 3.44988C15.6801 1.57985 13.1447 0.527967 10.5 0.525024V0.525024ZM13.4231 11.0452L10.9603 12.7645L9.66825 13.6664C9.56855 13.736 9.45169 13.7769 9.33037 13.7847C9.20904 13.7926 9.08789 13.767 8.98009 13.7107C8.8723 13.6545 8.78197 13.5698 8.71895 13.4659C8.65592 13.3619 8.6226 13.2426 8.62261 13.1211V7.87899C8.6226 7.75741 8.65592 7.63815 8.71895 7.53419C8.78197 7.43022 8.8723 7.34553 8.98009 7.28931C9.08789 7.23309 9.20904 7.20749 9.33037 7.21531C9.45169 7.22313 9.56855 7.26406 9.66825 7.33365L10.9603 8.23552L13.4231 9.95468C13.5109 10.016 13.5826 10.0975 13.6321 10.1925C13.6816 10.2874 13.7075 10.3929 13.7075 10.4999C13.7075 10.607 13.6816 10.7125 13.6321 10.8074C13.5826 10.9024 13.5109 10.9839 13.4231 11.0452Z" fill="#F0FAFF"/>
</svg>
