<svg width="16" height="25" viewBox="0 0 16 25" fill="none" xmlns="http://www.w3.org/2000/svg">
<path d="M7.77 0C10.15 0 12.0517 0.653333 13.475 1.96C14.9217 3.26667 15.645 5.05167 15.645 7.315C15.645 9.67167 14.8983 11.445 13.405 12.635C11.9117 13.825 9.92833 14.42 7.455 14.42L7.315 17.185H3.85L3.675 11.69H4.83C7.09333 11.69 8.82 11.3867 10.01 10.78C11.2233 10.1733 11.83 9.01833 11.83 7.315C11.83 6.07833 11.4683 5.11 10.745 4.41C10.045 3.71 9.065 3.36 7.805 3.36C6.545 3.36 5.55333 3.69833 4.83 4.375C4.10667 5.05167 3.745 5.99667 3.745 7.21H0C0 5.81 0.315 4.56167 0.945 3.465C1.575 2.36833 2.47333 1.51667 3.64 0.910001C4.83 0.303334 6.20667 0 7.77 0ZM5.53 24.92C4.80667 24.92 4.2 24.675 3.71 24.185C3.22 23.695 2.975 23.0883 2.975 22.365C2.975 21.6417 3.22 21.035 3.71 20.545C4.2 20.055 4.80667 19.81 5.53 19.81C6.23 19.81 6.825 20.055 7.315 20.545C7.805 21.035 8.05 21.6417 8.05 22.365C8.05 23.0883 7.805 23.695 7.315 24.185C6.825 24.675 6.23 24.92 5.53 24.92Z" fill="#FFD400"/>
</svg>
