<svg width="40" height="40" viewBox="0 0 40 40" fill="none" xmlns="http://www.w3.org/2000/svg">
<path d="M22.5 20.625C22.8452 20.625 23.125 20.3452 23.125 20C23.125 19.6548 22.8452 19.375 22.5 19.375H17.5C17.1548 19.375 16.875 19.6548 16.875 20C16.875 20.3452 17.1548 20.625 17.5 20.625H22.5Z" fill="#1B2746"/>
<path fill-rule="evenodd" clip-rule="evenodd" d="M20.0477 11.0415H19.952C18.0284 11.0415 16.5208 11.0415 15.3446 11.1996C14.1406 11.3615 13.1906 11.6993 12.445 12.445C11.6993 13.1906 11.3615 14.1406 11.1996 15.3446C11.0415 16.5208 11.0415 18.0284 11.0415 19.952V20.0477C11.0415 21.9713 11.0415 23.4788 11.1996 24.6551C11.3615 25.859 11.6993 26.8091 12.445 27.5548C13.1906 28.3004 14.1406 28.6382 15.3446 28.8001C16.5208 28.9582 18.0284 28.9582 19.952 28.9582H20.0477C21.9713 28.9582 23.4788 28.9582 24.6551 28.8001C25.859 28.6382 26.8091 28.3004 27.5548 27.5548C28.3004 26.8091 28.6382 25.859 28.8001 24.6551C28.9582 23.4788 28.9582 21.9713 28.9582 20.0477V19.952C28.9582 18.0284 28.9582 16.5208 28.8001 15.3446C28.6382 14.1406 28.3004 13.1906 27.5548 12.445C26.8091 11.6993 25.859 11.3615 24.6551 11.1996C23.4788 11.0415 21.9713 11.0415 20.0477 11.0415ZM13.3288 13.3288C13.8035 12.8541 14.4458 12.5817 15.5112 12.4385C16.5945 12.2928 18.018 12.2915 19.9998 12.2915C21.9817 12.2915 23.4052 12.2928 24.4885 12.4385C25.5538 12.5817 26.1961 12.8541 26.6708 13.3288C27.1456 13.8035 27.418 14.4458 27.5612 15.5112C27.7068 16.5945 27.7082 18.018 27.7082 19.9998C27.7082 21.9817 27.7068 23.4052 27.5612 24.4885C27.418 25.5538 27.1456 26.1961 26.6708 26.6708C26.1961 27.1456 25.5538 27.418 24.4885 27.5612C23.4052 27.7068 21.9817 27.7082 19.9998 27.7082C18.018 27.7082 16.5945 27.7068 15.5112 27.5612C14.4458 27.418 13.8035 27.1456 13.3288 26.6708C12.8541 26.1961 12.5817 25.5538 12.4385 24.4885C12.2928 23.4052 12.2915 21.9817 12.2915 19.9998C12.2915 18.018 12.2928 16.5945 12.4385 15.5112C12.5817 14.4458 12.8541 13.8035 13.3288 13.3288Z" fill="#1B2746"/>
</svg>
