<svg width="29" height="29" viewBox="0 0 29 29" fill="none" xmlns="http://www.w3.org/2000/svg">
<path fill-rule="evenodd" clip-rule="evenodd" d="M18.8305 25.3802C19.2916 25.3802 19.7166 25.397 20.1398 25.3762C20.7357 25.3468 21.3448 25.3568 21.9226 25.2314C23.4591 24.8981 24.6118 23.4524 24.6159 21.8835C24.6269 17.6895 24.628 13.4953 24.6156 9.30131C24.6106 7.59404 23.2446 6.08176 21.5522 5.86563C21.2382 5.82559 20.9182 5.79791 20.6032 5.81262C20.3162 5.82603 20.2418 5.72197 20.2591 5.45441C20.2802 5.12894 20.2752 4.80069 20.2615 4.47452C20.2532 4.27751 20.3155 4.17068 20.4988 4.07506C21.4921 3.55667 21.9265 2.55188 21.6263 1.51435C21.4034 0.744148 20.6112 0.0905938 19.8548 0.0130129C18.7254 -0.102759 17.9479 0.575202 17.6562 1.20255C17.1461 2.2998 17.5373 3.49577 18.6137 4.05414C18.8193 4.16076 18.879 4.27822 18.8718 4.4926C18.8577 4.91652 18.8677 5.34125 18.8677 5.78495C15.9452 5.78495 13.0541 5.78495 10.1218 5.78495C10.1218 5.27223 10.1144 4.75929 10.1319 4.24711C10.1339 4.1868 10.2666 4.1193 10.3493 4.07506C11.2771 3.57896 11.7274 2.61715 11.4886 1.63219C11.2718 0.738318 10.447 0.0643339 9.56287 0.00631165C8.50441 -0.0630427 7.65723 0.619114 7.37115 1.46281C7.0599 2.38048 7.39725 3.44286 8.23337 3.91167C8.66229 4.15215 8.76913 4.42695 8.7219 4.85692C8.70021 5.05425 8.70207 5.25757 8.7219 5.45523C8.74881 5.72387 8.66333 5.80979 8.37976 5.81519C7.92936 5.82379 7.47036 5.85561 7.0325 5.95498C5.54053 6.29369 4.37028 7.74648 4.36636 9.27358C4.35584 13.4675 4.35383 17.6617 4.36592 21.8556C4.37104 23.602 5.72572 25.1006 7.4563 25.322C7.73443 25.3576 8.01653 25.3765 8.297 25.3779C9.47711 25.3838 10.6573 25.3741 11.8373 25.3866C12.0165 25.3885 12.2187 25.4392 12.3698 25.5327C14.1373 26.6246 15.8986 27.7266 17.6572 28.833C17.917 28.9964 18.176 29.0622 18.4491 28.9126C18.7304 28.7584 18.8324 28.495 18.8315 28.1808C18.8287 27.2647 18.8305 26.3485 18.8305 25.3802ZM14.504 20.3913C13.9266 20.3415 13.3486 20.2988 12.7722 20.2404C11.5059 20.1123 10.3077 19.7377 9.15518 19.2101C9.02775 19.1518 8.9013 19.0608 8.81299 18.9532C8.58259 18.6726 8.59517 18.3135 8.81931 18.0252C9.02906 17.7556 9.39708 17.6588 9.75469 17.8276C10.7983 18.3205 11.8954 18.6038 13.0374 18.7463C14.4577 18.9235 15.8659 18.8563 17.2483 18.5054C17.9379 18.3304 18.5998 18.0454 19.2731 17.8068C19.6271 17.6813 19.9733 17.7695 20.1759 18.0448C20.3925 18.3391 20.4011 18.706 20.1548 18.9705C20.0305 19.1042 19.8533 19.2017 19.6833 19.2777C18.0369 20.013 16.3091 20.3655 14.504 20.3913ZM18.1209 10.126C19.2632 10.1252 20.1841 10.9454 20.3224 12.0869C20.3866 12.6163 20.1226 13.0176 19.6689 13.0805C19.2306 13.1414 18.8992 12.8324 18.8283 12.2973C18.7748 11.8922 18.4785 11.6265 18.0948 11.6395C17.7193 11.6522 17.4857 11.9071 17.4286 12.3264C17.4074 12.4823 17.3543 12.6491 17.2668 12.7776C17.0755 13.0583 16.7352 13.1481 16.4216 13.0374C16.1047 12.9256 15.9124 12.6419 15.908 12.2796C15.8941 11.1168 16.9112 10.1269 18.1209 10.126ZM10.8596 10.1268C12.0629 10.128 13.0605 11.0853 13.0737 12.2512C13.0789 12.7054 12.7732 13.0572 12.3502 13.084C11.9369 13.1101 11.589 12.7825 11.548 12.3287C11.5091 11.898 11.2499 11.6371 10.8622 11.6383C10.4786 11.6395 10.1634 11.9131 10.1605 12.3227C10.1571 12.7889 9.72429 13.1207 9.34298 13.0837C8.90348 13.0411 8.60945 12.6541 8.65091 12.1705C8.75213 10.9889 9.68523 10.1255 10.8596 10.1268Z" fill="white"/>
<path fill-rule="evenodd" clip-rule="evenodd" d="M26.166 11.6523C26.166 14.0507 26.166 16.4251 26.166 18.7977C27.8142 19.1026 28.9823 17.999 28.9805 16.7048C28.9792 15.7248 28.9841 14.7447 28.9792 13.7645C28.9736 12.6567 28.1701 11.7654 27.0689 11.6567C26.7755 11.6277 26.477 11.6523 26.166 11.6523Z" fill="white"/>
<path fill-rule="evenodd" clip-rule="evenodd" d="M2.81544 18.8414C2.82155 18.7118 2.83016 18.6145 2.83016 18.5173C2.83059 16.3214 2.82612 14.1255 2.83544 11.9296C2.83647 11.6831 2.75786 11.6313 2.52577 11.6264C1.83255 11.6116 1.18461 11.7098 0.66497 12.2219C0.246774 12.6339 0.00378799 13.1259 0.00242591 13.7216C0.000137806 14.7106 -0.00127602 15.6997 0.00188398 16.6888C0.00558853 17.8542 0.923375 18.7968 2.09504 18.8401C2.32811 18.8487 2.56184 18.8414 2.81544 18.8414Z" fill="white"/>
</svg>
