<svg width="40" height="40" viewBox="0 0 40 40" fill="none" xmlns="http://www.w3.org/2000/svg">
<path fill-rule="evenodd" clip-rule="evenodd" d="M3.5 11.6667C3.5 10.8382 4.17157 10.1667 5 10.1667H35C35.8284 10.1667 36.5 10.8382 36.5 11.6667C36.5 12.4951 35.8284 13.1667 35 13.1667H5C4.17157 13.1667 3.5 12.4951 3.5 11.6667ZM8.5 20C8.5 19.1716 9.17157 18.5 10 18.5H30C30.8284 18.5 31.5 19.1716 31.5 20C31.5 20.8284 30.8284 21.5 30 21.5H10C9.17157 21.5 8.5 20.8284 8.5 20ZM15.1667 28.3333C15.1667 27.5049 15.8382 26.8333 16.6667 26.8333H23.3333C24.1618 26.8333 24.8333 27.5049 24.8333 28.3333C24.8333 29.1618 24.1618 29.8333 23.3333 29.8333H16.6667C15.8382 29.8333 15.1667 29.1618 15.1667 28.3333Z" fill="#1E272F"/>
</svg>
