<svg width="85" height="85" viewBox="0 0 85 85" fill="none" xmlns="http://www.w3.org/2000/svg">
<path fill-rule="evenodd" clip-rule="evenodd" d="M42.325 4.69995C43.7747 4.69995 44.95 5.87522 44.95 7.32495V8.20496C45.3392 8.21084 45.6714 8.22358 45.9811 8.25098C52.3168 8.81123 57.3386 13.8333 57.899 20.1688C57.9501 20.7479 57.9501 21.4039 57.9501 22.3674V26.6485C57.9501 40.191 47.6457 51.3266 34.45 52.6433V59.8253C34.45 68.0405 41.1098 74.7003 49.325 74.7003H52.4134C56.7888 74.7003 60.6115 72.3143 62.645 68.7702C57.4457 67.0248 53.7 62.1122 53.7 56.3249C53.7 49.0761 59.5762 43.2 66.825 43.2C74.0739 43.2 79.95 49.0761 79.95 56.3249C79.95 63.1167 74.7914 68.7034 68.1788 69.381C65.6322 75.5813 59.5359 79.9503 52.4134 79.9503H49.325C38.2104 79.9503 29.2 70.9399 29.2 59.8253V52.6482C15.451 51.3277 4.70004 39.7437 4.70004 25.6485L4.70001 22.3676C4.6999 21.404 4.69983 20.7479 4.75104 20.1688C5.31128 13.8333 10.3334 8.81123 16.6689 8.25098C17.2138 8.20279 17.8268 8.20002 18.7 8.19992V7.32495C18.7 5.87522 19.8753 4.69995 21.325 4.69995C22.7748 4.69995 23.95 5.87522 23.95 7.32495V14.325C23.95 15.7747 22.7748 16.95 21.325 16.95C19.8753 16.95 18.7 15.7747 18.7 14.325V13.45C17.7781 13.4507 17.4188 13.4551 17.1313 13.4806C13.3301 13.8167 10.3168 16.83 9.98063 20.6313C9.9526 20.9484 9.95004 21.353 9.95004 22.5041V25.6485C9.95004 37.7298 19.7438 47.5235 31.825 47.5235C43.354 47.5235 52.7001 38.1775 52.7001 26.6485V22.5041C52.7001 21.353 52.6976 20.9484 52.6693 20.6313C52.3333 16.83 49.3201 13.8167 45.5188 13.4806C45.3707 13.4675 45.2034 13.4599 44.95 13.4556V14.325C44.95 15.7747 43.7747 16.95 42.325 16.95C40.8753 16.95 39.7 15.7747 39.7 14.325V7.32495C39.7 5.87522 40.8753 4.69995 42.325 4.69995ZM58.95 56.3249C58.95 51.9758 62.4759 48.45 66.825 48.45C71.1741 48.45 74.7 51.9758 74.7 56.3249C74.7 60.674 71.1741 64.1999 66.825 64.1999C62.4759 64.1999 58.95 60.674 58.95 56.3249Z" fill="#C9C8C8"/>
</svg>
