<svg xmlns="http://www.w3.org/2000/svg" shape-rendering="geometricPrecision" text-rendering="geometricPrecision" image-rendering="optimizeQuality" fill-rule="evenodd" clip-rule="evenodd" viewBox="0 0 404 511.53"><path fill-rule="nonzero" d="M328.22 375.84c0-11.91-2.08-22.4-6.22-31.44-4.1-8.94-10.34-16.85-18.71-23.68-3.29-2.68-7.22-5.44-11.79-8.26h75.92c1.31 2.32 2.53 4.7 3.67 7.12 7.73 16.42 11.61 34.97 11.61 55.61 0 21.22-4.43 40.36-13.27 57.43s-21.94 31.73-39.26 43.94c-16.66 11.71-35.35 20.51-56.08 26.35-20.32 5.74-42.47 8.62-66.44 8.62-24.53 0-47.65-2.97-69.3-8.87-21.81-5.95-41.86-14.86-60.11-26.71-19.23-12.44-33.62-26.07-43.29-43.71-9.64-17.58-14.14-38.38-13.52-65.03l.72-4.84 4.46-15.12h46.53v18.48c0 17.45 2.97 30.15 8.91 40.03 5.98 9.97 15.54 18.08 28.48 26.03 13.89 8.53 28.86 14.92 44.88 19.16 16.15 4.29 33.56 6.42 52.24 6.42 18.72 0 35.55-2.09 50.49-6.25 14.56-4.06 27.51-10.13 38.84-18.18 10.67-7.57 18.57-16.12 23.7-25.6 5.03-9.28 7.54-19.79 7.54-31.5zM0 290.9v-56.22h404v56.22H0zm64.05-77.79a102.156 102.156 0 0 1-19.17-28.09C37.64 169.35 34 151.53 34 131.58c0-20.15 4.32-38.48 12.93-54.96 8.55-16.38 21.2-30.53 37.91-42.45 16.13-11.46 34.43-20.06 54.87-25.77C159.74 2.81 181.67 0 205.49 0c24.46 0 46.88 3.48 67.22 10.42 20.65 7.05 39.05 17.69 55.16 31.9 16.03 14.15 28.05 27.93 36.12 44.08 8.24 16.5 12.11 34.88 11.6 57.82l-.93 5.41-4.88 14.65h-46.21V145.8c0-14.13-2.45-24.81-7.31-33.94-5.18-9.74-13.43-18.7-24.54-28.62-10.72-9.58-23.19-16.82-37.36-21.71-14.46-4.98-30.76-7.48-48.87-7.48-19.31 0-36.39 2.09-51.24 6.27-14.28 4.02-26.6 9.99-36.94 17.91-10.02 7.7-17.48 16.06-22.35 25.05-4.6 8.47-6.9 17.7-6.9 27.65 0 10.43 1.94 19.83 5.82 28.21 3.91 8.42 9.89 16.09 17.95 22.99l.08.07c8.01 6.93 19.5 13.67 34.42 20.2 8.37 3.66 17.79 7.23 28.25 10.71H64.05z"/></svg>