<svg width="24" height="24" viewBox="0 0 24 24" fill="none" xmlns="http://www.w3.org/2000/svg">
<path fill-rule="evenodd" clip-rule="evenodd" d="M14.4231 5.41622C14.6412 4.86126 15.4251 4.86126 15.6432 5.41622L15.9285 6.14236L16.6517 6.4286C17.2045 6.64747 17.2045 7.43142 16.6517 7.65029L15.9285 7.93654L15.6432 8.66267C15.4251 9.21763 14.6412 9.21764 14.4231 8.66268L14.1378 7.93654L13.4147 7.65029C12.8618 7.43143 12.8618 6.64747 13.4147 6.4286L14.1378 6.14236L14.4231 5.41622ZM15.0331 5.68659L15.3097 6.39022C15.3761 6.55927 15.5096 6.69351 15.6787 6.76049L16.3834 7.03945L15.6787 7.31841C15.5096 7.38539 15.3761 7.51962 15.3097 7.68867L15.0331 8.3923L14.7567 7.68867C14.6903 7.51962 14.5567 7.38539 14.3875 7.31841L13.6828 7.03945L14.3875 6.76049C14.5567 6.69351 14.6903 6.55927 14.7567 6.39022L15.0331 5.68659Z" fill="#1B2746"/>
<path fill-rule="evenodd" clip-rule="evenodd" d="M6.20946 6.20946C7.15542 5.26351 8.6891 5.26351 9.63506 6.20946L17.7905 14.3649C18.7365 15.3109 18.7365 16.8446 17.7905 17.7905C16.8446 18.7365 15.3109 18.7365 14.3649 17.7905L6.20946 9.63506C5.26351 8.6891 5.26351 7.15542 6.20946 6.20946ZM8.92795 6.91657C8.37252 6.36114 7.472 6.36114 6.91657 6.91657C6.36114 7.472 6.36114 8.37252 6.91657 8.92795L7.97409 9.98547L9.98547 7.97409L8.92795 6.91657ZM15.0721 17.0834L8.6812 10.6926L10.6926 8.6812L17.0834 15.0721C17.6389 15.6275 17.6389 16.528 17.0834 17.0834C16.528 17.6389 15.6275 17.6389 15.0721 17.0834Z" fill="#1B2746"/>
<path fill-rule="evenodd" clip-rule="evenodd" d="M18.2214 9.96455C18.0033 9.4096 17.2193 9.4096 17.0012 9.96455L16.8982 10.2267L16.6374 10.33C16.0844 10.5489 16.0844 11.3328 16.6374 11.5517L16.8982 11.655L17.0012 11.9172C17.2193 12.4721 18.0033 12.4721 18.2214 11.9172L18.3244 11.655L18.5852 11.5517C19.1381 11.3328 19.1381 10.5489 18.5852 10.33L18.3244 10.2267L18.2214 9.96455ZM17.6113 10.2349L17.5171 10.4746C17.4507 10.6437 17.3172 10.7779 17.148 10.8449L16.9056 10.9408L17.148 11.0368C17.3172 11.1038 17.4507 11.238 17.5171 11.4071L17.6113 11.6468L17.7055 11.4071C17.7719 11.238 17.9054 11.1038 18.0746 11.0368L18.317 10.9408L18.0746 10.8449C17.9054 10.7779 17.7719 10.6437 17.7055 10.4746L17.6113 10.2349Z" fill="#1B2746"/>
<path fill-rule="evenodd" clip-rule="evenodd" d="M7.11206 14.0827C7.33012 13.5278 8.11408 13.5278 8.33214 14.0827L8.43517 14.3449L8.69602 14.4482C9.24893 14.667 9.24893 15.451 8.69602 15.6698L8.43517 15.7731L8.33214 16.0353C8.11408 16.5902 7.33012 16.5902 7.11206 16.0353L7.00903 15.7731L6.74818 15.6698C6.19527 15.451 6.19527 14.667 6.74818 14.4482L7.00903 14.3449L7.11206 14.0827ZM7.62792 14.5928L7.7221 14.3531L7.81628 14.5928C7.8827 14.7618 8.01621 14.896 8.1854 14.963L8.42786 15.059L8.1854 15.155C8.01621 15.222 7.8827 15.3562 7.81628 15.5252L7.7221 15.7649L7.62792 15.5252C7.5615 15.3562 7.42799 15.222 7.2588 15.155L7.01634 15.059L7.2588 14.963C7.42799 14.896 7.5615 14.7618 7.62792 14.5928Z" fill="#1B2746"/>
</svg>
