<svg width="34" height="38" viewBox="0 0 34 38" fill="none" xmlns="http://www.w3.org/2000/svg">
<path fill-rule="evenodd" clip-rule="evenodd" d="M9.00731 4.97507C8.37157 6.26655 8.07023 7.63025 8.05738 9.29605C8.06327 9.35801 8.07141 9.43642 8.0808 9.52691C8.10662 9.7757 8.14193 10.1159 8.16606 10.4568C8.27112 11.9462 8.58242 13.3938 9.08957 14.7977C9.61808 16.2609 10.3597 17.6095 11.399 18.7868C12.4143 19.9367 13.6154 20.8167 15.1182 21.2484C15.9375 21.4838 16.7734 21.5458 17.6183 21.4269C19.0501 21.2253 20.27 20.5826 21.3354 19.64C22.7525 18.3862 23.7056 16.824 24.3855 15.089C24.9417 13.6702 25.2525 12.1945 25.404 10.682C25.4945 9.77991 25.5694 8.88227 25.4607 7.97452C25.3151 6.75597 24.9559 5.60707 24.35 4.53964C23.347 2.77257 21.9144 1.46186 20.0217 0.657661C18.6562 0.077514 17.2331 -0.118052 15.7597 0.0679707C14.0479 0.283906 12.5481 0.975153 11.247 2.08417C10.2987 2.8925 9.55602 3.86008 9.00731 4.97507ZM8.89445 20.4054C8.82247 20.4806 8.54178 20.6555 8.22108 20.8293C7.84298 21.0342 7.38742 21.144 7.01951 21.2326C6.81592 21.2817 6.63917 21.3243 6.51725 21.373C5.83041 21.6471 4.70527 22.1353 4.14873 22.5926C2.76914 23.7264 1.7022 25.1109 0.978078 26.7611C0.0923855 28.7795 -0.211223 30.882 0.147104 33.0692C0.284834 33.9101 0.59907 34.6821 1.13161 35.3498C1.86061 36.2639 2.84554 36.7517 3.93087 37.0586C5.20031 37.4175 6.50522 37.5275 7.81415 37.5635C9.13961 37.5997 10.4665 37.6012 11.7927 37.5997C14.4781 37.5967 17.1637 37.5905 19.8492 37.5842C21.626 37.58 23.4027 37.5759 25.1794 37.5727C26.2724 37.5708 27.3593 37.4923 28.4386 37.3204C29.4292 37.1627 30.3902 36.9022 31.2628 36.3759C31.9799 35.9432 32.5379 35.3562 32.9228 34.5998C33.3708 33.7192 33.5317 32.7704 33.5646 31.7935C33.6189 30.1855 33.3545 28.635 32.7566 27.1412C32.2847 25.9616 31.6341 24.8975 30.8132 23.9417C30.2762 23.3165 29.675 22.7575 29.0116 22.2718C28.4196 21.8386 24.9169 20.299 24.4875 20.3005C24.4779 20.3005 24.4684 20.2972 24.4588 20.2938C24.4518 20.2914 24.4447 20.2889 24.4375 20.2878C24.1338 20.2416 23.8299 20.1957 23.5182 20.1486C23.4611 20.6815 23.2136 21.0961 22.9361 21.4897C22.2616 22.4471 21.4455 23.2764 20.5874 24.0582C19.8556 24.7247 19.1006 25.3649 18.3458 26.0049C18.215 26.1158 18.0842 26.2267 17.9536 26.3377C17.694 26.5583 17.4246 26.767 17.156 26.975C17.0345 27.0692 16.9131 27.1632 16.7929 27.2581C16.7697 27.2413 16.7482 27.2263 16.7281 27.2122C16.6886 27.1846 16.6542 27.1605 16.622 27.1339C16.3291 26.8913 16.0352 26.6501 15.7413 26.4088C15.04 25.8333 14.3387 25.2577 13.6524 24.6642C12.7128 23.8517 11.8185 22.9866 11.0346 22.0135C10.5949 21.4676 10.1633 20.9112 10.0481 20.1429C9.96574 20.1566 9.88344 20.17 9.80124 20.1835C9.53913 20.2264 9.27799 20.2692 9.01767 20.3167C8.97258 20.3247 8.92949 20.3689 8.89445 20.4054Z" fill="#0696D6"/>
</svg>
