<svg width="17" height="18" viewBox="0 0 17 18" fill="none" xmlns="http://www.w3.org/2000/svg">
<path fill-rule="evenodd" clip-rule="evenodd" d="M3.57663 7.86711C3.57663 5.94212 3.57663 4.0482 3.57663 2.13873C3.16563 2.13873 2.75995 2.13873 2.32592 2.13873C2.32592 2.21057 2.32592 2.27966 2.32592 2.34878C2.32596 3.42732 2.32596 4.50586 2.326 5.5844C2.326 5.63801 2.32631 5.69165 2.32604 5.74529C2.32481 5.98682 2.21142 6.13036 2.02462 6.12693C1.84375 6.1236 1.7346 5.98464 1.73375 5.75384C1.73287 5.49765 1.73349 5.24139 1.73349 4.98516C1.73349 4.09733 1.73322 3.20947 1.73372 2.32161C1.73395 1.8628 2.04369 1.5741 2.53549 1.57331C2.8307 1.57285 3.126 1.57002 3.4211 1.57485C3.52929 1.57664 3.58672 1.55315 3.63413 1.44797C3.76786 1.1513 4.01582 0.999821 4.37112 1C7.74686 1.0015 11.1226 1.00082 14.4983 1.00107C14.9457 1.00111 15.2665 1.30243 15.2667 1.72476C15.2673 3.69714 15.2689 5.66951 15.2634 7.64186C15.2629 7.80389 15.2883 7.88728 15.4832 7.94117C16.0938 8.11003 16.4987 8.64297 16.499 9.23335C16.5 11.2831 16.5005 13.3329 16.4991 15.3826C16.4985 16.2687 15.7133 16.999 14.7596 16.9993C10.5881 17.0003 6.4165 17.0003 2.24497 16.999C1.28775 16.9987 0.502618 16.2729 0.501616 15.3866C0.499344 13.3308 0.499498 11.275 0.501886 9.21922C0.502733 8.47916 1.16446 7.87065 1.96423 7.86743C2.4263 7.86557 2.8884 7.86704 3.35047 7.86704C3.41956 7.86711 3.48854 7.86711 3.57663 7.86711ZM8.48242 16.4495C10.6001 16.4495 12.7178 16.4505 14.8355 16.4489C15.4465 16.4484 15.9039 16.0465 15.905 15.4968C15.9092 13.3757 15.9083 11.2545 15.9056 9.1334C15.9051 8.71943 15.5849 8.42555 15.1413 8.41811C14.9039 8.41414 14.6663 8.41368 14.429 8.41811C14.2301 8.42183 14.1059 8.34877 14.0436 8.16532C13.8857 7.70057 13.7134 7.24009 13.5534 6.77591C13.4151 6.37457 13.0767 6.13018 12.6241 6.12954C11.1289 6.12736 9.63364 6.12718 8.13844 6.12958C7.68527 6.13033 7.3498 6.37582 7.21858 6.78296C7.07735 7.22124 6.93349 7.65881 6.78879 8.09612C6.69605 8.37641 6.63223 8.41722 6.30404 8.41722C4.86018 8.41718 3.41633 8.41679 1.97247 8.41718C1.38612 8.41736 1.09375 8.68589 1.09363 9.22516C1.09321 11.2807 1.09313 13.3364 1.09386 15.392C1.09409 16.0647 1.51399 16.4494 2.24485 16.4495C4.32409 16.4496 6.40325 16.4496 8.48242 16.4495ZM14.6629 1.56259C11.1596 1.56259 7.67853 1.56259 4.1889 1.56259C4.1889 3.66674 4.1889 5.75927 4.1889 7.85903C4.25939 7.86211 4.31604 7.86683 4.3727 7.86675C4.96298 7.86586 5.55334 7.8674 6.14343 7.85706C6.19389 7.85617 6.26891 7.7834 6.28802 7.73026C6.40557 7.40301 6.51514 7.07308 6.6184 6.74162C6.84371 6.01825 7.47093 5.57529 8.28156 5.575C9.68035 5.57453 11.0794 5.58845 12.4778 5.56896C13.1954 5.55898 13.9416 6.01081 14.1536 6.72817C14.2536 7.06622 14.3851 7.39636 14.5078 7.72829C14.527 7.78011 14.5758 7.82248 14.6109 7.86922C14.6282 7.8601 14.6456 7.85102 14.6629 7.8419C14.6629 5.75344 14.6629 3.66495 14.6629 1.56259Z" fill="white" stroke="white" stroke-width="0.5"/>
<path fill-rule="evenodd" clip-rule="evenodd" d="M11.0038 11.9256C11.3282 11.5739 11.6526 11.2223 11.9769 10.8706C12.0269 10.8163 12.0742 10.7597 12.1273 10.7081C12.2453 10.5935 12.4257 10.5766 12.5417 10.666C12.675 10.7688 12.6862 10.9186 12.5639 11.0616C12.4682 11.1735 12.3647 11.2795 12.2651 11.3885C11.8127 11.8832 11.3606 12.3781 10.908 12.8727C10.7618 13.0323 10.5852 13.043 10.4268 12.8958C9.83281 12.3441 9.2401 11.7911 8.6487 11.237C8.48274 11.0815 8.47095 10.9401 8.60379 10.8155C8.73659 10.6909 8.89138 10.7006 9.05761 10.8535C9.4314 11.197 9.80176 11.5438 10.1742 11.8886C10.2219 11.9328 10.2737 11.9733 10.3609 12.0469C10.3609 11.9409 10.3609 11.8784 10.3609 11.8158C10.3609 10.8332 10.3609 9.85051 10.361 8.86784C10.361 8.82021 10.358 8.77229 10.3623 8.72498C10.3771 8.56409 10.5007 8.44458 10.6522 8.44147C10.8102 8.43821 10.939 8.5627 10.9524 8.73335C10.9556 8.77483 10.9533 8.8167 10.9533 8.8584C10.9533 9.81128 10.9533 10.7642 10.9533 11.717C10.9533 11.7808 10.9533 11.8446 10.9533 11.9085C10.9702 11.9141 10.987 11.9199 11.0038 11.9256Z" fill="white" stroke="white" stroke-width="0.5"/>
<path fill-rule="evenodd" clip-rule="evenodd" d="M10.6566 14.7333C11.433 14.7334 12.2095 14.7332 12.9859 14.7334C13.265 14.7335 13.4202 14.8345 13.4166 15.0123C13.4129 15.1887 13.2605 15.2827 12.977 15.2833C12.9449 15.2834 12.9129 15.2834 12.8807 15.2834C12.0595 15.2834 11.2381 15.2835 10.4167 15.2834C9.73017 15.2834 9.0436 15.2834 8.35699 15.2833C8.31204 15.2833 8.26702 15.2852 8.22226 15.2828C8.03604 15.273 7.90132 15.1604 7.89754 15.013C7.89361 14.8604 8.03423 14.7366 8.23116 14.7347C8.6482 14.7306 9.06532 14.7333 9.48236 14.7332C9.87379 14.7332 10.2652 14.7332 10.6566 14.7333Z" fill="white" stroke="white" stroke-width="0.5"/>
<path fill-rule="evenodd" clip-rule="evenodd" d="M9.40534 3.83912C8.22481 3.83912 7.04428 3.83915 5.86379 3.83908C5.81888 3.83908 5.77359 3.84176 5.72914 3.83744C5.55929 3.82095 5.43019 3.69893 5.43265 3.56011C5.43512 3.41929 5.56376 3.29988 5.73708 3.2908C5.8906 3.28275 6.04489 3.28568 6.19887 3.28565C8.45729 3.2854 10.7157 3.28547 12.9742 3.28547C12.9998 3.28547 13.0255 3.28515 13.0511 3.28565C13.2788 3.28976 13.4231 3.39998 13.4202 3.56748C13.4175 3.73391 13.2735 3.84169 13.0432 3.84191C11.8306 3.84291 10.6179 3.84241 9.40537 3.84241C9.40534 3.8413 9.40534 3.84022 9.40534 3.83912Z" fill="white" stroke="white" stroke-width="0.5"/>
</svg>
