<svg width="10" height="10" viewBox="0 0 10 10" fill="none" xmlns="http://www.w3.org/2000/svg">
<path fill-rule="evenodd" clip-rule="evenodd" d="M0.600006 1.85746C0.85555 1.5485 1.0927 1.22145 1.37052 0.934413C1.89989 0.387224 2.77824 0.529245 3.07526 1.23241C3.27357 1.70219 3.44412 2.20784 3.4897 2.71015C3.51529 2.99199 3.32303 3.35679 3.11832 3.58175C2.84393 3.88333 2.81366 4.13402 2.96856 4.48808C3.52329 5.75655 4.42712 6.63692 5.72597 7.09977C5.89824 7.16115 6.04172 7.15514 6.1708 7.01035C6.24117 6.93144 6.32239 6.86096 6.40544 6.79566C6.72759 6.54277 7.06047 6.36685 7.49422 6.5264C7.80014 6.63888 8.12719 6.69138 8.4394 6.78841C8.85978 6.91889 9.17188 7.16806 9.27834 7.62769C9.29468 7.69806 9.35831 7.75715 9.40001 7.82141V7.93838C9.25653 8.17327 9.14995 8.44564 8.961 8.63404C8.67416 8.92003 8.33019 9.14767 8.01056 9.4001H7.89472C7.71777 9.35799 7.54174 9.31195 7.36388 9.27446C6.80081 9.15586 6.22655 9.07695 5.67559 8.91648C4.3909 8.54222 3.34039 7.78759 2.46752 6.77535C1.62081 5.79323 1.06483 4.66366 0.824364 3.38238C0.73686 2.91549 0.674031 2.44389 0.600006 1.97445V1.85746Z" fill="#7C878E"/>
</svg>
