<svg width="22" height="22" viewBox="0 0 22 22" fill="none" xmlns="http://www.w3.org/2000/svg">
<path fill-rule="evenodd" clip-rule="evenodd" d="M19.8523 5.63046L19.8524 5.62968V5.62946C19.8577 5.20659 19.863 4.79205 19.8388 4.37936C19.8156 3.97913 19.5133 3.71536 19.0498 3.69795C18.4962 3.677 17.9414 3.68145 17.3836 3.68593C17.1487 3.68782 16.9133 3.68971 16.6771 3.68971C16.6688 3.72351 16.6608 3.75637 16.6529 3.7886C16.6388 3.84637 16.6252 3.90211 16.6113 3.95759C16.5133 4.34738 16.191 4.56713 15.7724 4.52914C15.3686 4.49241 15.0807 4.22516 15.0744 3.82809C15.061 2.96871 15.0613 2.10839 15.0734 1.2487C15.0782 0.895013 15.3985 0.597365 15.7682 0.555256C16.1478 0.511872 16.4967 0.739861 16.6011 1.11223C16.6361 1.23762 16.6498 1.37156 16.6552 1.50234C16.6614 1.64515 16.6602 1.78841 16.6589 1.94265C16.6583 2.00968 16.6577 2.07879 16.6577 2.15083C16.7861 2.15083 16.9127 2.14982 17.0382 2.14882L17.0392 2.14881C17.3172 2.14659 17.5894 2.14441 17.8612 2.15335C18.0103 2.15824 18.16 2.16028 18.3098 2.16232L18.31 2.16232C18.7426 2.16821 19.1761 2.17411 19.5967 2.24866C20.6761 2.44023 21.4419 3.39871 21.4448 4.49082C21.4501 6.67571 21.4495 8.86058 21.4489 11.0455C21.4487 11.7287 21.4486 12.412 21.4486 13.0953C21.4486 13.6199 21.4489 14.1444 21.4493 14.669C21.4504 16.1496 21.4514 17.6302 21.4441 19.1109C21.4381 20.3651 20.427 21.4154 19.1637 21.4341C18.139 21.4496 17.114 21.4425 16.0889 21.4353L16.087 21.4353C15.5018 21.4311 14.9166 21.427 14.3315 21.4272C13.5931 21.4273 12.8546 21.4323 12.1162 21.4373C11.57 21.441 11.0238 21.4447 10.4776 21.4465C9.35702 21.4501 8.23671 21.45 7.1162 21.45L6.66502 21.45H6.44795C5.31807 21.45 4.1882 21.45 3.05861 21.4455C1.75648 21.4405 0.858369 20.7112 0.597177 19.4418C0.561557 19.269 0.561696 19.0875 0.561847 18.909L0.56186 18.8753C0.561293 17.4597 0.562376 16.0441 0.563472 14.6284C0.566016 11.332 0.56856 8.03543 0.550095 4.73907C0.542777 3.40284 1.39698 2.15652 3.12701 2.1543C3.5008 2.15392 3.8747 2.1532 4.24858 2.15248C4.49777 2.152 4.74694 2.15152 4.99607 2.15114H5.35334C5.35334 2.07041 5.3527 1.99153 5.35207 1.91391L5.35207 1.9133C5.35071 1.74605 5.3494 1.58469 5.35461 1.42349C5.37179 0.874741 5.72906 0.520101 6.22186 0.554931C6.62557 0.583433 6.93607 0.898177 6.93862 1.30158C6.94435 2.11979 6.9453 2.93832 6.93957 3.75684C6.9364 4.1954 6.66883 4.48924 6.25939 4.52882C5.80446 4.57252 5.49746 4.3515 5.39089 3.90503C5.38062 3.86183 5.36848 3.81919 5.35341 3.76626C5.34607 3.74045 5.33802 3.71218 5.32916 3.68021H4.72407C4.57748 3.68021 4.43093 3.68004 4.28439 3.67986L4.27955 3.67986C3.9045 3.67942 3.52952 3.67899 3.15437 3.68148C2.46114 3.68623 2.15192 3.99622 2.14969 4.68303C2.14881 5.02142 2.149 5.35981 2.1492 5.71106C2.14929 5.8653 2.14938 6.02204 2.14938 6.18234H19.8477C19.8477 5.99648 19.85 5.8127 19.8523 5.63046ZM2.14905 7.49007V16.5204C2.14905 16.7609 2.1488 17.0013 2.14854 17.2417L2.14853 17.248C2.14794 17.8072 2.14735 18.3665 2.15001 18.926C2.1532 19.5482 2.46274 19.856 3.08215 19.8598C3.37014 19.8616 3.65814 19.8613 3.94614 19.861L3.97209 19.8609C4.07408 19.8608 4.17605 19.8607 4.27804 19.8607C9.11183 19.8607 13.9456 19.8607 18.7794 19.8598C18.7939 19.8598 18.8085 19.8598 18.8232 19.8599C18.8314 19.86 18.8397 19.8601 18.848 19.8601C18.975 19.8611 19.1038 19.862 19.2248 19.8341C19.6645 19.7322 19.8585 19.4317 19.8588 18.8747C19.8596 16.2177 19.8596 13.5605 19.8595 10.9035L19.8595 8.93049V7.49039C13.9567 7.49007 8.07215 7.49007 2.14905 7.49007ZM8.28845 2.2024V3.6653H13.7162V2.2024H8.28845Z" fill="#1B2746"/>
<path fill-rule="evenodd" clip-rule="evenodd" d="M7.51672 9.50708H4.53101V12.4928H7.51672V9.50708ZM12.4928 9.50708H9.50706V12.4928H12.4928V9.50708ZM9.50706 15.4785H12.4928V18.4642H9.50706V15.4785ZM17.4688 15.4785H14.4831V18.4642H17.4688V15.4785Z" fill="#1B2746"/>
</svg>
