<svg width="17" height="17" viewBox="0 0 17 17" fill="none" xmlns="http://www.w3.org/2000/svg">
<path fill-rule="evenodd" clip-rule="evenodd" d="M4.95829 1.2395C5.25169 1.2395 5.48954 1.47735 5.48954 1.77075V2.31101C5.95848 2.302 6.47512 2.30199 7.04333 2.302H9.95658C10.5248 2.30199 11.0415 2.302 11.5104 2.31101V1.77075C11.5104 1.47735 11.7482 1.2395 12.0416 1.2395C12.335 1.2395 12.5729 1.47735 12.5729 1.77075V2.35661C12.757 2.37065 12.9314 2.38829 13.0963 2.41047C13.9268 2.52212 14.599 2.75738 15.1291 3.28746C15.6592 3.81756 15.8944 4.48973 16.0061 5.3202C16.0417 5.5856 16.0657 5.87525 16.0817 6.1908C16.103 6.24817 16.1145 6.31018 16.1145 6.37492C16.1145 6.42402 16.1079 6.47156 16.0954 6.5167C16.1145 7.08474 16.1145 7.72982 16.1145 8.45997V9.95654C16.1145 11.2583 16.1145 12.2894 16.0061 13.0963C15.8944 13.9267 15.6592 14.599 15.1291 15.1291C14.599 15.6591 13.9268 15.8944 13.0963 16.0061C12.2894 16.1145 11.2584 16.1145 9.95658 16.1145H7.04334C5.74159 16.1145 4.71051 16.1145 3.90357 16.0061C3.07311 15.8944 2.40093 15.6591 1.87084 15.1291C1.34075 14.599 1.1055 13.9267 0.99385 13.0963C0.885355 12.2894 0.885362 11.2583 0.885376 9.95654V8.45997C0.885369 7.72975 0.885362 7.08474 0.904508 6.51671C0.892042 6.47157 0.885376 6.42402 0.885376 6.37492C0.885376 6.31019 0.89695 6.24816 0.918151 6.19079C0.934216 5.87525 0.958165 5.58559 0.99385 5.3202C1.1055 4.48973 1.34075 3.81756 1.87084 3.28746C2.40093 2.75738 3.07311 2.52212 3.90357 2.41047C4.06856 2.38829 4.24292 2.37065 4.42704 2.35661V1.77075C4.42704 1.47735 4.66489 1.2395 4.95829 1.2395ZM1.95715 6.90617C1.9481 7.3685 1.94788 7.895 1.94788 8.49992V9.91659C1.94788 11.2672 1.949 12.2268 2.04687 12.9548C2.14268 13.6674 2.32237 14.078 2.62214 14.3777C2.92191 14.6775 3.3325 14.8572 4.04514 14.953C4.77307 15.0509 5.73263 15.052 7.08329 15.052H9.91663C11.2673 15.052 12.2269 15.0509 12.9548 14.953C13.6674 14.8572 14.078 14.6775 14.3778 14.3777C14.6775 14.078 14.8573 13.6674 14.953 12.9548C15.0509 12.2268 15.052 11.2672 15.052 9.91659V8.49992C15.052 7.895 15.0518 7.3685 15.0428 6.90617H1.95715ZM14.9942 5.84367H2.00573C2.01708 5.70952 2.03065 5.58246 2.04687 5.46177C2.14268 4.74912 2.32237 4.33854 2.62214 4.03876C2.92191 3.73899 3.3325 3.55931 4.04514 3.4635C4.77307 3.36563 5.73263 3.3645 7.08329 3.3645H9.91663C11.2673 3.3645 12.2269 3.36563 12.9548 3.4635C13.6674 3.55931 14.078 3.73899 14.3778 4.03876C14.6775 4.33854 14.8573 4.74912 14.953 5.46177C14.9692 5.58246 14.9828 5.70952 14.9942 5.84367Z" fill="white"/>
<path fill-rule="evenodd" clip-rule="evenodd" d="M10.0938 11.6875C10.0938 10.8073 10.8073 10.0938 11.6875 10.0938C12.5677 10.0938 13.2812 10.8073 13.2812 11.6875C13.2812 12.5677 12.5677 13.2812 11.6875 13.2812C10.8073 13.2812 10.0938 12.5677 10.0938 11.6875ZM11.6875 11.1562C11.3941 11.1562 11.1562 11.3941 11.1562 11.6875C11.1562 11.9809 11.3941 12.2188 11.6875 12.2188C11.9809 12.2188 12.2188 11.9809 12.2188 11.6875C12.2188 11.3941 11.9809 11.1562 11.6875 11.1562Z" fill="white"/>
</svg>
