<svg width="11" height="12" viewBox="0 0 11 12" fill="none" xmlns="http://www.w3.org/2000/svg">
<path fill-rule="evenodd" clip-rule="evenodd" d="M9.92617 3.31563L9.92618 3.31524V3.31513C9.92887 3.10369 9.9315 2.89642 9.9194 2.69008C9.90778 2.48996 9.75667 2.35807 9.52491 2.34937C9.24808 2.3389 8.97071 2.34112 8.69179 2.34336C8.57435 2.34431 8.45663 2.34525 8.33857 2.34525C8.33441 2.36215 8.3304 2.37858 8.32646 2.3947C8.3194 2.42358 8.31258 2.45145 8.30564 2.47919C8.25665 2.67409 8.09551 2.78396 7.88618 2.76496C7.68432 2.7466 7.54036 2.61298 7.53718 2.41444C7.5305 1.98475 7.53066 1.55459 7.53671 1.12475C7.53909 0.947903 7.69927 0.799079 7.88411 0.778025C8.07388 0.756333 8.24837 0.870327 8.30055 1.05651C8.31805 1.11921 8.32489 1.18618 8.32759 1.25157C8.3307 1.32297 8.33009 1.3946 8.32944 1.47172C8.32916 1.50524 8.32887 1.53979 8.32887 1.57581C8.39305 1.57581 8.45637 1.57531 8.51908 1.57481L8.51958 1.5748C8.65862 1.57369 8.7947 1.5726 8.93062 1.57707C9.00513 1.57952 9.07998 1.58054 9.1549 1.58156L9.15502 1.58156C9.3713 1.5845 9.58807 1.58745 9.79835 1.62473C10.3381 1.72051 10.7209 2.19975 10.7224 2.74581C10.725 3.83825 10.7248 4.93069 10.7245 6.02313C10.7244 6.36476 10.7243 6.70641 10.7243 7.04805C10.7243 7.31034 10.7245 7.57261 10.7247 7.83488C10.7252 8.5752 10.7257 9.31549 10.7221 10.0559C10.719 10.683 10.2135 11.2081 9.58185 11.2175C9.06948 11.2252 8.55698 11.2216 8.04447 11.218L8.04348 11.218C7.7509 11.216 7.45832 11.2139 7.16576 11.214C6.79654 11.2141 6.42732 11.2166 6.05811 11.2191C5.785 11.2209 5.5119 11.2228 5.23879 11.2236C4.67851 11.2254 4.11835 11.2254 3.5581 11.2254L3.33251 11.2254H3.22397C2.65904 11.2254 2.0941 11.2254 1.5293 11.2232C0.878238 11.2206 0.429185 10.856 0.298589 10.2213C0.280779 10.1349 0.280848 10.0442 0.280924 9.95488L0.28093 9.93806C0.280646 9.23025 0.281188 8.52243 0.281736 7.8146C0.283008 6.16637 0.28428 4.51811 0.275048 2.86993C0.271389 2.20182 0.698488 1.57866 1.56351 1.57755C1.7504 1.57736 1.93735 1.577 2.12429 1.57664C2.24888 1.5764 2.37347 1.57616 2.49803 1.57597H2.67667C2.67667 1.5356 2.67635 1.49616 2.67604 1.45735L2.67603 1.45704C2.67535 1.37342 2.6747 1.29274 2.67731 1.21214C2.6859 0.937767 2.86453 0.760447 3.11093 0.777862C3.31278 0.792113 3.46804 0.949485 3.46931 1.15119C3.47217 1.56029 3.47265 1.96956 3.46979 2.37882C3.4682 2.59809 3.33442 2.74502 3.1297 2.76481C2.90223 2.78666 2.74873 2.67615 2.69544 2.45291C2.69031 2.43131 2.68424 2.40999 2.67671 2.38353C2.67303 2.37062 2.66901 2.35649 2.66458 2.3405H2.36203C2.28874 2.3405 2.21547 2.34042 2.14219 2.34033L2.13978 2.34033C1.95225 2.34011 1.76476 2.33989 1.57719 2.34114C1.23057 2.34351 1.07596 2.49851 1.07485 2.84191C1.07441 3.01111 1.0745 3.1803 1.0746 3.35593C1.07465 3.43305 1.07469 3.51142 1.07469 3.59156H9.92385C9.92385 3.49864 9.92502 3.40675 9.92617 3.31563ZM1.07453 4.24543V8.76062C1.07453 8.88082 1.0744 9.00103 1.07427 9.12124L1.07426 9.12438C1.07397 9.40401 1.07367 9.68366 1.075 9.96339C1.0766 10.2745 1.23137 10.4284 1.54107 10.4303C1.68507 10.4312 1.82907 10.431 1.97307 10.4309L1.98605 10.4309C2.03704 10.4308 2.08803 10.4308 2.13902 10.4308C4.55591 10.4308 6.97281 10.4308 9.3897 10.4303C9.39697 10.4303 9.40427 10.4303 9.41158 10.4304C9.41571 10.4304 9.41985 10.4304 9.42399 10.4305C9.48751 10.4309 9.55189 10.4314 9.6124 10.4175C9.83223 10.3665 9.92926 10.2162 9.92942 9.93775C9.9298 8.60926 9.92978 7.28067 9.92975 5.95215L9.92974 4.96564V4.24559C6.97837 4.24543 4.03607 4.24543 1.07453 4.24543ZM4.14423 1.6016V2.33304H6.8581V1.6016H4.14423Z" fill="#7C878E"/>
<path fill-rule="evenodd" clip-rule="evenodd" d="M3.75836 5.25391H2.2655V6.74676H3.75836V5.25391ZM6.24639 5.25391H4.75353V6.74676H6.24639V5.25391ZM4.75353 8.23963H6.24639V9.73249H4.75353V8.23963ZM8.73441 8.23963H7.24155V9.73249H8.73441V8.23963Z" fill="#7C878E"/>
</svg>
