<svg width="22" height="22" viewBox="0 0 22 22" fill="none" xmlns="http://www.w3.org/2000/svg">
    <path d="M15.5832 16.5001C16.0894 16.5001 16.4998 16.0897 16.4998 15.5834C16.4998 15.0771 16.0894 14.6667 15.5832 14.6667C15.0769 14.6667 14.6665 15.0771 14.6665 15.5834C14.6665 16.0897 15.0769 16.5001 15.5832 16.5001Z"
          fill="#1C274C"/>
    <path d="M11.9168 11.9167C11.9168 12.4229 11.5064 12.8333 11.0002 12.8333C10.4939 12.8333 10.0835 12.4229 10.0835 11.9167C10.0835 11.4104 10.4939 11 11.0002 11C11.5064 11 11.9168 11.4104 11.9168 11.9167Z"
          fill="#1C274C"/>
    <path d="M11.9168 15.5834C11.9168 16.0897 11.5064 16.5001 11.0002 16.5001C10.4939 16.5001 10.0835 16.0897 10.0835 15.5834C10.0835 15.0771 10.4939 14.6667 11.0002 14.6667C11.5064 14.6667 11.9168 15.0771 11.9168 15.5834Z"
          fill="#1C274C"/>
    <path d="M6.41667 12.8333C6.92293 12.8333 7.33333 12.4229 7.33333 11.9167C7.33333 11.4104 6.92293 11 6.41667 11C5.91041 11 5.5 11.4104 5.5 11.9167C5.5 12.4229 5.91041 12.8333 6.41667 12.8333Z"
          fill="#1C274C"/>
    <path fill-rule="evenodd" clip-rule="evenodd"
          d="M6.41683 1.60425C6.79652 1.60425 7.10433 1.91206 7.10433 2.29175V2.99091C7.71116 2.97924 8.37972 2.97924 9.115 2.97925H12.8852C13.6205 2.97924 14.2892 2.97924 14.896 2.99091V2.29175C14.896 1.91206 15.2038 1.60425 15.5835 1.60425C15.9632 1.60425 16.271 1.91206 16.271 2.29175V3.04991C16.5092 3.06808 16.7349 3.09092 16.9484 3.11962C18.0231 3.26411 18.893 3.56855 19.5791 4.25455C20.265 4.94056 20.5694 5.81042 20.714 6.88515C20.8543 7.92941 20.8543 9.26373 20.8543 10.9483V12.8851C20.8543 14.5697 20.8543 15.9041 20.714 16.9483C20.5694 18.023 20.265 18.893 19.5791 19.579C18.893 20.2649 18.0231 20.5693 16.9484 20.7139C15.9041 20.8542 14.5698 20.8542 12.8853 20.8542H9.11512C7.43053 20.8542 6.09616 20.8542 5.0519 20.7139C3.97718 20.5693 3.10731 20.2649 2.4213 19.579C1.7353 18.893 1.43086 18.023 1.28637 16.9483C1.14597 15.9041 1.14598 14.5698 1.146 12.8851V10.9484C1.14598 9.26373 1.14597 7.92942 1.28637 6.88515C1.43086 5.81042 1.7353 4.94056 2.4213 4.25455C3.10731 3.56855 3.97718 3.26411 5.0519 3.11962C5.26541 3.09092 5.49105 3.06808 5.72933 3.04991V2.29175C5.72933 1.91206 6.03714 1.60425 6.41683 1.60425ZM5.23511 4.48236C4.31286 4.60635 3.78151 4.83888 3.39357 5.22682C3.00563 5.61477 2.7731 6.14611 2.64911 7.06836C2.62811 7.22454 2.61055 7.38897 2.59587 7.56258H19.4044C19.3898 7.38897 19.3722 7.22455 19.3512 7.06836C19.2272 6.14611 18.9947 5.61477 18.6068 5.22682C18.2188 4.83888 17.6874 4.60635 16.7653 4.48236C15.8232 4.35571 14.5814 4.35425 12.8335 4.35425H9.16683C7.41891 4.35425 6.17713 4.35571 5.23511 4.48236ZM2.521 11.0001C2.521 10.2172 2.52129 9.53589 2.533 8.93758H19.4673C19.4791 9.53589 19.4793 10.2172 19.4793 11.0001V12.8334C19.4793 14.5813 19.4779 15.8231 19.3512 16.7652C19.2272 17.6873 18.9947 18.2187 18.6068 18.6067C18.2188 18.9946 17.6874 19.2272 16.7653 19.3511C15.8232 19.4778 14.5814 19.4792 12.8335 19.4792H9.16683C7.41891 19.4792 6.17713 19.4778 5.23511 19.3511C4.31286 19.2272 3.78151 18.9946 3.39357 18.6067C3.00563 18.2187 2.7731 17.6873 2.64911 16.7652C2.52245 15.8231 2.521 14.5813 2.521 12.8334V11.0001Z"
          fill="#1C274C"/>
</svg>
