<svg width="20" height="20" viewBox="0 0 20 20" fill="none" xmlns="http://www.w3.org/2000/svg">
<path fill-rule="evenodd" clip-rule="evenodd" d="M10 6.875C8.27412 6.875 6.875 8.27411 6.875 10C6.875 11.7259 8.27412 13.125 10 13.125C11.7259 13.125 13.125 11.7259 13.125 10C13.125 8.27411 11.7259 6.875 10 6.875ZM8.125 10C8.125 8.9645 8.9645 8.125 10 8.125C11.0355 8.125 11.875 8.9645 11.875 10C11.875 11.0355 11.0355 11.875 10 11.875C8.9645 11.875 8.125 11.0355 8.125 10Z" fill="#1B2746"/>
<path fill-rule="evenodd" clip-rule="evenodd" d="M9.97884 1.04175C9.6085 1.04174 9.29925 1.04174 9.04542 1.05906C8.78117 1.07709 8.53159 1.11596 8.28959 1.21619C7.72808 1.44878 7.28194 1.89491 7.04935 2.45643C6.92827 2.74876 6.89548 3.05685 6.88295 3.39172C6.87289 3.66091 6.73704 3.88551 6.53654 4.00126C6.33606 4.11701 6.07363 4.12236 5.83547 3.99648C5.5392 3.83989 5.25599 3.71424 4.94228 3.67294C4.33969 3.59361 3.73027 3.75691 3.24808 4.12691C3.04028 4.28636 2.88181 4.48308 2.73408 4.70292C2.59215 4.91409 2.43756 5.18187 2.25237 5.50264L2.23133 5.53909C2.04613 5.85985 1.89153 6.12761 1.7796 6.35611C1.66309 6.59397 1.57195 6.82957 1.53776 7.08926C1.45843 7.69185 1.62173 8.30126 1.99172 8.7835C2.18432 9.03441 2.43469 9.21692 2.71839 9.39516C2.94654 9.5385 3.07315 9.7685 3.07314 10.0001C3.07313 10.2316 2.94652 10.4616 2.71839 10.6049C2.43466 10.7832 2.18426 10.9657 1.99164 11.2167C1.62164 11.6988 1.45835 12.3082 1.53768 12.9108C1.57187 13.1705 1.66301 13.4062 1.77952 13.644C1.89144 13.8725 2.04604 14.1402 2.23124 14.461L2.25229 14.4975C2.43748 14.8182 2.59207 15.086 2.73399 15.2972C2.88173 15.517 3.04019 15.7137 3.24799 15.8732C3.73019 16.2432 4.33961 16.4065 4.94219 16.3272C5.25589 16.2858 5.53909 16.1602 5.83534 16.0037C6.07353 15.8777 6.33599 15.8831 6.5365 15.9989C6.73702 16.1147 6.87289 16.3392 6.88295 16.6085C6.89548 16.9433 6.92828 17.2514 7.04935 17.5437C7.28194 18.1052 7.72808 18.5514 8.28959 18.784C8.53159 18.8842 8.78117 18.9231 9.04542 18.9411C9.29925 18.9584 9.6085 18.9584 9.97884 18.9584H10.0209C10.3913 18.9584 10.7005 18.9584 10.9544 18.9411C11.2187 18.9231 11.4683 18.8842 11.7103 18.784C12.2718 18.5514 12.7179 18.1052 12.9505 17.5437C13.0716 17.2514 13.1043 16.9433 13.1168 16.6084C13.1269 16.3392 13.2628 16.1147 13.4633 15.9988C13.6638 15.8831 13.9263 15.8777 14.1644 16.0036C14.4607 16.1602 14.7438 16.2858 15.0576 16.3271C15.6602 16.4064 16.2696 16.2432 16.7518 15.8732C16.9596 15.7137 17.118 15.517 17.2658 15.2972C17.4077 15.086 17.5623 14.8182 17.7474 14.4975L17.7685 14.461C17.9537 14.1402 18.1083 13.8724 18.2203 13.6439C18.3368 13.4061 18.4278 13.1705 18.4621 12.9108C18.5414 12.3082 18.3781 11.6987 18.0081 11.2166C17.8155 10.9656 17.5651 10.7832 17.2814 10.6049C17.0533 10.4616 16.9267 10.2316 16.9267 10C16.9267 9.7685 17.0533 9.53858 17.2813 9.39525C17.5652 9.217 17.8156 9.03458 18.0082 8.7835C18.3782 8.30132 18.5415 7.69191 18.4622 7.08931C18.4279 6.82963 18.3368 6.59403 18.2203 6.35616C18.1084 6.12769 17.9538 5.85994 17.7686 5.53921L17.7476 5.50273C17.5623 5.18196 17.4078 4.91415 17.2658 4.70297C17.1181 4.48314 16.9597 4.28642 16.7518 4.12696C16.2697 3.75697 15.6603 3.59366 15.0576 3.673C14.7439 3.7143 14.4608 3.83993 14.1645 3.99652C13.9263 4.12241 13.6638 4.11705 13.4633 4.00128C13.2628 3.88552 13.1269 3.66089 13.1168 3.39167C13.1043 3.05682 13.0716 2.74875 12.9505 2.45643C12.7179 1.89491 12.2718 1.44878 11.7103 1.21619C11.4683 1.11596 11.2187 1.07709 10.9544 1.05906C10.7005 1.04174 10.3913 1.04174 10.0209 1.04175H9.97884ZM8.76792 2.37104C8.83225 2.34441 8.92992 2.31985 9.1305 2.30616C9.33675 2.29209 9.60309 2.29175 9.99992 2.29175C10.3968 2.29175 10.6631 2.29209 10.8693 2.30616C11.0699 2.31985 11.1676 2.34441 11.2318 2.37104C11.4871 2.47677 11.6899 2.67955 11.7956 2.93479C11.829 3.0153 11.8566 3.14081 11.8678 3.43839C11.8924 4.09871 12.2333 4.73449 12.8383 5.08382C13.4433 5.43315 14.1644 5.41042 14.7486 5.10165C15.0118 4.9625 15.1344 4.92368 15.2208 4.91231C15.4947 4.87625 15.7717 4.95047 15.9908 5.11865C16.0461 5.16102 16.1162 5.23332 16.2283 5.40022C16.3437 5.57177 16.4771 5.80225 16.6755 6.14592C16.8739 6.48959 17.0068 6.7204 17.0978 6.90602C17.1862 7.0866 17.2138 7.18347 17.2228 7.25247C17.2589 7.52637 17.1847 7.80339 17.0165 8.02256C16.9634 8.09171 16.8686 8.17841 16.6163 8.33683C16.0569 8.68841 15.6768 9.30141 15.6767 10C15.6767 10.6987 16.0568 11.3117 16.6163 11.6633C16.8685 11.8217 16.9633 11.9084 17.0164 11.9776C17.1846 12.1967 17.2588 12.4737 17.2228 12.7477C17.2137 12.8167 17.1861 12.9135 17.0977 13.0941C17.0068 13.2797 16.8738 13.5105 16.6754 13.8542C16.477 14.1978 16.3436 14.4283 16.2283 14.5999C16.1161 14.7667 16.046 14.8391 15.9908 14.8814C15.7716 15.0497 15.4946 15.1238 15.2207 15.0878C15.1343 15.0764 15.0118 15.0376 14.7485 14.8985C14.1643 14.5897 13.4433 14.567 12.8382 14.9163C12.2333 15.2657 11.8924 15.9014 11.8678 16.5617C11.8566 16.8593 11.829 16.9848 11.7956 17.0654C11.6899 17.3206 11.4871 17.5234 11.2318 17.6292C11.1676 17.6557 11.0699 17.6803 10.8693 17.694C10.6631 17.7081 10.3968 17.7084 9.99992 17.7084C9.60309 17.7084 9.33675 17.7081 9.1305 17.694C8.92992 17.6803 8.83225 17.6557 8.76792 17.6292C8.51275 17.5234 8.30993 17.3206 8.2042 17.0654C8.17085 16.9848 8.14321 16.8593 8.13208 16.5617C8.10739 15.9015 7.76656 15.2657 7.1615 14.9163C6.55645 14.567 5.83544 14.5897 5.25124 14.8985C4.98796 15.0377 4.86544 15.0765 4.77904 15.0878C4.50514 15.1239 4.22813 15.0497 4.00895 14.8815C3.95374 14.8392 3.88363 14.7668 3.77147 14.5999C3.65618 14.4284 3.52272 14.1979 3.3243 13.8542C3.12588 13.5106 2.99301 13.2797 2.90209 13.0942C2.81364 12.9136 2.78607 12.8167 2.77699 12.7477C2.74093 12.4737 2.81515 12.1967 2.98334 11.9776C3.03639 11.9085 3.13126 11.8217 3.38342 11.6633C3.9429 11.3118 4.3231 10.6987 4.32314 10.0002C4.32318 9.30141 3.94296 8.68833 3.38343 8.33675C3.13133 8.17832 3.03646 8.09164 2.98341 8.02251C2.81524 7.80333 2.74101 7.52632 2.77707 7.25241C2.78615 7.18342 2.81372 7.08654 2.90217 6.90597C2.99309 6.72034 3.12596 6.48953 3.32438 6.14586C3.5228 5.80219 3.65625 5.57172 3.77155 5.40016C3.88371 5.23327 3.95382 5.16096 4.00903 5.1186C4.22821 4.95042 4.50522 4.87619 4.77912 4.91225C4.86553 4.92362 4.98805 4.96244 5.25136 5.10161C5.83553 5.41037 6.55651 5.4331 7.16154 5.08379C7.76657 4.73448 8.10739 4.09872 8.13208 3.43843C8.14321 3.14082 8.17085 3.01531 8.2042 2.93479C8.30993 2.67955 8.51275 2.47677 8.76792 2.37104Z" fill="#1C274C"/>
</svg>
