<svg width="23" height="21" viewBox="0 0 23 21" fill="none" xmlns="http://www.w3.org/2000/svg">
<path fill-rule="evenodd" clip-rule="evenodd" d="M0.000608434 10.4712C0.000608434 7.86446 -0.00125707 5.25786 0.001545 2.65113C0.00274588 1.4149 0.590774 0.888765 1.98554 0.886631C4.31806 0.88331 6.65085 0.884852 8.98337 0.893035C10.1158 0.896831 10.7819 1.45724 10.7842 2.4635C10.7966 7.83481 10.7968 13.2061 10.787 18.5776C10.7852 19.4867 10.0786 20.1014 9.06183 20.106C6.64044 20.1173 4.21866 20.118 1.79727 20.1078C0.626941 20.1029 0.00914892 19.5321 0.00648028 18.469C-0.000324742 15.8031 0.00407779 13.1372 0.00407779 10.4712C0.00314377 10.4712 0.00194275 10.4712 0.000608434 10.4712ZM10.0691 10.5196C10.0691 8.06989 10.0692 5.6202 10.0688 3.17051C10.0688 2.93353 10.1528 2.656 10.0434 2.4686C9.86469 2.16283 9.59556 1.73478 9.29774 1.68687C8.86635 1.61748 8.2591 1.34362 7.8951 1.96369C7.79115 2.14089 7.38446 2.25523 7.11172 2.26282C5.97942 2.29484 4.84525 2.26887 3.71188 2.2774C3.28504 2.28061 2.91049 2.2538 2.76932 1.80345C2.74517 1.72636 2.58425 1.65105 2.47417 1.63207C1.2498 1.42119 0.707131 1.81982 0.706997 2.92583C0.70633 8.02268 0.707394 13.1195 0.708194 18.2165C0.708194 19.094 0.987871 19.3469 1.97633 19.3483C4.22092 19.3513 6.46578 19.351 8.7105 19.3511C9.77475 19.3512 10.0664 19.1025 10.0682 18.1648C10.0723 15.6164 10.0694 13.0679 10.0691 10.5196Z" fill="#0696D6"/>
<path fill-rule="evenodd" clip-rule="evenodd" d="M4.39288 11.0488C3.93 11.0036 3.53144 10.9647 3.2499 10.9374C3.3421 10.1792 3.3756 9.51702 3.5157 8.87323C3.62965 8.34958 3.72279 7.7339 4.08612 7.35922C4.95597 6.46292 6.82934 6.93983 7.16506 8.08758C7.25859 8.40723 7.24645 8.75095 7.28981 9.08281C7.36507 9.66077 7.4458 10.2381 7.53974 10.9302C7.22777 10.964 6.81347 11.009 6.36367 11.0578C6.20061 11.4935 6.45146 11.7925 6.86617 12.0016C7.25112 12.1959 7.67383 12.3317 8.05598 12.5294C8.35914 12.6862 8.68245 12.8589 8.89207 13.0974C9.0634 13.2926 9.08021 13.5952 9.1656 13.8502C8.92903 13.9111 8.69285 14.023 8.45575 14.0248C6.39102 14.0399 4.32616 14.0403 2.26131 14.029C2.04248 14.0278 1.64859 13.9411 1.63898 13.8641C1.61003 13.634 1.64205 13.2887 1.81177 13.1683C2.32255 12.8058 2.90058 12.5143 3.4702 12.2224C3.99032 11.9557 4.58315 11.7551 4.39288 11.0488Z" fill="#0696D6"/>
<path fill-rule="evenodd" clip-rule="evenodd" d="M17.722 15.1963C16.3917 15.1682 15.7617 15.9417 15.3177 16.9361C15.2363 17.1187 15.019 17.2642 14.9826 17.4468C14.9245 17.7369 14.8627 18.0965 15.0023 18.3241C15.0922 18.471 15.6518 18.5617 15.7986 18.4514C16.0191 18.286 16.2077 17.8961 16.1546 17.6475C15.9605 16.7411 16.6701 15.8906 17.6662 15.9391C18.1814 15.9641 18.6197 16.1376 18.7447 16.6205C18.8754 17.1254 19.0621 17.679 18.5595 18.1196C18.2302 18.4081 18.0056 18.739 18.354 19.0698C18.5395 19.246 18.9723 19.3604 19.2212 19.2897C19.67 19.1619 19.6819 18.7844 19.6075 18.3667C19.5336 17.9523 19.6904 17.5024 19.6102 17.0902C19.5228 16.6426 19.4052 16.0915 19.0728 15.8182C18.596 15.4263 18.5045 15.0499 18.5994 14.541C18.6289 14.3833 18.6039 14.2171 18.6039 14.0514C20.5384 14.2795 21.9007 15.4191 22.2574 17.1414C22.3947 17.8047 22.4694 18.483 22.5097 19.1577C22.5476 19.7938 22.3027 20.01 21.6022 20.018C20.3224 20.0324 19.0423 20.0247 17.7623 20.0249C14.4612 20.0255 11.16 20.0264 7.85874 20.0249C6.97975 20.0244 6.77931 19.8271 6.87313 19.0286C6.95225 18.3547 7.05025 17.6825 7.15242 17.0109C7.30744 15.9919 7.80631 15.1813 8.8639 14.7312C9.52546 14.4498 10.1943 14.1824 10.8739 13.9029C10.9582 14.719 11.0492 15.4288 11.0926 16.141C11.1038 16.3237 10.9897 16.5259 10.8911 16.699C10.5388 17.3162 10.7102 17.9397 11.3317 18.2345C11.9284 18.5175 12.6078 18.3012 12.9201 17.7285C13.2196 17.1794 12.9666 16.6372 12.3249 16.2929C12.1139 16.1797 11.8959 15.9387 11.8523 15.7266C11.6601 14.7946 11.482 13.866 12.4636 13.1268C12.8651 12.8245 12.7811 11.6192 12.5339 11.1274C12.2488 10.5598 12.0615 9.95163 11.8152 9.36676C11.7226 9.14691 11.6176 8.91891 11.46 8.73683C10.9721 8.17307 10.9146 7.55586 11.2813 6.95211C11.3623 6.81866 11.3314 6.59993 11.2869 6.43525C10.6592 4.10997 12.2711 2.38659 14.8576 2.65224C15.5231 2.72062 16.2259 2.77457 16.8221 3.01861C17.2816 3.20662 17.713 3.62854 17.9503 4.04516C18.1741 4.43808 18.1323 4.95925 18.1997 5.42512C18.2924 6.0648 17.9304 6.69485 18.2931 7.37255C18.4531 7.67141 18.1721 8.19134 18.0339 8.59438C17.8986 8.98928 17.6841 9.36108 17.5164 9.74746C17.3686 10.0878 17.2831 10.4575 17.0906 10.7736C16.3734 11.9513 16.4382 12.5629 17.4163 13.5428C17.8883 14.0162 17.8832 14.5764 17.722 15.1963Z" fill="#0696D6"/>
</svg>
