<svg width="13" height="19" viewBox="0 0 13 19" fill="none" xmlns="http://www.w3.org/2000/svg">
<path d="M10.2731 4.04632H8.65168V0.52485C8.65168 0.372843 8.56934 0.227171 8.43633 0.119498C8.29699 0.0118244 8.12598 -0.0261745 7.97397 0.0181595H3.64811C3.05277 0.0181595 2.55876 0.51218 2.37507 0.727527L1.72906 1.48125H3.05277V4.05269H1.39337C0.620652 4.05269 0 4.67971 0 5.44606V17.6066C0 18.3793 0.627022 19 1.39337 19H10.2729C11.0456 19 11.6663 18.373 11.6663 17.6066V5.43969C11.6663 4.67334 11.0392 4.04632 10.2729 4.04632H10.2731ZM7.63198 1.24053C7.64465 1.04419 7.70799 0.866846 7.81566 0.733838C7.917 0.607166 8.02467 0.543832 8.10701 0.499493C8.11967 0.505826 8.14501 0.518493 8.15767 0.531161V5.00272H3.5531V1.48125H7.61294L7.63198 1.24053ZM2.81843 0.974513C2.97677 0.809836 3.30612 0.512157 3.64812 0.512157H7.35328C7.27727 0.626165 7.20127 0.778172 7.16327 0.974513H2.81843ZM3.15411 17.8157H1.76074V17.1127H3.15411V17.8157ZM3.15411 15.9283H1.76074V15.2253H3.15411V15.9283ZM3.15411 14.0409H1.76074V13.3378H3.15411V14.0409ZM3.15411 12.1534H1.76074V11.4441H3.15411V12.1534ZM6.52994 17.8157H5.13657V17.1126H6.52994V17.8157ZM6.52994 15.9283H5.13657V15.2252H6.52994V15.9283ZM6.52994 14.0408H5.13657V13.3378H6.52994V14.0408ZM6.52994 12.1534H5.13657V11.444H6.52994V12.1534ZM9.89309 17.8156H8.49972V17.1126H9.89309V17.8156ZM9.89309 15.9282H8.49972V15.2251H9.89309V15.9282ZM9.89309 14.0408H8.49972V13.3377H9.89309V14.0408ZM9.89309 12.1533H8.49972V11.444H9.89309V12.1533ZM10.1021 10.3736H1.55149V5.56003H10.1021V10.3736Z" fill="#0696D6"/>
<path d="M12.0723 5.45874H12.6993V17.771H12.0723V5.45874Z" fill="#0696D6"/>
</svg>
