<svg width="10" height="15" viewBox="0 0 10 15" fill="none" xmlns="http://www.w3.org/2000/svg">
<path d="M8.4714 1.325H1.72347C1.55408 1.325 1.41675 1.11255 1.41675 0.85C1.41675 0.587451 1.55408 0.375 1.72347 0.375H8.4714C8.64079 0.375 8.77812 0.587451 8.77812 0.85C8.77812 1.11255 8.64079 1.325 8.4714 1.325Z" fill="white"/>
<path d="M8.4714 14.625H1.72347C1.55408 14.625 1.41675 14.4126 1.41675 14.15C1.41675 13.8875 1.55408 13.675 1.72347 13.675H8.4714C8.64079 13.675 8.77812 13.8875 8.77812 14.15C8.77812 14.4126 8.64079 14.625 8.4714 14.625Z" fill="white"/>
<path d="M7.67374 14.625H2.52084C2.3519 14.625 2.21471 14.4135 2.21412 14.1514C2.21397 14.0609 2.21561 11.9058 2.76092 10.0656C3.12964 8.82109 3.54854 7.94438 3.78548 7.5C3.54854 7.05561 3.12964 6.17891 2.76092 4.93435C2.21561 3.09419 2.21397 0.939062 2.21412 0.848608C2.21471 0.586523 2.3519 0.375 2.52084 0.375H7.67374C7.84268 0.375 7.97987 0.586523 7.98047 0.848608C7.98062 0.939062 7.97897 3.09419 7.43366 4.93435C7.06494 6.17891 6.64604 7.05561 6.4091 7.5C6.64604 7.94438 7.06494 8.82109 7.43366 10.0656C7.97897 11.9058 7.98062 14.0609 7.98047 14.1514C7.97987 14.4135 7.84268 14.625 7.67374 14.625ZM2.84044 13.675H7.35414C7.32359 12.976 7.22084 11.6252 6.87623 10.4618C6.38409 8.80115 5.78727 7.84141 5.78143 7.83167C5.66551 7.64751 5.66551 7.35249 5.78143 7.16833C5.78727 7.15859 6.38409 6.19885 6.87623 4.53821C7.22084 3.37483 7.32359 2.02405 7.35414 1.325H2.84044C2.871 2.02405 2.97374 3.37483 3.31835 4.53821C3.81049 6.19885 4.40731 7.15859 4.41315 7.16833C4.52907 7.35249 4.52907 7.64751 4.41315 7.83167C4.40731 7.84141 3.81049 8.80115 3.31835 10.4618C2.97374 11.6252 2.871 12.976 2.84044 13.675Z" fill="white"/>
<path d="M3.63257 12.7154C3.63257 12.7154 3.63003 11.5102 3.92759 10.5058C4.22515 9.50148 4.71032 8.93433 5.09749 8.93433C5.48467 8.93433 5.96984 9.50148 6.2674 10.5058C6.56496 11.5102 6.56242 12.7154 6.56242 12.7154H3.63257Z" fill="white"/>
</svg>
