<svg width="19" height="19" viewBox="0 0 19 19" fill="none" xmlns="http://www.w3.org/2000/svg">
<path fill-rule="evenodd" clip-rule="evenodd" d="M17.1451 4.86229L17.1452 4.86162V4.86143C17.1498 4.49622 17.1543 4.1382 17.1334 3.7818C17.1134 3.43614 16.8524 3.20834 16.452 3.1933C15.9739 3.17521 15.4948 3.17906 15.013 3.18292C14.8102 3.18455 14.6068 3.18618 14.4029 3.18618C14.3957 3.21537 14.3888 3.24376 14.382 3.27159C14.3698 3.32148 14.358 3.36962 14.346 3.41754C14.2614 3.75418 13.9831 3.94396 13.6215 3.91115C13.2728 3.87942 13.0242 3.64862 13.0187 3.3057C13.0072 2.5635 13.0074 1.8205 13.0179 1.07804C13.022 0.772586 13.2987 0.515526 13.6179 0.47916C13.9457 0.441691 14.2471 0.638591 14.3372 0.960186C14.3675 1.06847 14.3793 1.18415 14.384 1.2971C14.3893 1.42043 14.3883 1.54415 14.3871 1.67736C14.3867 1.73525 14.3862 1.79494 14.3862 1.85715C14.497 1.85715 14.6064 1.85628 14.7147 1.85542L14.7156 1.85541C14.9557 1.85349 15.1908 1.85161 15.4256 1.85933C15.5542 1.86356 15.6835 1.86532 15.8129 1.86708L15.8131 1.86708C16.1867 1.87217 16.5611 1.87726 16.9244 1.94165C17.8566 2.10709 18.5179 2.93487 18.5204 3.87805C18.525 5.765 18.5245 7.65194 18.524 9.53888C18.5238 10.129 18.5237 10.7191 18.5237 11.3092C18.5237 11.7622 18.524 12.2153 18.5243 12.6683C18.5252 13.947 18.5261 15.2257 18.5199 16.5045C18.5146 17.5877 17.6415 18.4948 16.5504 18.5109C15.6654 18.5243 14.7802 18.5181 13.8949 18.5119L13.8932 18.5119C13.3878 18.5083 12.8825 18.5048 12.3771 18.5049C11.7394 18.5051 11.1017 18.5094 10.4639 18.5137C9.99221 18.5169 9.52048 18.5201 9.04876 18.5216C8.081 18.5247 7.11345 18.5247 6.14574 18.5246L5.75608 18.5246H5.56861C4.59281 18.5246 3.61701 18.5246 2.64146 18.5208C1.51689 18.5164 0.741253 17.8866 0.515677 16.7903C0.484915 16.641 0.485034 16.4843 0.485165 16.3301L0.485176 16.301C0.484686 15.0785 0.485622 13.8559 0.486568 12.6332C0.488766 9.7863 0.490963 6.93931 0.475016 4.09245C0.468696 2.93843 1.20641 1.86207 2.70054 1.86015C3.02335 1.85982 3.34627 1.8592 3.66916 1.85858C3.88437 1.85816 4.09957 1.85775 4.31472 1.85742H4.62327C4.62327 1.7877 4.62272 1.71957 4.62218 1.65254L4.62217 1.65201C4.621 1.50757 4.61987 1.36822 4.62437 1.229C4.63921 0.755078 4.94776 0.448798 5.37336 0.478879C5.72202 0.503494 5.99018 0.775318 5.99237 1.12371C5.99732 1.83034 5.99815 2.53726 5.9932 3.24416C5.99046 3.62292 5.75938 3.87669 5.40577 3.91088C5.01287 3.94861 4.74774 3.75773 4.6557 3.37214C4.64683 3.33483 4.63635 3.29801 4.62334 3.2523C4.61699 3.23001 4.61004 3.2056 4.60239 3.17799H4.07981C3.95321 3.17799 3.82665 3.17783 3.70009 3.17768L3.69591 3.17768C3.372 3.1773 3.04815 3.17693 2.72416 3.17908C2.12547 3.18318 1.85841 3.4509 1.85649 4.04405C1.85573 4.3363 1.85589 4.62855 1.85606 4.9319C1.85614 5.06511 1.85622 5.20048 1.85622 5.33891H17.1411C17.1411 5.1784 17.1431 5.01968 17.1451 4.86229ZM1.85593 6.46832V14.2673C1.85593 14.4749 1.85572 14.6825 1.85549 14.8902L1.85548 14.8956C1.85497 15.3786 1.85446 15.8616 1.85676 16.3448C1.85951 16.8822 2.12685 17.148 2.66179 17.1512C2.91051 17.1528 3.15924 17.1525 3.40796 17.1523L3.43038 17.1522C3.51845 17.1522 3.60652 17.1521 3.6946 17.1521C7.86924 17.1521 12.0439 17.1521 16.2185 17.1512C16.2311 17.1512 16.2437 17.1513 16.2563 17.1514C16.2634 17.1514 16.2706 17.1515 16.2777 17.1515C16.3875 17.1524 16.4987 17.1532 16.6032 17.1291C16.9829 17.041 17.1505 16.7815 17.1507 16.3005C17.1514 14.0058 17.1514 11.711 17.1513 9.41628L17.1513 7.71232V6.46859C12.0535 6.46832 6.97133 6.46832 1.85593 6.46832ZM7.15814 1.9017V3.1651H11.8457V1.9017H7.15814Z" fill="#0696D6"/>
<path fill-rule="evenodd" clip-rule="evenodd" d="M6.49178 8.20996H3.91321V10.7885H6.49178V8.20996ZM10.7893 8.20996H8.21071V10.7885H10.7893V8.20996ZM8.21071 13.3671H10.7893V15.9457H8.21071V13.3671ZM15.0868 13.3671H12.5082V15.9457H15.0868V13.3671Z" fill="#0696D6"/>
</svg>
