<svg width="19" height="19" viewBox="0 0 19 19" fill="none" xmlns="http://www.w3.org/2000/svg">
<path fill-rule="evenodd" clip-rule="evenodd" d="M14.4161 4.61574C13.7974 4.5528 12.9989 4.55208 11.8747 4.55208H7.12467C6.00045 4.55208 5.20198 4.5528 4.58323 4.61574C3.9744 4.67768 3.60577 4.79491 3.32024 4.98569C3.0393 5.17341 2.79809 5.41462 2.61037 5.69556C2.41959 5.98109 2.30236 6.34972 2.24042 6.95855C2.17748 7.5773 2.17676 8.37575 2.17676 9.49999C2.17676 10.6242 2.17748 11.4227 2.24042 12.0414C2.30236 12.6503 2.41959 13.0189 2.61037 13.3044C2.79809 13.5854 3.0393 13.8266 3.32024 14.0143C3.60577 14.2051 3.9744 14.3224 4.58323 14.3843C5.20198 14.4472 6.00045 14.4479 7.12467 14.4479H11.8747C12.9989 14.4479 13.7974 14.4472 14.4161 14.3843C15.025 14.3224 15.3935 14.2051 15.6791 14.0143C15.9601 13.8266 16.2013 13.5854 16.389 13.3044C16.5798 13.0189 16.697 12.6503 16.7589 12.0414C16.8219 11.4227 16.8226 10.6242 16.8226 9.49999C16.8226 8.37575 16.8219 7.5773 16.7589 6.95855C16.697 6.34972 16.5798 5.98109 16.389 5.69556C16.2013 5.41462 15.9601 5.17341 15.6791 4.98569C15.3935 4.79491 15.025 4.67768 14.4161 4.61574ZM14.5363 3.43434C15.239 3.50582 15.8256 3.65543 16.3389 3.99832C16.7494 4.27268 17.102 4.62522 17.3764 5.03582C17.7192 5.54899 17.8689 6.13565 17.9403 6.83836C18.0101 7.52424 18.0101 8.38311 18.0101 9.46706V9.53293C18.0101 10.6169 18.0101 11.4758 17.9403 12.1617C17.8689 12.8643 17.7192 13.451 17.3764 13.9642C17.102 14.3748 16.7494 14.7273 16.3389 15.0017C15.8256 15.3446 15.239 15.4942 14.5363 15.5657C13.8504 15.6354 12.9916 15.6354 11.9076 15.6354H7.09174C6.00779 15.6354 5.14891 15.6354 4.46305 15.5657C3.76033 15.4942 3.17367 15.3446 2.6605 15.0017C2.2499 14.7273 1.89735 14.3748 1.623 13.9642C1.28011 13.451 1.1305 12.8643 1.05902 12.1617C0.989242 11.4758 0.98925 10.6169 0.989258 9.53293V9.46706C0.98925 8.38311 0.989242 7.52423 1.05902 6.83837C1.1305 6.13565 1.28011 5.54899 1.623 5.03582C1.89735 4.62522 2.2499 4.27268 2.6605 3.99832C3.17367 3.65543 3.76033 3.50582 4.46304 3.43434C5.14891 3.36456 6.00779 3.36457 7.09175 3.36458H11.9076C12.9916 3.36457 13.8504 3.36456 14.5363 3.43434ZM4.35384 6.53124C4.68176 6.53124 4.94759 6.79708 4.94759 7.12499V11.875C4.94759 12.2029 4.68176 12.4687 4.35384 12.4687C4.02592 12.4687 3.76009 12.2029 3.76009 11.875V7.12499C3.76009 6.79708 4.02592 6.53124 4.35384 6.53124ZM9.49967 7.71874C8.51595 7.71874 7.71842 8.51627 7.71842 9.49999C7.71842 10.4837 8.51595 11.2812 9.49967 11.2812C10.4834 11.2812 11.2809 10.4837 11.2809 9.49999C11.2809 8.51627 10.4834 7.71874 9.49967 7.71874ZM6.53092 9.49999C6.53092 7.8604 7.86008 6.53124 9.49967 6.53124C11.1393 6.53124 12.4684 7.8604 12.4684 9.49999C12.4684 11.1396 11.1393 12.4687 9.49967 12.4687C7.86008 12.4687 6.53092 11.1396 6.53092 9.49999ZM14.6455 6.53124C14.9734 6.53124 15.2393 6.79708 15.2393 7.12499V11.875C15.2393 12.2029 14.9734 12.4687 14.6455 12.4687C14.3176 12.4687 14.0518 12.2029 14.0518 11.875V7.12499C14.0518 6.79708 14.3176 6.53124 14.6455 6.53124Z" fill="#0696D6"/>
</svg>
