<svg width="19" height="19" viewBox="0 0 19 19" fill="none" xmlns="http://www.w3.org/2000/svg">
<path fill-rule="evenodd" clip-rule="evenodd" d="M9.45052 0.989746H9.54948C11.1869 0.989731 12.4828 0.989723 13.4967 1.14118C14.5449 1.29776 15.376 1.62689 16.0229 2.34567C16.6617 3.05549 16.9469 3.95234 17.084 5.08547C17.2188 6.19902 17.2188 7.62785 17.2188 9.45884V9.54149C17.2188 11.3725 17.2188 12.8013 17.084 13.9149C16.9469 15.048 16.6617 15.9448 16.0229 16.6547C15.376 17.3734 14.5449 17.7025 13.4967 17.8591C12.4828 18.0106 11.1869 18.0106 9.54948 18.0106H9.45052C7.81312 18.0106 6.51717 18.0106 5.50325 17.8591C4.45508 17.7025 3.624 17.3734 2.9771 16.6547C2.33826 15.9448 2.05309 15.048 1.91598 13.9149C1.78123 12.8013 1.78124 11.3725 1.78125 9.54149V9.45884C1.78124 7.62786 1.78123 6.19902 1.91598 5.08547C2.05309 3.95234 2.33826 3.05549 2.9771 2.34567C3.624 1.62689 4.45508 1.29776 5.50325 1.14118C6.51717 0.989723 7.81313 0.989731 9.45052 0.989746ZM5.6787 2.31565C4.78662 2.44891 4.25629 2.69947 3.85976 3.14006C3.45517 3.58961 3.21862 4.20544 3.09488 5.22812C2.96978 6.26202 2.96875 7.61904 2.96875 9.50016C2.96875 11.3813 2.96978 12.7383 3.09488 13.7722C3.21862 14.7949 3.45517 15.4107 3.85976 15.8603C4.25629 16.3008 4.78662 16.5514 5.6787 16.6847C6.59481 16.8215 7.80203 16.8231 9.5 16.8231C11.198 16.8231 12.4052 16.8215 13.3213 16.6847C14.2133 16.5514 14.7437 16.3008 15.1402 15.8603C15.5449 15.4107 15.7814 14.7949 15.9051 13.7722C16.0302 12.7383 16.0312 11.3813 16.0312 9.50016C16.0312 7.61904 16.0302 6.26202 15.9051 5.22812C15.7814 4.20544 15.5449 3.58961 15.1402 3.14006C14.7437 2.69947 14.2133 2.44891 13.3213 2.31565C12.4052 2.1788 11.198 2.17725 9.5 2.17725C7.80203 2.17725 6.59481 2.1788 5.6787 2.31565ZM7.05859 4.15637C7.08051 4.15639 7.10264 4.15641 7.125 4.15641H11.875C11.8973 4.15641 11.9195 4.15639 11.9414 4.15637C12.2429 4.15605 12.503 4.15577 12.7318 4.21711C13.3465 4.38182 13.8267 4.86195 13.9914 5.47664C14.0527 5.70555 14.0525 5.96563 14.0522 6.26709C14.0521 6.289 14.0521 6.31114 14.0521 6.3335C14.0521 6.35585 14.0521 6.37799 14.0522 6.39991C14.0525 6.70137 14.0527 6.96145 13.9914 7.19035C13.8267 7.80505 13.3465 8.28519 12.7318 8.44986C12.503 8.51121 12.2429 8.51097 11.9414 8.51066C11.9195 8.51058 11.8973 8.51058 11.875 8.51058H7.125C7.10264 8.51058 7.08051 8.51058 7.05859 8.51066C6.75714 8.51097 6.49705 8.51121 6.26815 8.44986C5.65345 8.28519 5.17332 7.80505 5.00861 7.19035C4.94728 6.96145 4.94755 6.70137 4.94787 6.39991C4.94789 6.37799 4.94792 6.35585 4.94792 6.3335C4.94792 6.31114 4.94789 6.289 4.94787 6.26709C4.94755 5.96563 4.94728 5.70555 5.00861 5.47664C5.17332 4.86195 5.65345 4.38182 6.26815 4.21711C6.49705 4.15577 6.75714 4.15605 7.05859 4.15637ZM7.125 5.34391C6.71866 5.34391 6.63197 5.34901 6.5755 5.36415C6.3706 5.41905 6.21055 5.57909 6.15565 5.78399C6.14051 5.84046 6.13542 5.92716 6.13542 6.3335C6.13542 6.73983 6.14051 6.82653 6.15565 6.88301C6.21055 7.0879 6.3706 7.24795 6.5755 7.30285C6.63197 7.31798 6.71866 7.32308 7.125 7.32308H11.875C12.2814 7.32308 12.3681 7.31798 12.4245 7.30285C12.6294 7.24795 12.7895 7.0879 12.8443 6.88301C12.8595 6.82653 12.8646 6.73983 12.8646 6.3335C12.8646 5.92716 12.8595 5.84046 12.8443 5.78399C12.7895 5.57909 12.6294 5.41905 12.4245 5.36415C12.3681 5.34901 12.2814 5.34391 11.875 5.34391H7.125Z" fill="#0696D6"/>
<path d="M7.125 10.2917C7.125 10.7289 6.77057 11.0833 6.33334 11.0833C5.89612 11.0833 5.54167 10.7289 5.54167 10.2917C5.54167 9.85443 5.89612 9.5 6.33334 9.5C6.77057 9.5 7.125 9.85443 7.125 10.2917Z" fill="#0696D6"/>
<path d="M7.125 13.4582C7.125 13.8954 6.77057 14.2498 6.33334 14.2498C5.89612 14.2498 5.54167 13.8954 5.54167 13.4582C5.54167 13.0209 5.89612 12.6665 6.33334 12.6665C6.77057 12.6665 7.125 13.0209 7.125 13.4582Z" fill="#0696D6"/>
<path d="M10.2917 10.2917C10.2917 10.7289 9.93723 11.0833 9.49999 11.0833C9.06276 11.0833 8.70833 10.7289 8.70833 10.2917C8.70833 9.85443 9.06276 9.5 9.49999 9.5C9.93723 9.5 10.2917 9.85443 10.2917 10.2917Z" fill="#0696D6"/>
<path d="M10.2917 13.4582C10.2917 13.8954 9.93723 14.2498 9.49999 14.2498C9.06276 14.2498 8.70833 13.8954 8.70833 13.4582C8.70833 13.0209 9.06276 12.6665 9.49999 12.6665C9.93723 12.6665 10.2917 13.0209 10.2917 13.4582Z" fill="#0696D6"/>
<path d="M13.4583 10.2917C13.4583 10.7289 13.1039 11.0833 12.6667 11.0833C12.2294 11.0833 11.875 10.7289 11.875 10.2917C11.875 9.85443 12.2294 9.5 12.6667 9.5C13.1039 9.5 13.4583 9.85443 13.4583 10.2917Z" fill="#0696D6"/>
<path d="M13.4583 13.4582C13.4583 13.8954 13.1039 14.2498 12.6667 14.2498C12.2294 14.2498 11.875 13.8954 11.875 13.4582C11.875 13.0209 12.2294 12.6665 12.6667 12.6665C13.1039 12.6665 13.4583 13.0209 13.4583 13.4582Z" fill="#0696D6"/>
</svg>
