<svg width="16" height="19" viewBox="0 0 16 19" fill="none" xmlns="http://www.w3.org/2000/svg">
<path d="M4.63595 6.34607H2.54586C2.35581 6.34607 2.16589 6.49809 2.16589 6.72604V8.43599C2.16589 8.62604 2.31791 8.81596 2.54586 8.81596H4.67385C4.8639 8.81596 5.05382 8.66394 5.05382 8.43599V6.72604C5.01591 6.49808 4.86389 6.34607 4.63595 6.34607ZM4.25598 8.05615H2.926V7.10614H4.29401V8.05615H4.25598Z" fill="#0696D6"/>
<path d="M12.426 6.34607H10.2981C10.108 6.34607 9.91809 6.49809 9.91809 6.72604V8.43599C9.91809 8.62605 10.0701 8.81596 10.2981 8.81596L12.426 8.81609C12.6161 8.81609 12.806 8.66407 12.806 8.43612V6.72617C12.806 6.49808 12.654 6.34607 12.426 6.34607ZM12.0459 8.05616H10.6779V7.10615H12.0459V8.05616Z" fill="#0696D6"/>
<path d="M4.63595 9.69012H2.54586C2.35581 9.69012 2.16589 9.84214 2.16589 10.0701V11.78C2.16589 11.9701 2.31791 12.16 2.54586 12.16H4.67385C4.8639 12.16 5.05382 12.008 5.05382 11.78V10.0701C5.01591 9.88004 4.86389 9.69012 4.63595 9.69012ZM4.25598 11.4001H2.926V10.4501H4.29401V11.4001H4.25598Z" fill="#0696D6"/>
<path d="M12.4261 9.69012H10.2981C10.108 9.69012 9.9181 9.84214 9.9181 10.0701L9.91797 11.78C9.91797 11.9701 10.07 12.16 10.2979 12.16H12.4261C12.6161 12.16 12.806 12.008 12.806 11.78V10.0701C12.806 9.88004 12.654 9.69012 12.4261 9.69012ZM12.046 11.4001H10.6779V10.4501H12.046V11.4001Z" fill="#0696D6"/>
<path d="M8.55007 6.34607H6.42208C6.23203 6.34607 6.04211 6.49809 6.04211 6.72604V8.43599C6.04211 8.62604 6.19413 8.81596 6.42208 8.81596H8.55007C8.74012 8.81596 8.93004 8.66394 8.93004 8.43599V6.72604C8.93004 6.49808 8.74011 6.34607 8.55007 6.34607ZM8.1701 8.05615H6.80209V7.10614H8.1701V8.05615Z" fill="#0696D6"/>
<path d="M8.55007 9.69012H6.42208C6.23203 9.69012 6.04211 9.84214 6.04211 10.0701V11.78C6.04211 11.9701 6.19413 12.16 6.42208 12.16H8.55007C8.74012 12.16 8.93004 12.008 8.93004 11.78V10.0701C8.93004 9.88004 8.74011 9.69012 8.55007 9.69012ZM8.1701 11.4001H6.80209V10.4501H8.1701V11.4001Z" fill="#0696D6"/>
<path d="M14.5921 18.2402H14.3261V2.09005C14.3261 1.9 14.1741 1.71008 13.9461 1.71008H11.7801L11.78 0.759939H12.274C12.464 0.759939 12.6539 0.607921 12.6539 0.379969C12.6539 0.152018 12.5019 0 12.274 0H2.58388C2.39382 0 2.20391 0.152018 2.20391 0.379969C2.20391 0.607921 2.35593 0.759939 2.58388 0.759939H3.07785V1.70995H0.988032C0.797976 1.70995 0.608063 1.86197 0.608063 2.08992V18.2401H0.37997C0.189914 18.2401 0 18.3921 0 18.62C0 18.8101 0.152018 19 0.37997 19H14.6301C14.8202 19 15.0101 18.848 15.0101 18.62C14.9722 18.43 14.8201 18.2401 14.5922 18.2401L14.5921 18.2402ZM3.91401 0.760041H11.0581V1.71005H3.91401V0.760041ZM4.52209 18.2402V13.7942H7.10611V18.2402H4.52209ZM7.86608 18.2402V13.7942H10.4881V18.2402H7.86608ZM11.2102 18.2402V13.4522C11.2102 13.2621 11.0582 13.0722 10.8302 13.0722H4.14215C3.9521 13.0722 3.76218 13.2242 3.76218 13.4522L3.76205 18.2402H1.36806V2.47006H13.6042V18.2402H11.2102Z" fill="#0696D6"/>
<path d="M6.46 4.5601H6.992V5.0921C6.992 5.28216 7.14402 5.47207 7.37197 5.47207C7.56203 5.47207 7.75194 5.32005 7.75194 5.0921V4.5601H8.24591C8.43597 4.5601 8.62588 4.40808 8.62588 4.18013C8.62588 3.95218 8.47386 3.80016 8.24591 3.80016H7.71391V3.26815C7.71391 3.0781 7.56189 2.88818 7.33394 2.88818C7.14388 2.88818 6.95397 3.0402 6.95397 3.26815V3.80016H6.42196C6.23191 3.80016 6.04199 3.95218 6.04199 4.18013C6.04199 4.40822 6.23192 4.5601 6.46 4.5601Z" fill="#0696D6"/>
</svg>
