<svg width="29" height="16" viewBox="0 0 29 16" fill="none" xmlns="http://www.w3.org/2000/svg">
<path fill-rule="evenodd" clip-rule="evenodd" d="M15.649 15.249C15.0476 15.8504 14.0725 15.8504 13.4711 15.249L1.151 2.92884C0.549585 2.32742 0.549585 1.35234 1.151 0.750925C1.75241 0.149512 2.7275 0.149512 3.32891 0.750925L15.649 13.0711C16.2505 13.6725 16.2505 14.6476 15.649 15.249Z" fill="#1B2746"/>
<path fill-rule="evenodd" clip-rule="evenodd" d="M28.2489 0.750927C28.8503 1.35234 28.8503 2.32742 28.2489 2.92884L15.9288 15.249C15.3274 15.8504 14.3523 15.8504 13.7509 15.249C13.1495 14.6476 13.1495 13.6725 13.7509 13.0711L26.071 0.750927C26.6724 0.149513 27.6475 0.149513 28.2489 0.750927Z" fill="#1B2746"/>
</svg>
