<svg width="19" height="19" viewBox="0 0 19 19" fill="none" xmlns="http://www.w3.org/2000/svg">
<path fill-rule="evenodd" clip-rule="evenodd" d="M4.17254 8.69716C4.17254 6.52552 4.17254 4.38895 4.17254 2.23482C3.74205 2.23482 3.31712 2.23482 2.8625 2.23482C2.8625 2.31587 2.8625 2.39381 2.8625 2.47179C2.86254 3.68852 2.86254 4.90525 2.86259 6.12198C2.86259 6.18245 2.86291 6.24296 2.86263 6.30348C2.86133 6.57595 2.74257 6.73788 2.54691 6.73401C2.35746 6.73026 2.24313 6.57349 2.24224 6.31312C2.24131 6.02411 2.24196 5.73501 2.24196 5.44596C2.24196 4.44438 2.24167 3.44275 2.2422 2.44113C2.24244 1.92354 2.56688 1.59785 3.08201 1.59697C3.39123 1.59644 3.70054 1.59325 4.00964 1.5987C4.12296 1.60072 4.18311 1.57421 4.23278 1.45557C4.37285 1.12088 4.63257 0.949994 5.00473 0.950195C8.54062 0.95189 12.0765 0.951123 15.6124 0.951406C16.081 0.951446 16.417 1.29137 16.4172 1.76782C16.4179 3.9929 16.4195 6.21799 16.4137 8.44304C16.4132 8.62583 16.4399 8.71991 16.644 8.7807C17.2836 8.9712 17.7077 9.57242 17.708 10.2384C17.7091 12.5508 17.7096 13.9133 17.7081 16.2256C17.7075 17.2252 16.885 18.0491 15.8861 18.0494C11.5166 18.0505 7.14715 18.0505 2.7777 18.0491C1.77507 18.0488 0.952693 17.2299 0.951644 16.23C0.949264 13.9109 0.949426 12.5417 0.951927 10.2225C0.952814 9.38762 1.64594 8.70115 2.48365 8.69752C2.96764 8.69542 3.45167 8.69707 3.93565 8.69707C4.00803 8.69716 4.08028 8.69716 4.17254 8.69716ZM15.7848 1.58486C12.1153 1.58486 8.46906 1.58486 4.81387 1.58486C4.81387 3.95861 4.81387 6.31925 4.81387 8.68804C4.8877 8.69151 4.94704 8.69683 5.00638 8.69675C5.62467 8.69574 6.24304 8.69748 6.86113 8.68582C6.91398 8.68481 6.99256 8.60271 7.01257 8.54276C7.1357 8.17359 7.25047 7.80139 7.35863 7.42746C7.59463 6.61141 8.25161 6.11169 9.1007 6.11137C10.5659 6.11084 12.0313 6.12653 13.496 6.10455C14.2476 6.09329 15.0293 6.60302 15.2513 7.41229C15.356 7.79365 15.4938 8.16609 15.6224 8.54055C15.6424 8.599 15.6936 8.64681 15.7304 8.69954C15.7485 8.68925 15.7666 8.679 15.7848 8.66871C15.7848 6.31268 15.7848 3.9566 15.7848 1.58486Z" fill="#0696D6"/>
<path fill-rule="evenodd" clip-rule="evenodd" d="M10.2779 4.15423C9.04136 4.15423 7.80483 4.15427 6.56833 4.15419C6.52129 4.15419 6.47385 4.15722 6.42729 4.15234C6.24938 4.13374 6.11415 3.99609 6.11674 3.83948C6.11932 3.68061 6.25406 3.54591 6.4356 3.53566C6.59641 3.52658 6.75802 3.52989 6.91931 3.52985C9.28487 3.52957 11.6504 3.52965 14.016 3.52965C14.0429 3.52965 14.0698 3.52929 14.0966 3.52985C14.3351 3.53449 14.4863 3.65883 14.4833 3.84779C14.4804 4.03554 14.3296 4.15714 14.0884 4.15738C12.8182 4.15851 11.548 4.15794 10.2779 4.15794C10.2779 4.15669 10.2779 4.15548 10.2779 4.15423Z" fill="#0696D6" stroke="#0696D6" stroke-width="0.5"/>
</svg>
