<svg width="19" height="19" viewBox="0 0 19 19" fill="none" xmlns="http://www.w3.org/2000/svg">
<path fill-rule="evenodd" clip-rule="evenodd" d="M4.17254 8.22197C4.17254 6.05033 4.17254 3.91376 4.17254 1.75963C3.74205 1.75963 3.31712 1.75963 2.8625 1.75963C2.8625 1.84068 2.8625 1.91862 2.8625 1.9966C2.86254 3.21333 2.86254 4.43006 2.86259 5.64679C2.86259 5.70726 2.86291 5.76777 2.86263 5.82829C2.86133 6.10076 2.74257 6.2627 2.54691 6.25882C2.35746 6.25507 2.24313 6.0983 2.24224 5.83793C2.24131 5.54892 2.24196 5.25982 2.24196 4.97077C2.24196 3.96919 2.24167 2.96756 2.2422 1.96594C2.24244 1.44835 2.56688 1.12266 3.08201 1.12178C3.39123 1.12125 3.70054 1.11806 4.00964 1.12351C4.12296 1.12553 4.18312 1.09902 4.23278 0.980376C4.37285 0.645695 4.63257 0.474805 5.00473 0.475006C8.54062 0.476701 12.0765 0.475934 15.6124 0.476217C16.081 0.476257 16.417 0.816182 16.4172 1.29263C16.4179 3.51771 16.4195 5.7428 16.4137 7.96785C16.4133 8.15064 16.4399 8.24472 16.644 8.30552C17.2836 8.49601 17.7077 9.09724 17.708 9.76325C17.7091 12.0756 17.7096 14.3881 17.7081 16.7004C17.7075 17.7001 16.885 18.5239 15.8861 18.5242C11.5166 18.5253 7.14716 18.5253 2.77771 18.5239C1.77507 18.5236 0.952693 17.7047 0.951644 16.7049C0.949264 14.3857 0.949426 12.0665 0.951927 9.74731C0.952814 8.91243 1.64594 8.22596 2.48365 8.22233C2.96764 8.22023 3.45167 8.22189 3.93565 8.22189C4.00803 8.22197 4.08028 8.22197 4.17254 8.22197ZM9.31108 17.904C11.5293 17.904 13.7474 17.9051 15.9656 17.9033C16.6056 17.9027 17.0847 17.4493 17.0858 16.8292C17.0902 14.4364 17.0893 12.0434 17.0864 9.65049C17.0859 9.18349 16.7505 8.85195 16.2859 8.84356C16.0373 8.83908 15.7884 8.83856 15.5398 8.84356C15.3314 8.84776 15.2013 8.76534 15.1361 8.55838C14.9708 8.03409 14.7902 7.5146 14.6227 6.99096C14.4777 6.53819 14.1233 6.26249 13.6492 6.26177C12.0831 6.25931 10.5169 6.25911 8.95079 6.26181C8.47612 6.26266 8.12473 6.53961 7.98729 6.9989C7.83935 7.49334 7.68867 7.98697 7.53711 8.48032C7.43996 8.79652 7.37311 8.84255 7.02936 8.84255C5.517 8.84251 4.00464 8.84207 2.49228 8.84251C1.87811 8.84272 1.57187 9.14565 1.57175 9.75401C1.5713 12.073 1.57122 14.392 1.57199 16.7109C1.57223 17.4699 2.01205 17.9039 2.77758 17.904C4.95547 17.9041 7.13328 17.904 9.31108 17.904ZM15.7848 1.10967C12.1153 1.10967 8.46906 1.10967 4.81387 1.10967C4.81387 3.48342 4.81387 5.84406 4.81387 8.21285C4.8877 8.21632 4.94704 8.22164 5.00638 8.22156C5.62467 8.22055 6.24304 8.22229 6.86113 8.21063C6.91398 8.20962 6.99256 8.12752 7.01257 8.06758C7.1357 7.6984 7.25047 7.3262 7.35863 6.95227C7.59463 6.13622 8.25161 5.6365 9.1007 5.63618C10.5659 5.63565 12.0313 5.65135 13.496 5.62936C14.2476 5.6181 15.0293 6.12783 15.2513 6.9371C15.356 7.31846 15.4938 7.6909 15.6224 8.06536C15.6424 8.12381 15.6936 8.17162 15.7304 8.22435C15.7485 8.21406 15.7666 8.20381 15.7848 8.19353C15.7848 5.83749 15.7848 3.48141 15.7848 1.10967Z" fill="#0696D6"/>
<path fill-rule="evenodd" clip-rule="evenodd" d="M11.9517 12.7997C12.2915 12.403 12.6312 12.0063 12.9709 11.6096C13.0233 11.5483 13.0729 11.4844 13.1285 11.4262C13.2521 11.297 13.4411 11.2779 13.5625 11.3788C13.7022 11.4948 13.7139 11.6638 13.5858 11.8251C13.4856 11.9512 13.3772 12.0709 13.2728 12.1938C12.799 12.7519 12.3254 13.3103 11.8513 13.8681C11.6982 14.0482 11.5132 14.0603 11.3473 13.8943C10.7251 13.2718 10.1043 12.648 9.48484 12.0229C9.311 11.8474 9.29866 11.688 9.4378 11.5474C9.5769 11.4068 9.73904 11.4178 9.91315 11.5903C10.3047 11.9778 10.6926 12.369 11.0827 12.758C11.1327 12.8079 11.187 12.8535 11.2783 12.9366C11.2783 12.817 11.2783 12.7464 11.2783 12.6759C11.2783 11.5673 11.2783 10.4588 11.2784 9.3502C11.2784 9.29646 11.2752 9.2424 11.2798 9.18903C11.2953 9.00753 11.4247 8.87271 11.5834 8.8692C11.7489 8.86552 11.8838 9.00596 11.8978 9.19847C11.9012 9.24527 11.8988 9.29251 11.8988 9.33955C11.8988 10.4145 11.8988 11.4895 11.8988 12.5644C11.8988 12.6364 11.8988 12.7084 11.8988 12.7804C11.9164 12.7868 11.9341 12.7933 11.9517 12.7997Z" fill="#0696D6"/>
<path fill-rule="evenodd" clip-rule="evenodd" d="M11.5884 15.9678C12.4017 15.9679 13.2149 15.9677 14.0282 15.968C14.3205 15.968 14.4832 16.0819 14.4793 16.2826C14.4755 16.4816 14.3158 16.5877 14.0189 16.5883C13.9853 16.5884 13.9517 16.5884 13.9181 16.5884C13.0578 16.5884 12.1975 16.5885 11.3372 16.5884C10.618 16.5884 9.89888 16.5884 9.17969 16.5883C9.13261 16.5883 9.08545 16.5904 9.03858 16.5877C8.84352 16.5767 8.7024 16.4497 8.69845 16.2833C8.69433 16.1112 8.84162 15.9716 9.0479 15.9694C9.48472 15.9648 9.92163 15.9678 10.3585 15.9677C10.7685 15.9677 11.1785 15.9677 11.5884 15.9678Z" fill="#0696D6"/>
<path fill-rule="evenodd" clip-rule="evenodd" d="M10.2779 3.6786C9.04136 3.6786 7.80483 3.67864 6.56833 3.67856C6.52129 3.67856 6.47385 3.68159 6.42729 3.6767C6.24938 3.65811 6.11415 3.52046 6.11674 3.36385C6.11932 3.20498 6.25406 3.07028 6.4356 3.06003C6.59641 3.05095 6.75802 3.05426 6.91931 3.05422C9.28487 3.05394 11.6504 3.05402 14.016 3.05402C14.0429 3.05402 14.0698 3.05366 14.0966 3.05422C14.3351 3.05886 14.4863 3.1832 14.4833 3.37216C14.4804 3.55991 14.3296 3.68151 14.0884 3.68175C12.8182 3.68288 11.548 3.68231 10.2779 3.68231C10.2779 3.68106 10.2779 3.67985 10.2779 3.6786Z" fill="#0696D6" stroke="#0696D6" stroke-width="0.5"/>
</svg>
