<svg width="19" height="19" viewBox="0 0 19 19" fill="none" xmlns="http://www.w3.org/2000/svg">
<g clip-path="url(#clip0_20623_2304)">
<path fill-rule="evenodd" clip-rule="evenodd" d="M5.43027 0.989752C5.45382 0.989752 5.47769 0.98976 5.50189 0.98976L5.53118 0.989752C5.80939 0.989737 5.98843 0.989729 6.16346 1.00609C6.87743 1.07286 7.55659 1.34228 8.12139 1.78143H13.0625C13.078 1.78143 13.0933 1.78142 13.1083 1.78142C13.4319 1.78136 13.6522 1.78133 13.8459 1.80682C15.178 1.98221 16.2263 3.03049 16.4017 4.36267C16.4083 4.41289 16.4132 4.46489 16.4168 4.52003C16.6365 4.62016 16.8399 4.74964 17.0269 4.91788C17.1048 4.98791 17.1789 5.06203 17.249 5.13991C17.6672 5.60488 17.8459 6.17088 17.9297 6.837C18.0104 7.47975 18.0104 8.29216 18.0104 9.29987V11.1281C18.0104 12.5831 18.0104 13.7354 17.8892 14.6373C17.7644 15.5655 17.5015 16.3167 16.909 16.9092C16.3166 17.5016 15.5654 17.7646 14.6371 17.8894C13.7353 18.0106 12.5829 18.0106 11.128 18.0106H7.87203C6.41712 18.0106 5.26475 18.0106 4.36287 17.8894C3.4347 17.7646 2.68345 17.5016 2.091 16.9092C1.49855 16.3167 1.23562 15.5655 1.11083 14.6373C0.989576 13.7354 0.989584 12.5831 0.9896 11.1281V5.50205C0.9896 5.47785 0.989592 5.45398 0.989592 5.43043C0.989505 4.80034 0.989442 4.39933 1.05479 4.05298C1.3418 2.53182 2.53166 1.34196 4.05282 1.05495C4.39917 0.989602 4.80018 0.989665 5.43027 0.989752ZM15.1584 4.21791C14.9542 3.56496 14.3871 3.07583 13.6908 2.98417C13.5848 2.9702 13.4491 2.96893 13.0625 2.96893H9.35061C9.85958 3.47485 10.0905 3.68615 10.3525 3.83187C10.5251 3.92789 10.7081 4.00372 10.8981 4.05786C11.2253 4.15113 11.584 4.15643 12.5308 4.15643H12.867C13.7871 4.15641 14.5443 4.1564 15.1584 4.21791ZM5.50189 2.17726C4.77622 2.17726 4.49566 2.17985 4.27299 2.22186C3.23219 2.41824 2.41808 3.23235 2.2217 4.27315C2.17969 4.49582 2.1771 4.77638 2.1771 5.50205V11.0835C2.1771 12.593 2.17836 13.6655 2.28774 14.4791C2.39482 15.2756 2.59565 15.7345 2.93069 16.0695C3.26573 16.4045 3.72462 16.6054 4.52111 16.7125C5.33467 16.8218 6.40712 16.8231 7.91667 16.8231H11.0833C12.5929 16.8231 13.6654 16.8218 14.4789 16.7125C15.2754 16.6054 15.7343 16.4045 16.0693 16.0695C16.4044 15.7345 16.6052 15.2756 16.7123 14.4791C16.8216 13.6655 16.8229 12.593 16.8229 11.0835V9.34016C16.8229 8.28266 16.8218 7.54514 16.7514 6.98513C16.6829 6.43996 16.557 6.14631 16.366 5.93401C16.324 5.88729 16.2796 5.84282 16.2328 5.8008C16.0206 5.60985 15.7269 5.48397 15.1817 5.41543C14.6217 5.34503 13.8842 5.34393 12.8267 5.34393H12.5308C12.5014 5.34393 12.4723 5.34393 12.4436 5.34393C11.6139 5.34411 11.0789 5.34421 10.5725 5.19987C10.2949 5.12075 10.0273 5.00991 9.7751 4.86957C9.31499 4.61357 8.93673 4.23518 8.35018 3.64842C8.32992 3.62809 8.30933 3.60752 8.28851 3.58669L7.85288 3.15107C7.62863 2.92681 7.54283 2.84186 7.45537 2.76936C7.05694 2.43907 6.56817 2.23662 6.05289 2.18843C5.93979 2.17785 5.81905 2.17726 5.50189 2.17726ZM9.69792 7.91683C9.69792 7.58892 9.96376 7.32309 10.2917 7.32309H14.25C14.5779 7.32309 14.8437 7.58892 14.8437 7.91683C14.8437 8.24474 14.5779 8.51058 14.25 8.51058H10.2917C9.96376 8.51058 9.69792 8.24474 9.69792 7.91683Z" fill="#0696D6"/>
</g>
<defs>
<clipPath id="clip0_20623_2304">
<rect width="19" height="19" fill="white"/>
</clipPath>
</defs>
</svg>
