<svg width="19" height="19" viewBox="0 0 19 19" fill="none" xmlns="http://www.w3.org/2000/svg">
<path d="M6.75966 8.80566H6.06543V10.1941H6.75966H12.3135H13.0077V8.80566H12.3135H6.75966Z" fill="#0696D6"/>
<path d="M6.75966 11.582H6.06543V12.9705H6.75966H8.84234H9.53657V11.582H8.84234H6.75966Z" fill="#0696D6"/>
<path d="M12.5981 0.474609H1.90002V16.4418C1.90002 16.9942 2.11945 17.5239 2.51003 17.9145C2.90061 18.3051 3.43035 18.5245 3.98271 18.5245H15.0903C15.6427 18.5245 16.1724 18.3051 16.563 17.9145C16.9536 17.5239 17.173 16.9942 17.173 16.4418V5.04957L12.5981 0.474609ZM12.3134 2.1477L15.4999 5.3342H13.0077C12.8235 5.3342 12.647 5.26106 12.5168 5.13087C12.3866 5.00067 12.3134 4.82409 12.3134 4.63997V2.1477ZM15.0903 17.1361H3.98271C3.79859 17.1361 3.62201 17.0629 3.49181 16.9327C3.36162 16.8025 3.28848 16.626 3.28848 16.4418V1.86306H10.925V4.63997C10.925 5.19234 11.1444 5.72207 11.535 6.11265C11.9256 6.50323 12.4553 6.72266 13.0077 6.72266H15.7846V16.4418C15.7846 16.626 15.7114 16.8025 15.5812 16.9327C15.451 17.0629 15.2745 17.1361 15.0903 17.1361Z" fill="#0696D6"/>
</svg>
