<svg width="19" height="19" viewBox="0 0 19 19" fill="none" xmlns="http://www.w3.org/2000/svg">
<path fill-rule="evenodd" clip-rule="evenodd" d="M5.74956 2.58135C5.84423 1.68676 6.60114 0.989746 7.52083 0.989746H11.4792C12.3988 0.989746 13.1558 1.68676 13.2504 2.58135C13.8546 2.59365 14.3769 2.6249 14.8229 2.70683C15.4229 2.81706 15.9336 3.02704 16.3493 3.44261C16.8258 3.91913 17.0307 4.51911 17.1265 5.23169C17.2188 5.91805 17.2188 6.79072 17.2188 7.87339V12.7103C17.2188 13.793 17.2188 14.6656 17.1265 15.352C17.0307 16.0646 16.8258 16.6645 16.3493 17.1411C15.8727 17.6176 15.2728 17.8226 14.5602 17.9183C13.8738 18.0106 13.0011 18.0106 11.9185 18.0106H7.08156C5.99889 18.0106 5.12622 18.0106 4.43987 17.9183C3.72728 17.8226 3.1273 17.6176 2.65078 17.1411C2.17426 16.6645 1.9693 16.0646 1.8735 15.352C1.78122 14.6656 1.78123 13.793 1.78125 12.7103V7.87339C1.78123 6.79072 1.78122 5.91805 1.8735 5.23169C1.9693 4.51911 2.17426 3.91913 2.65078 3.44261C3.06635 3.02704 3.57703 2.81706 4.17711 2.70683C4.62312 2.6249 5.14545 2.59365 5.74956 2.58135ZM5.75143 3.76918C5.18287 3.78132 4.74474 3.80993 4.39165 3.87478C3.94293 3.95721 3.6832 4.08956 3.49047 4.2823C3.27136 4.5014 3.12851 4.80902 3.05041 5.38992C2.97001 5.98791 2.96875 6.78046 2.96875 7.91683V12.6668C2.96875 13.8032 2.97001 14.5957 3.05041 15.1937C3.12851 15.7747 3.27136 16.0822 3.49047 16.3014C3.70957 16.5205 4.01719 16.6633 4.5981 16.7415C5.19608 16.8218 5.98863 16.8231 7.125 16.8231H11.875C13.0114 16.8231 13.8039 16.8218 14.4019 16.7415C14.9828 16.6633 15.2904 16.5205 15.5095 16.3014C15.7287 16.0822 15.8715 15.7747 15.9496 15.1937C16.03 14.5957 16.0312 13.8032 16.0312 12.6668V7.91683C16.0312 6.78046 16.03 5.98791 15.9496 5.38992C15.8715 4.80901 15.7287 4.5014 15.5095 4.2823C15.3168 4.08956 15.0571 3.95721 14.6084 3.87478C14.2552 3.80993 13.8171 3.78132 13.2485 3.76918C13.1463 4.65565 12.3931 5.34391 11.4792 5.34391H7.52083C6.60693 5.34391 5.85377 4.65565 5.75143 3.76918ZM7.52083 2.17725C7.19292 2.17725 6.92708 2.44308 6.92708 2.771V3.56266C6.92708 3.89058 7.19292 4.15641 7.52083 4.15641H11.4792C11.8071 4.15641 12.0729 3.89058 12.0729 3.56266V2.771C12.0729 2.44308 11.8071 2.17725 11.4792 2.17725H7.52083ZM4.94792 8.31266C4.94792 7.98475 5.21375 7.71891 5.54167 7.71891H13.4583C13.7862 7.71891 14.0521 7.98475 14.0521 8.31266C14.0521 8.64057 13.7862 8.90641 13.4583 8.90641H5.54167C5.21375 8.90641 4.94792 8.64057 4.94792 8.31266ZM5.73958 11.0835C5.73958 10.7556 6.00542 10.4897 6.33333 10.4897H12.6667C12.9946 10.4897 13.2604 10.7556 13.2604 11.0835C13.2604 11.4114 12.9946 11.6772 12.6667 11.6772H6.33333C6.00542 11.6772 5.73958 11.4114 5.73958 11.0835ZM6.53125 13.8543C6.53125 13.5264 6.79708 13.2606 7.125 13.2606H11.875C12.2029 13.2606 12.4688 13.5264 12.4688 13.8543C12.4688 14.1822 12.2029 14.4481 11.875 14.4481H7.125C6.79708 14.4481 6.53125 14.1822 6.53125 13.8543Z" fill="#0696D6"/>
</svg>
