<svg width="19" height="19" viewBox="0 0 19 19" fill="none" xmlns="http://www.w3.org/2000/svg">
<g clip-path="url(#clip0_20623_5681)">
<path fill-rule="evenodd" clip-rule="evenodd" d="M9.5 0.989746C9.6733 0.989746 9.83804 1.06548 9.95078 1.19709L12.3258 3.96792C12.5392 4.2169 12.5104 4.59173 12.2614 4.80514C12.0124 5.01855 11.6376 4.98971 11.4242 4.74073L10.0938 3.18855V11.8752C10.0938 12.2031 9.82791 12.4689 9.5 12.4689C9.17209 12.4689 8.90625 12.2031 8.90625 11.8752V3.18855L7.57581 4.74073C7.36241 4.98971 6.98757 5.01855 6.7386 4.80514C6.48962 4.59173 6.46079 4.2169 6.6742 3.96792L9.04923 1.19709C9.16196 1.06548 9.32671 0.989746 9.5 0.989746ZM5.53837 6.53296C5.86628 6.53114 6.13358 6.79549 6.13541 7.12341C6.13724 7.45131 5.87289 7.71862 5.54498 7.72045C4.67929 7.72527 4.06569 7.74775 3.59999 7.83329C3.15126 7.91571 2.89153 8.04809 2.6988 8.24078C2.4797 8.45991 2.33684 8.76755 2.25875 9.3484C2.17834 9.94643 2.17709 10.739 2.17709 11.8753V12.667C2.17709 13.8033 2.17834 14.5959 2.25875 15.1939C2.33684 15.7748 2.4797 16.0824 2.6988 16.3015C2.9179 16.5207 3.22552 16.6635 3.80643 16.7416C4.40442 16.822 5.19696 16.8232 6.33334 16.8232H12.6667C13.803 16.8232 14.5956 16.822 15.1936 16.7416C15.7745 16.6635 16.0821 16.5207 16.3012 16.3015C16.5203 16.0824 16.6632 15.7748 16.7413 15.1939C16.8217 14.5959 16.8229 13.8033 16.8229 12.667V11.8753C16.8229 10.739 16.8217 9.94643 16.7413 9.3484C16.6632 8.76755 16.5203 8.45991 16.3012 8.24078C16.1084 8.04809 15.8488 7.91571 15.4001 7.83329C14.9343 7.74775 14.3207 7.72527 13.455 7.72045C13.1271 7.71862 12.8628 7.45131 12.8646 7.12341C12.8664 6.79549 13.1338 6.53114 13.4617 6.53296C14.3178 6.53773 15.0315 6.55823 15.6145 6.66533C16.2146 6.77556 16.7253 6.98554 17.1409 7.40111C17.6174 7.87763 17.8224 8.47765 17.9182 9.19022C18.0104 9.87652 18.0104 10.7493 18.0104 11.8319V12.7105C18.0104 13.7931 18.0104 14.6658 17.9182 15.3522C17.8224 16.0647 17.6174 16.6647 17.1409 17.1413C16.6643 17.6178 16.0644 17.8227 15.3518 17.9185C14.6655 18.0108 13.7928 18.0107 12.7101 18.0107H6.2899C5.20722 18.0107 4.33455 18.0108 3.6482 17.9185C2.93561 17.8227 2.33563 17.6178 1.85911 17.1413C1.38259 16.6647 1.17764 16.0647 1.08183 15.3522C0.989555 14.6658 0.98957 13.7931 0.989586 12.7105V11.8319C0.98957 10.7492 0.989555 9.87652 1.08183 9.19022C1.17764 8.47765 1.38259 7.87763 1.85911 7.40111C2.27468 6.98554 2.78536 6.77556 3.38545 6.66533C3.96856 6.55822 4.68216 6.53773 5.53837 6.53296Z" fill="#0696D6"/>
</g>
<defs>
<clipPath id="clip0_20623_5681">
<rect width="19" height="19" fill="white"/>
</clipPath>
</defs>
</svg>
