<svg width="19" height="19" viewBox="0 0 19 19" fill="none" xmlns="http://www.w3.org/2000/svg">
<path d="M17.5999 4.92656L16.9536 4.28027L10.967 10.2669C10.2186 11.0152 8.96008 11.0152 8.21176 10.2669L2.22514 4.31429L1.57886 4.96057L6.03481 9.41652L1.57886 13.8725L2.22514 14.5187L6.68109 10.0628L7.56547 10.9472C8.10971 11.4914 8.82403 11.7976 9.57235 11.7976C10.3207 11.7976 11.035 11.4914 11.5792 10.9472L12.4636 10.0628L16.9196 14.5187L17.5658 13.8725L13.1099 9.41652L17.5999 4.92656Z" fill="#0696D6"/>
<path d="M16.3409 15.675H2.90507C2.12272 15.675 1.47644 15.0287 1.47644 14.2464V4.65421C1.47644 3.87187 2.12272 3.22559 2.90507 3.22559H16.3409C17.1233 3.22559 17.7696 3.87187 17.7696 4.65421V14.2464C17.7696 15.0287 17.1233 15.675 16.3409 15.675ZM2.87105 4.14399C2.59893 4.14399 2.39484 4.34807 2.39484 4.62019V14.2124C2.39484 14.4845 2.59893 14.6886 2.87105 14.6886H16.3069C16.579 14.6886 16.7831 14.4845 16.7831 14.2124V4.62019C16.7831 4.34807 16.579 4.14399 16.3069 4.14399H2.87105Z" fill="#0696D6"/>
</svg>
