<svg width="19" height="19" viewBox="0 0 19 19" fill="none" xmlns="http://www.w3.org/2000/svg">
<path fill-rule="evenodd" clip-rule="evenodd" d="M9.46042 0.950195C9.78832 0.950195 10.0542 1.21603 10.0542 1.54395V1.74299C10.1422 1.74432 10.2173 1.74721 10.2874 1.7534C11.7205 1.88013 12.8563 3.01607 12.9831 4.44911C12.9947 4.58008 12.9947 4.72847 12.9947 4.94641V5.91474C12.9947 8.97793 10.6639 11.4967 7.67917 11.7945V13.419C7.67917 15.2772 9.18555 16.7836 11.0437 16.7836H11.7423C12.732 16.7836 13.5966 16.2439 14.0566 15.4423C12.8806 15.0475 12.0333 13.9363 12.0333 12.6273C12.0333 10.9877 13.3625 9.65853 15.0021 9.65853C16.6417 9.65853 17.9708 10.9877 17.9708 12.6273C17.9708 14.1635 16.804 15.4272 15.3083 15.5804C14.7323 16.9829 13.3534 17.9711 11.7423 17.9711H11.0437C8.52973 17.9711 6.49167 15.933 6.49167 13.419V11.7956C3.38176 11.4969 0.950007 8.87676 0.950007 5.68855L0.949999 4.94646C0.949975 4.7285 0.949959 4.5801 0.961542 4.44911C1.08826 3.01607 2.22422 1.88013 3.65725 1.7534C3.78049 1.7425 3.91915 1.74188 4.11667 1.74185V1.54395C4.11667 1.21603 4.3825 0.950195 4.71042 0.950195C5.03834 0.950195 5.30417 1.21603 5.30417 1.54395V3.12728C5.30417 3.45519 5.03834 3.72103 4.71042 3.72103C4.3825 3.72103 4.11667 3.45519 4.11667 3.12728V2.92938C3.90814 2.92952 3.82686 2.93053 3.76185 2.93629C2.90204 3.01232 2.22046 3.69389 2.14443 4.55371C2.13808 4.62543 2.13751 4.71696 2.13751 4.97732V5.68855C2.13751 8.42123 4.35276 10.6365 7.08542 10.6365C9.69316 10.6365 11.8072 8.52249 11.8072 5.91474V4.97732C11.8072 4.71696 11.8066 4.62543 11.8002 4.55371C11.7242 3.69389 11.0426 3.01232 10.1828 2.93629C10.1493 2.93332 10.1115 2.93162 10.0542 2.93064V3.12728C10.0542 3.45519 9.78832 3.72103 9.46042 3.72103C9.13251 3.72103 8.86667 3.45519 8.86667 3.12728V1.54395C8.86667 1.21603 9.13251 0.950195 9.46042 0.950195ZM13.2208 12.6273C13.2208 11.6436 14.0184 10.846 15.0021 10.846C15.9858 10.846 16.7833 11.6436 16.7833 12.6273C16.7833 13.611 15.9858 14.4085 15.0021 14.4085C14.0184 14.4085 13.2208 13.611 13.2208 12.6273Z" fill="#0696D6"/>
<path d="M14.9625 9.9751C13.5197 9.9751 12.35 11.1448 12.35 12.5876C12.35 14.0304 13.5197 15.2001 14.9625 15.2001C16.4053 15.2001 17.575 14.0304 17.575 12.5876C17.575 11.1448 16.4053 9.9751 14.9625 9.9751Z" fill="#0696D6"/>
</svg>
