<svg width="19" height="19" viewBox="0 0 19 19" fill="none" xmlns="http://www.w3.org/2000/svg">
<path d="M3.6477 10.3131H6.52416V9.51963C6.52416 7.47482 8.21221 5.81112 10.287 5.81112H11.75V5.33246C11.75 3.70171 10.4039 2.375 8.74946 2.375H3.95071C2.29609 2.37519 0.949951 3.7019 0.949951 5.33264V12.7251L3.22475 10.4853C3.33695 10.3744 3.48732 10.3131 3.6477 10.3131Z" fill="#0696D6"/>
<path d="M16.3954 13.9568L16.3951 13.9566C16.1651 13.7262 15.8565 13.598 15.531 13.598H10.5164C9.24101 13.598 8.19983 12.5558 8.19983 11.2725V9.25034C8.19983 7.96699 9.24085 6.9248 10.5164 6.9248H15.2335C16.5087 6.9248 17.5499 7.96699 17.5499 9.25034V15.115L16.3954 13.9568Z" fill="#0696D6" stroke="#0696D6"/>
</svg>
