<svg width="19" height="19" viewBox="0 0 19 19" fill="none" xmlns="http://www.w3.org/2000/svg">
    <g clip-path="url(#clip0_20623_2220)">
        <path fill-rule="evenodd" clip-rule="evenodd" d="M6.53125 7.125C6.53125 5.4854 7.8604 4.15625 9.5 4.15625C11.1396 4.15625 12.4688 5.4854 12.4688 7.125C12.4688 8.76462 11.1396 10.0937 9.5 10.0937C7.8604 10.0937 6.53125 8.76462 6.53125 7.125ZM9.5 5.34375C8.51628 5.34375 7.71875 6.14124 7.71875 7.125C7.71875 8.10872 8.51628 8.90625 9.5 8.90625C10.4837 8.90625 11.2812 8.10872 11.2812 7.125C11.2812 6.14124 10.4837 5.34375 9.5 5.34375Z" fill="#0696D6"/>
        <mask id="path-2-inside-1_20623_2220" fill="white">
            <path fill-rule="evenodd" clip-rule="evenodd" d="M0.989586 9.50016C0.989586 4.79999 4.79983 0.989746 9.5 0.989746C14.2002 0.989746 18.0104 4.79999 18.0104 9.50016C18.0104 14.2004 14.2002 18.0106 9.5 18.0106C4.79983 18.0106 0.989586 14.2004 0.989586 9.50016ZM9.5 2.17725C5.45567 2.17725 2.17709 5.45583 2.17709 9.50016C2.17709 11.5154 2.99113 13.3405 4.30833 14.6646C4.45115 13.8942 4.73175 13.1679 5.29496 12.5838C6.13741 11.7101 7.48455 11.2814 9.5 11.2814C11.5153 11.2814 12.8625 11.7101 13.7049 12.5838C14.2682 13.1679 14.5488 13.8943 14.6916 14.6647C16.0088 13.3406 16.8229 11.5154 16.8229 9.50016C16.8229 5.45583 13.5443 2.17725 9.5 2.17725ZM13.6117 15.5607C13.531 14.6013 13.3226 13.8981 12.8502 13.4081C12.336 12.8749 11.3833 12.4689 9.5 12.4689C7.61662 12.4689 6.66394 12.8749 6.14979 13.4081C5.67726 13.8981 5.46892 14.6012 5.38826 15.5606C6.56042 16.3574 7.97581 16.8231 9.5 16.8231C11.0241 16.8231 12.4395 16.3574 13.6117 15.5607Z"/>
        </mask>
        <path fill-rule="evenodd" clip-rule="evenodd" d="M0.989586 9.50016C0.989586 4.79999 4.79983 0.989746 9.5 0.989746C14.2002 0.989746 18.0104 4.79999 18.0104 9.50016C18.0104 14.2004 14.2002 18.0106 9.5 18.0106C4.79983 18.0106 0.989586 14.2004 0.989586 9.50016ZM9.5 2.17725C5.45567 2.17725 2.17709 5.45583 2.17709 9.50016C2.17709 11.5154 2.99113 13.3405 4.30833 14.6646C4.45115 13.8942 4.73175 13.1679 5.29496 12.5838C6.13741 11.7101 7.48455 11.2814 9.5 11.2814C11.5153 11.2814 12.8625 11.7101 13.7049 12.5838C14.2682 13.1679 14.5488 13.8943 14.6916 14.6647C16.0088 13.3406 16.8229 11.5154 16.8229 9.50016C16.8229 5.45583 13.5443 2.17725 9.5 2.17725ZM13.6117 15.5607C13.531 14.6013 13.3226 13.8981 12.8502 13.4081C12.336 12.8749 11.3833 12.4689 9.5 12.4689C7.61662 12.4689 6.66394 12.8749 6.14979 13.4081C5.67726 13.8981 5.46892 14.6012 5.38826 15.5606C6.56042 16.3574 7.97581 16.8231 9.5 16.8231C11.0241 16.8231 12.4395 16.3574 13.6117 15.5607Z" fill="#0696D6"/>
        <path d="M4.30833 14.6646L-19.3231 38.1735L25.4987 83.2288L37.0832 20.7406L4.30833 14.6646ZM5.29496 12.5838L29.2901 35.7213L29.2902 35.7212L5.29496 12.5838ZM13.7049 12.5838L-10.2908 35.7207L-10.2891 35.7225L13.7049 12.5838ZM14.6916 14.6647L-18.0833 20.7407L-6.49909 83.2273L38.3225 38.1741L14.6916 14.6647ZM13.6117 15.5607L32.3502 43.1284L48.4599 32.1783L46.8278 12.7678L13.6117 15.5607ZM12.8502 13.4081L36.8468 -9.72792L36.844 -9.73077L12.8502 13.4081ZM6.14979 13.4081L-17.8448 -9.73004L-17.8453 -9.72953L6.14979 13.4081ZM5.38826 15.5606L-27.8279 12.768L-29.4597 32.1774L-13.3513 43.1276L5.38826 15.5606ZM34.3229 9.50016C34.3229 23.2095 23.2093 34.3231 9.5 34.3231V-32.3436C-13.6097 -32.3436 -32.3437 -13.6095 -32.3437 9.50016H34.3229ZM9.5 34.3231C-4.20937 34.3231 -15.3229 23.2094 -15.3229 9.50016H51.3438C51.3438 -13.6094 32.6098 -32.3436 9.5 -32.3436V34.3231ZM-15.3229 9.50016C-15.3229 -4.20912 -4.20928 -15.3228 9.5 -15.3228V51.3439C32.6097 51.3439 51.3438 32.6099 51.3438 9.50016H-15.3229ZM9.5 -15.3228C23.2092 -15.3228 34.3229 -4.20921 34.3229 9.50016H-32.3437C-32.3437 32.6099 -13.6096 51.3439 9.5 51.3439V-15.3228ZM9.5 -31.1561C-12.9538 -31.1561 -31.1562 -12.9537 -31.1562 9.50016H35.5104C35.5104 23.8653 23.8652 35.5106 9.5 35.5106V-31.1561ZM-31.1562 9.50016C-31.1562 20.6788 -26.6007 30.858 -19.3231 38.1735L27.9397 -8.84429C32.5829 -4.17688 35.5104 2.35204 35.5104 9.50016H-31.1562ZM37.0832 20.7406C36.5049 23.8599 34.771 30.0372 29.2901 35.7213L-18.7002 -10.5537C-25.3075 -3.70146 -27.6026 3.92854 -28.4665 8.58857L37.0832 20.7406ZM29.2902 35.7212C20.9089 44.4132 11.1724 44.6147 9.5 44.6147V-22.0519C3.79674 -22.0519 -8.63407 -20.993 -18.7002 -10.5537L29.2902 35.7212ZM9.5 44.6147C7.82781 44.6147 -1.90928 44.4133 -10.2908 35.7207L37.7007 -10.5531C27.6343 -20.9931 15.2029 -22.0519 9.5 -22.0519V44.6147ZM-10.2891 35.7225C-15.7719 30.0369 -17.5054 23.858 -18.0833 20.7407L47.4665 8.58864C46.6029 3.93063 44.3084 -3.70118 37.6989 -10.5549L-10.2891 35.7225ZM38.3225 38.1741C45.6007 30.8583 50.1562 20.6788 50.1562 9.50016H-16.5104C-16.5104 2.35208 -13.583 -4.17704 -8.93931 -8.84471L38.3225 38.1741ZM50.1562 9.50016C50.1562 -12.9537 31.9537 -31.1561 9.5 -31.1561V35.5106C-4.86511 35.5106 -16.5104 23.8654 -16.5104 9.50016H50.1562ZM46.8278 12.7678C46.5454 9.40927 45.4047 -0.851646 36.8468 -9.72792L-11.1464 36.5441C-18.7594 28.6479 -19.4834 19.7933 -19.6044 18.3536L46.8278 12.7678ZM36.844 -9.73077C27.1262 -19.8077 15.117 -20.8644 9.5 -20.8644V45.8022C7.64956 45.8022 -2.45419 45.5575 -11.1437 36.5469L36.844 -9.73077ZM9.5 -20.8644C3.88354 -20.8644 -8.12653 -19.808 -17.8448 -9.73004L30.1444 36.5462C21.4544 45.5578 11.3497 45.8022 9.5 45.8022V-20.8644ZM-17.8453 -9.72953C-26.4049 -0.852701 -27.5455 9.40953 -27.8279 12.768L38.6044 18.3532C38.4834 19.7928 37.7594 28.6489 30.1448 36.5457L-17.8453 -9.72953ZM-13.3513 43.1276C-6.82703 47.5627 1.08385 50.1564 9.5 50.1564V-16.5103C14.8678 -16.5103 19.9479 -14.8479 24.1278 -12.0064L-13.3513 43.1276ZM9.5 50.1564C17.916 50.1564 25.8265 47.5628 32.3502 43.1284L-5.12679 -12.0071C-0.947372 -14.8479 4.13222 -16.5103 9.5 -16.5103V50.1564Z" fill="#0696D6" mask="url(#path-2-inside-1_20623_2220)"/>
    </g>
    <defs>
        <clipPath id="clip0_20623_2220">
            <rect width="19" height="19" fill="white"/>
        </clipPath>
    </defs>
</svg>

