<svg width="19" height="19" viewBox="0 0 19 19" fill="none" xmlns="http://www.w3.org/2000/svg">
<path fill-rule="evenodd" clip-rule="evenodd" d="M14.6034 8.65368C15.0502 8.12848 15.4943 7.60075 15.9449 7.07895C16.3122 6.65366 16.6081 6.636 17.0309 7.00912C17.4302 7.3615 17.8282 7.71538 18.2206 8.07576C18.6037 8.42766 18.6252 8.72683 18.2847 9.13083C17.1166 10.5164 15.9359 11.891 14.7799 13.2872C14.6313 13.4666 14.5299 13.7464 14.525 13.9823C14.5 15.2213 14.5149 16.4612 14.512 17.7009C14.5107 18.2666 14.2976 18.483 13.7376 18.4833C9.57758 18.4849 5.41764 18.4848 1.25763 18.4834C0.686391 18.4832 0.475653 18.2622 0.475576 17.6652C0.474651 12.2056 0.474806 6.74605 0.475962 1.28654C0.476039 0.690241 0.67953 0.477991 1.26557 0.477437C4.21866 0.474429 7.17176 0.469916 10.1248 0.48765C10.3404 0.488995 10.6064 0.608065 10.7621 0.763947C11.9295 1.9331 13.072 3.1283 14.2301 4.30727C14.4369 4.51778 14.5228 4.74167 14.5186 5.04267C14.504 6.11057 14.5129 7.17886 14.5129 8.24708C14.5129 8.37359 14.5129 8.49994 14.5129 8.62645C14.5431 8.63547 14.5732 8.64458 14.6034 8.65368ZM13.2565 14.9742C13.1131 15.0288 12.9952 15.0699 12.8803 15.1182C12.4055 15.3175 11.9289 15.5125 11.4585 15.7221C11.1805 15.8459 10.8923 15.8439 10.7201 15.6074C10.5941 15.4347 10.5279 15.1451 10.5651 14.9315C10.6711 14.3235 10.8321 13.7245 10.9966 13.1291C11.0504 12.9344 11.154 12.7384 11.2815 12.5834C11.8697 11.8678 12.4827 11.1736 13.0659 10.4539C13.1838 10.3084 13.2678 10.0859 13.2702 9.89757C13.2874 8.56525 13.2797 7.23269 13.2782 5.90014C13.2781 5.77529 13.2671 5.65044 13.2605 5.51213C12.3259 5.51213 11.4404 5.51213 10.5547 5.51213C9.74207 5.51221 9.59392 5.35894 9.59392 4.51802C9.59384 3.59777 9.59392 2.6776 9.59392 1.74484C6.94321 1.74484 4.33413 1.74484 1.73738 1.74484C1.73738 6.9165 1.73738 12.0549 1.73738 17.1975C5.58892 17.1975 9.4117 17.1975 13.2565 17.1975C13.2565 16.4601 13.2565 15.7422 13.2565 14.9742ZM16.56 8.29125C15.1701 9.92512 13.8048 11.5164 12.4601 13.1257C12.2577 13.3679 12.1515 13.6948 12.0009 13.9825C12.0478 14.0247 12.0949 14.0669 12.1418 14.1092C12.3912 13.9279 12.6835 13.7862 12.8828 13.5585C13.8779 12.422 14.849 11.2633 15.8276 10.1115C16.221 9.64851 16.6118 9.1834 17.02 8.70008C16.8571 8.55528 16.7236 8.43668 16.56 8.29125ZM10.8489 2.76318C10.8489 3.22885 10.8489 3.71011 10.8489 4.20143C11.3527 4.20143 11.8346 4.20143 12.2486 4.20143C11.7914 3.73164 11.3178 3.245 10.8489 2.76318Z" fill="#0696D6"/>
<path fill-rule="evenodd" clip-rule="evenodd" d="M7.49029 6.2969C8.51638 6.2969 9.54247 6.29564 10.5685 6.29746C11.0598 6.29841 11.3368 6.5234 11.3438 6.91916C11.3508 7.31572 11.0675 7.5624 10.5899 7.5628C8.51214 7.56454 6.43429 7.56145 4.3566 7.56573C4.0428 7.56636 3.75876 7.46875 3.69779 7.14899C3.65771 6.93895 3.73356 6.65696 3.85642 6.47938C3.94221 6.35541 4.19465 6.30727 4.37378 6.30458C5.41236 6.28898 6.4514 6.29698 7.49029 6.2969Z" fill="#0696D6"/>
<path fill-rule="evenodd" clip-rule="evenodd" d="M7.50292 11.9979C6.46396 11.998 5.42508 11.9997 4.38612 11.9972C3.91338 11.996 3.62796 11.7435 3.63859 11.3466C3.64884 10.9644 3.92302 10.7323 4.38172 10.7319C6.44677 10.73 8.51183 10.7301 10.5769 10.7317C11.0635 10.7321 11.3427 10.9657 11.3438 11.362C11.3452 11.7591 11.0657 11.9959 10.5813 11.997C9.55511 11.9997 8.52902 11.9979 7.50292 11.9979Z" fill="#0696D6"/>
<path fill-rule="evenodd" clip-rule="evenodd" d="M7.47558 9.62868C6.44956 9.62868 5.42355 9.63042 4.39754 9.62789C3.91255 9.62662 3.63483 9.39007 3.63884 8.99264C3.64284 8.59863 3.9248 8.36326 4.4101 8.36278C6.46213 8.3608 8.51415 8.36096 10.5661 8.36255C11.0543 8.36294 11.3353 8.59229 11.3438 8.98576C11.3527 9.39371 11.0684 9.62734 10.5535 9.62821C9.5276 9.62987 8.50159 9.62868 7.47558 9.62868Z" fill="#0696D6"/>
</svg>
