<svg width="19" height="19" viewBox="0 0 19 19" fill="none" xmlns="http://www.w3.org/2000/svg">
<path fill-rule="evenodd" clip-rule="evenodd" d="M0.971427 6.10551C1.04868 5.89309 1.10059 5.66701 1.20899 5.47105C1.4282 5.07466 1.7826 4.83236 2.23575 4.73708C2.34125 4.71497 2.45231 4.71074 2.5607 4.7105C4.24945 4.70909 5.93819 4.7098 7.62693 4.70862C7.73098 4.70862 7.822 4.72744 7.8599 4.83354C7.89515 4.9321 7.91857 5.0462 7.82586 5.11677C7.75802 5.16876 7.65614 5.2024 7.56923 5.20287C6.54633 5.20852 5.52343 5.20664 4.50052 5.20664C3.83903 5.20664 3.17754 5.19652 2.51628 5.2104C2.12711 5.21863 1.83741 5.42212 1.64016 5.74371C1.52839 5.92579 1.50304 6.13045 1.50304 6.34147C1.50473 9.25029 1.50304 12.1589 1.50545 15.0677C1.50569 15.5455 1.81592 15.9734 2.31759 16.088C2.43951 16.116 2.56746 16.1301 2.69252 16.1301C7.18996 16.1322 11.6876 16.1327 16.1851 16.1303C16.5535 16.1303 16.8891 16.0372 17.1319 15.7377C17.2852 15.5488 17.3712 15.3338 17.3714 15.0955C17.3738 12.1351 17.3738 9.17478 17.3717 6.21443C17.3714 5.80111 17.0759 5.40377 16.674 5.28262C16.5351 5.24075 16.3862 5.21017 16.2418 5.2097C14.562 5.20476 12.8819 5.20664 11.2019 5.2064C11.0266 5.2064 10.9337 5.14971 10.8871 5.01632C10.8347 4.86694 10.9332 4.72015 11.0937 4.7098C11.1244 4.70768 11.1553 4.70932 11.1862 4.70932C12.9322 4.70932 14.6784 4.70486 16.4246 4.71238C16.8833 4.71427 17.2435 4.9394 17.5368 5.27133C17.7488 5.51152 17.8393 5.80346 17.9054 6.10528V15.207C17.8803 15.3034 17.8567 15.4004 17.8294 15.4961C17.7159 15.8927 17.4907 16.211 17.1133 16.4056C16.9373 16.4964 16.7425 16.5528 16.5561 16.625H2.32025C2.24806 16.6011 2.17684 16.5742 2.10369 16.5535C1.58826 16.4084 1.2592 16.0727 1.0762 15.5928C1.02889 15.4686 1.00523 15.3357 0.970703 15.207C0.971427 12.1732 0.971427 9.13926 0.971427 6.10551Z" fill="#0696D6"/>
<path d="M10.1102 2.77608C10.1108 2.77801 10.1116 2.78094 10.1125 2.78514C10.1179 2.81034 10.1211 2.85318 10.1174 2.93104L10.1174 2.93118C10.1142 2.99818 10.107 3.06797 10.0978 3.15235C10.0972 3.15855 10.0965 3.16485 10.0958 3.17124C10.0875 3.24719 10.0778 3.3361 10.0722 3.42627L10.0722 3.42654C10.0657 3.52987 10.0626 3.63306 10.0598 3.72712C10.0595 3.7369 10.0592 3.74659 10.0589 3.75617C10.0557 3.86113 10.0523 3.9556 10.0454 4.04738L10.1102 2.77608ZM10.1102 2.77608C10.0981 2.76384 10.0772 2.74605 10.0373 2.71688C10.0314 2.71261 10.0229 2.70654 10.0126 2.69922C9.62996 2.69922 9.24726 2.69924 8.86469 2.69938C8.85535 2.70593 8.84763 2.71137 8.84227 2.71523C8.80256 2.74382 8.78233 2.76093 8.77076 2.77245C8.77032 2.77367 8.76972 2.77547 8.76902 2.77797C8.76489 2.79264 8.76022 2.82183 8.76179 2.8707L10.1102 2.77608ZM9.92319 5.71653L9.9232 5.71641C9.92614 5.65863 9.9286 5.59281 9.93121 5.52309C9.93616 5.39054 9.94163 5.2439 9.952 5.11158L9.92319 5.71653ZM9.92319 5.71653C9.91112 5.95435 9.90186 6.04643 9.85972 6.12659L9.85967 6.12668M9.92319 5.71653L9.85967 6.12668M9.85967 6.12668C9.83701 6.1698 9.81947 6.18112 9.8135 6.18469M9.85967 6.12668L9.8135 6.18469M9.08259 6.20477L9.08272 6.20476C9.18514 6.20308 9.28752 6.20383 9.38301 6.20453C9.39507 6.20462 9.40703 6.20471 9.41886 6.20479C9.52691 6.20554 9.62688 6.20584 9.72482 6.20293L9.08259 6.20477ZM9.08259 6.20477C8.99861 6.20617 8.93559 6.14238 8.93086 6.07062L8.93085 6.07053M9.08259 6.20477L8.93085 6.07053M8.93085 6.07053C8.9128 5.79759 8.89922 5.52398 8.8854 5.2457C8.88425 5.22236 8.88308 5.19899 8.88192 5.17558L8.88192 5.17549M8.93085 6.07053L8.88192 5.17549M8.88192 5.17549C8.87075 4.95184 8.85996 4.72507 8.84913 4.4976C8.83556 4.21232 8.82193 3.92595 8.80744 3.64327L8.80744 3.64316M8.88192 5.17549L8.80744 3.64316M8.80744 3.64316C8.80095 3.51709 8.79329 3.40628 8.78596 3.30032M8.80744 3.64316L8.78596 3.30032M9.99961 4.57166C10.0162 4.39374 10.0322 4.2203 10.0454 4.04741L9.99961 4.57166ZM9.99961 4.57166L9.99798 4.58919M9.99961 4.57166L9.99798 4.58919M9.99798 4.58919C9.98206 4.76018 9.96575 4.93546 9.95202 5.11139L9.99798 4.58919ZM9.8135 6.18469C9.80584 6.18927 9.78214 6.20118 9.72498 6.20292L9.8135 6.18469ZM8.78596 3.30032C8.77603 3.15686 8.76673 3.02231 8.76179 2.87083L8.78596 3.30032ZM10.2721 2.27016C10.2392 2.24689 10.2063 2.22361 10.1746 2.19922L10.2721 2.27016ZM10.2721 2.27016C10.3452 2.32188 10.4182 2.37358 10.4782 2.43742M10.2721 2.27016L10.4782 2.43742M10.4782 2.43742C10.613 2.58061 10.6257 2.76976 10.6168 2.95513L10.4782 2.43742Z" fill="#0696D6" stroke="#0696D6"/>
<path fill-rule="evenodd" clip-rule="evenodd" d="M2.64368 14.1552C2.6971 13.8828 2.72952 13.6122 2.80552 13.3542C2.93584 12.9122 3.12875 12.4928 3.50229 12.1989C3.66525 12.0706 3.87113 11.9927 4.06381 11.9054C4.41656 11.7454 4.77511 11.5977 5.1292 11.4399C5.31876 11.3553 5.5034 11.2603 5.70548 11.1626C5.6335 11.0636 5.56599 10.985 5.51503 10.8969C5.44998 10.7843 5.40303 10.6613 5.33999 10.5477C5.26511 10.4125 5.19246 10.274 5.09947 10.1512C4.86565 9.84261 4.74762 9.5085 4.8301 9.12178C4.83927 9.07893 4.86766 9.0181 4.90119 9.007C4.98099 8.98081 4.9763 8.92952 4.97585 8.86825C4.97406 8.68977 4.97563 8.5115 4.97518 8.33301C4.97406 7.95117 5.09097 7.60685 5.34536 7.32269C5.55996 7.08271 5.84787 6.9524 6.16284 6.8949C6.34033 6.86249 6.5243 6.84007 6.70403 6.84695C7.20319 6.86604 7.67463 6.97349 8.00971 7.38485C8.18698 7.60263 8.28869 7.86038 8.31149 8.13943C8.33228 8.39251 8.32937 8.64714 8.34033 8.90111C8.34167 8.9313 8.35597 8.97748 8.37788 8.98769C8.47154 9.0312 8.48026 9.10601 8.48808 9.19592C8.51066 9.45611 8.47981 9.70475 8.3401 9.92985C8.26097 10.0577 8.16753 10.1767 8.08393 10.3021C8.0495 10.3539 8.01731 10.4089 7.99608 10.4669C7.91873 10.6767 7.82753 10.878 7.67597 11.0472C7.65049 11.0756 7.63014 11.1091 7.5917 11.1622C7.8823 11.2996 8.15814 11.4357 8.43891 11.5613C8.79992 11.7227 9.16473 11.8755 9.52776 12.032C9.85368 12.1727 10.0672 12.4278 10.2306 12.7284C10.4566 13.1437 10.5996 13.584 10.6189 14.0599C10.6218 14.1341 10.6048 14.1825 10.529 14.2047C10.2916 14.2742 10.0582 14.3632 9.81657 14.4129C9.42806 14.4924 9.03508 14.5523 8.64255 14.6087C8.43108 14.6389 8.21626 14.6487 8.00256 14.6596C7.74705 14.6726 7.4911 14.6769 7.23538 14.6853C6.9991 14.6931 6.76259 14.7111 6.52654 14.7068C6.24354 14.702 5.96076 14.6778 5.67798 14.6624C5.5081 14.6531 5.33731 14.6518 5.16809 14.6351C4.7997 14.5994 4.43109 14.5639 4.06426 14.5141C3.78663 14.4764 3.50922 14.4285 3.23695 14.3627C3.0447 14.3163 2.8614 14.2329 2.64368 14.1552Z" fill="#0696D6"/>
<path fill-rule="evenodd" clip-rule="evenodd" d="M13.5559 11.9041C14.2252 11.9041 14.8947 11.9087 15.5638 11.9014C15.7717 11.8992 15.8436 11.9847 15.8559 12.1281C15.8678 12.2679 15.7515 12.3614 15.5761 12.3729C15.5436 12.3752 15.5108 12.3734 15.4781 12.3734C14.1968 12.3734 12.9153 12.3738 11.6337 12.3725C11.5662 12.3725 11.4976 12.3625 11.4312 12.3485C11.2812 12.317 11.2287 12.2344 11.2495 12.0748C11.2642 11.9625 11.3438 11.9045 11.4869 11.9045C12.1767 11.9041 12.8663 11.9041 13.5559 11.9041Z" fill="#0696D6"/>
<path fill-rule="evenodd" clip-rule="evenodd" d="M13.5297 10.3544H11.5228C11.3583 10.3544 11.2594 10.2767 11.2472 10.1528C11.229 9.97077 11.333 9.90816 11.5103 9.88552C11.5223 9.88396 11.5346 9.8853 11.5469 9.8853C12.8928 9.8853 14.239 9.88507 15.5851 9.88552C15.7738 9.88552 15.8744 10.0072 15.8366 10.1852C15.8129 10.2967 15.7376 10.3542 15.6097 10.3542C14.9165 10.3546 14.2231 10.3542 13.5297 10.3544Z" fill="#0696D6"/>
<path fill-rule="evenodd" clip-rule="evenodd" d="M13.5415 7.88975H15.5974C15.7684 7.88975 15.8368 7.95546 15.8375 8.11841C15.8382 8.26781 15.7662 8.33086 15.6005 8.3353C15.4468 8.33974 15.2936 8.35484 15.1398 8.35795C14.9308 8.36194 14.7216 8.35883 14.5126 8.35883H12.6802C12.467 8.35883 12.254 8.36194 12.0409 8.35795C11.8377 8.35417 11.6334 8.35373 11.4318 8.33131C11.2802 8.31443 11.229 8.22031 11.2494 8.06091C11.2637 7.94836 11.3435 7.88975 11.4859 7.88975C12.1708 7.88953 12.8562 7.88975 13.5415 7.88975Z" fill="#0696D6"/>
</svg>
