<svg width="19" height="19" viewBox="0 0 19 19" fill="none" xmlns="http://www.w3.org/2000/svg">
<path fill-rule="evenodd" clip-rule="evenodd" d="M12.3365 1.12409C13.3752 1.47364 14.0522 2.45098 14.0522 3.73231C14.0522 4.53787 13.5942 5.27932 13.0839 5.87087C12.5593 6.47896 11.8953 7.02466 11.3146 7.44801C11.2897 7.46615 11.265 7.48418 11.2406 7.50207C10.6769 7.91393 10.2119 8.25372 9.50008 8.25372C8.78821 8.25372 8.32319 7.91393 7.75955 7.50207C7.73507 7.48417 7.71039 7.46615 7.6855 7.448C7.10474 7.02465 6.4408 6.47896 5.91621 5.87086C5.4059 5.27931 4.94796 4.53787 4.94796 3.73232C4.94796 2.45099 5.62485 1.47365 6.66356 1.1241C7.54949 0.825948 8.58072 1.02274 9.50008 1.69194C10.4194 1.02274 11.4506 0.825948 12.3365 1.12409ZM11.9578 2.24957C11.4416 2.07586 10.6718 2.18824 9.90185 2.89597C9.67464 3.10479 9.32544 3.10479 9.09823 2.89597C8.32825 2.18824 7.55852 2.07586 7.04232 2.24957C6.54715 2.41621 6.13546 2.89423 6.13546 3.73232C6.13546 4.10248 6.36071 4.56814 6.81537 5.09519C7.25577 5.60568 7.83859 6.09008 8.38502 6.4884C9.05247 6.97497 9.21112 7.06621 9.50008 7.06621C9.78896 7.06621 9.94761 6.97497 10.6151 6.48841C11.1615 6.09009 11.7443 5.6057 12.1847 5.0952C12.6394 4.56815 12.8647 4.10248 12.8647 3.73231C12.8647 2.89423 12.4529 2.41621 11.9578 2.24957ZM6.87481 11.438C8.35192 11.1518 9.93312 11.216 11.2126 11.9791C11.3923 12.0863 11.5608 12.2199 11.7078 12.385C12.0053 12.7192 12.159 13.1346 12.1663 13.5511C12.3177 13.4534 12.4694 13.3449 12.6234 13.2286L14.0541 12.1478C14.7703 11.6068 15.811 11.6067 16.5272 12.1475C17.1891 12.6472 17.4528 13.544 16.9791 14.3034C16.6424 14.8432 16.1354 15.5896 15.6193 16.0676C15.0976 16.5508 14.3552 16.957 13.7937 17.2281C13.1117 17.5572 12.375 17.7392 11.6588 17.8551C10.1948 18.0921 8.67152 18.0558 7.224 17.7577C6.48426 17.6052 5.71552 17.526 4.95583 17.526H3.16671C2.8388 17.526 2.57296 17.2602 2.57296 16.9323C2.57296 16.6044 2.8388 16.3385 3.16671 16.3385H4.95583C5.79666 16.3385 6.64568 16.426 7.46361 16.5946C8.77151 16.864 10.1493 16.8965 11.469 16.6829C12.1252 16.5767 12.738 16.419 13.2774 16.1586C13.8185 15.8974 14.4268 15.5535 14.8124 15.1964C15.2023 14.8352 15.6387 14.2086 15.9716 13.6749C16.0721 13.5138 16.0582 13.2814 15.8117 13.0952C15.519 12.8742 15.0626 12.8743 14.7699 13.0953L13.3393 14.1761C12.7681 14.6075 12.0652 15.0691 11.1932 15.2081C11.1052 15.2222 11.0136 15.235 10.9185 15.2464C10.8731 15.2545 10.826 15.26 10.7772 15.2618C10.332 15.306 9.81651 15.3163 9.24769 15.2626C8.92121 15.2318 8.68157 14.9421 8.71237 14.6156C8.74325 14.2892 9.03292 14.0495 9.35932 14.0804C9.85609 14.1273 10.3017 14.1169 10.6798 14.0781C10.6875 14.0773 10.6951 14.0765 10.7027 14.0757C10.7185 14.0665 10.7427 14.0498 10.7743 14.0221C11.0272 13.8014 11.0498 13.4318 10.8208 13.1746C10.7628 13.1094 10.6914 13.0509 10.6043 12.999C9.66926 12.4412 8.4204 12.3481 7.10067 12.6038C5.78846 12.858 4.48477 13.4437 3.51019 14.1348C3.2427 14.3245 2.87209 14.2614 2.68239 13.9939C2.4927 13.7264 2.55576 13.3559 2.82324 13.1661C3.93028 12.3811 5.39019 11.7256 6.87481 11.438Z" fill="#0696D6"/>
<path d="M14.0521 3.73231C14.0521 2.45098 13.3752 1.47364 12.3365 1.12409C11.4506 0.825947 10.4194 1.02274 9.50007 1.69194C8.5807 1.02274 7.54948 0.825947 6.66355 1.1241C5.62484 1.47365 4.94795 2.45099 4.94795 3.73232C4.94795 4.53787 5.40589 5.27931 5.9162 5.87086C6.44079 6.47895 7.10473 7.02465 7.68549 7.448L7.75954 7.50206C8.32318 7.91393 8.7882 8.25372 9.50007 8.25372C10.2119 8.25372 10.6769 7.91393 11.2405 7.50207L11.3146 7.44801C11.8953 7.02466 12.5593 6.47896 13.0839 5.87087C13.5942 5.27932 14.0521 4.53787 14.0521 3.73231Z" fill="#0696D6"/>
</svg>
