<svg width="40" height="40" viewBox="0 0 40 40" fill="none" xmlns="http://www.w3.org/2000/svg">
<path d="M27.6885 28.8782C27.6391 28.7679 27.5773 28.6638 27.5042 28.5681C27.4704 28.4999 27.4315 28.4344 27.3879 28.3722C27.38 28.3634 27.3687 28.3606 27.3607 28.3521C27.2701 28.2663 27.1697 28.1918 27.0616 28.1302C26.9967 28.0781 26.9281 28.0311 26.8562 27.9896C26.7801 27.9648 26.7023 27.9457 26.6234 27.9324C26.5031 27.8919 26.3784 27.8664 26.252 27.8565C26.2408 27.8562 26.2315 27.8499 26.2202 27.8499H11.9139C10.2355 27.8531 8.60158 27.3018 7.25897 26.2794C5.91636 25.257 4.93792 23.819 4.4714 22.1825C4.00487 20.5459 4.0756 18.7997 4.6729 17.2076C5.27019 15.6154 6.36162 14.2638 7.78239 13.3567C8.13735 13.1293 8.38877 12.768 8.48133 12.3524C8.57389 11.9368 8.5 11.5009 8.27593 11.1406C8.05186 10.7803 7.69595 10.5251 7.28651 10.4311C6.87706 10.3372 6.44762 10.4122 6.09265 10.6396C4.09133 11.9184 2.55407 13.8232 1.71286 16.0665C0.871639 18.3099 0.772115 20.7701 1.4293 23.076C2.08649 25.3818 3.46473 27.4081 5.35602 28.8491C7.24732 30.2901 9.54906 31.0675 11.9139 31.0642H17.1729V36.3929C17.1823 36.4714 17.1977 36.549 17.219 36.6251C17.2262 36.8672 17.3157 37.0992 17.4724 37.2818C17.5061 37.35 17.5449 37.4155 17.5886 37.4777C17.5962 37.4861 17.6074 37.4887 17.6152 37.4968C17.7444 37.6307 17.8958 37.7404 18.0626 37.8208C18.0883 37.8337 18.1081 37.8588 18.1344 37.8701C18.3309 37.9557 18.5425 37.9999 18.7563 38H18.7569C18.9588 37.9984 19.1585 37.9575 19.3453 37.8795C19.4256 37.8385 19.5021 37.7904 19.5741 37.7357C19.6629 37.6917 19.7471 37.639 19.8257 37.5782L27.2896 30.6423C27.2985 30.6342 27.3014 30.6223 27.31 30.6141C27.393 30.5228 27.4654 30.4221 27.5256 30.314C27.5776 30.2475 27.6244 30.1769 27.6656 30.103C27.6917 30.0217 27.7115 29.9383 27.7246 29.8538C27.7623 29.7364 27.7865 29.6149 27.7966 29.4919C27.7969 29.4796 27.8036 29.4693 27.8036 29.457C27.7942 29.3786 27.7788 29.3011 27.7574 29.2251C27.7475 29.1072 27.7243 28.9908 27.6885 28.8782Z" fill="#0696D6" />
<path d="M28.0861 8.93582H22.8271V3.60714C22.8177 3.52872 22.8023 3.45115 22.781 3.37517C22.771 3.25728 22.7479 3.14091 22.7121 3.02831C22.6627 2.91804 22.6009 2.81397 22.5279 2.71819C22.494 2.64999 22.4551 2.58452 22.4115 2.52232C22.4036 2.51353 22.3923 2.51075 22.3843 2.50223C22.294 2.41698 22.1941 2.34281 22.0867 2.28125C22.0216 2.22874 21.9524 2.18151 21.88 2.14C21.8024 2.11431 21.7229 2.09479 21.6423 2.08162C21.524 2.04197 21.4014 2.01689 21.2772 2.0069C21.2654 2.0066 21.2556 2 21.2438 2C21.1684 2.00937 21.0939 2.02469 21.0209 2.04582C20.9027 2.0556 20.7861 2.07941 20.6733 2.11677C20.5663 2.16632 20.4652 2.22814 20.3721 2.30102C20.3033 2.33614 20.2372 2.37654 20.1745 2.42188L17.0881 5.28994C17.0338 5.33384 16.9825 5.38145 16.9346 5.43245L12.7105 9.35773C12.7016 9.36588 12.6987 9.37781 12.6901 9.38602C12.6071 9.47702 12.5349 9.57751 12.4749 9.68547C12.4228 9.75218 12.3758 9.82291 12.3345 9.89704C12.3085 9.97821 12.2888 10.0613 12.2755 10.1456C12.2378 10.2633 12.2137 10.3849 12.2035 10.5082C12.2032 10.5205 12.1965 10.5305 12.1965 10.5431C12.206 10.6216 12.2214 10.6993 12.2427 10.7753C12.2526 10.893 12.2757 11.0092 12.3116 11.1216C12.3609 11.232 12.4228 11.3362 12.4959 11.432C12.5297 11.5002 12.5685 11.5657 12.6122 11.6279C12.6198 11.6364 12.6309 11.6389 12.6388 11.647C12.768 11.7809 12.9194 11.8906 13.0862 11.971C13.1119 11.9839 13.1318 12.009 13.158 12.0203C13.3545 12.1059 13.5661 12.1501 13.7799 12.1503H28.0861C29.7645 12.1471 31.3984 12.6984 32.7409 13.7208C34.0835 14.7431 35.0619 16.1811 35.5284 17.8176C35.9949 19.4541 35.9242 21.2003 35.327 22.7924C34.7297 24.3845 33.6384 25.7362 32.2177 26.6433C32.0419 26.7559 31.8897 26.9026 31.7698 27.0749C31.6499 27.2472 31.5645 27.4418 31.5187 27.6476C31.4729 27.8534 31.4674 28.0663 31.5027 28.2742C31.5379 28.4821 31.6132 28.681 31.7241 28.8594C31.8351 29.0378 31.9795 29.1923 32.1493 29.314C32.3191 29.4357 32.5108 29.5223 32.7135 29.5688C32.9163 29.6154 33.1261 29.6209 33.3309 29.5851C33.5357 29.5494 33.7316 29.473 33.9074 29.3604C35.9087 28.0816 37.446 26.1768 38.2872 23.9335C39.1284 21.6901 39.2279 19.2299 38.5707 16.924C37.9136 14.6182 36.5353 12.5919 34.644 11.1509C32.7527 9.70994 30.451 8.93247 28.0862 8.93584L28.0861 8.93582Z" fill="#0696D6"/>
</svg>
