<svg width="19" height="19" viewBox="0 0 19 19" fill="none" xmlns="http://www.w3.org/2000/svg">
<path fill-rule="evenodd" clip-rule="evenodd" d="M4.94791 1.5835C4.94791 1.25558 5.21375 0.989746 5.54166 0.989746H13.4583C13.7862 0.989746 14.0521 1.25558 14.0521 1.5835C14.0521 1.91141 13.7862 2.17725 13.4583 2.17725H5.54166C5.21375 2.17725 4.94791 1.91141 4.94791 1.5835ZM9.46706 3.36475H9.53293C10.6169 3.36474 11.4758 3.36473 12.1617 3.43451C12.8643 3.50599 13.451 3.6556 13.9642 3.99849C14.3748 4.27284 14.7273 4.62539 15.0017 5.03599C15.3446 5.54916 15.4942 6.13582 15.5657 6.83853C15.6354 7.5244 15.6354 8.38328 15.6354 9.46723V9.5331C15.6354 10.617 15.6354 11.4759 15.5657 12.1618C15.4942 12.8645 15.3446 13.4511 15.0017 13.9644C14.7273 14.3749 14.3748 14.7275 13.9642 15.0018C13.451 15.3447 12.8643 15.4943 12.1617 15.5658C11.4758 15.6356 10.6169 15.6356 9.53293 15.6356H9.46706C8.38311 15.6356 7.52424 15.6356 6.83836 15.5658C6.13565 15.4943 5.54899 15.3447 5.03582 15.0018C4.62522 14.7275 4.27268 14.3749 3.99832 13.9644C3.65543 13.4511 3.50582 12.8645 3.43434 12.1618C3.36456 11.4759 3.36457 10.617 3.36458 9.5331V9.46723C3.36457 8.38328 3.36456 7.5244 3.43434 6.83853C3.50582 6.13582 3.65543 5.54916 3.99832 5.03599C4.27268 4.62539 4.62522 4.27284 5.03582 3.99849C5.54899 3.6556 6.13565 3.50599 6.83836 3.43451C7.52423 3.36473 8.38311 3.36474 9.46706 3.36475ZM6.95855 4.6159C6.34972 4.67784 5.98109 4.79507 5.69556 4.98586C5.41462 5.17358 5.17341 5.41479 4.98569 5.69573C4.79491 5.98126 4.67768 6.34989 4.61574 6.95871C4.5528 7.57747 4.55208 8.37592 4.55208 9.50016C4.55208 10.6244 4.5528 11.4229 4.61574 12.0416C4.67768 12.6504 4.79491 13.019 4.98569 13.3046C5.17341 13.5856 5.41462 13.8268 5.69556 14.0145C5.98109 14.2053 6.34972 14.3225 6.95855 14.3844C7.5773 14.4474 8.37575 14.4481 9.49999 14.4481C10.6242 14.4481 11.4227 14.4474 12.0414 14.3844C12.6503 14.3225 13.0189 14.2053 13.3044 14.0145C13.5854 13.8268 13.8266 13.5856 14.0143 13.3046C14.2051 13.019 14.3224 12.6504 14.3843 12.0416C14.4472 11.4229 14.4479 10.6244 14.4479 9.50016C14.4479 8.37592 14.4472 7.57747 14.3843 6.95871C14.3224 6.34989 14.2051 5.98126 14.0143 5.69573C13.8266 5.41479 13.5854 5.17358 13.3044 4.98586C13.0189 4.79507 12.6503 4.67784 12.0414 4.6159C11.4227 4.55297 10.6242 4.55225 9.49999 4.55225C8.37575 4.55225 7.5773 4.55297 6.95855 4.6159ZM9.49999 6.5314C9.8279 6.5314 10.0937 6.79723 10.0937 7.12515V9.30826L11.4948 10.6555C11.7312 10.8828 11.7386 11.2586 11.5113 11.495C11.284 11.7314 10.9081 11.7388 10.6718 11.5115L9.39217 10.2811C9.15253 10.0507 9.03275 9.9355 8.9695 9.7869C8.90624 9.63831 8.90624 9.47214 8.90624 9.13972V7.12515C8.90624 6.79723 9.17209 6.5314 9.49999 6.5314ZM4.94791 17.4168C4.94791 17.0889 5.21375 16.8231 5.54166 16.8231H13.4583C13.7862 16.8231 14.0521 17.0889 14.0521 17.4168C14.0521 17.7447 13.7862 18.0106 13.4583 18.0106H5.54166C5.21375 18.0106 4.94791 17.7447 4.94791 17.4168Z" fill="#0696D6"/>
</svg>
