<svg width="19" height="19" viewBox="0 0 19 19" fill="none" xmlns="http://www.w3.org/2000/svg">
<path fill-rule="evenodd" clip-rule="evenodd" d="M9.49777 1.48067C4.98499 1.48067 1.39899 5.11148 1.39899 9.4974V9.50182C1.39899 13.8877 4.98499 17.5185 9.49777 17.5185H9.50221C14.015 17.5185 17.601 13.8877 17.601 9.50182V9.4974C17.601 5.11148 14.015 1.48067 9.50221 1.48067H9.49777ZM0.474976 9.4974C0.474976 4.47265 4.55459 0.474609 9.49777 0.474609H9.50221C14.4454 0.474609 18.525 4.47265 18.525 9.4974V9.50182C18.525 14.5266 14.4454 18.5246 9.50221 18.5246H9.49777C4.55459 18.5246 0.474976 14.5266 0.474976 9.50182V9.4974Z" fill="#0696D6"/>
<path fill-rule="evenodd" clip-rule="evenodd" d="M9.38457 3.32422C9.58314 3.32422 9.74411 3.53181 9.74411 3.78789V9.52187H12.4655C12.6641 9.52187 12.825 9.72946 12.825 9.98554C12.825 10.2416 12.6641 10.4492 12.4655 10.4492H9.38457C9.186 10.4492 9.02502 10.2416 9.02502 9.98554V3.78789C9.02502 3.53181 9.186 3.32422 9.38457 3.32422Z" fill="#0696D6"/>
</svg>
