<svg width="19" height="20" viewBox="0 0 19 20" fill="none" xmlns="http://www.w3.org/2000/svg">
<path fill-rule="evenodd" clip-rule="evenodd" d="M4.47504 0.974609C2.2659 0.974609 0.475037 2.76547 0.475037 4.97461V15.0246C0.475037 17.2337 2.2659 19.0246 4.47504 19.0246H14.525C16.7342 19.0246 18.525 17.2337 18.525 15.0246V4.97461C18.525 2.76547 16.7342 0.974609 14.525 0.974609H4.47504ZM7.26512 8.06798C7.26807 7.67901 7.33725 7.36059 7.48319 7.05903C7.60916 6.79867 7.77965 6.57274 7.99735 6.384C8.29603 6.12504 8.64033 5.96363 9.0333 5.91321C9.37153 5.86978 9.69824 5.91544 10.0117 6.05091C10.4462 6.23869 10.7751 6.54474 11.0053 6.95735C11.1444 7.2066 11.2269 7.47487 11.2603 7.7594C11.2852 7.97136 11.2681 8.18096 11.2473 8.39159C11.2125 8.74477 11.1412 9.08934 11.0135 9.42063C10.8574 9.82576 10.6386 10.1905 10.3133 10.4833C10.0687 10.7034 9.78865 10.8535 9.45996 10.9005C9.26601 10.9283 9.07411 10.9138 8.88603 10.8589C8.54103 10.7581 8.26532 10.5526 8.03224 10.2841C7.79366 10.0092 7.6234 9.69429 7.50208 9.35262C7.38565 9.02481 7.31419 8.6868 7.29007 8.33901C7.28453 8.25941 7.27643 8.17998 7.2705 8.12189L7.26512 8.06798ZM7.29422 10.7975C7.3682 10.7579 7.43296 10.7181 7.44956 10.701C7.45764 10.6927 7.46758 10.6827 7.47799 10.6808C7.53801 10.67 7.59822 10.6603 7.65865 10.6505L7.65873 10.6505L7.7157 10.6413C7.74227 10.8161 7.84183 10.9427 7.94328 11.0669C8.12411 11.2883 8.33042 11.4852 8.54716 11.6701C8.70549 11.8051 8.86726 11.9361 9.02903 12.0671L9.02905 12.0671L9.02929 12.0673C9.09701 12.1221 9.16474 12.1769 9.23221 12.232C9.23964 12.2381 9.24759 12.2436 9.25669 12.2499L9.27164 12.2603C9.29928 12.2388 9.32719 12.2175 9.35515 12.1961L9.35541 12.1959C9.41736 12.1486 9.47951 12.1011 9.5394 12.0509L9.62988 11.9752L9.62996 11.9751C9.80406 11.8295 9.97821 11.6838 10.147 11.5322C10.345 11.3543 10.5332 11.1656 10.6888 10.9477C10.7528 10.8582 10.8099 10.7638 10.8231 10.6426L11.0352 10.6742C11.0359 10.6744 11.0366 10.6745 11.0373 10.6747C11.0382 10.675 11.0391 10.6753 11.0401 10.6756C11.0423 10.6764 11.0445 10.6771 11.0467 10.6771C11.1458 10.6768 11.9538 11.0271 12.0904 11.1257C12.2434 11.2362 12.3821 11.3634 12.506 11.5057C12.6953 11.7232 12.8454 11.9653 12.9543 12.2337C13.0922 12.5736 13.1532 12.9264 13.1407 13.2923C13.1331 13.5146 13.096 13.7305 12.9926 13.9309C12.9038 14.103 12.7751 14.2366 12.6097 14.335C12.4084 14.4548 12.1867 14.5141 11.9582 14.5499C11.7092 14.5891 11.4585 14.6069 11.2063 14.6073C10.7966 14.6081 10.3868 14.609 9.97705 14.61H9.97704C9.35741 14.6114 8.73777 14.6128 8.11814 14.6135C7.81221 14.6138 7.50611 14.6135 7.20035 14.6053C6.89839 14.5971 6.59736 14.572 6.30452 14.4904C6.05415 14.4205 5.82693 14.3095 5.65876 14.1015C5.53591 13.9496 5.46342 13.7739 5.43165 13.5826C5.34898 13.0849 5.41902 12.6065 5.62334 12.1472C5.79039 11.7717 6.03652 11.4567 6.35478 11.1987C6.48316 11.0946 6.74272 10.9836 6.90117 10.9212C6.92929 10.9101 6.97007 10.9004 7.01703 10.8892C7.1019 10.8691 7.207 10.8441 7.29422 10.7975Z" fill="#0696D6"/>
</svg>
