<svg width="19" height="19" viewBox="0 0 19 19" fill="none" xmlns="http://www.w3.org/2000/svg">
<path fill-rule="evenodd" clip-rule="evenodd" d="M5.70352 2.83777C5.40155 3.45122 5.25841 4.09898 5.25231 4.89023C5.25511 4.91967 5.25897 4.95691 5.26343 4.9999C5.2757 5.11808 5.29247 5.27964 5.30393 5.44158C5.35384 6.14907 5.5017 6.83668 5.7426 7.50351C5.99364 8.19856 6.34593 8.83914 6.83958 9.39833C7.32185 9.94453 7.89235 10.3625 8.60619 10.5676C8.99536 10.6794 9.39242 10.7089 9.79373 10.6524C10.4738 10.5566 11.0533 10.2514 11.5594 9.8036C12.2325 9.20808 12.6852 8.46601 13.0082 7.64187C13.2724 6.96793 13.42 6.267 13.492 5.54854C13.5349 5.12007 13.5705 4.69369 13.5189 4.2625C13.4497 3.68369 13.2791 3.13797 12.9913 2.63094C12.5149 1.79158 11.8344 1.16899 10.9353 0.786998C10.2868 0.511429 9.61076 0.418535 8.91091 0.506895C8.0978 0.609464 7.3854 0.937807 6.7674 1.46459C6.31694 1.84855 5.96416 2.30815 5.70352 2.83777ZM5.64991 10.1672C5.61572 10.2029 5.48239 10.286 5.33006 10.3685C5.15046 10.4659 4.93407 10.518 4.75932 10.5601C4.66261 10.5834 4.57865 10.6037 4.52074 10.6268C4.19449 10.757 3.66005 10.9889 3.3957 11.2061C2.74039 11.7447 2.23359 12.4023 1.88964 13.1862C1.46893 14.1449 1.32472 15.1436 1.49492 16.1825C1.56034 16.5819 1.70961 16.9486 1.96256 17.2658C2.30884 17.7 2.77668 17.9317 3.29221 18.0775C3.89519 18.2479 4.51503 18.3002 5.13677 18.3173C5.76636 18.3345 6.39663 18.3352 7.02656 18.3345C8.30226 18.3331 9.57798 18.3301 10.8537 18.3271C11.6976 18.3251 12.5414 18.3232 13.3853 18.3217C13.9044 18.3207 14.4207 18.2835 14.9334 18.2018C15.4039 18.1269 15.8604 18.0032 16.2749 17.7532C16.6155 17.5477 16.8805 17.2688 17.0634 16.9095C17.2762 16.4912 17.3526 16.0406 17.3682 15.5765C17.394 14.8127 17.2684 14.0762 16.9844 13.3667C16.7603 12.8064 16.4512 12.3009 16.0613 11.847C15.8062 11.5499 15.5207 11.2844 15.2056 11.0537C14.9244 10.8479 13.2606 10.1167 13.0566 10.1173C13.052 10.1173 13.0475 10.1158 13.043 10.1142C13.0396 10.113 13.0363 10.1118 13.0329 10.1113L12.5962 10.0452C12.5691 10.2983 12.4515 10.4952 12.3197 10.6822C11.9993 11.137 11.6117 11.5309 11.2041 11.9023C10.8565 12.2189 10.4978 12.5229 10.1393 12.8269C10.0772 12.8796 10.0151 12.9323 9.953 12.985C9.82968 13.0898 9.70171 13.189 9.57415 13.2878C9.51641 13.3325 9.45876 13.3771 9.40166 13.4222C9.39066 13.4143 9.38047 13.4071 9.37089 13.4004C9.35215 13.3873 9.33579 13.3759 9.32048 13.3632C9.18139 13.248 9.04178 13.1334 8.90217 13.0188C8.56906 12.7454 8.23595 12.472 7.90993 12.1901C7.46364 11.8042 7.03884 11.3932 6.66651 10.931C6.45762 10.6717 6.25262 10.4074 6.19791 10.0425C6.15877 10.049 6.11968 10.0554 6.08063 10.0618C5.95613 10.0822 5.83209 10.1025 5.70844 10.1251C5.68702 10.1289 5.66656 10.1498 5.64991 10.1672Z" fill="#0696D6"/>
</svg>
