<svg width="19" height="19" viewBox="0 0 19 19" fill="none" xmlns="http://www.w3.org/2000/svg">
<path fill-rule="evenodd" clip-rule="evenodd" d="M7.12499 0.989746C5.04818 0.989746 3.36458 2.67334 3.36458 4.75016C3.36458 6.82698 5.04818 8.51058 7.12499 8.51058C9.20185 8.51058 10.8854 6.82698 10.8854 4.75016C10.8854 2.67334 9.20185 0.989746 7.12499 0.989746ZM4.55208 4.75016C4.55208 3.32918 5.70401 2.17725 7.12499 2.17725C8.54596 2.17725 9.69791 3.32918 9.69791 4.75016C9.69791 6.17115 8.54596 7.32308 7.12499 7.32308C5.70401 7.32308 4.55208 6.17115 4.55208 4.75016Z" fill="#0696D6"/>
<path d="M11.875 1.78125C11.5471 1.78125 11.2812 2.04708 11.2812 2.375C11.2812 2.70292 11.5471 2.96875 11.875 2.96875C12.8587 2.96875 13.6562 3.76624 13.6562 4.75C13.6562 5.73376 12.8587 6.53125 11.875 6.53125C11.5471 6.53125 11.2812 6.79708 11.2812 7.125C11.2812 7.45292 11.5471 7.71875 11.875 7.71875C13.5146 7.71875 14.8438 6.3896 14.8438 4.75C14.8438 3.1104 13.5146 1.78125 11.875 1.78125Z" fill="#0696D6"/>
<path fill-rule="evenodd" clip-rule="evenodd" d="M2.91187 10.7035C4.01971 10.0705 5.51053 9.69775 7.125 9.69775C8.73945 9.69775 10.2303 10.0705 11.3382 10.7035C12.4292 11.3269 13.2604 12.2787 13.2604 13.4582C13.2604 14.6377 12.4292 15.5894 11.3382 16.2129C10.2303 16.8459 8.73945 17.2186 7.125 17.2186C5.51053 17.2186 4.01971 16.8459 2.91187 16.2129C1.82084 15.5894 0.989586 14.6377 0.989586 13.4582C0.989586 12.2787 1.82084 11.3269 2.91187 10.7035ZM3.50104 11.7346C2.58639 12.2572 2.17709 12.8887 2.17709 13.4582C2.17709 14.0276 2.58639 14.6591 3.50104 15.1818C4.39889 15.6949 5.6789 16.0311 7.125 16.0311C8.57114 16.0311 9.85111 15.6949 10.7489 15.1818C11.6636 14.6591 12.0729 14.0276 12.0729 13.4582C12.0729 12.8887 11.6636 12.2572 10.7489 11.7346C9.85111 11.2215 8.57114 10.8853 7.125 10.8853C5.6789 10.8853 4.39889 11.2215 3.50104 11.7346Z" fill="#0696D6"/>
<path d="M14.3772 10.5032C14.0569 10.4329 13.7403 10.6356 13.67 10.9559C13.5998 11.2762 13.8025 11.5929 14.1228 11.6631C14.7501 11.8007 15.2514 12.0369 15.5823 12.3077C15.9136 12.5788 16.0313 12.8436 16.0313 13.0623C16.0313 13.2608 15.9358 13.4938 15.6726 13.7383C15.4074 13.9846 15.0001 14.2121 14.4747 14.3704C14.1606 14.4649 13.9827 14.7961 14.0773 15.1101C14.1719 15.4241 14.503 15.602 14.817 15.5074C15.4682 15.3113 16.0505 15.0081 16.4808 14.6083C16.9129 14.2068 17.2188 13.6787 17.2188 13.0623C17.2188 12.3777 16.8433 11.8051 16.3343 11.3886C15.8249 10.9717 15.1387 10.6701 14.3772 10.5032Z" fill="#0696D6"/>
</svg>
