<svg width="16" height="17" viewBox="0 0 16 17" fill="none" xmlns="http://www.w3.org/2000/svg">
<path fill-rule="evenodd" clip-rule="evenodd" d="M14.4305 2.07014C14.4305 2.24942 14.4302 2.42622 14.4299 2.60127C14.4293 3.01799 14.4287 3.42482 14.4318 3.83165C14.4342 4.13237 14.6557 4.37819 14.937 4.40964C15.2413 4.44369 15.51 4.26153 15.5823 3.9676C15.5966 3.90944 15.5987 3.84722 15.5988 3.78686C15.5998 3.0384 15.6003 2.2899 15.5991 1.54143C15.5984 1.14236 15.3615 0.902318 14.9663 0.901478C14.2178 0.899944 13.4693 0.900127 12.7209 0.901442C12.347 0.9021 12.0885 1.14155 12.0875 1.4833C12.0865 1.82612 12.3445 2.06864 12.7164 2.06973C13.1103 2.07086 13.5042 2.07061 13.9051 2.07036L14.4305 2.07014ZM12.4529 11.1251C11.1471 12.1391 9.65216 12.5802 8.01234 12.621C7.87305 12.6066 7.73329 12.595 7.59352 12.5834C7.2905 12.5581 6.98747 12.5329 6.68928 12.4801C4.43147 12.0803 2.78102 10.8331 1.671 8.84345C1.54021 8.60893 1.54813 8.38786 1.67287 8.15115C2.08685 7.36534 2.62958 6.67862 3.30629 6.11032C5.34157 4.40115 7.67223 4.02521 10.1786 4.72928C12.0594 5.25765 13.4197 6.48024 14.3436 8.19126C14.5242 8.52582 14.4078 8.88003 14.0944 9.02876C13.7805 9.17775 13.4557 9.03614 13.2895 8.68785C12.785 7.6307 12.009 6.82349 10.9773 6.28123C9.4743 5.49122 7.88176 5.39481 6.25685 5.7929C4.79244 6.15167 3.66682 6.98833 2.90824 8.30452C2.82523 8.44851 2.82716 8.55727 2.91028 8.70181C3.23906 9.27366 3.65228 9.77131 4.16684 10.1829C5.11559 10.9419 6.2114 11.3114 7.4125 11.3997C8.99788 11.5162 10.461 11.1944 11.7405 10.2028C11.8153 10.1449 11.9064 10.096 11.9974 10.0733C12.2732 10.0048 12.5462 10.145 12.6615 10.3988C12.7795 10.6585 12.699 10.934 12.4529 11.1251ZM7.99174 10.8311C6.72159 10.8275 5.66517 9.76551 5.66948 8.49667C5.67383 7.22294 6.72755 6.17065 7.99934 6.16992C9.27724 6.16919 10.3393 7.23675 10.3307 8.51333C10.322 9.78619 9.26405 10.8346 7.99174 10.8311ZM7.99492 7.33949C7.35362 7.34267 6.83617 7.86465 6.83887 8.50566C6.84157 9.14598 7.36695 9.66668 8.00526 9.66164C8.64829 9.65656 9.1653 9.1348 9.16106 8.49521C9.15682 7.85252 8.63594 7.33627 7.99492 7.33949ZM2.07967 2.07029L1.56971 2.07024L1.56989 2.59183C1.5701 2.99379 1.57031 3.38885 1.56934 3.78393C1.56839 4.15539 1.32576 4.41395 0.983023 4.41311C0.640905 4.4123 0.401525 4.15411 0.400831 3.7801C0.399516 3.0377 0.399771 2.29526 0.400722 1.55286C0.401233 1.13249 0.634548 0.901802 1.0588 0.901327C1.73888 0.900606 2.41902 0.900885 3.09911 0.901164L3.23126 0.901218C3.65164 0.901364 3.91469 1.12927 3.91247 1.4905C3.91035 1.84354 3.64831 2.0698 3.24 2.07013C2.85643 2.07041 2.47289 2.07035 2.07967 2.07029ZM14.4303 14.9305L13.9137 14.9304C13.5165 14.9303 13.129 14.9302 12.7415 14.9306C12.3511 14.931 12.0895 15.1634 12.0874 15.5104C12.0852 15.8602 12.3449 16.0989 12.7319 16.0994C13.4743 16.1003 14.2167 16.1006 14.9591 16.0993C15.3582 16.0986 15.598 15.8618 15.5989 15.4664C15.6005 14.7179 15.6003 13.9694 15.599 13.2209C15.5983 12.8474 15.3582 12.5884 15.0168 12.5877C14.6739 12.5869 14.4317 12.8448 14.4307 13.217C14.4296 13.6114 14.4298 14.0059 14.4301 14.4072L14.4303 14.9305ZM1.57001 14.3999C1.56974 14.5748 1.56946 14.7515 1.56946 14.9306C1.74426 14.9306 1.91716 14.9305 2.08873 14.9304C2.49228 14.9301 2.88845 14.9298 3.28458 14.9311C3.65636 14.9323 3.91368 15.1753 3.91247 15.5185C3.91127 15.8593 3.65194 16.0987 3.27811 16.0993C2.52968 16.1006 1.78118 16.1008 1.03276 16.0993C0.637479 16.0984 0.401498 15.8587 0.40084 15.4587C0.399634 14.7163 0.400073 13.9739 0.401206 13.2315C0.401316 13.1652 0.40285 13.0966 0.418524 13.0327C0.490644 12.7383 0.759325 12.5568 1.06363 12.5911C1.34451 12.6228 1.56584 12.869 1.56815 13.1699C1.57131 13.5766 1.57067 13.9834 1.57001 14.3999Z" fill="#0696D6"/>
</svg>
