<svg width="19" height="19" viewBox="0 0 19 19" fill="none" xmlns="http://www.w3.org/2000/svg">
<path d="M17.9131 13.7608C18.0034 13.7608 18.0939 13.7399 18.178 13.6975C18.3904 13.5905 18.525 13.3653 18.525 13.1182V5.40642C18.525 5.15932 18.3904 4.93408 18.178 4.82708C17.9667 4.72007 17.7146 4.74996 17.531 4.90451L13.936 7.92528V5.01745C13.8669 4.3748 13.2847 3.7998 12.7419 3.7998H1.6691C1.05723 3.7998 0.474976 4.3748 0.474976 5.01745V13.5072C0.474976 14.1498 1.05723 14.7248 1.6691 14.7248H12.7419C13.5758 14.7248 13.8669 14.1498 13.936 13.5072V10.5993L17.531 13.6201C17.6414 13.713 17.777 13.7608 17.9131 13.7608Z" fill="#0696D6"/>
</svg>
