<svg width="16" height="19" viewBox="0 0 16 19" fill="none" xmlns="http://www.w3.org/2000/svg">
<g clip-path="url(#clip0_14_1397)">
<path fill-rule="evenodd" clip-rule="evenodd" d="M1.01587 2.03638H3.45426V2.93783H1.72868C1.50168 2.94023 1.28464 3.03137 1.12398 3.19174C0.96332 3.35211 0.871793 3.56899 0.868978 3.79598V17.2481C0.871001 17.4754 0.962275 17.6927 1.12311 17.8532C1.28394 18.0138 1.50144 18.1047 1.72868 18.1063H13.5511C13.7785 18.1055 13.9963 18.0148 14.157 17.854C14.3178 17.6933 14.4084 17.4755 14.4093 17.2481V3.79598C14.4072 3.56901 14.3162 3.3519 14.1557 3.1914C13.9952 3.0309 13.7781 2.93984 13.5511 2.93783H11.8255V2.03638H14.2624C14.5317 2.03719 14.7898 2.14443 14.9803 2.33472C15.1709 2.52502 15.2786 2.78293 15.2798 3.05225V17.9841C15.2778 18.2532 15.1699 18.5106 14.9795 18.7008C14.7891 18.8909 14.5314 18.9984 14.2624 19H1.01587C0.74682 18.9988 0.489138 18.8914 0.298889 18.7011C0.108641 18.5109 0.0012202 18.2532 0 17.9841L0 3.05225C0.000815686 2.78307 0.108106 2.52516 0.298442 2.33482C0.488778 2.14448 0.746695 2.03719 1.01587 2.03638ZM7.81926 5.04224H13.18V5.55094H7.81152V5.04224H7.81926ZM7.81926 7.81307H9.65926V8.32332H7.81152V7.81307H7.81926ZM7.81926 6.37044H10.4076V6.8807H7.81152V6.37044H7.81926ZM11.7049 6.22819H12.1487C12.1897 6.22819 12.229 6.24448 12.258 6.27348C12.287 6.30248 12.3033 6.3418 12.3033 6.38281V6.89771H12.8182C12.8592 6.89771 12.8985 6.914 12.9275 6.94299C12.9565 6.97199 12.9728 7.01132 12.9728 7.05233V7.49764C12.9728 7.53865 12.9565 7.57798 12.9275 7.60697C12.8985 7.63597 12.8592 7.65226 12.8182 7.65226H12.2925V8.15479C12.2925 8.19579 12.2762 8.23512 12.2472 8.26412C12.2182 8.29312 12.1789 8.30941 12.1379 8.30941H11.6972C11.6562 8.30941 11.6168 8.29312 11.5879 8.26412C11.5589 8.23512 11.5426 8.19579 11.5426 8.15479V7.64144H11.0308C10.9898 7.64144 10.9504 7.62515 10.9214 7.59615C10.8924 7.56715 10.8761 7.52783 10.8761 7.48682V7.04614C10.8761 7.00513 10.8924 6.96581 10.9214 6.93681C10.9504 6.90781 10.9898 6.89152 11.0308 6.89152H11.5457V6.37972C11.5457 6.33871 11.5619 6.29938 11.5909 6.27039C11.6199 6.24139 11.6593 6.2251 11.7003 6.2251L11.7049 6.22819ZM3.66455 7.20695C3.6862 7.15902 3.70475 7.1049 3.71712 7.06934C3.66622 7.00612 3.61972 6.93947 3.57796 6.86987L3.43262 6.64876C3.38839 6.5891 3.36114 6.51857 3.35376 6.44466C3.35178 6.41913 3.35658 6.39352 3.36768 6.37044C3.37789 6.34761 3.39455 6.32827 3.41561 6.31478C3.42607 6.3071 3.43751 6.30086 3.44963 6.29622C3.44185 6.16182 3.44185 6.02707 3.44963 5.89266C3.45291 5.86185 3.45859 5.83135 3.46663 5.80143C3.50505 5.67246 3.58988 5.56229 3.70475 5.49219C3.76686 5.45235 3.83463 5.42211 3.90576 5.40251C3.9506 5.39014 3.86711 5.24788 3.91349 5.24788C4.1377 5.22469 4.50106 5.43034 4.65723 5.59888C4.74265 5.69453 4.79188 5.81707 4.79639 5.94523L4.78711 6.31323C4.80548 6.31734 4.82226 6.32668 4.83543 6.34013C4.84861 6.35357 4.8576 6.37055 4.86133 6.389C4.86987 6.45592 4.85629 6.52379 4.82267 6.58228L4.66805 6.84823C4.60836 6.94458 4.53723 7.03336 4.45622 7.11263C4.46291 7.1233 4.47014 7.13362 4.47786 7.14356C4.75 7.54403 5.118 7.33838 5.54631 7.65072L5.53239 7.66773V8.34961H2.62858V7.66154C2.63211 7.6528 2.63871 7.64565 2.64714 7.64144C2.92391 7.48682 3.5625 7.42651 3.65991 7.20695H3.66455ZM2.27295 4.49333H5.89266C5.97468 4.49333 6.05333 4.52591 6.11133 4.5839C6.16932 4.6419 6.2019 4.72056 6.2019 4.80257V8.79183C6.20075 8.87264 6.168 8.94979 6.11068 9.00676C6.05358 9.06502 5.97578 9.09837 5.89421 9.09953H2.27604C2.19403 9.09953 2.11537 9.06695 2.05737 9.00895C1.99938 8.95096 1.9668 8.8723 1.9668 8.79028V4.80103C1.9668 4.71901 1.99938 4.64035 2.05737 4.58236C2.11537 4.52436 2.19403 4.49178 2.27604 4.49178L2.27295 4.49333ZM5.88957 4.75619H2.27604C2.26431 4.7566 2.25321 4.76159 2.24512 4.7701C2.2406 4.77386 2.237 4.7786 2.23459 4.78396C2.23218 4.78931 2.23102 4.79515 2.2312 4.80103V8.79183C2.23185 8.80306 2.23684 8.81359 2.24512 8.82121C2.24901 8.82556 2.25378 8.82905 2.2591 8.83145C2.26443 8.83384 2.2702 8.8351 2.27604 8.83512H5.89266C5.90379 8.83409 5.91421 8.8292 5.92212 8.82129C5.93003 8.81338 5.93492 8.80296 5.93595 8.79183V4.80103C5.93593 4.79518 5.93467 4.78941 5.93228 4.78409C5.92988 4.77876 5.92639 4.774 5.92204 4.7701C5.91442 4.76182 5.90389 4.75683 5.89266 4.75619H5.88957ZM2.1307 15.722H10.8097V16.2354H2.1307V15.7297V15.722ZM2.1307 13.7815H13.1429V14.2871H2.1307V13.7815ZM2.1307 11.4838H4.75928L5.23397 10.5221L6.16943 11.8688L7.11263 10.0257L8.0883 11.9384L8.50423 11.5503L8.67432 11.4838H10.0087L10.8452 10.621L11.6183 11.4838H13.1429V11.9894H11.3941L10.8328 11.3601L10.2236 11.9894H8.77328L7.93522 12.7625L7.11263 11.1328L6.22664 12.8445L5.29891 11.5101L5.06234 11.9894H2.12451V11.4838H2.1307ZM4.86287 1.41943H6.01481C6.05242 1.03719 6.2285 0.681892 6.50988 0.420452C6.79125 0.159011 7.15851 0.0094728 7.54248 0C7.92348 0.00906512 8.28819 0.156318 8.56867 0.414328C8.84915 0.672338 9.02628 1.02351 9.06706 1.40243L10.4154 1.41943C10.4605 1.41943 10.5037 1.43735 10.5356 1.46925C10.5675 1.50115 10.5854 1.54441 10.5854 1.58952V3.2146C10.5854 3.25971 10.5675 3.30297 10.5356 3.33487C10.5037 3.36676 10.4605 3.38468 10.4154 3.38468H4.86442C4.81931 3.38468 4.77605 3.36676 4.74415 3.33487C4.71226 3.30297 4.69434 3.25971 4.69434 3.2146V1.58952C4.69392 1.5672 4.69799 1.54502 4.70629 1.5243C4.71459 1.50358 4.72697 1.48473 4.74268 1.46888C4.75839 1.45302 4.77713 1.44048 4.79777 1.43198C4.81841 1.42349 4.84055 1.41922 4.86287 1.41943ZM6.91008 2.11678C7.01656 2.26709 7.15762 2.38959 7.32137 2.47396C7.45522 2.51258 7.59727 2.51258 7.73112 2.47396C7.94181 2.36011 8.10998 2.1811 8.21045 1.9637C8.22178 1.90824 8.22747 1.85177 8.22746 1.79517C8.23377 1.70114 8.2207 1.60681 8.18906 1.51804C8.15742 1.42927 8.10788 1.34794 8.04351 1.27911C7.97914 1.21027 7.90132 1.15539 7.81487 1.11787C7.72841 1.08035 7.63518 1.06099 7.54093 1.06099C7.44669 1.06099 7.35345 1.08035 7.267 1.11787C7.18055 1.15539 7.10273 1.21027 7.03836 1.27911C6.97399 1.34794 6.92445 1.42927 6.89281 1.51804C6.86117 1.60681 6.8481 1.70114 6.85441 1.79517C6.85474 1.90144 6.87629 2.00658 6.91781 2.10441L6.91008 2.11678Z" fill="#0696D6"/>
</g>
<defs>
<clipPath id="clip0_14_1397">
<rect width="15.2798" height="19" fill="white"/>
</clipPath>
</defs>
</svg>
