<svg width="40" height="40" viewBox="0 0 40 40" fill="none" xmlns="http://www.w3.org/2000/svg">
<path fill-rule="evenodd" clip-rule="evenodd" d="M12.1043 5.43408C12.3037 3.55073 13.8971 2.08333 15.8333 2.08333H24.1667C26.1028 2.08333 27.6963 3.55073 27.8957 5.43408C29.1675 5.45998 30.2672 5.52576 31.206 5.69825C32.4693 5.93029 33.5445 6.37236 34.4195 7.24724C35.4227 8.25044 35.8542 9.51356 36.0558 11.0137C36.25 12.4587 36.25 14.2959 36.25 16.5752V26.7582C36.25 29.0375 36.25 30.8747 36.0558 32.3197C35.8542 33.8198 35.4227 35.0828 34.4195 36.0862C33.4162 37.0893 32.1532 37.5208 30.653 37.7225C29.208 37.9167 27.3708 37.9167 25.0915 37.9167H14.9086C12.6292 37.9167 10.792 37.9167 9.34708 37.7225C7.8469 37.5208 6.58378 37.0893 5.58058 36.0862C4.57738 35.0828 4.1459 33.8198 3.9442 32.3197C3.74993 30.8747 3.74997 29.0375 3.75 26.7582V16.5752C3.74997 14.2959 3.74993 12.4587 3.9442 11.0137C4.1459 9.51356 4.57738 8.25044 5.58058 7.24724C6.45547 6.37236 7.53058 5.93029 8.79392 5.69825C9.73288 5.52576 10.8325 5.45998 12.1043 5.43408ZM12.1083 7.93478C10.9113 7.96033 9.98893 8.02056 9.24558 8.15709C8.3009 8.33063 7.7541 8.60926 7.34835 9.01501C6.88708 9.47628 6.58633 10.1239 6.42192 11.3469C6.25265 12.6058 6.25 14.2743 6.25 16.6667V26.6667C6.25 29.059 6.25265 30.7275 6.42192 31.9865C6.58633 33.2095 6.88708 33.857 7.34835 34.3183C7.80962 34.7797 8.45725 35.0803 9.6802 35.2448C10.9391 35.414 12.6076 35.4167 15 35.4167H25C27.3923 35.4167 29.0608 35.414 30.3198 35.2448C31.5428 35.0803 32.1903 34.7797 32.6517 34.3183C33.113 33.857 33.4137 33.2095 33.5782 31.9865C33.7473 30.7275 33.75 29.059 33.75 26.6667V16.6667C33.75 14.2743 33.7473 12.6058 33.5782 11.3469C33.4137 10.1239 33.113 9.47628 32.6517 9.01501C32.2458 8.60926 31.6992 8.33063 30.7545 8.15709C30.011 8.02056 29.0887 7.96033 27.8917 7.93478C27.6763 9.80103 26.0907 11.25 24.1667 11.25H15.8333C13.9093 11.25 12.3237 9.80103 12.1083 7.93478ZM15.8333 4.58333C15.143 4.58333 14.5833 5.14298 14.5833 5.83333V7.49999C14.5833 8.19034 15.143 8.74999 15.8333 8.74999H24.1667C24.857 8.74999 25.4167 8.19034 25.4167 7.49999V5.83333C25.4167 5.14298 24.857 4.58333 24.1667 4.58333H15.8333ZM10.4167 17.5C10.4167 16.8097 10.9763 16.25 11.6667 16.25H28.3333C29.0237 16.25 29.5833 16.8097 29.5833 17.5C29.5833 18.1903 29.0237 18.75 28.3333 18.75H11.6667C10.9763 18.75 10.4167 18.1903 10.4167 17.5ZM12.0833 23.3333C12.0833 22.643 12.643 22.0833 13.3333 22.0833H26.6667C27.357 22.0833 27.9167 22.643 27.9167 23.3333C27.9167 24.0237 27.357 24.5833 26.6667 24.5833H13.3333C12.643 24.5833 12.0833 24.0237 12.0833 23.3333ZM13.75 29.1667C13.75 28.4763 14.3097 27.9167 15 27.9167H25C25.6903 27.9167 26.25 28.4763 26.25 29.1667C26.25 29.857 25.6903 30.4167 25 30.4167H15C14.3097 30.4167 13.75 29.857 13.75 29.1667Z" fill="#1C274C"/>
</svg>
