<svg width="40" height="40" viewBox="0 0 40 40" fill="none" xmlns="http://www.w3.org/2000/svg">
    <path fill-rule="evenodd" clip-rule="evenodd"
          d="M19.9043 2.08325C16.057 2.08324 13.0419 2.08322 10.6894 2.3995C8.28154 2.72324 6.3815 3.3988 4.89015 4.89015C3.3988 6.3815 2.72324 8.28154 2.3995 10.6894C2.08322 13.0419 2.08324 16.057 2.08325 19.9043V20.0956C2.08324 21.8016 2.08324 23.3441 2.1108 24.7376C2.09275 24.8223 2.08325 24.9099 2.08325 24.9999C2.08325 25.1099 2.09749 25.2168 2.1242 25.3184C2.1642 26.8244 2.24325 28.1483 2.3995 29.3104C2.72324 31.7183 3.3988 33.6184 4.89015 35.1098C6.3815 36.6011 8.28154 37.2766 10.6894 37.6004C13.0419 37.9166 16.057 37.9166 19.9043 37.9166H20.0956C23.9429 37.9166 26.9579 37.9166 29.3104 37.6004C31.7183 37.2766 33.6184 36.6011 35.1098 35.1098C36.6011 33.6184 37.2766 31.7183 37.6004 29.3104C37.7566 28.1483 37.8356 26.8244 37.8756 25.3184C37.9024 25.2168 37.9166 25.1099 37.9166 24.9999C37.9166 24.9099 37.9071 24.8223 37.8891 24.7378C37.9166 23.3441 37.9166 21.8016 37.9166 20.0956V19.9043C37.9166 16.057 37.9166 13.0419 37.6004 10.6894C37.2766 8.28154 36.6011 6.3815 35.1098 4.89015C33.6184 3.3988 31.7183 2.72324 29.3104 2.3995C26.9579 2.08322 23.9429 2.08324 20.0956 2.08325H19.9043ZM35.4036 23.7499C35.4163 22.6229 35.4166 21.3789 35.4166 19.9999C35.4166 16.0362 35.4139 13.1892 35.1226 11.0226C34.8363 8.89187 34.2914 7.60734 33.3419 6.65792C32.3924 5.70849 31.1079 5.16367 28.9773 4.8772C26.8106 4.5859 23.9636 4.58325 19.9999 4.58325C16.0362 4.58325 13.1892 4.5859 11.0226 4.8772C8.89187 5.16367 7.60734 5.70849 6.65792 6.65792C5.70849 7.60734 5.16367 8.89187 4.8772 11.0226C4.5859 13.1892 4.58325 16.0362 4.58325 19.9999C4.58325 21.3789 4.58357 22.6229 4.59627 23.7499H8.33325L8.5128 23.7498C9.38952 23.7484 10.1678 23.7471 10.8819 24.0531C11.5959 24.3591 12.1318 24.9236 12.7354 25.5594L12.8591 25.6896L14.7618 27.6874C14.8977 27.8301 15.0089 27.9468 15.1069 28.0461C15.1907 27.9344 15.2853 27.8041 15.4009 27.6444L21.4906 19.2391C21.7386 18.8964 21.9974 18.5388 22.2529 18.2754C22.5453 17.9739 22.9986 17.6179 23.6561 17.5878C24.3136 17.5576 24.7978 17.8704 25.1164 18.1438C25.3951 18.3828 25.6856 18.7149 25.9641 19.0334L28.9704 22.4693C29.7799 23.3946 29.9529 23.5526 30.1416 23.6383C30.3302 23.7238 30.5631 23.7499 31.7926 23.7499H35.4036ZM4.65704 26.2499C4.70022 27.2686 4.76869 28.1701 4.8772 28.9773C5.16367 31.1079 5.70849 32.3924 6.65792 33.3419C7.60734 34.2914 8.89187 34.8363 11.0226 35.1226C13.1892 35.4139 16.0362 35.4166 19.9999 35.4166C23.9636 35.4166 26.8106 35.4139 28.9773 35.1226C31.1079 34.8363 32.3924 34.2914 33.3419 33.3419C34.2914 32.3924 34.8363 31.1079 35.1226 28.9773C35.2311 28.1701 35.2996 27.2686 35.3428 26.2499H31.7926L31.6024 26.2501C30.6764 26.2516 29.8541 26.2531 29.1086 25.9148C28.3631 25.5766 27.8226 24.9568 27.2141 24.2588L27.0889 24.1156L24.1268 20.7303C23.9916 20.5756 23.8806 20.4489 23.7828 20.3409C23.6951 20.4576 23.5963 20.5938 23.4758 20.7601L17.3873 29.1639C17.1489 29.4933 16.8984 29.8391 16.6505 30.0956C16.3651 30.3908 15.9269 30.7359 15.2903 30.7786C14.6537 30.8214 14.1733 30.5378 13.851 30.2834C13.571 30.0624 13.2766 29.7531 12.9964 29.4588L11.0488 27.4137C10.2472 26.5721 10.078 26.4286 9.89709 26.3509C9.71619 26.2734 9.49549 26.2499 8.33325 26.2499H4.65704Z"
          fill="#1C274C"/>
</svg>
