<svg width="40" height="40" viewBox="0 0 40 40" fill="none" xmlns="http://www.w3.org/2000/svg">
    <path d="M19.92 37.985C17.5 37.985 15.15 37.51 12.935 36.575C10.8 35.67 8.87998 34.38 7.23498 32.73C5.58998 31.085 4.29498 29.165 3.38998 27.03C2.44998 24.82 1.97998 22.47 1.97998 20.045C1.97998 17.62 2.45498 15.275 3.38998 13.06C4.29498 10.925 5.58498 9.005 7.23498 7.36C8.87998 5.715 10.8 4.42 12.935 3.515C15.15 2.58 17.495 2.105 19.92 2.105C22.34 2.105 24.69 2.58 26.905 3.515C29.04 4.42 30.96 5.71 32.605 7.36C34.25 9.005 35.545 10.925 36.45 13.06C37.385 15.275 37.86 17.62 37.86 20.045C37.86 22.47 37.385 24.815 36.45 27.03C35.545 29.165 34.255 31.085 32.605 32.73C30.955 34.375 29.04 35.67 26.905 36.575C24.69 37.515 22.34 37.985 19.92 37.985ZM19.92 4.555C11.38 4.555 4.42998 11.505 4.42998 20.045C4.42998 28.585 11.38 35.535 19.92 35.535C28.46 35.535 35.41 28.585 35.41 20.045C35.41 11.505 28.46 4.555 19.92 4.555Z"
          fill="#1C274C"/>
    <path d="M27.865 15.48C27.73 14.775 27.34 14.145 26.77 13.71C26.545 13.54 26.29 13.41 26.05 13.29C26.03 13.28 26.01 13.27 25.99 13.26L23.77 12.15C23.43 11.98 23.135 11.835 22.89 11.725C22.64 11.615 22.34 11.5 22.01 11.465C20.665 11.31 19.39 12.095 18.93 13.37C18.815 13.685 18.785 14 18.77 14.275C18.76 14.485 18.755 14.725 18.755 15V15.2C18.755 15.22 18.755 15.235 18.755 15.255V15.285C18.755 15.31 18.755 15.33 18.755 15.355C18.755 15.4 18.755 15.445 18.755 15.495V20.92C18.13 20.6 17.42 20.42 16.67 20.42C14.14 20.42 12.085 22.47 12.085 25.005C12.085 27.54 14.135 29.59 16.67 29.59C19.2 29.59 21.255 27.54 21.255 25.005V18.69L22.905 19.515C23.245 19.685 23.54 19.83 23.785 19.94C24.035 20.05 24.335 20.165 24.665 20.2C26.01 20.355 27.285 19.57 27.745 18.295C27.86 17.98 27.89 17.665 27.905 17.39C27.92 17.12 27.92 16.79 27.92 16.41V16.38C27.92 16.355 27.92 16.335 27.92 16.31C27.915 16.045 27.915 15.76 27.865 15.48ZM16.665 27.085C15.515 27.085 14.58 26.15 14.58 25C14.58 23.85 15.515 22.915 16.665 22.915C17.815 22.915 18.75 23.85 18.75 25C18.75 26.15 17.815 27.085 16.665 27.085ZM25.405 17.26C25.4 17.385 25.39 17.44 25.385 17.455C25.315 17.625 25.145 17.73 24.96 17.715C24.945 17.71 24.895 17.695 24.775 17.645C24.595 17.565 24.36 17.45 23.985 17.26L21.79 16.165C21.63 16.085 21.54 16.04 21.47 16.005C21.43 15.98 21.41 15.97 21.405 15.97C21.325 15.91 21.27 15.82 21.25 15.72C21.25 15.715 21.245 15.695 21.245 15.645C21.24 15.57 21.24 15.465 21.24 15.29C21.24 14.87 21.24 14.605 21.25 14.41C21.255 14.285 21.265 14.23 21.27 14.215C21.34 14.045 21.51 13.94 21.695 13.955C21.71 13.96 21.76 13.975 21.88 14.025C22.06 14.105 22.295 14.22 22.67 14.41L24.865 15.505C25.025 15.585 25.115 15.63 25.185 15.665C25.225 15.69 25.245 15.7 25.25 15.7C25.33 15.76 25.385 15.85 25.405 15.95C25.405 15.955 25.41 15.975 25.41 16.025C25.415 16.1 25.415 16.205 25.415 16.38C25.415 16.8 25.415 17.065 25.405 17.26Z"
          fill="#1C274C"/>
</svg>
