<svg width="40" height="40" viewBox="0 0 40 40" fill="none" xmlns="http://www.w3.org/2000/svg">
<path fill-rule="evenodd" clip-rule="evenodd" d="M18.2418 2.08333H21.7581C24.0374 2.0833 25.8746 2.08326 27.3196 2.27753C28.8198 2.47923 30.0828 2.91071 31.0861 3.91391C31.5834 4.41136 31.9403 4.97271 32.1983 5.5952C33.7518 5.7898 35.0559 6.21723 36.0861 7.24733C37.0892 8.25053 37.5207 9.51365 37.7224 11.0138C37.9166 12.4588 37.9166 14.296 37.9166 16.5753V23.4248C37.9166 25.7042 37.9166 27.5413 37.7224 28.9863C37.5207 30.4865 37.0892 31.7497 36.0861 32.7528C35.0559 33.783 33.7518 34.2103 32.1983 34.405C31.9403 35.0273 31.5834 35.5887 31.0861 36.0862C30.0828 37.0893 28.8198 37.5208 27.3196 37.7225C25.8746 37.9167 24.0374 37.9167 21.7581 37.9167H18.2418C15.9625 37.9167 14.1253 37.9167 12.6803 37.7225C11.1802 37.5208 9.91704 37.0893 8.91384 36.0862C8.41644 35.5887 8.05959 35.0273 7.8016 34.405C6.24815 34.2103 4.94397 33.783 3.91384 32.7528C2.91064 31.7497 2.47915 30.4865 2.27745 28.9863C2.08319 27.5413 2.08322 25.7042 2.08325 23.4248V16.5753C2.08322 14.296 2.08319 12.4588 2.27745 11.0138C2.47915 9.51365 2.91064 8.25053 3.91384 7.24733C4.94395 6.21723 6.24812 5.7898 7.80152 5.5952C8.05952 4.97271 8.41639 4.41136 8.91384 3.91391C9.91704 2.91071 11.1802 2.47923 12.6803 2.27753C14.1253 2.08326 15.9625 2.0833 18.2418 2.08333ZM7.21399 8.23411C6.48462 8.40988 6.02992 8.66678 5.6816 9.0151C5.22034 9.47638 4.91959 10.124 4.75517 11.3469C4.5859 12.6059 4.58325 14.2744 4.58325 16.6668V23.3335C4.58325 25.7258 4.5859 27.3943 4.75517 28.6532C4.91959 29.8762 5.22034 30.5238 5.6816 30.985C6.02994 31.3333 6.48464 31.5903 7.214 31.766C7.0832 30.414 7.08322 28.7558 7.08325 26.7582V13.2419C7.08322 11.2442 7.0832 9.58615 7.21399 8.23411ZM32.7859 31.766C33.5153 31.5903 33.9699 31.3333 34.3182 30.985C34.7796 30.5238 35.0802 29.8762 35.2448 28.6532C35.4139 27.3943 35.4166 25.7258 35.4166 23.3335V16.6668C35.4166 14.2744 35.4139 12.6059 35.2448 11.3469C35.0802 10.124 34.7796 9.47638 34.3182 9.0151C33.9699 8.66678 33.5153 8.40988 32.7859 8.23411C32.9166 9.58615 32.9166 11.2442 32.9166 13.2419V26.7582C32.9166 28.7558 32.9166 30.414 32.7859 31.766ZM13.0135 4.75525C11.7905 4.91966 11.1429 5.22041 10.6816 5.68168C10.2203 6.14295 9.91959 6.79058 9.75517 8.01353C9.5859 9.27245 9.58325 10.941 9.58325 13.3333V26.6667C9.58325 29.059 9.5859 30.7275 9.75517 31.9865C9.91959 33.2095 10.2203 33.857 10.6816 34.3183C11.1429 34.7797 11.7905 35.0803 13.0135 35.2448C14.2724 35.414 15.9409 35.4167 18.3333 35.4167H21.6666C24.0589 35.4167 25.7274 35.414 26.9864 35.2448C28.2094 35.0803 28.8569 34.7797 29.3183 34.3183C29.7796 33.857 30.0803 33.2095 30.2448 31.9865C30.4139 30.7275 30.4166 29.059 30.4166 26.6667V13.3333C30.4166 10.941 30.4139 9.27245 30.2448 8.01353C30.0803 6.79058 29.7796 6.14295 29.3183 5.68168C28.8569 5.22041 28.2094 4.91966 26.9864 4.75525C25.7274 4.58598 24.0589 4.58333 21.6666 4.58333H18.3333C15.9409 4.58333 14.2724 4.58598 13.0135 4.75525ZM13.7499 15C13.7499 14.3096 14.3096 13.75 14.9999 13.75H24.9999C25.6903 13.75 26.2499 14.3096 26.2499 15C26.2499 15.6904 25.6903 16.25 24.9999 16.25H14.9999C14.3096 16.25 13.7499 15.6904 13.7499 15ZM13.7499 21.6667C13.7499 20.9763 14.3096 20.4167 14.9999 20.4167H24.9999C25.6903 20.4167 26.2499 20.9763 26.2499 21.6667C26.2499 22.357 25.6903 22.9167 24.9999 22.9167H14.9999C14.3096 22.9167 13.7499 22.357 13.7499 21.6667ZM13.7499 28.3333C13.7499 27.643 14.3096 27.0833 14.9999 27.0833H19.9999C20.6903 27.0833 21.2499 27.643 21.2499 28.3333C21.2499 29.0237 20.6903 29.5833 19.9999 29.5833H14.9999C14.3096 29.5833 13.7499 29.0237 13.7499 28.3333Z" fill="#1C274C"/>
</svg>
