<svg width="40" height="40" viewBox="0 0 40 40" fill="none" xmlns="http://www.w3.org/2000/svg">
<path fill-rule="evenodd" clip-rule="evenodd" d="M18.2393 2.08337H21.7607C24.8237 2.08334 27.2497 2.08332 29.1483 2.33861C31.1023 2.60131 32.684 3.15484 33.9313 4.40211C35.1785 5.64939 35.732 7.23097 35.9948 9.18501C36.25 11.0837 36.25 13.5098 36.25 16.5727V23.4274C36.25 26.4904 36.25 28.9164 35.9948 30.815C35.732 32.769 35.1785 34.3507 33.9313 35.598C32.684 36.8452 31.1023 37.3987 29.1483 37.6615C27.2497 37.9167 24.8237 37.9167 21.7607 37.9167H18.2393C15.1764 37.9167 12.7503 37.9167 10.8516 37.6615C8.8976 37.3987 7.31602 36.8452 6.06873 35.598C4.82147 34.3507 4.26793 32.769 4.00523 30.815C3.74995 28.9164 3.74997 26.4904 3.75 23.4274V16.5727C3.74997 13.5097 3.74995 11.0837 4.00523 9.18501C4.26793 7.23097 4.82147 5.64939 6.06873 4.40211C7.31602 3.15484 8.8976 2.60131 10.8516 2.33861C12.7503 2.08332 15.1764 2.08334 18.2393 2.08337ZM11.1848 4.81631C9.50793 5.04174 8.54185 5.46452 7.8365 6.16987C7.13115 6.87522 6.70837 7.84131 6.48293 9.51812C6.25265 11.2309 6.25 13.4887 6.25 16.6667V23.3334C6.25 26.5114 6.25265 28.7692 6.48293 30.482C6.70837 32.1587 7.13115 33.1249 7.8365 33.8302C8.54185 34.5355 9.50793 34.9584 11.1848 35.1837C12.8975 35.414 15.1553 35.4167 18.3333 35.4167H21.6667C24.8447 35.4167 27.1025 35.414 28.8153 35.1837C30.492 34.9584 31.4582 34.5355 32.1635 33.8302C32.8688 33.1249 33.2917 32.1587 33.517 30.482C33.7473 28.7692 33.75 26.5114 33.75 23.3334V16.6667C33.75 13.4887 33.7473 11.2309 33.517 9.51812C33.2917 7.84131 32.8688 6.87522 32.1635 6.16987C31.4582 5.46452 30.492 5.04174 28.8153 4.81631C27.1025 4.58602 24.8447 4.58337 21.6667 4.58337H18.3333C15.1553 4.58337 12.8975 4.58602 11.1848 4.81631ZM12.0833 13.3334C12.0833 12.643 12.643 12.0834 13.3333 12.0834H26.6667C27.357 12.0834 27.9167 12.643 27.9167 13.3334C27.9167 14.0237 27.357 14.5834 26.6667 14.5834H13.3333C12.643 14.5834 12.0833 14.0237 12.0833 13.3334ZM12.0833 20C12.0833 19.3097 12.643 18.75 13.3333 18.75H26.6667C27.357 18.75 27.9167 19.3097 27.9167 20C27.9167 20.6904 27.357 21.25 26.6667 21.25H13.3333C12.643 21.25 12.0833 20.6904 12.0833 20ZM12.0833 26.6667C12.0833 25.9764 12.643 25.4167 13.3333 25.4167H21.6667C22.357 25.4167 22.9167 25.9764 22.9167 26.6667C22.9167 27.357 22.357 27.9167 21.6667 27.9167H13.3333C12.643 27.9167 12.0833 27.357 12.0833 26.6667Z" fill="#1C274C"/>
</svg>
