<svg width="40" height="40" viewBox="0 0 40 40" fill="none" xmlns="http://www.w3.org/2000/svg">
<path fill-rule="evenodd" clip-rule="evenodd" d="M17.2393 2.08325H20.7607C23.8237 2.08322 26.2497 2.0832 28.1483 2.33849C30.1023 2.60119 31.684 3.15472 32.9313 4.40199C33.4193 4.89015 33.4193 5.6816 32.9313 6.16975C32.4432 6.65792 31.6517 6.65792 31.1635 6.16975C30.4582 5.4644 29.492 5.04162 27.8153 4.81619C26.1025 4.5859 23.8447 4.58325 20.6667 4.58325H17.3333C14.1553 4.58325 11.8975 4.5859 10.1848 4.81619C8.50793 5.04162 7.54185 5.4644 6.8365 6.16975C6.13115 6.8751 5.70837 7.84119 5.48293 9.518C5.25265 11.2308 5.25 13.4886 5.25 16.6666V23.3333C5.25 26.5113 5.25265 28.7691 5.48293 30.4819C5.70837 32.1586 6.13115 33.1248 6.8365 33.8301C7.54185 34.5354 8.50793 34.9583 10.1848 35.1836C11.8975 35.4139 14.1553 35.4166 17.3333 35.4166H20.6667C23.8447 35.4166 26.1025 35.4139 27.8153 35.1836C29.492 34.9583 30.4582 34.5354 31.1635 33.8301C32.3233 32.6702 32.6747 30.8679 32.7357 26.6486C32.7457 25.9583 33.3133 25.4068 34.0037 25.4168C34.6938 25.4268 35.2453 25.9944 35.2353 26.6846C35.1768 30.7304 34.915 33.6141 32.9313 35.5979C31.684 36.8451 30.1023 37.3986 28.1483 37.6614C26.2497 37.9166 23.8237 37.9166 20.7607 37.9166H17.2393C14.1764 37.9166 11.7503 37.9166 9.85163 37.6614C7.8976 37.3986 6.31602 36.8451 5.06873 35.5979C3.82147 34.3506 3.26793 32.7689 3.00523 30.8149C2.74995 28.9163 2.74997 26.4903 2.75 23.4273V16.5726C2.74997 13.5096 2.74995 11.0836 3.00523 9.18489C3.26793 7.23085 3.82147 5.64927 5.06873 4.40199C6.31602 3.15472 7.8976 2.60119 9.85163 2.33849C11.7503 2.0832 14.1764 2.08322 17.2393 2.08325ZM29.1885 11.7425C30.9565 9.9746 33.8228 9.9746 35.5907 11.7425C37.3587 13.5104 37.3587 16.3768 35.5907 18.1448L27.6652 26.0703C27.234 26.5016 26.9423 26.7933 26.6155 27.0481C26.2312 27.3479 25.8153 27.6049 25.3753 27.8148C25.0012 27.9929 24.6098 28.1234 24.0312 28.3161L20.5585 29.4738C19.7918 29.7293 18.9465 29.5298 18.375 28.9583C17.8035 28.3868 17.604 27.5414 17.8595 26.7747L18.9938 23.3719C19.0017 23.3484 19.0093 23.3251 19.017 23.3021C19.2098 22.7236 19.3403 22.3321 19.5185 21.9579C19.7283 21.5179 19.9853 21.1021 20.2852 20.7178C20.54 20.3909 20.8317 20.0993 21.263 19.6681C21.2802 19.6509 21.2975 19.6336 21.3152 19.6159L29.1885 11.7425ZM33.823 13.5103C33.0313 12.7187 31.748 12.7187 30.9563 13.5103L30.6533 13.8133C30.6698 13.8691 30.6887 13.9284 30.7103 13.9908C30.867 14.4427 31.1647 15.0404 31.7287 15.6045C32.2928 16.1687 32.8905 16.4662 33.3425 16.623C33.4048 16.6446 33.4642 16.6635 33.52 16.6799L33.823 16.3769C34.6145 15.5853 34.6145 14.3019 33.823 13.5103ZM31.6107 18.5893C31.0808 18.3109 30.5088 17.9201 29.961 17.3723C29.4132 16.8244 29.0223 16.2524 28.744 15.7225L23.0828 21.3838C22.5812 21.8856 22.405 22.0646 22.2563 22.2553C22.0683 22.4964 21.907 22.7574 21.7753 23.0336C21.6713 23.2518 21.5898 23.4893 21.3655 24.1626L20.6983 26.1641L21.1692 26.6349L23.1707 25.9678C23.844 25.7434 24.0815 25.6619 24.2997 25.5579C24.5758 25.4263 24.8368 25.2649 25.078 25.0769C25.2687 24.9283 25.4477 24.7521 25.9495 24.2504L31.6107 18.5893ZM11.0833 14.9999C11.0833 14.3096 11.643 13.7499 12.3333 13.7499H23.1667C23.857 13.7499 24.4167 14.3096 24.4167 14.9999C24.4167 15.6903 23.857 16.2499 23.1667 16.2499H12.3333C11.643 16.2499 11.0833 15.6903 11.0833 14.9999ZM11.0833 21.6666C11.0833 20.9763 11.643 20.4166 12.3333 20.4166H16.5C17.1903 20.4166 17.75 20.9763 17.75 21.6666C17.75 22.3569 17.1903 22.9166 16.5 22.9166H12.3333C11.643 22.9166 11.0833 22.3569 11.0833 21.6666ZM11.0833 28.3333C11.0833 27.6429 11.643 27.0833 12.3333 27.0833H14.8333C15.5237 27.0833 16.0833 27.6429 16.0833 28.3333C16.0833 29.0236 15.5237 29.5833 14.8333 29.5833H12.3333C11.643 29.5833 11.0833 29.0236 11.0833 28.3333Z" fill="#1C274C"/>
</svg>
