<svg width="40" height="40" viewBox="0 0 40 40" fill="none" xmlns="http://www.w3.org/2000/svg">
    <path d="M18.24 2.08501H21.76C24.825 2.08501 27.25 2.08501 29.15 2.34001C31.1 2.60001 32.685 3.15501 33.93 4.40001C35.175 5.64501 35.73 7.23001 35.995 9.18501C36.25 11.085 36.25 13.51 36.25 16.575V23.43C36.25 26.495 36.25 28.92 35.995 30.82C35.73 32.775 35.18 34.355 33.93 35.605C32.685 36.85 31.1 37.405 29.145 37.67C27.245 37.925 24.82 37.925 21.755 37.925H18.235C15.17 37.925 12.745 37.925 10.845 37.67C8.88999 37.405 7.30999 36.855 6.05999 35.605C4.81499 34.36 4.25999 32.775 3.99499 30.82C3.73999 28.92 3.73999 26.495 3.73999 23.43V16.575C3.73999 13.51 3.73999 11.085 3.99499 9.18501C4.25999 7.23001 4.80999 5.65001 6.05999 4.40001C7.31499 3.15501 8.89999 2.60001 10.85 2.34001C12.75 2.08501 15.175 2.08501 18.24 2.08501ZM11.185 4.81501C9.50999 5.04001 8.53999 5.46501 7.83499 6.17001C7.12999 6.87501 6.70499 7.84001 6.47999 9.52001C6.24999 11.235 6.24499 13.49 6.24499 16.67V23.335C6.24499 26.515 6.24999 28.77 6.47999 30.485C6.70499 32.16 7.12999 33.13 7.83499 33.835C8.53999 34.54 9.50499 34.965 11.185 35.19C12.9 35.42 15.155 35.425 18.335 35.425H21.67C24.85 35.425 27.105 35.42 28.82 35.19C30.495 34.965 31.465 34.54 32.17 33.835C32.875 33.13 33.3 32.165 33.525 30.485C33.755 28.77 33.76 26.515 33.76 23.335V16.665C33.76 13.485 33.755 11.23 33.525 9.51501C33.3 7.84001 32.875 6.87001 32.17 6.16501C31.465 5.46001 30.5 5.03501 28.82 4.81001C27.105 4.58001 24.85 4.57501 21.67 4.57501H18.335C15.155 4.58501 12.9 4.58501 11.185 4.81501Z"
          fill="#1C274C"/>
    <path d="M26.47 20.75C24.41 20.75 22.735 22.42 22.735 24.485C22.735 26.13 23.8 27.53 25.28 28.025C24.7 29.035 23.615 29.71 22.37 29.71H21.49C19.155 29.71 17.26 27.815 17.26 25.48V23.435C21.015 23.06 23.945 19.89 23.945 16.04V14.82C23.945 14.545 23.945 14.36 23.93 14.195C23.77 12.395 22.34 10.965 20.54 10.805C20.45 10.795 20.355 10.795 20.245 10.79V10.54C20.245 10.13 19.91 9.795 19.5 9.795C19.09 9.795 18.755 10.13 18.755 10.54V12.53C18.755 12.94 19.09 13.275 19.5 13.275C19.91 13.275 20.245 12.94 20.245 12.53V12.285C20.315 12.285 20.365 12.29 20.405 12.29C21.485 12.385 22.345 13.245 22.44 14.325C22.45 14.415 22.45 14.53 22.45 14.86V16.04C22.45 19.32 19.79 21.98 16.51 21.98C13.075 21.98 10.285 19.195 10.285 15.755V14.86C10.285 14.535 10.285 14.415 10.295 14.325C10.39 13.245 11.25 12.385 12.33 12.29C12.41 12.285 12.515 12.28 12.775 12.28V12.53C12.775 12.94 13.11 13.275 13.52 13.275C13.93 13.275 14.265 12.94 14.265 12.53V10.54C14.265 10.13 13.93 9.795 13.52 9.795C13.11 9.795 12.775 10.13 12.775 10.54V10.79C12.525 10.79 12.35 10.79 12.195 10.805C10.395 10.965 8.96504 12.395 8.80504 14.195C8.79004 14.36 8.79004 14.545 8.79004 14.82V15.755C8.79004 19.765 11.85 23.06 15.76 23.435V25.475C15.76 28.635 18.325 31.2 21.485 31.2H22.365C24.39 31.2 26.125 29.955 26.85 28.195C28.73 28 30.2 26.415 30.2 24.48C30.205 22.42 28.53 20.75 26.47 20.75ZM26.47 26.725C25.235 26.725 24.23 25.72 24.23 24.485C24.23 23.25 25.235 22.245 26.47 22.245C27.705 22.245 28.71 23.25 28.71 24.485C28.71 25.72 27.705 26.725 26.47 26.725Z"
          fill="#1C274C"/>
</svg>
