<svg width="40" height="40" viewBox="0 0 40 40" fill="none" xmlns="http://www.w3.org/2000/svg">
<path d="M18.24 2.08501H21.76C24.825 2.08501 27.25 2.08501 29.15 2.34001C31.1 2.60001 32.685 3.15501 33.93 4.40001C35.175 5.64501 35.73 7.23001 35.995 9.18501C36.25 11.085 36.25 13.51 36.25 16.575V23.43C36.25 26.495 36.25 28.92 35.995 30.82C35.73 32.775 35.18 34.355 33.93 35.605C32.685 36.85 31.1 37.405 29.145 37.67C27.245 37.925 24.82 37.925 21.755 37.925H18.235C15.17 37.925 12.745 37.925 10.845 37.67C8.88999 37.405 7.30999 36.855 6.05999 35.605C4.81499 34.36 4.25999 32.775 3.99499 30.82C3.73999 28.92 3.73999 26.495 3.73999 23.43V16.575C3.73999 13.51 3.73999 11.085 3.99499 9.18501C4.25999 7.23001 4.80999 5.65001 6.05999 4.40001C7.31499 3.15501 8.89999 2.60001 10.85 2.34001C12.75 2.08501 15.175 2.08501 18.24 2.08501ZM11.185 4.81501C9.50999 5.04001 8.53999 5.46501 7.83499 6.17001C7.12999 6.87501 6.70499 7.84001 6.47999 9.52001C6.24999 11.235 6.24499 13.49 6.24499 16.67V23.335C6.24499 26.515 6.24999 28.77 6.47999 30.485C6.70499 32.16 7.12999 33.13 7.83499 33.835C8.53999 34.54 9.50499 34.965 11.185 35.19C12.9 35.42 15.155 35.425 18.335 35.425H21.67C24.85 35.425 27.105 35.42 28.82 35.19C30.495 34.965 31.465 34.54 32.17 33.835C32.875 33.13 33.3 32.165 33.525 30.485C33.755 28.77 33.76 26.515 33.76 23.335V16.665C33.76 13.485 33.755 11.23 33.525 9.51501C33.3 7.84001 32.875 6.87001 32.17 6.16501C31.465 5.46001 30.5 5.03501 28.82 4.81001C27.105 4.58001 24.85 4.57501 21.67 4.57501H18.335C15.155 4.58501 12.9 4.58501 11.185 4.81501ZM19.91 13.95C20.165 13.695 20.58 13.695 20.83 13.95L22.135 15.255C22.39 15.51 22.39 15.925 22.135 16.18C21.88 16.435 21.465 16.435 21.215 16.18L19.91 14.875C19.655 14.62 19.655 14.205 19.91 13.95ZM15.205 12.725C17.305 10.625 20.715 10.625 22.815 12.725L27.275 17.185C29.375 19.285 29.375 22.695 27.275 24.795C25.72 26.35 23.455 26.755 21.53 26.01C20.705 28.25 18.55 29.85 16.02 29.85C12.78 29.85 10.15 27.22 10.15 23.98C10.15 21.45 11.75 19.295 13.99 18.47C13.245 16.545 13.65 14.28 15.205 12.725ZM21.895 13.65C20.305 12.06 17.72 12.06 16.13 13.65C14.54 15.24 14.54 17.825 16.13 19.415L18.09 21.375C18.28 21.315 18.545 21.21 18.865 21.06C19.565 20.72 20.535 20.125 21.57 19.09C22.605 18.055 23.2 17.085 23.54 16.385C23.695 16.065 23.795 15.8 23.855 15.61L21.895 13.65ZM24.86 16.615C24.815 16.72 24.765 16.83 24.71 16.945C24.315 17.765 23.635 18.86 22.49 20.005C21.345 21.15 20.25 21.83 19.43 22.225C19.315 22.28 19.205 22.33 19.1 22.375L20.59 23.865C22.18 25.455 24.765 25.455 26.355 23.865C27.945 22.275 27.945 19.69 26.355 18.1L24.86 16.615ZM14.61 19.635C12.775 20.23 11.45 21.95 11.45 23.98C11.45 26.5 13.495 28.545 16.015 28.545C18.045 28.545 19.765 27.22 20.36 25.385C20.115 25.21 19.88 25.015 19.66 24.79L15.2 20.33C14.985 20.115 14.785 19.88 14.61 19.635Z" fill="#1C274C"/>
</svg>
