<svg width="40" height="40" viewBox="0 0 40 40" fill="none" xmlns="http://www.w3.org/2000/svg">
    <path fill-rule="evenodd" clip-rule="evenodd"
          d="M19.9043 2.08333C16.057 2.08331 13.0419 2.0833 10.6894 2.39958C8.28154 2.72331 6.3815 3.39888 4.89015 4.89023C3.3988 6.38158 2.72324 8.28161 2.3995 10.6895C2.08322 13.042 2.08324 16.057 2.08325 19.9043V20.0957C2.08324 23.943 2.08322 26.958 2.3995 29.3105C2.72324 31.7183 3.3988 33.6185 4.89015 35.1098C6.3815 36.6012 8.28154 37.2767 10.6894 37.6005C12.0912 37.7888 13.7282 37.865 15.6363 37.8958C15.7104 37.9095 15.7868 37.9167 15.8649 37.9167C15.9306 37.9167 15.9951 37.9117 16.058 37.9018C17.2371 37.9167 18.5166 37.9167 19.9043 37.9167H20.0956C21.5293 37.9167 22.8474 37.9167 24.0589 37.9003C24.1248 37.911 24.1926 37.9167 24.2616 37.9167C24.3439 37.9167 24.4244 37.9087 24.5024 37.8935C26.3513 37.8613 27.9428 37.7843 29.3104 37.6005C31.7183 37.2767 33.6184 36.6012 35.1098 35.1098C36.6011 33.6185 37.2766 31.7183 37.6004 29.3105C37.9166 26.958 37.9166 23.943 37.9166 20.0957V19.9043C37.9166 16.057 37.9166 13.042 37.6004 10.6895C37.2766 8.28161 36.6011 6.38158 35.1098 4.89023C33.6184 3.39888 31.7183 2.72331 29.3104 2.39958C26.9579 2.0833 23.9429 2.08331 20.0956 2.08333H19.9043ZM25.5116 35.3693C26.8393 35.3297 27.9803 35.2568 28.9773 35.1227C31.1079 34.8363 32.3924 34.2915 33.3419 33.342C34.2914 32.3925 34.8363 31.108 35.1226 28.9773C35.4139 26.8107 35.4166 23.9637 35.4166 20C35.4166 16.0363 35.4139 13.1893 35.1226 11.0226C34.8363 8.89195 34.2914 7.60741 33.3419 6.658C32.3924 5.70856 31.1079 5.16374 28.9773 4.87728C27.9644 4.74111 26.8029 4.66801 25.4481 4.62878V6.76766C25.4481 6.85538 25.4824 6.99714 25.6539 7.20189C25.8294 7.41128 26.0976 7.6216 26.4151 7.80141C28.3621 8.90445 29.6464 11.3195 29.6464 13.485C29.6464 16.494 27.2071 18.9333 24.1981 18.9333C22.5088 18.9333 20.9991 18.1645 19.9998 16.9577C19.0004 18.1645 17.4908 18.9333 15.8014 18.9333C12.7924 18.9333 10.3531 16.494 10.3531 13.485C10.3531 11.3195 11.6374 8.90445 13.5844 7.80141C13.9018 7.6216 14.1701 7.41128 14.3455 7.20189C14.517 6.99714 14.5514 6.85538 14.5514 6.76766V4.62878C13.1968 4.66803 12.0353 4.74111 11.0226 4.87728C8.89187 5.16374 7.60734 5.70856 6.65792 6.658C5.70849 7.60741 5.16367 8.89195 4.8772 11.0226C4.5859 13.1893 4.58325 16.0363 4.58325 20C4.58325 23.9637 4.5859 26.8107 4.8772 28.9773C5.16367 31.108 5.70849 32.3925 6.65792 33.342C7.60734 34.2915 8.89187 34.8363 11.0226 35.1227C12.0511 35.261 13.233 35.3342 14.6149 35.373V33.308C14.6149 33.2203 14.5805 33.0785 14.409 32.8738C14.2335 32.6643 13.9653 32.4542 13.6479 32.2743C11.7009 31.1712 10.4166 28.7562 10.4166 26.5907C10.4166 23.5817 12.8559 21.1423 15.8649 21.1423C17.5541 21.1423 19.0639 21.9112 20.0633 23.118C21.0626 21.9112 22.5723 21.1423 24.2616 21.1423C27.2706 21.1423 29.7099 23.5817 29.7099 26.5907C29.7099 28.7562 28.4256 31.1712 26.4786 32.2743C26.1611 32.4542 25.8929 32.6643 25.7174 32.8738C25.5459 33.0785 25.5116 33.2203 25.5116 33.308V35.3693ZM17.1149 35.411C18.0056 35.4165 18.9646 35.4167 19.9999 35.4167C21.0844 35.4167 22.0853 35.4165 23.0116 35.4102V33.308C23.0116 32.4683 23.3741 31.778 23.8013 31.2682C24.2244 30.763 24.7568 30.3763 25.2463 30.099C26.3483 29.4747 27.2099 27.9288 27.2099 26.5907C27.2099 24.9623 25.8898 23.6423 24.2616 23.6423C22.6333 23.6423 21.3133 24.9623 21.3133 26.5907C21.3133 27.281 20.7536 27.8407 20.0633 27.8407C19.3729 27.8407 18.8133 27.281 18.8133 26.5907C18.8133 24.9623 17.4933 23.6423 15.8649 23.6423C14.2366 23.6423 12.9166 24.9623 12.9166 26.5907C12.9166 27.9288 13.7782 29.4747 14.8802 30.099C15.3698 30.3763 15.902 30.763 16.3252 31.2682C16.7524 31.778 17.1149 32.4683 17.1149 33.308V35.411ZM17.0514 4.58936V6.76766C17.0514 7.60741 16.6889 8.29774 16.2617 8.8075C15.8385 9.31264 15.3063 9.69926 14.8167 9.97661C13.7147 10.6009 12.8531 12.1469 12.8531 13.485C12.8531 15.1133 14.1731 16.4333 15.8014 16.4333C17.4298 16.4333 18.7498 15.1133 18.7498 13.485C18.7498 12.7946 19.3094 12.235 19.9998 12.235C20.6901 12.235 21.2498 12.7946 21.2498 13.485C21.2498 15.1133 22.5698 16.4333 24.1981 16.4333C25.8264 16.4333 27.1464 15.1133 27.1464 13.485C27.1464 12.1469 26.2848 10.6009 25.1828 9.97661C24.6933 9.69926 24.1609 9.31266 23.7378 8.80751C23.3106 8.29774 22.9481 7.60741 22.9481 6.76766V4.58936C22.0396 4.58351 21.0598 4.58333 19.9999 4.58333C18.9401 4.58333 17.9599 4.58351 17.0514 4.58936Z"
          fill="#1C274C"/>
</svg>
