<svg width="40" height="40" viewBox="0 0 40 40" fill="none" xmlns="http://www.w3.org/2000/svg">
<path fill-rule="evenodd" clip-rule="evenodd" d="M15.7517 5.41667H15.9148C18.5853 5.41665 20.7008 5.41663 22.3746 5.61447C24.0928 5.81757 25.5072 6.24397 26.6889 7.21367C27.0898 7.54263 27.4573 7.9102 27.7863 8.31105C28.7559 9.49263 29.1824 10.9071 29.3854 12.6254C29.4311 13.0116 29.4662 13.4214 29.4932 13.8561C30.8032 13.2032 31.9132 12.6667 32.8386 12.364C33.9242 12.0087 35.0759 11.8654 36.1381 12.5218C37.2002 13.1783 37.5871 14.2724 37.7548 15.4024C37.9168 16.4926 37.9166 17.9287 37.9166 19.654V20.346C37.9166 22.0713 37.9168 23.5073 37.7548 24.5975C37.5871 25.7275 37.2002 26.8217 36.1381 27.4782C35.0759 28.1347 33.9242 27.9913 32.8386 27.636C31.9132 27.3332 30.8032 26.7968 29.4932 26.144C29.4662 26.5787 29.4311 26.9883 29.3854 27.3747C29.1824 29.0928 28.7559 30.5073 27.7863 31.689C27.4573 32.0898 27.0898 32.4573 26.6889 32.7863C25.5072 33.756 24.0928 34.1825 22.3746 34.3855C20.7008 34.5833 18.5853 34.5833 15.9148 34.5833H15.7517C13.0813 34.5833 10.9657 34.5833 9.292 34.3855C7.57372 34.1825 6.15922 33.756 4.97764 32.7863C4.57679 32.4573 4.20922 32.0898 3.88025 31.689C2.91055 30.5073 2.48415 29.0928 2.28105 27.3747C2.08322 25.7008 2.08324 23.5853 2.08325 20.9148V19.0852C2.08324 16.4147 2.08322 14.2991 2.28105 12.6254C2.48415 10.9071 2.91055 9.49263 3.88025 8.31105C4.20922 7.9102 4.57679 7.54263 4.97764 7.21367C6.15922 6.24397 7.57372 5.81757 9.292 5.61447C10.9657 5.41663 13.0813 5.41665 15.7517 5.41667ZM27.0833 20.8333V19.1667C27.0833 16.3965 27.0813 14.4287 26.9028 12.9189C26.7276 11.4366 26.3973 10.5594 25.8538 9.89703C25.6286 9.62277 25.3771 9.37128 25.1029 9.1462C24.4406 8.60263 23.5633 8.2724 22.0811 8.09718C20.5713 7.91872 18.6034 7.91667 15.8333 7.91667C13.0631 7.91667 11.0953 7.91872 9.58547 8.09718C8.1032 8.2724 7.22597 8.60263 6.56362 9.1462C6.28935 9.37128 6.03787 9.62277 5.81279 9.89703C5.26922 10.5594 4.93899 11.4366 4.76377 12.9189C4.5853 14.4287 4.58325 16.3965 4.58325 19.1667V20.8333C4.58325 23.6035 4.5853 25.5713 4.76377 27.0812C4.93899 28.5633 5.26922 29.4407 5.81279 30.103C6.03787 30.3772 6.28935 30.6287 6.56362 30.8538C7.22597 31.3973 8.1032 31.7277 9.58547 31.9028C11.0953 32.0813 13.0631 32.0833 15.8333 32.0833C18.6034 32.0833 20.5713 32.0813 22.0811 31.9028C23.5633 31.7277 24.4406 31.3973 25.1029 30.8538C25.3771 30.6287 25.6286 30.3772 25.8538 30.103C26.3973 29.4407 26.7276 28.5633 26.9028 27.0812C27.0813 25.5713 27.0833 23.6035 27.0833 20.8333ZM29.5833 23.3942L29.9896 23.5973C31.6486 24.4268 32.7663 24.9818 33.6161 25.26C34.4483 25.5323 34.7003 25.4278 34.8238 25.3515C34.9473 25.2752 35.1533 25.0965 35.2819 24.2303C35.4133 23.346 35.4166 22.098 35.4166 20.2432V19.7568C35.4166 17.902 35.4133 16.654 35.2819 15.7697C35.1533 14.9035 34.9473 14.7248 34.8238 14.6484C34.7003 14.5721 34.4483 14.4677 33.6161 14.7401C32.7663 15.0181 31.6486 15.5733 29.9896 16.4027L29.5833 16.6059V18.9442C29.5833 18.991 29.5833 19.038 29.5833 19.0852V20.9148C29.5833 20.962 29.5833 21.009 29.5833 21.0558V23.3942Z" fill="#1C274C"/>
</svg>
