<svg width="24" height="25" viewBox="0 0 24 25" fill="none" xmlns="http://www.w3.org/2000/svg">
<path d="M11.499 3.17488C6.66598 3.17488 2.74798 7.09288 2.74798 11.9259C2.75098 16.7559 6.66898 20.6739 11.499 20.6739C16.332 20.6739 20.25 16.7559 20.25 11.9229C20.25 7.09288 16.332 3.17488 11.499 3.17488ZM1.25098 11.9229C1.25098 6.26188 5.84098 1.67188 11.502 1.67188C17.16 1.67488 21.75 6.26188 21.75 11.9229C21.75 17.5839 17.16 22.1739 11.499 22.1739C5.83798 22.1739 1.25098 17.5839 1.25098 11.9229ZM19.47 19.8939C19.764 19.5999 20.238 19.5999 20.532 19.8939L22.533 21.8949C22.827 22.1889 22.827 22.6629 22.533 22.9569C22.239 23.2509 21.765 23.2509 21.471 22.9569L19.47 20.9529C19.176 20.6619 19.176 20.1879 19.47 19.8939ZM11.499 7.55488C11.913 7.55488 12.249 7.89088 12.249 8.30488V12.3039C12.249 12.7179 11.913 13.0539 11.499 13.0539C11.085 13.0539 10.749 12.7179 10.749 12.3039V8.30488C10.749 7.89088 11.085 7.55488 11.499 7.55488ZM11.499 16.3029C12.051 16.3029 12.498 15.8559 12.498 15.3039C12.498 14.7519 12.051 14.3049 11.499 14.3049C10.947 14.3049 10.5 14.7519 10.5 15.3039C10.5 15.8559 10.947 16.3029 11.499 16.3029Z" fill="#1C274C"/>
</svg>
