<svg width="26" height="17" viewBox="0 0 26 17" fill="none" xmlns="http://www.w3.org/2000/svg">
<path d="M9.57131 16.3466C8.9593 16.4976 8.37466 16.5013 7.79151 16.4443C5.11699 16.1809 3.37418 13.8068 3.12108 11.5837C2.94495 10.0355 3.36604 8.60946 3.95512 7.21151C3.97362 7.16711 4.001 7.11975 4.03874 7.09237C4.10017 7.04796 4.1157 6.91698 4.22671 6.96582C4.33994 7.01541 4.26667 7.10273 4.25631 7.18265C4.12606 8.15951 4.0676 9.14007 4.23263 10.1162C4.69294 12.8285 6.18487 14.7674 8.6581 15.9603C8.94005 16.0957 9.28639 16.0772 9.57131 16.3466Z" fill="#F3C004"/>
<path d="M5.54917 12.6586C4.85353 11.2977 4.40654 9.95155 4.4354 8.46998C4.4946 5.40767 6.62815 3.34369 9.62903 3.30373C10.2662 3.29559 10.8952 3.33555 11.5206 3.49392C11.5272 3.59975 11.4325 3.60271 11.3371 3.61233C8.40278 3.92019 6.7547 5.7333 5.86961 8.36933C5.44778 9.62667 5.27905 10.9365 5.56323 12.2657C5.57581 12.3249 5.57655 12.3878 5.57581 12.4492C5.57581 12.498 5.56397 12.5461 5.54917 12.6586Z" fill="#0A804A"/>
<path d="M7.89801 5.69329C9.33888 4.65501 10.8597 3.77436 12.709 3.92385C14.6502 4.08148 16.2168 5.45796 16.5166 7.83794C16.6194 8.65273 16.558 9.45864 16.4196 10.2616C16.4019 10.363 16.4093 10.4814 16.3227 10.5613C16.1628 10.5206 16.222 10.4022 16.2168 10.3171C16.0844 8.0792 14.2594 5.77322 12.1222 5.15528C11.2511 4.90293 10.3786 4.93326 9.49577 5.12494C8.93407 5.24704 8.42418 5.48386 7.89801 5.69329Z" fill="#B7082E"/>
<path d="M24.3196 13.3835C23.8763 14.0459 23.4745 14.6475 23.0712 15.2477C22.8292 15.6074 22.4288 15.6 22.1935 15.2285C21.8382 14.6668 21.4882 14.1021 21.1345 13.5397C21.1234 13.5227 21.0967 13.5153 21.0331 13.4761C21.0331 14.0607 21.0087 14.6194 21.042 15.1752C21.0649 15.5526 20.8347 15.4705 20.6224 15.4905C20.367 15.5149 20.2834 15.4313 20.2879 15.1656C20.3034 14.168 20.2886 13.1704 20.3019 12.1728C20.3041 12.0278 20.1732 11.7629 20.4225 11.7473C20.686 11.7303 21.0079 11.5823 21.2203 11.9264C21.6606 12.6383 22.1195 13.3384 22.5709 14.0429C22.6493 14.1658 22.7063 14.3064 22.8514 14.3996C23.3746 13.6063 23.9222 12.8315 24.4047 12.0182C24.6193 11.6563 24.905 11.7392 25.1958 11.734C25.315 11.7318 25.3076 11.8406 25.3076 11.9279C25.3076 13.0365 25.3046 14.1451 25.3098 15.2536C25.3105 15.4298 25.2499 15.4779 25.0737 15.4868C24.3396 15.523 24.3403 15.5304 24.3403 14.7985C24.3403 14.3796 24.3396 13.9608 24.3389 13.5419C24.3389 13.5168 24.3337 13.4931 24.3196 13.3835Z" fill="#0D4E7D"/>
<path d="M14.5709 13.9404C14.5709 13.227 14.5902 12.6149 14.5635 12.0044C14.548 11.6366 14.7856 11.7439 14.972 11.7291C15.183 11.7128 15.3421 11.7121 15.3369 12.02C15.3184 13.0656 15.331 14.1121 15.3295 15.1577C15.3287 15.476 15.1852 15.5788 14.9003 15.4412C14.7626 15.3746 14.6427 15.2606 14.5325 15.1511C13.8908 14.5146 13.2537 13.8738 12.5484 13.167C12.5484 13.8871 12.5247 14.522 12.558 15.1533C12.5765 15.51 12.3863 15.4774 12.1532 15.4834C11.9031 15.49 11.7573 15.4745 11.7662 15.1422C11.7928 14.1461 11.7714 13.1485 11.7825 12.1517C11.7839 12.0148 11.6626 11.7913 11.8868 11.7454C12.1036 11.701 12.3301 11.6891 12.5299 11.8971C13.173 12.5668 13.8413 13.2136 14.5709 13.9404Z" fill="#0D4E7D"/>
<path d="M17.6756 14.5878C17.6016 14.5878 17.5261 14.5989 17.4543 14.5856C17.0554 14.5116 16.8563 14.6899 16.7468 15.0688C16.6365 15.4507 16.2377 15.6142 15.8602 15.4766C15.6464 15.3989 15.804 15.2686 15.8402 15.182C16.2488 14.1941 16.6639 13.2083 17.0843 12.2248C17.1546 12.0598 17.1708 11.7971 17.3359 11.7601C17.6171 11.6964 17.922 11.7319 18.2165 11.7379C18.3209 11.7401 18.332 11.8526 18.3653 11.9281C18.8456 13.0329 19.3214 14.1401 19.8091 15.2412C19.9038 15.4551 19.8417 15.5054 19.6382 15.4862C19.5767 15.4803 19.5153 15.484 19.4539 15.484C18.8123 15.4818 18.8049 15.4847 18.5806 14.8868C18.5014 14.6751 18.3964 14.5582 18.1558 14.5848C17.9975 14.6026 17.8361 14.5885 17.6756 14.5878ZM17.1708 14.0091C17.535 14.0091 17.8643 14.0091 18.2225 14.0091C18.0367 13.5702 17.8658 13.1654 17.6689 12.6992C17.4854 13.1817 17.3307 13.5887 17.1708 14.0091Z" fill="#0D4E7D"/>
<path d="M6.31581 2.64093C6.29435 3.08126 6.12858 3.56821 5.68085 3.92195C5.02073 4.44294 4.14674 4.24238 3.75229 3.48532C3.38153 2.7734 3.49624 1.85722 4.02241 1.32661C4.40057 0.945489 4.95931 0.818199 5.40851 1.01061C5.96577 1.24817 6.31655 1.8365 6.31581 2.64093Z" fill="#0A804A"/>
<path d="M2.76359 13.3265C2.77765 13.7232 2.66442 14.0836 2.42835 14.3981C1.79857 15.2358 0.790632 15.1855 0.237079 14.2945C-0.206948 13.5803 -0.00787651 12.4222 0.672224 11.9582C1.58396 11.3358 2.55268 11.9471 2.74657 12.995C2.76581 13.1023 2.75841 13.2155 2.76359 13.3265Z" fill="#F3C004"/>
<path d="M13.6911 2.3111C13.6763 1.76643 13.8088 1.37864 14.0796 1.03896C14.6746 0.292999 15.7314 0.361082 16.2072 1.19437C16.5351 1.76791 16.5247 2.38141 16.2605 2.97344C15.9985 3.55956 15.411 3.89109 14.8729 3.80451C14.2853 3.70978 13.808 3.19101 13.7081 2.53163C13.6918 2.42359 13.6911 2.31184 13.6911 2.3111Z" fill="#B7082E"/>
<path d="M10.1056 15.5408C9.50391 15.5127 8.89633 15.4772 8.39088 15.0139C8.19403 14.8334 8.12077 14.6321 8.05416 14.4056C7.59681 12.8545 8.46637 11.6896 10.0856 11.6808C10.3698 11.6793 10.6517 11.6941 10.93 11.7518C11.0425 11.7755 11.1268 11.8058 11.1475 11.9538C11.2008 12.3357 11.152 12.3927 10.7753 12.3224C10.7146 12.3113 10.6547 12.2972 10.594 12.2898C9.59715 12.1611 9.03398 12.6576 9.04138 13.6582C9.04804 14.6113 9.46617 15.0028 10.409 14.9355C10.5311 14.9266 10.6532 14.8866 10.7738 14.8903C10.8945 14.894 11.0839 14.6957 11.1276 14.9473C11.1638 15.156 11.2349 15.4209 10.8597 15.4705C10.6155 15.5031 10.372 15.5268 10.1056 15.5408Z" fill="#0D4E7D"/>
</svg>
