<svg width="30" height="30" viewBox="0 0 30 30" fill="none" xmlns="http://www.w3.org/2000/svg">
<path fill-rule="evenodd" clip-rule="evenodd" d="M12.2449 19.0951L12.2452 19.4794L12.2449 20.5563C12.2434 21.1668 12.342 21.758 12.5875 22.3104C13.3775 24.0862 14.9574 24.9841 16.7695 24.6974C18.4612 24.4306 19.8868 22.7226 19.9544 20.8898C19.9767 20.2906 19.973 19.6909 19.9692 19.0911C19.9679 18.8716 19.9666 18.6522 19.9666 18.4327C19.9666 18.2685 20.0064 18.2035 20.1604 18.1602C21.1546 17.8808 21.8285 16.8621 21.7426 15.7886C21.6477 14.6068 20.749 13.7044 19.64 13.6776C18.6028 13.6531 17.655 14.5156 17.51 15.6159C17.3538 16.7988 18.015 17.8706 19.0922 18.1693C19.2102 18.2029 19.2558 18.2468 19.2547 18.3837C19.2518 18.7223 19.2526 19.0603 19.2531 19.399C19.2539 19.8055 19.2547 20.2119 19.2494 20.6178C19.2243 22.4917 17.9119 23.9261 16.1719 23.991C14.6231 24.0492 13.189 22.7682 13.0058 21.1195C12.9311 20.4468 12.9414 19.7701 12.952 19.0928C12.9576 18.72 12.9634 18.3472 12.9549 17.9749C12.9531 17.8917 12.9878 17.8523 13.0623 17.8386C13.9582 17.6733 14.6321 17.1141 15.231 16.4214C15.332 16.3051 15.42 16.1797 15.4174 16.0132C15.4155 15.9026 15.4587 15.8205 15.5142 15.7362C16.0343 14.9443 16.4206 14.0823 16.6706 13.1514C16.915 12.2432 17.0253 11.3231 16.8551 10.383C16.7554 9.83233 16.5065 9.38709 16.0375 9.10717C15.6525 8.878 15.2286 8.77424 14.8063 8.66593C14.6647 8.62887 14.5449 8.58269 14.4425 8.44815C14.2601 8.20814 13.9396 8.19446 13.7103 8.38259C13.4823 8.56958 13.4231 8.9219 13.5753 9.18471C13.728 9.44752 14.0223 9.53987 14.2827 9.40305C14.346 9.36998 14.4025 9.34376 14.4783 9.36371C14.8328 9.45778 15.1894 9.5393 15.5293 9.68866C15.8495 9.82891 16.055 10.0729 16.1435 10.4315C16.1857 10.6025 16.2069 10.777 16.2135 10.9531C16.2769 12.5722 15.7506 13.9894 14.924 15.3029C14.8914 15.3548 14.8577 15.3953 14.7938 15.4078C14.6369 15.438 14.5239 15.5452 14.4221 15.6689C14.2174 15.9192 13.9889 16.1415 13.7304 16.3256C13.2437 16.6717 12.7227 16.8438 12.1381 16.6637C11.592 16.4955 11.1704 16.1272 10.7934 15.69C10.6935 15.5743 10.5943 15.458 10.4453 15.4255C10.3554 15.4049 10.3082 15.3468 10.2589 15.2727C9.77985 14.5481 9.43705 13.7534 9.2064 12.9023C8.99775 12.1332 8.91397 11.3505 9.0346 10.5535C9.09955 10.1248 9.32146 9.83119 9.70403 9.67213C10.0344 9.53417 10.379 9.45778 10.72 9.36314C10.7953 9.34262 10.8517 9.36884 10.9156 9.40305C11.1757 9.54215 11.4673 9.45151 11.6251 9.1887C11.7754 8.93843 11.7349 8.61576 11.5278 8.41338C11.3181 8.20757 10.9806 8.18363 10.7939 8.41395C10.6449 8.59866 10.4633 8.63799 10.2714 8.69215C10.0707 8.74859 9.86867 8.80047 9.67115 8.86831C9.12978 9.05473 8.6743 9.35573 8.45902 9.96231C8.22837 10.6128 8.21299 11.2872 8.29597 11.9639C8.46644 13.3521 8.94472 14.6131 9.69687 15.755L9.721 15.7892C9.75042 15.8291 9.78144 15.8718 9.77906 15.91C9.75917 16.2088 9.92965 16.3883 10.0985 16.5674L10.1539 16.6261C10.7054 17.2235 11.33 17.6876 12.1203 17.8347C12.2428 17.8569 12.2468 17.9344 12.246 18.037C12.2447 18.3894 12.2449 18.7422 12.2449 19.0951ZM21.0234 15.9517C21.0316 16.7954 20.4048 17.4806 19.6206 17.4846C18.8404 17.4886 18.1996 16.8039 18.1993 15.9659C18.1988 15.1324 18.8435 14.4369 19.6169 14.4375C20.3855 14.4375 21.0151 15.1153 21.0234 15.9517Z" fill="#0696D6"/>
<path d="M19.8916 0.75H3V25.9614C3 26.8336 3.34646 27.67 3.96316 28.2867C4.57987 28.9034 5.4163 29.2499 6.28845 29.2499H23.8268C24.699 29.2499 25.5354 28.9034 26.1521 28.2867C26.7688 27.67 27.1153 26.8336 27.1153 25.9614V7.97362L19.8916 0.75ZM19.4422 3.39172L24.4736 8.42304H20.5384C20.2477 8.42304 19.9689 8.30755 19.7633 8.10199C19.5577 7.89642 19.4422 7.61761 19.4422 7.32689V3.39172ZM23.8268 27.0576H6.28845C5.99773 27.0576 5.71892 26.9421 5.51335 26.7365C5.30778 26.5309 5.1923 26.2521 5.1923 25.9614V2.9423H17.2499V7.32689C17.2499 8.19904 17.5964 9.03547 18.2131 9.65217C18.8298 10.2689 19.6662 10.6153 20.5384 10.6153H24.923V25.9614C24.923 26.2521 24.8075 26.5309 24.6019 26.7365C24.3964 26.9421 24.1175 27.0576 23.8268 27.0576Z" fill="#7C878E"/>
</svg>
