<svg width="30" height="30" viewBox="0 0 30 30" fill="none" xmlns="http://www.w3.org/2000/svg">
<path opacity="0.1" d="M20.1592 18.7246C19.3669 18.7246 18.7239 19.3676 18.7239 20.16V21.1168C18.7239 20.3245 19.3669 19.6815 20.1592 19.6815H27.3359L28.2928 18.7246H20.1592Z" fill="white"/>
<path opacity="0.5" d="M3.41379 1.5C3.41379 1.5 1.5 1.5 1.5 3.41379V4.37069C1.5 2.4569 3.41379 2.4569 3.41379 2.4569H26.3793C26.3793 2.4569 28.2931 2.4569 28.2931 4.37069V3.41379C28.2931 1.5 26.3793 1.5 26.3793 1.5H3.41379Z" fill="white"/>
<path fill-rule="evenodd" clip-rule="evenodd" d="M1.5 4.37082C1.5 2.45703 3.41379 2.45703 3.41379 2.45703H26.3793C26.3793 2.45703 28.2931 2.45703 28.2931 4.37082V19.6812L18.7241 29.2501H3.41379C3.41379 29.2501 1.5 29.2501 1.5 27.3363V4.37082ZM9.00686 10.4724L9.0069 10.4724L9.00694 10.4724C9.19811 10.4594 9.42474 10.4441 9.67327 10.4365C10.1497 10.4219 10.7066 10.4359 11.2508 10.5518C11.7949 10.6678 12.3625 10.9 12.8009 11.3748C13.2393 11.8495 13.493 12.5461 13.493 13.3752C13.493 14.1731 13.316 14.8257 12.964 15.3109C12.8901 15.4127 12.7919 15.4592 12.6923 15.5064C12.6268 15.5374 12.5608 15.5687 12.5007 15.6161C12.5031 15.6181 12.5057 15.6189 12.5083 15.6197C12.5108 15.6205 12.5134 15.6213 12.5158 15.6232C13.0673 16.0629 13.493 16.7987 13.493 17.6968C13.493 18.5572 13.1565 19.2861 12.6419 19.745C12.1273 20.2039 11.496 20.4139 10.878 20.5244C9.92637 20.6944 8.92327 20.6343 8.31131 20.5977H8.3113L8.31117 20.5977C8.12831 20.5867 7.98039 20.5778 7.87921 20.5778V19.1373C8.07122 19.1373 8.2984 19.1479 8.54661 19.1595C9.18439 19.1894 9.96106 19.2257 10.6368 19.105C11.1061 19.0211 11.4916 18.8633 11.7222 18.6576C11.9529 18.452 12.0896 18.2199 12.0896 17.6968C12.0896 17.2114 11.9372 16.9862 11.6551 16.7613C11.373 16.5364 10.9284 16.3714 10.4874 16.2872C10.2982 16.2511 10.1579 16.2477 10.0109 16.2441C9.96274 16.2429 9.91391 16.2417 9.86241 16.2394C9.75521 16.2307 9.58644 16.2406 9.45221 16.2485C9.38136 16.2526 9.32014 16.2562 9.28266 16.2562C9.19699 16.2562 9.13866 16.2562 9.04555 16.2436C9.03594 16.2423 9.02736 16.2428 9.01795 16.2434C8.98178 16.2455 8.93323 16.2484 8.76596 16.1521C8.73961 16.137 8.70969 16.1162 8.67413 16.0874C8.63858 16.0587 8.55514 15.9654 8.5549 15.965L8.4384 15.74L8.40962 15.4305L8.49185 15.1716L8.60149 15.0183C8.60181 15.018 8.66687 14.9567 8.69332 14.9367C8.71977 14.9167 8.74205 14.9019 8.76185 14.8903C8.88917 14.8155 8.93233 14.8106 8.96637 14.8067C8.97467 14.8058 8.98243 14.8049 8.99073 14.8031C9.03308 14.7938 9.06621 14.7878 9.10038 14.7834C9.1687 14.7744 9.23937 14.7692 9.32241 14.7651C9.40225 14.7611 9.52248 14.7737 9.64721 14.7867L9.64722 14.7868C9.74065 14.7965 9.8366 14.8065 9.91997 14.8101C10.0002 14.8142 10.0814 14.8192 10.1625 14.8241L10.1627 14.8241L10.1628 14.8241C10.575 14.8492 10.987 14.8743 11.2837 14.796C11.5443 14.7273 11.7087 14.6292 11.8387 14.45C11.9688 14.2707 12.0896 13.9608 12.0896 13.3752C12.0896 12.8208 11.9578 12.5549 11.7826 12.3651C11.6073 12.1754 11.3335 12.0412 10.9657 11.9628C10.4473 11.8523 9.81558 11.8836 9.24784 11.9117C9.00996 11.9235 8.78331 11.9347 8.58094 11.9347V10.4941C8.68611 10.4941 8.83157 10.4843 9.00686 10.4724ZM16.2999 11.2144L18.3982 10.4941H19.8085V19.1373H21.9137V20.5778H16.2999V19.1373H18.412L18.4051 11.9347L16.2999 12.6549V11.2144ZM6.76316 6.285C7.55588 6.285 8.19851 5.64237 8.19851 4.84965C8.19851 4.05693 7.55588 3.41431 6.76316 3.41431C5.97045 3.41431 5.32782 4.05693 5.32782 4.84965C5.32782 5.64237 5.97045 6.285 6.76316 6.285ZM24.4658 4.84965C24.4658 5.64237 23.8232 6.285 23.0304 6.285C22.2377 6.285 21.5951 5.64237 21.5951 4.84965C21.5951 4.05693 22.2377 3.41431 23.0304 3.41431C23.8232 3.41431 24.4658 4.05693 24.4658 4.84965Z" fill="#DDDDDD"/>
<path fill-rule="evenodd" clip-rule="evenodd" d="M1.5 3.41379C1.5 1.5 3.41379 1.5 3.41379 1.5H26.3793C26.3793 1.5 28.2931 1.5 28.2931 3.41379V18.7241L18.7241 28.2931H3.41379C3.41379 28.2931 1.5 28.2931 1.5 26.3793V3.41379ZM8.19851 4.84925C8.19851 5.64197 7.55588 6.2846 6.76316 6.2846C5.97045 6.2846 5.32782 5.64197 5.32782 4.84925C5.32782 4.05654 5.97045 3.41391 6.76316 3.41391C7.55588 3.41391 8.19851 4.05654 8.19851 4.84925ZM9.0069 10.472C9.19807 10.459 9.42472 10.4437 9.67327 10.4361C10.1497 10.4215 10.7066 10.4355 11.2508 10.5514C11.7949 10.6674 12.3625 10.8996 12.8009 11.3744C13.2393 11.8491 13.493 12.5457 13.493 13.3748C13.493 14.1727 13.316 14.8253 12.964 15.3105C12.8901 15.4123 12.7919 15.4588 12.6923 15.506C12.6268 15.537 12.5608 15.5683 12.5007 15.6158C12.5031 15.6177 12.5057 15.6185 12.5083 15.6193C12.5108 15.6201 12.5134 15.6209 12.5158 15.6228C13.0673 16.0625 13.493 16.7983 13.493 17.6964C13.493 18.5568 13.1565 19.2857 12.6419 19.7446C12.1273 20.2035 11.496 20.4135 10.878 20.524C9.92637 20.694 8.92327 20.6339 8.31131 20.5973H8.3113L8.31117 20.5973C8.12831 20.5863 7.98039 20.5774 7.87921 20.5774V19.1369C8.07122 19.1369 8.2984 19.1475 8.54661 19.1592C9.1844 19.189 9.96106 19.2253 10.6368 19.1046C11.1061 19.0207 11.4916 18.8629 11.7222 18.6572C11.9529 18.4516 12.0896 18.2195 12.0896 17.6964C12.0896 17.211 11.9372 16.9858 11.6551 16.7609C11.373 16.536 10.9284 16.371 10.4874 16.2868C10.2982 16.2507 10.1579 16.2473 10.0109 16.2437H10.0109C9.96274 16.2425 9.91391 16.2413 9.86241 16.239C9.75521 16.2303 9.58644 16.2402 9.45221 16.2481C9.38136 16.2523 9.32014 16.2558 9.28266 16.2558C9.19699 16.2558 9.13866 16.2558 9.04555 16.2432C9.03594 16.2419 9.02736 16.2424 9.01795 16.243C8.98178 16.2451 8.93323 16.248 8.76596 16.1517C8.73961 16.1366 8.70969 16.1158 8.67413 16.087C8.63858 16.0583 8.55514 15.965 8.5549 15.9646L8.4384 15.7396L8.40962 15.4301L8.49185 15.1712L8.60149 15.0179C8.60181 15.0176 8.66687 14.9563 8.69332 14.9363C8.71977 14.9163 8.74205 14.9015 8.76185 14.8899C8.88917 14.8151 8.93233 14.8102 8.96637 14.8063C8.97467 14.8054 8.98243 14.8045 8.99073 14.8027C9.03308 14.7934 9.06621 14.7874 9.10038 14.783C9.1687 14.774 9.23937 14.7688 9.32241 14.7647C9.40225 14.7608 9.52248 14.7733 9.6472 14.7864L9.64722 14.7864C9.74065 14.7961 9.8366 14.8061 9.91997 14.8097C10.0002 14.8138 10.0814 14.8188 10.1625 14.8237L10.1627 14.8237L10.1628 14.8237C10.575 14.8488 10.987 14.8739 11.2837 14.7956C11.5443 14.7269 11.7087 14.6288 11.8387 14.4496C11.9688 14.2703 12.0896 13.9604 12.0896 13.3748C12.0896 12.8204 11.9578 12.5545 11.7826 12.3647C11.6073 12.175 11.3335 12.0408 10.9657 11.9624C10.4473 11.8519 9.81558 11.8832 9.24784 11.9113C9.00996 11.9231 8.78331 11.9343 8.58094 11.9343V10.4937C8.68611 10.4937 8.83156 10.4839 9.00684 10.472H9.00686L9.0069 10.472ZM16.2999 11.214L18.3982 10.4937H19.8085V19.1369H21.9137V20.5774H16.2999V19.1369H18.412L18.4051 11.9343L16.2999 12.6545V11.214ZM23.0304 6.2846C23.8232 6.2846 24.4658 5.64197 24.4658 4.84925C24.4658 4.05654 23.8232 3.41391 23.0304 3.41391C22.2377 3.41391 21.5951 4.05654 21.5951 4.84925C21.5951 5.64197 22.2377 6.2846 23.0304 6.2846Z" fill="#C9C8C8"/>
<path opacity="0.2" d="M28.2928 18.7246H20.1592C19.3665 18.7246 18.7239 19.3672 18.7239 20.16V28.2936L28.2928 18.7246Z" fill="black"/>
<path d="M28.2928 18.7246H20.1592C19.3669 18.7246 18.7239 19.3676 18.7239 20.16V28.2936L28.2928 18.7246Z" fill="#DDDDDD"/>
</svg>
