<svg width="40" height="40" viewBox="0 0 40 40" fill="none" xmlns="http://www.w3.org/2000/svg">
<path d="M31.3726 23.9101L30.3322 23.6885V21.0344H26.1703V23.6885L25.1299 23.9101L26.1703 30.4786L30.3322 30.4787L31.3726 23.9101Z" fill="#F2C8B4"/>
<path d="M26.1699 21.0518V22.4137L30.3317 23.6885V21.0518H26.1699Z" fill="#F6CCB8"/>
<path d="M38.8378 34.9604C38.7541 34.4238 38.6509 32.9405 38.5155 32.4099L35.8853 33.5794C35.9068 33.7122 35.9309 34.8057 35.9558 34.9604H38.8378Z" fill="#F2C8B4"/>
<path d="M20.5465 34.9609C20.5715 34.8069 20.5955 33.7142 20.6175 33.5819L17.9872 32.4104C17.8509 32.941 17.7476 34.4243 17.6641 34.9609H20.5465Z" fill="#F2C8B4"/>
<path d="M20.8834 34.9611H35.6187L35.6058 34.2675L39.0339 32.3597L37.8909 27.2539C37.6628 26.2354 36.894 25.4243 35.8892 25.142L30.7859 23.7085L28.2513 29.2229L25.7166 23.7085L20.6132 25.142C19.6084 25.4242 18.8397 26.2353 18.6117 27.2539L17.4685 32.3597L20.8967 34.2675L20.8834 34.9611Z" fill="#0696D6"/>
<path d="M25.5852 21.7328C26.4319 21.7259 28.4974 21.8986 30.3041 21.7328C31.5567 21.6177 32.8319 21.1537 33.5614 20.2085C38.2275 14.164 31.7393 5.38355 25.0589 5.56905C20.0946 5.70693 18.8495 21.7874 25.5852 21.7328Z" fill="#F2DCB4"/>
<path d="M33.0184 13.996V11.8319C33.0184 9.53334 30.3575 6.62964 28.2512 6.62964C26.1449 6.62964 23.484 9.53334 23.484 11.8319V13.996C22.8989 13.996 22.4246 14.462 22.4246 15.0365V16.1186C22.4246 16.6932 22.8989 17.159 23.484 17.159C23.484 19.4575 26.1449 22.4445 28.2512 22.4445C30.3575 22.4445 33.0184 19.4576 33.0184 17.159C33.6035 17.159 34.0778 16.6931 34.0778 16.1186V15.0365C34.0776 14.462 33.6035 13.996 33.0184 13.996Z" fill="#F6CCB8"/>
<path opacity="0.8" d="M28.2509 18.5949V22.4445C30.3572 22.4445 33.0181 19.4576 33.0181 17.159C33.6032 17.159 34.0774 16.6931 34.0774 16.1186V15.0365C34.0774 14.4619 33.6032 13.996 33.0181 13.996V11.8319C33.0181 9.53334 30.3572 6.62964 28.2509 6.62964V15.0573C27.4781 16.6715 27.1914 18.3868 27.1914 18.3868L28.2509 18.5949Z" fill="#F6CCB8"/>
<path d="M25.9692 10.2197C25.1452 11.8906 23.8113 14.2255 22.777 14.2566C21.363 11.4087 22.7635 5.02396 27.9729 4.77892C35.6484 4.41782 35.389 13.1708 34.8583 15.1746C28.3265 13.4767 26.4894 10.948 25.9692 10.2197Z" fill="#F2DCB4"/>
<path d="M32.9999 17.098C32.9122 17.8618 32.7808 18.3618 32.6916 18.6368C32.1312 17.8075 31.8582 16.9716 31.7719 16.6718L32.7877 14.6827C32.8145 14.6363 32.7985 14.5769 32.752 14.5501C32.7057 14.5235 32.6461 14.5394 32.6193 14.586L31.6144 16.5558H28.2488H24.883L23.5603 13.9992C23.5336 13.9527 23.4739 13.9367 23.4277 13.9633C23.3811 13.9901 23.3651 14.0494 23.3918 14.0959L24.7256 16.6717C24.6393 16.9716 24.3663 17.8075 23.8058 18.6366C23.7165 18.3618 23.5853 17.8617 23.4974 17.0979C23.4619 17.1018 23.4272 17.1087 23.3906 17.1087C23.3603 17.1087 23.3317 17.1024 23.302 17.0998C23.4491 18.3994 23.717 18.9589 23.7285 18.9823L23.7364 18.9785C24.4499 20.7736 26.4043 22.0445 28.2488 22.0445C30.0933 22.0445 32.0475 20.7736 32.7612 18.9785L32.7689 18.9823C32.7805 18.9589 33.0484 18.3994 33.1954 17.0998C33.1657 17.1024 33.1372 17.1087 33.107 17.1087C33.0704 17.1088 33.0355 17.1019 32.9999 17.098Z" fill="#EBEBEB"/>
<path d="M16.7257 22.7415H11.0017V25.0416H16.7257V22.7415Z" fill="#D9D9D9"/>
<path d="M17.1399 23.5185L16.3618 23.1598V20.686H11.3676V23.1598L10.5862 23.4969L10.7943 30.5124H11.3676V31.588H16.3618V30.5124H16.9318L17.1399 23.5185Z" fill="#F6CCB8"/>
<path d="M11.3667 20.686V21.8901L16.3609 22.9977V20.686H11.3667Z" fill="#F6CCB8"/>
<path d="M20.2614 35.66C20.3564 31.9737 20.1525 24.6679 17.136 23.5347L16.9504 24.2317C16.6294 25.1517 15.806 26.448 13.8512 26.448C11.6459 26.448 10.8045 24.7407 10.5434 23.9109L10.4433 23.5348C7.42685 24.6682 7.33783 31.9738 7.49184 35.6601H20.2614V35.66Z" fill="white"/>
<path d="M26.7276 35.6601L25.5857 27.7101C25.362 26.1536 24.1989 24.8976 22.6641 24.5553L16.7314 23.2322L14.1301 35.6601H26.7276Z" fill="#EBEBEB"/>
<path d="M13.5967 35.6605L10.9961 23.2327L5.06345 24.5557C3.52869 24.8979 2.36561 26.1539 2.14194 27.7105L1 35.6605H13.5967Z" fill="#EBEBEB"/>
<path d="M9.98383 27.1891L9.05643 28.4567L13.155 35.6602H13.5952L11.0014 22.7417L8.71069 23.8225L8.79204 26.2088L9.98383 27.1891Z" fill="#D9D9D9"/>
<path d="M14.5705 35.6602L18.6693 28.4567L17.7419 27.1891L18.9336 26.2088L19.015 23.8225L16.7244 22.7417L14.1304 35.6602H14.5705Z" fill="#D9D9D9"/>
<path d="M21.2431 31.8111H20.6611V31.229H19.9334V31.8111H19.3513V32.5388H19.9334V33.1207H20.6611V32.5388H21.2431V31.8111Z" fill="#0696D6"/>
<path d="M22.189 33.6523H18.4055V34.409H22.189V33.6523Z" fill="#0696D6"/>
<path d="M19.3119 13.6394L19.4809 11.4418C19.4809 8.568 16.7341 6.2395 13.8626 6.2395C10.9888 6.2395 8.24415 8.568 8.24415 11.4418L8.41307 13.6372C8.25238 13.676 8.10728 13.7497 7.9862 13.8535C7.76142 14.0449 7.61987 14.3279 7.61987 14.6464V15.7284C7.61987 16.3005 8.08057 16.7647 8.65387 16.7682C8.65387 19.4819 11.9146 22.0543 13.8627 22.0543C15.8107 22.0543 19.0714 19.4822 19.0714 16.7686C19.6426 16.7644 20.1045 16.301 20.1045 15.7289V14.6468C20.1043 14.1581 19.7661 13.7511 19.3119 13.6394Z" fill="#F6CCB8"/>
<path opacity="0.8" d="M19.3119 13.6392L19.4809 11.4415C19.4809 8.56776 16.7341 6.23926 13.8626 6.23926C13.8622 6.23926 13.8619 6.23926 13.8617 6.23926V13.6265C13.1027 15.2407 12.613 17.5802 12.613 17.5802H13.8617V22.0542C13.8617 22.0542 13.862 22.0542 13.8623 22.0542C13.8626 22.0542 13.8629 22.0542 13.8633 22.0542C15.8114 22.0536 19.0713 19.4817 19.0713 16.7684C19.6425 16.7643 20.1044 16.3008 20.1044 15.7288V14.6467C20.1043 14.1578 19.7661 13.7509 19.3119 13.6392Z" fill="#F6CCB8"/>
<path d="M20.307 6.39163C20.2849 6.21314 20.1227 6.08628 19.944 6.10698C18.6861 6.25298 18.6117 5.98168 16.4191 4.69074C14.4279 3.51853 12.3907 3.9859 11.033 4.99497C5.6404 6.23962 7.63095 12.7301 8.27537 14.4798C8.31097 14.5767 8.45341 14.5533 8.45819 14.4502C8.51283 13.2721 8.80438 10.1841 10.3543 9.09558C13.5888 11.3011 16.894 11.4211 18.7757 10.1094C19.2928 11.3159 19.3212 13.2427 19.2948 14.2508C19.292 14.3606 19.4474 14.3864 19.4794 14.2813C19.803 13.2216 20.3275 11.0057 19.832 8.98097C20.2484 8.27602 20.4323 7.40348 20.307 6.39163Z" fill="#4F3C30"/>
<path d="M10.0898 16.3003C9.99747 16.6214 9.70514 17.5166 9.10491 18.4043C9.00943 18.11 8.86878 17.5745 8.77463 16.7565C8.73658 16.7608 8.69941 16.7681 8.66024 16.7681C8.62774 16.7681 8.59726 16.7613 8.56543 16.7585C8.72289 18.1502 9.00965 18.7493 9.02212 18.7743L9.03057 18.7703C9.79472 20.6926 11.8874 22.0535 13.8625 22.0535C15.8377 22.0535 17.9303 20.6927 18.6946 18.7703L18.7028 18.7743C18.7151 18.7492 19.002 18.1502 19.1595 16.7585C19.1278 16.7613 19.097 16.7681 19.0647 16.7681C19.0254 16.7681 18.9882 16.7608 18.9502 16.7565C18.8561 17.5745 18.7156 18.1099 18.62 18.4043C18.0198 17.5165 17.7274 16.6213 17.6351 16.3003" fill="#EBEBEB"/>
<path d="M19.6326 12.7989H18.5173C18.1649 12.6142 17.6716 12.4963 16.9811 12.4963C15.8329 12.4963 15.0536 12.7164 14.6536 13.1461C14.4645 13.042 14.1822 12.9238 13.8628 12.9238C13.5463 12.9238 13.2663 13.0398 13.077 13.1432C12.6762 12.7154 11.8979 12.4963 10.7523 12.4963C10.0618 12.4963 9.56855 12.6142 9.21602 12.7989H8.09277V13.6023L8.46144 13.7316C8.42371 13.8823 8.40836 14.035 8.40836 14.1823C8.40836 15.1807 8.65139 16.5078 10.7522 16.5078C12.6286 16.5078 13.1209 15.3533 13.3549 14.2243C13.3904 14.053 13.3943 13.8899 13.3706 13.7368C13.4621 13.6783 13.6131 13.627 13.8627 13.627C14.1187 13.627 14.2714 13.6809 14.3621 13.7412C14.3392 13.8931 14.3432 14.0547 14.3783 14.2243C14.6124 15.3534 15.1045 16.5078 16.981 16.5078C19.0819 16.5078 19.3249 15.1807 19.3249 14.1823C19.3249 14.0342 19.3092 13.8806 19.271 13.7291L19.6325 13.6023V12.7989H19.6326ZM12.9516 14.1405C12.7084 15.314 12.2415 16.0956 10.7524 16.0956C9.05478 16.0956 8.82076 15.176 8.82076 14.1823C8.82076 13.8672 8.82076 12.9085 10.7524 12.9085C12.0853 12.9085 12.6106 13.2102 12.8165 13.4632C12.9622 13.6422 13.0077 13.87 12.9516 14.1405ZM16.9813 16.0956C15.4922 16.0956 15.0253 15.314 14.7819 14.1405C14.726 13.8701 14.7714 13.6422 14.9171 13.4633C15.1231 13.2103 15.6484 12.9086 16.9813 12.9086C18.9129 12.9086 18.9129 13.8673 18.9129 14.1824C18.9129 15.176 18.6788 16.0956 16.9813 16.0956Z" fill="#42404D"/>
</svg>
