<svg width="30" height="30" viewBox="0 0 30 30" fill="none" xmlns="http://www.w3.org/2000/svg">
<path d="M23.5093 17.9204L22.7297 17.7544V15.7656H19.6112V17.7544L18.8315 17.9204L19.6112 22.8423L22.7297 22.8424L23.5093 17.9204Z" fill="#E0E0E0"/>
<path d="M19.6111 15.7793V16.7998L22.7296 17.755V15.7793H19.6111Z" fill="#C9C8C8"/>
<path d="M29.103 26.2002C29.0403 25.7981 28.9629 24.6866 28.8615 24.2891L26.8906 25.1654C26.9068 25.2649 26.9248 26.0843 26.9435 26.2002H29.103Z" fill="#E0E0E0"/>
<path d="M15.3969 26.2002C15.4157 26.0848 15.4336 25.2661 15.4501 25.1669L13.4792 24.2891C13.3771 24.6866 13.2997 25.7981 13.2371 26.2002H15.3969Z" fill="#F2C8B4"/>
<path d="M15.6497 26.1993H26.691L26.6814 25.6796L29.2501 24.2501L28.3936 20.4242C28.2227 19.661 27.6467 19.0533 26.8937 18.8417L23.0697 17.7676L21.1705 21.8996L19.2712 17.7676L15.4472 18.8417C14.6943 19.0532 14.1183 19.6609 13.9474 20.4242L13.0908 24.2501L15.6596 25.6796L15.6497 26.1993Z" fill="#7C878E"/>
<path d="M19.1727 16.2877C19.8072 16.2826 21.3549 16.412 22.7086 16.2877C23.6473 16.2015 24.6027 15.8538 25.1494 15.1456C28.6458 10.6163 23.7841 4.037 18.7784 4.17599C15.0585 4.27931 14.1255 16.3287 19.1727 16.2877Z" fill="#C9C8C8"/>
<path d="M24.7423 10.4924V8.8708C24.7423 7.14844 22.7485 4.97266 21.1702 4.97266C19.5919 4.97266 17.5981 7.14844 17.5981 8.8708V10.4924C17.1597 10.4924 16.8042 10.8415 16.8042 11.272V12.0829C16.8042 12.5135 17.1597 12.8625 17.5981 12.8625C17.5981 14.5848 19.5919 16.823 21.1702 16.823C22.7485 16.823 24.7423 14.5848 24.7423 12.8625C25.1807 12.8625 25.5361 12.5134 25.5361 12.0829V11.272C25.536 10.8415 25.1807 10.4924 24.7423 10.4924Z" fill="#E0E0E0"/>
<path opacity="0.8" d="M21.1701 13.9364V16.821C22.7484 16.821 24.7422 14.5829 24.7422 12.8605C25.1806 12.8605 25.536 12.5114 25.536 12.0809V11.2701C25.536 10.8395 25.1806 10.4905 24.7422 10.4905V8.86884C24.7422 7.14649 22.7484 4.9707 21.1701 4.9707V11.2857C20.591 12.4952 20.3762 13.7805 20.3762 13.7805L21.1701 13.9364Z" fill="#E0E0E0"/>
<path d="M19.4598 7.66113C18.8423 8.91321 17.8428 10.6627 17.0678 10.6861C16.0083 8.55208 17.0577 3.76792 20.9611 3.58431C26.7125 3.31373 26.5182 9.87244 26.1205 11.3739C21.2261 10.1017 19.8496 8.20687 19.4598 7.66113Z" fill="#C9C8C8"/>
<path d="M24.7287 12.8155C24.663 13.3879 24.5645 13.7625 24.4977 13.9686C24.0777 13.3472 23.8732 12.7208 23.8085 12.4962L24.5697 11.0057C24.5898 10.971 24.5778 10.9264 24.5429 10.9063C24.5082 10.8864 24.4636 10.8983 24.4435 10.9333L23.6905 12.4093H21.1686H18.6466L17.6554 10.4936C17.6354 10.4587 17.5907 10.4467 17.5561 10.4667C17.5212 10.4867 17.5092 10.5312 17.5292 10.566L18.5286 12.4961C18.464 12.7208 18.2594 13.3472 17.8394 13.9685C17.7725 13.7625 17.6742 13.3878 17.6083 12.8155C17.5817 12.8184 17.5557 12.8235 17.5283 12.8235C17.5056 12.8235 17.4842 12.8189 17.4619 12.8169C17.5721 13.7907 17.7728 14.21 17.7815 14.2275L17.7874 14.2246C18.3221 15.5698 19.7865 16.5221 21.1686 16.5221C22.5508 16.5221 24.015 15.5698 24.5499 14.2246L24.5556 14.2275C24.5643 14.21 24.7651 13.7907 24.8752 12.8169C24.853 12.8189 24.8316 12.8235 24.8089 12.8235C24.7815 12.8236 24.7554 12.8185 24.7287 12.8155Z" fill="white"/>
<path d="M12.5332 17.043H8.24414V18.7665H12.5332V17.043Z" fill="#D9D9D9"/>
<path d="M12.8439 17.6263L12.2608 17.3575V15.5039H8.51862V17.3575L7.93311 17.6102L8.08903 22.8669H8.51862V23.6729H12.2608V22.8669H12.688L12.8439 17.6263Z" fill="#E0E0E0"/>
<path d="M8.51709 15.502V16.4042L12.2593 17.2341V15.502H8.51709Z" fill="#C9C8C8"/>
<path d="M15.1832 26.7224C15.2544 23.9602 15.1016 18.4859 12.8413 17.6367L12.7022 18.159C12.4616 18.8484 11.8447 19.8198 10.3799 19.8198C8.72743 19.8198 8.09697 18.5404 7.90136 17.9186L7.82631 17.6368C5.56606 18.4861 5.49936 23.9603 5.61476 26.7225H15.1832V26.7224Z" fill="#7C878E"/>
<path d="M20.0284 26.7226L19.1727 20.7656C19.0051 19.5992 18.1336 18.6581 16.9835 18.4016L12.538 17.4102L10.5889 26.7226H20.0284Z" fill="white"/>
<path d="M10.1889 26.7245L8.24026 17.4121L3.7948 18.4034C2.64479 18.6599 1.77327 19.6011 1.60567 20.7674L0.75 26.7245H10.1889Z" fill="white"/>
<path d="M7.48181 20.3754L6.7869 21.3253L9.85805 26.723H10.1878L8.24426 17.043L6.52783 17.8529L6.58878 19.6409L7.48181 20.3754Z" fill="#F2F2F2"/>
<path d="M10.9199 26.7211L13.9912 21.3234L13.2963 20.3735L14.1892 19.639L14.2503 17.8509L12.5338 17.041L10.5901 26.7211H10.9199Z" fill="#F2F2F2"/>
<path d="M15.9192 23.8366H15.4831V23.4004H14.9379V23.8366H14.5017V24.3818H14.9379V24.8179H15.4831V24.3818H15.9192V23.8366Z" fill="#7C878E"/>
<path d="M16.6277 25.2168H13.7927V25.7838H16.6277V25.2168Z" fill="#7C878E"/>
<path d="M14.472 10.2245L14.5986 8.57783C14.5986 6.42447 12.5404 4.67969 10.3887 4.67969C8.23535 4.67969 6.17872 6.42447 6.17872 8.57783L6.30529 10.2229C6.18489 10.252 6.07616 10.3072 5.98544 10.385C5.817 10.5284 5.71094 10.7404 5.71094 10.9791V11.7899C5.71094 12.2186 6.05614 12.5664 6.48573 12.569C6.48573 14.6024 8.92901 16.5299 10.3888 16.5299C11.8485 16.5299 14.2918 14.6026 14.2918 12.5693C14.7198 12.5662 15.0659 12.2189 15.0659 11.7902V10.9794C15.0657 10.6132 14.8123 10.3083 14.472 10.2245Z" fill="#E0E0E0"/>
<path opacity="0.8" d="M14.4722 10.2226L14.5988 8.57587C14.5988 6.42252 12.5406 4.67773 10.3889 4.67773C10.3887 4.67773 10.3884 4.67773 10.3883 4.67773V10.2131C9.81952 11.4226 9.45264 13.1757 9.45264 13.1757H10.3883V16.5281C10.3883 16.5281 10.3885 16.5281 10.3887 16.5281C10.3889 16.5281 10.3892 16.5281 10.3894 16.5281C11.8492 16.5277 14.2919 14.6005 14.2919 12.5674C14.7199 12.5643 15.066 12.217 15.066 11.7884V10.9775C15.066 10.6112 14.8126 10.3063 14.4722 10.2226Z" fill="#E0E0E0"/>
<path d="M15.2168 4.79208C15.2002 4.65834 15.0787 4.56328 14.9448 4.57879C14.0022 4.68819 13.9464 4.4849 12.3035 3.51758C10.8115 2.63923 9.28493 2.98944 8.26758 3.74555C4.22685 4.67818 5.7184 9.54156 6.20127 10.8527C6.22796 10.9253 6.33468 10.9078 6.33827 10.8305C6.37921 9.94772 6.59767 7.63385 7.75903 6.8182C10.1827 8.47084 12.6593 8.56073 14.0693 7.5779C14.4568 8.48193 14.4781 9.9257 14.4583 10.6811C14.4562 10.7634 14.5726 10.7827 14.5967 10.7039C14.8391 9.90986 15.2321 8.24946 14.8608 6.73232C15.1728 6.20409 15.3107 5.55028 15.2168 4.79208Z" fill="#7C878E"/>
<path d="M7.56169 12.2168C7.49249 12.4574 7.27344 13.1282 6.82367 13.7934C6.75213 13.5728 6.64674 13.1716 6.57619 12.5587C6.54768 12.5618 6.51983 12.5673 6.49047 12.5673C6.46613 12.5673 6.44328 12.5623 6.41943 12.5602C6.53742 13.6029 6.7523 14.0519 6.76164 14.0706L6.76797 14.0676C7.34056 15.508 8.90865 16.5278 10.3886 16.5278C11.8687 16.5278 13.4367 15.5081 14.0093 14.0676L14.0155 14.0706C14.0248 14.0518 14.2397 13.6029 14.3577 12.5602C14.3339 12.5623 14.3109 12.5673 14.2867 12.5673C14.2572 12.5673 14.2294 12.5618 14.2009 12.5587C14.1304 13.1716 14.0251 13.5728 13.9535 13.7934C13.5037 13.1281 13.2847 12.4574 13.2155 12.2168" fill="white"/>
<path d="M14.7121 9.5939H13.8765C13.6124 9.45549 13.2428 9.36719 12.7254 9.36719C11.8649 9.36719 11.281 9.53212 10.9813 9.85406C10.8396 9.7761 10.628 9.68746 10.3887 9.68746C10.1516 9.68746 9.94181 9.77443 9.79998 9.85189C9.49963 9.53137 8.91645 9.36719 8.05803 9.36719C7.54064 9.36719 7.17101 9.45549 6.90685 9.5939H6.06519V10.1959L6.34143 10.2928C6.31316 10.4057 6.30166 10.5201 6.30166 10.6305C6.30166 11.3786 6.48377 12.373 8.05795 12.373C9.46395 12.373 9.83283 11.508 10.0082 10.662C10.0348 10.5336 10.0377 10.4114 10.0199 10.2967C10.0885 10.2529 10.2016 10.2144 10.3887 10.2144C10.5805 10.2144 10.6949 10.2548 10.7629 10.3C10.7457 10.4138 10.7487 10.5349 10.7751 10.662C10.9504 11.508 11.3192 12.373 12.7253 12.373C14.2995 12.373 14.4816 11.3786 14.4816 10.6305C14.4816 10.5195 14.4698 10.4045 14.4412 10.2909L14.712 10.1959V9.5939H14.7121ZM9.70601 10.5992C9.52373 11.4785 9.17386 12.0642 8.05811 12.0642C6.78603 12.0642 6.61067 11.3751 6.61067 10.6305C6.61067 10.3944 6.61067 9.67604 8.05811 9.67604C9.05687 9.67604 9.45044 9.90209 9.60478 10.0917C9.71393 10.2258 9.74803 10.3965 9.70601 10.5992ZM12.7255 12.0642C11.6097 12.0642 11.2598 11.4785 11.0775 10.5992C11.0355 10.3965 11.0696 10.2258 11.1788 10.0918C11.3331 9.90217 11.7267 9.67612 12.7255 9.67612C14.1729 9.67612 14.1729 10.3945 14.1729 10.6306C14.1729 11.3751 13.9975 12.0642 12.7255 12.0642Z" fill="#7C878E"/>
</svg>
