<svg width="16" height="16" viewBox="0 0 16 16" fill="none" xmlns="http://www.w3.org/2000/svg">
<path d="M1.43288 5.87152L12.0036 2.06405C12.207 1.99077 12.4318 2.09118 12.5132 2.29142L15.3083 9.17874C15.5345 9.7362 15.2539 10.3702 14.6892 10.5777L4.50518 14.3193C3.86698 14.5537 3.15535 14.2621 2.86524 13.6472L0.443559 8.51398C0.331952 8.27742 0.442195 7.99571 0.684715 7.89781L1.63341 7.51469L1.19452 6.39755C1.11162 6.18639 1.21942 5.94839 1.43288 5.87152Z" fill="#B5E0F3"/>
<path d="M12.6663 1.48888L12.6663 1.48887C12.6053 1.3384 12.4362 1.26296 12.2834 1.31798L12.6663 1.48888ZM12.6663 1.48888L15.4615 8.3762C15.6664 8.88128 15.4123 9.45573 14.9007 9.64365L14.9328 9.73103L14.9007 9.64365L4.71655 13.3852L4.75103 13.479L4.71654 13.3852C4.12695 13.6018 3.46954 13.3324 3.20153 12.7644L0.779849 7.63117L0.779844 7.63116C0.692761 7.44663 0.778791 7.22677 0.967997 7.15039L0.968011 7.15039L1.9167 6.76727L2.00855 6.73017L1.97233 6.63798L1.53345 5.52077C1.53345 5.52077 1.53344 5.52077 1.53344 5.52076C1.47116 5.36215 1.55214 5.18331 1.71261 5.12546C1.71262 5.12546 1.71263 5.12545 1.71263 5.12545L12.2834 1.31799L12.6663 1.48888Z" fill="#FFFCFF" stroke="#C9C8C8" stroke-width="0.2"/>
<path d="M1.87929 6.67473L0.930596 7.05785C0.688076 7.15575 0.577761 7.43753 0.689439 7.67402L3.11113 12.8072C3.21957 13.037 3.38702 13.2216 3.58741 13.3506C4.62445 13.1633 4.01941 11.6863 4.01941 11.6863L1.87929 6.67473Z" fill="#D1CDD3"/>
<path d="M6.66875 6.77295L3.23438 8.15744L4.61886 11.5918L8.05324 10.2073L6.66875 6.77295Z" fill="#6FA7DB"/>
<path d="M7.56059 8.98613L4.12622 10.3706L4.61866 11.5922L8.05303 10.2077L7.56059 8.98613Z" fill="#ABDE91"/>
<path d="M4.71729 9.68897L7.17837 8.03697L7.56071 8.98523L4.87074 10.0697L4.71729 9.68897Z" fill="#2B5434"/>
<path d="M5.61512 9.76965L3.81958 9.60852L4.12648 10.3699L5.61512 9.76965Z" fill="#62A953"/>
<path d="M4.68206 9.13262C4.93417 9.13262 5.13854 8.92825 5.13854 8.67614C5.13854 8.42404 4.93417 8.21967 4.68206 8.21967C4.42996 8.21967 4.22559 8.42404 4.22559 8.67614C4.22559 8.92825 4.42996 9.13262 4.68206 9.13262Z" fill="#FFC66D"/>
<path d="M9.57198 5.60256L7.03003 6.62729L7.14134 6.90342L9.68329 5.87869L9.57198 5.60256Z" fill="#0696D6"/>
<path d="M9.82564 6.23198L7.28369 7.25671L7.39501 7.53284L9.93695 6.50811L9.82564 6.23198Z" fill="#0696D6"/>
<path d="M10.0795 6.86118L7.5376 7.88591L7.64889 8.16197L10.1908 7.13724L10.0795 6.86118Z" fill="#0696D6"/>
<path d="M10.3332 7.49106L7.79126 8.51578L7.90258 8.79191L10.4445 7.76719L10.3332 7.49106Z" fill="#0696D6"/>
<path d="M10.586 8.11756L8.04395 9.1423L8.15526 9.41843L10.6973 8.39368L10.586 8.11756Z" fill="#0696D6"/>
<path d="M10.8396 8.74718L8.29761 9.77194L8.40892 10.0481L10.9509 9.02331L10.8396 8.74718Z" fill="#0696D6"/>
<path d="M12.7954 4.30304L10.2534 5.32779L10.3647 5.60392L12.9067 4.57917L12.7954 4.30304Z" fill="#0696D6"/>
<path d="M13.049 4.9327L10.5071 5.95743L10.6184 6.23356L13.1603 5.20883L13.049 4.9327Z" fill="#0696D6"/>
<path d="M13.3029 5.56235L10.761 6.58707L10.8723 6.8632L13.4142 5.83848L13.3029 5.56235Z" fill="#0696D6"/>
<path d="M13.5566 6.19132L11.0146 7.21603L11.126 7.49216L13.6679 6.46745L13.5566 6.19132Z" fill="#0696D6"/>
<path d="M13.8093 6.8183L11.2673 7.84302L11.3787 8.11915L13.9206 7.09443L13.8093 6.8183Z" fill="#0696D6"/>
<path d="M14.0629 7.4477L11.521 8.47243L11.6323 8.74856L14.1743 7.72383L14.0629 7.4477Z" fill="#0696D6"/>
<path d="M11.3131 9.92295L8.77124 10.9476L8.88256 11.2238L11.4244 10.1991L11.3131 9.92295Z" fill="#0696D6"/>
<path d="M7.51778 11.4527L4.97583 12.4774L5.08715 12.7535L7.62909 11.7288L7.51778 11.4527Z" fill="#0696D6"/>
<path d="M12.4651 3.48406L2.9043 7.33829L3.01561 7.61442L12.5764 3.76019L12.4651 3.48406Z" fill="#0696D6"/>
<path d="M14.5371 8.62319L11.9951 9.64792L12.1064 9.92405L14.6484 8.89932L14.5371 8.62319Z" fill="#0696D6"/>
<path d="M2.59538 10.2396L3.28296 9.96244L3.16604 9.68863L2.48413 9.96359L2.59538 10.2396Z" fill="#1B2746"/>
<path d="M2.84814 10.8662L3.5485 10.5839L3.43151 10.31L2.73682 10.5901L2.84814 10.8662Z" fill="#1B2746"/>
<path d="M2.34179 9.61024L3.01652 9.33822L2.89961 9.06433L2.23047 9.33413L2.34179 9.61024Z" fill="#1B2746"/>
<path d="M1.83415 8.35133L2.48333 8.08958L2.36634 7.81577L1.7229 8.07522L1.83415 8.35133Z" fill="#1B2746"/>
<path d="M3.69809 10.9344L2.99048 11.2197L3.1018 11.4957L3.815 11.2082L3.69809 10.9344Z" fill="#1B2746"/>
<path d="M2.08788 8.98068L2.74984 8.71383L2.63292 8.44002L1.97656 8.70464L2.08788 8.98068Z" fill="#1B2746"/>
</svg>
