<svg width="30" height="30" viewBox="0 0 30 30" fill="none" xmlns="http://www.w3.org/2000/svg">
<path d="M8.47247 26.0982L8.43799 26.0043L27.5954 18.9661L27.6299 19.06L27.5954 18.9661C28.6046 18.5954 29.1059 17.4623 28.7016 16.4661L23.4437 3.51028C23.311 3.18337 22.9438 3.01952 22.6118 3.13905L8.47247 26.0982ZM8.47247 26.0982L8.43799 26.0043C7.28607 26.4275 6.00163 25.9012 5.47802 24.7914L0.922563 15.1353L0.922558 15.1353C0.737138 14.7424 0.920304 14.2743 1.3232 14.1116L1.32321 14.1116L3.1078 13.3909L3.19965 13.3538L3.16343 13.2616L2.33784 11.1601C2.33783 11.16 2.33783 11.16 2.33783 11.16C2.20251 10.8154 2.37848 10.427 2.72702 10.3013C2.72703 10.3013 2.72704 10.3013 2.72704 10.3013L22.6118 3.13905L8.47247 26.0982Z" fill="#F2F2F2" stroke="#C9C8C8" stroke-width="0.2"/>
<path d="M3.07042 13.2988L1.28582 14.0195C0.829615 14.2037 0.622101 14.7337 0.83218 15.1786L5.38763 24.8347C5.59164 25.267 5.90662 25.6142 6.28357 25.8569C8.23437 25.5045 7.09621 22.7261 7.09621 22.7261L3.07042 13.2988Z" fill="#D1CDD3"/>
<path d="M12.0805 13.4816L5.62012 16.0859L8.22449 22.5464L14.6849 19.942L12.0805 13.4816Z" fill="#C9C8C8"/>
<path d="M13.7588 17.6456L7.29834 20.25L8.22467 22.5479L14.6851 19.9435L13.7588 17.6456Z" fill="#C9C8C8"/>
<path d="M8.40942 18.9689L13.039 15.8613L13.7582 17.6451L8.69808 19.6851L8.40942 18.9689Z" fill="#7C878E"/>
<path d="M10.0986 19.1195L6.72095 18.8164L7.29826 20.2486L10.0986 19.1195Z" fill="#BDBDBD"/>
<path d="M8.34354 17.9224C8.81778 17.9224 9.20222 17.538 9.20222 17.0638C9.20222 16.5895 8.81778 16.2051 8.34354 16.2051C7.86931 16.2051 7.48486 16.5895 7.48486 17.0638C7.48486 17.538 7.86931 17.9224 8.34354 17.9224Z" fill="#7C878E"/>
<path d="M17.541 11.2814L12.7593 13.209L12.9687 13.7284L17.7503 11.8008L17.541 11.2814Z" fill="#7C878E"/>
<path d="M18.0178 12.465L13.2361 14.3926L13.4455 14.912L18.2272 12.9844L18.0178 12.465Z" fill="#7C878E"/>
<path d="M18.4963 13.6485L13.7146 15.5762L13.9239 16.0955L18.7056 14.1678L18.4963 13.6485Z" fill="#7C878E"/>
<path d="M18.9731 14.8341L14.1914 16.7617L14.4008 17.2811L19.1825 15.3535L18.9731 14.8341Z" fill="#7C878E"/>
<path d="M19.4488 16.0118L14.667 17.9395L14.8764 18.4589L19.6582 16.5312L19.4488 16.0118Z" fill="#7C878E"/>
<path d="M19.9261 17.1973L15.1443 19.125L15.3537 19.6444L20.1355 17.7167L19.9261 17.1973Z" fill="#7C878E"/>
<path d="M23.6046 8.83796L18.8228 10.7656L19.0322 11.2851L23.814 9.35739L23.6046 8.83796Z" fill="#7C878E"/>
<path d="M24.0827 10.0216L19.301 11.9492L19.5104 12.4686L24.2921 10.541L24.0827 10.0216Z" fill="#7C878E"/>
<path d="M24.5594 11.2052L19.7778 13.1328L19.9872 13.6522L24.7688 11.7246L24.5594 11.2052Z" fill="#7C878E"/>
<path d="M25.0371 12.3888L20.2554 14.3164L20.4648 14.8358L25.2465 12.9082L25.0371 12.3888Z" fill="#7C878E"/>
<path d="M25.5122 13.5685L20.7305 15.4961L20.9399 16.0155L25.7216 14.0879L25.5122 13.5685Z" fill="#7C878E"/>
<path d="M25.9897 14.7521L21.208 16.6797L21.4174 17.1991L26.1991 15.2715L25.9897 14.7521Z" fill="#7C878E"/>
<path d="M20.817 19.4084L16.0354 21.3359L16.2448 21.8554L21.0264 19.9278L20.817 19.4084Z" fill="#7C878E"/>
<path d="M13.6774 22.2872L8.89575 24.2148L9.10515 24.7343L13.8868 22.8066L13.6774 22.2872Z" fill="#7C878E"/>
<path d="M22.9837 7.29665L4.99878 14.5469L5.20817 15.0663L23.1931 7.81608L22.9837 7.29665Z" fill="#7C878E"/>
<path d="M26.881 16.9649L22.0994 18.8926L22.3088 19.412L27.0904 17.4844L26.881 16.9649Z" fill="#7C878E"/>
<path d="M4.41777 20.0033L5.71118 19.4819L5.49125 18.9668L4.2085 19.484L4.41777 20.0033Z" fill="#1B2746"/>
<path d="M4.89275 21.1829L6.21021 20.6518L5.99013 20.1367L4.68335 20.6635L4.89275 21.1829Z" fill="#1B2746"/>
<path d="M3.94109 18.8199L5.21035 18.3082L4.99041 17.793L3.73169 18.3005L3.94109 18.8199Z" fill="#1B2746"/>
<path d="M2.98564 16.4508L4.20682 15.9584L3.98675 15.4434L2.77637 15.9314L2.98564 16.4508Z" fill="#1B2746"/>
<path d="M6.49198 21.3105L5.16089 21.8472L5.37029 22.3665L6.71191 21.8256L6.49198 21.3105Z" fill="#1B2746"/>
<path d="M3.46355 17.6342L4.70877 17.1323L4.48884 16.6172L3.25415 17.115L3.46355 17.6342Z" fill="#1B2746"/>
</svg>
