<svg width="30" height="30" viewBox="0 0 30 30" fill="none" xmlns="http://www.w3.org/2000/svg">
<path d="M17.0561 15.1445H13.9108V18.125C13.9108 18.3928 13.6979 18.6057 13.4301 18.6057C13.1623 18.6057 12.9494 18.3928 12.9494 18.125V15.1445H2.25V21.8471C2.25 24.0927 3.24577 26.098 4.82527 27.4577C6.1232 28.5771 7.81258 29.2501 9.65303 29.2501C11.6377 29.2501 13.437 28.4672 14.7692 27.1968C16.177 25.8508 17.0561 23.9485 17.0561 21.8402V15.1445ZM13.7735 21.5243C13.6842 21.6136 13.5606 21.6617 13.4301 21.6617C13.3958 21.6617 13.3683 21.6617 13.3339 21.6548C13.3065 21.6479 13.2721 21.6411 13.2447 21.6273C13.2172 21.6136 13.1897 21.5999 13.1623 21.5793C13.1348 21.5587 13.1142 21.5449 13.0867 21.5175C12.9974 21.4282 12.9494 21.3046 12.9494 21.1741C12.9494 21.0505 13.0043 20.9269 13.0867 20.8376C13.1073 20.817 13.1348 20.7964 13.1623 20.7758C13.1897 20.7552 13.2172 20.7414 13.2447 20.7346C13.2721 20.7208 13.3065 20.714 13.3339 20.7071C13.4919 20.6728 13.6567 20.7277 13.7666 20.8376C13.8559 20.9269 13.9039 21.0505 13.9039 21.1741C13.9108 21.3114 13.8627 21.435 13.7735 21.5243Z" fill="#C9C8C8"/>
<path d="M19.8652 14.5137C19.2265 14.5137 18.6084 14.5961 18.0179 14.7472V21.848C18.0179 24.1211 17.1251 26.2363 15.5044 27.8227C16.7268 28.7223 18.2307 29.2511 19.8652 29.2511C21.7262 29.2511 23.4293 28.5575 24.7273 27.4175C24.7135 27.4106 24.6998 27.3969 24.6929 27.3831L19.8514 22.5416C19.666 22.3562 19.666 22.0472 19.8514 21.8618C20.0369 21.6763 20.3459 21.6763 20.5313 21.8618L25.3728 26.7033C25.3865 26.717 25.3934 26.7239 25.4071 26.7376C26.5471 25.4397 27.2407 23.7366 27.2407 21.8755C27.2339 17.81 23.9375 14.5137 19.8652 14.5137ZM19.3021 21.3192C19.2128 21.4085 19.0892 21.4635 18.9587 21.4635C18.9243 21.4635 18.8969 21.4566 18.8625 21.4566C18.8282 21.4497 18.8007 21.4429 18.7733 21.4291C18.7458 21.4154 18.7183 21.4017 18.6909 21.3879C18.6634 21.3673 18.6428 21.3536 18.6153 21.3261C18.526 21.2368 18.478 21.1132 18.478 20.9896C18.478 20.9553 18.478 20.9278 18.4848 20.8935C18.4917 20.8591 18.4986 20.8317 18.5123 20.8042C18.526 20.7767 18.5398 20.7493 18.5535 20.7218C18.5741 20.6943 18.5878 20.6737 18.6153 20.6462C18.7252 20.5364 18.8969 20.4814 19.048 20.5158C19.0823 20.5226 19.1098 20.5295 19.1372 20.5432C19.1647 20.557 19.1922 20.5707 19.2196 20.5913C19.2471 20.6119 19.2677 20.6256 19.2952 20.6531C19.3158 20.6737 19.3364 20.7012 19.357 20.7286C19.3776 20.7561 19.3913 20.7836 19.4051 20.8111C19.4188 20.8385 19.4257 20.8729 19.4325 20.9003C19.4394 20.9278 19.4394 20.9621 19.4394 20.9965C19.4394 21.0995 19.3913 21.23 19.3021 21.3192Z" fill="#C9C8C8"/>
<path d="M20.2016 14.5137C19.5629 14.5137 18.9449 14.5961 18.3543 14.7472V21.848C18.3543 24.1211 17.4615 26.2363 15.8408 27.8227C17.0632 28.7223 18.5672 29.2511 20.2016 29.2511C22.0627 29.2511 23.7658 28.5575 25.0637 27.4175C25.05 27.4106 25.0362 27.3969 25.0294 27.3831L20.1879 22.5416C20.0024 22.3562 20.0024 22.0472 20.1879 21.8618C20.3733 21.6763 20.6823 21.6763 20.8677 21.8618L25.7092 26.7033C25.723 26.717 25.7298 26.7239 25.7436 26.7376C26.8836 25.4397 27.5772 23.7366 27.5772 21.8755C27.5703 17.81 24.274 14.5137 20.2016 14.5137ZM19.6385 21.3192C19.5492 21.4085 19.4256 21.4635 19.2951 21.4635C19.2608 21.4635 19.2333 21.4566 19.199 21.4566C19.1646 21.4497 19.1372 21.4429 19.1097 21.4291C19.0822 21.4154 19.0548 21.4017 19.0273 21.3879C18.9998 21.3673 18.9792 21.3536 18.9517 21.3261C18.8625 21.2368 18.8144 21.1132 18.8144 20.9896C18.8144 20.9553 18.8144 20.9278 18.8213 20.8935C18.8281 20.8591 18.835 20.8317 18.8487 20.8042C18.8625 20.7767 18.8762 20.7493 18.8899 20.7218C18.9105 20.6943 18.9243 20.6737 18.9517 20.6462C19.0616 20.5364 19.2333 20.4814 19.3844 20.5158C19.4187 20.5226 19.4462 20.5295 19.4737 20.5432C19.5011 20.557 19.5286 20.5707 19.5561 20.5913C19.5835 20.6119 19.6041 20.6256 19.6316 20.6531C19.6522 20.6737 19.6728 20.7012 19.6934 20.7286C19.714 20.7561 19.7278 20.7836 19.7415 20.8111C19.7552 20.8385 19.7621 20.8729 19.769 20.9003C19.7758 20.9278 19.7758 20.9621 19.7758 20.9965C19.7758 21.0995 19.7278 21.23 19.6385 21.3192Z" fill="#C9C8C8"/>
<path d="M17.0561 8.15303C17.0561 6.10656 16.2251 4.25923 14.886 2.92009C13.5468 1.58095 11.6926 0.75 9.65303 0.75C8.27269 0.75 6.98162 1.12771 5.87598 1.78697C3.70588 3.07804 2.25 5.44729 2.25 8.1599V14.1963H17.0561V8.15303ZM7.42113 4.38284C6.09573 5.17259 5.27165 6.61474 5.27165 8.15303C5.27165 8.42086 5.05876 8.63375 4.79093 8.63375C4.5231 8.63375 4.31021 8.42086 4.31021 8.15303C4.31021 6.27824 5.31285 4.51332 6.92668 3.55189C7.15331 3.41454 7.44861 3.49008 7.58595 3.72357C7.7233 3.9502 7.64776 4.2455 7.42113 4.38284Z" fill="#C9C8C8"/>
</svg>
