<svg width="40" height="40" viewBox="0 0 40 40" fill="none" xmlns="http://www.w3.org/2000/svg">
<path d="M3.58243 14.6787L30.0092 5.16005C30.5177 4.97685 31.0798 5.22788 31.2831 5.72849L38.2709 22.9468C38.8365 24.3404 38.1351 25.9255 36.7233 26.4441L11.2632 35.7981C9.66769 36.3843 7.88862 35.6551 7.16336 34.1179L1.10914 21.2849C0.830124 20.6935 1.10573 19.9892 1.71203 19.7445L4.08376 18.7867L2.98654 15.9938C2.77929 15.4659 3.0488 14.8709 3.58243 14.6787Z" fill="#B5E0F3"/>
<path d="M1.81408 19.1419L1.81408 19.1419C1.55959 18.6027 1.81098 17.9601 2.36397 17.7369L2.36398 17.7369L4.73571 16.7791L4.82756 16.742L4.79134 16.6498L3.69412 13.8568C3.50748 13.3815 3.75018 12.8458 4.23084 12.6725L30.6577 3.15385C30.6577 3.15384 30.6577 3.15384 30.6577 3.15384C31.1156 2.989 31.6221 3.21496 31.805 3.6658L38.7928 20.8841C39.3371 22.2254 38.6622 23.7509 37.3036 24.2499L11.8432 33.6037L11.8777 33.6976L11.8432 33.6037C10.2963 34.1721 8.57146 33.4652 7.8683 31.9749L1.81408 19.1419Z" fill="#FFFCFF" stroke="#C9C8C8" stroke-width="0.2"/>
<path d="M4.69834 16.6868L2.32661 17.6446C1.72031 17.8893 1.44452 18.5938 1.72372 19.185L7.77794 32.018C8.04906 32.5925 8.46767 33.054 8.96865 33.3765C11.5613 32.9081 10.0486 29.2156 10.0486 29.2156L4.69834 16.6868Z" fill="#D1CDD3"/>
<path d="M16.6719 16.9323L8.08594 20.3936L11.5472 28.9795L20.1331 25.5183L16.6719 16.9323Z" fill="#6FA7DB"/>
<path d="M18.9016 22.4653L10.3157 25.9265L11.5468 28.9804L20.1327 25.5192L18.9016 22.4653Z" fill="#ABDE91"/>
<path d="M11.7932 24.2224L17.9459 20.0924L18.9018 22.4631L12.1768 25.1743L11.7932 24.2224Z" fill="#2B5434"/>
<path d="M14.0377 24.4242L9.54883 24.0214L10.3161 25.9248L14.0377 24.4242Z" fill="#62A953"/>
<path d="M11.7052 22.8316C12.3354 22.8316 12.8463 22.3206 12.8463 21.6904C12.8463 21.0601 12.3354 20.5492 11.7052 20.5492C11.0749 20.5492 10.564 21.0601 10.564 21.6904C10.564 22.3206 11.0749 22.8316 11.7052 22.8316Z" fill="#FFC66D"/>
<path d="M23.9298 14.0064L17.575 16.5682L17.8532 17.2586L24.2081 14.6967L23.9298 14.0064Z" fill="#0696D6"/>
<path d="M24.5639 15.5799L18.209 18.1417L18.4873 18.832L24.8421 16.2702L24.5639 15.5799Z" fill="#0696D6"/>
<path d="M25.1989 17.1529L18.844 19.7147L19.1222 20.4049L25.4771 17.8431L25.1989 17.1529Z" fill="#0696D6"/>
<path d="M25.8329 18.7276L19.478 21.2894L19.7563 21.9798L26.1112 19.418L25.8329 18.7276Z" fill="#0696D6"/>
<path d="M26.4649 20.2938L20.1099 22.8557L20.3882 23.546L26.7432 20.9842L26.4649 20.2938Z" fill="#0696D6"/>
<path d="M27.0994 21.8679L20.7444 24.4298L21.0227 25.1201L27.3777 22.5582L27.0994 21.8679Z" fill="#0696D6"/>
<path d="M31.9883 10.7576L25.6333 13.3195L25.9116 14.0098L32.2666 11.4479L31.9883 10.7576Z" fill="#0696D6"/>
<path d="M32.6227 12.3317L26.2678 14.8936L26.5461 15.5839L32.901 13.0221L32.6227 12.3317Z" fill="#0696D6"/>
<path d="M33.257 13.9059L26.9023 16.4677L27.1806 17.158L33.5353 14.5962L33.257 13.9059Z" fill="#0696D6"/>
<path d="M33.8917 15.4783L27.5369 18.04L27.8152 18.7304L34.17 16.1686L33.8917 15.4783Z" fill="#0696D6"/>
<path d="M34.5229 17.0458L28.168 19.6075L28.4463 20.2979L34.8011 17.7361L34.5229 17.0458Z" fill="#0696D6"/>
<path d="M35.1574 18.6192L28.8025 21.181L29.0808 21.8714L35.4356 19.3095L35.1574 18.6192Z" fill="#0696D6"/>
<path d="M28.2832 24.8074L21.9285 27.3691L22.2068 28.0595L28.5615 25.4977L28.2832 24.8074Z" fill="#0696D6"/>
<path d="M18.7948 28.6317L12.4399 31.1935L12.7182 31.8838L19.0731 29.322L18.7948 28.6317Z" fill="#0696D6"/>
<path d="M31.1628 8.71013L7.26074 18.3457L7.53903 19.036L31.441 9.40045L31.1628 8.71013Z" fill="#0696D6"/>
<path d="M36.3427 21.5579L29.9878 24.1198L30.2661 24.8101L36.621 22.2483L36.3427 21.5579Z" fill="#0696D6"/>
<path d="M6.48881 25.5991L8.20777 24.9061L7.91548 24.2216L6.21069 24.909L6.48881 25.5991Z" fill="#1B2746"/>
<path d="M7.12083 27.1656L8.87173 26.4597L8.57925 25.7751L6.84253 26.4753L7.12083 27.1656Z" fill="#1B2746"/>
<path d="M5.85496 24.0256L7.5418 23.3456L7.24951 22.6609L5.57666 23.3354L5.85496 24.0256Z" fill="#1B2746"/>
<path d="M4.58574 20.8784L6.2087 20.224L5.91623 19.5394L4.30762 20.1881L4.58574 20.8784Z" fill="#1B2746"/>
<path d="M9.24534 27.3359L7.47632 28.0492L7.75462 28.7393L9.53763 28.0205L9.24534 27.3359Z" fill="#1B2746"/>
<path d="M5.21995 22.4518L6.87485 21.7846L6.58256 21.1001L4.94165 21.7617L5.21995 22.4518Z" fill="#1B2746"/>
</svg>
