<svg width="40" height="40" viewBox="0 0 40 40" fill="none" xmlns="http://www.w3.org/2000/svg">
<path d="M22.356 19.8173H18.2442V23.7135C18.2442 24.0637 17.9659 24.342 17.6158 24.342C17.2657 24.342 16.9873 24.0637 16.9873 23.7135V19.8173H3.00024V28.5794C3.00024 31.5151 4.302 34.1365 6.36685 35.9141C8.06361 37.3775 10.2721 38.2573 12.6781 38.2573C15.2726 38.2573 17.6248 37.2338 19.3664 35.573C21.2068 33.8133 22.356 31.3265 22.356 28.5704V19.8173ZM18.0647 28.1575C17.948 28.2742 17.7864 28.337 17.6158 28.337C17.5709 28.337 17.535 28.337 17.4901 28.328C17.4542 28.3191 17.4093 28.3101 17.3734 28.2921C17.3375 28.2742 17.3016 28.2562 17.2657 28.2293C17.2297 28.2023 17.2028 28.1844 17.1669 28.1485C17.0502 28.0318 16.9873 27.8702 16.9873 27.6996C16.9873 27.538 17.0592 27.3764 17.1669 27.2597C17.1938 27.2328 17.2297 27.2058 17.2657 27.1789C17.3016 27.152 17.3375 27.134 17.3734 27.125C17.4093 27.1071 17.4542 27.0981 17.4901 27.0891C17.6966 27.0442 17.912 27.1161 18.0557 27.2597C18.1724 27.3764 18.2352 27.538 18.2352 27.6996C18.2442 27.8791 18.1814 28.0407 18.0647 28.1575Z" fill="#16ADE1"/>
<path d="M26.0277 18.991C25.1928 18.991 24.3848 19.0987 23.6127 19.2962V28.579C23.6127 31.5506 22.4456 34.3157 20.3269 36.3896C21.9249 37.5656 23.891 38.2569 26.0277 38.2569C28.4606 38.2569 30.6871 37.3502 32.3838 35.8599C32.3659 35.8509 32.3479 35.833 32.3389 35.815L26.0097 29.4858C25.7673 29.2434 25.7673 28.8394 26.0097 28.597C26.2521 28.3546 26.6561 28.3546 26.8985 28.597L33.2277 34.9262C33.2457 34.9442 33.2546 34.9531 33.2726 34.9711C34.7629 33.2743 35.6696 31.0479 35.6696 28.615C35.6606 23.3002 31.3514 18.991 26.0277 18.991ZM25.2915 27.8878C25.1748 28.0045 25.0132 28.0763 24.8426 28.0763C24.7977 28.0763 24.7618 28.0673 24.717 28.0673C24.6721 28.0583 24.6362 28.0494 24.6002 28.0314C24.5643 28.0135 24.5284 27.9955 24.4925 27.9775C24.4566 27.9506 24.4297 27.9327 24.3938 27.8968C24.277 27.78 24.2142 27.6184 24.2142 27.4568C24.2142 27.412 24.2142 27.376 24.2232 27.3312C24.2322 27.2863 24.2411 27.2504 24.2591 27.2145C24.277 27.1785 24.295 27.1426 24.313 27.1067C24.3399 27.0708 24.3578 27.0439 24.3938 27.008C24.5374 26.8643 24.7618 26.7925 24.9593 26.8374C25.0042 26.8464 25.0401 26.8553 25.0761 26.8733C25.112 26.8913 25.1479 26.9092 25.1838 26.9361C25.2197 26.9631 25.2466 26.981 25.2825 27.0169C25.3095 27.0439 25.3364 27.0798 25.3633 27.1157C25.3903 27.1516 25.4082 27.1875 25.4262 27.2234C25.4441 27.2593 25.4531 27.3042 25.4621 27.3401C25.4711 27.376 25.4711 27.4209 25.4711 27.4658C25.4711 27.6005 25.4082 27.7711 25.2915 27.8878Z" fill="#1B3954"/>
<path d="M26.4674 18.991C25.6325 18.991 24.8245 19.0987 24.0524 19.2962V28.579C24.0524 31.5506 22.8853 34.3157 20.7666 36.3896C22.3646 37.5656 24.3307 38.2569 26.4674 38.2569C28.9003 38.2569 31.1268 37.3502 32.8235 35.8599C32.8056 35.8509 32.7876 35.833 32.7786 35.815L26.4494 29.4858C26.207 29.2434 26.207 28.8394 26.4494 28.597C26.6918 28.3546 27.0958 28.3546 27.3382 28.597L33.6674 34.9262C33.6854 34.9442 33.6943 34.9531 33.7123 34.9711C35.2026 33.2743 36.1093 31.0479 36.1093 28.615C36.1003 23.3002 31.7911 18.991 26.4674 18.991ZM25.7312 27.8878C25.6145 28.0045 25.4529 28.0763 25.2823 28.0763C25.2374 28.0763 25.2015 28.0673 25.1566 28.0673C25.1118 28.0583 25.0759 28.0494 25.0399 28.0314C25.004 28.0135 24.9681 27.9955 24.9322 27.9775C24.8963 27.9506 24.8694 27.9327 24.8335 27.8968C24.7167 27.78 24.6539 27.6184 24.6539 27.4568C24.6539 27.412 24.6539 27.376 24.6629 27.3312C24.6719 27.2863 24.6808 27.2504 24.6988 27.2145C24.7167 27.1785 24.7347 27.1426 24.7527 27.1067C24.7796 27.0708 24.7975 27.0439 24.8335 27.008C24.9771 26.8643 25.2015 26.7925 25.399 26.8374C25.4439 26.8464 25.4798 26.8553 25.5158 26.8733C25.5517 26.8913 25.5876 26.9092 25.6235 26.9361C25.6594 26.9631 25.6863 26.981 25.7222 27.0169C25.7492 27.0439 25.7761 27.0798 25.803 27.1157C25.83 27.1516 25.8479 27.1875 25.8659 27.2234C25.8838 27.2593 25.8928 27.3042 25.9018 27.3401C25.9108 27.376 25.9108 27.4209 25.9108 27.4658C25.9108 27.6005 25.8479 27.7711 25.7312 27.8878Z" fill="#FFD400"/>
<path d="M22.3557 10.6779C22.3557 8.00253 21.2694 5.58755 19.5188 3.83692C17.7682 2.08629 15.3442 1 12.6779 1C10.8734 1 9.18557 1.49377 7.74018 2.35562C4.90325 4.04341 3 7.14068 3 10.6868V18.5781H22.3557V10.6779ZM9.76014 5.74915C8.02746 6.78158 6.95015 8.66687 6.95015 10.6779C6.95015 11.028 6.67184 11.3063 6.32171 11.3063C5.97159 11.3063 5.69328 11.028 5.69328 10.6779C5.69328 8.22697 7.00401 5.91973 9.11375 4.66286C9.41001 4.48331 9.79605 4.58206 9.9756 4.8873C10.1552 5.18356 10.0564 5.5696 9.76014 5.74915Z" fill="#1B3954"/>
</svg>
