<svg width="30" height="30" viewBox="0 0 30 30" fill="none" xmlns="http://www.w3.org/2000/svg">
<path d="M14.9812 8.64453H14.7063C14.7063 8.64453 14.4043 9.00888 14.6265 9.30462H14.9414C14.7733 9.05924 14.7609 8.89044 14.9812 8.64453Z" fill="#BD2A2E"/>
<path d="M16.3909 23.8759C16.602 22.1726 13.4987 22.3976 12.4381 21.787C12.1545 21.6237 11.9833 21.4298 11.9313 21.2246H10.1221C10.2028 23.7181 14.8322 22.6554 15.4268 23.8759C15.4727 23.97 15.4983 24.0668 15.5103 24.1651H16.3368C16.3601 24.0707 16.3788 23.9743 16.3909 23.8759Z" fill="#C9C8C8"/>
<path d="M16.3905 23.8759C16.6015 22.1726 13.4982 22.3976 12.4377 21.787C12.154 21.6237 11.9828 21.4298 11.9308 21.2246H11.4207C11.427 21.2486 11.4342 21.2726 11.4422 21.297C11.7074 22.0924 12.8064 22.3334 13.932 22.5503C15.0576 22.7672 16.3626 22.9941 16.0699 24.1411C16.0678 24.1492 16.0649 24.157 16.0629 24.1651H16.3363C16.3596 24.0707 16.3783 23.9743 16.3905 23.8759Z" fill="#7C878E"/>
<path d="M14.5271 9.64013C10.5755 9.01359 8.32514 8.14535 9.24947 5.46243C10.1384 2.88248 12.8208 4.06605 13.3512 4.33012C12.8592 4.88563 12.3747 5.79583 12.9095 6.87241C13.4484 7.95705 13.9441 8.8006 14.6985 8.8006C15.4529 8.8006 15.9487 7.95705 16.4875 6.87241C17.0264 5.78778 16.518 4.83572 16.0222 4.28146C16.0222 4.28146 15.4874 1.30907 11.5063 1.50972C7.20079 1.72665 4.97847 5.77177 7.03923 8.86903C8.69432 11.3564 17.0659 12.0505 19.8296 12.8861C20.9615 13.2283 21.6022 13.8565 21.7817 14.525H24.5505C24.3575 11.2002 18.1594 10.2161 14.5271 9.64013Z" fill="#C9C8C8"/>
<path d="M13.1184 6.86523C13.1184 6.86523 13.5642 6.88939 13.504 7.55216C13.504 7.55216 13.3233 7.43166 13.1184 6.86523Z" fill="white"/>
<path d="M15.6366 4.28146C14.9496 4.13681 14.4676 4.28146 14.4676 4.28146C15.5161 4.32968 16.1038 4.76353 16.0853 5.72758C16.0668 6.69172 15.5997 8.36684 14.7809 8.36684C13.9622 8.36684 13.1607 7.36209 12.9095 6.87241C13.4483 7.95705 13.9441 8.8006 14.6985 8.8006C15.4529 8.8006 15.9487 7.95705 16.4875 6.87241C17.0263 5.78778 16.518 4.83572 16.0222 4.28146C16.0222 4.28146 15.4874 1.30907 11.5063 1.50972C11.3931 1.51536 11.2818 1.52439 11.1716 1.53521C14.9649 1.44272 15.6366 4.28146 15.6366 4.28146Z" fill="#7C878E"/>
<path d="M16.2809 6.86523C16.2809 6.86523 15.835 6.88939 15.8952 7.55216C15.8953 7.55216 16.076 7.43166 16.2809 6.86523Z" fill="white"/>
<path d="M24.5399 14.3902C24.5392 14.3837 24.5381 14.3773 24.5374 14.3709C24.5323 14.3274 24.5262 14.2845 24.519 14.2419C24.5166 14.227 24.5137 14.2124 24.511 14.1977C24.5042 14.161 24.4966 14.1246 24.4883 14.0885C24.4854 14.0758 24.4827 14.0631 24.4796 14.0507C24.4679 14.0036 24.4552 13.9569 24.441 13.9108C24.4386 13.9028 24.4356 13.8951 24.4331 13.8872C24.4209 13.8486 24.4078 13.8105 24.3938 13.7727C24.3886 13.7587 24.3832 13.7448 24.3778 13.7309C24.3644 13.6967 24.3503 13.6628 24.3355 13.6292C24.3304 13.6178 24.3258 13.6064 24.3207 13.5951C24.3007 13.5516 24.2799 13.5084 24.2576 13.4659C24.253 13.4569 24.248 13.4481 24.2431 13.4392C24.2248 13.405 24.2058 13.371 24.186 13.3375C24.1782 13.3243 24.1703 13.3114 24.1623 13.2983C24.1428 13.2663 24.1226 13.2346 24.1017 13.2031C24.095 13.1931 24.0886 13.1829 24.0818 13.173C24.0545 13.1328 24.0261 13.0932 23.9967 13.0539C23.9893 13.0443 23.9817 13.0348 23.9743 13.0251C23.9511 12.9949 23.9273 12.9648 23.9027 12.9351C23.8924 12.9226 23.882 12.9101 23.8714 12.8977C23.8462 12.8679 23.8204 12.8386 23.794 12.8094C23.7858 12.8005 23.7781 12.7915 23.7698 12.7825C23.7357 12.7457 23.7008 12.7093 23.6648 12.6733C23.6548 12.6633 23.6443 12.6534 23.6342 12.6435C23.6068 12.6166 23.5789 12.5899 23.5505 12.5635C23.5376 12.5516 23.5248 12.5398 23.5118 12.5281C23.4813 12.5005 23.4503 12.4733 23.4188 12.4462C23.4096 12.4383 23.4006 12.4302 23.3913 12.4223C23.3514 12.3886 23.3107 12.3555 23.2691 12.3226C23.256 12.3122 23.2425 12.302 23.2292 12.2917C23.1988 12.2682 23.1681 12.2448 23.1369 12.2216C23.1214 12.2101 23.1057 12.1986 23.0901 12.1872C23.0554 12.1621 23.0203 12.1372 22.9846 12.1126C22.974 12.1053 22.9638 12.0978 22.953 12.0906C22.9082 12.06 22.8625 12.0298 22.8163 12.0001C22.8001 11.9896 22.7836 11.9793 22.7671 11.9689C22.7345 11.9484 22.7016 11.9279 22.6683 11.9076C22.6499 11.8964 22.6317 11.8852 22.6132 11.8742C22.5753 11.8516 22.5368 11.8292 22.4981 11.807C22.4855 11.7999 22.4734 11.7926 22.4607 11.7855C22.4124 11.7582 22.3633 11.7312 22.3138 11.7047C22.2936 11.6939 22.2733 11.6832 22.2529 11.6725C22.2197 11.6549 22.1861 11.6375 22.1523 11.6203C22.1308 11.6093 22.1094 11.5983 22.0875 11.5874C22.0474 11.5673 22.0068 11.5474 21.966 11.5277C21.9429 11.5166 21.9198 11.5055 21.8967 11.4945C21.8541 11.4742 21.8112 11.4543 21.768 11.4345C21.7439 11.4235 21.7196 11.4127 21.6954 11.4019C21.6622 11.387 21.6288 11.3723 21.5953 11.3577C21.5705 11.3469 21.5456 11.336 21.5207 11.3254C21.4804 11.3082 21.4398 11.2912 21.399 11.2743C21.3649 11.2602 21.3306 11.2462 21.2962 11.2323C21.2596 11.2174 21.2229 11.2027 21.1858 11.1882C21.1575 11.177 21.1289 11.166 21.1003 11.1551C21.0689 11.143 21.0374 11.1309 21.0057 11.119C20.9765 11.108 20.9474 11.097 20.9179 11.0861C20.8808 11.0724 20.8434 11.0589 20.8059 11.0454C20.76 11.0289 20.7139 11.0126 20.6676 10.9964C20.6365 10.9856 20.6056 10.9747 20.5743 10.9641C20.5413 10.9528 20.5081 10.9416 20.4749 10.9305C20.4465 10.921 20.418 10.9116 20.3895 10.9022C20.3555 10.891 20.3215 10.8798 20.2874 10.8687C20.2595 10.8597 20.2314 10.8509 20.2035 10.8421C20.1408 10.8222 20.0779 10.8026 20.0147 10.7833C19.9899 10.7758 19.9652 10.7682 19.9403 10.7607C19.9024 10.7492 19.8643 10.7379 19.8262 10.7268C19.8024 10.7197 19.7786 10.7128 19.7546 10.7058C19.7148 10.6943 19.675 10.6828 19.635 10.6714C19.6335 10.6709 19.6322 10.6706 19.6308 10.6701C19.5351 10.643 19.439 10.6165 19.3426 10.5905C19.3256 10.586 19.3087 10.5813 19.2918 10.5768C19.2476 10.565 19.2033 10.5533 19.1589 10.5417C19.1429 10.5375 19.1269 10.5334 19.1108 10.5292C18.962 10.4906 18.8126 10.4534 18.6629 10.4173C18.6531 10.415 18.6433 10.4126 18.6335 10.4103C18.5838 10.3984 18.5342 10.3866 18.4844 10.3749C18.4762 10.3731 18.468 10.3712 18.4599 10.3692C18.2987 10.3316 18.1373 10.2954 17.9761 10.2604C17.976 10.2604 17.9758 10.2604 17.9756 10.2604C16.7505 9.99476 15.5392 9.80235 14.5271 9.64187C10.5755 9.01533 8.32519 8.14709 9.24952 5.46417C9.58747 4.48322 10.1848 4.04668 10.8244 3.89648C10.1063 4.02369 9.2861 4.18981 8.83964 5.91001C8.34558 7.81413 8.92399 8.80234 11.3102 9.45303C13.6963 10.1038 15.1143 10.0432 18.3602 10.8549C18.5447 10.901 18.73 10.9473 18.915 10.994C21.5375 11.7286 23.7922 12.9369 23.9925 14.5266H24.5506C24.548 14.4805 24.5448 14.435 24.5399 14.3902Z" fill="#7C878E"/>
<path d="M8.95989 2.47461C8.95989 2.47461 5.52189 4.41389 7.03438 7.82532C8.5467 11.2367 14.2328 11.0309 16.7181 11.9468C16.7181 11.9468 15.1915 11.3029 11.684 10.5828C8.17654 9.86282 7.10953 7.59792 7.03438 6.13812C6.95924 4.67831 8.02106 3.15831 8.95989 2.47461Z" fill="white"/>
<path d="M21.2521 11.428L13.9327 11.1406L6.61326 11.428C6.61326 11.428 6.27674 16.697 11.0656 18.2107L11.0646 18.2109C11.0646 18.2109 13.1279 18.9966 13.1279 20.3762C13.1279 21.7558 13.1279 23.7485 13.1279 24.5149C13.1279 25.2814 8.87413 26.1629 8.87413 27.1208C8.87413 28.0789 10.8285 28.4237 13.9326 28.4237C17.0367 28.4237 18.9911 28.0789 18.9911 27.1208C18.9911 26.1629 14.7373 25.2814 14.7373 24.5149C14.7373 23.7486 14.7373 21.7558 14.7373 20.3762C14.7373 18.9966 16.8006 18.2109 16.8006 18.2109L16.7996 18.2107C21.5885 16.697 21.2521 11.428 21.2521 11.428Z" fill="#C9C8C8"/>
<path d="M11.7352 17.1057C10.2024 16.0582 9.28259 14.6019 8.97603 11.3574L7.03442 11.4276C7.03442 11.4276 7.23874 14.9086 8.97603 16.3137C10.7132 17.7189 13.4213 18.4469 13.4213 19.7819C13.4213 21.1167 13.4213 24.2591 13.4213 24.7701C13.4213 25.2811 11.122 26.4563 10.2279 26.865C9.64533 27.1313 9.43162 27.5492 9.35326 27.8083C9.74811 28.0381 10.3761 28.1954 11.1979 28.2933C11.1618 28.1232 11.1895 27.7938 11.6842 27.3505C12.4249 26.6862 13.779 25.3321 13.779 24.7701C13.779 24.2081 13.779 20.7464 13.779 19.7819C13.779 18.8174 13.268 18.1531 11.7352 17.1057Z" fill="#DDDDDD"/>
<path d="M21.252 11.428L13.9326 11.1406L6.61319 11.428C6.61319 11.428 6.5945 11.7228 6.62912 12.1926C7.64371 12.5305 9.96165 13.095 14.1243 13.095C20.0641 13.095 18.9145 15.2027 17.305 16.6206C15.6955 18.0385 14.2394 18.4218 14.2394 20.5294C14.2394 22.637 14.2394 23.9784 14.2394 24.7065C14.2394 25.4345 15.8104 26.3927 16.7303 26.9674C17.5222 27.4623 17.6318 27.7585 17.3046 28.1982C18.3821 27.9988 18.9912 27.6554 18.9912 27.1206C18.9912 26.1627 14.7374 25.2812 14.7374 24.5148C14.7374 23.7484 14.7374 21.7556 14.7374 20.376C14.7374 18.9964 16.8007 18.2107 16.8007 18.2107L16.7997 18.2106C21.5885 16.697 21.252 11.428 21.252 11.428Z" fill="#7C878E"/>
<path d="M19.7267 10.8898C18.279 10.7365 16.219 10.6406 13.9326 10.6406C11.6463 10.6406 9.58631 10.7364 8.13858 10.8898H6V11.4263C6 11.8602 9.55152 12.2119 13.9326 12.2119C18.3137 12.2119 21.8653 11.8602 21.8653 11.4263V10.8898H19.7267Z" fill="#C9C8C8"/>
<path d="M13.9334 11.6747C18.3144 11.6747 21.866 11.323 21.866 10.8891C21.866 10.4552 18.3144 10.1035 13.9334 10.1035C9.55229 10.1035 6.00073 10.4552 6.00073 10.8891C6.00073 11.323 9.55229 11.6747 13.9334 11.6747Z" fill="#7C878E"/>
<path d="M13.9329 11.4453C9.78924 11.4453 7.07457 11.1452 6.36475 10.8896C7.07466 10.6341 9.78924 10.334 13.9329 10.334C18.0767 10.334 20.7914 10.6341 21.5011 10.8896C20.7913 11.1452 18.0767 11.4453 13.9329 11.4453Z" fill="#C9C8C8"/>
<path d="M6.36475 10.89C6.84154 11.0617 8.22423 11.2533 10.3358 11.3607C10.7002 10.9814 11.3668 10.592 12.5745 10.3457C9.19776 10.4024 6.9937 10.6636 6.36475 10.89Z" fill="#7C878E"/>
<path d="M13.6509 26.8012C14.2952 26.8334 15.5376 26.1898 15.5376 26.1898L15.207 25.6719L13.6509 26.8012Z" fill="#3C3C3B"/>
<path d="M14.8002 19.9642C14.9137 19.5933 15.1692 19.2762 15.4618 19.0176H13.9325C13.9325 19.0176 13.2839 19.3576 12.8911 19.583C13.0356 19.8192 13.1278 20.083 13.1278 20.3735C13.1278 20.4013 13.1278 20.4295 13.1278 20.4576C13.446 20.3369 14.0995 20.107 14.8002 19.9642Z" fill="#3C3C3B"/>
<path d="M24.5504 14.5254H21.7815C22.0402 15.4891 21.3398 16.5371 19.7651 16.9356C17.2656 17.568 10.2776 18.6067 10.1246 21.0169C10.1201 21.0895 10.1197 21.1586 10.1219 21.2258H11.9312C11.7887 20.6638 12.548 20.0156 14.3983 19.6684C16.8749 19.2037 23.6215 18.8316 24.457 15.4573C24.5387 15.1276 24.5673 14.8176 24.5504 14.5254Z" fill="#C9C8C8"/>
<path d="M24.5529 14.5825C24.5524 14.5683 24.552 14.5541 24.5513 14.54C24.551 14.5351 24.5504 14.5303 24.5501 14.5254H23.992C24.0363 14.8767 23.9817 15.2465 23.8069 15.6341C22.6982 18.0926 16.7207 18.671 14.2864 19.2977C11.9264 19.9052 11.2202 20.4674 11.4207 21.2259H11.9309C11.7885 20.6639 12.5478 20.0157 14.3981 19.6685C16.8747 19.2038 23.6212 18.8317 24.4567 15.4574C24.471 15.4001 24.483 15.3435 24.4941 15.2875C24.4974 15.2708 24.5002 15.2544 24.5033 15.238C24.5109 15.1963 24.5176 15.1549 24.5236 15.1137C24.5258 15.098 24.5282 15.0822 24.5302 15.0666C24.5372 15.0122 24.5432 14.9581 24.5471 14.9048C24.5475 14.9007 24.5474 14.8968 24.5477 14.8927C24.5513 14.8431 24.5534 14.7942 24.5543 14.7456C24.5547 14.7301 24.5547 14.7146 24.5548 14.699C24.555 14.6598 24.5543 14.6209 24.5529 14.5825Z" fill="#7C878E"/>
<path d="M10.7678 20.8881C11.1126 19.6653 14.359 18.4297 14.359 18.4297C11.1336 19.4297 10.3929 20.303 10.4047 21.2256H10.7049C10.7138 21.1209 10.7337 21.0088 10.7678 20.8881Z" fill="white"/>
<path d="M10.7047 21.2246H10.4045C10.4048 21.2488 10.4053 21.2728 10.4066 21.297C10.4579 22.2463 11.4906 22.478 11.4906 22.478C11.4906 22.478 10.6237 22.1787 10.7047 21.2246Z" fill="white"/>
<path d="M15.5106 24.1641C15.6574 25.3755 13.427 26.8372 13.6508 26.7993C14.1875 26.7084 15.9577 25.7045 16.3371 24.1641H15.5106Z" fill="#C9C8C8"/>
<path d="M16.0638 24.1641C15.7655 25.2983 14.9336 26.1133 13.6509 26.7993C14.1876 26.7084 15.9577 25.7045 16.3372 24.1641H16.0638Z" fill="#7C878E"/>
<path d="M15.0549 9.45746C15.0116 9.40352 14.9741 9.35387 14.9417 9.30664H14.6269C14.6487 9.33571 14.6738 9.36443 14.7067 9.3918C15.0732 9.6972 14.8899 9.99043 14.7067 10.1004C14.5234 10.2103 14.499 10.589 14.6334 10.7357C14.7678 10.8823 14.7311 11.2392 14.7311 11.2392L14.8533 11.0411L14.9571 11.2392C14.9571 11.2392 15.0304 10.9128 14.8839 10.7601C14.7373 10.6074 14.7312 10.4302 14.89 10.2775C15.0487 10.1248 15.3236 9.79193 15.0549 9.45746Z" fill="#BD2A2E"/>
</svg>
