<svg width="40" height="40" viewBox="0 0 40 40" fill="none" xmlns="http://www.w3.org/2000/svg">
<path d="M20.1045 11.583H19.7342C19.7342 11.583 19.3275 12.0738 19.6268 12.4721H20.0509C19.8245 12.1416 19.8077 11.9142 20.1045 11.583Z" fill="#BD2A2E"/>
<path d="M22.0034 32.0984C22.2876 29.8041 18.1076 30.1071 16.679 29.2846C16.2969 29.0646 16.0663 28.8035 15.9963 28.5271H13.5593C13.6681 31.8859 19.9038 30.4544 20.7047 32.0984C20.7665 32.225 20.801 32.3555 20.8171 32.4878H21.9305C21.9618 32.3607 21.987 32.2309 22.0034 32.0984Z" fill="#0696D6"/>
<path d="M22.0031 32.0984C22.2873 29.8041 18.1073 30.1071 16.6787 29.2846C16.2966 29.0646 16.066 28.8035 15.996 28.5271H15.3088C15.3174 28.5594 15.327 28.5918 15.3379 28.6246C15.6951 29.696 17.1754 30.0206 18.6916 30.3128C20.2077 30.605 21.9656 30.9106 21.5712 32.4555C21.5685 32.4665 21.5646 32.477 21.5618 32.488H21.9302C21.9615 32.3607 21.9867 32.2309 22.0031 32.0984Z" fill="#24388A"/>
<path d="M19.4932 12.9217C14.1704 12.0777 11.1393 10.9082 12.3843 7.29437C13.5817 3.81922 17.1949 5.41347 17.9093 5.76916C17.2466 6.51743 16.594 7.74345 17.3143 9.19359C18.0402 10.6546 18.7079 11.7908 19.7241 11.7908C20.7403 11.7908 21.4081 10.6546 22.1338 9.19359C22.8597 7.73261 22.1749 6.45019 21.5071 5.70361C21.5071 5.70361 20.7867 1.69986 15.4242 1.97012C9.62477 2.26232 6.63135 7.71104 9.40716 11.883C11.6365 15.2335 22.9129 16.1684 26.6356 17.2939C28.1603 17.7549 29.0233 18.601 29.265 19.5016H32.9946C32.7346 15.0231 24.3858 13.6975 19.4932 12.9217Z" fill="#0696D6"/>
<path d="M17.5942 9.18604C17.5942 9.18604 18.1948 9.21857 18.1137 10.1113C18.1137 10.1113 17.8702 9.949 17.5942 9.18604Z" fill="white"/>
<path d="M20.9871 5.70362C20.0617 5.50878 19.4125 5.70362 19.4125 5.70362C20.8248 5.76856 21.6164 6.35296 21.5915 7.65152C21.5666 8.9502 20.9375 11.2066 19.8346 11.2066C18.7317 11.2066 17.6522 9.85317 17.3137 9.19359C18.0396 10.6546 18.7074 11.7908 19.7235 11.7908C20.7397 11.7908 21.4075 10.6546 22.1332 9.19359C22.8591 7.73261 22.1743 6.4502 21.5065 5.70362C21.5065 5.70362 20.7861 1.69986 15.4237 1.97012C15.2712 1.97771 15.1213 1.98988 14.9729 2.00446C20.0823 1.87987 20.9871 5.70362 20.9871 5.70362Z" fill="#24388A"/>
<path d="M21.8551 9.18604C21.8551 9.18604 21.2546 9.21857 21.3357 10.1113C21.3358 10.1113 21.5792 9.949 21.8551 9.18604Z" fill="white"/>
<path d="M32.9802 19.318C32.9792 19.3093 32.9778 19.3006 32.9768 19.2919C32.9699 19.2334 32.9616 19.1755 32.952 19.1182C32.9487 19.0982 32.9449 19.0784 32.9412 19.0587C32.9321 19.0093 32.9219 18.9602 32.9106 18.9115C32.9067 18.8946 32.9031 18.8774 32.8988 18.8607C32.8832 18.7972 32.8661 18.7343 32.8469 18.6722C32.8437 18.6615 32.8397 18.651 32.8363 18.6404C32.8198 18.5885 32.8022 18.5372 32.7833 18.4862C32.7763 18.4674 32.7691 18.4486 32.7617 18.4299C32.7438 18.3839 32.7247 18.3382 32.7048 18.2929C32.698 18.2776 32.6917 18.2622 32.6848 18.247C32.658 18.1883 32.6299 18.1303 32.5999 18.0729C32.5936 18.0609 32.5869 18.049 32.5804 18.037C32.5557 17.991 32.5301 17.9452 32.5034 17.9C32.4929 17.8823 32.4823 17.8648 32.4716 17.8472C32.4453 17.8041 32.4181 17.7614 32.3899 17.719C32.3808 17.7055 32.3723 17.6918 32.3631 17.6784C32.3263 17.6243 32.2881 17.5709 32.2484 17.518C32.2385 17.505 32.2283 17.4922 32.2183 17.4792C32.187 17.4385 32.1549 17.398 32.1218 17.358C32.1079 17.3412 32.0939 17.3243 32.0796 17.3077C32.0457 17.2675 32.0109 17.228 31.9754 17.1887C31.9644 17.1767 31.9539 17.1645 31.9428 17.1525C31.8969 17.1028 31.8498 17.0538 31.8014 17.0053C31.7879 16.9918 31.7738 16.9786 31.7602 16.9652C31.7233 16.9289 31.6857 16.893 31.6474 16.8575C31.63 16.8415 31.6128 16.8256 31.5953 16.8098C31.5543 16.7725 31.5124 16.7359 31.47 16.6994C31.4576 16.6888 31.4456 16.6778 31.4329 16.6672C31.3793 16.6219 31.3243 16.5772 31.2684 16.533C31.2507 16.5189 31.2325 16.5052 31.2146 16.4913C31.1737 16.4596 31.1323 16.4282 31.0903 16.397C31.0694 16.3814 31.0483 16.3659 31.0272 16.3506C30.9805 16.3167 30.9332 16.2832 30.8851 16.2501C30.8709 16.2402 30.8571 16.2302 30.8426 16.2204C30.7822 16.1792 30.7207 16.1386 30.6585 16.0985C30.6366 16.0844 30.6144 16.0705 30.5922 16.0566C30.5482 16.0289 30.5039 16.0013 30.4591 15.9739C30.4344 15.9588 30.4098 15.9438 30.3849 15.929C30.3338 15.8985 30.282 15.8684 30.2298 15.8385C30.2129 15.8288 30.1965 15.8191 30.1794 15.8094C30.1145 15.7727 30.0483 15.7364 29.9816 15.7006C29.9545 15.6861 29.927 15.6717 29.8996 15.6573C29.8548 15.6336 29.8096 15.6101 29.7641 15.587C29.7352 15.5722 29.7062 15.5574 29.6768 15.5427C29.6227 15.5156 29.568 15.4888 29.5131 15.4622C29.482 15.4472 29.4509 15.4323 29.4198 15.4175C29.3624 15.3902 29.3046 15.3634 29.2464 15.3367C29.2139 15.3219 29.1813 15.3073 29.1486 15.2928C29.1039 15.2728 29.0589 15.2529 29.0138 15.2332C28.9804 15.2187 28.9469 15.2041 28.9133 15.1897C28.8591 15.1666 28.8043 15.1437 28.7494 15.1209C28.7035 15.1019 28.6572 15.0831 28.611 15.0643C28.5616 15.0443 28.5121 15.0244 28.4623 15.0049C28.4241 14.9898 28.3855 14.975 28.3471 14.9603C28.3048 14.944 28.2624 14.9278 28.2196 14.9118C28.1803 14.8969 28.141 14.8821 28.1014 14.8674C28.0514 14.849 28.001 14.8308 27.9505 14.8126C27.8887 14.7903 27.8265 14.7684 27.7641 14.7466C27.7223 14.732 27.6806 14.7174 27.6386 14.7031C27.5941 14.6879 27.5494 14.6728 27.5046 14.6578C27.4664 14.645 27.4279 14.6323 27.3896 14.6197C27.3438 14.6046 27.2981 14.5896 27.252 14.5746C27.2144 14.5624 27.1766 14.5506 27.139 14.5387C27.0545 14.512 26.9698 14.4856 26.8848 14.4595C26.8514 14.4494 26.818 14.4392 26.7845 14.4291C26.7334 14.4136 26.6821 14.3985 26.6309 14.3834C26.5987 14.3739 26.5667 14.3646 26.5344 14.3552C26.4807 14.3397 26.4271 14.3241 26.3733 14.3088C26.3713 14.3082 26.3695 14.3077 26.3676 14.3071C26.2388 14.2706 26.1093 14.2348 25.9794 14.1999C25.9566 14.1937 25.9338 14.1875 25.9111 14.1814C25.8514 14.1655 25.7918 14.1498 25.732 14.1341C25.7104 14.1284 25.6889 14.1229 25.6672 14.1172C25.4668 14.0653 25.2656 14.0152 25.0639 13.9666C25.0507 13.9635 25.0375 13.9602 25.0243 13.9571C24.9573 13.9411 24.8905 13.9252 24.8235 13.9095C24.8124 13.907 24.8014 13.9044 24.7905 13.9018C24.5733 13.8512 24.356 13.8024 24.1388 13.7553C24.1386 13.7553 24.1384 13.7551 24.1381 13.7551C22.488 13.3974 20.8563 13.1382 19.4931 12.922C14.1703 12.0781 11.1391 10.9086 12.3842 7.29476C12.8394 5.97343 13.6441 5.38541 14.5056 5.18311C13.5383 5.35445 12.4335 5.5782 11.8321 7.8953C11.1666 10.4601 11.9457 11.7912 15.1599 12.6677C18.3739 13.5443 20.284 13.4627 24.6561 14.5559C24.9047 14.6181 25.1542 14.6804 25.4034 14.7433C28.9359 15.7328 31.973 17.3604 32.2428 19.5017H32.9945C32.991 19.4397 32.9867 19.3783 32.9802 19.318Z" fill="#24388A"/>
<path d="M11.9936 3.26855C11.9936 3.26855 7.36266 5.88074 9.39997 10.4759C11.437 15.071 19.0961 14.7938 22.4438 16.0275C22.4438 16.0275 20.3875 15.1601 15.663 14.1902C10.9384 13.2204 9.50119 10.1696 9.39997 8.20325C9.29876 6.23691 10.729 4.18949 11.9936 3.26855Z" fill="white"/>
<path opacity="0.3" d="M27.7247 15.556L17.8656 15.1689L8.0069 14.8005C8.0069 14.8005 7.55315 22.6532 14.0037 24.6922C14.0037 24.6922 17.0655 25.4667 17.0655 27.325C17.0655 29.1834 17.0655 31.8675 17.0655 32.8999C17.0655 33.9323 11.0518 35.4036 11.0518 36.694C11.0518 37.9845 13.6843 38.449 17.8655 38.449C22.0466 38.449 24.6791 37.9845 24.6791 36.694C24.6791 35.4036 18.9494 34.2163 18.9494 33.1839C18.9494 32.1516 18.9494 29.4674 18.9494 27.609C18.9494 25.7508 21.7286 24.6925 21.7286 24.6925C28.1792 22.6535 27.7247 15.556 27.7247 15.556Z" fill="#0696D6"/>
<path d="M28.5506 15.3276L18.6915 14.9404L8.83232 15.3276C8.83232 15.3276 8.37902 22.4248 14.8295 24.4638L14.8282 24.464C14.8282 24.464 17.6074 25.5223 17.6074 27.3805C17.6074 29.2389 17.6074 31.923 17.6074 32.9554C17.6074 33.9878 11.8777 35.1752 11.8777 36.4655C11.8777 37.756 14.5102 38.2205 18.6913 38.2205C22.8725 38.2205 25.505 37.756 25.505 36.4655C25.505 35.1752 19.7753 33.9878 19.7753 32.9554C19.7753 31.9232 19.7753 29.2389 19.7753 27.3805C19.7753 25.5223 22.5545 24.464 22.5545 24.464L22.5532 24.4638C29.0038 22.4248 28.5506 15.3276 28.5506 15.3276Z" fill="#FFD400"/>
<path d="M15.7325 22.9762C13.6678 21.5652 12.4289 19.6037 12.0159 15.2334L9.40063 15.328C9.40063 15.328 9.67584 20.0168 12.0159 21.9095C14.3559 23.8022 18.0036 24.7829 18.0036 26.581C18.0036 28.379 18.0036 32.6118 18.0036 33.3001C18.0036 33.9883 14.9066 35.5714 13.7021 36.1219C12.9175 36.4806 12.6296 37.0435 12.5241 37.3925C13.0559 37.7021 13.9018 37.9139 15.0088 38.0457C14.9602 37.8167 14.9974 37.373 15.6638 36.7758C16.6616 35.8811 18.4855 34.0571 18.4855 33.3001C18.4855 32.543 18.4855 27.8802 18.4855 26.581C18.4855 25.2818 17.7972 24.3871 15.7325 22.9762Z" fill="#FFC81A"/>
<path d="M28.5505 15.3276L18.6914 14.9404L8.83223 15.3276C8.83223 15.3276 8.80705 15.7246 8.85368 16.3574C10.2203 16.8125 13.3425 17.573 18.9496 17.573C26.9504 17.573 25.4019 20.412 23.234 22.3219C21.0659 24.2318 19.1045 24.748 19.1045 27.587C19.1045 30.4259 19.1045 32.2327 19.1045 33.2134C19.1045 34.1941 21.2208 35.4847 22.4598 36.2589C23.5265 36.9254 23.6741 37.3245 23.2334 37.9168C24.6847 37.6482 25.5052 37.1856 25.5052 36.4653C25.5052 35.1749 19.7755 33.9876 19.7755 32.9552C19.7755 31.9229 19.7755 29.2387 19.7755 27.3803C19.7755 25.5221 22.5546 24.4638 22.5546 24.4638L22.5533 24.4635C29.0037 22.4248 28.5505 15.3276 28.5505 15.3276Z" fill="#F9A023"/>
<path d="M26.4965 14.6046C24.5465 14.3982 21.7717 14.269 18.692 14.269C15.6123 14.269 12.8375 14.3981 10.8875 14.6046H8.00684V15.3273C8.00684 15.9117 12.7907 16.3855 18.692 16.3855C24.5933 16.3855 29.3771 15.9117 29.3771 15.3273V14.6046H26.4965Z" fill="#FDB91F"/>
<path d="M18.6917 15.6632C24.593 15.6632 29.3768 15.1895 29.3768 14.605C29.3768 14.0206 24.593 13.5469 18.6917 13.5469C12.7905 13.5469 8.00659 14.0206 8.00659 14.605C8.00659 15.1895 12.7905 15.6632 18.6917 15.6632Z" fill="#FFCF16"/>
<path d="M18.6923 15.3536C13.1108 15.3536 9.45416 14.9493 8.49805 14.6051C9.45428 14.2609 13.1108 13.8567 18.6923 13.8567C24.2739 13.8567 27.9305 14.2609 28.8865 14.6051C27.9304 14.9493 24.2739 15.3536 18.6923 15.3536Z" fill="#F9AD22"/>
<path d="M8.49805 14.605C9.14028 14.8363 11.0027 15.0944 13.847 15.2391C14.3379 14.7281 15.2358 14.2035 16.8625 13.8718C12.3141 13.9482 9.34524 14.3001 8.49805 14.605Z" fill="#F58E25"/>
<path d="M18.3123 36.0369C19.1802 36.0801 20.8537 35.2133 20.8537 35.2133L20.4084 34.5156L18.3123 36.0369Z" fill="#F9A023"/>
<path d="M19.8611 26.829C20.0139 26.3295 20.358 25.9023 20.7522 25.554H18.6923C18.6923 25.554 17.8186 26.0119 17.2896 26.3156C17.4841 26.6337 17.6084 26.989 17.6084 27.3804C17.6084 27.4177 17.6084 27.4558 17.6084 27.4937C18.037 27.3311 18.9173 27.0214 19.8611 26.829Z" fill="#F9A023"/>
<path d="M32.9936 19.5015H29.2639C29.6124 20.7995 28.6689 22.2112 26.5479 22.7479C23.1811 23.5998 13.7683 24.999 13.5623 28.2454C13.5562 28.3432 13.5557 28.4363 13.5587 28.5268H15.9957C15.8038 27.7699 16.8266 26.8968 19.3189 26.429C22.6549 25.803 31.7424 25.3019 32.8678 20.7568C32.9778 20.3126 33.0164 19.8951 32.9936 19.5015Z" fill="#0696D6"/>
<path d="M32.9975 19.5783C32.9968 19.5593 32.9963 19.5401 32.9953 19.5211C32.995 19.5145 32.9941 19.5081 32.9938 19.5015H32.242C32.3016 19.9746 32.228 20.4728 31.9926 20.9949C30.4992 24.3064 22.4477 25.0855 19.1687 25.9297C15.9898 26.7479 15.0385 27.5053 15.3087 28.5269H15.9958C15.804 27.77 16.8268 26.8969 19.3191 26.4291C22.655 25.8032 31.7425 25.302 32.868 20.7569C32.8871 20.6797 32.9034 20.6035 32.9183 20.528C32.9227 20.5055 32.9265 20.4835 32.9306 20.4613C32.9409 20.4052 32.9499 20.3494 32.958 20.294C32.961 20.2727 32.9642 20.2515 32.9669 20.2304C32.9763 20.1572 32.9844 20.0843 32.9897 20.0125C32.9901 20.0071 32.9901 20.0018 32.9905 19.9962C32.9953 19.9295 32.9981 19.8635 32.9994 19.7981C32.9999 19.7772 32.9999 19.7563 33 19.7353C33.0003 19.6824 32.9994 19.6302 32.9975 19.5783Z" fill="#24388A"/>
<path d="M14.4292 28.0719C14.8937 26.4249 19.2665 24.7605 19.2665 24.7605C14.922 26.1075 13.9242 27.2839 13.9401 28.5265H14.3445C14.3566 28.3855 14.3833 28.2346 14.4292 28.0719Z" fill="white"/>
<path d="M14.3443 28.5271H13.9399C13.9403 28.5596 13.941 28.592 13.9427 28.6246C14.0118 29.9033 15.4029 30.2153 15.4029 30.2153C15.4029 30.2153 14.2351 29.8123 14.3443 28.5271Z" fill="white"/>
<path d="M20.8176 32.4873C21.0153 34.1191 18.0111 36.088 18.3125 36.0369C19.0355 35.9145 21.4198 34.5622 21.931 32.4873H20.8176Z" fill="#0696D6"/>
<path d="M21.5624 32.4873C21.1606 34.0152 20.04 35.1129 18.3123 36.0369C19.0352 35.9145 21.4195 34.5622 21.9307 32.4873H21.5624Z" fill="#24388A"/>
<path d="M20.2034 12.6753C20.1451 12.6027 20.0946 12.5358 20.051 12.4722H19.6269C19.6563 12.5113 19.6901 12.55 19.7343 12.5869C20.2281 12.9982 19.9812 13.3932 19.7343 13.5413C19.4874 13.6894 19.4547 14.1994 19.6356 14.3971C19.8166 14.5945 19.7672 15.0753 19.7672 15.0753L19.9318 14.8084L20.0717 15.0753C20.0717 15.0753 20.1704 14.6356 19.973 14.4299C19.7757 14.2243 19.7673 13.9856 19.9812 13.7799C20.1951 13.5742 20.5654 13.1258 20.2034 12.6753Z" fill="#BD2A2E"/>
</svg>
