<svg width="30" height="30" viewBox="0 0 30 30" fill="none" xmlns="http://www.w3.org/2000/svg">
<path d="M12.9879 7.87509C13.9858 7.90746 15.3189 8.27755 16.3802 9.2103C18.0954 10.7186 18.0618 12.5238 16.2744 13.955C16.0541 14.1314 15.8237 14.2988 15.5938 14.4659C14.6979 15.1168 13.8099 15.7621 13.5638 16.9067C13.4624 17.3779 12.8637 17.4281 12.3695 17.3382C11.7916 17.2344 11.4672 16.8956 11.3912 16.3776C11.2353 15.3181 11.6921 14.4674 12.5659 13.7747C12.8283 13.5668 13.1014 13.3696 13.3746 13.1724C13.6318 12.9867 13.889 12.801 14.1372 12.6064C15.061 11.8835 15.1162 11.0981 14.243 10.3217C13.4371 9.60439 11.9614 9.60049 11.2708 10.3234C10.9787 10.6283 10.7854 11.0159 10.5999 11.3878L10.589 11.4096C10.2798 12.0281 9.82236 12.4836 9.01704 12.224C8.17814 11.9533 7.82648 11.3895 8.05965 10.5561C8.52028 8.90944 10.2203 7.86392 12.9879 7.87509Z" fill="#C9C8C8"/>
<path d="M11.6093 19.6002C11.5891 20.3855 12.115 20.7942 12.8604 20.9375C13.5676 20.8712 14.0428 20.5253 14.021 19.8326C13.9972 19.0563 13.4661 18.5732 12.6984 18.5626C12.0943 18.555 11.6253 18.9839 11.6093 19.6002Z" fill="#C9C8C8"/>
<path fill-rule="evenodd" clip-rule="evenodd" d="M4.75584 22.6327C2.91182 20.6833 1.39817 18.5281 0.93907 15.8185C0.283639 11.9488 1.30822 8.58267 4.38963 6.08599C4.60343 5.91268 4.81679 5.73833 5.03026 5.56389C7.41687 3.61364 9.8173 1.6521 13.0008 1.00297C20.0353 -0.431461 27.2039 4.3944 28.3825 11.4256C28.737 13.5383 28.2632 15.5124 27.3127 17.3933C27.2462 17.5252 27.1692 17.6524 27.0922 17.7795C26.8912 18.1111 26.6905 18.4425 26.679 18.8561C24.9743 19.7786 24.3635 20.9122 24.6715 22.6509C24.9237 24.0748 24.7556 25.3169 23.6029 26.3762C23.1203 26.821 22.7301 27.3665 22.34 27.9118C22.1642 28.1576 21.9884 28.4034 21.8041 28.6399C20.82 29.5919 19.7554 29.2336 18.6904 28.8751L18.5875 28.8405C17.6881 27.4869 16.2938 26.3821 14.8659 26.3461C11.0098 26.2512 7.71557 24.9943 4.75584 22.6327ZM12.1325 4.72234C11.9934 4.72234 11.8539 4.7191 11.7144 4.71586C11.4126 4.70884 11.1108 4.70182 10.8117 4.72764C3.50553 5.35048 -0.347106 12.9573 3.52552 19.1681C5.44244 22.2416 8.26108 24.0789 11.7898 24.7643C12.3484 24.8725 12.9175 24.9336 13.4859 24.9946C15.1129 25.1693 16.7337 25.3433 18.082 26.621C18.1487 26.6844 18.2189 26.753 18.292 26.8244C18.9025 27.4208 19.7122 28.2119 20.3921 27.8089C20.9095 27.5012 20.6711 26.7132 20.4518 25.9881C20.3818 25.7568 20.3138 25.5319 20.2728 25.3311C20.0153 24.0683 20.2428 23.2632 21.3262 22.3661C23.7563 20.356 24.7415 17.6175 24.2119 14.4655C23.2678 8.83983 18.109 4.69285 12.1325 4.72234Z" fill="#C9C8C8"/>
</svg>
