<svg width="40" height="40" viewBox="0 0 40 40" fill="none" xmlns="http://www.w3.org/2000/svg">
<path d="M17.3172 10.5001C18.6477 10.5433 20.4252 11.0367 21.8403 12.2804C24.1272 14.2914 24.0824 16.6984 21.6992 18.6067C21.4055 18.8418 21.0983 19.0651 20.7917 19.2878C19.5972 20.1558 18.4132 21.0161 18.0851 22.5423C17.9499 23.1705 17.1516 23.2375 16.4926 23.1176C15.7221 22.9792 15.2896 22.5274 15.1882 21.8368C14.9804 20.4241 15.5895 19.2899 16.7545 18.3663C17.1044 18.0891 17.4685 17.8262 17.8328 17.5632C18.1757 17.3156 18.5186 17.068 18.8497 16.8085C20.0814 15.8447 20.1549 14.7975 18.9907 13.7622C17.9161 12.8058 15.9485 12.8007 15.0277 13.7645C14.6383 14.1711 14.3805 14.6879 14.1332 15.1837L14.1187 15.2128C13.7064 16.0375 13.0965 16.6448 12.0227 16.2987C10.9042 15.9377 10.4353 15.186 10.7462 14.0748C11.3604 11.8792 13.627 10.4852 17.3172 10.5001Z" fill="#0696D6"/>
<path d="M15.479 26.1335C15.4521 27.1807 16.1533 27.7256 17.1472 27.9167C18.0901 27.8282 18.7237 27.3671 18.6947 26.4435C18.6629 25.4084 17.9548 24.7643 16.9312 24.7501C16.1257 24.74 15.5004 25.3119 15.479 26.1335Z" fill="#0696D6"/>
<path fill-rule="evenodd" clip-rule="evenodd" d="M6.34112 30.1769C3.88242 27.5778 1.86422 24.7042 1.25209 21.0914C0.378186 15.9317 1.7443 11.4436 5.85284 8.11465C6.13791 7.88357 6.42238 7.6511 6.70701 7.41852C9.88915 4.81819 13.0897 2.2028 17.3343 1.33729C26.7138 -0.575282 36.2719 5.8592 37.8434 15.2341C38.316 18.0511 37.6843 20.6832 36.4169 23.1911C36.3283 23.3669 36.2256 23.5365 36.1229 23.7059C35.8549 24.1482 35.5873 24.5899 35.572 25.1414C33.299 26.3714 32.4847 27.8829 32.8954 30.2013C33.2316 32.0997 33.0075 33.7559 31.4705 35.1683C30.827 35.7614 30.3068 36.4886 29.7866 37.2158C29.5522 37.5435 29.3178 37.8712 29.0721 38.1866C27.76 39.4559 26.3405 38.9781 24.9205 38.5001L24.7833 38.454C23.5842 36.6491 21.725 35.1762 19.8213 35.1282C14.6797 35.0016 10.2874 33.3257 6.34112 30.1769ZM16.1767 6.29646C15.9911 6.29646 15.8052 6.29214 15.6192 6.28781C15.2168 6.27845 14.8144 6.26909 14.4156 6.30352C4.67404 7.13398 -0.462808 17.2764 4.70069 25.5574C7.25658 29.6555 11.0148 32.1052 15.7198 33.019C16.4645 33.1634 17.2233 33.2448 17.9812 33.3262C20.1505 33.5591 22.3115 33.7911 24.1093 35.4947C24.1983 35.5792 24.2919 35.6707 24.3893 35.7658C25.2033 36.561 26.283 37.6158 27.1895 37.0785C27.8794 36.6683 27.5615 35.6176 27.269 34.6508C27.1757 34.3424 27.085 34.0426 27.0304 33.7748C26.6871 32.091 26.9905 31.0176 28.4349 29.8214C31.6751 27.1413 32.9887 23.49 32.2825 19.2873C31.0238 11.7864 24.1453 6.25714 16.1767 6.29646Z" fill="#0696D6"/>
</svg>
